M48
METRIC,LZ,000.000
;FILE_FORMAT=3:3
;TYPE=PLATED
;Layer: PTH_Through_Via
;EasyEDA v6.5.38, 2023-11-29 22:14:48
;649fd776c75745b294ce3d4cd4ec5058,9a5be75d700b4a6385dc1106f27949ae,10
;Gerber Generator version 0.2
;Holesize 1 = 0.310 mm
T01C0.310
;Holesize 2 = 0.421 mm
T02C0.421
%
G05
G90
T01
X025043Y-112852
X026945Y-112852
X029798Y-122679
X028847Y-121728
X028530Y-110316
X032385Y-089535
X034290Y-089535
X024092Y-109999
X023818Y-130151
X021239Y-108731
X015875Y-098425
X015875Y-100330
X015875Y-096520
X015875Y-094615
X015875Y-106045
X015875Y-107950
X015875Y-104140
X015875Y-102235
X015875Y-113665
X015875Y-115570
X015875Y-111760
X015875Y-109855
X015875Y-121285
X015875Y-123190
X015875Y-119380
X015875Y-117475
X015875Y-128905
X015875Y-130810
X015875Y-127000
X015875Y-125095
X015875Y-134620
X015875Y-132715
X039370Y-134620
X039370Y-132715
X039370Y-130810
X039370Y-128905
X039370Y-127000
X039370Y-125095
X039370Y-123190
X039370Y-121285
X039370Y-119380
X039370Y-117475
X039370Y-115570
X039370Y-113665
X039370Y-111760
X039370Y-109855
X039370Y-107950
X039370Y-106045
X039370Y-104140
X039370Y-102235
X039370Y-100330
X039370Y-098425
X039370Y-096520
X039370Y-094615
X028575Y-089535
X030480Y-089535
X026670Y-089535
X024765Y-089535
X020955Y-089535
X022860Y-089535
X020955Y-139065
X022860Y-139065
X024765Y-139065
X026670Y-139065
X028575Y-139065
X030480Y-139065
X032385Y-139065
X034290Y-139065
X032017Y-120779
X032017Y-119509
X032017Y-123315
X032017Y-122045
X033287Y-124581
X032017Y-124581
X036140Y-124581
X034870Y-124581
X037406Y-124581
X038674Y-124581
X029798Y-115705
X029164Y-114439
X029164Y-113169
X029164Y-111901
X024765Y-093980
X024765Y-095250
X024765Y-097790
X024765Y-096520
X024765Y-099060
X025677Y-099855
X026628Y-100806
X026628Y-102074
X026628Y-103342
X025994Y-105878
X025994Y-104610
X024726Y-105878
X023458Y-105878
X023458Y-106829
X023458Y-107780
X023141Y-111267
X023141Y-112535
X022860Y-122555
X024130Y-122555
X021239Y-124264
X028530Y-128702
X028530Y-129970
X022225Y-124460
X028530Y-131238
T02
X025994Y-112852
X029798Y-121728
X029798Y-097953
X028530Y-096051
X030749Y-100489
X031066Y-103342
X038357Y-114754
X033919Y-116973
X035821Y-116973
X033919Y-114754
X028530Y-118558
X028530Y-123630
X033602Y-126800
X028530Y-127117
X028847Y-132506
X019337Y-125532
X028213Y-111267
X023141Y-109999
X018703Y-108097
X018703Y-105561
X018703Y-109999
M30
