M48
METRIC,LZ,000.000
;FILE_FORMAT=3:3
;TYPE=PLATED
;Layer: PTH_Through_Via
;EasyEDA v6.5.51, 2025-11-13 19:50:57
;17a338e000994cdea77b77a5ea670920,9a5be75d700b4a6385dc1106f27949ae,10
;Gerber Generator version 0.2
;Holesize 1 = 0.310 mm
T01C0.310
;Holesize 2 = 0.411 mm
T02C0.411
%
G05
G90
T01
X007500Y-099250
X009500Y-099250
X011500Y-099250
X013500Y-099250
X015500Y-099250
X017500Y-099250
X000750Y-094000
X000750Y-092000
X000750Y-090000
X000750Y-088000
X000750Y-086000
X000750Y-084000
X000750Y-082000
X000750Y-080000
X000750Y-078000
X000750Y-076000
X000750Y-074000
X000750Y-072000
X000750Y-070000
X000750Y-068000
X000750Y-066000
X000750Y-064000
X000750Y-062000
X000750Y-060000
X000750Y-058000
X000750Y-056000
X024250Y-056000
X024250Y-058000
X024250Y-060000
X024250Y-062000
X024250Y-064000
X024250Y-066000
X024250Y-068000
X024250Y-070000
X024250Y-072000
X024250Y-074000
X024250Y-076000
X024250Y-078000
X024250Y-080000
X024250Y-082000
X024250Y-084000
X024250Y-086000
X024250Y-088000
X024250Y-090000
X024250Y-092000
X024250Y-094000
X022000Y-086000
X020000Y-086000
X018000Y-086000
X016000Y-086000
X014000Y-086000
X012000Y-086000
X005500Y-099250
X019500Y-099250
X012000Y-084000
X012000Y-082000
X012000Y-080000
X012000Y-078000
X005500Y-050750
X007500Y-050750
X009500Y-050750
X011500Y-050750
X013500Y-050750
X015500Y-050750
X017500Y-050750
X019500Y-050750
X011000Y-076000
X010000Y-089750
X010000Y-072500
X010000Y-070500
X010000Y-074500
X012000Y-068500
X014000Y-068500
X016000Y-068500
X006000Y-092000
X006000Y-090000
X011500Y-088750
X011500Y-065000
T02
X011500Y-087750
X006000Y-091000
X004750Y-068500
X011500Y-066000
X004750Y-067250
X004750Y-071500
X004000Y-088000
X002000Y-091000
X017750Y-088999
X017750Y-091500
X013500Y-090499
X012999Y-083499
X013000Y-080500
X018250Y-077500
X019250Y-065750
X019250Y-063750
X013250Y-059250
X014250Y-057250
X016250Y-062750
M30
