M48
METRIC,LZ,000.000
;FILE_FORMAT=3:3
;TYPE=PLATED
;Layer: PTH_Through
;EasyEDA v6.5.22, 2023-04-19 13:17:33
;90ae9e6ee5e349668d1f8e0e14bee0a6,9a5be75d700b4a6385dc1106f27949ae,10
;Gerber Generator version 0.2
;Holesize 1 = 0.901 mm
T01C0.901
;Holesize 2 = 1.101 mm
T02C1.101
;Holesize 3 = 3.501 mm
T03C3.501
%
G05
G90
T01
X018699Y-098906
X021239Y-096366
X023779Y-098906
X023779Y-116654
X021239Y-119194
X018699Y-116654
X033921Y-110003
X031381Y-107463
X033921Y-104923
T02
X031389Y-090663
X028849Y-090663
X026309Y-090663
X023769Y-090663
X023769Y-135993
X026309Y-135993
X028849Y-135993
X031389Y-135993
T03
X036830Y-090805
X018415Y-090805
X018386Y-136627
X036772Y-136627
M30
