M48
METRIC,LZ,000.000
;FILE_FORMAT=3:3
;TYPE=PLATED
;Layer: PTH_Through
;EasyEDA v6.5.22, 2022-11-16 13:34:59
;f373a78c2b44414ab1ea4af223c4ca1c,9a5be75d700b4a6385dc1106f27949ae,10
;Gerber Generator version 0.2
;Holesize 1 = 0.901 mm
T01C0.901
;Holesize 2 = 1.101 mm
T02C1.101
;Holesize 3 = 3.501 mm
T03C3.501
%
G05
G90
T01
X017114Y-123949
X019654Y-121409
X022194Y-123949
X022225Y-109220
X019685Y-111760
X017145Y-109220
X032970Y-111905
X030430Y-109365
X032970Y-106825
T02
X023769Y-141691
X026309Y-141691
X028849Y-141691
X031389Y-141691
X031389Y-090662
X028849Y-090662
X026309Y-090662
X023769Y-090662
T03
X036830Y-090805
X018415Y-090805
X018415Y-140970
X036830Y-140970
M30
