M48
METRIC,LZ,000.000
;FILE_FORMAT=3:3
;TYPE=PLATED
;Layer: PTH_Through_Via
;EasyEDA v6.5.22, 2022-12-04 21:32:46
;716598de6f4c4b7384a2731a6566dcc5,9a5be75d700b4a6385dc1106f27949ae,10
;Gerber Generator version 0.2
;Holesize 1 = 0.301 mm
T01C0.301
;Holesize 2 = 0.400 mm
T02C0.400
%
G05
G90
T01
X026035Y-093345
X033919Y-099221
X020288Y-100172
X023141Y-099538
X026628Y-103342
X031066Y-117924
X019337Y-117607
X028213Y-132506
X036138Y-131872
X035561Y-115570
X027579Y-116656
X025360Y-120777
X023775Y-133774
X021239Y-117607
X021556Y-122045
X027579Y-113803
X027579Y-110316
X023458Y-106195
X025677Y-108414
X027896Y-119826
X030115Y-123313
X031383Y-128385
X036323Y-112921
X036455Y-106829
X038991Y-106829
X038674Y-113486
X038040Y-116656
X035504Y-118241
X033919Y-123630
X037723Y-123630
X036138Y-109365
X022860Y-092710
X020320Y-093980
X019685Y-096520
X018069Y-098587
X021590Y-103505
X031383Y-125532
X033602Y-126800
T02
X024409Y-124581
X028575Y-121920
M30
