G04 Layer: TopPasteMaskLayer*
G04 EasyEDA v6.5.47, 2024-11-14 14:17:51*
G04 9a5be75d700b4a6385dc1106f27949ae,10*
G04 Gerber Generator version 0.2*
G04 Scale: 100 percent, Rotated: No, Reflected: No *
G04 Dimensions in millimeters *
G04 leading zeros omitted , absolute positions ,4 integer and 5 decimal *
%FSLAX45Y45*%
%MOMM*%

%ADD10R,0.8000X0.8000*%
%ADD11R,1.1000X0.6000*%
%ADD12R,1.0700X0.6000*%
%ADD13R,0.8000X0.9000*%
%ADD14R,0.9000X0.8000*%
%ADD15R,1.0000X0.7500*%
%ADD16R,0.7500X1.0000*%
%ADD17R,1.2000X3.7000*%
%ADD18R,0.5320X1.0720*%
%ADD19R,0.0184X1.0720*%

%LPD*%
G36*
X1034948Y-6009589D02*
G01*
X1029919Y-6014618D01*
X1029919Y-6094577D01*
X1034948Y-6099606D01*
X1114907Y-6099606D01*
X1119936Y-6094577D01*
X1119936Y-6014618D01*
X1114907Y-6009589D01*
X1092149Y-6009589D01*
X1092149Y-6046571D01*
X1059129Y-6046571D01*
X1059129Y-6009589D01*
G37*
G36*
X1034948Y-5850585D02*
G01*
X1029919Y-5855614D01*
X1029919Y-5935573D01*
X1034948Y-5940602D01*
X1057706Y-5940602D01*
X1057706Y-5903620D01*
X1090726Y-5903620D01*
X1090726Y-5940602D01*
X1114907Y-5940602D01*
X1119936Y-5935573D01*
X1119936Y-5855614D01*
X1114907Y-5850585D01*
G37*
G36*
X809904Y-9234373D02*
G01*
X804875Y-9239402D01*
X804875Y-9319361D01*
X809904Y-9324390D01*
X889863Y-9324390D01*
X894892Y-9319361D01*
X894892Y-9239402D01*
X889863Y-9234373D01*
X867105Y-9234373D01*
X867105Y-9271355D01*
X834085Y-9271355D01*
X834085Y-9234373D01*
G37*
G36*
X809904Y-9075369D02*
G01*
X804875Y-9080398D01*
X804875Y-9160357D01*
X809904Y-9165386D01*
X832662Y-9165386D01*
X832662Y-9128404D01*
X865682Y-9128404D01*
X865682Y-9165386D01*
X889863Y-9165386D01*
X894892Y-9160357D01*
X894892Y-9080398D01*
X889863Y-9075369D01*
G37*
G36*
X2114448Y-5880049D02*
G01*
X2109419Y-5885078D01*
X2109419Y-5907836D01*
X2146452Y-5907836D01*
X2146452Y-5940856D01*
X2109419Y-5940856D01*
X2109419Y-5965037D01*
X2114448Y-5970066D01*
X2194407Y-5970066D01*
X2199436Y-5965037D01*
X2199436Y-5885078D01*
X2194407Y-5880049D01*
G37*
G36*
X1955444Y-5880049D02*
G01*
X1950415Y-5885078D01*
X1950415Y-5965037D01*
X1955444Y-5970066D01*
X2035403Y-5970066D01*
X2040432Y-5965037D01*
X2040432Y-5942279D01*
X2003450Y-5942279D01*
X2003450Y-5909259D01*
X2040432Y-5909259D01*
X2040432Y-5885078D01*
X2035403Y-5880049D01*
G37*
G36*
X2110130Y-6509461D02*
G01*
X2105101Y-6514490D01*
X2105101Y-6594449D01*
X2110130Y-6599478D01*
X2190089Y-6599478D01*
X2195118Y-6594449D01*
X2195118Y-6514490D01*
X2190089Y-6509461D01*
X2167331Y-6509461D01*
X2167331Y-6546494D01*
X2134311Y-6546494D01*
X2134311Y-6509461D01*
G37*
G36*
X2110130Y-6350457D02*
G01*
X2105101Y-6355486D01*
X2105101Y-6435445D01*
X2110130Y-6440474D01*
X2132888Y-6440474D01*
X2132888Y-6403492D01*
X2165908Y-6403492D01*
X2165908Y-6440474D01*
X2190089Y-6440474D01*
X2195118Y-6435445D01*
X2195118Y-6355486D01*
X2190089Y-6350457D01*
G37*
G36*
X1034948Y-6309563D02*
G01*
X1029919Y-6314592D01*
X1029919Y-6394551D01*
X1034948Y-6399580D01*
X1114907Y-6399580D01*
X1119936Y-6394551D01*
X1119936Y-6314592D01*
X1114907Y-6309563D01*
X1092149Y-6309563D01*
X1092149Y-6346545D01*
X1059129Y-6346545D01*
X1059129Y-6309563D01*
G37*
G36*
X1034948Y-6150559D02*
G01*
X1029919Y-6155588D01*
X1029919Y-6235547D01*
X1034948Y-6240576D01*
X1057706Y-6240576D01*
X1057706Y-6203594D01*
X1090726Y-6203594D01*
X1090726Y-6240576D01*
X1114907Y-6240576D01*
X1119936Y-6235547D01*
X1119936Y-6155588D01*
X1114907Y-6150559D01*
G37*
G36*
X1859381Y-6655917D02*
G01*
X1854403Y-6660896D01*
X1854403Y-6788912D01*
X1859381Y-6793890D01*
X1974392Y-6793890D01*
X1979371Y-6788912D01*
X1978914Y-6746900D01*
X1934870Y-6746900D01*
X1934870Y-6701891D01*
X1979879Y-6701891D01*
X1979371Y-6660896D01*
X1974392Y-6655917D01*
G37*
G36*
X2075383Y-6655917D02*
G01*
X2070404Y-6660896D01*
X2070862Y-6702907D01*
X2114905Y-6702907D01*
X2114905Y-6747916D01*
X2069896Y-6747916D01*
X2070404Y-6788912D01*
X2075383Y-6793890D01*
X2190394Y-6793890D01*
X2195372Y-6788912D01*
X2195372Y-6660896D01*
X2190394Y-6655917D01*
G37*
G36*
X1859381Y-7331049D02*
G01*
X1854403Y-7336028D01*
X1854403Y-7464044D01*
X1859381Y-7469022D01*
X1974392Y-7469022D01*
X1979371Y-7464044D01*
X1978914Y-7422032D01*
X1934870Y-7422032D01*
X1934870Y-7377023D01*
X1979879Y-7377023D01*
X1979371Y-7336028D01*
X1974392Y-7331049D01*
G37*
G36*
X2075383Y-7331049D02*
G01*
X2070404Y-7336028D01*
X2070862Y-7378039D01*
X2114905Y-7378039D01*
X2114905Y-7423048D01*
X2069896Y-7423048D01*
X2070404Y-7464044D01*
X2075383Y-7469022D01*
X2190394Y-7469022D01*
X2195372Y-7464044D01*
X2195372Y-7336028D01*
X2190394Y-7331049D01*
G37*
G36*
X1409547Y-5856071D02*
G01*
X1404569Y-5861050D01*
X1404569Y-5989066D01*
X1409547Y-5994044D01*
X1524558Y-5994044D01*
X1529537Y-5989066D01*
X1529080Y-5947054D01*
X1485036Y-5947054D01*
X1485036Y-5902045D01*
X1530045Y-5902045D01*
X1529537Y-5861050D01*
X1524558Y-5856071D01*
G37*
G36*
X1625549Y-5856071D02*
G01*
X1620570Y-5861050D01*
X1621028Y-5903061D01*
X1665071Y-5903061D01*
X1665071Y-5948070D01*
X1620062Y-5948070D01*
X1620570Y-5989066D01*
X1625549Y-5994044D01*
X1740560Y-5994044D01*
X1745538Y-5989066D01*
X1745538Y-5861050D01*
X1740560Y-5856071D01*
G37*
G36*
X1859381Y-6156045D02*
G01*
X1854403Y-6161024D01*
X1854403Y-6289040D01*
X1859381Y-6294018D01*
X1974392Y-6294018D01*
X1979371Y-6289040D01*
X1978914Y-6247028D01*
X1934870Y-6247028D01*
X1934870Y-6202019D01*
X1979879Y-6202019D01*
X1979371Y-6161024D01*
X1974392Y-6156045D01*
G37*
G36*
X2075383Y-6156045D02*
G01*
X2070404Y-6161024D01*
X2070862Y-6203035D01*
X2114905Y-6203035D01*
X2114905Y-6248044D01*
X2069896Y-6248044D01*
X2070404Y-6289040D01*
X2075383Y-6294018D01*
X2190394Y-6294018D01*
X2195372Y-6289040D01*
X2195372Y-6161024D01*
X2190394Y-6156045D01*
G37*
G36*
X859942Y-8300415D02*
G01*
X854913Y-8305444D01*
X854913Y-8385403D01*
X859942Y-8390432D01*
X882700Y-8390432D01*
X882700Y-8353399D01*
X915720Y-8353399D01*
X915720Y-8390432D01*
X939901Y-8390432D01*
X944930Y-8385403D01*
X944930Y-8305444D01*
X939901Y-8300415D01*
G37*
G36*
X859942Y-8459419D02*
G01*
X854913Y-8464448D01*
X854913Y-8544407D01*
X859942Y-8549436D01*
X939901Y-8549436D01*
X944930Y-8544407D01*
X944930Y-8464448D01*
X939901Y-8459419D01*
X917143Y-8459419D01*
X917143Y-8496452D01*
X884123Y-8496452D01*
X884123Y-8459419D01*
G37*
G36*
X809904Y-7025589D02*
G01*
X804875Y-7030618D01*
X804875Y-7110577D01*
X809904Y-7115606D01*
X832662Y-7115606D01*
X832662Y-7078573D01*
X865682Y-7078573D01*
X865682Y-7115606D01*
X889863Y-7115606D01*
X894892Y-7110577D01*
X894892Y-7030618D01*
X889863Y-7025589D01*
G37*
G36*
X809904Y-7184593D02*
G01*
X804875Y-7189622D01*
X804875Y-7269581D01*
X809904Y-7274610D01*
X889863Y-7274610D01*
X894892Y-7269581D01*
X894892Y-7189622D01*
X889863Y-7184593D01*
X867105Y-7184593D01*
X867105Y-7221626D01*
X834085Y-7221626D01*
X834085Y-7184593D01*
G37*
G36*
X1389532Y-7580071D02*
G01*
X1384503Y-7585100D01*
X1384503Y-7607858D01*
X1421536Y-7607858D01*
X1421536Y-7640878D01*
X1384503Y-7640878D01*
X1384503Y-7665059D01*
X1389532Y-7670088D01*
X1469491Y-7670088D01*
X1474520Y-7665059D01*
X1474520Y-7585100D01*
X1469491Y-7580071D01*
G37*
G36*
X1230528Y-7580071D02*
G01*
X1225499Y-7585100D01*
X1225499Y-7665059D01*
X1230528Y-7670088D01*
X1310487Y-7670088D01*
X1315516Y-7665059D01*
X1315516Y-7642301D01*
X1278534Y-7642301D01*
X1278534Y-7609281D01*
X1315516Y-7609281D01*
X1315516Y-7585100D01*
X1310487Y-7580071D01*
G37*
G36*
X889406Y-6755079D02*
G01*
X884377Y-6760108D01*
X884377Y-6782866D01*
X921410Y-6782866D01*
X921410Y-6815886D01*
X884377Y-6815886D01*
X884377Y-6840067D01*
X889406Y-6845096D01*
X969365Y-6845096D01*
X974394Y-6840067D01*
X974394Y-6760108D01*
X969365Y-6755079D01*
G37*
G36*
X730402Y-6755079D02*
G01*
X725373Y-6760108D01*
X725373Y-6840067D01*
X730402Y-6845096D01*
X810361Y-6845096D01*
X815390Y-6840067D01*
X815390Y-6817309D01*
X778357Y-6817309D01*
X778357Y-6784289D01*
X815390Y-6784289D01*
X815390Y-6760108D01*
X810361Y-6755079D01*
G37*
G36*
X2114499Y-7154976D02*
G01*
X2109520Y-7160006D01*
X2109520Y-7182764D01*
X2146503Y-7182764D01*
X2146503Y-7215784D01*
X2109520Y-7215784D01*
X2109520Y-7239965D01*
X2114499Y-7244994D01*
X2194509Y-7244994D01*
X2199487Y-7239965D01*
X2199487Y-7160006D01*
X2194509Y-7154976D01*
G37*
G36*
X1955495Y-7154976D02*
G01*
X1950516Y-7160006D01*
X1950516Y-7239965D01*
X1955495Y-7244994D01*
X2035505Y-7244994D01*
X2040483Y-7239965D01*
X2040483Y-7217206D01*
X2003501Y-7217206D01*
X2003501Y-7184186D01*
X2040483Y-7184186D01*
X2040483Y-7160006D01*
X2035505Y-7154976D01*
G37*
G36*
X439521Y-8304987D02*
G01*
X434492Y-8309965D01*
X434492Y-8332774D01*
X471525Y-8332774D01*
X471525Y-8365794D01*
X434492Y-8365794D01*
X434492Y-8389975D01*
X439521Y-8395004D01*
X519480Y-8395004D01*
X524510Y-8389975D01*
X524510Y-8309965D01*
X519480Y-8304987D01*
G37*
G36*
X280517Y-8304987D02*
G01*
X275488Y-8309965D01*
X275488Y-8389975D01*
X280517Y-8395004D01*
X360476Y-8395004D01*
X365506Y-8389975D01*
X365506Y-8367166D01*
X328472Y-8367166D01*
X328472Y-8334197D01*
X365506Y-8334197D01*
X365506Y-8309965D01*
X360476Y-8304987D01*
G37*
G36*
X280517Y-8454999D02*
G01*
X275488Y-8459978D01*
X275488Y-8539988D01*
X280517Y-8544966D01*
X360476Y-8544966D01*
X365506Y-8539988D01*
X365506Y-8517178D01*
X328472Y-8517178D01*
X328472Y-8484209D01*
X365506Y-8484209D01*
X365506Y-8459978D01*
X360476Y-8454999D01*
G37*
G36*
X439521Y-8454999D02*
G01*
X434492Y-8459978D01*
X434492Y-8482787D01*
X471525Y-8482787D01*
X471525Y-8515756D01*
X434492Y-8515756D01*
X434492Y-8539988D01*
X439521Y-8544966D01*
X519480Y-8544966D01*
X524510Y-8539988D01*
X524510Y-8459978D01*
X519480Y-8454999D01*
G37*
G36*
X1513687Y-8090662D02*
G01*
X1507286Y-8097062D01*
X1507286Y-8147405D01*
X1536649Y-8174837D01*
X1564284Y-8174837D01*
X1593646Y-8147405D01*
X1593646Y-8097062D01*
X1587246Y-8090662D01*
G37*
G36*
X1537766Y-8226399D02*
G01*
X1508404Y-8253780D01*
X1508404Y-8304123D01*
X1514805Y-8310524D01*
X1588414Y-8310524D01*
X1594815Y-8304123D01*
X1594815Y-8253780D01*
X1565402Y-8226399D01*
G37*
G36*
X1610715Y-9050121D02*
G01*
X1581302Y-9077553D01*
X1581302Y-9127896D01*
X1587703Y-9134297D01*
X1661312Y-9134297D01*
X1667713Y-9127896D01*
X1667713Y-9077553D01*
X1638350Y-9050121D01*
G37*
G36*
X1586585Y-8914434D02*
G01*
X1580184Y-8920835D01*
X1580184Y-8971178D01*
X1609598Y-8998559D01*
X1637233Y-8998559D01*
X1666595Y-8971178D01*
X1666595Y-8920835D01*
X1660194Y-8914434D01*
G37*
G36*
X2113686Y-6865670D02*
G01*
X2107285Y-6872071D01*
X2107285Y-6922414D01*
X2136648Y-6949846D01*
X2164283Y-6949846D01*
X2193645Y-6922414D01*
X2193645Y-6872071D01*
X2187295Y-6865670D01*
G37*
G36*
X2137765Y-7001408D02*
G01*
X2108403Y-7028789D01*
X2108403Y-7079132D01*
X2114804Y-7085533D01*
X2188413Y-7085533D01*
X2194814Y-7079132D01*
X2194814Y-7028789D01*
X2165400Y-7001408D01*
G37*
D10*
G01*
X899972Y-8719946D03*
G01*
X899998Y-8879839D03*
D11*
G01*
X345008Y-6845071D03*
G01*
X345008Y-6655079D03*
G01*
X605028Y-6655079D03*
G01*
X605028Y-6750075D03*
G01*
X605028Y-6845071D03*
D12*
G01*
X523570Y-8895079D03*
G01*
X523570Y-8705087D03*
G01*
X276555Y-8800084D03*
D13*
G01*
X1545005Y-7949996D03*
G01*
X1405001Y-7949996D03*
D14*
G01*
X1450009Y-8779992D03*
G01*
X1450009Y-8919971D03*
D13*
G01*
X1629994Y-8774988D03*
G01*
X1769998Y-8774988D03*
G01*
X1545005Y-8449970D03*
G01*
X1405001Y-8449970D03*
G01*
X1694992Y-5724982D03*
G01*
X1554987Y-5724982D03*
G01*
X545007Y-7049998D03*
G01*
X405003Y-7049998D03*
D14*
G01*
X1275003Y-8779992D03*
G01*
X1275003Y-8919971D03*
D13*
G01*
X545007Y-7249998D03*
G01*
X405003Y-7249998D03*
G01*
X1629994Y-9274987D03*
G01*
X1769998Y-9274987D03*
G01*
X470001Y-9099981D03*
G01*
X329996Y-9099981D03*
G01*
X920013Y-6649973D03*
G01*
X780008Y-6649973D03*
D15*
G01*
X1592249Y-6174994D03*
G01*
X1357756Y-6174994D03*
G01*
X1357731Y-6374993D03*
G01*
X1592249Y-6374993D03*
D16*
G01*
X2124989Y-7867243D03*
G01*
X2124989Y-7632725D03*
D17*
G01*
X2124862Y-8199983D03*
G01*
X1825142Y-8199983D03*
D18*
G01*
X1919986Y-7635087D03*
G01*
X1824989Y-7635087D03*
G01*
X1729994Y-7635087D03*
G01*
X1729994Y-7864881D03*
G01*
X1824989Y-7864881D03*
G01*
X1919986Y-7864881D03*
M02*
