G04 Layer: TopPasteMaskLayer*
G04 EasyEDA v6.5.22, 2023-03-08 13:41:41*
G04 390c6d156fdc4d62a17363b05527c9d0,9a5be75d700b4a6385dc1106f27949ae,10*
G04 Gerber Generator version 0.2*
G04 Scale: 100 percent, Rotated: No, Reflected: No *
G04 Dimensions in millimeters *
G04 leading zeros omitted , absolute positions ,4 integer and 5 decimal *
%FSLAX45Y45*%
%MOMM*%

%ADD10R,1.6000X3.5000*%
%ADD11R,0.8000X0.9000*%
%ADD12R,1.0700X0.6000*%
%ADD13R,0.8000X0.8000*%
%ADD14R,0.5320X1.0375*%
%ADD15R,1.1500X0.9500*%
%ADD16R,0.5320X1.0720*%
%ADD17R,1.0000X0.6000*%
%ADD18R,0.0140X0.6000*%

%LPD*%
G36*
X3229406Y-9787686D02*
G01*
X3224377Y-9792665D01*
X3224377Y-9920681D01*
X3229406Y-9925659D01*
X3344367Y-9925659D01*
X3349396Y-9920681D01*
X3348888Y-9878669D01*
X3304895Y-9878669D01*
X3304895Y-9833660D01*
X3349904Y-9833660D01*
X3349396Y-9792665D01*
X3344367Y-9787686D01*
G37*
G36*
X3444392Y-9787686D02*
G01*
X3439414Y-9792665D01*
X3439871Y-9833660D01*
X3483914Y-9833660D01*
X3483914Y-9878669D01*
X3439414Y-9878669D01*
X3439414Y-9920681D01*
X3444392Y-9925659D01*
X3559403Y-9925659D01*
X3564382Y-9920681D01*
X3564382Y-9792665D01*
X3559403Y-9787686D01*
G37*
G36*
X3640886Y-9939578D02*
G01*
X3634486Y-9945979D01*
X3634486Y-9996322D01*
X3663848Y-10023703D01*
X3691483Y-10023703D01*
X3720846Y-9996322D01*
X3720846Y-9945979D01*
X3714445Y-9939578D01*
G37*
G36*
X3664965Y-10075265D02*
G01*
X3635603Y-10102697D01*
X3635603Y-10153040D01*
X3642004Y-10159441D01*
X3715613Y-10159441D01*
X3722014Y-10153040D01*
X3722014Y-10102697D01*
X3692601Y-10075265D01*
G37*
G36*
X2591104Y-10590580D02*
G01*
X2586075Y-10595559D01*
X2586075Y-10675569D01*
X2591104Y-10680598D01*
X2671114Y-10680598D01*
X2676093Y-10675569D01*
X2676093Y-10595559D01*
X2671114Y-10590580D01*
X2648305Y-10590580D01*
X2648305Y-10627563D01*
X2615285Y-10627563D01*
X2615285Y-10590580D01*
G37*
G36*
X2591104Y-10431576D02*
G01*
X2586075Y-10436606D01*
X2586075Y-10515600D01*
X2591104Y-10520578D01*
X2615285Y-10520578D01*
X2615285Y-10482580D01*
X2648305Y-10482580D01*
X2648305Y-10520578D01*
X2671114Y-10520578D01*
X2676093Y-10515600D01*
X2676093Y-10436606D01*
X2671114Y-10431576D01*
G37*
G36*
X2512110Y-12254585D02*
G01*
X2507081Y-12259564D01*
X2507081Y-12282373D01*
X2544114Y-12282373D01*
X2544114Y-12315393D01*
X2507081Y-12315393D01*
X2507081Y-12339574D01*
X2512110Y-12344552D01*
X2592120Y-12344552D01*
X2597099Y-12339574D01*
X2597099Y-12259564D01*
X2592120Y-12254585D01*
G37*
G36*
X2353106Y-12254585D02*
G01*
X2348077Y-12259564D01*
X2348077Y-12339574D01*
X2353106Y-12344552D01*
X2432100Y-12344552D01*
X2437079Y-12339574D01*
X2437079Y-12315393D01*
X2399080Y-12315393D01*
X2399080Y-12282373D01*
X2437079Y-12282373D01*
X2437079Y-12259564D01*
X2432100Y-12254585D01*
G37*
G36*
X3229406Y-9977882D02*
G01*
X3224377Y-9982860D01*
X3224377Y-10110876D01*
X3229406Y-10115854D01*
X3344367Y-10115854D01*
X3349396Y-10110876D01*
X3348888Y-10068864D01*
X3304895Y-10068864D01*
X3304895Y-10023906D01*
X3349904Y-10023906D01*
X3349396Y-9982860D01*
X3344367Y-9977882D01*
G37*
G36*
X3444392Y-9977882D02*
G01*
X3439414Y-9982860D01*
X3439871Y-10023906D01*
X3483914Y-10023906D01*
X3483914Y-10068864D01*
X3439414Y-10068864D01*
X3439414Y-10110876D01*
X3444392Y-10115854D01*
X3559403Y-10115854D01*
X3564382Y-10110876D01*
X3564382Y-9982860D01*
X3559403Y-9977882D01*
G37*
G36*
X2912414Y-9407296D02*
G01*
X2907385Y-9412274D01*
X2907385Y-9540290D01*
X2912414Y-9545269D01*
X3027375Y-9545269D01*
X3032404Y-9540290D01*
X3031896Y-9498279D01*
X2987903Y-9498279D01*
X2987903Y-9453270D01*
X3032912Y-9453270D01*
X3032404Y-9412274D01*
X3027375Y-9407296D01*
G37*
G36*
X3127400Y-9407296D02*
G01*
X3122371Y-9412274D01*
X3122879Y-9453270D01*
X3166872Y-9453270D01*
X3166872Y-9498279D01*
X3122371Y-9498279D01*
X3122371Y-9540290D01*
X3127400Y-9545269D01*
X3242411Y-9545269D01*
X3247390Y-9540290D01*
X3247390Y-9412274D01*
X3242411Y-9407296D01*
G37*
G36*
X3070250Y-11714784D02*
G01*
X3063849Y-11721185D01*
X3063849Y-11771477D01*
X3093262Y-11798909D01*
X3120898Y-11798909D01*
X3150260Y-11771477D01*
X3150260Y-11721185D01*
X3143859Y-11714784D01*
G37*
G36*
X3094380Y-11850471D02*
G01*
X3064967Y-11877903D01*
X3064967Y-11928246D01*
X3071368Y-11934647D01*
X3144977Y-11934647D01*
X3151378Y-11928246D01*
X3151378Y-11877903D01*
X3122015Y-11850471D01*
G37*
G36*
X3187395Y-13022122D02*
G01*
X3158032Y-13049554D01*
X3158032Y-13099897D01*
X3164433Y-13106298D01*
X3238042Y-13106298D01*
X3244443Y-13099897D01*
X3244443Y-13049554D01*
X3215030Y-13022122D01*
G37*
G36*
X3163316Y-12886436D02*
G01*
X3156915Y-12892836D01*
X3156915Y-12943128D01*
X3186277Y-12970560D01*
X3213912Y-12970560D01*
X3243275Y-12943128D01*
X3243275Y-12892836D01*
X3236874Y-12886436D01*
G37*
G36*
X3463086Y-10194086D02*
G01*
X3458108Y-10199065D01*
X3458108Y-10221874D01*
X3495090Y-10221874D01*
X3495090Y-10254894D01*
X3458108Y-10254894D01*
X3458108Y-10279075D01*
X3463086Y-10284104D01*
X3543096Y-10284104D01*
X3548075Y-10279075D01*
X3548075Y-10199065D01*
X3543096Y-10194086D01*
G37*
G36*
X3304082Y-10194086D02*
G01*
X3299104Y-10199065D01*
X3299104Y-10279075D01*
X3304082Y-10284104D01*
X3383076Y-10284104D01*
X3388106Y-10279075D01*
X3388106Y-10254894D01*
X3350107Y-10254894D01*
X3350107Y-10221874D01*
X3388106Y-10221874D01*
X3388106Y-10199065D01*
X3383076Y-10194086D01*
G37*
G36*
X1830324Y-12238990D02*
G01*
X1825294Y-12243968D01*
X1825294Y-12323978D01*
X1830324Y-12328956D01*
X1910283Y-12328956D01*
X1915312Y-12323978D01*
X1915312Y-12243968D01*
X1910283Y-12238990D01*
X1887524Y-12238990D01*
X1887524Y-12275972D01*
X1854504Y-12275972D01*
X1854504Y-12238990D01*
G37*
G36*
X1830324Y-12079986D02*
G01*
X1825294Y-12084964D01*
X1825294Y-12163958D01*
X1830324Y-12168987D01*
X1854504Y-12168987D01*
X1854504Y-12130989D01*
X1887524Y-12130989D01*
X1887524Y-12168987D01*
X1910283Y-12168987D01*
X1915312Y-12163958D01*
X1915312Y-12084964D01*
X1910283Y-12079986D01*
G37*
G36*
X2591104Y-10273588D02*
G01*
X2586075Y-10278567D01*
X2586075Y-10358577D01*
X2591104Y-10363555D01*
X2671114Y-10363555D01*
X2676093Y-10358577D01*
X2676093Y-10278567D01*
X2671114Y-10273588D01*
X2648305Y-10273588D01*
X2648305Y-10310571D01*
X2615285Y-10310571D01*
X2615285Y-10273588D01*
G37*
G36*
X2591104Y-10114584D02*
G01*
X2586075Y-10119563D01*
X2586075Y-10198557D01*
X2591104Y-10203586D01*
X2615285Y-10203586D01*
X2615285Y-10165588D01*
X2648305Y-10165588D01*
X2648305Y-10203586D01*
X2671114Y-10203586D01*
X2676093Y-10198557D01*
X2676093Y-10119563D01*
X2671114Y-10114584D01*
G37*
G36*
X2321407Y-12888569D02*
G01*
X2316378Y-12893548D01*
X2316378Y-12973558D01*
X2321407Y-12978587D01*
X2401366Y-12978587D01*
X2406396Y-12973558D01*
X2406396Y-12950799D01*
X2369413Y-12950799D01*
X2369413Y-12917779D01*
X2406396Y-12917779D01*
X2406396Y-12893548D01*
X2401366Y-12888569D01*
G37*
G36*
X2481376Y-12888569D02*
G01*
X2476398Y-12893548D01*
X2476398Y-12917779D01*
X2514396Y-12917779D01*
X2514396Y-12950799D01*
X2476398Y-12950799D01*
X2476398Y-12973558D01*
X2481376Y-12978587D01*
X2560370Y-12978587D01*
X2565400Y-12973558D01*
X2565400Y-12893548D01*
X2560370Y-12888569D01*
G37*
G36*
X2337511Y-13221665D02*
G01*
X2332482Y-13226694D01*
X2332482Y-13306653D01*
X2337511Y-13311682D01*
X2417470Y-13311682D01*
X2422499Y-13306653D01*
X2422499Y-13226694D01*
X2417470Y-13221665D01*
X2394712Y-13221665D01*
X2394712Y-13258647D01*
X2361692Y-13258647D01*
X2361692Y-13221665D01*
G37*
G36*
X2337511Y-13062661D02*
G01*
X2332482Y-13067690D01*
X2332482Y-13146684D01*
X2337511Y-13151662D01*
X2361692Y-13151662D01*
X2361692Y-13113664D01*
X2394712Y-13113664D01*
X2394712Y-13151662D01*
X2417470Y-13151662D01*
X2422499Y-13146684D01*
X2422499Y-13067690D01*
X2417470Y-13062661D01*
G37*
G36*
X3463086Y-9623501D02*
G01*
X3458108Y-9628479D01*
X3458108Y-9651288D01*
X3495090Y-9651288D01*
X3495090Y-9684258D01*
X3458108Y-9684258D01*
X3458108Y-9708489D01*
X3463086Y-9713468D01*
X3543096Y-9713468D01*
X3548075Y-9708489D01*
X3548075Y-9628479D01*
X3543096Y-9623501D01*
G37*
G36*
X3304082Y-9623501D02*
G01*
X3299104Y-9628479D01*
X3299104Y-9708489D01*
X3304082Y-9713468D01*
X3383076Y-9713468D01*
X3388106Y-9708489D01*
X3388106Y-9684258D01*
X3350107Y-9684258D01*
X3350107Y-9651288D01*
X3388106Y-9651288D01*
X3388106Y-9628479D01*
X3383076Y-9623501D01*
G37*
G36*
X3637178Y-9798100D02*
G01*
X3632200Y-9803079D01*
X3632200Y-9883089D01*
X3637178Y-9888067D01*
X3717188Y-9888067D01*
X3722166Y-9883089D01*
X3722166Y-9803079D01*
X3717188Y-9798100D01*
X3694379Y-9798100D01*
X3694379Y-9835083D01*
X3661410Y-9835083D01*
X3661410Y-9798100D01*
G37*
G36*
X3637178Y-9639096D02*
G01*
X3632200Y-9644075D01*
X3632200Y-9723069D01*
X3637178Y-9728098D01*
X3661410Y-9728098D01*
X3661410Y-9690100D01*
X3694379Y-9690100D01*
X3694379Y-9728098D01*
X3717188Y-9728098D01*
X3722166Y-9723069D01*
X3722166Y-9644075D01*
X3717188Y-9639096D01*
G37*
G36*
X2163419Y-12254585D02*
G01*
X2158390Y-12259564D01*
X2158390Y-12282373D01*
X2195423Y-12282373D01*
X2195423Y-12315393D01*
X2158390Y-12315393D01*
X2158390Y-12339574D01*
X2163419Y-12344552D01*
X2243429Y-12344552D01*
X2248408Y-12339574D01*
X2248408Y-12259564D01*
X2243429Y-12254585D01*
G37*
G36*
X2004415Y-12254585D02*
G01*
X1999386Y-12259564D01*
X1999386Y-12339574D01*
X2004415Y-12344552D01*
X2083409Y-12344552D01*
X2088388Y-12339574D01*
X2088388Y-12315393D01*
X2050389Y-12315393D01*
X2050389Y-12282373D01*
X2088388Y-12282373D01*
X2088388Y-12259564D01*
X2083409Y-12254585D01*
G37*
G36*
X3082696Y-11303558D02*
G01*
X3077718Y-11308588D01*
X3077718Y-11331397D01*
X3114700Y-11331397D01*
X3114700Y-11364366D01*
X3077718Y-11364366D01*
X3077718Y-11388598D01*
X3082696Y-11393576D01*
X3162706Y-11393576D01*
X3167684Y-11388598D01*
X3167684Y-11308588D01*
X3162706Y-11303558D01*
G37*
G36*
X2923692Y-11303558D02*
G01*
X2918714Y-11308588D01*
X2918714Y-11388598D01*
X2923692Y-11393576D01*
X3002686Y-11393576D01*
X3007715Y-11388598D01*
X3007715Y-11364366D01*
X2969717Y-11364366D01*
X2969717Y-11331397D01*
X3007715Y-11331397D01*
X3007715Y-11308588D01*
X3002686Y-11303558D01*
G37*
D10*
G01*
X3332505Y-11874500D03*
G01*
X3652494Y-11874500D03*
D11*
G01*
X3113201Y-12077674D03*
G01*
X2973197Y-12077674D03*
G01*
X3176676Y-9668510D03*
G01*
X3036671Y-9668510D03*
D12*
G01*
X1873605Y-12458166D03*
G01*
X1873605Y-12648158D03*
G01*
X2120595Y-12553162D03*
D13*
G01*
X2535631Y-13107238D03*
G01*
X2536342Y-13267131D03*
D11*
G01*
X3176600Y-13250570D03*
G01*
X3036595Y-13250570D03*
G01*
X3113201Y-11570487D03*
G01*
X2973197Y-11570487D03*
G01*
X3099993Y-12743383D03*
G01*
X3239998Y-12743383D03*
G01*
X3099993Y-12426365D03*
G01*
X3239998Y-12426365D03*
G01*
X2244115Y-11190071D03*
G01*
X2384094Y-11190071D03*
G01*
X3099993Y-12584887D03*
G01*
X3239998Y-12584887D03*
G01*
X2067102Y-10841380D03*
G01*
X1927097Y-10841380D03*
D14*
G01*
X2409088Y-10414254D03*
G01*
X2219096Y-10414254D03*
G01*
X2314092Y-10634497D03*
D15*
G01*
X3708882Y-11581206D03*
G01*
X3708882Y-11242725D03*
D16*
G01*
X3486886Y-11297056D03*
G01*
X3391890Y-11297056D03*
G01*
X3296894Y-11297056D03*
G01*
X3296894Y-11526875D03*
G01*
X3391890Y-11526875D03*
G01*
X3486886Y-11526875D03*
D17*
G01*
X2247493Y-10999774D03*
G01*
X2247493Y-10809782D03*
G01*
X2507513Y-10809782D03*
G01*
X2507513Y-10904778D03*
G01*
X2507513Y-10999774D03*
M02*
