G04 Layer: BottomSilkscreenLayer*
G04 EasyEDA v6.5.47, 2024-11-14 14:17:51*
G04 9a5be75d700b4a6385dc1106f27949ae,10*
G04 Gerber Generator version 0.2*
G04 Scale: 100 percent, Rotated: No, Reflected: No *
G04 Dimensions in millimeters *
G04 leading zeros omitted , absolute positions ,4 integer and 5 decimal *
%FSLAX45Y45*%
%MOMM*%

%ADD10C,0.4000*%

%LPD*%
G36*
X1683359Y-7478420D02*
G01*
X1683359Y-8300923D01*
X1724050Y-8300923D01*
X1724050Y-7519060D01*
X2104237Y-7519060D01*
X2104237Y-8437575D01*
X1925421Y-8438286D01*
X1733651Y-8438286D01*
X1683359Y-8439048D01*
X1683359Y-8478418D01*
X2144369Y-8478418D01*
X2144369Y-7478420D01*
G37*
G36*
X2333345Y-7502448D02*
G01*
X2331974Y-7503007D01*
X2188311Y-7547152D01*
X2188460Y-7558684D01*
X2206345Y-7558684D01*
X2279548Y-7538313D01*
X2280056Y-7538313D01*
X2280056Y-7579614D01*
X2206701Y-7559040D01*
X2206345Y-7558684D01*
X2188460Y-7558684D01*
X2188565Y-7570876D01*
X2333396Y-7615326D01*
X2333091Y-7594752D01*
X2295448Y-7583931D01*
X2295448Y-7533335D01*
X2295956Y-7533335D01*
X2333345Y-7522819D01*
G37*
G36*
X1918817Y-7588046D02*
G01*
X1899005Y-7588097D01*
X1879803Y-7590028D01*
X1864309Y-7592669D01*
X1851761Y-7595920D01*
X1841906Y-7599375D01*
X1829409Y-7605318D01*
X1822094Y-7610195D01*
X1813864Y-7617206D01*
X1807464Y-7625029D01*
X1802587Y-7633614D01*
X1799285Y-7642199D01*
X1797050Y-7651445D01*
X1796135Y-7657795D01*
X1796102Y-7663281D01*
X1821891Y-7663281D01*
X1822907Y-7656728D01*
X1824736Y-7651191D01*
X1827275Y-7646060D01*
X1832914Y-7639303D01*
X1839671Y-7634325D01*
X1847951Y-7630159D01*
X1858924Y-7626756D01*
X1872640Y-7624064D01*
X1887474Y-7622387D01*
X1907844Y-7621270D01*
X1931466Y-7621270D01*
X1950110Y-7622336D01*
X1965502Y-7624064D01*
X1979015Y-7626756D01*
X1989683Y-7630159D01*
X1998370Y-7634528D01*
X2004720Y-7639405D01*
X2009800Y-7645146D01*
X2013559Y-7652867D01*
X2015489Y-7659979D01*
X2015489Y-7674305D01*
X2013559Y-7681417D01*
X2010359Y-7688021D01*
X2005025Y-7694625D01*
X1997913Y-7699908D01*
X1988057Y-7704734D01*
X1974240Y-7708544D01*
X1960016Y-7710779D01*
X1949043Y-7711948D01*
X1929231Y-7713014D01*
X1908911Y-7713014D01*
X1889150Y-7711948D01*
X1873199Y-7710220D01*
X1859076Y-7707477D01*
X1847850Y-7703769D01*
X1839163Y-7699400D01*
X1831289Y-7693253D01*
X1827428Y-7688021D01*
X1824075Y-7681417D01*
X1822348Y-7674813D01*
X1821891Y-7663281D01*
X1796102Y-7663281D01*
X1795983Y-7674711D01*
X1797710Y-7686141D01*
X1800453Y-7695590D01*
X1804111Y-7703566D01*
X1809343Y-7711643D01*
X1818284Y-7720838D01*
X1825955Y-7726578D01*
X1835861Y-7732217D01*
X1846935Y-7736636D01*
X1857705Y-7739938D01*
X1873199Y-7743139D01*
X1891284Y-7745475D01*
X1919071Y-7746746D01*
X1946808Y-7745475D01*
X1960575Y-7743748D01*
X1973224Y-7741564D01*
X1987854Y-7737703D01*
X2002078Y-7732115D01*
X2011934Y-7726476D01*
X2018741Y-7721549D01*
X2027123Y-7713218D01*
X2033371Y-7703820D01*
X2037181Y-7695590D01*
X2039975Y-7685836D01*
X2041601Y-7675930D01*
X2041601Y-7658201D01*
X2039467Y-7645704D01*
X2036572Y-7636916D01*
X2032304Y-7628381D01*
X2026615Y-7620152D01*
X2017014Y-7610957D01*
X2009343Y-7605877D01*
X2000148Y-7601051D01*
X1990242Y-7597140D01*
X1980336Y-7594295D01*
X1967941Y-7591552D01*
X1953412Y-7589469D01*
X1938578Y-7588046D01*
G37*
G36*
X2188311Y-7623454D02*
G01*
X2188311Y-7733893D01*
X2204821Y-7733893D01*
X2204821Y-7688834D01*
X2333345Y-7688834D01*
X2333345Y-7669072D01*
X2205075Y-7668768D01*
X2204770Y-7623454D01*
G37*
G36*
X2253894Y-7751318D02*
G01*
X2238044Y-7752689D01*
X2225954Y-7754823D01*
X2214981Y-7758175D01*
X2207209Y-7761731D01*
X2201214Y-7765592D01*
X2194712Y-7771536D01*
X2189378Y-7779664D01*
X2186635Y-7788554D01*
X2185879Y-7794091D01*
X2201468Y-7794091D01*
X2203246Y-7789214D01*
X2205736Y-7785252D01*
X2210765Y-7780680D01*
X2217724Y-7777175D01*
X2225395Y-7774533D01*
X2237130Y-7772400D01*
X2251710Y-7771130D01*
X2280361Y-7771739D01*
X2294077Y-7773974D01*
X2302306Y-7776260D01*
X2311196Y-7780528D01*
X2317292Y-7786522D01*
X2319680Y-7791500D01*
X2320950Y-7798155D01*
X2319578Y-7805572D01*
X2316683Y-7810855D01*
X2310841Y-7816392D01*
X2301697Y-7820659D01*
X2290775Y-7823403D01*
X2277719Y-7825130D01*
X2256739Y-7825790D01*
X2238806Y-7824520D01*
X2226106Y-7822387D01*
X2216099Y-7818983D01*
X2210003Y-7815529D01*
X2204872Y-7810398D01*
X2201875Y-7804505D01*
X2201468Y-7794091D01*
X2185879Y-7794091D01*
X2185670Y-7795717D01*
X2186228Y-7806131D01*
X2188260Y-7814005D01*
X2191766Y-7820964D01*
X2197100Y-7827721D01*
X2202891Y-7832191D01*
X2209342Y-7836052D01*
X2217216Y-7839354D01*
X2227072Y-7842199D01*
X2239873Y-7844281D01*
X2258364Y-7845552D01*
X2276500Y-7844840D01*
X2289403Y-7843215D01*
X2297277Y-7841589D01*
X2305100Y-7839202D01*
X2313584Y-7835646D01*
X2322830Y-7829499D01*
X2329586Y-7822133D01*
X2333904Y-7813294D01*
X2335834Y-7806131D01*
X2335784Y-7790230D01*
X2333853Y-7783068D01*
X2330145Y-7775397D01*
X2324862Y-7769148D01*
X2318816Y-7764221D01*
X2312212Y-7760512D01*
X2303983Y-7757058D01*
X2293366Y-7754213D01*
X2278684Y-7751978D01*
G37*
G36*
X2258364Y-7785557D02*
G01*
X2254148Y-7786725D01*
X2249678Y-7790789D01*
X2247696Y-7795158D01*
X2247696Y-7801203D01*
X2249728Y-7805674D01*
X2253792Y-7809636D01*
X2258822Y-7811363D01*
X2262276Y-7811363D01*
X2267356Y-7809636D01*
X2271268Y-7805826D01*
X2273046Y-7802422D01*
X2273655Y-7796022D01*
X2271826Y-7791246D01*
X2268270Y-7787589D01*
X2263851Y-7785557D01*
G37*
G36*
X1855063Y-7787487D02*
G01*
X1845716Y-7789468D01*
X1837486Y-7792262D01*
X1828139Y-7797088D01*
X1820976Y-7802473D01*
X1812137Y-7811719D01*
X1806295Y-7820355D01*
X1802079Y-7829346D01*
X1798726Y-7839557D01*
X1796135Y-7855610D01*
X1796440Y-7879232D01*
X1799285Y-7895590D01*
X1803095Y-7910525D01*
X1808073Y-7925663D01*
X1840534Y-7925663D01*
X1840534Y-7925104D01*
X1835912Y-7917688D01*
X1829104Y-7903413D01*
X1825243Y-7891881D01*
X1823008Y-7881416D01*
X1821688Y-7868767D01*
X1822348Y-7856677D01*
X1823567Y-7850124D01*
X1825802Y-7842402D01*
X1829511Y-7834985D01*
X1833829Y-7829143D01*
X1840077Y-7823555D01*
X1846478Y-7820152D01*
X1855063Y-7817916D01*
X1867154Y-7817866D01*
X1874672Y-7819593D01*
X1880920Y-7822641D01*
X1888083Y-7829803D01*
X1892604Y-7838592D01*
X1896973Y-7851190D01*
X1905304Y-7885938D01*
X1909572Y-7897926D01*
X1914042Y-7907274D01*
X1920900Y-7917688D01*
X1929790Y-7926628D01*
X1937969Y-7931912D01*
X1946706Y-7935569D01*
X1954631Y-7937652D01*
X1963318Y-7939074D01*
X1982012Y-7939024D01*
X1990801Y-7937652D01*
X2000148Y-7934909D01*
X2008936Y-7930997D01*
X2017166Y-7925460D01*
X2024888Y-7917688D01*
X2031187Y-7908239D01*
X2034489Y-7900924D01*
X2037740Y-7891983D01*
X2040483Y-7878622D01*
X2041652Y-7867700D01*
X2041652Y-7847888D01*
X2040432Y-7836408D01*
X2038299Y-7823758D01*
X2033981Y-7807248D01*
X2027631Y-7789925D01*
X1993798Y-7789925D01*
X1993798Y-7790637D01*
X1999132Y-7799578D01*
X2003552Y-7807807D01*
X2008225Y-7818221D01*
X2012442Y-7830870D01*
X2014169Y-7839100D01*
X2015743Y-7850124D01*
X2015743Y-7863840D01*
X2014220Y-7875371D01*
X2011273Y-7884718D01*
X2007463Y-7891983D01*
X2002282Y-7898485D01*
X1994662Y-7904225D01*
X1987905Y-7906918D01*
X1978710Y-7908798D01*
X1965502Y-7908137D01*
X1958898Y-7906410D01*
X1950669Y-7902397D01*
X1943506Y-7895132D01*
X1938426Y-7885277D01*
X1934565Y-7874203D01*
X1927199Y-7842402D01*
X1922373Y-7827670D01*
X1916328Y-7815021D01*
X1910384Y-7806131D01*
X1902917Y-7798663D01*
X1895551Y-7793736D01*
X1888032Y-7790383D01*
X1877618Y-7787538D01*
G37*
G36*
X2269439Y-7871104D02*
G01*
X2242972Y-7871714D01*
X2228342Y-7873949D01*
X2218283Y-7876743D01*
X2212390Y-7878978D01*
X2205634Y-7882381D01*
X2198979Y-7887106D01*
X2192782Y-7893812D01*
X2188972Y-7900670D01*
X2186635Y-7908391D01*
X2185670Y-7915503D01*
X2185974Y-7921599D01*
X2201519Y-7921599D01*
X2201519Y-7913827D01*
X2203602Y-7908036D01*
X2206904Y-7903972D01*
X2210003Y-7901025D01*
X2215540Y-7897875D01*
X2221534Y-7895488D01*
X2229815Y-7893303D01*
X2242413Y-7891322D01*
X2279243Y-7891322D01*
X2291892Y-7893303D01*
X2300376Y-7895386D01*
X2308707Y-7898841D01*
X2315210Y-7903667D01*
X2319020Y-7909458D01*
X2320747Y-7916011D01*
X2320696Y-7919872D01*
X2319274Y-7926070D01*
X2316378Y-7931048D01*
X2310638Y-7936179D01*
X2301798Y-7940395D01*
X2290318Y-7943240D01*
X2277414Y-7944866D01*
X2257247Y-7945577D01*
X2238603Y-7944256D01*
X2226513Y-7942224D01*
X2218791Y-7939836D01*
X2212136Y-7936585D01*
X2206802Y-7932521D01*
X2203145Y-7927187D01*
X2201519Y-7921599D01*
X2185974Y-7921599D01*
X2186228Y-7925917D01*
X2188311Y-7933944D01*
X2192172Y-7941360D01*
X2197404Y-7947659D01*
X2205532Y-7953756D01*
X2213203Y-7957616D01*
X2224481Y-7961325D01*
X2236368Y-7963560D01*
X2247392Y-7964627D01*
X2262225Y-7965338D01*
X2281580Y-7964068D01*
X2294636Y-7961934D01*
X2303983Y-7959344D01*
X2311654Y-7956296D01*
X2320442Y-7951216D01*
X2329332Y-7942427D01*
X2333904Y-7933080D01*
X2335834Y-7925917D01*
X2335834Y-7910017D01*
X2333345Y-7901431D01*
X2330754Y-7896250D01*
X2325573Y-7889341D01*
X2317140Y-7882788D01*
X2307285Y-7877962D01*
X2296261Y-7874609D01*
X2284171Y-7872475D01*
G37*
G36*
X2257501Y-7905343D02*
G01*
X2253437Y-7907020D01*
X2249728Y-7910525D01*
X2247696Y-7914944D01*
X2247696Y-7920990D01*
X2249678Y-7925409D01*
X2253284Y-7928914D01*
X2256790Y-7930540D01*
X2261260Y-7931251D01*
X2267153Y-7929524D01*
X2271369Y-7925460D01*
X2273046Y-7922158D01*
X2273655Y-7915757D01*
X2271826Y-7911033D01*
X2268270Y-7907375D01*
X2263851Y-7905343D01*
G37*
G36*
X1800606Y-7982254D02*
G01*
X1799843Y-7983016D01*
X1800148Y-8014411D01*
X1897125Y-8014665D01*
X1897125Y-8102600D01*
X1799843Y-8102600D01*
X1799843Y-8134451D01*
X2037232Y-8134451D01*
X2037232Y-8102600D01*
X1924557Y-8102600D01*
X1924557Y-8014665D01*
X2037232Y-8014665D01*
X2037232Y-7982254D01*
G37*
G36*
X2252167Y-7990890D02*
G01*
X2237486Y-7992262D01*
X2225954Y-7994294D01*
X2216048Y-7997190D01*
X2205786Y-8002016D01*
X2198979Y-8006892D01*
X2192680Y-8013649D01*
X2189429Y-8019338D01*
X2186584Y-8027873D01*
X2185876Y-8033613D01*
X2201519Y-8033613D01*
X2202992Y-8029041D01*
X2205380Y-8025180D01*
X2211476Y-8019592D01*
X2219401Y-8015782D01*
X2229815Y-8013090D01*
X2241346Y-8011261D01*
X2271572Y-8010702D01*
X2284730Y-8011922D01*
X2295194Y-8013700D01*
X2303983Y-8016443D01*
X2310079Y-8019542D01*
X2315565Y-8023859D01*
X2319070Y-8029244D01*
X2320848Y-8036356D01*
X2320188Y-8042554D01*
X2317902Y-8048752D01*
X2312619Y-8054492D01*
X2306421Y-8058251D01*
X2295702Y-8061909D01*
X2283002Y-8064093D01*
X2263292Y-8065363D01*
X2246274Y-8064652D01*
X2234742Y-8063484D01*
X2224684Y-8061401D01*
X2217724Y-8059064D01*
X2210155Y-8055102D01*
X2204770Y-8049869D01*
X2201824Y-8043519D01*
X2201519Y-8033613D01*
X2185876Y-8033613D01*
X2185670Y-8035290D01*
X2186178Y-8045145D01*
X2187854Y-8052308D01*
X2192121Y-8061096D01*
X2196846Y-8066786D01*
X2203704Y-8072323D01*
X2210562Y-8076133D01*
X2218893Y-8079486D01*
X2229815Y-8082178D01*
X2240788Y-8083854D01*
X2260549Y-8085074D01*
X2273757Y-8084413D01*
X2285847Y-8083245D01*
X2297379Y-8081060D01*
X2307844Y-8077758D01*
X2318258Y-8072374D01*
X2325065Y-8066887D01*
X2330246Y-8060537D01*
X2333904Y-8052866D01*
X2335834Y-8045703D01*
X2335834Y-8029803D01*
X2333904Y-8022640D01*
X2330145Y-8014919D01*
X2324709Y-8008315D01*
X2318664Y-8003641D01*
X2310282Y-7998866D01*
X2298395Y-7994903D01*
X2290216Y-7993176D01*
X2279243Y-7991500D01*
G37*
G36*
X2257501Y-8025130D02*
G01*
X2253437Y-8026806D01*
X2249728Y-8030311D01*
X2247696Y-8034731D01*
X2247696Y-8040776D01*
X2249678Y-8045196D01*
X2254910Y-8049768D01*
X2260650Y-8050987D01*
X2266492Y-8049717D01*
X2272284Y-8044078D01*
X2273604Y-8039150D01*
X2273096Y-8033410D01*
X2269896Y-8028178D01*
X2264003Y-8025130D01*
G37*
G36*
X2270709Y-8110677D02*
G01*
X2242413Y-8111286D01*
X2231440Y-8112963D01*
X2223312Y-8114690D01*
X2213610Y-8117941D01*
X2205634Y-8121954D01*
X2198979Y-8126679D01*
X2192426Y-8133638D01*
X2188972Y-8140242D01*
X2186584Y-8147608D01*
X2185873Y-8153400D01*
X2201468Y-8153400D01*
X2203500Y-8147710D01*
X2207260Y-8142833D01*
X2213305Y-8138312D01*
X2221331Y-8134959D01*
X2229866Y-8132825D01*
X2241905Y-8130895D01*
X2279802Y-8130895D01*
X2292451Y-8132825D01*
X2301240Y-8135112D01*
X2311095Y-8139836D01*
X2315667Y-8143748D01*
X2319070Y-8149031D01*
X2320848Y-8156143D01*
X2320188Y-8162340D01*
X2317953Y-8168386D01*
X2313330Y-8173669D01*
X2306980Y-8177784D01*
X2297684Y-8181136D01*
X2286406Y-8183321D01*
X2275382Y-8184388D01*
X2259482Y-8185099D01*
X2239670Y-8183880D01*
X2229256Y-8182203D01*
X2220468Y-8179917D01*
X2210358Y-8175091D01*
X2204923Y-8169656D01*
X2201824Y-8163356D01*
X2201468Y-8153400D01*
X2185873Y-8153400D01*
X2185670Y-8155076D01*
X2186178Y-8164931D01*
X2187854Y-8172094D01*
X2192223Y-8181187D01*
X2199995Y-8189417D01*
X2207717Y-8194548D01*
X2217572Y-8198815D01*
X2229815Y-8201964D01*
X2241854Y-8203742D01*
X2261108Y-8204606D01*
X2280970Y-8203692D01*
X2296820Y-8200999D01*
X2308809Y-8197088D01*
X2318613Y-8191906D01*
X2325725Y-8186013D01*
X2330754Y-8179206D01*
X2333904Y-8172653D01*
X2335834Y-8165490D01*
X2335834Y-8149539D01*
X2333904Y-8142427D01*
X2330145Y-8134705D01*
X2324862Y-8128203D01*
X2317140Y-8122310D01*
X2308606Y-8117992D01*
X2296718Y-8114182D01*
X2284679Y-8111998D01*
G37*
G36*
X2257704Y-8144814D02*
G01*
X2253437Y-8146592D01*
X2249728Y-8150098D01*
X2247696Y-8154517D01*
X2247646Y-8160308D01*
X2249373Y-8164372D01*
X2252878Y-8168081D01*
X2257247Y-8170367D01*
X2263851Y-8170367D01*
X2268321Y-8168030D01*
X2272334Y-8163610D01*
X2273604Y-8158886D01*
X2273096Y-8153196D01*
X2269896Y-8147913D01*
X2263800Y-8144814D01*
G37*
G36*
X1799843Y-8156448D02*
G01*
X1799843Y-8187131D01*
X1800707Y-8187639D01*
X1988616Y-8209737D01*
X1991817Y-8210550D01*
X1865223Y-8237321D01*
X1865528Y-8270900D01*
X1991614Y-8297875D01*
X1991614Y-8298535D01*
X1624025Y-8375243D01*
X1624025Y-8406485D01*
X1625955Y-8405926D01*
X2037232Y-8316772D01*
X2037181Y-8286394D01*
X1897634Y-8254492D01*
X1897634Y-8253882D01*
X2037232Y-8222132D01*
X2037232Y-8191601D01*
X2036114Y-8191601D01*
X1801164Y-8156448D01*
G37*
G36*
X2248865Y-8230616D02*
G01*
X2237486Y-8231733D01*
X2225395Y-8233867D01*
X2213305Y-8237728D01*
X2204618Y-8242147D01*
X2199436Y-8245957D01*
X2192426Y-8253425D01*
X2188972Y-8259978D01*
X2186584Y-8267395D01*
X2185870Y-8273186D01*
X2201468Y-8273186D01*
X2203450Y-8267598D01*
X2206955Y-8262874D01*
X2212746Y-8258454D01*
X2219604Y-8255355D01*
X2228697Y-8252714D01*
X2241905Y-8250783D01*
X2261108Y-8250123D01*
X2280920Y-8250834D01*
X2292096Y-8252561D01*
X2301240Y-8254847D01*
X2311603Y-8259876D01*
X2317800Y-8266074D01*
X2320391Y-8272627D01*
X2320391Y-8281974D01*
X2317800Y-8288578D01*
X2311095Y-8295233D01*
X2302865Y-8299246D01*
X2292451Y-8301990D01*
X2281986Y-8303666D01*
X2261108Y-8304784D01*
X2240229Y-8303666D01*
X2228900Y-8301990D01*
X2219350Y-8299246D01*
X2210511Y-8294928D01*
X2204872Y-8289442D01*
X2201824Y-8283143D01*
X2201468Y-8273186D01*
X2185870Y-8273186D01*
X2185670Y-8274812D01*
X2186178Y-8284718D01*
X2187854Y-8291880D01*
X2192172Y-8300923D01*
X2199030Y-8308238D01*
X2204872Y-8312556D01*
X2213305Y-8316874D01*
X2224989Y-8320684D01*
X2236927Y-8322818D01*
X2249932Y-8324138D01*
X2280361Y-8323580D01*
X2291892Y-8321751D01*
X2302459Y-8319109D01*
X2309825Y-8316315D01*
X2317140Y-8312454D01*
X2324862Y-8306612D01*
X2330145Y-8300110D01*
X2333904Y-8292439D01*
X2335834Y-8285276D01*
X2335834Y-8269325D01*
X2333904Y-8262213D01*
X2330094Y-8254492D01*
X2325166Y-8248243D01*
X2318258Y-8242757D01*
X2308910Y-8237829D01*
X2299004Y-8234578D01*
X2288082Y-8232190D01*
X2273198Y-8230616D01*
G37*
G36*
X2257653Y-8264601D02*
G01*
X2252878Y-8266684D01*
X2249728Y-8269884D01*
X2247696Y-8273745D01*
X2247646Y-8280095D01*
X2249373Y-8284159D01*
X2252878Y-8287867D01*
X2257247Y-8290102D01*
X2263902Y-8290102D01*
X2268423Y-8287766D01*
X2272385Y-8283143D01*
X2273452Y-8279231D01*
X2273503Y-8274202D01*
X2270658Y-8268614D01*
X2266950Y-8265769D01*
X2263902Y-8264601D01*
G37*
G36*
X2188311Y-8350910D02*
G01*
X2188311Y-8442147D01*
X2196287Y-8442147D01*
X2333345Y-8390229D01*
X2333345Y-8369604D01*
X2205075Y-8419998D01*
X2204770Y-8350910D01*
G37*
G36*
X1531620Y-5655513D02*
G01*
X1531620Y-5657189D01*
X1537970Y-5663844D01*
X1580845Y-5705348D01*
X1692554Y-5811266D01*
X1687728Y-5811824D01*
X1684426Y-5811926D01*
X1672285Y-5811316D01*
X1646986Y-5809030D01*
X1645615Y-5789980D01*
X1630222Y-5789980D01*
X1630222Y-5807354D01*
X1616710Y-5812942D01*
X1606956Y-5824220D01*
X1602028Y-5831230D01*
X1600555Y-5833922D01*
X1598604Y-5838190D01*
X1616760Y-5838190D01*
X1617268Y-5837174D01*
X1620824Y-5832703D01*
X1630070Y-5822442D01*
X1630087Y-5825236D01*
X1645869Y-5825236D01*
X1677162Y-5827522D01*
X1695196Y-5829198D01*
X1713484Y-5831433D01*
X1715313Y-5833160D01*
X1735531Y-5833160D01*
X1736343Y-5832805D01*
X1742033Y-5832856D01*
X1782978Y-5836666D01*
X1858060Y-5843066D01*
X1887880Y-5845911D01*
X1903222Y-5847791D01*
X1904085Y-5848045D01*
X1905762Y-5849467D01*
X1830476Y-5924651D01*
X1764588Y-5861913D01*
X1745437Y-5843371D01*
X1735937Y-5833770D01*
X1735531Y-5833160D01*
X1715313Y-5833160D01*
X1820265Y-5932271D01*
X1819155Y-5933389D01*
X1840839Y-5933389D01*
X1844141Y-5929630D01*
X1866544Y-5906719D01*
X1924862Y-5848604D01*
X2005533Y-5856071D01*
X2006752Y-5984494D01*
X1997151Y-5986018D01*
X1987702Y-5988354D01*
X1982724Y-5990082D01*
X1978355Y-5991910D01*
X1969058Y-5996279D01*
X1960625Y-6008776D01*
X1956562Y-6016752D01*
X1955393Y-6019952D01*
X1953666Y-6026353D01*
X1937969Y-6026353D01*
X1870557Y-5962599D01*
X1850999Y-5943752D01*
X1840839Y-5933389D01*
X1819155Y-5933389D01*
X1784857Y-5967933D01*
X1765655Y-5986526D01*
X1760575Y-5991047D01*
X1759661Y-5991656D01*
X1757934Y-5991656D01*
X1757934Y-5908700D01*
X1726539Y-5908700D01*
X1726539Y-6007303D01*
X1745488Y-6007303D01*
X1707591Y-6045403D01*
X1672336Y-6045403D01*
X1672270Y-6045657D01*
X1726539Y-6045657D01*
X1728419Y-6043320D01*
X1741779Y-6029350D01*
X1764588Y-6006490D01*
X1830120Y-5942279D01*
X1901291Y-6009436D01*
X1922576Y-6029147D01*
X1902612Y-6031534D01*
X1889513Y-6032804D01*
X1975561Y-6032804D01*
X1976374Y-6027623D01*
X1978914Y-6021476D01*
X1982419Y-6014364D01*
X1997913Y-6006998D01*
X2010816Y-6009843D01*
X2022246Y-6021273D01*
X2025040Y-6036310D01*
X2015743Y-6051346D01*
X2009952Y-6053988D01*
X2004364Y-6055969D01*
X1999183Y-6056426D01*
X1994103Y-6055461D01*
X1988820Y-6052972D01*
X1982622Y-6049314D01*
X1978964Y-6043066D01*
X1976424Y-6037732D01*
X1975561Y-6032804D01*
X1889513Y-6032804D01*
X1757629Y-6045200D01*
X1730095Y-6047587D01*
X1728063Y-6047486D01*
X1727301Y-6047079D01*
X1726742Y-6046419D01*
X1726539Y-6045657D01*
X1672270Y-6045657D01*
X1669999Y-6054394D01*
X1645869Y-6054394D01*
X1645869Y-5825236D01*
X1630087Y-5825236D01*
X1630222Y-5839256D01*
X1620875Y-5839155D01*
X1617268Y-5838596D01*
X1616760Y-5838190D01*
X1598604Y-5838190D01*
X1598117Y-5839256D01*
X1587601Y-5839256D01*
X1587601Y-5855258D01*
X1587398Y-5863031D01*
X1586026Y-5882132D01*
X1582318Y-5910986D01*
X1598828Y-5910986D01*
X1601673Y-5888482D01*
X1605889Y-5865926D01*
X1629105Y-5867247D01*
X1630222Y-6054953D01*
X1620113Y-6048298D01*
X1613001Y-6035751D01*
X1609191Y-6026556D01*
X1605788Y-6015939D01*
X1603146Y-6004610D01*
X1600657Y-5989421D01*
X1616760Y-5989421D01*
X1616760Y-5910986D01*
X1576425Y-5910986D01*
X1576425Y-5926632D01*
X1598828Y-5926632D01*
X1598828Y-5973724D01*
X1592122Y-5973724D01*
X1592122Y-5926632D01*
X1576425Y-5926632D01*
X1576425Y-5988862D01*
X1584807Y-5991047D01*
X1587347Y-6007150D01*
X1590548Y-6020308D01*
X1596644Y-6040577D01*
X1612239Y-6063742D01*
X1605534Y-6073292D01*
X1605534Y-6088176D01*
X1616354Y-6098997D01*
X1628038Y-6101943D01*
X1641602Y-6096304D01*
X1648561Y-6082944D01*
X1646529Y-6072530D01*
X1649780Y-6071311D01*
X1651711Y-6070803D01*
X1658112Y-6070142D01*
X1670557Y-6070092D01*
X1670557Y-6080912D01*
X1665629Y-6085738D01*
X1686204Y-6085738D01*
X1686407Y-6084062D01*
X1687271Y-6082741D01*
X1692452Y-6077407D01*
X1705762Y-6065570D01*
X1713128Y-6065570D01*
X1713128Y-6085738D01*
X1665629Y-6085738D01*
X1555191Y-6193993D01*
X1529384Y-6219647D01*
X1531975Y-6220053D01*
X1547215Y-6220206D01*
X1668424Y-6100724D01*
X1726539Y-6101740D01*
X1726539Y-6065469D01*
X1730197Y-6064300D01*
X1768551Y-6060287D01*
X1847596Y-6052820D01*
X1929333Y-6045606D01*
X1938934Y-6045403D01*
X2090216Y-6188964D01*
X2096007Y-6183630D01*
X2098192Y-6180836D01*
X2098548Y-6180023D01*
X2091436Y-6172555D01*
X2072792Y-6154420D01*
X1994814Y-6080404D01*
X2006041Y-6077864D01*
X2010968Y-6076543D01*
X2016150Y-6074765D01*
X2020976Y-6072835D01*
X2024837Y-6070904D01*
X2032406Y-6066485D01*
X2037486Y-6058966D01*
X2039620Y-6055360D01*
X2041753Y-6051042D01*
X2043582Y-6046622D01*
X2044903Y-6042609D01*
X2047290Y-6033719D01*
X2044395Y-6016396D01*
X2035556Y-6003544D01*
X2032558Y-5999937D01*
X2029663Y-5996889D01*
X2027275Y-5994857D01*
X2022348Y-5991402D01*
X2022348Y-5877356D01*
X2046986Y-5877356D01*
X2046986Y-5848197D01*
X2024430Y-5848197D01*
X2012289Y-5839764D01*
X1964080Y-5836056D01*
X1945233Y-5834278D01*
X1942185Y-5833821D01*
X1948230Y-5827318D01*
X1997862Y-5777738D01*
X2101697Y-5675630D01*
X2091893Y-5665825D01*
X1948078Y-5807811D01*
X1922322Y-5832703D01*
X1714449Y-5814669D01*
X1649780Y-5753100D01*
X1546707Y-5655513D01*
G37*
G36*
X2215083Y-5702554D02*
G01*
X2215083Y-6168644D01*
X2329332Y-6168644D01*
X2329332Y-5702554D01*
G37*
G36*
X1995271Y-6016294D02*
G01*
X1984248Y-6027267D01*
X1984248Y-6035852D01*
X1993544Y-6047638D01*
X2005279Y-6047638D01*
X2015642Y-6037935D01*
X2015642Y-6027267D01*
X2004618Y-6016294D01*
G37*
G36*
X793496Y-9657486D02*
G01*
X787196Y-9657689D01*
X780948Y-9658299D01*
X774852Y-9659366D01*
X768908Y-9660788D01*
X763117Y-9662566D01*
X757478Y-9664750D01*
X752043Y-9667240D01*
X746810Y-9670084D01*
X741781Y-9673285D01*
X736955Y-9676739D01*
X732434Y-9680498D01*
X728116Y-9684562D01*
X724052Y-9688880D01*
X718669Y-9695688D01*
X790041Y-9695688D01*
X810361Y-9767265D01*
X812901Y-9778238D01*
X814425Y-9786112D01*
X815949Y-9778238D01*
X818591Y-9767265D01*
X839063Y-9695688D01*
X860653Y-9695688D01*
X837319Y-9768586D01*
X867765Y-9768586D01*
X868070Y-9763556D01*
X868883Y-9758934D01*
X870203Y-9754666D01*
X872083Y-9750806D01*
X874318Y-9747453D01*
X877011Y-9744506D01*
X880059Y-9741966D01*
X883513Y-9739884D01*
X887323Y-9738207D01*
X891387Y-9737039D01*
X895705Y-9736277D01*
X902716Y-9736074D01*
X906932Y-9736328D01*
X913993Y-9737598D01*
X912215Y-9712452D01*
X874877Y-9712452D01*
X874877Y-9695688D01*
X929741Y-9695688D01*
X933551Y-9749536D01*
X925169Y-9754108D01*
X917803Y-9752584D01*
X913587Y-9751974D01*
X909421Y-9751822D01*
X904443Y-9752126D01*
X900074Y-9752990D01*
X896416Y-9754514D01*
X893419Y-9756648D01*
X891235Y-9759188D01*
X889609Y-9762337D01*
X888695Y-9766046D01*
X888486Y-9768586D01*
X990447Y-9768586D01*
X990752Y-9763556D01*
X991565Y-9758934D01*
X992886Y-9754666D01*
X994765Y-9750806D01*
X997000Y-9747453D01*
X999693Y-9744506D01*
X1002741Y-9741966D01*
X1006195Y-9739884D01*
X1010005Y-9738207D01*
X1014069Y-9737039D01*
X1018387Y-9736277D01*
X1025398Y-9736074D01*
X1029614Y-9736328D01*
X1036675Y-9737598D01*
X1034897Y-9712452D01*
X997559Y-9712452D01*
X997559Y-9695688D01*
X1227937Y-9695688D01*
X1259687Y-9721596D01*
X1249273Y-9733534D01*
X1236726Y-9722815D01*
X1230223Y-9716008D01*
X1230731Y-9727946D01*
X1230731Y-9772904D01*
X1315567Y-9772904D01*
X1315974Y-9767824D01*
X1317142Y-9763252D01*
X1319174Y-9759188D01*
X1321917Y-9755632D01*
X1325473Y-9752634D01*
X1329740Y-9750298D01*
X1334719Y-9748570D01*
X1340459Y-9747504D01*
X1340459Y-9746996D01*
X1337360Y-9746132D01*
X1334414Y-9745014D01*
X1329029Y-9742170D01*
X1326743Y-9740290D01*
X1324711Y-9738156D01*
X1322933Y-9735820D01*
X1321409Y-9733280D01*
X1320088Y-9730384D01*
X1319123Y-9727234D01*
X1318564Y-9723882D01*
X1318361Y-9720326D01*
X1318920Y-9714534D01*
X1320546Y-9709404D01*
X1323238Y-9704882D01*
X1326997Y-9701022D01*
X1331874Y-9698024D01*
X1337665Y-9695891D01*
X1344320Y-9694570D01*
X1351889Y-9694164D01*
X1359154Y-9694468D01*
X1366542Y-9695688D01*
X1499971Y-9695688D01*
X1499768Y-9764369D01*
X1498955Y-9780270D01*
X1499717Y-9780270D01*
X1545437Y-9695688D01*
X1661261Y-9695688D01*
X1681581Y-9767265D01*
X1684121Y-9778238D01*
X1685645Y-9786112D01*
X1686102Y-9782352D01*
X1688033Y-9773716D01*
X1690166Y-9765385D01*
X1710029Y-9695688D01*
X1731873Y-9695688D01*
X1697075Y-9804400D01*
X1674215Y-9804400D01*
X1639163Y-9695688D01*
X1634083Y-9695688D01*
X1634083Y-9706610D01*
X1621637Y-9711690D01*
X1621637Y-9788398D01*
X1634083Y-9793224D01*
X1634083Y-9804400D01*
X1588871Y-9804400D01*
X1588871Y-9793224D01*
X1601317Y-9788398D01*
X1601317Y-9711690D01*
X1588871Y-9706610D01*
X1588871Y-9695688D01*
X1570837Y-9695688D01*
X1570837Y-9804400D01*
X1552549Y-9804400D01*
X1552600Y-9747504D01*
X1553819Y-9719056D01*
X1553311Y-9719056D01*
X1507337Y-9804400D01*
X1481683Y-9804400D01*
X1481683Y-9695688D01*
X1366542Y-9695688D01*
X1371396Y-9697212D01*
X1376527Y-9699498D01*
X1381302Y-9702139D01*
X1385417Y-9705086D01*
X1376273Y-9718294D01*
X1373581Y-9716262D01*
X1370431Y-9714230D01*
X1366875Y-9712553D01*
X1362811Y-9711182D01*
X1358341Y-9710216D01*
X1353413Y-9709912D01*
X1350060Y-9710115D01*
X1347114Y-9710775D01*
X1344625Y-9711893D01*
X1342491Y-9713468D01*
X1340713Y-9715550D01*
X1339443Y-9717989D01*
X1338681Y-9720732D01*
X1338427Y-9723882D01*
X1338580Y-9726218D01*
X1339037Y-9728454D01*
X1340342Y-9731756D01*
X1436979Y-9731756D01*
X1437233Y-9728809D01*
X1437894Y-9726269D01*
X1439011Y-9724237D01*
X1440535Y-9722612D01*
X1442364Y-9721494D01*
X1444345Y-9720681D01*
X1446428Y-9720224D01*
X1448663Y-9720072D01*
X1451000Y-9720224D01*
X1453184Y-9720681D01*
X1455216Y-9721494D01*
X1457045Y-9722612D01*
X1458518Y-9724237D01*
X1459534Y-9726269D01*
X1460144Y-9728809D01*
X1460347Y-9731756D01*
X1460144Y-9734702D01*
X1459534Y-9737191D01*
X1458518Y-9739274D01*
X1457045Y-9740900D01*
X1455216Y-9742119D01*
X1453184Y-9742982D01*
X1451000Y-9743490D01*
X1448663Y-9743694D01*
X1446428Y-9743490D01*
X1444345Y-9742982D01*
X1442364Y-9742119D01*
X1440535Y-9740900D01*
X1439011Y-9739274D01*
X1437894Y-9737191D01*
X1437233Y-9734702D01*
X1436979Y-9731756D01*
X1340342Y-9731756D01*
X1342034Y-9734296D01*
X1343710Y-9735921D01*
X1345742Y-9737344D01*
X1348079Y-9738614D01*
X1350873Y-9739477D01*
X1354074Y-9740138D01*
X1361795Y-9740646D01*
X1369923Y-9740646D01*
X1369923Y-9756140D01*
X1357630Y-9756241D01*
X1353667Y-9756546D01*
X1350264Y-9757105D01*
X1347317Y-9757918D01*
X1344828Y-9758883D01*
X1342694Y-9760051D01*
X1340916Y-9761423D01*
X1339443Y-9762998D01*
X1338326Y-9764877D01*
X1337564Y-9767062D01*
X1337056Y-9769449D01*
X1336903Y-9772142D01*
X1337208Y-9776104D01*
X1338122Y-9779609D01*
X1339646Y-9782708D01*
X1341729Y-9785350D01*
X1344625Y-9787432D01*
X1348333Y-9788956D01*
X1353007Y-9789871D01*
X1358493Y-9790176D01*
X1365046Y-9789718D01*
X1371955Y-9788398D01*
X1379067Y-9786162D01*
X1382420Y-9784740D01*
X1385671Y-9783064D01*
X1385671Y-9794748D01*
X1436979Y-9794748D01*
X1437233Y-9791700D01*
X1437894Y-9789160D01*
X1439011Y-9787128D01*
X1440535Y-9785604D01*
X1442364Y-9784384D01*
X1444345Y-9783521D01*
X1446428Y-9782962D01*
X1448663Y-9782810D01*
X1451000Y-9782962D01*
X1453184Y-9783521D01*
X1455216Y-9784384D01*
X1457045Y-9785604D01*
X1458518Y-9787128D01*
X1459534Y-9789160D01*
X1460144Y-9791700D01*
X1460347Y-9794748D01*
X1460144Y-9797592D01*
X1459534Y-9800031D01*
X1458518Y-9802012D01*
X1457045Y-9803638D01*
X1455216Y-9804857D01*
X1453184Y-9805720D01*
X1451000Y-9806228D01*
X1448663Y-9806432D01*
X1446428Y-9806228D01*
X1444345Y-9805720D01*
X1442364Y-9804857D01*
X1440535Y-9803638D01*
X1439011Y-9802012D01*
X1437894Y-9800031D01*
X1437233Y-9797592D01*
X1436979Y-9794748D01*
X1385671Y-9794748D01*
X1385671Y-9800082D01*
X1382471Y-9801504D01*
X1375714Y-9803638D01*
X1368552Y-9805060D01*
X1360678Y-9805822D01*
X1356461Y-9805924D01*
X1349705Y-9805619D01*
X1343507Y-9804806D01*
X1338021Y-9803485D01*
X1333093Y-9801606D01*
X1328877Y-9799269D01*
X1325219Y-9796526D01*
X1322273Y-9793376D01*
X1319885Y-9789922D01*
X1318006Y-9786061D01*
X1316685Y-9781997D01*
X1315872Y-9777577D01*
X1315567Y-9772904D01*
X1230731Y-9772904D01*
X1230731Y-9794748D01*
X1277213Y-9794748D01*
X1277416Y-9791700D01*
X1278026Y-9789160D01*
X1279093Y-9787128D01*
X1280515Y-9785604D01*
X1282395Y-9784384D01*
X1284376Y-9783521D01*
X1286560Y-9782962D01*
X1288897Y-9782810D01*
X1291234Y-9782962D01*
X1293368Y-9783521D01*
X1295298Y-9784384D01*
X1297025Y-9785604D01*
X1298600Y-9787128D01*
X1299718Y-9789160D01*
X1300378Y-9791700D01*
X1300581Y-9794748D01*
X1300378Y-9797592D01*
X1299718Y-9800031D01*
X1298600Y-9802012D01*
X1297025Y-9803638D01*
X1295298Y-9804857D01*
X1293368Y-9805720D01*
X1291234Y-9806228D01*
X1288897Y-9806432D01*
X1286560Y-9806228D01*
X1284376Y-9805720D01*
X1282395Y-9804857D01*
X1280515Y-9803638D01*
X1279093Y-9802012D01*
X1278026Y-9800031D01*
X1277416Y-9797592D01*
X1277213Y-9794748D01*
X1230731Y-9794748D01*
X1230731Y-9804400D01*
X1210411Y-9804400D01*
X1210411Y-9695688D01*
X1052423Y-9695688D01*
X1056233Y-9749536D01*
X1047851Y-9754108D01*
X1040485Y-9752584D01*
X1036269Y-9751974D01*
X1032103Y-9751822D01*
X1027125Y-9752126D01*
X1022756Y-9752990D01*
X1019098Y-9754514D01*
X1017885Y-9755378D01*
X1144625Y-9755378D01*
X1144625Y-9771634D01*
X1107541Y-9771634D01*
X1107541Y-9755378D01*
X1017885Y-9755378D01*
X1016101Y-9756648D01*
X1013917Y-9759188D01*
X1012291Y-9762337D01*
X1011377Y-9766046D01*
X1011021Y-9770364D01*
X1011174Y-9773615D01*
X1011682Y-9776561D01*
X1012444Y-9779203D01*
X1013561Y-9781540D01*
X1014882Y-9783521D01*
X1016457Y-9785248D01*
X1018286Y-9786721D01*
X1020419Y-9787890D01*
X1022807Y-9788753D01*
X1025448Y-9789414D01*
X1031341Y-9789922D01*
X1038199Y-9789414D01*
X1045565Y-9787890D01*
X1052423Y-9785604D01*
X1058265Y-9782810D01*
X1058265Y-9800082D01*
X1055573Y-9801402D01*
X1049375Y-9803536D01*
X1042212Y-9805060D01*
X1034592Y-9805822D01*
X1030579Y-9805924D01*
X1024280Y-9805619D01*
X1018438Y-9804755D01*
X1013206Y-9803333D01*
X1008481Y-9801352D01*
X1004316Y-9798913D01*
X1000709Y-9796018D01*
X997610Y-9792563D01*
X995019Y-9788652D01*
X993038Y-9784232D01*
X991616Y-9779457D01*
X990752Y-9774224D01*
X990447Y-9768586D01*
X888486Y-9768586D01*
X888339Y-9770364D01*
X888492Y-9773615D01*
X889000Y-9776561D01*
X889762Y-9779203D01*
X890879Y-9781540D01*
X892200Y-9783521D01*
X893724Y-9785248D01*
X895603Y-9786721D01*
X897737Y-9787890D01*
X900125Y-9788753D01*
X902766Y-9789414D01*
X908659Y-9789922D01*
X915517Y-9789414D01*
X922883Y-9787890D01*
X929741Y-9785604D01*
X935583Y-9782810D01*
X935583Y-9794748D01*
X951585Y-9794748D01*
X951839Y-9791700D01*
X952500Y-9789160D01*
X953617Y-9787128D01*
X955141Y-9785604D01*
X956970Y-9784384D01*
X958951Y-9783521D01*
X961034Y-9782962D01*
X963269Y-9782810D01*
X965606Y-9782962D01*
X967790Y-9783521D01*
X969822Y-9784384D01*
X971651Y-9785604D01*
X973124Y-9787128D01*
X974140Y-9789160D01*
X974750Y-9791700D01*
X974953Y-9794748D01*
X974750Y-9797592D01*
X974140Y-9800031D01*
X973124Y-9802012D01*
X971651Y-9803638D01*
X969822Y-9804857D01*
X967790Y-9805720D01*
X965606Y-9806228D01*
X963269Y-9806432D01*
X961034Y-9806228D01*
X958951Y-9805720D01*
X956970Y-9804857D01*
X955141Y-9803638D01*
X953617Y-9802012D01*
X952500Y-9800031D01*
X951839Y-9797592D01*
X951585Y-9794748D01*
X935583Y-9794748D01*
X935583Y-9800082D01*
X932891Y-9801402D01*
X926693Y-9803536D01*
X919530Y-9805060D01*
X911910Y-9805822D01*
X907897Y-9805924D01*
X901598Y-9805619D01*
X895756Y-9804755D01*
X890524Y-9803333D01*
X885799Y-9801352D01*
X881634Y-9798913D01*
X878027Y-9796018D01*
X874928Y-9792563D01*
X872337Y-9788652D01*
X870356Y-9784232D01*
X868934Y-9779457D01*
X868070Y-9774224D01*
X867765Y-9768586D01*
X837319Y-9768586D01*
X825855Y-9804400D01*
X803249Y-9804400D01*
X768197Y-9695688D01*
X718669Y-9695688D01*
X716788Y-9698278D01*
X713638Y-9703308D01*
X710793Y-9708540D01*
X708253Y-9713976D01*
X706120Y-9719614D01*
X704291Y-9725406D01*
X702868Y-9731349D01*
X701852Y-9737445D01*
X701192Y-9743643D01*
X700989Y-9749993D01*
X701192Y-9756292D01*
X701852Y-9762540D01*
X702868Y-9768636D01*
X704291Y-9774580D01*
X706120Y-9780371D01*
X708253Y-9786010D01*
X710793Y-9791446D01*
X713638Y-9796678D01*
X716788Y-9801707D01*
X720293Y-9806533D01*
X724052Y-9811054D01*
X728116Y-9815372D01*
X732434Y-9819436D01*
X736955Y-9823196D01*
X741781Y-9826701D01*
X746810Y-9829850D01*
X752043Y-9832695D01*
X757478Y-9835235D01*
X763117Y-9837369D01*
X768908Y-9839198D01*
X774852Y-9840620D01*
X780948Y-9841636D01*
X787196Y-9842296D01*
X793496Y-9842500D01*
X1706473Y-9842500D01*
X1712823Y-9842296D01*
X1719021Y-9841636D01*
X1725117Y-9840620D01*
X1731060Y-9839198D01*
X1736852Y-9837369D01*
X1742490Y-9835235D01*
X1747926Y-9832695D01*
X1753158Y-9829850D01*
X1758188Y-9826701D01*
X1763014Y-9823196D01*
X1767586Y-9819436D01*
X1771904Y-9815372D01*
X1775968Y-9811054D01*
X1779727Y-9806533D01*
X1783181Y-9801707D01*
X1786382Y-9796678D01*
X1789226Y-9791446D01*
X1791716Y-9786010D01*
X1793900Y-9780371D01*
X1795678Y-9774580D01*
X1797100Y-9768636D01*
X1798167Y-9762540D01*
X1798777Y-9756292D01*
X1798980Y-9749993D01*
X1798777Y-9743643D01*
X1798167Y-9737445D01*
X1797100Y-9731349D01*
X1795678Y-9725406D01*
X1793900Y-9719614D01*
X1791716Y-9713976D01*
X1789226Y-9708540D01*
X1786382Y-9703308D01*
X1783181Y-9698278D01*
X1779727Y-9693452D01*
X1775968Y-9688880D01*
X1771904Y-9684562D01*
X1767586Y-9680498D01*
X1763014Y-9676739D01*
X1758188Y-9673285D01*
X1753158Y-9670084D01*
X1747926Y-9667240D01*
X1742490Y-9664750D01*
X1736852Y-9662566D01*
X1731060Y-9660788D01*
X1725117Y-9659366D01*
X1719021Y-9658299D01*
X1712823Y-9657689D01*
X1706473Y-9657486D01*
G37*
G36*
X576783Y-7837931D02*
G01*
X576783Y-7862011D01*
X553567Y-7862011D01*
X553567Y-7886090D01*
X530352Y-7886090D01*
X530352Y-7934248D01*
X507136Y-7934248D01*
X507136Y-7958328D01*
X483920Y-7958328D01*
X483920Y-7982407D01*
X437489Y-7982407D01*
X437489Y-7958328D01*
X367842Y-7958328D01*
X367842Y-8006486D01*
X483920Y-8006486D01*
X483920Y-7982407D01*
X507136Y-7982407D01*
X507136Y-8006486D01*
X553567Y-8006486D01*
X553567Y-7958328D01*
X576783Y-7958328D01*
X576783Y-7934248D01*
X599998Y-7934248D01*
X599998Y-7958328D01*
X623214Y-7958328D01*
X623214Y-8030514D01*
X669645Y-8030514D01*
X669645Y-8054594D01*
X646430Y-8054594D01*
X646430Y-8078673D01*
X599998Y-8078673D01*
X599998Y-8102752D01*
X576783Y-8102752D01*
X576783Y-8126831D01*
X530352Y-8126831D01*
X530352Y-8054594D01*
X507136Y-8054594D01*
X507136Y-8006486D01*
X391058Y-8006486D01*
X391058Y-8030514D01*
X414274Y-8030514D01*
X414274Y-8054594D01*
X437489Y-8054594D01*
X437489Y-8174990D01*
X414274Y-8174990D01*
X414274Y-8126831D01*
X391058Y-8126831D01*
X391058Y-8174990D01*
X367842Y-8174990D01*
X367842Y-8223148D01*
X344627Y-8223148D01*
X344627Y-8271306D01*
X321411Y-8271306D01*
X321411Y-8295335D01*
X298196Y-8295335D01*
X298196Y-8343493D01*
X274980Y-8343493D01*
X274980Y-8391652D01*
X321411Y-8391652D01*
X321411Y-8367572D01*
X344627Y-8367572D01*
X344627Y-8343493D01*
X367842Y-8343493D01*
X367842Y-8295335D01*
X391058Y-8295335D01*
X391058Y-8247227D01*
X414274Y-8247227D01*
X414274Y-8223148D01*
X437489Y-8223148D01*
X437489Y-8174990D01*
X460705Y-8174990D01*
X460705Y-8199069D01*
X483920Y-8199069D01*
X483920Y-8271306D01*
X530352Y-8271306D01*
X530352Y-8319414D01*
X483920Y-8319414D01*
X483920Y-8415731D01*
X460705Y-8415731D01*
X460705Y-8391652D01*
X263398Y-8391652D01*
X263398Y-8439810D01*
X483920Y-8439810D01*
X483920Y-8415731D01*
X507136Y-8415731D01*
X507136Y-8487968D01*
X623214Y-8487968D01*
X623214Y-8463889D01*
X646430Y-8463889D01*
X646430Y-8319414D01*
X669645Y-8319414D01*
X669645Y-8295335D01*
X692861Y-8295335D01*
X692861Y-8271306D01*
X716076Y-8271306D01*
X716076Y-8174990D01*
X762508Y-8174990D01*
X762508Y-8199069D01*
X739292Y-8199069D01*
X739292Y-8223148D01*
X762508Y-8223148D01*
X762508Y-8247227D01*
X785723Y-8247227D01*
X785723Y-8295335D01*
X808939Y-8295335D01*
X808939Y-8367572D01*
X832154Y-8367572D01*
X832154Y-8391652D01*
X669645Y-8391652D01*
X669645Y-8439810D01*
X913384Y-8439810D01*
X913384Y-8391652D01*
X901801Y-8391652D01*
X901801Y-8343493D01*
X878586Y-8343493D01*
X878586Y-8319414D01*
X855370Y-8319414D01*
X855370Y-8271306D01*
X832154Y-8271306D01*
X832154Y-8223148D01*
X808939Y-8223148D01*
X808939Y-8199069D01*
X785723Y-8199069D01*
X785723Y-8174990D01*
X762508Y-8174990D01*
X762508Y-8150910D01*
X785723Y-8150910D01*
X785723Y-8102752D01*
X808939Y-8102752D01*
X808939Y-8030514D01*
X785723Y-8030514D01*
X785723Y-7982407D01*
X762508Y-7982407D01*
X762508Y-7958328D01*
X692861Y-7958328D01*
X692861Y-8030514D01*
X669645Y-8030514D01*
X669645Y-7934248D01*
X646430Y-7934248D01*
X646430Y-7886090D01*
X623214Y-7886090D01*
X623214Y-7862011D01*
X599998Y-7862011D01*
X599998Y-7837931D01*
G37*
G36*
X726186Y-5159908D02*
G01*
X719886Y-5160111D01*
X713638Y-5160721D01*
X707542Y-5161788D01*
X701598Y-5163210D01*
X695807Y-5164988D01*
X690168Y-5167172D01*
X684733Y-5169662D01*
X679500Y-5172506D01*
X674471Y-5175707D01*
X669645Y-5179161D01*
X665124Y-5182920D01*
X660806Y-5186984D01*
X656742Y-5191302D01*
X652983Y-5195874D01*
X649478Y-5200700D01*
X646328Y-5205730D01*
X643483Y-5210962D01*
X640943Y-5216398D01*
X638810Y-5222036D01*
X636981Y-5227828D01*
X635558Y-5233771D01*
X634542Y-5239867D01*
X633882Y-5246065D01*
X633679Y-5252415D01*
X633882Y-5258714D01*
X634542Y-5264962D01*
X635558Y-5271058D01*
X636981Y-5277002D01*
X638810Y-5282793D01*
X640943Y-5288381D01*
X643483Y-5293868D01*
X646328Y-5299100D01*
X649478Y-5304129D01*
X651379Y-5306720D01*
X700786Y-5306720D01*
X735584Y-5198008D01*
X758444Y-5198008D01*
X776051Y-5252618D01*
X800100Y-5252618D01*
X800303Y-5246522D01*
X800862Y-5240680D01*
X801827Y-5235092D01*
X803148Y-5229758D01*
X804875Y-5224729D01*
X806907Y-5220106D01*
X809294Y-5215839D01*
X812038Y-5211978D01*
X815187Y-5208473D01*
X818692Y-5205425D01*
X822655Y-5202783D01*
X827024Y-5200548D01*
X831850Y-5198770D01*
X837082Y-5197500D01*
X842771Y-5196738D01*
X848868Y-5196484D01*
X854811Y-5196738D01*
X860298Y-5197500D01*
X865428Y-5198770D01*
X870203Y-5200548D01*
X874572Y-5202682D01*
X878586Y-5205272D01*
X882192Y-5208371D01*
X885444Y-5211978D01*
X888187Y-5215839D01*
X890574Y-5220106D01*
X892657Y-5224729D01*
X894334Y-5229758D01*
X895553Y-5234990D01*
X896416Y-5240528D01*
X896975Y-5246420D01*
X897128Y-5252618D01*
X896823Y-5260746D01*
X895858Y-5268366D01*
X894283Y-5275478D01*
X892048Y-5282082D01*
X889050Y-5287975D01*
X885393Y-5293156D01*
X881075Y-5297728D01*
X876046Y-5301640D01*
X870356Y-5304637D01*
X864058Y-5306720D01*
X917448Y-5306720D01*
X917448Y-5236616D01*
X918108Y-5228031D01*
X920089Y-5220360D01*
X923340Y-5213553D01*
X927862Y-5207660D01*
X933703Y-5202732D01*
X940765Y-5199278D01*
X949045Y-5197144D01*
X958596Y-5196484D01*
X965301Y-5196789D01*
X971448Y-5197805D01*
X976985Y-5199481D01*
X981964Y-5201818D01*
X986383Y-5204612D01*
X990244Y-5207914D01*
X993495Y-5211724D01*
X996187Y-5216042D01*
X998219Y-5220716D01*
X999642Y-5225694D01*
X1000506Y-5230876D01*
X1000760Y-5236362D01*
X1000760Y-5306720D01*
X1015237Y-5306720D01*
X1015237Y-5290464D01*
X1043432Y-5290464D01*
X1043432Y-5198008D01*
X1064006Y-5198008D01*
X1064006Y-5207660D01*
X1103376Y-5207660D01*
X1103579Y-5204815D01*
X1104188Y-5202377D01*
X1105255Y-5200345D01*
X1106678Y-5198770D01*
X1108557Y-5197551D01*
X1110538Y-5196636D01*
X1112723Y-5196128D01*
X1115060Y-5195976D01*
X1117295Y-5196128D01*
X1119378Y-5196636D01*
X1121359Y-5197551D01*
X1123188Y-5198770D01*
X1124762Y-5200345D01*
X1125880Y-5202377D01*
X1126540Y-5204815D01*
X1126744Y-5207660D01*
X1126540Y-5210708D01*
X1125880Y-5213248D01*
X1124762Y-5215280D01*
X1123188Y-5216804D01*
X1121359Y-5218023D01*
X1119378Y-5218887D01*
X1117503Y-5219344D01*
X1178052Y-5219344D01*
X1178052Y-5202326D01*
X1184605Y-5199684D01*
X1188008Y-5198719D01*
X1195171Y-5197348D01*
X1199032Y-5196840D01*
X1207262Y-5196484D01*
X1214069Y-5196738D01*
X1220216Y-5197551D01*
X1225753Y-5198872D01*
X1230630Y-5200802D01*
X1234897Y-5203139D01*
X1238504Y-5205882D01*
X1241501Y-5208981D01*
X1243838Y-5212486D01*
X1245717Y-5216296D01*
X1247089Y-5220411D01*
X1247902Y-5224780D01*
X1248156Y-5229504D01*
X1247749Y-5234584D01*
X1247489Y-5235600D01*
X1257300Y-5235600D01*
X1257300Y-5221376D01*
X1302004Y-5221376D01*
X1302004Y-5198008D01*
X1322070Y-5198008D01*
X1322070Y-5221376D01*
X1334770Y-5221376D01*
X1334770Y-5237124D01*
X1322070Y-5237124D01*
X1322070Y-5306720D01*
X1337310Y-5306720D01*
X1372108Y-5198008D01*
X1498092Y-5198008D01*
X1498041Y-5260238D01*
X1496822Y-5287162D01*
X1497584Y-5287162D01*
X1524000Y-5198008D01*
X1542796Y-5198008D01*
X1569974Y-5286908D01*
X1570736Y-5286908D01*
X1569720Y-5266588D01*
X1569720Y-5198008D01*
X1623568Y-5198008D01*
X1631950Y-5226710D01*
X1669034Y-5226710D01*
X1677416Y-5198008D01*
X1722120Y-5198008D01*
X1745996Y-5241442D01*
X1769618Y-5198008D01*
X1793239Y-5198008D01*
X1758696Y-5253634D01*
X1790700Y-5306720D01*
X1768093Y-5306720D01*
X1746504Y-5266334D01*
X1724660Y-5306720D01*
X1701800Y-5306720D01*
X1733804Y-5254396D01*
X1699768Y-5198008D01*
X1699514Y-5198008D01*
X1662684Y-5307228D01*
X1638300Y-5307228D01*
X1601724Y-5198008D01*
X1588770Y-5198008D01*
X1588770Y-5306720D01*
X1560576Y-5306720D01*
X1534160Y-5221376D01*
X1533906Y-5221376D01*
X1507998Y-5306720D01*
X1479804Y-5306720D01*
X1479804Y-5198008D01*
X1394714Y-5198008D01*
X1429766Y-5306720D01*
X1407922Y-5306720D01*
X1387602Y-5235092D01*
X1384604Y-5222036D01*
X1383538Y-5216296D01*
X1382014Y-5224170D01*
X1379982Y-5233060D01*
X1358900Y-5306720D01*
X1322070Y-5306720D01*
X1322070Y-5307228D01*
X1302512Y-5307228D01*
X1257300Y-5235600D01*
X1247489Y-5235600D01*
X1246581Y-5239156D01*
X1244600Y-5243220D01*
X1241806Y-5246776D01*
X1238300Y-5249722D01*
X1233982Y-5252110D01*
X1229004Y-5253786D01*
X1223264Y-5254904D01*
X1223264Y-5255412D01*
X1229309Y-5257342D01*
X1232103Y-5258663D01*
X1234694Y-5260238D01*
X1236980Y-5262118D01*
X1239012Y-5264200D01*
X1240790Y-5266537D01*
X1242314Y-5269128D01*
X1243634Y-5272024D01*
X1244600Y-5275122D01*
X1245209Y-5278475D01*
X1245362Y-5282082D01*
X1244854Y-5287822D01*
X1243228Y-5293004D01*
X1240536Y-5297474D01*
X1236726Y-5301386D01*
X1231849Y-5304383D01*
X1226058Y-5306517D01*
X1219403Y-5307787D01*
X1211834Y-5308244D01*
X1204620Y-5307888D01*
X1198118Y-5306974D01*
X1192377Y-5305196D01*
X1187196Y-5302910D01*
X1182471Y-5300218D01*
X1178306Y-5297322D01*
X1187450Y-5284114D01*
X1193292Y-5288178D01*
X1196848Y-5289804D01*
X1200912Y-5291226D01*
X1205433Y-5292140D01*
X1210310Y-5292496D01*
X1213662Y-5292242D01*
X1216609Y-5291582D01*
X1219149Y-5290464D01*
X1221232Y-5288940D01*
X1223010Y-5286857D01*
X1224280Y-5284419D01*
X1225042Y-5281625D01*
X1225296Y-5278526D01*
X1225143Y-5276138D01*
X1224737Y-5273954D01*
X1224026Y-5271820D01*
X1223010Y-5269890D01*
X1221689Y-5268061D01*
X1220012Y-5266436D01*
X1218031Y-5265013D01*
X1215644Y-5263794D01*
X1212900Y-5262880D01*
X1209700Y-5262270D01*
X1206042Y-5261864D01*
X1193800Y-5261762D01*
X1193800Y-5246268D01*
X1206144Y-5246116D01*
X1210056Y-5245811D01*
X1213510Y-5245252D01*
X1216406Y-5244490D01*
X1218895Y-5243474D01*
X1221028Y-5242306D01*
X1222857Y-5240934D01*
X1224280Y-5239410D01*
X1225397Y-5237480D01*
X1226210Y-5235346D01*
X1226667Y-5232908D01*
X1226820Y-5230266D01*
X1226515Y-5226304D01*
X1225651Y-5222748D01*
X1224127Y-5219700D01*
X1221994Y-5217058D01*
X1219149Y-5214924D01*
X1215390Y-5213400D01*
X1210767Y-5212537D01*
X1205230Y-5212232D01*
X1198676Y-5212638D01*
X1191768Y-5214010D01*
X1188161Y-5214975D01*
X1184656Y-5216194D01*
X1178052Y-5219344D01*
X1117295Y-5219395D01*
X1115060Y-5219598D01*
X1112723Y-5219395D01*
X1110538Y-5218887D01*
X1108557Y-5218023D01*
X1106678Y-5216804D01*
X1105255Y-5215280D01*
X1104188Y-5213248D01*
X1103579Y-5210708D01*
X1103376Y-5207660D01*
X1064006Y-5207660D01*
X1064006Y-5270652D01*
X1103376Y-5270652D01*
X1103579Y-5267706D01*
X1104188Y-5265166D01*
X1105255Y-5263134D01*
X1106678Y-5261508D01*
X1108557Y-5260289D01*
X1110538Y-5259374D01*
X1112723Y-5258866D01*
X1115060Y-5258714D01*
X1117295Y-5258866D01*
X1119378Y-5259374D01*
X1121359Y-5260289D01*
X1123188Y-5261508D01*
X1124762Y-5263134D01*
X1125880Y-5265166D01*
X1126540Y-5267706D01*
X1126744Y-5270652D01*
X1126540Y-5273598D01*
X1125880Y-5276088D01*
X1124762Y-5278170D01*
X1123188Y-5279796D01*
X1121359Y-5280914D01*
X1119378Y-5281676D01*
X1117295Y-5282184D01*
X1115060Y-5282336D01*
X1112723Y-5282184D01*
X1110538Y-5281676D01*
X1108557Y-5280914D01*
X1106678Y-5279796D01*
X1105255Y-5278170D01*
X1104188Y-5276088D01*
X1103579Y-5273598D01*
X1103376Y-5270652D01*
X1064006Y-5270652D01*
X1064006Y-5290464D01*
X1092200Y-5290464D01*
X1092200Y-5306720D01*
X980186Y-5306720D01*
X980186Y-5238902D01*
X980033Y-5234838D01*
X979627Y-5231130D01*
X978916Y-5227726D01*
X977900Y-5224678D01*
X976630Y-5221935D01*
X975055Y-5219598D01*
X973175Y-5217617D01*
X971042Y-5216042D01*
X968603Y-5214670D01*
X965758Y-5213756D01*
X962609Y-5213146D01*
X959103Y-5212994D01*
X954227Y-5213350D01*
X949909Y-5214569D01*
X946200Y-5216550D01*
X943102Y-5219344D01*
X940765Y-5222798D01*
X939088Y-5227218D01*
X938123Y-5232450D01*
X937768Y-5238648D01*
X937768Y-5306720D01*
X864058Y-5306720D01*
X856792Y-5308041D01*
X848868Y-5308498D01*
X840994Y-5308041D01*
X833780Y-5306771D01*
X827278Y-5304637D01*
X821436Y-5301640D01*
X816457Y-5297728D01*
X812088Y-5293156D01*
X808431Y-5287975D01*
X805434Y-5282082D01*
X803097Y-5275580D01*
X801420Y-5268468D01*
X800455Y-5260848D01*
X800100Y-5252618D01*
X776051Y-5252618D01*
X793496Y-5306720D01*
X771398Y-5306720D01*
X751078Y-5235092D01*
X748080Y-5222036D01*
X747014Y-5216296D01*
X746556Y-5220004D01*
X744677Y-5228640D01*
X742492Y-5236972D01*
X722630Y-5306720D01*
X651379Y-5306720D01*
X656742Y-5313476D01*
X660806Y-5317794D01*
X665124Y-5321858D01*
X669645Y-5325618D01*
X674471Y-5329123D01*
X679500Y-5332272D01*
X684733Y-5335117D01*
X690168Y-5337657D01*
X695807Y-5339791D01*
X701598Y-5341620D01*
X707542Y-5343042D01*
X713638Y-5344058D01*
X719886Y-5344668D01*
X726186Y-5344922D01*
X1767789Y-5344922D01*
X1774139Y-5344668D01*
X1780336Y-5344058D01*
X1786432Y-5343042D01*
X1792376Y-5341620D01*
X1798167Y-5339791D01*
X1803806Y-5337657D01*
X1809242Y-5335117D01*
X1814474Y-5332272D01*
X1819503Y-5329123D01*
X1824329Y-5325618D01*
X1828901Y-5321858D01*
X1833219Y-5317794D01*
X1837283Y-5313476D01*
X1841042Y-5308904D01*
X1844497Y-5304129D01*
X1847697Y-5299100D01*
X1850542Y-5293868D01*
X1853031Y-5288381D01*
X1855216Y-5282793D01*
X1856993Y-5277002D01*
X1858416Y-5271058D01*
X1859483Y-5264962D01*
X1860092Y-5258714D01*
X1860296Y-5252415D01*
X1860092Y-5246065D01*
X1859483Y-5239867D01*
X1858416Y-5233771D01*
X1856993Y-5227828D01*
X1855216Y-5222036D01*
X1853031Y-5216398D01*
X1850542Y-5210962D01*
X1847697Y-5205730D01*
X1844497Y-5200700D01*
X1841042Y-5195874D01*
X1837283Y-5191302D01*
X1833219Y-5186984D01*
X1828901Y-5182920D01*
X1824329Y-5179161D01*
X1819503Y-5175707D01*
X1814474Y-5172506D01*
X1809242Y-5169662D01*
X1803806Y-5167172D01*
X1798167Y-5164988D01*
X1792376Y-5163210D01*
X1786432Y-5161788D01*
X1780336Y-5160721D01*
X1774139Y-5160111D01*
X1767789Y-5159908D01*
G37*
G36*
X848868Y-5212994D02*
G01*
X844296Y-5213299D01*
X840181Y-5214162D01*
X836523Y-5215686D01*
X833374Y-5217820D01*
X830529Y-5220462D01*
X828090Y-5223560D01*
X826109Y-5227167D01*
X824484Y-5231282D01*
X823264Y-5235956D01*
X822401Y-5241036D01*
X821893Y-5246624D01*
X821690Y-5252618D01*
X821893Y-5258511D01*
X822401Y-5263946D01*
X823264Y-5269026D01*
X824484Y-5273700D01*
X826109Y-5277866D01*
X828090Y-5281574D01*
X830529Y-5284724D01*
X833374Y-5287416D01*
X836523Y-5289397D01*
X840181Y-5290820D01*
X844296Y-5291683D01*
X848868Y-5291988D01*
X855522Y-5291328D01*
X861110Y-5289346D01*
X865784Y-5286095D01*
X869442Y-5281574D01*
X872134Y-5275732D01*
X874014Y-5268976D01*
X875182Y-5261254D01*
X875537Y-5252618D01*
X875385Y-5246624D01*
X874826Y-5241036D01*
X873963Y-5235956D01*
X872744Y-5231282D01*
X871270Y-5227167D01*
X869340Y-5223560D01*
X866952Y-5220462D01*
X864108Y-5217820D01*
X860958Y-5215686D01*
X857402Y-5214162D01*
X853338Y-5213299D01*
G37*
G36*
X1275588Y-5237124D02*
G01*
X1297178Y-5274716D01*
X1299210Y-5279288D01*
X1302258Y-5285130D01*
X1302766Y-5285130D01*
X1302004Y-5268112D01*
X1302004Y-5237124D01*
G37*
G36*
X1637030Y-5243474D02*
G01*
X1647494Y-5278069D01*
X1650492Y-5291480D01*
X1652016Y-5284622D01*
X1655572Y-5271668D01*
X1664207Y-5243474D01*
G37*
G36*
X146456Y-5640070D02*
G01*
X146456Y-5673344D01*
X247548Y-5703824D01*
X247548Y-5704332D01*
X146456Y-5735574D01*
X146456Y-5768848D01*
X274980Y-5768848D01*
X274980Y-5746242D01*
X193954Y-5746242D01*
X169824Y-5747258D01*
X169824Y-5746750D01*
X274980Y-5714492D01*
X274980Y-5692394D01*
X169824Y-5660898D01*
X169824Y-5660136D01*
X179984Y-5660898D01*
X201574Y-5661609D01*
X274980Y-5661660D01*
X274980Y-5640070D01*
G37*
G36*
X151790Y-5796026D02*
G01*
X148640Y-5796280D01*
X145999Y-5796991D01*
X143916Y-5798159D01*
X142392Y-5799836D01*
X141274Y-5801868D01*
X140462Y-5804103D01*
X140004Y-5806541D01*
X139852Y-5809234D01*
X140004Y-5811723D01*
X140462Y-5814009D01*
X141274Y-5816142D01*
X142392Y-5818124D01*
X143916Y-5819800D01*
X145999Y-5820968D01*
X148640Y-5821680D01*
X151790Y-5821934D01*
X154736Y-5821680D01*
X157226Y-5820968D01*
X159308Y-5819800D01*
X160934Y-5818124D01*
X162153Y-5816142D01*
X163017Y-5814009D01*
X163525Y-5811723D01*
X163728Y-5809234D01*
X163525Y-5806541D01*
X163017Y-5804103D01*
X162153Y-5801868D01*
X160934Y-5799836D01*
X159308Y-5798159D01*
X157226Y-5796991D01*
X154736Y-5796280D01*
G37*
G36*
X177444Y-5797042D02*
G01*
X177444Y-5820918D01*
X274980Y-5820918D01*
X274980Y-5797042D01*
G37*
G36*
X177444Y-5846826D02*
G01*
X177444Y-5865114D01*
X190144Y-5868416D01*
X190144Y-5869686D01*
X187706Y-5871210D01*
X185572Y-5872886D01*
X183642Y-5874766D01*
X182016Y-5876798D01*
X179171Y-5881573D01*
X178054Y-5884113D01*
X176530Y-5889447D01*
X176022Y-5892241D01*
X175666Y-5898134D01*
X177749Y-5911799D01*
X184048Y-5922264D01*
X195224Y-5928766D01*
X211480Y-5930900D01*
X274980Y-5930900D01*
X274980Y-5907024D01*
X216052Y-5907024D01*
X210820Y-5906770D01*
X206349Y-5906058D01*
X202590Y-5904890D01*
X199542Y-5903214D01*
X197104Y-5901029D01*
X195326Y-5898337D01*
X194310Y-5895086D01*
X193954Y-5891276D01*
X194513Y-5885789D01*
X196088Y-5881268D01*
X198831Y-5877661D01*
X202590Y-5875020D01*
X213055Y-5871768D01*
X227228Y-5870702D01*
X274980Y-5870702D01*
X274980Y-5846826D01*
G37*
G36*
X151790Y-5955538D02*
G01*
X148640Y-5955792D01*
X145999Y-5956503D01*
X143916Y-5957671D01*
X142392Y-5959348D01*
X141274Y-5961278D01*
X140462Y-5963412D01*
X140004Y-5965850D01*
X139852Y-5968492D01*
X140004Y-5971082D01*
X140462Y-5973470D01*
X141274Y-5975654D01*
X142392Y-5977636D01*
X143916Y-5979312D01*
X145999Y-5980480D01*
X148640Y-5981192D01*
X151790Y-5981446D01*
X154736Y-5981192D01*
X157226Y-5980480D01*
X159308Y-5979312D01*
X160934Y-5977636D01*
X162153Y-5975654D01*
X163017Y-5973470D01*
X163525Y-5971082D01*
X163728Y-5968492D01*
X163525Y-5965850D01*
X163017Y-5963412D01*
X162153Y-5961278D01*
X160934Y-5959348D01*
X159308Y-5957671D01*
X157226Y-5956503D01*
X154736Y-5955792D01*
G37*
G36*
X177444Y-5956554D02*
G01*
X177444Y-5980176D01*
X274980Y-5980176D01*
X274980Y-5956554D01*
G37*
G36*
X248056Y-6045200D02*
G01*
X251460Y-6053632D01*
X254660Y-6062726D01*
X255879Y-6067399D01*
X256743Y-6072022D01*
X257251Y-6076543D01*
X257454Y-6081014D01*
X256946Y-6087262D01*
X256286Y-6089904D01*
X255422Y-6092190D01*
X254304Y-6094222D01*
X252984Y-6095949D01*
X251510Y-6097371D01*
X249834Y-6098540D01*
X247853Y-6099556D01*
X245770Y-6100267D01*
X243535Y-6100673D01*
X241198Y-6100826D01*
X238607Y-6100673D01*
X236220Y-6100114D01*
X234035Y-6099251D01*
X230174Y-6096609D01*
X228346Y-6094780D01*
X224942Y-6090158D01*
X223266Y-6087313D01*
X219964Y-6080302D01*
X216509Y-6072225D01*
X212445Y-6064707D01*
X210210Y-6061202D01*
X207721Y-6057950D01*
X204927Y-6055055D01*
X201777Y-6052515D01*
X198272Y-6050280D01*
X194259Y-6048603D01*
X189839Y-6047435D01*
X184962Y-6046724D01*
X179730Y-6046470D01*
X174447Y-6046774D01*
X169570Y-6047740D01*
X165049Y-6049314D01*
X160934Y-6051550D01*
X157226Y-6054496D01*
X153924Y-6057900D01*
X151130Y-6061862D01*
X148742Y-6066282D01*
X146964Y-6071057D01*
X145694Y-6076238D01*
X144932Y-6081877D01*
X144678Y-6087872D01*
X144830Y-6092952D01*
X145237Y-6097828D01*
X145948Y-6102502D01*
X148082Y-6111290D01*
X151130Y-6119672D01*
X153060Y-6123686D01*
X171602Y-6116066D01*
X168402Y-6108700D01*
X166014Y-6101334D01*
X164693Y-6094222D01*
X164236Y-6087110D01*
X164338Y-6084468D01*
X164693Y-6082030D01*
X165252Y-6079896D01*
X166014Y-6077966D01*
X167030Y-6076188D01*
X168249Y-6074613D01*
X169672Y-6073241D01*
X171348Y-6072124D01*
X174955Y-6070803D01*
X176987Y-6070447D01*
X181762Y-6070498D01*
X184099Y-6070904D01*
X186232Y-6071616D01*
X188112Y-6072632D01*
X189839Y-6074105D01*
X191516Y-6075934D01*
X194716Y-6080760D01*
X198221Y-6086906D01*
X206502Y-6103620D01*
X211226Y-6110986D01*
X213766Y-6114237D01*
X216560Y-6117031D01*
X219608Y-6119418D01*
X222910Y-6121400D01*
X226517Y-6122974D01*
X230581Y-6124092D01*
X235051Y-6124752D01*
X239928Y-6124956D01*
X245414Y-6124651D01*
X250545Y-6123635D01*
X255219Y-6121958D01*
X259486Y-6119622D01*
X263398Y-6116777D01*
X266852Y-6113322D01*
X269748Y-6109309D01*
X272186Y-6104636D01*
X275590Y-6093358D01*
X276758Y-6079744D01*
X276555Y-6073089D01*
X275996Y-6066790D01*
X274980Y-6060897D01*
X273456Y-6055360D01*
X271729Y-6050178D01*
X269646Y-6045200D01*
G37*
G36*
X151790Y-6143498D02*
G01*
X148640Y-6143752D01*
X145999Y-6144463D01*
X143916Y-6145631D01*
X142392Y-6147308D01*
X141274Y-6149340D01*
X140462Y-6151575D01*
X140004Y-6154013D01*
X139852Y-6156706D01*
X140004Y-6159246D01*
X140462Y-6161582D01*
X141274Y-6163716D01*
X142392Y-6165596D01*
X143916Y-6167272D01*
X145999Y-6168440D01*
X148640Y-6169152D01*
X151790Y-6169406D01*
X154736Y-6169152D01*
X157226Y-6168440D01*
X159308Y-6167272D01*
X160934Y-6165596D01*
X162153Y-6163716D01*
X163017Y-6161582D01*
X163525Y-6159246D01*
X163728Y-6156706D01*
X163525Y-6154013D01*
X163017Y-6151575D01*
X162153Y-6149340D01*
X160934Y-6147308D01*
X159308Y-6145631D01*
X157226Y-6144463D01*
X154736Y-6143752D01*
G37*
G36*
X177444Y-6144768D02*
G01*
X177444Y-6168390D01*
X274980Y-6168390D01*
X274980Y-6144768D01*
G37*
G36*
X146456Y-6196584D02*
G01*
X146456Y-6220714D01*
X208686Y-6220714D01*
X208534Y-6233414D01*
X208127Y-6236919D01*
X207416Y-6240119D01*
X206400Y-6243066D01*
X205079Y-6245707D01*
X203454Y-6248044D01*
X201523Y-6250025D01*
X199288Y-6251702D01*
X196697Y-6252921D01*
X193700Y-6253784D01*
X190347Y-6254343D01*
X186588Y-6254496D01*
X181610Y-6254191D01*
X177292Y-6253175D01*
X173736Y-6251498D01*
X170840Y-6249162D01*
X168503Y-6246114D01*
X166827Y-6242354D01*
X165811Y-6237884D01*
X165506Y-6232652D01*
X165506Y-6220714D01*
X146456Y-6220714D01*
X146456Y-6233668D01*
X147116Y-6244590D01*
X149047Y-6253937D01*
X152298Y-6261709D01*
X156870Y-6267958D01*
X169316Y-6276136D01*
X185826Y-6278880D01*
X191211Y-6278626D01*
X196443Y-6277813D01*
X201472Y-6276441D01*
X206400Y-6274562D01*
X210972Y-6272022D01*
X215087Y-6268770D01*
X218744Y-6264808D01*
X221894Y-6260084D01*
X226263Y-6247892D01*
X227736Y-6232144D01*
X227736Y-6220714D01*
X274980Y-6220714D01*
X274980Y-6196584D01*
G37*
G36*
X146456Y-6301740D02*
G01*
X146456Y-6335014D01*
X247548Y-6365494D01*
X247548Y-6366002D01*
X146456Y-6397244D01*
X146456Y-6430518D01*
X274980Y-6430518D01*
X274980Y-6407912D01*
X193954Y-6407912D01*
X179984Y-6408420D01*
X169824Y-6409182D01*
X169824Y-6408420D01*
X274980Y-6376162D01*
X274980Y-6354064D01*
X169824Y-6322568D01*
X169824Y-6322060D01*
X201574Y-6323279D01*
X274980Y-6323330D01*
X274980Y-6301740D01*
G37*
G36*
X146456Y-6504685D02*
G01*
X146456Y-6528816D01*
X255676Y-6528816D01*
X255676Y-6540500D01*
X252831Y-6557518D01*
X244246Y-6569456D01*
X230022Y-6576517D01*
X210210Y-6578853D01*
X196291Y-6577888D01*
X185064Y-6575044D01*
X180441Y-6572758D01*
X176428Y-6569964D01*
X173075Y-6566662D01*
X170332Y-6562852D01*
X168198Y-6558686D01*
X166725Y-6553962D01*
X165811Y-6548780D01*
X165506Y-6543040D01*
X165506Y-6528816D01*
X146456Y-6528816D01*
X146456Y-6543294D01*
X148234Y-6560972D01*
X153568Y-6575806D01*
X162560Y-6587947D01*
X174904Y-6596888D01*
X190500Y-6602425D01*
X209448Y-6604253D01*
X219811Y-6603796D01*
X229311Y-6602374D01*
X237947Y-6599986D01*
X245770Y-6596634D01*
X258470Y-6587185D01*
X267614Y-6574536D01*
X273151Y-6558686D01*
X274980Y-6539992D01*
X274980Y-6504685D01*
G37*
G36*
X177444Y-6626859D02*
G01*
X177444Y-6645148D01*
X194462Y-6648450D01*
X194462Y-6649720D01*
X189382Y-6652818D01*
X184810Y-6656578D01*
X181102Y-6660896D01*
X178206Y-6665722D01*
X177088Y-6668312D01*
X176276Y-6671005D01*
X175818Y-6673799D01*
X175666Y-6677914D01*
X176022Y-6684416D01*
X176428Y-6686550D01*
X197510Y-6684264D01*
X197002Y-6679946D01*
X196748Y-6674866D01*
X196850Y-6672630D01*
X197764Y-6668312D01*
X199390Y-6664147D01*
X201828Y-6660184D01*
X203352Y-6658356D01*
X207264Y-6655308D01*
X211988Y-6652768D01*
X217779Y-6651244D01*
X224434Y-6650736D01*
X274980Y-6650736D01*
X274980Y-6626859D01*
G37*
G36*
X151790Y-6701281D02*
G01*
X148640Y-6701536D01*
X145999Y-6702247D01*
X143916Y-6703415D01*
X142392Y-6705092D01*
X141274Y-6707022D01*
X140462Y-6709156D01*
X140004Y-6711594D01*
X139852Y-6714236D01*
X140004Y-6716826D01*
X140462Y-6719214D01*
X141274Y-6721398D01*
X142392Y-6723380D01*
X143916Y-6725056D01*
X145999Y-6726224D01*
X148640Y-6726936D01*
X151790Y-6727190D01*
X154736Y-6726936D01*
X157226Y-6726224D01*
X159308Y-6725056D01*
X160934Y-6723380D01*
X162153Y-6721398D01*
X163017Y-6719214D01*
X163525Y-6716826D01*
X163728Y-6714236D01*
X163525Y-6711594D01*
X163017Y-6709156D01*
X162153Y-6707022D01*
X160934Y-6705092D01*
X159308Y-6703415D01*
X157226Y-6702247D01*
X154736Y-6701536D01*
G37*
G36*
X177444Y-6702298D02*
G01*
X177444Y-6725920D01*
X274980Y-6725920D01*
X274980Y-6702298D01*
G37*
G36*
X177444Y-6738874D02*
G01*
X177444Y-6764020D01*
X235508Y-6782155D01*
X239217Y-6783171D01*
X252831Y-6785660D01*
X255930Y-6785864D01*
X255930Y-6786625D01*
X249072Y-6787388D01*
X241198Y-6789166D01*
X233832Y-6791198D01*
X177444Y-6808724D01*
X177444Y-6833870D01*
X274980Y-6798818D01*
X274980Y-6774180D01*
G37*
G36*
X226974Y-6841998D02*
G01*
X211531Y-6843318D01*
X198780Y-6847331D01*
X193395Y-6850278D01*
X188722Y-6853834D01*
X184759Y-6857898D01*
X181508Y-6862572D01*
X178968Y-6867702D01*
X177139Y-6873189D01*
X176022Y-6879031D01*
X175679Y-6885431D01*
X192430Y-6885431D01*
X192786Y-6881672D01*
X193903Y-6878269D01*
X195732Y-6875221D01*
X198272Y-6872478D01*
X201523Y-6870192D01*
X205486Y-6868464D01*
X210159Y-6867296D01*
X215544Y-6866636D01*
X215544Y-6903466D01*
X212242Y-6903364D01*
X206248Y-6902348D01*
X201117Y-6900316D01*
X198882Y-6898894D01*
X197053Y-6897268D01*
X195478Y-6895338D01*
X194157Y-6893306D01*
X193192Y-6890969D01*
X192633Y-6888327D01*
X192430Y-6885431D01*
X175679Y-6885431D01*
X175971Y-6891274D01*
X176987Y-6896912D01*
X178663Y-6902094D01*
X181000Y-6906768D01*
X183946Y-6911086D01*
X187401Y-6914896D01*
X191414Y-6918198D01*
X195986Y-6920992D01*
X201168Y-6923227D01*
X206908Y-6924802D01*
X213106Y-6925767D01*
X219862Y-6926072D01*
X231546Y-6926072D01*
X231546Y-6866381D01*
X237794Y-6866890D01*
X243281Y-6868109D01*
X248056Y-6870039D01*
X252120Y-6872731D01*
X255219Y-6876237D01*
X257454Y-6880301D01*
X258775Y-6884974D01*
X259232Y-6890258D01*
X259130Y-6894575D01*
X258216Y-6902602D01*
X257454Y-6906259D01*
X255168Y-6913524D01*
X251866Y-6920992D01*
X270154Y-6920992D01*
X271729Y-6917537D01*
X274269Y-6910425D01*
X275234Y-6906768D01*
X275894Y-6902856D01*
X276656Y-6893712D01*
X276758Y-6888480D01*
X276402Y-6881926D01*
X275437Y-6875729D01*
X273761Y-6869887D01*
X271424Y-6864350D01*
X268274Y-6859422D01*
X264414Y-6855002D01*
X259892Y-6851142D01*
X254660Y-6847840D01*
X242163Y-6843471D01*
G37*
G36*
X177444Y-6946646D02*
G01*
X177444Y-6964934D01*
X194462Y-6968236D01*
X194462Y-6969506D01*
X189382Y-6972452D01*
X184810Y-6976109D01*
X181102Y-6980428D01*
X178206Y-6985253D01*
X177088Y-6987844D01*
X176276Y-6990588D01*
X175818Y-6993432D01*
X175666Y-6997700D01*
X176022Y-7004050D01*
X176428Y-7006081D01*
X197510Y-7004050D01*
X196748Y-6995922D01*
X196850Y-6992366D01*
X197764Y-6987946D01*
X199390Y-6983780D01*
X201828Y-6979970D01*
X203352Y-6978142D01*
X207264Y-6974992D01*
X211988Y-6972553D01*
X217779Y-6971030D01*
X224434Y-6970522D01*
X274980Y-6970522D01*
X274980Y-6946646D01*
G37*
G36*
X146456Y-7067803D02*
G01*
X146456Y-7091934D01*
X255676Y-7091934D01*
X255676Y-7109714D01*
X255320Y-7115352D01*
X254355Y-7120077D01*
X252679Y-7123887D01*
X250342Y-7126731D01*
X247446Y-7128764D01*
X244043Y-7130186D01*
X240182Y-7131050D01*
X235864Y-7131303D01*
X233121Y-7131202D01*
X228193Y-7130186D01*
X225958Y-7129272D01*
X224028Y-7128103D01*
X222351Y-7126528D01*
X220878Y-7124649D01*
X219608Y-7122414D01*
X218592Y-7119772D01*
X217881Y-7116622D01*
X217474Y-7113016D01*
X217322Y-7091934D01*
X198780Y-7091934D01*
X198780Y-7107936D01*
X198526Y-7113320D01*
X197713Y-7117791D01*
X196342Y-7121347D01*
X194462Y-7123938D01*
X192024Y-7125970D01*
X189128Y-7127392D01*
X185674Y-7128256D01*
X181762Y-7128509D01*
X177749Y-7128205D01*
X174345Y-7127189D01*
X171500Y-7125512D01*
X169316Y-7123175D01*
X167640Y-7120128D01*
X166471Y-7116318D01*
X165760Y-7111746D01*
X165506Y-7106412D01*
X165506Y-7091934D01*
X146456Y-7091934D01*
X146456Y-7105650D01*
X147269Y-7120432D01*
X149758Y-7132320D01*
X151536Y-7137298D01*
X153822Y-7141616D01*
X156616Y-7145172D01*
X159918Y-7148068D01*
X163677Y-7150404D01*
X168046Y-7152081D01*
X173075Y-7153097D01*
X178714Y-7153402D01*
X182321Y-7153249D01*
X185674Y-7152792D01*
X188925Y-7151979D01*
X191922Y-7150862D01*
X194818Y-7149490D01*
X197459Y-7147814D01*
X199796Y-7145934D01*
X201828Y-7143750D01*
X203555Y-7141464D01*
X204978Y-7138924D01*
X206095Y-7136130D01*
X206908Y-7133081D01*
X207670Y-7133081D01*
X208432Y-7136180D01*
X209448Y-7139178D01*
X210718Y-7142022D01*
X212242Y-7144766D01*
X214071Y-7147306D01*
X216306Y-7149592D01*
X218897Y-7151624D01*
X221894Y-7153402D01*
X225196Y-7154875D01*
X229006Y-7155891D01*
X233324Y-7156500D01*
X238150Y-7156703D01*
X243789Y-7156348D01*
X248920Y-7155332D01*
X253695Y-7153554D01*
X257962Y-7151116D01*
X261874Y-7148169D01*
X265328Y-7144664D01*
X268224Y-7140549D01*
X270662Y-7135875D01*
X272542Y-7130796D01*
X273913Y-7125208D01*
X274726Y-7119112D01*
X274980Y-7112508D01*
X274980Y-7067803D01*
G37*
G36*
X225958Y-7173214D02*
G01*
X211074Y-7174636D01*
X198526Y-7178802D01*
X193243Y-7181748D01*
X188671Y-7185304D01*
X184759Y-7189368D01*
X181508Y-7194042D01*
X177139Y-7205116D01*
X175695Y-7217664D01*
X193954Y-7217664D01*
X194462Y-7212736D01*
X196037Y-7208520D01*
X198678Y-7205116D01*
X202336Y-7202424D01*
X206857Y-7200341D01*
X212293Y-7198817D01*
X218643Y-7197902D01*
X225958Y-7197598D01*
X235559Y-7198106D01*
X239725Y-7198766D01*
X243484Y-7199630D01*
X246938Y-7200798D01*
X249936Y-7202322D01*
X252526Y-7204100D01*
X254660Y-7206234D01*
X256336Y-7208570D01*
X257505Y-7211314D01*
X258216Y-7214412D01*
X258470Y-7217918D01*
X258216Y-7221220D01*
X257505Y-7224217D01*
X256336Y-7226909D01*
X254660Y-7229348D01*
X252526Y-7231380D01*
X249936Y-7233107D01*
X246938Y-7234529D01*
X243484Y-7235698D01*
X239725Y-7236612D01*
X235559Y-7237222D01*
X230936Y-7237628D01*
X220929Y-7237628D01*
X212191Y-7236612D01*
X208432Y-7235698D01*
X205079Y-7234529D01*
X202184Y-7233107D01*
X199745Y-7231380D01*
X197764Y-7229348D01*
X196088Y-7226909D01*
X194919Y-7224166D01*
X194208Y-7221067D01*
X193954Y-7217664D01*
X175695Y-7217664D01*
X176022Y-7224217D01*
X177139Y-7230109D01*
X178968Y-7235647D01*
X181508Y-7240778D01*
X184861Y-7245502D01*
X188874Y-7249668D01*
X193497Y-7253376D01*
X198780Y-7256525D01*
X211175Y-7260742D01*
X225958Y-7262114D01*
X231952Y-7261910D01*
X237591Y-7261352D01*
X242773Y-7260386D01*
X247548Y-7259066D01*
X252069Y-7257389D01*
X256235Y-7255306D01*
X260045Y-7252919D01*
X263550Y-7250175D01*
X266649Y-7247128D01*
X269341Y-7243724D01*
X271576Y-7240016D01*
X273456Y-7235952D01*
X274878Y-7231735D01*
X275945Y-7227265D01*
X276555Y-7222490D01*
X276758Y-7217409D01*
X276555Y-7212787D01*
X275945Y-7208316D01*
X274878Y-7204049D01*
X273456Y-7199884D01*
X271576Y-7195972D01*
X269341Y-7192264D01*
X266649Y-7188860D01*
X263550Y-7185659D01*
X260045Y-7182916D01*
X256235Y-7180478D01*
X252069Y-7178344D01*
X247548Y-7176516D01*
X242773Y-7175093D01*
X237591Y-7174026D01*
X231952Y-7173417D01*
G37*
G36*
X246532Y-7277100D02*
G01*
X233324Y-7279690D01*
X223672Y-7287514D01*
X217830Y-7300620D01*
X215544Y-7319009D01*
X214782Y-7334503D01*
X229006Y-7334503D01*
X229260Y-7324344D01*
X229768Y-7318502D01*
X230784Y-7313574D01*
X232308Y-7309612D01*
X234340Y-7306564D01*
X236829Y-7304328D01*
X239725Y-7302753D01*
X243027Y-7301788D01*
X246786Y-7301484D01*
X249986Y-7301738D01*
X252679Y-7302398D01*
X254914Y-7303516D01*
X256692Y-7305040D01*
X258013Y-7306970D01*
X258978Y-7309103D01*
X259537Y-7311542D01*
X259740Y-7314184D01*
X259384Y-7318349D01*
X258317Y-7322108D01*
X256590Y-7325563D01*
X254152Y-7328662D01*
X250901Y-7331202D01*
X246989Y-7333030D01*
X242366Y-7334148D01*
X237134Y-7334503D01*
X209956Y-7334503D01*
X205587Y-7334250D01*
X201930Y-7333538D01*
X198983Y-7332370D01*
X196748Y-7330694D01*
X194970Y-7328509D01*
X193700Y-7325918D01*
X192938Y-7323023D01*
X192684Y-7319772D01*
X193243Y-7313168D01*
X193954Y-7309866D01*
X196037Y-7303312D01*
X198577Y-7296962D01*
X200050Y-7293864D01*
X184048Y-7286498D01*
X182219Y-7290206D01*
X180594Y-7294118D01*
X177952Y-7302753D01*
X176936Y-7307325D01*
X176225Y-7312050D01*
X175818Y-7316978D01*
X175666Y-7322058D01*
X177698Y-7337552D01*
X183794Y-7348981D01*
X194259Y-7356043D01*
X209448Y-7358380D01*
X274980Y-7358380D01*
X274980Y-7341616D01*
X261518Y-7337044D01*
X261518Y-7336281D01*
X266344Y-7332218D01*
X270154Y-7328153D01*
X271780Y-7326071D01*
X273202Y-7323785D01*
X275234Y-7318756D01*
X275894Y-7315962D01*
X276656Y-7309358D01*
X276758Y-7305548D01*
X276555Y-7301585D01*
X275945Y-7297877D01*
X274878Y-7294372D01*
X273456Y-7291070D01*
X271678Y-7287971D01*
X269443Y-7285228D01*
X266750Y-7282891D01*
X263550Y-7280909D01*
X259994Y-7279233D01*
X255981Y-7278065D01*
X251510Y-7277353D01*
G37*
G36*
X177444Y-7383780D02*
G01*
X177444Y-7402068D01*
X194462Y-7405370D01*
X194462Y-7406640D01*
X189382Y-7409688D01*
X184810Y-7413244D01*
X181102Y-7417612D01*
X178206Y-7422642D01*
X177088Y-7425232D01*
X176276Y-7427925D01*
X175818Y-7430719D01*
X175666Y-7434834D01*
X176022Y-7441234D01*
X176428Y-7443216D01*
X197510Y-7441184D01*
X197002Y-7436866D01*
X196748Y-7431786D01*
X196850Y-7429550D01*
X197764Y-7425232D01*
X199390Y-7421067D01*
X201828Y-7417104D01*
X203352Y-7415275D01*
X207264Y-7412126D01*
X211988Y-7409688D01*
X217779Y-7408164D01*
X224434Y-7407656D01*
X274980Y-7407656D01*
X274980Y-7383780D01*
G37*
G36*
X226466Y-7450836D02*
G01*
X214680Y-7451445D01*
X204419Y-7453325D01*
X195732Y-7456424D01*
X188620Y-7460742D01*
X178917Y-7472070D01*
X175666Y-7486650D01*
X175768Y-7489850D01*
X176268Y-7493508D01*
X194208Y-7493508D01*
X194767Y-7489342D01*
X196342Y-7485634D01*
X199085Y-7482484D01*
X202844Y-7479792D01*
X207467Y-7477709D01*
X213004Y-7476185D01*
X219405Y-7475270D01*
X226720Y-7474966D01*
X233984Y-7475270D01*
X240385Y-7476185D01*
X245821Y-7477709D01*
X250342Y-7479792D01*
X253898Y-7482484D01*
X256438Y-7485684D01*
X257962Y-7489444D01*
X258470Y-7493762D01*
X258013Y-7498842D01*
X256692Y-7503109D01*
X254457Y-7506563D01*
X251358Y-7509256D01*
X247243Y-7511288D01*
X242214Y-7512710D01*
X236321Y-7513574D01*
X226466Y-7513828D01*
X219049Y-7513574D01*
X212598Y-7512761D01*
X207111Y-7511389D01*
X202590Y-7509509D01*
X198932Y-7506919D01*
X196291Y-7503363D01*
X194716Y-7498892D01*
X194208Y-7493508D01*
X176268Y-7493508D01*
X177444Y-7498080D01*
X179781Y-7502804D01*
X182778Y-7506716D01*
X186080Y-7510068D01*
X189890Y-7513066D01*
X189890Y-7513828D01*
X182016Y-7512812D01*
X172364Y-7512303D01*
X138328Y-7512303D01*
X138328Y-7536180D01*
X274980Y-7536180D01*
X274980Y-7517892D01*
X262280Y-7513320D01*
X262280Y-7512303D01*
X265938Y-7509713D01*
X269392Y-7506462D01*
X271068Y-7504480D01*
X273710Y-7500061D01*
X275590Y-7495031D01*
X276250Y-7492238D01*
X276758Y-7485888D01*
X273558Y-7471664D01*
X264058Y-7460488D01*
X256946Y-7456271D01*
X248310Y-7453274D01*
X238150Y-7451445D01*
G37*
G36*
X1157986Y-3904945D02*
G01*
X1147673Y-3905504D01*
X1138326Y-3907231D01*
X1129893Y-3910076D01*
X1122426Y-3914089D01*
X1110234Y-3925062D01*
X1101598Y-3939743D01*
X1098499Y-3948328D01*
X1096264Y-3957675D01*
X1094943Y-3967632D01*
X1094486Y-3978351D01*
X1122934Y-3978351D01*
X1123442Y-3966921D01*
X1124966Y-3956812D01*
X1127506Y-3948023D01*
X1131062Y-3940505D01*
X1141984Y-3930040D01*
X1157986Y-3926535D01*
X1164031Y-3926941D01*
X1169466Y-3928110D01*
X1174343Y-3930091D01*
X1178560Y-3932885D01*
X1182217Y-3936288D01*
X1185367Y-3940403D01*
X1187958Y-3945178D01*
X1189990Y-3950665D01*
X1192682Y-3963314D01*
X1193546Y-3978351D01*
X1192682Y-3993438D01*
X1189990Y-4006291D01*
X1187958Y-4011676D01*
X1185367Y-4016451D01*
X1182217Y-4020565D01*
X1178560Y-4024071D01*
X1174343Y-4026712D01*
X1169568Y-4028643D01*
X1164183Y-4029811D01*
X1158240Y-4030167D01*
X1152296Y-4029811D01*
X1146962Y-4028643D01*
X1142136Y-4026763D01*
X1137920Y-4024071D01*
X1134364Y-4020565D01*
X1131265Y-4016451D01*
X1128623Y-4011676D01*
X1126490Y-4006291D01*
X1123848Y-3993438D01*
X1122934Y-3978351D01*
X1094486Y-3978351D01*
X1095502Y-3994302D01*
X1098550Y-4008577D01*
X1103376Y-4021074D01*
X1110234Y-4031691D01*
X1119124Y-4040428D01*
X1130046Y-4046931D01*
X1143101Y-4050741D01*
X1158240Y-4052011D01*
X1173480Y-4050690D01*
X1186688Y-4046677D01*
X1197610Y-4040276D01*
X1206500Y-4031691D01*
X1213256Y-4021023D01*
X1218184Y-4008323D01*
X1221028Y-3994048D01*
X1221994Y-3978097D01*
X1221587Y-3967378D01*
X1220317Y-3957370D01*
X1218133Y-3948074D01*
X1215136Y-3939489D01*
X1206449Y-3925011D01*
X1194054Y-3914089D01*
X1186484Y-3910076D01*
X1177950Y-3907231D01*
X1168450Y-3905504D01*
G37*
G36*
X1575308Y-3905199D02*
G01*
X1570228Y-3905351D01*
X1559814Y-3906621D01*
X1554480Y-3907739D01*
X1549450Y-3909110D01*
X1544675Y-3910736D01*
X1540154Y-3912565D01*
X1535938Y-3914597D01*
X1545082Y-3935679D01*
X1552143Y-3932377D01*
X1563319Y-3928364D01*
X1567180Y-3927500D01*
X1571193Y-3926941D01*
X1575308Y-3926789D01*
X1579422Y-3926992D01*
X1583334Y-3927652D01*
X1587042Y-3928770D01*
X1590548Y-3930345D01*
X1593850Y-3932326D01*
X1596847Y-3934714D01*
X1599539Y-3937558D01*
X1601978Y-3940759D01*
X1604264Y-3944365D01*
X1606194Y-3948328D01*
X1607820Y-3952595D01*
X1610207Y-3962247D01*
X1611020Y-3967479D01*
X1611477Y-3973017D01*
X1611630Y-3978859D01*
X1610614Y-3993896D01*
X1607566Y-4006545D01*
X1605280Y-4011929D01*
X1602486Y-4016705D01*
X1599184Y-4020820D01*
X1595374Y-4024325D01*
X1591056Y-4027017D01*
X1586179Y-4028897D01*
X1580743Y-4030014D01*
X1574800Y-4030421D01*
X1566316Y-4029913D01*
X1558036Y-4028389D01*
X1549806Y-4026204D01*
X1541272Y-4023309D01*
X1541272Y-4045153D01*
X1549704Y-4048251D01*
X1558290Y-4050487D01*
X1567484Y-4051604D01*
X1577848Y-4052011D01*
X1596898Y-4049725D01*
X1612392Y-4042867D01*
X1624330Y-4031894D01*
X1632712Y-4017213D01*
X1635607Y-4008628D01*
X1637690Y-3999280D01*
X1638909Y-3989324D01*
X1639316Y-3978605D01*
X1638300Y-3963060D01*
X1635251Y-3948887D01*
X1630019Y-3936492D01*
X1622806Y-3925773D01*
X1613662Y-3917137D01*
X1602486Y-3910533D01*
X1589735Y-3906520D01*
G37*
G36*
X1404874Y-3907231D02*
G01*
X1404874Y-3999687D01*
X1406398Y-4013708D01*
X1410970Y-4026357D01*
X1418691Y-4037025D01*
X1429512Y-4045153D01*
X1443380Y-4050284D01*
X1460500Y-4052011D01*
X1472844Y-4051096D01*
X1483614Y-4048404D01*
X1492910Y-4043883D01*
X1500632Y-4037533D01*
X1506626Y-4029710D01*
X1510944Y-4020718D01*
X1513484Y-4010507D01*
X1514348Y-3999179D01*
X1514348Y-3907231D01*
X1487678Y-3907231D01*
X1487678Y-3996639D01*
X1485900Y-4011625D01*
X1480566Y-4022039D01*
X1476603Y-4025595D01*
X1471777Y-4028135D01*
X1466037Y-4029659D01*
X1459484Y-4030167D01*
X1454912Y-4029913D01*
X1450746Y-4029201D01*
X1447038Y-4028033D01*
X1443736Y-4026357D01*
X1440992Y-4024223D01*
X1438605Y-4021582D01*
X1436573Y-4018483D01*
X1434846Y-4014927D01*
X1433626Y-4010914D01*
X1432763Y-4006494D01*
X1432255Y-4001617D01*
X1432052Y-3996385D01*
X1432052Y-3907231D01*
G37*
G36*
X1284732Y-3907231D02*
G01*
X1284732Y-3928821D01*
X1321816Y-3928821D01*
X1321816Y-4049979D01*
X1348740Y-4049979D01*
X1348740Y-3928821D01*
X1386078Y-3928821D01*
X1386078Y-3907231D01*
G37*
G36*
X990092Y-3907231D02*
G01*
X990092Y-3928567D01*
X1040637Y-3928567D01*
X1040637Y-3970731D01*
X993648Y-3970731D01*
X993648Y-3992067D01*
X1040637Y-3992067D01*
X1040637Y-4049979D01*
X1067054Y-4049979D01*
X1067054Y-3907231D01*
G37*
G36*
X889253Y-3907231D02*
G01*
X889253Y-3928567D01*
X939800Y-3928567D01*
X939800Y-3970731D01*
X892810Y-3970731D01*
X892810Y-3992067D01*
X939800Y-3992067D01*
X939800Y-4049979D01*
X966216Y-4049979D01*
X966216Y-3907231D01*
G37*
G36*
X1374292Y-4157218D02*
G01*
X1374292Y-4299966D01*
X1401165Y-4299966D01*
X1401165Y-4236466D01*
X1456334Y-4236466D01*
X1456334Y-4299966D01*
X1483207Y-4299966D01*
X1483207Y-4157218D01*
X1456334Y-4157218D01*
X1456334Y-4214876D01*
X1401165Y-4214876D01*
X1401165Y-4157218D01*
G37*
G36*
X1263497Y-4157218D02*
G01*
X1263497Y-4178554D01*
X1313789Y-4178554D01*
X1313789Y-4214876D01*
X1266850Y-4214876D01*
X1266850Y-4236466D01*
X1313789Y-4236466D01*
X1313789Y-4278376D01*
X1263497Y-4278376D01*
X1263497Y-4299966D01*
X1340510Y-4299966D01*
X1340510Y-4157218D01*
G37*
G36*
X1196492Y-4157218D02*
G01*
X1180236Y-4158386D01*
X1167028Y-4161790D01*
X1161643Y-4164380D01*
X1157020Y-4167581D01*
X1153160Y-4171391D01*
X1150010Y-4175760D01*
X1147419Y-4180636D01*
X1145590Y-4186174D01*
X1144524Y-4192320D01*
X1144199Y-4199890D01*
X1171295Y-4199890D01*
X1171498Y-4196283D01*
X1172006Y-4192981D01*
X1172870Y-4190034D01*
X1174089Y-4187444D01*
X1175715Y-4185310D01*
X1177696Y-4183430D01*
X1180033Y-4181906D01*
X1182776Y-4180586D01*
X1185875Y-4179722D01*
X1189380Y-4179062D01*
X1197457Y-4178554D01*
X1209395Y-4178554D01*
X1209395Y-4222496D01*
X1192987Y-4222343D01*
X1189177Y-4221886D01*
X1185773Y-4221073D01*
X1182776Y-4219956D01*
X1180033Y-4218533D01*
X1177696Y-4216806D01*
X1175715Y-4214723D01*
X1174089Y-4212336D01*
X1172870Y-4209745D01*
X1172006Y-4206849D01*
X1171498Y-4203547D01*
X1171295Y-4199890D01*
X1144199Y-4199890D01*
X1144371Y-4204157D01*
X1145032Y-4208780D01*
X1146149Y-4213047D01*
X1147673Y-4216908D01*
X1149502Y-4220464D01*
X1151585Y-4223715D01*
X1153922Y-4226661D01*
X1156563Y-4229354D01*
X1159459Y-4231690D01*
X1165707Y-4235602D01*
X1169060Y-4237228D01*
X1130655Y-4299966D01*
X1160881Y-4299966D01*
X1191920Y-4243578D01*
X1209395Y-4243578D01*
X1209395Y-4299966D01*
X1236065Y-4299966D01*
X1236065Y-4157218D01*
G37*
G36*
X1036726Y-4157218D02*
G01*
X1036726Y-4178554D01*
X1086713Y-4178554D01*
X1086713Y-4214876D01*
X1039723Y-4214876D01*
X1039723Y-4236466D01*
X1086713Y-4236466D01*
X1086713Y-4278376D01*
X1036726Y-4278376D01*
X1036726Y-4299966D01*
X1113637Y-4299966D01*
X1113637Y-4157218D01*
G37*
G36*
X1194562Y-4391507D02*
G01*
X1233678Y-4499965D01*
X1260906Y-4499965D01*
X1300022Y-4391507D01*
X1272286Y-4391507D01*
X1252118Y-4456176D01*
X1250492Y-4462373D01*
X1248359Y-4473397D01*
X1247902Y-4478883D01*
X1247190Y-4478883D01*
X1246174Y-4471009D01*
X1242060Y-4454245D01*
X1222298Y-4391507D01*
G37*
G36*
X2171395Y-8715044D02*
G01*
X2171395Y-8739174D01*
X2230323Y-8739174D01*
X2230170Y-8753957D01*
X2229713Y-8757462D01*
X2229002Y-8760561D01*
X2228037Y-8763304D01*
X2226716Y-8765692D01*
X2225141Y-8767724D01*
X2223312Y-8769502D01*
X2221179Y-8770924D01*
X2218740Y-8772042D01*
X2216099Y-8772804D01*
X2213152Y-8773312D01*
X2210003Y-8773464D01*
X2206650Y-8773312D01*
X2203653Y-8772804D01*
X2201011Y-8772042D01*
X2198827Y-8770924D01*
X2196795Y-8769502D01*
X2195118Y-8767673D01*
X2193747Y-8765540D01*
X2191816Y-8760307D01*
X2191207Y-8757208D01*
X2190800Y-8753703D01*
X2190699Y-8739174D01*
X2171395Y-8739174D01*
X2171395Y-8750858D01*
X2172462Y-8765489D01*
X2175713Y-8777274D01*
X2177999Y-8782151D01*
X2180844Y-8786368D01*
X2184247Y-8789873D01*
X2188159Y-8792768D01*
X2192629Y-8795004D01*
X2197608Y-8796578D01*
X2203145Y-8797544D01*
X2209241Y-8797848D01*
X2213762Y-8797645D01*
X2217928Y-8797086D01*
X2221738Y-8796121D01*
X2225243Y-8794800D01*
X2228392Y-8793124D01*
X2231339Y-8791244D01*
X2233980Y-8789111D01*
X2236419Y-8786672D01*
X2240330Y-8781338D01*
X2243531Y-8775496D01*
X2299919Y-8810040D01*
X2299919Y-8782862D01*
X2249373Y-8754922D01*
X2249373Y-8739174D01*
X2299919Y-8739174D01*
X2299919Y-8715044D01*
G37*
G36*
X2251913Y-8818422D02*
G01*
X2236470Y-8819743D01*
X2223719Y-8823756D01*
X2218334Y-8826804D01*
X2213660Y-8830360D01*
X2209698Y-8834424D01*
X2206447Y-8838996D01*
X2203856Y-8844127D01*
X2202027Y-8849614D01*
X2200960Y-8855405D01*
X2200617Y-8861856D01*
X2217369Y-8861856D01*
X2217724Y-8858097D01*
X2218791Y-8854694D01*
X2220620Y-8851595D01*
X2223211Y-8848902D01*
X2226462Y-8846718D01*
X2230424Y-8845042D01*
X2235098Y-8843822D01*
X2240483Y-8843060D01*
X2240483Y-8879890D01*
X2234184Y-8879382D01*
X2228545Y-8877858D01*
X2226005Y-8876690D01*
X2223820Y-8875318D01*
X2221941Y-8873642D01*
X2219045Y-8869730D01*
X2218131Y-8867394D01*
X2217521Y-8864752D01*
X2217369Y-8861856D01*
X2200617Y-8861856D01*
X2200910Y-8867698D01*
X2201926Y-8873337D01*
X2203602Y-8878519D01*
X2205939Y-8883192D01*
X2208885Y-8887510D01*
X2212390Y-8891320D01*
X2216505Y-8894622D01*
X2221179Y-8897416D01*
X2226259Y-8899652D01*
X2231948Y-8901226D01*
X2238197Y-8902192D01*
X2245055Y-8902496D01*
X2256485Y-8902496D01*
X2256485Y-8842806D01*
X2262733Y-8843314D01*
X2268220Y-8844584D01*
X2272995Y-8846616D01*
X2277059Y-8849410D01*
X2280259Y-8852814D01*
X2282545Y-8856827D01*
X2283968Y-8861552D01*
X2284425Y-8866936D01*
X2283917Y-8875166D01*
X2282393Y-8882684D01*
X2280158Y-8889898D01*
X2277059Y-8897416D01*
X2295093Y-8897416D01*
X2298141Y-8890406D01*
X2300173Y-8883192D01*
X2301290Y-8875014D01*
X2301697Y-8865158D01*
X2300376Y-8852204D01*
X2296363Y-8840774D01*
X2293213Y-8835847D01*
X2289352Y-8831427D01*
X2284831Y-8827566D01*
X2279599Y-8824264D01*
X2267102Y-8819896D01*
G37*
G36*
X2202383Y-8906560D02*
G01*
X2202383Y-8931706D01*
X2264257Y-8950756D01*
X2272233Y-8952433D01*
X2280869Y-8953296D01*
X2280869Y-8954058D01*
X2274011Y-8955074D01*
X2268118Y-8956344D01*
X2258771Y-8958884D01*
X2202383Y-8976410D01*
X2202383Y-9001556D01*
X2299919Y-8966504D01*
X2299919Y-8941612D01*
G37*
G36*
X2255469Y-9048546D02*
G01*
X2171141Y-9101886D01*
X2171141Y-9102140D01*
X2197049Y-9102140D01*
X2197049Y-9101378D01*
X2204161Y-9098076D01*
X2209342Y-9095384D01*
X2253945Y-9069882D01*
X2253945Y-9101124D01*
X2221331Y-9101175D01*
X2197049Y-9102140D01*
X2171141Y-9102140D01*
X2171141Y-9124746D01*
X2253945Y-9124746D01*
X2253945Y-9139986D01*
X2272487Y-9139986D01*
X2272487Y-9124746D01*
X2299919Y-9124746D01*
X2299919Y-9101124D01*
X2272487Y-9101124D01*
X2272487Y-9048546D01*
G37*
G36*
X2288489Y-9152686D02*
G01*
X2284933Y-9152940D01*
X2281936Y-9153702D01*
X2279497Y-9154972D01*
X2277567Y-9156750D01*
X2276195Y-9158884D01*
X2275281Y-9161272D01*
X2274671Y-9163862D01*
X2274519Y-9166656D01*
X2274671Y-9169349D01*
X2275281Y-9171838D01*
X2276195Y-9174175D01*
X2277567Y-9176308D01*
X2279497Y-9178086D01*
X2281936Y-9179356D01*
X2284933Y-9180118D01*
X2288489Y-9180372D01*
X2291892Y-9180118D01*
X2294839Y-9179356D01*
X2297226Y-9178086D01*
X2299157Y-9176308D01*
X2300579Y-9174175D01*
X2301595Y-9171838D01*
X2302256Y-9169349D01*
X2302459Y-9166656D01*
X2302256Y-9163862D01*
X2301595Y-9161272D01*
X2300579Y-9158884D01*
X2299157Y-9156750D01*
X2297226Y-9154972D01*
X2294839Y-9153702D01*
X2291892Y-9152940D01*
G37*
G36*
X2202383Y-9201200D02*
G01*
X2171395Y-9238538D01*
X2171395Y-9259112D01*
X2299919Y-9259112D01*
X2299919Y-9235236D01*
X2207615Y-9235287D01*
X2195525Y-9235744D01*
X2203500Y-9227972D01*
X2216353Y-9213392D01*
G37*
D10*
X49999Y-4924988D02*
G01*
X2449995Y-4924988D01*
X2449995Y-4724991D02*
G01*
X2074994Y-4724991D01*
X425000Y-4724991D02*
G01*
X49999Y-4724991D01*
M02*
