G04 Layer: TopSolderMaskLayer*
G04 EasyEDA v6.5.22, 2023-03-08 13:41:41*
G04 390c6d156fdc4d62a17363b05527c9d0,9a5be75d700b4a6385dc1106f27949ae,10*
G04 Gerber Generator version 0.2*
G04 Scale: 100 percent, Rotated: No, Reflected: No *
G04 Dimensions in millimeters *
G04 leading zeros omitted , absolute positions ,4 integer and 5 decimal *
%FSLAX45Y45*%
%MOMM*%

%AMMACRO1*1,1,$1,$2,$3*1,1,$1,$4,$5*1,1,$1,0-$2,0-$3*1,1,$1,0-$4,0-$5*20,1,$1,$2,$3,$4,$5,0*20,1,$1,$4,$5,0-$2,0-$3,0*20,1,$1,0-$2,0-$3,0-$4,0-$5,0*20,1,$1,0-$4,0-$5,$2,$3,0*4,1,4,$2,$3,$4,$5,0-$2,0-$3,0-$4,0-$5,$2,$3,0*%
%ADD10MACRO1,0.1016X-0.705X-0.675X-0.705X0.675*%
%ADD11MACRO1,0.1016X0.705X-0.675X0.705X0.675*%
%ADD12MACRO1,0.1016X-0.432X-0.4X-0.432X0.4*%
%ADD13MACRO1,0.1016X0.8X-1.75X-0.8X-1.75*%
%ADD14C,1.9016*%
%ADD15MACRO1,0.1016X-0.432X0.4032X0.432X0.4032*%
%ADD16MACRO1,0.1016X-0.432X-0.4032X0.432X-0.4032*%
%ADD17MACRO1,0.1016X-0.4032X-0.432X-0.4032X0.432*%
%ADD18MACRO1,0.1016X0.4032X-0.432X0.4032X0.432*%
%ADD19MACRO1,0.1016X-0.4X0.45X0.4X0.45*%
%ADD20MACRO1,0.1016X0.535X-0.3X-0.535X-0.3*%
%ADD21MACRO1,0.1016X0.85X-0.85X-0.85X-0.85*%
%ADD22C,1.8016*%
%ADD23MACRO1,0.1016X-0.85X0.85X0.85X0.85*%
%ADD24MACRO1,0.1016X0.4X-0.4X-0.4X-0.4*%
%ADD25MACRO1,0.1016X0.432X0.4X0.432X-0.4*%
%ADD26MACRO1,0.1016X0.4X-0.45X-0.4X-0.45*%
%ADD27MACRO1,0.1016X0.266X0.5188X-0.266X0.5188*%
%ADD28MACRO1,0.1016X0.4032X0.432X0.4032X-0.432*%
%ADD29MACRO1,0.1016X-0.4032X0.432X-0.4032X-0.432*%
%ADD30MACRO1,0.1016X0.575X0.475X0.575X-0.475*%
%ADD31MACRO1,0.1016X0.266X-0.536X-0.266X-0.536*%
%ADD32MACRO1,0.1016X-0.5X0.3X0.5X0.3*%
%ADD33C,5.1016*%

%LPD*%
D10*
G01*
X3491895Y-9858679D03*
D11*
G01*
X3291890Y-9858679D03*
D12*
G01*
X3677206Y-9978880D03*
G01*
X3677206Y-10118879D03*
D13*
G01*
X3332497Y-11874500D03*
G01*
X3652503Y-11874500D03*
D14*
G01*
X1869897Y-9890582D03*
G01*
X2123897Y-9636582D03*
G01*
X2377897Y-9890582D03*
D15*
G01*
X2631094Y-10631404D03*
D16*
G01*
X2631094Y-10480755D03*
D17*
G01*
X2547926Y-12299571D03*
D18*
G01*
X2397276Y-12299571D03*
D19*
G01*
X3113194Y-12077674D03*
G01*
X2973194Y-12077674D03*
G01*
X3176673Y-9668509D03*
G01*
X3036674Y-9668509D03*
D20*
G01*
X1873603Y-12458176D03*
G01*
X1873603Y-12648168D03*
G01*
X2120602Y-12553172D03*
D21*
G01*
X3138931Y-9066276D03*
D22*
G01*
X2884931Y-9066276D03*
G01*
X2630931Y-9066276D03*
G01*
X2376931Y-9066276D03*
D23*
G01*
X2376893Y-13599271D03*
D22*
G01*
X2630881Y-13599261D03*
G01*
X2884881Y-13599261D03*
G01*
X3138881Y-13599261D03*
D24*
G01*
X2535641Y-13107228D03*
G01*
X2536342Y-13267128D03*
D10*
G01*
X3491895Y-10048880D03*
D11*
G01*
X3291890Y-10048880D03*
D10*
G01*
X3174895Y-9478281D03*
D11*
G01*
X2974891Y-9478281D03*
D19*
G01*
X3176592Y-13250572D03*
G01*
X3036592Y-13250572D03*
D12*
G01*
X3106605Y-11754076D03*
G01*
X3106605Y-11894075D03*
D25*
G01*
X3201680Y-13066974D03*
G01*
X3201680Y-12926974D03*
D17*
G01*
X3498917Y-10239080D03*
D18*
G01*
X3348267Y-10239080D03*
D15*
G01*
X1870301Y-12279798D03*
D16*
G01*
X1870301Y-12129148D03*
D14*
G01*
X2377897Y-11665381D03*
G01*
X2123897Y-11919381D03*
G01*
X1869897Y-11665381D03*
D19*
G01*
X3113194Y-11570477D03*
G01*
X2973194Y-11570477D03*
D26*
G01*
X3099993Y-12743375D03*
G01*
X3239993Y-12743375D03*
G01*
X3099993Y-12426375D03*
G01*
X3239993Y-12426375D03*
G01*
X2244102Y-11190076D03*
G01*
X2384102Y-11190076D03*
G01*
X3099993Y-12584877D03*
G01*
X3239993Y-12584877D03*
D19*
G01*
X2067102Y-10841377D03*
G01*
X1927103Y-10841377D03*
D27*
G01*
X2409094Y-10414252D03*
G01*
X2219095Y-10414252D03*
G01*
X2314094Y-10634503D03*
D15*
G01*
X2631094Y-10314405D03*
D16*
G01*
X2631094Y-10163755D03*
D28*
G01*
X2365569Y-12933573D03*
D29*
G01*
X2516219Y-12933573D03*
D15*
G01*
X2377495Y-13262496D03*
D16*
G01*
X2377495Y-13111847D03*
D17*
G01*
X3498917Y-9668479D03*
D18*
G01*
X3348267Y-9668479D03*
D15*
G01*
X3677193Y-9838904D03*
D16*
G01*
X3677193Y-9688254D03*
D17*
G01*
X2199227Y-12299571D03*
D18*
G01*
X2048577Y-12299571D03*
D17*
G01*
X3118519Y-11348577D03*
D18*
G01*
X2967869Y-11348577D03*
D14*
G01*
X3392093Y-11000282D03*
G01*
X3138093Y-10746282D03*
G01*
X3392093Y-10492282D03*
D30*
G01*
X3708892Y-11581216D03*
G01*
X3708892Y-11242735D03*
D31*
G01*
X3486889Y-11297066D03*
G01*
X3391893Y-11297066D03*
G01*
X3296897Y-11297066D03*
G01*
X3296897Y-11526885D03*
G01*
X3391893Y-11526885D03*
G01*
X3486889Y-11526885D03*
D32*
G01*
X2247493Y-10999772D03*
G01*
X2247493Y-10809780D03*
G01*
X2507513Y-10809780D03*
G01*
X2507513Y-10904776D03*
G01*
X2507513Y-10999772D03*
D33*
G01*
X3683000Y-9080500D03*
G01*
X1841500Y-9080500D03*
G01*
X1838604Y-13662685D03*
G01*
X3677183Y-13662685D03*
M02*
