G04 Layer: TopSolderMaskLayer*
G04 EasyEDA v6.5.47, 2024-11-14 14:17:51*
G04 9a5be75d700b4a6385dc1106f27949ae,10*
G04 Gerber Generator version 0.2*
G04 Scale: 100 percent, Rotated: No, Reflected: No *
G04 Dimensions in millimeters *
G04 leading zeros omitted , absolute positions ,4 integer and 5 decimal *
%FSLAX45Y45*%
%MOMM*%

%AMMACRO1*4,1,8,-0.4211,-0.4508,-0.4508,-0.421,-0.4508,0.4211,-0.4211,0.4508,0.421,0.4508,0.4508,0.4211,0.4508,-0.421,0.421,-0.4508,-0.4211,-0.4508,0*%
%AMMACRO2*4,1,8,-0.4531,-0.454,-0.4828,-0.4243,-0.4828,0.4243,-0.4531,0.454,0.453,0.454,0.4828,0.4243,0.4828,-0.4243,0.453,-0.454,-0.4531,-0.454,0*%
%AMMACRO3*4,1,8,-0.4243,-0.4828,-0.454,-0.453,-0.454,0.4531,-0.4243,0.4828,0.4243,0.4828,0.454,0.4531,0.454,-0.453,0.4243,-0.4828,-0.4243,-0.4828,0*%
%AMMACRO4*4,1,8,-0.7261,-0.7258,-0.7558,-0.696,-0.7558,0.6961,-0.7261,0.7258,0.726,0.7258,0.7558,0.6961,0.7558,-0.696,0.726,-0.7258,-0.7261,-0.7258,0*%
%AMMACRO5*4,1,8,-0.5711,-0.3508,-0.6008,-0.321,-0.6008,0.3211,-0.5711,0.3508,0.571,0.3508,0.6008,0.3211,0.6008,-0.321,0.571,-0.3508,-0.5711,-0.3508,0*%
%AMMACRO6*4,1,8,-0.5561,-0.3508,-0.5858,-0.321,-0.5858,0.3211,-0.5561,0.3508,0.556,0.3508,0.5858,0.3211,0.5858,-0.321,0.556,-0.3508,-0.5561,-0.3508,0*%
%AMMACRO7*4,1,8,-0.4211,-0.5008,-0.4508,-0.471,-0.4508,0.4711,-0.4211,0.5008,0.421,0.5008,0.4508,0.4711,0.4508,-0.471,0.421,-0.5008,-0.4211,-0.5008,0*%
%AMMACRO8*4,1,8,-0.4711,-0.4508,-0.5008,-0.421,-0.5008,0.4211,-0.4711,0.4508,0.471,0.4508,0.5008,0.4211,0.5008,-0.421,0.471,-0.4508,-0.4711,-0.4508,0*%
%AMMACRO9*4,1,8,-0.5211,-0.4258,-0.5508,-0.396,-0.5508,0.3961,-0.5211,0.4258,0.521,0.4258,0.5508,0.3961,0.5508,-0.396,0.521,-0.4258,-0.5211,-0.4258,0*%
%AMMACRO10*4,1,8,-0.3961,-0.5508,-0.4258,-0.521,-0.4258,0.5211,-0.3961,0.5508,0.396,0.5508,0.4258,0.5211,0.4258,-0.521,0.396,-0.5508,-0.3961,-0.5508,0*%
%AMMACRO11*4,1,8,-0.8711,-0.9008,-0.9008,-0.871,-0.9008,0.8711,-0.8711,0.9008,0.871,0.9008,0.9008,0.8711,0.9008,-0.871,0.871,-0.9008,-0.8711,-0.9008,0*%
%AMMACRO12*4,1,8,-0.6211,-1.9008,-0.6508,-1.871,-0.6508,1.8711,-0.6211,1.9008,0.621,1.9008,0.6508,1.8711,0.6508,-1.871,0.621,-1.9008,-0.6211,-1.9008,0*%
%AMMACRO13*4,1,8,-0.4531,-0.4508,-0.4828,-0.421,-0.4828,0.4211,-0.4531,0.4508,0.453,0.4508,0.4828,0.4211,0.4828,-0.421,0.453,-0.4508,-0.4531,-0.4508,0*%
%AMMACRO14*4,1,8,-0.287,-0.5868,-0.3168,-0.557,-0.3168,0.557,-0.287,0.5868,0.287,0.5868,0.3168,0.557,0.3168,-0.557,0.287,-0.5868,-0.287,-0.5868,0*%
%ADD10C,0.9016*%
%ADD11MACRO1*%
%ADD12MACRO2*%
%ADD13MACRO3*%
%ADD14MACRO4*%
%ADD15MACRO5*%
%ADD16MACRO6*%
%ADD17MACRO7*%
%ADD18MACRO8*%
%ADD19MACRO9*%
%ADD20MACRO10*%
%ADD21MACRO11*%
%ADD22C,1.8016*%
%ADD23MACRO12*%
%ADD24MACRO13*%
%ADD25C,1.6256*%
%ADD26MACRO14*%
%ADD27C,5.6016*%

%LPD*%
G36*
X-24993Y-4999990D02*
G01*
X-49987Y-10049967D01*
X125018Y-10049967D01*
X125018Y-4999990D01*
G37*
G36*
X2375001Y-4999990D02*
G01*
X2350008Y-10049967D01*
X2525014Y-10049967D01*
X2525014Y-4999990D01*
G37*
G36*
X-99974Y-9849967D02*
G01*
X-99974Y-10049967D01*
X2550007Y-10049967D01*
X2550007Y-9849967D01*
G37*
G36*
X-99974Y-4999990D02*
G01*
X-99974Y-5150002D01*
X2550007Y-5150002D01*
X2550007Y-4999990D01*
G37*
D10*
X1199997Y-7799984D02*
G01*
X1099997Y-7699984D01*
X1099997Y-7599984D01*
X1599996Y-8599982D02*
G01*
X2424996Y-8599982D01*
X1399997Y-8599982D02*
G01*
X1199997Y-8599982D01*
X1199997Y-8599982D02*
G01*
X1199997Y-7799984D01*
D11*
G01*
X899975Y-8719949D03*
G01*
X899990Y-8879850D03*
D12*
G01*
X1074927Y-6050420D03*
G01*
X1074927Y-5899771D03*
G01*
X849884Y-9275204D03*
G01*
X849884Y-9124555D03*
D13*
G01*
X2150250Y-5925057D03*
G01*
X1999601Y-5925057D03*
D12*
G01*
X2150110Y-6550292D03*
G01*
X2150110Y-6399643D03*
G01*
X1074927Y-6350394D03*
G01*
X1074927Y-6199745D03*
D14*
G01*
X2124890Y-6724903D03*
G01*
X1924885Y-6724903D03*
G01*
X2124890Y-7400036D03*
G01*
X1924885Y-7400036D03*
G01*
X1675056Y-5925057D03*
G01*
X1475051Y-5925057D03*
G01*
X2124890Y-6225031D03*
G01*
X1924885Y-6225031D03*
D12*
G01*
X899922Y-8349601D03*
G01*
X899922Y-8500250D03*
G01*
X849884Y-7074775D03*
G01*
X849884Y-7225424D03*
D13*
G01*
X1425334Y-7625080D03*
G01*
X1274685Y-7625080D03*
G01*
X925208Y-6800088D03*
G01*
X774559Y-6800088D03*
D15*
G01*
X345006Y-6845071D03*
G01*
X345006Y-6655079D03*
G01*
X605029Y-6655079D03*
G01*
X605029Y-6750075D03*
G01*
X605029Y-6845071D03*
D16*
G01*
X523562Y-8895080D03*
G01*
X523562Y-8705088D03*
G01*
X276562Y-8800084D03*
D13*
G01*
X2150322Y-7199985D03*
G01*
X1999672Y-7199985D03*
G01*
X475324Y-8349983D03*
G01*
X324674Y-8349983D03*
G01*
X324674Y-8499983D03*
G01*
X475324Y-8499983D03*
D17*
G01*
X1544998Y-7949984D03*
G01*
X1404998Y-7949984D03*
D18*
G01*
X1449997Y-8779982D03*
G01*
X1449997Y-8919982D03*
D17*
G01*
X1629996Y-8774983D03*
G01*
X1769996Y-8774983D03*
G01*
X1544998Y-8449983D03*
G01*
X1404998Y-8449983D03*
G01*
X1694997Y-5724989D03*
G01*
X1554998Y-5724989D03*
G01*
X545000Y-7049985D03*
G01*
X405000Y-7049985D03*
D18*
G01*
X1274998Y-8779982D03*
G01*
X1274998Y-8919982D03*
D17*
G01*
X545000Y-7249985D03*
G01*
X405000Y-7249985D03*
G01*
X1629996Y-9274982D03*
G01*
X1769996Y-9274982D03*
G01*
X469999Y-9099981D03*
G01*
X329999Y-9099981D03*
G01*
X920000Y-6649986D03*
G01*
X780000Y-6649986D03*
D19*
G01*
X1592253Y-6174988D03*
G01*
X1357748Y-6174988D03*
G01*
X1357743Y-6374988D03*
G01*
X1592248Y-6374988D03*
D20*
G01*
X2124997Y-7867239D03*
G01*
X2124997Y-7632734D03*
D21*
G01*
X1630997Y-5474990D03*
D22*
G01*
X1377010Y-5474995D03*
G01*
X1123010Y-5474995D03*
G01*
X869010Y-5474995D03*
D21*
G01*
X868997Y-9549980D03*
D22*
G01*
X1123010Y-9549993D03*
G01*
X1377010Y-9549993D03*
G01*
X1631010Y-9549993D03*
D23*
G01*
X2124857Y-8199982D03*
G01*
X1825137Y-8199982D03*
D24*
G01*
X1550009Y-8129983D03*
G01*
X1550009Y-8269983D03*
G01*
X1624985Y-9094983D03*
G01*
X1624985Y-8954983D03*
G01*
X2150010Y-6904987D03*
G01*
X2150010Y-7044987D03*
D25*
G01*
X345998Y-6023000D03*
G01*
X599998Y-6277000D03*
G01*
X853998Y-6023000D03*
G01*
X1170990Y-7022998D03*
G01*
X1424990Y-7276998D03*
G01*
X1678990Y-7022998D03*
G01*
X853998Y-7876997D03*
G01*
X599998Y-7622997D03*
G01*
X345998Y-7876997D03*
D26*
G01*
X1919993Y-7635074D03*
G01*
X1824997Y-7635074D03*
G01*
X1730001Y-7635074D03*
G01*
X1730001Y-7864894D03*
G01*
X1824997Y-7864894D03*
G01*
X1919993Y-7864894D03*
D27*
G01*
X324993Y-9674987D03*
G01*
X2175002Y-9674987D03*
G01*
X325018Y-5325008D03*
G01*
X2175002Y-5325008D03*
M02*
