G04 Layer: TopSilkscreenLayer*
G04 EasyEDA v6.5.51, 2025-11-13 19:50:57*
G04 17a338e000994cdea77b77a5ea670920,9a5be75d700b4a6385dc1106f27949ae,10*
G04 Gerber Generator version 0.2*
G04 Scale: 100 percent, Rotated: No, Reflected: No *
G04 Dimensions in millimeters *
G04 leading zeros omitted , absolute positions ,4 integer and 5 decimal *
%FSLAX45Y45*%
%MOMM*%

%ADD10C,0.4000*%
%ADD11C,0.3000*%
%ADD12C,0.1524*%
%ADD13C,0.2540*%
%ADD14C,0.1000*%
%ADD15C,0.0166*%
%ADD16C,0.1500*%
%ADD17C,0.1520*%

%LPD*%
G36*
X729183Y-9685477D02*
G01*
X729183Y-9710877D01*
X828243Y-9710877D01*
X866343Y-9781540D01*
X866851Y-9781540D01*
X866089Y-9763201D01*
X866089Y-9710877D01*
X958545Y-9710877D01*
X958545Y-9724593D01*
X934923Y-9724593D01*
X934923Y-9756140D01*
X998423Y-9756140D01*
X998728Y-9749231D01*
X999693Y-9742830D01*
X1001268Y-9736937D01*
X1003503Y-9731451D01*
X1006449Y-9726574D01*
X1009903Y-9722205D01*
X1013917Y-9718446D01*
X1018489Y-9715246D01*
X1023721Y-9712756D01*
X1029512Y-9711029D01*
X1035913Y-9709962D01*
X1042873Y-9709607D01*
X1049934Y-9710013D01*
X1055362Y-9710877D01*
X1110691Y-9710877D01*
X1148791Y-9781540D01*
X1149299Y-9781540D01*
X1148334Y-9760000D01*
X1148283Y-9710877D01*
X1212545Y-9710877D01*
X1218895Y-9711232D01*
X1224838Y-9712198D01*
X1230325Y-9713772D01*
X1235405Y-9715957D01*
X1239926Y-9718802D01*
X1243888Y-9722256D01*
X1247292Y-9726320D01*
X1250137Y-9730943D01*
X1252321Y-9736124D01*
X1253947Y-9741865D01*
X1254861Y-9748316D01*
X1255217Y-9755327D01*
X1254861Y-9762642D01*
X1253896Y-9769297D01*
X1252220Y-9775342D01*
X1249883Y-9780727D01*
X1246886Y-9785604D01*
X1243330Y-9789820D01*
X1239164Y-9793376D01*
X1234389Y-9796272D01*
X1230833Y-9797796D01*
X1298651Y-9797796D01*
X1298651Y-9782556D01*
X1304645Y-9784943D01*
X1314348Y-9788093D01*
X1320850Y-9789261D01*
X1326337Y-9789312D01*
X1330299Y-9788550D01*
X1331925Y-9787890D01*
X1334566Y-9786112D01*
X1336497Y-9783775D01*
X1337614Y-9780879D01*
X1338021Y-9777730D01*
X1337919Y-9775850D01*
X1337005Y-9772548D01*
X1336243Y-9771075D01*
X1333754Y-9768636D01*
X1330401Y-9766249D01*
X1325981Y-9763963D01*
X1320495Y-9761677D01*
X1315110Y-9758984D01*
X1310081Y-9755835D01*
X1307795Y-9754057D01*
X1305763Y-9752025D01*
X1303985Y-9749739D01*
X1302461Y-9747199D01*
X1301242Y-9744506D01*
X1300378Y-9741458D01*
X1299819Y-9738055D01*
X1299667Y-9734296D01*
X1299870Y-9730587D01*
X1300530Y-9727184D01*
X1301648Y-9723983D01*
X1303223Y-9721088D01*
X1305306Y-9718446D01*
X1307744Y-9716160D01*
X1310487Y-9714230D01*
X1317040Y-9711334D01*
X1320749Y-9710369D01*
X1324660Y-9709810D01*
X1328877Y-9709607D01*
X1335887Y-9710013D01*
X1340989Y-9710877D01*
X1401521Y-9710877D01*
X1401521Y-9720072D01*
X1391361Y-9724390D01*
X1391361Y-9756140D01*
X1412697Y-9756140D01*
X1413002Y-9749231D01*
X1413967Y-9742830D01*
X1415542Y-9736937D01*
X1417777Y-9731451D01*
X1420723Y-9726574D01*
X1424228Y-9722205D01*
X1428343Y-9718446D01*
X1433017Y-9715246D01*
X1438249Y-9712756D01*
X1443990Y-9711029D01*
X1450289Y-9709962D01*
X1457147Y-9709607D01*
X1464310Y-9710013D01*
X1469680Y-9710877D01*
X1542237Y-9710877D01*
X1559255Y-9770668D01*
X1561896Y-9781590D01*
X1562557Y-9786366D01*
X1563827Y-9779711D01*
X1567129Y-9766249D01*
X1582877Y-9710877D01*
X1601419Y-9710877D01*
X1586720Y-9756140D01*
X1606753Y-9756140D01*
X1606905Y-9751161D01*
X1607464Y-9746386D01*
X1608328Y-9741865D01*
X1609547Y-9737598D01*
X1611071Y-9733432D01*
X1612900Y-9729571D01*
X1615033Y-9726066D01*
X1617421Y-9722866D01*
X1620113Y-9719868D01*
X1623161Y-9717227D01*
X1626616Y-9715042D01*
X1634185Y-9711639D01*
X1638350Y-9710521D01*
X1642821Y-9709861D01*
X1647647Y-9709607D01*
X1654048Y-9710013D01*
X1660601Y-9711182D01*
X1667002Y-9713010D01*
X1672539Y-9715449D01*
X1666697Y-9728911D01*
X1659940Y-9726015D01*
X1655216Y-9724339D01*
X1652778Y-9723780D01*
X1647647Y-9723374D01*
X1645005Y-9723475D01*
X1642465Y-9723932D01*
X1640078Y-9724644D01*
X1637741Y-9725609D01*
X1635658Y-9726930D01*
X1633778Y-9728454D01*
X1632102Y-9730232D01*
X1629206Y-9734499D01*
X1627936Y-9736988D01*
X1626057Y-9742627D01*
X1624888Y-9749129D01*
X1624538Y-9756140D01*
X1680667Y-9756140D01*
X1680819Y-9751161D01*
X1681276Y-9746386D01*
X1682089Y-9741865D01*
X1683207Y-9737598D01*
X1684731Y-9733432D01*
X1686560Y-9729571D01*
X1688693Y-9726066D01*
X1691081Y-9722866D01*
X1693875Y-9719868D01*
X1696974Y-9717227D01*
X1700377Y-9715042D01*
X1704035Y-9713214D01*
X1707946Y-9711639D01*
X1712163Y-9710521D01*
X1716582Y-9709861D01*
X1721307Y-9709607D01*
X1727758Y-9710013D01*
X1734515Y-9711182D01*
X1740763Y-9713010D01*
X1746453Y-9715449D01*
X1740611Y-9728911D01*
X1733854Y-9726015D01*
X1729028Y-9724339D01*
X1723948Y-9723475D01*
X1718665Y-9723475D01*
X1716227Y-9723932D01*
X1713839Y-9724644D01*
X1711655Y-9725609D01*
X1707642Y-9728454D01*
X1705864Y-9730232D01*
X1702866Y-9734499D01*
X1701647Y-9736988D01*
X1700682Y-9739731D01*
X1699310Y-9745776D01*
X1698802Y-9749129D01*
X1698447Y-9756343D01*
X1698599Y-9761270D01*
X1699056Y-9765842D01*
X1699869Y-9770059D01*
X1700987Y-9773869D01*
X1702307Y-9777374D01*
X1704035Y-9780371D01*
X1706118Y-9782962D01*
X1708607Y-9785096D01*
X1711401Y-9786874D01*
X1714550Y-9788144D01*
X1718005Y-9788906D01*
X1724456Y-9789058D01*
X1729638Y-9788398D01*
X1734870Y-9787280D01*
X1742897Y-9784588D01*
X1742897Y-9798507D01*
X1737563Y-9800488D01*
X1732229Y-9801809D01*
X1726285Y-9802622D01*
X1719783Y-9802825D01*
X1713433Y-9802469D01*
X1707642Y-9801402D01*
X1702409Y-9799574D01*
X1697685Y-9796983D01*
X1693621Y-9793782D01*
X1690116Y-9790023D01*
X1687169Y-9785654D01*
X1684731Y-9780727D01*
X1682953Y-9775291D01*
X1681683Y-9769398D01*
X1680921Y-9762998D01*
X1680667Y-9756140D01*
X1624538Y-9756140D01*
X1624685Y-9761270D01*
X1625142Y-9765842D01*
X1625955Y-9770059D01*
X1627073Y-9773869D01*
X1628495Y-9777374D01*
X1630324Y-9780371D01*
X1632457Y-9782962D01*
X1634947Y-9785096D01*
X1637639Y-9786874D01*
X1640687Y-9788144D01*
X1644142Y-9788906D01*
X1650542Y-9789058D01*
X1655876Y-9788398D01*
X1661210Y-9787280D01*
X1669237Y-9784588D01*
X1669237Y-9798507D01*
X1663852Y-9800488D01*
X1658315Y-9801809D01*
X1652524Y-9802622D01*
X1645869Y-9802825D01*
X1639519Y-9802469D01*
X1633778Y-9801402D01*
X1628597Y-9799574D01*
X1624025Y-9796983D01*
X1619859Y-9793782D01*
X1616354Y-9790023D01*
X1613408Y-9785654D01*
X1611071Y-9780727D01*
X1609191Y-9775291D01*
X1607820Y-9769398D01*
X1607007Y-9762998D01*
X1606753Y-9756140D01*
X1586720Y-9756140D01*
X1571955Y-9801606D01*
X1553159Y-9801606D01*
X1523949Y-9710877D01*
X1469680Y-9710877D01*
X1474419Y-9711944D01*
X1483309Y-9714941D01*
X1477467Y-9728403D01*
X1472946Y-9726523D01*
X1468069Y-9724898D01*
X1462684Y-9723729D01*
X1457147Y-9723374D01*
X1452880Y-9723577D01*
X1449019Y-9724339D01*
X1445514Y-9725609D01*
X1442415Y-9727438D01*
X1439672Y-9729673D01*
X1437284Y-9732314D01*
X1435201Y-9735362D01*
X1433525Y-9738817D01*
X1432153Y-9742678D01*
X1431239Y-9746894D01*
X1430680Y-9751466D01*
X1430477Y-9756343D01*
X1430629Y-9761067D01*
X1431086Y-9765436D01*
X1431899Y-9769551D01*
X1433017Y-9773361D01*
X1434490Y-9776866D01*
X1436319Y-9779965D01*
X1438503Y-9782708D01*
X1441145Y-9785096D01*
X1444091Y-9786874D01*
X1447444Y-9788144D01*
X1451102Y-9788906D01*
X1456334Y-9789109D01*
X1461058Y-9788753D01*
X1467815Y-9787382D01*
X1467815Y-9765538D01*
X1451051Y-9765538D01*
X1451051Y-9751822D01*
X1484325Y-9751822D01*
X1484325Y-9797999D01*
X1477314Y-9800082D01*
X1470101Y-9801606D01*
X1462024Y-9802520D01*
X1453083Y-9802825D01*
X1446936Y-9802520D01*
X1441348Y-9801453D01*
X1436166Y-9799726D01*
X1431493Y-9797288D01*
X1427175Y-9794290D01*
X1423416Y-9790633D01*
X1420215Y-9786416D01*
X1417523Y-9781540D01*
X1415389Y-9776002D01*
X1413865Y-9769957D01*
X1413002Y-9763302D01*
X1412697Y-9756140D01*
X1391361Y-9756140D01*
X1391361Y-9788093D01*
X1401521Y-9792411D01*
X1401521Y-9801606D01*
X1363929Y-9801606D01*
X1363929Y-9792411D01*
X1374343Y-9788093D01*
X1374343Y-9724390D01*
X1363929Y-9720072D01*
X1363929Y-9710877D01*
X1340989Y-9710877D01*
X1345438Y-9711994D01*
X1351280Y-9714179D01*
X1354023Y-9715449D01*
X1348689Y-9728403D01*
X1343609Y-9726371D01*
X1338529Y-9724898D01*
X1333449Y-9723729D01*
X1328369Y-9723374D01*
X1324813Y-9723678D01*
X1321765Y-9724593D01*
X1319530Y-9726218D01*
X1317955Y-9728403D01*
X1316786Y-9730943D01*
X1316431Y-9733991D01*
X1316837Y-9737293D01*
X1317396Y-9738766D01*
X1319225Y-9741458D01*
X1322019Y-9743897D01*
X1330807Y-9748774D01*
X1340053Y-9753244D01*
X1342847Y-9754870D01*
X1347622Y-9758375D01*
X1349552Y-9760305D01*
X1351178Y-9762439D01*
X1352499Y-9764725D01*
X1353616Y-9767316D01*
X1354378Y-9770211D01*
X1354886Y-9773412D01*
X1355039Y-9776917D01*
X1354785Y-9780778D01*
X1354124Y-9784334D01*
X1353007Y-9787636D01*
X1351483Y-9790633D01*
X1349400Y-9793427D01*
X1346911Y-9795865D01*
X1344015Y-9797999D01*
X1340815Y-9799777D01*
X1337056Y-9801148D01*
X1332839Y-9802114D01*
X1328267Y-9802672D01*
X1320800Y-9802825D01*
X1316075Y-9802571D01*
X1311757Y-9802063D01*
X1307846Y-9801148D01*
X1298651Y-9797796D01*
X1230833Y-9797796D01*
X1229055Y-9798558D01*
X1223213Y-9800234D01*
X1216863Y-9801250D01*
X1210005Y-9801606D01*
X1185113Y-9801606D01*
X1185113Y-9710877D01*
X1163777Y-9710877D01*
X1163777Y-9801606D01*
X1142441Y-9801606D01*
X1104087Y-9730435D01*
X1103579Y-9730435D01*
X1104188Y-9744303D01*
X1104595Y-9749282D01*
X1104595Y-9801606D01*
X1089355Y-9801606D01*
X1089355Y-9710877D01*
X1055362Y-9710877D01*
X1060043Y-9711944D01*
X1068781Y-9714941D01*
X1063193Y-9728403D01*
X1058621Y-9726523D01*
X1053541Y-9724898D01*
X1048156Y-9723729D01*
X1042619Y-9723374D01*
X1038453Y-9723577D01*
X1034643Y-9724339D01*
X1031240Y-9725609D01*
X1028141Y-9727438D01*
X1025296Y-9729673D01*
X1022807Y-9732314D01*
X1020673Y-9735362D01*
X1018997Y-9738817D01*
X1017625Y-9742678D01*
X1016711Y-9746894D01*
X1016101Y-9751466D01*
X1015949Y-9756343D01*
X1016101Y-9761067D01*
X1016558Y-9765436D01*
X1017371Y-9769551D01*
X1018489Y-9773361D01*
X1020013Y-9776866D01*
X1021892Y-9779965D01*
X1024077Y-9782708D01*
X1026617Y-9785096D01*
X1029614Y-9786874D01*
X1032967Y-9788144D01*
X1036675Y-9788906D01*
X1042060Y-9789109D01*
X1046784Y-9788753D01*
X1053541Y-9787382D01*
X1053541Y-9765538D01*
X1036777Y-9765538D01*
X1036777Y-9751822D01*
X1069797Y-9751822D01*
X1069797Y-9797999D01*
X1062939Y-9800082D01*
X1055573Y-9801606D01*
X1047546Y-9802520D01*
X1038809Y-9802825D01*
X1032662Y-9802520D01*
X1026972Y-9801453D01*
X1021740Y-9799726D01*
X1016965Y-9797288D01*
X1012647Y-9794290D01*
X1008887Y-9790633D01*
X1005687Y-9786416D01*
X1002995Y-9781540D01*
X1000963Y-9776002D01*
X999540Y-9769957D01*
X998677Y-9763302D01*
X998423Y-9756140D01*
X934923Y-9756140D01*
X934923Y-9801606D01*
X917905Y-9801606D01*
X917905Y-9724593D01*
X894029Y-9724593D01*
X894029Y-9710877D01*
X881329Y-9710877D01*
X881329Y-9801606D01*
X859993Y-9801606D01*
X821639Y-9730435D01*
X821131Y-9730435D01*
X821994Y-9750907D01*
X822147Y-9801606D01*
X806907Y-9801606D01*
X806907Y-9710877D01*
X791921Y-9710877D01*
X791921Y-9720072D01*
X781761Y-9724390D01*
X781761Y-9788093D01*
X791921Y-9792411D01*
X791921Y-9801606D01*
X754329Y-9801606D01*
X754329Y-9792411D01*
X764743Y-9788093D01*
X764743Y-9724390D01*
X754329Y-9720072D01*
X754329Y-9710877D01*
X729183Y-9710877D01*
X729183Y-9827006D01*
X1771345Y-9827006D01*
X1771345Y-9685477D01*
G37*
G36*
X1202131Y-9724390D02*
G01*
X1202131Y-9787890D01*
X1210513Y-9787890D01*
X1216914Y-9787382D01*
X1222451Y-9785908D01*
X1227074Y-9783419D01*
X1230833Y-9780016D01*
X1233830Y-9775444D01*
X1235964Y-9769906D01*
X1237234Y-9763353D01*
X1237691Y-9755835D01*
X1237488Y-9750653D01*
X1236929Y-9745929D01*
X1235964Y-9741763D01*
X1234643Y-9738106D01*
X1233068Y-9734854D01*
X1231138Y-9732060D01*
X1228852Y-9729673D01*
X1226261Y-9727641D01*
X1223264Y-9726218D01*
X1219962Y-9725202D01*
X1216304Y-9724593D01*
X1212291Y-9724390D01*
G37*
G36*
X731723Y-5165648D02*
G01*
X731723Y-5255818D01*
X762711Y-5255818D01*
X762711Y-5195874D01*
X771652Y-5193131D01*
X781253Y-5191048D01*
X791514Y-5189728D01*
X797153Y-5189372D01*
X803097Y-5189270D01*
X811022Y-5189728D01*
X818388Y-5191048D01*
X919175Y-5191048D01*
X919175Y-5202986D01*
X905459Y-5208320D01*
X905459Y-5223306D01*
X930605Y-5223306D01*
X930910Y-5218277D01*
X931773Y-5213604D01*
X933297Y-5209235D01*
X935431Y-5205272D01*
X937971Y-5201666D01*
X941120Y-5198567D01*
X944829Y-5195824D01*
X949147Y-5193588D01*
X953973Y-5191709D01*
X959408Y-5190337D01*
X965403Y-5189524D01*
X975106Y-5189321D01*
X981100Y-5189677D01*
X986688Y-5190439D01*
X991869Y-5191607D01*
X996848Y-5193131D01*
X1001521Y-5195011D01*
X1003757Y-5196128D01*
X1003757Y-5215940D01*
X996035Y-5212791D01*
X987755Y-5209844D01*
X983437Y-5208625D01*
X979169Y-5207762D01*
X974902Y-5207203D01*
X970737Y-5207050D01*
X964996Y-5207558D01*
X962609Y-5208219D01*
X958646Y-5210048D01*
X955751Y-5212588D01*
X953820Y-5215991D01*
X952804Y-5219903D01*
X952855Y-5224475D01*
X953312Y-5226659D01*
X954125Y-5228640D01*
X956564Y-5232146D01*
X958189Y-5233873D01*
X962609Y-5237022D01*
X968197Y-5239969D01*
X982522Y-5246471D01*
X990002Y-5251246D01*
X1060145Y-5251246D01*
X1060551Y-5241747D01*
X1061923Y-5233009D01*
X1064107Y-5225084D01*
X1067257Y-5217972D01*
X1071168Y-5211673D01*
X1075893Y-5206238D01*
X1081328Y-5201615D01*
X1087577Y-5197906D01*
X1094486Y-5194909D01*
X1102055Y-5192776D01*
X1110234Y-5191455D01*
X1119073Y-5191048D01*
X1207211Y-5191048D01*
X1256741Y-5283504D01*
X1257503Y-5283504D01*
X1256284Y-5254802D01*
X1256233Y-5191048D01*
X1276045Y-5191048D01*
X1276045Y-5255818D01*
X1301445Y-5255818D01*
X1301445Y-5195874D01*
X1310335Y-5193131D01*
X1319733Y-5191048D01*
X1330198Y-5189728D01*
X1335836Y-5189372D01*
X1341831Y-5189270D01*
X1349756Y-5189728D01*
X1357122Y-5191048D01*
X1363878Y-5193284D01*
X1370025Y-5196382D01*
X1375613Y-5200345D01*
X1380490Y-5205171D01*
X1384604Y-5210759D01*
X1388059Y-5217210D01*
X1390802Y-5224322D01*
X1392783Y-5232196D01*
X1394002Y-5240832D01*
X1394409Y-5250230D01*
X1393952Y-5259171D01*
X1392682Y-5267502D01*
X1390548Y-5275173D01*
X1387551Y-5282234D01*
X1383842Y-5288584D01*
X1379321Y-5294172D01*
X1374038Y-5298998D01*
X1368371Y-5302808D01*
X1448257Y-5302808D01*
X1455877Y-5285536D01*
X1461617Y-5288229D01*
X1467815Y-5290616D01*
X1470914Y-5291531D01*
X1477518Y-5292547D01*
X1481023Y-5292648D01*
X1484376Y-5292496D01*
X1487525Y-5291937D01*
X1490573Y-5291074D01*
X1493469Y-5289854D01*
X1496110Y-5288178D01*
X1498600Y-5286197D01*
X1500835Y-5283860D01*
X1502867Y-5281218D01*
X1504746Y-5278272D01*
X1506321Y-5275072D01*
X1507642Y-5271566D01*
X1508709Y-5267756D01*
X1510233Y-5259171D01*
X1510741Y-5249722D01*
X1510538Y-5243322D01*
X1509877Y-5237429D01*
X1508861Y-5231892D01*
X1507439Y-5226862D01*
X1505559Y-5222443D01*
X1503273Y-5218531D01*
X1500632Y-5215178D01*
X1497533Y-5212384D01*
X1493875Y-5210149D01*
X1489811Y-5208574D01*
X1485392Y-5207609D01*
X1480515Y-5207304D01*
X1473454Y-5207711D01*
X1466545Y-5208828D01*
X1459687Y-5210606D01*
X1452829Y-5212892D01*
X1452829Y-5195112D01*
X1456232Y-5193690D01*
X1463243Y-5191556D01*
X1470456Y-5190134D01*
X1478432Y-5189372D01*
X1482801Y-5189270D01*
X1491132Y-5189728D01*
X1498701Y-5191201D01*
X1505508Y-5193538D01*
X1511503Y-5196890D01*
X1516837Y-5201056D01*
X1521409Y-5205984D01*
X1525219Y-5211622D01*
X1528267Y-5217972D01*
X1530705Y-5225135D01*
X1532432Y-5232857D01*
X1533499Y-5241137D01*
X1533855Y-5249976D01*
X1533601Y-5256530D01*
X1532940Y-5262829D01*
X1531823Y-5268722D01*
X1530299Y-5274360D01*
X1528318Y-5279745D01*
X1525981Y-5284774D01*
X1523238Y-5289397D01*
X1520139Y-5293664D01*
X1516481Y-5297474D01*
X1512519Y-5300827D01*
X1509495Y-5302808D01*
X1544269Y-5302808D01*
X1551635Y-5285536D01*
X1557578Y-5288229D01*
X1563827Y-5290616D01*
X1566926Y-5291531D01*
X1573377Y-5292547D01*
X1580235Y-5292496D01*
X1583486Y-5291937D01*
X1586585Y-5291074D01*
X1589481Y-5289854D01*
X1592122Y-5288178D01*
X1594612Y-5286197D01*
X1596847Y-5283860D01*
X1598879Y-5281218D01*
X1600657Y-5278272D01*
X1602232Y-5275072D01*
X1604721Y-5267756D01*
X1606245Y-5259171D01*
X1606753Y-5249722D01*
X1606550Y-5243322D01*
X1605889Y-5237429D01*
X1604873Y-5231892D01*
X1603451Y-5226862D01*
X1601571Y-5222443D01*
X1599234Y-5218531D01*
X1596491Y-5215178D01*
X1593291Y-5212384D01*
X1589735Y-5210149D01*
X1585722Y-5208574D01*
X1581200Y-5207609D01*
X1576273Y-5207304D01*
X1569262Y-5207711D01*
X1562557Y-5208828D01*
X1555699Y-5210606D01*
X1548841Y-5212892D01*
X1548841Y-5195112D01*
X1552194Y-5193690D01*
X1559153Y-5191556D01*
X1566468Y-5190134D01*
X1574444Y-5189372D01*
X1578813Y-5189270D01*
X1587042Y-5189728D01*
X1594612Y-5191201D01*
X1601419Y-5193538D01*
X1607515Y-5196890D01*
X1612747Y-5201056D01*
X1617268Y-5205984D01*
X1621129Y-5211622D01*
X1624279Y-5217972D01*
X1626616Y-5225135D01*
X1628241Y-5232857D01*
X1629257Y-5241137D01*
X1629613Y-5249976D01*
X1629410Y-5256530D01*
X1628749Y-5262829D01*
X1627733Y-5268722D01*
X1626311Y-5274360D01*
X1624330Y-5279745D01*
X1621891Y-5284774D01*
X1619097Y-5289397D01*
X1615897Y-5293664D01*
X1612392Y-5297474D01*
X1608429Y-5300827D01*
X1604111Y-5303723D01*
X1599387Y-5306110D01*
X1594256Y-5308092D01*
X1591229Y-5308904D01*
X1636979Y-5308904D01*
X1674825Y-5191048D01*
X1699463Y-5191048D01*
X1737309Y-5308904D01*
X1713687Y-5308904D01*
X1691690Y-5231333D01*
X1689303Y-5221935D01*
X1687017Y-5210860D01*
X1685493Y-5219496D01*
X1681175Y-5236768D01*
X1660601Y-5308904D01*
X1591229Y-5308904D01*
X1588770Y-5309565D01*
X1582928Y-5310378D01*
X1576781Y-5310682D01*
X1568297Y-5310124D01*
X1564030Y-5309412D01*
X1555445Y-5307279D01*
X1551432Y-5306009D01*
X1547672Y-5304485D01*
X1544269Y-5302808D01*
X1509495Y-5302808D01*
X1508099Y-5303723D01*
X1503375Y-5306110D01*
X1498244Y-5308092D01*
X1492758Y-5309565D01*
X1486916Y-5310378D01*
X1480769Y-5310682D01*
X1472285Y-5310124D01*
X1468018Y-5309412D01*
X1459433Y-5307279D01*
X1455420Y-5306009D01*
X1451660Y-5304485D01*
X1448257Y-5302808D01*
X1368371Y-5302808D01*
X1361135Y-5306415D01*
X1353616Y-5308803D01*
X1345387Y-5310225D01*
X1336497Y-5310682D01*
X1331823Y-5310581D01*
X1322832Y-5309565D01*
X1314145Y-5307685D01*
X1310081Y-5306517D01*
X1306271Y-5305145D01*
X1302715Y-5303570D01*
X1310081Y-5286044D01*
X1315974Y-5288635D01*
X1322527Y-5290870D01*
X1329486Y-5292191D01*
X1333093Y-5292547D01*
X1336751Y-5292648D01*
X1342136Y-5292344D01*
X1347063Y-5291378D01*
X1351635Y-5289804D01*
X1355801Y-5287568D01*
X1359357Y-5284622D01*
X1362506Y-5281168D01*
X1365199Y-5277154D01*
X1367485Y-5272582D01*
X1369263Y-5267553D01*
X1370533Y-5262067D01*
X1371295Y-5256123D01*
X1371549Y-5249722D01*
X1371295Y-5243677D01*
X1370634Y-5237988D01*
X1369517Y-5232603D01*
X1367993Y-5227624D01*
X1366062Y-5223052D01*
X1363726Y-5219039D01*
X1360881Y-5215585D01*
X1357579Y-5212638D01*
X1353667Y-5210302D01*
X1349298Y-5208625D01*
X1344523Y-5207660D01*
X1337513Y-5207304D01*
X1331264Y-5207711D01*
X1322781Y-5209336D01*
X1322781Y-5237784D01*
X1344625Y-5237784D01*
X1344625Y-5255818D01*
X1276045Y-5255818D01*
X1276045Y-5308904D01*
X1248359Y-5308904D01*
X1198829Y-5217210D01*
X1198067Y-5217210D01*
X1199184Y-5242966D01*
X1199337Y-5308904D01*
X1179271Y-5308904D01*
X1179271Y-5191048D01*
X1151585Y-5191048D01*
X1151585Y-5308904D01*
X1116025Y-5308904D01*
X1107643Y-5308498D01*
X1099870Y-5307279D01*
X1092657Y-5305196D01*
X1086053Y-5302300D01*
X1080160Y-5298643D01*
X1075029Y-5294172D01*
X1070660Y-5288991D01*
X1067003Y-5282996D01*
X1064006Y-5276138D01*
X1061821Y-5268569D01*
X1060551Y-5260289D01*
X1060145Y-5251246D01*
X990002Y-5251246D01*
X992022Y-5252821D01*
X994664Y-5255463D01*
X996950Y-5258409D01*
X998931Y-5261660D01*
X1000556Y-5265166D01*
X1001776Y-5269179D01*
X1002487Y-5273548D01*
X1002741Y-5278424D01*
X1002436Y-5283301D01*
X1001521Y-5287822D01*
X999998Y-5291937D01*
X997915Y-5295696D01*
X995222Y-5299151D01*
X992124Y-5302199D01*
X988517Y-5304739D01*
X984453Y-5306872D01*
X979932Y-5308549D01*
X975106Y-5309717D01*
X969924Y-5310428D01*
X964387Y-5310682D01*
X959764Y-5310581D01*
X950976Y-5309565D01*
X942949Y-5307533D01*
X939139Y-5306263D01*
X931875Y-5303062D01*
X938733Y-5286044D01*
X945489Y-5288788D01*
X952195Y-5290870D01*
X958697Y-5292191D01*
X965149Y-5292648D01*
X969822Y-5292293D01*
X973785Y-5291124D01*
X976680Y-5288991D01*
X978865Y-5286044D01*
X980186Y-5282742D01*
X980643Y-5278932D01*
X980490Y-5276596D01*
X980033Y-5274513D01*
X979322Y-5272532D01*
X978357Y-5270804D01*
X977137Y-5269179D01*
X975563Y-5267655D01*
X973582Y-5266131D01*
X968502Y-5263134D01*
X962050Y-5259730D01*
X954024Y-5255920D01*
X946505Y-5251704D01*
X940308Y-5247182D01*
X937768Y-5244642D01*
X935634Y-5241848D01*
X933907Y-5238800D01*
X932434Y-5235448D01*
X931418Y-5231739D01*
X930808Y-5227726D01*
X930605Y-5223306D01*
X905459Y-5223306D01*
X905459Y-5291378D01*
X919175Y-5296966D01*
X919175Y-5308904D01*
X870153Y-5308904D01*
X870153Y-5296966D01*
X883361Y-5291378D01*
X883361Y-5208320D01*
X870153Y-5202986D01*
X870153Y-5191048D01*
X818388Y-5191048D01*
X825144Y-5193284D01*
X831291Y-5196382D01*
X836879Y-5200345D01*
X841756Y-5205171D01*
X845870Y-5210759D01*
X849325Y-5217210D01*
X852068Y-5224322D01*
X854049Y-5232196D01*
X855268Y-5240832D01*
X855675Y-5250230D01*
X855218Y-5259171D01*
X853948Y-5267502D01*
X851814Y-5275173D01*
X848817Y-5282234D01*
X845108Y-5288584D01*
X840587Y-5294172D01*
X835304Y-5298998D01*
X829259Y-5303062D01*
X822401Y-5306415D01*
X814882Y-5308803D01*
X806653Y-5310225D01*
X797763Y-5310682D01*
X793089Y-5310581D01*
X784098Y-5309565D01*
X775512Y-5307685D01*
X771448Y-5306517D01*
X763981Y-5303570D01*
X771347Y-5286044D01*
X777240Y-5288635D01*
X783793Y-5290870D01*
X790752Y-5292191D01*
X794359Y-5292547D01*
X798017Y-5292648D01*
X803402Y-5292344D01*
X808329Y-5291378D01*
X812901Y-5289804D01*
X817067Y-5287568D01*
X820623Y-5284622D01*
X823772Y-5281168D01*
X826465Y-5277154D01*
X828751Y-5272582D01*
X830529Y-5267553D01*
X831799Y-5262067D01*
X832561Y-5256123D01*
X832815Y-5249722D01*
X832561Y-5243677D01*
X831900Y-5237988D01*
X830783Y-5232603D01*
X829259Y-5227624D01*
X827328Y-5223052D01*
X824992Y-5219039D01*
X822147Y-5215585D01*
X818845Y-5212638D01*
X814933Y-5210302D01*
X810564Y-5208625D01*
X805789Y-5207660D01*
X798830Y-5207304D01*
X792683Y-5207711D01*
X784047Y-5209336D01*
X784047Y-5237784D01*
X805891Y-5237784D01*
X805891Y-5255818D01*
X731723Y-5255818D01*
X731723Y-5334355D01*
X1768297Y-5334355D01*
X1768297Y-5165648D01*
G37*
G36*
X1118565Y-5208828D02*
G01*
X1110234Y-5209489D01*
X1102969Y-5211419D01*
X1096873Y-5214670D01*
X1091895Y-5219242D01*
X1088085Y-5225084D01*
X1085392Y-5232247D01*
X1083767Y-5240731D01*
X1083259Y-5250484D01*
X1083462Y-5257190D01*
X1084173Y-5263235D01*
X1085392Y-5268722D01*
X1087069Y-5273598D01*
X1089202Y-5277866D01*
X1091742Y-5281523D01*
X1094790Y-5284622D01*
X1098245Y-5287060D01*
X1102004Y-5288940D01*
X1106271Y-5290312D01*
X1111046Y-5291124D01*
X1116279Y-5291378D01*
X1129487Y-5291378D01*
X1129487Y-5208828D01*
G37*
G36*
X232613Y-7379258D02*
G01*
X232613Y-7404658D01*
X344119Y-7404658D01*
X344119Y-7441234D01*
X379171Y-7441234D01*
X379171Y-7404658D01*
X544474Y-7404658D01*
X544474Y-7418120D01*
X512521Y-7418120D01*
X512521Y-7441234D01*
X542442Y-7441234D01*
X542442Y-7454950D01*
X512521Y-7454950D01*
X512521Y-7481620D01*
X544474Y-7481620D01*
X544474Y-7491526D01*
X556666Y-7491526D01*
X556666Y-7476286D01*
X562610Y-7478674D01*
X569163Y-7480858D01*
X575665Y-7482535D01*
X578916Y-7482992D01*
X584403Y-7483043D01*
X588314Y-7482281D01*
X591413Y-7480808D01*
X593699Y-7478775D01*
X594563Y-7477556D01*
X595680Y-7474610D01*
X596087Y-7471460D01*
X595934Y-7469581D01*
X594918Y-7466279D01*
X592988Y-7463586D01*
X590194Y-7461199D01*
X586384Y-7458862D01*
X575716Y-7454138D01*
X570484Y-7451191D01*
X565708Y-7447838D01*
X563626Y-7445806D01*
X561797Y-7443520D01*
X560222Y-7440980D01*
X559155Y-7438237D01*
X558342Y-7435189D01*
X557885Y-7431786D01*
X557682Y-7428026D01*
X557936Y-7424318D01*
X558596Y-7420914D01*
X559714Y-7417714D01*
X561289Y-7414818D01*
X563219Y-7412177D01*
X565556Y-7409891D01*
X568299Y-7408011D01*
X571398Y-7406436D01*
X574852Y-7405116D01*
X578612Y-7404150D01*
X582625Y-7403592D01*
X586892Y-7403388D01*
X593852Y-7403744D01*
X599154Y-7404658D01*
X645363Y-7404658D01*
X645363Y-7441234D01*
X680364Y-7441234D01*
X680364Y-7404658D01*
X697382Y-7404658D01*
X697382Y-7449870D01*
X714908Y-7449870D01*
X715213Y-7442962D01*
X716026Y-7436561D01*
X717346Y-7430668D01*
X719277Y-7425232D01*
X721715Y-7420305D01*
X724763Y-7415936D01*
X728421Y-7412177D01*
X732739Y-7408976D01*
X737565Y-7406386D01*
X743000Y-7404608D01*
X748995Y-7403490D01*
X755548Y-7403134D01*
X762152Y-7403490D01*
X768248Y-7404658D01*
X907237Y-7404658D01*
X913587Y-7404963D01*
X919530Y-7405928D01*
X925017Y-7407503D01*
X930097Y-7409738D01*
X934618Y-7412583D01*
X938580Y-7415987D01*
X941984Y-7420051D01*
X944829Y-7424724D01*
X947013Y-7429855D01*
X948588Y-7435646D01*
X949553Y-7442047D01*
X949858Y-7449108D01*
X949553Y-7456373D01*
X948537Y-7463078D01*
X946861Y-7469073D01*
X944524Y-7474508D01*
X941578Y-7479385D01*
X938021Y-7483551D01*
X933856Y-7487107D01*
X929081Y-7490002D01*
X923696Y-7492339D01*
X917854Y-7494016D01*
X911504Y-7494981D01*
X904697Y-7495336D01*
X879805Y-7495336D01*
X879805Y-7404658D01*
X830224Y-7404658D01*
X830224Y-7481620D01*
X865327Y-7481620D01*
X865327Y-7495336D01*
X813511Y-7495336D01*
X813511Y-7404658D01*
X768248Y-7404658D01*
X773430Y-7406386D01*
X778205Y-7408976D01*
X782320Y-7412177D01*
X785926Y-7415936D01*
X788924Y-7420305D01*
X791413Y-7425232D01*
X793292Y-7430668D01*
X794613Y-7436561D01*
X795426Y-7442962D01*
X795731Y-7449870D01*
X795578Y-7454950D01*
X795121Y-7459827D01*
X794410Y-7464501D01*
X793445Y-7468920D01*
X791972Y-7473086D01*
X790244Y-7476896D01*
X788162Y-7480452D01*
X783234Y-7486650D01*
X780288Y-7489240D01*
X776986Y-7491425D01*
X773379Y-7493304D01*
X769366Y-7494727D01*
X765048Y-7495794D01*
X760374Y-7496403D01*
X755345Y-7496606D01*
X750265Y-7496403D01*
X745591Y-7495794D01*
X741273Y-7494727D01*
X737311Y-7493304D01*
X733755Y-7491425D01*
X730504Y-7489240D01*
X727506Y-7486650D01*
X724814Y-7483652D01*
X722579Y-7480452D01*
X720598Y-7476896D01*
X718870Y-7473086D01*
X717448Y-7468920D01*
X716381Y-7464501D01*
X715568Y-7459827D01*
X715111Y-7454950D01*
X714908Y-7449870D01*
X697382Y-7449870D01*
X697382Y-7495336D01*
X680364Y-7495336D01*
X680364Y-7455204D01*
X645363Y-7455204D01*
X645363Y-7495336D01*
X628345Y-7495336D01*
X628345Y-7404658D01*
X599154Y-7404658D01*
X603504Y-7405725D01*
X609346Y-7407909D01*
X612089Y-7409230D01*
X606755Y-7422184D01*
X601472Y-7420152D01*
X596290Y-7418628D01*
X591312Y-7417460D01*
X586384Y-7417104D01*
X582726Y-7417409D01*
X579831Y-7418374D01*
X577392Y-7419949D01*
X575716Y-7422184D01*
X574802Y-7424724D01*
X574497Y-7427772D01*
X574903Y-7431074D01*
X576224Y-7433868D01*
X578408Y-7436459D01*
X581863Y-7438694D01*
X591769Y-7444028D01*
X597916Y-7447025D01*
X603148Y-7450378D01*
X605434Y-7452106D01*
X607415Y-7454036D01*
X609142Y-7456170D01*
X610514Y-7458506D01*
X611632Y-7461046D01*
X612444Y-7463942D01*
X612902Y-7467142D01*
X613105Y-7470698D01*
X612851Y-7474508D01*
X612140Y-7478064D01*
X610920Y-7481366D01*
X609295Y-7484414D01*
X607263Y-7487158D01*
X604824Y-7489596D01*
X601929Y-7491730D01*
X598627Y-7493558D01*
X594969Y-7494879D01*
X590854Y-7495844D01*
X586333Y-7496403D01*
X578815Y-7496556D01*
X574141Y-7496302D01*
X569823Y-7495794D01*
X565759Y-7494879D01*
X561949Y-7493660D01*
X556666Y-7491526D01*
X544474Y-7491526D01*
X544474Y-7495336D01*
X495503Y-7495336D01*
X495503Y-7404658D01*
X442874Y-7404658D01*
X448360Y-7404811D01*
X453237Y-7405370D01*
X457606Y-7406233D01*
X461416Y-7407452D01*
X464870Y-7409129D01*
X467868Y-7411212D01*
X470357Y-7413599D01*
X472389Y-7416342D01*
X474014Y-7419441D01*
X475234Y-7422997D01*
X475945Y-7426959D01*
X476148Y-7431328D01*
X476046Y-7434478D01*
X475589Y-7437424D01*
X474878Y-7440066D01*
X472795Y-7444790D01*
X470001Y-7448753D01*
X466496Y-7451852D01*
X462534Y-7454392D01*
X460400Y-7455458D01*
X484784Y-7495336D01*
X465531Y-7495336D01*
X445719Y-7459522D01*
X434797Y-7459522D01*
X434797Y-7495336D01*
X417779Y-7495336D01*
X417779Y-7404658D01*
X396392Y-7404658D01*
X396392Y-7495336D01*
X379171Y-7495336D01*
X379171Y-7455204D01*
X344119Y-7455204D01*
X344119Y-7495336D01*
X327050Y-7495336D01*
X327050Y-7404658D01*
X314350Y-7404658D01*
X314350Y-7418374D01*
X290779Y-7418374D01*
X290779Y-7495336D01*
X273761Y-7495336D01*
X273761Y-7418374D01*
X250139Y-7418374D01*
X250139Y-7404658D01*
X232613Y-7404658D01*
X232613Y-7520736D01*
X967384Y-7520736D01*
X967384Y-7379258D01*
G37*
G36*
X755548Y-7417104D02*
G01*
X751789Y-7417308D01*
X748385Y-7418019D01*
X745337Y-7419238D01*
X742645Y-7420914D01*
X740257Y-7423150D01*
X738225Y-7425791D01*
X736549Y-7428839D01*
X735279Y-7432344D01*
X734263Y-7436205D01*
X733552Y-7440371D01*
X733094Y-7444943D01*
X732942Y-7449870D01*
X733094Y-7454798D01*
X733552Y-7459370D01*
X734263Y-7463688D01*
X735279Y-7467650D01*
X736549Y-7471003D01*
X738225Y-7474000D01*
X740257Y-7476591D01*
X742645Y-7478826D01*
X745337Y-7480604D01*
X748334Y-7481874D01*
X751687Y-7482636D01*
X755345Y-7482890D01*
X759155Y-7482636D01*
X762609Y-7481874D01*
X765657Y-7480604D01*
X768248Y-7478826D01*
X770534Y-7476591D01*
X772464Y-7474000D01*
X774090Y-7471003D01*
X775411Y-7467650D01*
X776478Y-7463688D01*
X777290Y-7459370D01*
X777748Y-7454798D01*
X777900Y-7449870D01*
X777595Y-7442555D01*
X776579Y-7436053D01*
X774903Y-7430465D01*
X772566Y-7425740D01*
X769518Y-7421930D01*
X765657Y-7419238D01*
X761034Y-7417612D01*
G37*
G36*
X434797Y-7418120D02*
G01*
X434797Y-7446060D01*
X445058Y-7445959D01*
X449630Y-7445197D01*
X451561Y-7444536D01*
X453288Y-7443673D01*
X454812Y-7442555D01*
X456082Y-7441234D01*
X457098Y-7439710D01*
X457809Y-7438085D01*
X458571Y-7434122D01*
X458571Y-7429500D01*
X457809Y-7425588D01*
X457098Y-7423962D01*
X456082Y-7422540D01*
X454812Y-7421321D01*
X453288Y-7420356D01*
X449630Y-7418984D01*
X447395Y-7418476D01*
X442163Y-7418120D01*
G37*
G36*
X896772Y-7418120D02*
G01*
X896772Y-7481620D01*
X905205Y-7481620D01*
X911606Y-7481112D01*
X917143Y-7479639D01*
X921766Y-7477201D01*
X925474Y-7473746D01*
X928522Y-7469174D01*
X930656Y-7463637D01*
X931926Y-7457135D01*
X932332Y-7449616D01*
X932180Y-7444384D01*
X931570Y-7439710D01*
X930656Y-7435494D01*
X929284Y-7431836D01*
X927760Y-7428585D01*
X925830Y-7425791D01*
X923544Y-7423403D01*
X920953Y-7421422D01*
X917956Y-7419949D01*
X914653Y-7418933D01*
X910996Y-7418324D01*
X906932Y-7418120D01*
G37*
G36*
X1055573Y-7385507D02*
G01*
X1055573Y-7497775D01*
X1131366Y-7497775D01*
X1131366Y-7482535D01*
X1137412Y-7484973D01*
X1147114Y-7488123D01*
X1150366Y-7488834D01*
X1156766Y-7489393D01*
X1161186Y-7489037D01*
X1164640Y-7487869D01*
X1166114Y-7487056D01*
X1168400Y-7485024D01*
X1169924Y-7482382D01*
X1170686Y-7479334D01*
X1170635Y-7475880D01*
X1169619Y-7472578D01*
X1167688Y-7469835D01*
X1164894Y-7467447D01*
X1161084Y-7465110D01*
X1150366Y-7460386D01*
X1145184Y-7457490D01*
X1140510Y-7454087D01*
X1138428Y-7452055D01*
X1136599Y-7449769D01*
X1134922Y-7447229D01*
X1133856Y-7444536D01*
X1133043Y-7441438D01*
X1132586Y-7438034D01*
X1132382Y-7434275D01*
X1132636Y-7430617D01*
X1133297Y-7427163D01*
X1134414Y-7424013D01*
X1135938Y-7421067D01*
X1138021Y-7418425D01*
X1140460Y-7416190D01*
X1143254Y-7414259D01*
X1146352Y-7412685D01*
X1149705Y-7411364D01*
X1153363Y-7410399D01*
X1157325Y-7409840D01*
X1161592Y-7409637D01*
X1168654Y-7410043D01*
X1175054Y-7411161D01*
X1181150Y-7412990D01*
X1184667Y-7414463D01*
X1200962Y-7414463D01*
X1201166Y-7412329D01*
X1201623Y-7410602D01*
X1202436Y-7409180D01*
X1203502Y-7408113D01*
X1206550Y-7406792D01*
X1208278Y-7406436D01*
X1211834Y-7406436D01*
X1215034Y-7407351D01*
X1216456Y-7408113D01*
X1217574Y-7409180D01*
X1218467Y-7410907D01*
X1335836Y-7410907D01*
X1357426Y-7482027D01*
X1357680Y-7482027D01*
X1379778Y-7410907D01*
X1566214Y-7410907D01*
X1566214Y-7420051D01*
X1555800Y-7424369D01*
X1555800Y-7488123D01*
X1566214Y-7492441D01*
X1566214Y-7501585D01*
X1570532Y-7501585D01*
X1601012Y-7410653D01*
X1621332Y-7410653D01*
X1650779Y-7497775D01*
X1657654Y-7497775D01*
X1657654Y-7482535D01*
X1663598Y-7484973D01*
X1673402Y-7488123D01*
X1676654Y-7488834D01*
X1683054Y-7489393D01*
X1687474Y-7489037D01*
X1690928Y-7487869D01*
X1692402Y-7487056D01*
X1694688Y-7485024D01*
X1695500Y-7483805D01*
X1696466Y-7480909D01*
X1696770Y-7477709D01*
X1696364Y-7474153D01*
X1695805Y-7472578D01*
X1694992Y-7471105D01*
X1692706Y-7468616D01*
X1689404Y-7466279D01*
X1685036Y-7463993D01*
X1679498Y-7461707D01*
X1673910Y-7458964D01*
X1668830Y-7455865D01*
X1666646Y-7454087D01*
X1664665Y-7452055D01*
X1662836Y-7449769D01*
X1661210Y-7447229D01*
X1659991Y-7444536D01*
X1659128Y-7441438D01*
X1658620Y-7438034D01*
X1658416Y-7434275D01*
X1658670Y-7430617D01*
X1659382Y-7427163D01*
X1660601Y-7424013D01*
X1662226Y-7421067D01*
X1664309Y-7418425D01*
X1666697Y-7416190D01*
X1669389Y-7414259D01*
X1672386Y-7412685D01*
X1675942Y-7411364D01*
X1679702Y-7410399D01*
X1683715Y-7409840D01*
X1687880Y-7409637D01*
X1694840Y-7410043D01*
X1701342Y-7411161D01*
X1707337Y-7412990D01*
X1713026Y-7415479D01*
X1707692Y-7428433D01*
X1702460Y-7426401D01*
X1697278Y-7424877D01*
X1692300Y-7423708D01*
X1687372Y-7423353D01*
X1683715Y-7423658D01*
X1680768Y-7424623D01*
X1678381Y-7426198D01*
X1676704Y-7428433D01*
X1675790Y-7430973D01*
X1675434Y-7434021D01*
X1675892Y-7437323D01*
X1677212Y-7440117D01*
X1678178Y-7441488D01*
X1679397Y-7442708D01*
X1682800Y-7444943D01*
X1692706Y-7450277D01*
X1698904Y-7453274D01*
X1704136Y-7456627D01*
X1706422Y-7458354D01*
X1708404Y-7460335D01*
X1710131Y-7462418D01*
X1711502Y-7464755D01*
X1712518Y-7467346D01*
X1713230Y-7470241D01*
X1713687Y-7473442D01*
X1713788Y-7476947D01*
X1713585Y-7480757D01*
X1712925Y-7484313D01*
X1711807Y-7487615D01*
X1710232Y-7490663D01*
X1708251Y-7493406D01*
X1705813Y-7495844D01*
X1702917Y-7497978D01*
X1699564Y-7499807D01*
X1695805Y-7501128D01*
X1691639Y-7502093D01*
X1687068Y-7502652D01*
X1679702Y-7502804D01*
X1675130Y-7502550D01*
X1670812Y-7502042D01*
X1666748Y-7501178D01*
X1661109Y-7499248D01*
X1657654Y-7497775D01*
X1650779Y-7497775D01*
X1652066Y-7501585D01*
X1633778Y-7501585D01*
X1626666Y-7477455D01*
X1595678Y-7477455D01*
X1588820Y-7501585D01*
X1528368Y-7501585D01*
X1528368Y-7492441D01*
X1539036Y-7488123D01*
X1539036Y-7424369D01*
X1528368Y-7420051D01*
X1528368Y-7410907D01*
X1482394Y-7410907D01*
X1487779Y-7411059D01*
X1492707Y-7411466D01*
X1497177Y-7412177D01*
X1501190Y-7413193D01*
X1504645Y-7414412D01*
X1507642Y-7415987D01*
X1510131Y-7417968D01*
X1512112Y-7420305D01*
X1513789Y-7423048D01*
X1515008Y-7426147D01*
X1515719Y-7429652D01*
X1515922Y-7433513D01*
X1515516Y-7438542D01*
X1514957Y-7440777D01*
X1513179Y-7444943D01*
X1512011Y-7446772D01*
X1510639Y-7448397D01*
X1507490Y-7451039D01*
X1505712Y-7452055D01*
X1503781Y-7452817D01*
X1501698Y-7453325D01*
X1501698Y-7454087D01*
X1505915Y-7455408D01*
X1509826Y-7457389D01*
X1511655Y-7458659D01*
X1513281Y-7460183D01*
X1514703Y-7461961D01*
X1515922Y-7463993D01*
X1516938Y-7466431D01*
X1517650Y-7469174D01*
X1518107Y-7472273D01*
X1518208Y-7475677D01*
X1518005Y-7479588D01*
X1517294Y-7483246D01*
X1516075Y-7486599D01*
X1514398Y-7489647D01*
X1512316Y-7492390D01*
X1509826Y-7494778D01*
X1506982Y-7496860D01*
X1503730Y-7498537D01*
X1500124Y-7499858D01*
X1496110Y-7500823D01*
X1491742Y-7501381D01*
X1486966Y-7501585D01*
X1455470Y-7501585D01*
X1455470Y-7410907D01*
X1403400Y-7410907D01*
X1403400Y-7501585D01*
X1387144Y-7501585D01*
X1387297Y-7446924D01*
X1387551Y-7436866D01*
X1388160Y-7427417D01*
X1387652Y-7427417D01*
X1364792Y-7501585D01*
X1349298Y-7501585D01*
X1327200Y-7427163D01*
X1326692Y-7427163D01*
X1327708Y-7452156D01*
X1327708Y-7501585D01*
X1312468Y-7501585D01*
X1312468Y-7410907D01*
X1264462Y-7410907D01*
X1272184Y-7411364D01*
X1278788Y-7412736D01*
X1284224Y-7415072D01*
X1288592Y-7418273D01*
X1291945Y-7422286D01*
X1294333Y-7427010D01*
X1295755Y-7432446D01*
X1296212Y-7438593D01*
X1296060Y-7442352D01*
X1295450Y-7446009D01*
X1294536Y-7449616D01*
X1293164Y-7453071D01*
X1291386Y-7456322D01*
X1289100Y-7459218D01*
X1286306Y-7461808D01*
X1283004Y-7463993D01*
X1279144Y-7465872D01*
X1274572Y-7467244D01*
X1269339Y-7468057D01*
X1263446Y-7468311D01*
X1255064Y-7468311D01*
X1255064Y-7501585D01*
X1238046Y-7501585D01*
X1238046Y-7410907D01*
X1218467Y-7410907D01*
X1218844Y-7412329D01*
X1218996Y-7414463D01*
X1218844Y-7416596D01*
X1218387Y-7418425D01*
X1217574Y-7419898D01*
X1216456Y-7421067D01*
X1213510Y-7422591D01*
X1210106Y-7423099D01*
X1206550Y-7422591D01*
X1203502Y-7421067D01*
X1202436Y-7419898D01*
X1201623Y-7418425D01*
X1201166Y-7416596D01*
X1200962Y-7414463D01*
X1184667Y-7414463D01*
X1186738Y-7415479D01*
X1181404Y-7428433D01*
X1176324Y-7426401D01*
X1171244Y-7424877D01*
X1166063Y-7423708D01*
X1161084Y-7423353D01*
X1157528Y-7423658D01*
X1154480Y-7424623D01*
X1152093Y-7426198D01*
X1150416Y-7428433D01*
X1149502Y-7430973D01*
X1149228Y-7432751D01*
X1218488Y-7432751D01*
X1218488Y-7501585D01*
X1201724Y-7501585D01*
X1201724Y-7432751D01*
X1149228Y-7432751D01*
X1149299Y-7435748D01*
X1149604Y-7437323D01*
X1150924Y-7440117D01*
X1151890Y-7441488D01*
X1153109Y-7442708D01*
X1156512Y-7444943D01*
X1166418Y-7450277D01*
X1172616Y-7453274D01*
X1177848Y-7456627D01*
X1180134Y-7458354D01*
X1182116Y-7460335D01*
X1183843Y-7462418D01*
X1185214Y-7464755D01*
X1186332Y-7467346D01*
X1187145Y-7470241D01*
X1187602Y-7473442D01*
X1187754Y-7476947D01*
X1187551Y-7480757D01*
X1186840Y-7484313D01*
X1185621Y-7487615D01*
X1183944Y-7490663D01*
X1181963Y-7493406D01*
X1179525Y-7495844D01*
X1176629Y-7497978D01*
X1173276Y-7499807D01*
X1169568Y-7501128D01*
X1165402Y-7502093D01*
X1160932Y-7502652D01*
X1153515Y-7502804D01*
X1148842Y-7502550D01*
X1144524Y-7502042D01*
X1140460Y-7501178D01*
X1134821Y-7499248D01*
X1131366Y-7497775D01*
X1055573Y-7497775D01*
X1055573Y-7526985D01*
X1789734Y-7526985D01*
X1789734Y-7385507D01*
G37*
G36*
X1611172Y-7423861D02*
G01*
X1610309Y-7428382D01*
X1608124Y-7436764D01*
X1599996Y-7463485D01*
X1622602Y-7463485D01*
X1613001Y-7430973D01*
G37*
G36*
X1255064Y-7424369D02*
G01*
X1255064Y-7454849D01*
X1264158Y-7454747D01*
X1268984Y-7453833D01*
X1272997Y-7452207D01*
X1274622Y-7451090D01*
X1276045Y-7449769D01*
X1277162Y-7448245D01*
X1278077Y-7446365D01*
X1279093Y-7441793D01*
X1279194Y-7439101D01*
X1278991Y-7435646D01*
X1278280Y-7432649D01*
X1277061Y-7430058D01*
X1275384Y-7427925D01*
X1273251Y-7426350D01*
X1270558Y-7425283D01*
X1267409Y-7424572D01*
X1263700Y-7424369D01*
G37*
G36*
X1472488Y-7424369D02*
G01*
X1472488Y-7447737D01*
X1487525Y-7447584D01*
X1490726Y-7447025D01*
X1493266Y-7446162D01*
X1495094Y-7444943D01*
X1496568Y-7443216D01*
X1497584Y-7441133D01*
X1498193Y-7438644D01*
X1498396Y-7435799D01*
X1498193Y-7432954D01*
X1497482Y-7430516D01*
X1496263Y-7428534D01*
X1494586Y-7426909D01*
X1492504Y-7425791D01*
X1489862Y-7424978D01*
X1486560Y-7424521D01*
G37*
G36*
X1472488Y-7460945D02*
G01*
X1472488Y-7487869D01*
X1484934Y-7487869D01*
X1488948Y-7487615D01*
X1492300Y-7486903D01*
X1495044Y-7485735D01*
X1497126Y-7484059D01*
X1498600Y-7482128D01*
X1499616Y-7479792D01*
X1500225Y-7477150D01*
X1500378Y-7472070D01*
X1499616Y-7468514D01*
X1498041Y-7465618D01*
X1496974Y-7464399D01*
X1495653Y-7463332D01*
X1494078Y-7462469D01*
X1490116Y-7461300D01*
X1484680Y-7460945D01*
G37*
G36*
X235305Y-6379260D02*
G01*
X235305Y-6449872D01*
X453491Y-6449872D01*
X453847Y-6442964D01*
X454761Y-6436563D01*
X456387Y-6430670D01*
X458571Y-6425234D01*
X461518Y-6420307D01*
X465023Y-6415938D01*
X469036Y-6412179D01*
X473557Y-6408978D01*
X478891Y-6406540D01*
X484733Y-6404762D01*
X491083Y-6403746D01*
X497941Y-6403390D01*
X505155Y-6403746D01*
X511911Y-6404914D01*
X518210Y-6406642D01*
X523849Y-6408724D01*
X518261Y-6422186D01*
X513689Y-6420256D01*
X508609Y-6418630D01*
X503224Y-6417462D01*
X497687Y-6417106D01*
X493572Y-6417360D01*
X489762Y-6418122D01*
X486308Y-6419392D01*
X483209Y-6421170D01*
X480466Y-6423406D01*
X478028Y-6426047D01*
X475894Y-6429095D01*
X474065Y-6432600D01*
X472744Y-6436461D01*
X471779Y-6440627D01*
X471220Y-6445199D01*
X471017Y-6450126D01*
X471170Y-6454800D01*
X471678Y-6459169D01*
X472440Y-6463284D01*
X473557Y-6467144D01*
X475132Y-6470599D01*
X477012Y-6473748D01*
X479196Y-6476492D01*
X481685Y-6478828D01*
X484682Y-6480606D01*
X488035Y-6481876D01*
X491794Y-6482638D01*
X497179Y-6482842D01*
X500735Y-6482638D01*
X508609Y-6481114D01*
X508609Y-6459270D01*
X491845Y-6459270D01*
X491845Y-6445554D01*
X524865Y-6445554D01*
X524865Y-6491782D01*
X518007Y-6493814D01*
X510641Y-6495338D01*
X533755Y-6495338D01*
X564235Y-6404406D01*
X584809Y-6404406D01*
X584894Y-6404660D01*
X693521Y-6404660D01*
X731621Y-6475272D01*
X732129Y-6475272D01*
X731520Y-6461912D01*
X731367Y-6404660D01*
X746607Y-6404660D01*
X746607Y-6495338D01*
X725017Y-6495338D01*
X686917Y-6424218D01*
X686409Y-6424218D01*
X687425Y-6443014D01*
X687425Y-6495338D01*
X672185Y-6495338D01*
X672185Y-6404660D01*
X657199Y-6404660D01*
X657199Y-6413804D01*
X647039Y-6418122D01*
X647039Y-6481876D01*
X657199Y-6486194D01*
X657199Y-6495338D01*
X619607Y-6495338D01*
X619607Y-6486194D01*
X630021Y-6481876D01*
X630021Y-6418122D01*
X619607Y-6413804D01*
X619607Y-6404660D01*
X584894Y-6404660D01*
X615289Y-6495338D01*
X597001Y-6495338D01*
X589889Y-6471208D01*
X558901Y-6471208D01*
X552043Y-6495338D01*
X510641Y-6495338D01*
X502767Y-6496253D01*
X493877Y-6496608D01*
X487781Y-6496253D01*
X482092Y-6495186D01*
X476859Y-6493459D01*
X472033Y-6491020D01*
X467868Y-6488023D01*
X464159Y-6484416D01*
X461009Y-6480149D01*
X458317Y-6475272D01*
X456234Y-6469786D01*
X454710Y-6463690D01*
X453796Y-6457086D01*
X453491Y-6449872D01*
X235305Y-6449872D01*
X235305Y-6520738D01*
X964692Y-6520738D01*
X964692Y-6379260D01*
G37*
G36*
X574649Y-6417614D02*
G01*
X572008Y-6428587D01*
X563473Y-6457238D01*
X586079Y-6457238D01*
X577799Y-6430365D01*
G37*
G36*
X1256538Y-793445D02*
G01*
X1244498Y-793699D01*
X1232611Y-794359D01*
X1220825Y-795528D01*
X1209141Y-797102D01*
X1197610Y-799084D01*
X1186281Y-801522D01*
X1175054Y-804418D01*
X1164031Y-807669D01*
X1153160Y-811326D01*
X1142492Y-815390D01*
X1132027Y-819810D01*
X1121714Y-824585D01*
X1111656Y-829767D01*
X1101852Y-835304D01*
X1092200Y-841197D01*
X1082852Y-847394D01*
X1073708Y-853948D01*
X1064818Y-860806D01*
X1056182Y-867968D01*
X1047851Y-875436D01*
X1039774Y-883208D01*
X1032002Y-891286D01*
X1024534Y-899668D01*
X1017320Y-908253D01*
X1010462Y-917143D01*
X1003960Y-926287D01*
X997712Y-935634D01*
X991869Y-945286D01*
X986332Y-955141D01*
X981151Y-965200D01*
X976376Y-975461D01*
X971905Y-985926D01*
X967892Y-996594D01*
X964234Y-1007465D01*
X960932Y-1018489D01*
X958087Y-1029716D01*
X955649Y-1041095D01*
X953617Y-1052576D01*
X952042Y-1064260D01*
X950925Y-1076045D01*
X950214Y-1087983D01*
X950010Y-1099972D01*
X950010Y-1327962D01*
X1102360Y-1327962D01*
X1102410Y-1235760D01*
X1102969Y-1223670D01*
X1104087Y-1212342D01*
X1105712Y-1201826D01*
X1107897Y-1192072D01*
X1110691Y-1183081D01*
X1112266Y-1178864D01*
X1114907Y-1172819D01*
X1117854Y-1167231D01*
X1121105Y-1161999D01*
X1124712Y-1157173D01*
X1128623Y-1152702D01*
X1132840Y-1148689D01*
X1137361Y-1145032D01*
X1142238Y-1141780D01*
X1147419Y-1138885D01*
X1152906Y-1136345D01*
X1158798Y-1134211D01*
X1164945Y-1132433D01*
X1171498Y-1131062D01*
X1178306Y-1130096D01*
X1185519Y-1129538D01*
X1193038Y-1129334D01*
X1198575Y-1129436D01*
X1209040Y-1130350D01*
X1213916Y-1131163D01*
X1223060Y-1133500D01*
X1227328Y-1134973D01*
X1231392Y-1136700D01*
X1239062Y-1140663D01*
X1246073Y-1145184D01*
X1252372Y-1150315D01*
X1258062Y-1156004D01*
X1263091Y-1162253D01*
X1267612Y-1168806D01*
X1271625Y-1175715D01*
X1275080Y-1182928D01*
X1410716Y-1099870D01*
X1410716Y-1165656D01*
X1289050Y-1232458D01*
X1289050Y-1270050D01*
X1410716Y-1270050D01*
X1410716Y-1327962D01*
X950010Y-1327962D01*
X950010Y-1524558D01*
X1097534Y-1524558D01*
X1097635Y-1516888D01*
X1098753Y-1502206D01*
X1099718Y-1495247D01*
X1100937Y-1488490D01*
X1102461Y-1481937D01*
X1104239Y-1475638D01*
X1106322Y-1469593D01*
X1108659Y-1463751D01*
X1111300Y-1458112D01*
X1114145Y-1452727D01*
X1120698Y-1442669D01*
X1124305Y-1437944D01*
X1128115Y-1433423D01*
X1132128Y-1429156D01*
X1136396Y-1425041D01*
X1140866Y-1421180D01*
X1145590Y-1417523D01*
X1150518Y-1414068D01*
X1155649Y-1410817D01*
X1166622Y-1404975D01*
X1172464Y-1402384D01*
X1184706Y-1397863D01*
X1197660Y-1394206D01*
X1211275Y-1391310D01*
X1225499Y-1389278D01*
X1240434Y-1388059D01*
X1256030Y-1387652D01*
X1267764Y-1387906D01*
X1279144Y-1388567D01*
X1290167Y-1389735D01*
X1300835Y-1391361D01*
X1311097Y-1393494D01*
X1321054Y-1396034D01*
X1328216Y-1398270D01*
X1335125Y-1400759D01*
X1341831Y-1403502D01*
X1348232Y-1406499D01*
X1354378Y-1409801D01*
X1360271Y-1413306D01*
X1365961Y-1417116D01*
X1371346Y-1421180D01*
X1376527Y-1425549D01*
X1381353Y-1430223D01*
X1385925Y-1435201D01*
X1390142Y-1440434D01*
X1394053Y-1445920D01*
X1397609Y-1451711D01*
X1400911Y-1457756D01*
X1403858Y-1464106D01*
X1406448Y-1470710D01*
X1408734Y-1477619D01*
X1410665Y-1484782D01*
X1412240Y-1492250D01*
X1413459Y-1499971D01*
X1414322Y-1507947D01*
X1414830Y-1516227D01*
X1415034Y-1524812D01*
X1414830Y-1533550D01*
X1414322Y-1541983D01*
X1413408Y-1550111D01*
X1412189Y-1557934D01*
X1410563Y-1565503D01*
X1408582Y-1572717D01*
X1406245Y-1579676D01*
X1403604Y-1586280D01*
X1400606Y-1592630D01*
X1397254Y-1598676D01*
X1393647Y-1604416D01*
X1389735Y-1609902D01*
X1385519Y-1615084D01*
X1380998Y-1620012D01*
X1376222Y-1624634D01*
X1371092Y-1628952D01*
X1365758Y-1633016D01*
X1360119Y-1636826D01*
X1354226Y-1640332D01*
X1348079Y-1643634D01*
X1341678Y-1646631D01*
X1334973Y-1649374D01*
X1328013Y-1651863D01*
X1315872Y-1655470D01*
X1305763Y-1657857D01*
X1295298Y-1659788D01*
X1284478Y-1661210D01*
X1273251Y-1662175D01*
X1261668Y-1662684D01*
X1247851Y-1662633D01*
X1232560Y-1661820D01*
X1217980Y-1660143D01*
X1204061Y-1657654D01*
X1190904Y-1654302D01*
X1184554Y-1652320D01*
X1178407Y-1650136D01*
X1166622Y-1645157D01*
X1161034Y-1642313D01*
X1155649Y-1639265D01*
X1150518Y-1636014D01*
X1145590Y-1632559D01*
X1140917Y-1628901D01*
X1136396Y-1624990D01*
X1132128Y-1620875D01*
X1128115Y-1616557D01*
X1124305Y-1612036D01*
X1120698Y-1607261D01*
X1117346Y-1602282D01*
X1114145Y-1597050D01*
X1111300Y-1591564D01*
X1108659Y-1585874D01*
X1106322Y-1579981D01*
X1104239Y-1573834D01*
X1102461Y-1567484D01*
X1100937Y-1560880D01*
X1099718Y-1554073D01*
X1098753Y-1547012D01*
X1097635Y-1532280D01*
X1097534Y-1524558D01*
X950010Y-1524558D01*
X950010Y-1684578D01*
X1149096Y-1684578D01*
X1149096Y-1764588D01*
X1410716Y-1764588D01*
X1410716Y-1822754D01*
X1149096Y-1822754D01*
X1149096Y-1903018D01*
X1102360Y-1903018D01*
X1102360Y-1684578D01*
X950010Y-1684578D01*
X950010Y-2055672D01*
X1101090Y-2055672D01*
X1101090Y-1986076D01*
X1410716Y-1881936D01*
X1410716Y-1944166D01*
X1329182Y-1967788D01*
X1329182Y-2073198D01*
X1410716Y-2097074D01*
X1410716Y-2159304D01*
X1101090Y-2055672D01*
X950010Y-2055672D01*
X950010Y-2348788D01*
X1102360Y-2348788D01*
X1102360Y-2290876D01*
X1363980Y-2290876D01*
X1363980Y-2172258D01*
X1410716Y-2172258D01*
X1410716Y-2348788D01*
X950010Y-2348788D01*
X950010Y-2574594D01*
X1102360Y-2574594D01*
X1102360Y-2516682D01*
X1363980Y-2516682D01*
X1363980Y-2398064D01*
X1410716Y-2398064D01*
X1410716Y-2574594D01*
X950010Y-2574594D01*
X950010Y-2625648D01*
X1133856Y-2625648D01*
X1148080Y-2660446D01*
X1365250Y-2660446D01*
X1379220Y-2625648D01*
X1410716Y-2625648D01*
X1410716Y-2753664D01*
X1379220Y-2753664D01*
X1365250Y-2718358D01*
X1148080Y-2718358D01*
X1133856Y-2753664D01*
X1102360Y-2753664D01*
X1102360Y-2625648D01*
X950010Y-2625648D01*
X950010Y-2775254D01*
X1149096Y-2775254D01*
X1149096Y-2855264D01*
X1410716Y-2855264D01*
X1410716Y-2913430D01*
X1149096Y-2913430D01*
X1149096Y-2993948D01*
X1102360Y-2993948D01*
X1102360Y-2775254D01*
X950010Y-2775254D01*
X950010Y-3037382D01*
X1410716Y-3037382D01*
X1410716Y-3110534D01*
X1168908Y-3240328D01*
X1168908Y-3242106D01*
X1188974Y-3241344D01*
X1227226Y-3239312D01*
X1244092Y-3238855D01*
X1410716Y-3238804D01*
X1410716Y-3290620D01*
X1102360Y-3290620D01*
X1102360Y-3217976D01*
X1342390Y-3088436D01*
X1342390Y-3086658D01*
X1323594Y-3087674D01*
X1264310Y-3089656D01*
X1102360Y-3089706D01*
X1102360Y-3037382D01*
X950010Y-3037382D01*
X950010Y-3341420D01*
X1133856Y-3341420D01*
X1148080Y-3376472D01*
X1365250Y-3376472D01*
X1379220Y-3341420D01*
X1410716Y-3341420D01*
X1410716Y-3469690D01*
X1379220Y-3469690D01*
X1365250Y-3434384D01*
X1148080Y-3434384D01*
X1133856Y-3469690D01*
X1102360Y-3469690D01*
X1102360Y-3341420D01*
X950010Y-3341420D01*
X950010Y-3581450D01*
X1098042Y-3581450D01*
X1098346Y-3570579D01*
X1099362Y-3559556D01*
X1101039Y-3548329D01*
X1103376Y-3537000D01*
X1106373Y-3525926D01*
X1109929Y-3515512D01*
X1113891Y-3505860D01*
X1118362Y-3496868D01*
X1163828Y-3516426D01*
X1156817Y-3531717D01*
X1150620Y-3547668D01*
X1148029Y-3555898D01*
X1146251Y-3564382D01*
X1145133Y-3573068D01*
X1144778Y-3581958D01*
X1145235Y-3590747D01*
X1146657Y-3599179D01*
X1149045Y-3607155D01*
X1152398Y-3614724D01*
X1156766Y-3621786D01*
X1161999Y-3628288D01*
X1168044Y-3634232D01*
X1175004Y-3639616D01*
X1182725Y-3644392D01*
X1191209Y-3648506D01*
X1200353Y-3652012D01*
X1210310Y-3654856D01*
X1221028Y-3657193D01*
X1232408Y-3658870D01*
X1244396Y-3659835D01*
X1257046Y-3660190D01*
X1265580Y-3660038D01*
X1273810Y-3659632D01*
X1281734Y-3658971D01*
X1289354Y-3658057D01*
X1296670Y-3656837D01*
X1303680Y-3655314D01*
X1310335Y-3653586D01*
X1316736Y-3651554D01*
X1322781Y-3649268D01*
X1328470Y-3646678D01*
X1333804Y-3643782D01*
X1338783Y-3640632D01*
X1343355Y-3637178D01*
X1347622Y-3633470D01*
X1351534Y-3629456D01*
X1355090Y-3625138D01*
X1358188Y-3620566D01*
X1360881Y-3615690D01*
X1363116Y-3610559D01*
X1364996Y-3605123D01*
X1366418Y-3599434D01*
X1367485Y-3593490D01*
X1368094Y-3587242D01*
X1368298Y-3580688D01*
X1368044Y-3571443D01*
X1367282Y-3562350D01*
X1366012Y-3553307D01*
X1364234Y-3544366D01*
X1361998Y-3535476D01*
X1359458Y-3526536D01*
X1356563Y-3517544D01*
X1353312Y-3508552D01*
X1400302Y-3508552D01*
X1403959Y-3517493D01*
X1407007Y-3526586D01*
X1409547Y-3535781D01*
X1411478Y-3545128D01*
X1413002Y-3554780D01*
X1414119Y-3564991D01*
X1414780Y-3575761D01*
X1415034Y-3587038D01*
X1414881Y-3594506D01*
X1414475Y-3601770D01*
X1413814Y-3608781D01*
X1412849Y-3615588D01*
X1411630Y-3622141D01*
X1408379Y-3634638D01*
X1406347Y-3640531D01*
X1404010Y-3646220D01*
X1401419Y-3651707D01*
X1398574Y-3656939D01*
X1395476Y-3661968D01*
X1392072Y-3666794D01*
X1388414Y-3671468D01*
X1380490Y-3680053D01*
X1376222Y-3684066D01*
X1371701Y-3687826D01*
X1366977Y-3691382D01*
X1362049Y-3694684D01*
X1356868Y-3697833D01*
X1351483Y-3700729D01*
X1345895Y-3703421D01*
X1340104Y-3705910D01*
X1327912Y-3710279D01*
X1315008Y-3713835D01*
X1301445Y-3716578D01*
X1287170Y-3718560D01*
X1272184Y-3719728D01*
X1256538Y-3720134D01*
X1245006Y-3719880D01*
X1233830Y-3719118D01*
X1223010Y-3717848D01*
X1212494Y-3716070D01*
X1202334Y-3713784D01*
X1192530Y-3710990D01*
X1185468Y-3708654D01*
X1178610Y-3706012D01*
X1172006Y-3703065D01*
X1165656Y-3699865D01*
X1159510Y-3696411D01*
X1153617Y-3692651D01*
X1147927Y-3688638D01*
X1142492Y-3684320D01*
X1137361Y-3679748D01*
X1132535Y-3674922D01*
X1128014Y-3669842D01*
X1123746Y-3664508D01*
X1119784Y-3658920D01*
X1116126Y-3653078D01*
X1112774Y-3646982D01*
X1109726Y-3640632D01*
X1106982Y-3634028D01*
X1104595Y-3627221D01*
X1102614Y-3620160D01*
X1100937Y-3612896D01*
X1099667Y-3605377D01*
X1098753Y-3597605D01*
X1098194Y-3589629D01*
X1098042Y-3581450D01*
X950010Y-3581450D01*
X950010Y-3847642D01*
X1098042Y-3847642D01*
X1098346Y-3835552D01*
X1099362Y-3823817D01*
X1101039Y-3812540D01*
X1103376Y-3801668D01*
X1106170Y-3791305D01*
X1109522Y-3781247D01*
X1113434Y-3771493D01*
X1117854Y-3762044D01*
X1162304Y-3780078D01*
X1158443Y-3788918D01*
X1154988Y-3797757D01*
X1151940Y-3806444D01*
X1149350Y-3815130D01*
X1147318Y-3823715D01*
X1145895Y-3832250D01*
X1145032Y-3840734D01*
X1144778Y-3849166D01*
X1145032Y-3855618D01*
X1145895Y-3861562D01*
X1147318Y-3866946D01*
X1149350Y-3871772D01*
X1151737Y-3875938D01*
X1154684Y-3879596D01*
X1158087Y-3882694D01*
X1162050Y-3885234D01*
X1166266Y-3887215D01*
X1170838Y-3888638D01*
X1175816Y-3889501D01*
X1181100Y-3889806D01*
X1187094Y-3889451D01*
X1192580Y-3888333D01*
X1197610Y-3886504D01*
X1202182Y-3883964D01*
X1206449Y-3880561D01*
X1210564Y-3876294D01*
X1214577Y-3871061D01*
X1218438Y-3864914D01*
X1226413Y-3849979D01*
X1240993Y-3820109D01*
X1246428Y-3809949D01*
X1252016Y-3800551D01*
X1257808Y-3792016D01*
X1260805Y-3788054D01*
X1267256Y-3780942D01*
X1270711Y-3777742D01*
X1274267Y-3774795D01*
X1278026Y-3772052D01*
X1286002Y-3767378D01*
X1290167Y-3765397D01*
X1294587Y-3763721D01*
X1299311Y-3762248D01*
X1304239Y-3761079D01*
X1309370Y-3760165D01*
X1314805Y-3759504D01*
X1326388Y-3758996D01*
X1333093Y-3759200D01*
X1339596Y-3759758D01*
X1345895Y-3760724D01*
X1351889Y-3762095D01*
X1357680Y-3763873D01*
X1363218Y-3766007D01*
X1368552Y-3768547D01*
X1373632Y-3771442D01*
X1378407Y-3774694D01*
X1382928Y-3778250D01*
X1387195Y-3782212D01*
X1391158Y-3786530D01*
X1394815Y-3791254D01*
X1398168Y-3796284D01*
X1401267Y-3801719D01*
X1404112Y-3807510D01*
X1406652Y-3813708D01*
X1408887Y-3820261D01*
X1410766Y-3827170D01*
X1412290Y-3834434D01*
X1413510Y-3842054D01*
X1414322Y-3849979D01*
X1414830Y-3858310D01*
X1415034Y-3866946D01*
X1414526Y-3883202D01*
X1413002Y-3898442D01*
X1411935Y-3905707D01*
X1410614Y-3912666D01*
X1409039Y-3919423D01*
X1405128Y-3932174D01*
X1400454Y-3944365D01*
X1397762Y-3950258D01*
X1345946Y-3950258D01*
X1350162Y-3940403D01*
X1354175Y-3930040D01*
X1358036Y-3919321D01*
X1361694Y-3908094D01*
X1364792Y-3896868D01*
X1367028Y-3885742D01*
X1368348Y-3874770D01*
X1368806Y-3863898D01*
X1368501Y-3856126D01*
X1367586Y-3849115D01*
X1366062Y-3842816D01*
X1363980Y-3837228D01*
X1361186Y-3832351D01*
X1357934Y-3828135D01*
X1354226Y-3824630D01*
X1350010Y-3821734D01*
X1345387Y-3819601D01*
X1340408Y-3818128D01*
X1335074Y-3817213D01*
X1329436Y-3816908D01*
X1323187Y-3817315D01*
X1317498Y-3818483D01*
X1312265Y-3820464D01*
X1307592Y-3823258D01*
X1303070Y-3826713D01*
X1298752Y-3831082D01*
X1294587Y-3836263D01*
X1290574Y-3842308D01*
X1286713Y-3849268D01*
X1282750Y-3857244D01*
X1278686Y-3866184D01*
X1272489Y-3880865D01*
X1268018Y-3890162D01*
X1263192Y-3899154D01*
X1258011Y-3907739D01*
X1252372Y-3915867D01*
X1249273Y-3919626D01*
X1242415Y-3926535D01*
X1234795Y-3932580D01*
X1226312Y-3937812D01*
X1221740Y-3939997D01*
X1216863Y-3941927D01*
X1211783Y-3943553D01*
X1206398Y-3944874D01*
X1200810Y-3945890D01*
X1194917Y-3946601D01*
X1188770Y-3947058D01*
X1182370Y-3947210D01*
X1175867Y-3947007D01*
X1169619Y-3946448D01*
X1163574Y-3945483D01*
X1157782Y-3944112D01*
X1152194Y-3942334D01*
X1146860Y-3940200D01*
X1141780Y-3937660D01*
X1136904Y-3934764D01*
X1132281Y-3931513D01*
X1127963Y-3927906D01*
X1123899Y-3923995D01*
X1120140Y-3919778D01*
X1116634Y-3915257D01*
X1113434Y-3910380D01*
X1110538Y-3905199D01*
X1107948Y-3899712D01*
X1105611Y-3894023D01*
X1103579Y-3888079D01*
X1101902Y-3881932D01*
X1100531Y-3875532D01*
X1099413Y-3868877D01*
X1098651Y-3862019D01*
X1098194Y-3854958D01*
X1098042Y-3847642D01*
X950010Y-3847642D01*
X950061Y-3956354D01*
X950518Y-3968343D01*
X951433Y-3980179D01*
X952804Y-3991914D01*
X954582Y-4003497D01*
X956818Y-4014927D01*
X959459Y-4026204D01*
X962507Y-4037329D01*
X966012Y-4048302D01*
X969822Y-4059072D01*
X974090Y-4069638D01*
X978712Y-4080001D01*
X983691Y-4090162D01*
X989025Y-4100118D01*
X994765Y-4109872D01*
X1000810Y-4119372D01*
X1007160Y-4128617D01*
X1013866Y-4137609D01*
X1020876Y-4146397D01*
X1028242Y-4154881D01*
X1035862Y-4163060D01*
X1043787Y-4170984D01*
X1052017Y-4178655D01*
X1060500Y-4185970D01*
X1069238Y-4192981D01*
X1078230Y-4199686D01*
X1087475Y-4206087D01*
X1096975Y-4212132D01*
X1106728Y-4217822D01*
X1116685Y-4223156D01*
X1126845Y-4228134D01*
X1137208Y-4232757D01*
X1147826Y-4237024D01*
X1158544Y-4240885D01*
X1169517Y-4244340D01*
X1180642Y-4247388D01*
X1191920Y-4250029D01*
X1203350Y-4252264D01*
X1214932Y-4254042D01*
X1226667Y-4255414D01*
X1238554Y-4256328D01*
X1250492Y-4256786D01*
X1262583Y-4256786D01*
X1274572Y-4256328D01*
X1286408Y-4255414D01*
X1298143Y-4254042D01*
X1309725Y-4252264D01*
X1321155Y-4250029D01*
X1332484Y-4247388D01*
X1343558Y-4244340D01*
X1354531Y-4240885D01*
X1365300Y-4237024D01*
X1375867Y-4232757D01*
X1386230Y-4228134D01*
X1396441Y-4223156D01*
X1406398Y-4217822D01*
X1416100Y-4212132D01*
X1425600Y-4206087D01*
X1434846Y-4199686D01*
X1443888Y-4192981D01*
X1452626Y-4185970D01*
X1461109Y-4178655D01*
X1469339Y-4170984D01*
X1477264Y-4163060D01*
X1484884Y-4154881D01*
X1492199Y-4146397D01*
X1499209Y-4137609D01*
X1505915Y-4128617D01*
X1512316Y-4119372D01*
X1518361Y-4109872D01*
X1524050Y-4100118D01*
X1529384Y-4090162D01*
X1534414Y-4080001D01*
X1539036Y-4069638D01*
X1543253Y-4059072D01*
X1547114Y-4048302D01*
X1550568Y-4037329D01*
X1553616Y-4026204D01*
X1556258Y-4014927D01*
X1558493Y-4003497D01*
X1560322Y-3991914D01*
X1561642Y-3980179D01*
X1562608Y-3968343D01*
X1563065Y-3956354D01*
X1563116Y-1099972D01*
X1562862Y-1087983D01*
X1562201Y-1076045D01*
X1561033Y-1064260D01*
X1559458Y-1052576D01*
X1557426Y-1041095D01*
X1554988Y-1029716D01*
X1552143Y-1018489D01*
X1548892Y-1007465D01*
X1545234Y-996594D01*
X1541170Y-985926D01*
X1536750Y-975461D01*
X1531924Y-965200D01*
X1526794Y-955141D01*
X1521256Y-945286D01*
X1515364Y-935634D01*
X1509166Y-926287D01*
X1502613Y-917143D01*
X1495755Y-908253D01*
X1488592Y-899668D01*
X1481074Y-891286D01*
X1473301Y-883208D01*
X1465224Y-875436D01*
X1456893Y-867968D01*
X1448308Y-860806D01*
X1439418Y-853948D01*
X1430274Y-847394D01*
X1420876Y-841197D01*
X1411274Y-835304D01*
X1401419Y-829767D01*
X1391361Y-824585D01*
X1381099Y-819810D01*
X1370634Y-815390D01*
X1359916Y-811326D01*
X1349095Y-807669D01*
X1338021Y-804418D01*
X1326845Y-801522D01*
X1315466Y-799084D01*
X1303985Y-797102D01*
X1292301Y-795528D01*
X1280515Y-794359D01*
X1268577Y-793699D01*
G37*
G36*
X1194816Y-1188008D02*
G01*
X1186840Y-1188415D01*
X1179677Y-1189532D01*
X1173378Y-1191463D01*
X1167892Y-1194104D01*
X1163167Y-1197559D01*
X1159103Y-1201775D01*
X1155801Y-1206804D01*
X1153160Y-1212646D01*
X1151128Y-1219301D01*
X1149705Y-1226870D01*
X1148842Y-1235303D01*
X1148588Y-1244650D01*
X1148588Y-1270050D01*
X1243584Y-1270050D01*
X1243584Y-1243888D01*
X1243228Y-1234795D01*
X1242161Y-1226515D01*
X1240434Y-1219047D01*
X1237996Y-1212392D01*
X1234846Y-1206652D01*
X1231087Y-1201724D01*
X1226616Y-1197508D01*
X1221486Y-1194104D01*
X1215796Y-1191463D01*
X1209497Y-1189532D01*
X1202486Y-1188364D01*
G37*
G36*
X1256030Y-1448866D02*
G01*
X1247495Y-1448968D01*
X1231341Y-1449984D01*
X1223772Y-1450848D01*
X1209446Y-1453286D01*
X1202791Y-1454912D01*
X1196390Y-1456791D01*
X1190345Y-1458874D01*
X1184605Y-1461211D01*
X1179118Y-1463802D01*
X1173988Y-1466646D01*
X1169212Y-1469745D01*
X1164894Y-1473149D01*
X1160983Y-1476857D01*
X1157478Y-1480870D01*
X1154379Y-1485239D01*
X1151686Y-1489913D01*
X1149400Y-1494891D01*
X1147572Y-1500174D01*
X1146098Y-1505813D01*
X1145082Y-1511757D01*
X1144473Y-1518005D01*
X1144270Y-1524558D01*
X1144473Y-1531213D01*
X1145082Y-1537512D01*
X1146149Y-1543507D01*
X1147622Y-1549196D01*
X1149502Y-1554581D01*
X1151839Y-1559610D01*
X1154582Y-1564335D01*
X1157732Y-1568754D01*
X1161186Y-1572869D01*
X1165047Y-1576679D01*
X1169314Y-1580235D01*
X1173937Y-1583486D01*
X1178915Y-1586433D01*
X1184249Y-1589125D01*
X1189990Y-1591513D01*
X1196086Y-1593646D01*
X1202486Y-1595424D01*
X1209243Y-1596999D01*
X1223619Y-1599336D01*
X1231290Y-1600200D01*
X1239215Y-1600809D01*
X1247444Y-1601165D01*
X1264615Y-1601165D01*
X1272946Y-1600809D01*
X1288592Y-1599387D01*
X1303020Y-1596999D01*
X1309776Y-1595424D01*
X1316228Y-1593646D01*
X1322273Y-1591513D01*
X1327962Y-1589125D01*
X1333296Y-1586433D01*
X1338275Y-1583486D01*
X1342847Y-1580235D01*
X1347114Y-1576679D01*
X1351026Y-1572869D01*
X1354582Y-1568754D01*
X1357731Y-1564335D01*
X1360474Y-1559610D01*
X1362760Y-1554581D01*
X1364640Y-1549247D01*
X1366113Y-1543608D01*
X1367180Y-1537665D01*
X1367840Y-1531366D01*
X1368044Y-1524812D01*
X1367840Y-1518310D01*
X1367180Y-1512112D01*
X1366113Y-1506220D01*
X1364640Y-1500632D01*
X1362760Y-1495348D01*
X1360474Y-1490370D01*
X1357731Y-1485747D01*
X1354582Y-1481378D01*
X1351026Y-1477264D01*
X1347114Y-1473454D01*
X1342847Y-1469948D01*
X1338224Y-1466697D01*
X1333296Y-1463802D01*
X1327962Y-1461160D01*
X1322273Y-1458772D01*
X1316228Y-1456740D01*
X1309776Y-1454912D01*
X1303020Y-1453286D01*
X1288592Y-1450848D01*
X1280922Y-1449984D01*
X1264615Y-1448968D01*
G37*
G36*
X1281684Y-1981758D02*
G01*
X1202182Y-2006396D01*
X1175562Y-2013610D01*
X1146048Y-2020620D01*
X1161694Y-2023872D01*
X1176782Y-2027478D01*
X1202182Y-2034336D01*
X1281684Y-2058466D01*
G37*
G36*
X967587Y-8653983D02*
G01*
X967587Y-8689695D01*
X992987Y-8689695D01*
X1075029Y-8717127D01*
X1075029Y-8735415D01*
X992987Y-8763101D01*
X992987Y-8746591D01*
X1014577Y-8740241D01*
X1014577Y-8712555D01*
X992987Y-8706205D01*
X992987Y-8689695D01*
X967587Y-8689695D01*
X967587Y-8802217D01*
X991717Y-8802217D01*
X992073Y-8796477D01*
X993038Y-8791295D01*
X994714Y-8786571D01*
X997051Y-8782405D01*
X999896Y-8778697D01*
X1003249Y-8775547D01*
X1007262Y-8772855D01*
X1011783Y-8770721D01*
X1016711Y-8769045D01*
X1021994Y-8767876D01*
X1027734Y-8767165D01*
X1033881Y-8766911D01*
X1038352Y-8767064D01*
X1042669Y-8767521D01*
X1046734Y-8768334D01*
X1050645Y-8769451D01*
X1054303Y-8770772D01*
X1057757Y-8772347D01*
X1060907Y-8774328D01*
X1063853Y-8776563D01*
X1066596Y-8779002D01*
X1068984Y-8781694D01*
X1071067Y-8784691D01*
X1072743Y-8787993D01*
X1074064Y-8791549D01*
X1075029Y-8795359D01*
X1075588Y-8799423D01*
X1075791Y-8803741D01*
X1075385Y-8809431D01*
X1074267Y-8815425D01*
X1072692Y-8821115D01*
X1070457Y-8826093D01*
X1058265Y-8821013D01*
X1061821Y-8812631D01*
X1062939Y-8808161D01*
X1063345Y-8803487D01*
X1062837Y-8798915D01*
X1061313Y-8794851D01*
X1060196Y-8793022D01*
X1057249Y-8789720D01*
X1055471Y-8788247D01*
X1051102Y-8785961D01*
X1046073Y-8784183D01*
X1040180Y-8783218D01*
X1033627Y-8782913D01*
X1029208Y-8783066D01*
X1025093Y-8783472D01*
X1021334Y-8784183D01*
X1017879Y-8785199D01*
X1014780Y-8786469D01*
X1012037Y-8788044D01*
X1009700Y-8789924D01*
X1007719Y-8792057D01*
X1006144Y-8794597D01*
X1005078Y-8797442D01*
X1004366Y-8800592D01*
X1004214Y-8806383D01*
X1004722Y-8811107D01*
X1005840Y-8815781D01*
X1008227Y-8823045D01*
X995781Y-8823045D01*
X994003Y-8818219D01*
X992733Y-8813393D01*
X991971Y-8808059D01*
X991717Y-8802217D01*
X967587Y-8802217D01*
X967587Y-8868003D01*
X992987Y-8868003D01*
X992987Y-8852763D01*
X1062329Y-8852763D01*
X1062329Y-8831427D01*
X1074521Y-8831427D01*
X1074521Y-8889339D01*
X1062329Y-8889339D01*
X1062329Y-8868003D01*
X967587Y-8868003D01*
X967587Y-8925001D01*
X1099972Y-8925001D01*
X1099972Y-8653983D01*
G37*
G36*
X1027277Y-8716365D02*
G01*
X1027277Y-8736685D01*
X1048105Y-8730081D01*
X1052677Y-8729065D01*
X1063091Y-8726271D01*
X1054963Y-8724493D01*
X1048105Y-8722715D01*
G37*
G36*
X2247036Y-8652916D02*
G01*
X2241346Y-8653119D01*
X2235708Y-8653576D01*
X2230221Y-8654389D01*
X2224786Y-8655507D01*
X2219502Y-8656929D01*
X2214321Y-8658606D01*
X2209241Y-8660587D01*
X2204364Y-8662822D01*
X2199589Y-8665311D01*
X2195017Y-8668054D01*
X2186330Y-8674252D01*
X2182266Y-8677706D01*
X2178405Y-8681364D01*
X2174748Y-8685225D01*
X2171293Y-8689289D01*
X2165096Y-8697976D01*
X2162352Y-8702548D01*
X2159863Y-8707323D01*
X2157628Y-8712200D01*
X2155647Y-8717280D01*
X2153970Y-8722410D01*
X2152548Y-8727744D01*
X2151430Y-8733129D01*
X2150668Y-8738666D01*
X2150160Y-8744305D01*
X2150008Y-8749995D01*
X2150008Y-8815832D01*
X2188108Y-8815832D01*
X2188108Y-8780272D01*
X2188514Y-8771940D01*
X2189784Y-8764219D01*
X2191816Y-8757056D01*
X2194712Y-8750554D01*
X2198420Y-8744559D01*
X2202840Y-8739378D01*
X2208072Y-8734907D01*
X2214016Y-8731250D01*
X2220874Y-8728354D01*
X2228443Y-8726271D01*
X2236724Y-8725052D01*
X2245766Y-8724646D01*
X2255266Y-8725052D01*
X2264003Y-8726373D01*
X2271928Y-8728506D01*
X2279040Y-8731504D01*
X2285339Y-8735415D01*
X2290826Y-8740140D01*
X2295398Y-8745575D01*
X2299106Y-8751824D01*
X2302103Y-8758732D01*
X2304288Y-8766352D01*
X2305558Y-8774633D01*
X2305964Y-8783574D01*
X2305964Y-8815832D01*
X2150008Y-8815832D01*
X2150008Y-8852408D01*
X2182012Y-8852408D01*
X2182164Y-8850071D01*
X2182622Y-8847886D01*
X2183333Y-8845854D01*
X2184298Y-8844026D01*
X2185822Y-8842552D01*
X2187752Y-8841536D01*
X2190140Y-8840927D01*
X2192934Y-8840724D01*
X2195677Y-8840927D01*
X2198339Y-8841740D01*
X2305964Y-8841740D01*
X2305964Y-8863330D01*
X2216556Y-8863330D01*
X2216556Y-8841740D01*
X2198339Y-8841740D01*
X2199843Y-8842552D01*
X2201316Y-8844026D01*
X2202434Y-8845854D01*
X2203246Y-8847886D01*
X2203704Y-8850071D01*
X2203856Y-8852408D01*
X2203704Y-8854846D01*
X2203246Y-8857081D01*
X2202434Y-8859164D01*
X2201316Y-8861044D01*
X2199843Y-8862466D01*
X2197963Y-8863533D01*
X2195677Y-8864142D01*
X2192934Y-8864346D01*
X2190140Y-8864142D01*
X2187752Y-8863533D01*
X2185822Y-8862466D01*
X2184298Y-8861044D01*
X2183333Y-8859164D01*
X2182622Y-8857081D01*
X2182164Y-8854846D01*
X2182012Y-8852408D01*
X2150008Y-8852408D01*
X2150008Y-8915400D01*
X2186330Y-8915400D01*
X2186838Y-8906306D01*
X2188362Y-8897874D01*
X2190800Y-8890000D01*
X2193950Y-8882634D01*
X2210968Y-8889746D01*
X2208276Y-8896350D01*
X2206142Y-8902954D01*
X2204821Y-8909558D01*
X2204364Y-8916162D01*
X2204770Y-8920835D01*
X2205888Y-8924798D01*
X2208072Y-8927693D01*
X2210968Y-8929878D01*
X2214270Y-8931198D01*
X2216099Y-8931554D01*
X2220417Y-8931503D01*
X2222550Y-8931097D01*
X2224481Y-8930335D01*
X2226208Y-8929370D01*
X2227834Y-8928049D01*
X2229408Y-8926423D01*
X2232304Y-8922258D01*
X2235555Y-8916416D01*
X2243175Y-8901023D01*
X2247544Y-8894318D01*
X2249830Y-8891320D01*
X2252370Y-8888780D01*
X2255164Y-8886647D01*
X2258212Y-8884920D01*
X2261565Y-8883446D01*
X2265273Y-8882430D01*
X2269337Y-8881821D01*
X2273706Y-8881618D01*
X2278735Y-8881872D01*
X2283409Y-8882735D01*
X2287778Y-8884158D01*
X2291740Y-8886190D01*
X2295347Y-8888882D01*
X2298496Y-8892082D01*
X2301189Y-8895842D01*
X2303424Y-8900160D01*
X2305304Y-8904986D01*
X2306675Y-8910370D01*
X2307488Y-8916314D01*
X2307691Y-8925966D01*
X2307336Y-8932062D01*
X2306574Y-8937701D01*
X2305405Y-8942882D01*
X2303881Y-8947759D01*
X2300884Y-8954770D01*
X2281072Y-8954770D01*
X2284272Y-8947099D01*
X2287168Y-8938768D01*
X2288387Y-8934348D01*
X2289251Y-8930030D01*
X2289810Y-8925864D01*
X2289860Y-8918702D01*
X2289454Y-8916009D01*
X2288844Y-8913622D01*
X2286965Y-8909710D01*
X2285796Y-8908084D01*
X2284425Y-8906764D01*
X2281021Y-8904833D01*
X2277110Y-8903817D01*
X2272538Y-8903868D01*
X2270353Y-8904274D01*
X2268372Y-8904986D01*
X2266594Y-8906002D01*
X2263190Y-8909100D01*
X2259990Y-8913368D01*
X2257094Y-8919108D01*
X2250541Y-8933434D01*
X2246528Y-8940038D01*
X2244242Y-8943035D01*
X2241600Y-8945676D01*
X2238654Y-8947962D01*
X2235352Y-8949944D01*
X2231847Y-8951468D01*
X2227884Y-8952585D01*
X2223465Y-8953246D01*
X2218588Y-8953500D01*
X2213711Y-8953195D01*
X2209190Y-8952280D01*
X2205075Y-8950756D01*
X2201316Y-8948674D01*
X2197862Y-8946134D01*
X2194864Y-8943086D01*
X2192274Y-8939530D01*
X2190140Y-8935466D01*
X2188464Y-8930944D01*
X2187295Y-8926118D01*
X2186584Y-8920937D01*
X2186330Y-8915400D01*
X2150008Y-8915400D01*
X2150008Y-9024874D01*
X2182012Y-9024874D01*
X2182164Y-9022537D01*
X2182622Y-9020403D01*
X2183333Y-9018473D01*
X2184298Y-9016746D01*
X2185822Y-9015171D01*
X2187752Y-9014053D01*
X2190140Y-9013393D01*
X2192934Y-9013190D01*
X2195677Y-9013393D01*
X2198219Y-9014206D01*
X2305964Y-9014206D01*
X2305964Y-9036050D01*
X2216556Y-9036050D01*
X2216556Y-9014206D01*
X2198219Y-9014206D01*
X2199843Y-9015171D01*
X2201316Y-9016746D01*
X2202434Y-9018473D01*
X2203246Y-9020403D01*
X2203704Y-9022537D01*
X2203856Y-9024874D01*
X2203704Y-9027312D01*
X2203246Y-9029547D01*
X2202434Y-9031630D01*
X2201316Y-9033510D01*
X2199843Y-9035034D01*
X2197963Y-9036151D01*
X2195677Y-9036812D01*
X2192934Y-9037066D01*
X2190140Y-9036812D01*
X2187752Y-9036151D01*
X2185822Y-9035034D01*
X2184298Y-9033510D01*
X2183333Y-9031630D01*
X2182622Y-9029547D01*
X2182164Y-9027312D01*
X2182012Y-9024874D01*
X2150008Y-9024874D01*
X2150008Y-9089644D01*
X2214778Y-9089644D01*
X2215286Y-9082989D01*
X2216759Y-9077096D01*
X2219198Y-9071965D01*
X2222652Y-9067546D01*
X2227072Y-9063990D01*
X2232761Y-9061450D01*
X2239670Y-9059926D01*
X2247798Y-9059418D01*
X2305964Y-9059418D01*
X2305964Y-9081262D01*
X2251862Y-9081262D01*
X2247087Y-9081465D01*
X2242972Y-9082125D01*
X2239467Y-9083243D01*
X2236622Y-9084818D01*
X2234438Y-9086799D01*
X2232812Y-9089339D01*
X2231898Y-9092285D01*
X2231542Y-9095740D01*
X2232050Y-9100870D01*
X2233523Y-9105036D01*
X2235962Y-9108338D01*
X2239416Y-9110726D01*
X2243836Y-9112504D01*
X2249068Y-9113774D01*
X2255266Y-9114536D01*
X2262276Y-9114790D01*
X2305964Y-9114790D01*
X2305964Y-9136634D01*
X2216556Y-9136634D01*
X2216556Y-9119870D01*
X2228240Y-9116822D01*
X2228240Y-9115806D01*
X2224074Y-9112707D01*
X2220620Y-9108948D01*
X2219198Y-9106865D01*
X2217064Y-9102394D01*
X2215642Y-9097467D01*
X2214880Y-9092285D01*
X2214778Y-9089644D01*
X2150008Y-9089644D01*
X2150008Y-9171178D01*
X2182012Y-9171178D01*
X2182164Y-9168841D01*
X2182622Y-9166707D01*
X2183333Y-9164777D01*
X2184298Y-9163050D01*
X2185822Y-9161475D01*
X2187752Y-9160357D01*
X2190140Y-9159697D01*
X2192934Y-9159494D01*
X2195677Y-9159697D01*
X2198219Y-9160510D01*
X2305964Y-9160510D01*
X2305964Y-9182354D01*
X2216556Y-9182354D01*
X2216556Y-9160510D01*
X2198219Y-9160510D01*
X2199843Y-9161475D01*
X2201316Y-9163050D01*
X2202434Y-9164777D01*
X2203246Y-9166707D01*
X2203704Y-9168841D01*
X2203856Y-9171178D01*
X2203704Y-9173616D01*
X2203246Y-9175851D01*
X2202434Y-9177934D01*
X2201316Y-9179814D01*
X2199843Y-9181236D01*
X2197963Y-9182303D01*
X2195677Y-9182912D01*
X2192934Y-9183116D01*
X2190140Y-9182912D01*
X2187752Y-9182303D01*
X2185822Y-9181236D01*
X2184298Y-9179814D01*
X2183333Y-9177934D01*
X2182622Y-9175851D01*
X2182164Y-9173616D01*
X2182012Y-9171178D01*
X2150008Y-9171178D01*
X2150008Y-9208262D01*
X2305964Y-9208262D01*
X2305964Y-9229090D01*
X2234793Y-9228937D01*
X2209444Y-9227820D01*
X2209444Y-9228582D01*
X2305964Y-9258046D01*
X2305964Y-9278366D01*
X2209444Y-9307068D01*
X2209444Y-9307830D01*
X2231796Y-9306560D01*
X2238502Y-9306356D01*
X2305964Y-9306306D01*
X2305964Y-9326118D01*
X2188108Y-9326118D01*
X2188108Y-9295892D01*
X2280818Y-9267698D01*
X2280818Y-9267190D01*
X2188108Y-9238742D01*
X2188108Y-9208262D01*
X2150008Y-9208262D01*
X2150008Y-9300819D01*
X2150160Y-9306509D01*
X2150668Y-9312148D01*
X2151430Y-9317634D01*
X2152548Y-9323070D01*
X2153970Y-9328353D01*
X2155647Y-9333534D01*
X2157628Y-9338564D01*
X2159863Y-9343491D01*
X2162352Y-9348216D01*
X2165096Y-9352838D01*
X2171293Y-9361525D01*
X2178405Y-9369450D01*
X2182266Y-9373108D01*
X2190597Y-9379762D01*
X2195017Y-9382760D01*
X2199589Y-9385503D01*
X2204364Y-9387992D01*
X2209241Y-9390227D01*
X2214321Y-9392208D01*
X2219502Y-9393885D01*
X2224786Y-9395307D01*
X2230221Y-9396374D01*
X2235708Y-9397187D01*
X2241346Y-9397695D01*
X2247036Y-9397847D01*
X2252726Y-9397695D01*
X2258364Y-9397187D01*
X2263851Y-9396374D01*
X2269286Y-9395307D01*
X2274570Y-9393885D01*
X2279751Y-9392208D01*
X2284831Y-9390227D01*
X2289708Y-9387992D01*
X2294483Y-9385503D01*
X2299055Y-9382760D01*
X2303475Y-9379762D01*
X2311806Y-9373108D01*
X2319324Y-9365538D01*
X2322779Y-9361525D01*
X2328976Y-9352838D01*
X2331720Y-9348216D01*
X2334209Y-9343491D01*
X2336444Y-9338564D01*
X2338425Y-9333534D01*
X2340102Y-9328353D01*
X2341524Y-9323070D01*
X2342642Y-9317634D01*
X2343404Y-9312148D01*
X2343912Y-9306509D01*
X2344064Y-9300819D01*
X2344064Y-8749995D01*
X2343912Y-8744305D01*
X2343404Y-8738666D01*
X2342642Y-8733129D01*
X2341524Y-8727744D01*
X2340102Y-8722410D01*
X2338425Y-8717280D01*
X2336444Y-8712200D01*
X2334209Y-8707323D01*
X2331720Y-8702548D01*
X2328976Y-8697976D01*
X2322779Y-8689289D01*
X2319324Y-8685225D01*
X2315667Y-8681364D01*
X2311806Y-8677706D01*
X2307742Y-8674252D01*
X2299055Y-8668054D01*
X2294483Y-8665311D01*
X2289708Y-8662822D01*
X2284831Y-8660587D01*
X2279751Y-8658606D01*
X2274570Y-8656929D01*
X2269286Y-8655507D01*
X2263851Y-8654389D01*
X2258364Y-8653576D01*
X2252726Y-8653119D01*
G37*
G36*
X2246528Y-8747760D02*
G01*
X2239873Y-8747963D01*
X2233777Y-8748623D01*
X2228291Y-8749741D01*
X2223414Y-8751316D01*
X2219147Y-8753449D01*
X2215489Y-8755989D01*
X2212441Y-8759037D01*
X2209952Y-8762492D01*
X2208072Y-8766352D01*
X2206752Y-8770670D01*
X2205939Y-8775395D01*
X2205634Y-8780526D01*
X2205634Y-8793734D01*
X2288184Y-8793734D01*
X2288184Y-8783066D01*
X2287524Y-8774633D01*
X2285593Y-8767368D01*
X2282342Y-8761272D01*
X2277770Y-8756396D01*
X2271928Y-8752586D01*
X2264765Y-8749893D01*
X2256282Y-8748268D01*
G37*
G36*
X1433728Y-7705902D02*
G01*
X1427632Y-7706207D01*
X1422044Y-7707172D01*
X1417015Y-7708646D01*
X1412646Y-7710474D01*
X1408684Y-7712811D01*
X1405026Y-7715300D01*
X1412900Y-7726476D01*
X1415288Y-7724749D01*
X1421028Y-7721549D01*
X1424584Y-7720380D01*
X1428343Y-7719618D01*
X1432458Y-7719364D01*
X1435303Y-7719568D01*
X1437843Y-7720126D01*
X1440027Y-7721092D01*
X1441856Y-7722412D01*
X1443278Y-7724190D01*
X1444294Y-7726273D01*
X1444955Y-7728661D01*
X1445158Y-7731302D01*
X1444650Y-7735265D01*
X1443126Y-7738668D01*
X1442059Y-7740192D01*
X1440688Y-7741564D01*
X1439011Y-7742732D01*
X1437030Y-7743748D01*
X1434642Y-7744612D01*
X1431950Y-7745272D01*
X1425346Y-7745780D01*
X1418234Y-7745780D01*
X1418234Y-7758734D01*
X1428800Y-7758836D01*
X1432102Y-7759090D01*
X1437538Y-7760258D01*
X1439773Y-7761122D01*
X1441653Y-7762138D01*
X1443177Y-7763408D01*
X1444396Y-7764830D01*
X1445361Y-7766456D01*
X1446072Y-7768234D01*
X1446530Y-7770266D01*
X1446682Y-7772450D01*
X1446377Y-7775905D01*
X1445615Y-7778953D01*
X1444244Y-7781645D01*
X1442364Y-7783880D01*
X1439926Y-7785658D01*
X1436776Y-7786928D01*
X1432814Y-7787690D01*
X1428140Y-7787944D01*
X1422603Y-7787538D01*
X1416710Y-7786420D01*
X1410512Y-7784490D01*
X1404772Y-7781848D01*
X1404772Y-7796326D01*
X1410462Y-7798511D01*
X1416456Y-7800136D01*
X1422704Y-7801102D01*
X1429918Y-7801406D01*
X1435709Y-7801152D01*
X1440942Y-7800441D01*
X1445615Y-7799273D01*
X1449730Y-7797596D01*
X1453388Y-7795615D01*
X1456486Y-7793329D01*
X1459077Y-7790688D01*
X1461160Y-7787690D01*
X1462684Y-7784388D01*
X1463802Y-7780883D01*
X1464462Y-7777175D01*
X1464716Y-7773212D01*
X1464360Y-7768844D01*
X1463395Y-7764932D01*
X1461719Y-7761478D01*
X1459382Y-7758480D01*
X1456385Y-7755940D01*
X1452727Y-7753959D01*
X1448358Y-7752537D01*
X1443380Y-7751622D01*
X1443380Y-7751114D01*
X1446072Y-7750352D01*
X1450898Y-7748219D01*
X1455064Y-7745272D01*
X1456893Y-7743494D01*
X1458518Y-7741462D01*
X1459890Y-7739176D01*
X1460855Y-7736789D01*
X1461617Y-7734147D01*
X1462024Y-7731302D01*
X1462176Y-7728254D01*
X1461719Y-7723327D01*
X1460347Y-7718958D01*
X1458010Y-7715199D01*
X1454810Y-7711998D01*
X1450695Y-7709306D01*
X1445818Y-7707426D01*
X1440180Y-7706258D01*
G37*
G36*
X1261008Y-7707172D02*
G01*
X1261008Y-7721142D01*
X1285900Y-7721142D01*
X1291336Y-7721447D01*
X1295552Y-7722412D01*
X1297330Y-7723276D01*
X1298854Y-7724292D01*
X1300124Y-7725562D01*
X1302004Y-7728610D01*
X1302664Y-7730540D01*
X1303172Y-7735112D01*
X1302664Y-7739329D01*
X1302004Y-7741259D01*
X1300124Y-7744510D01*
X1298905Y-7745882D01*
X1297482Y-7747050D01*
X1295806Y-7748066D01*
X1293774Y-7748727D01*
X1288948Y-7749489D01*
X1278280Y-7749590D01*
X1278280Y-7721142D01*
X1261008Y-7721142D01*
X1261008Y-7799882D01*
X1278280Y-7799882D01*
X1278280Y-7763306D01*
X1289710Y-7763306D01*
X1309776Y-7799882D01*
X1329588Y-7799882D01*
X1304696Y-7759242D01*
X1308811Y-7756956D01*
X1312570Y-7754162D01*
X1315923Y-7750454D01*
X1317294Y-7748320D01*
X1319377Y-7743494D01*
X1320088Y-7740700D01*
X1320546Y-7737652D01*
X1320698Y-7734350D01*
X1320444Y-7729981D01*
X1319784Y-7725968D01*
X1318666Y-7722311D01*
X1317142Y-7719110D01*
X1315008Y-7716367D01*
X1312418Y-7713980D01*
X1309420Y-7711897D01*
X1305966Y-7710220D01*
X1301902Y-7708849D01*
X1297381Y-7707934D01*
X1292402Y-7707375D01*
X1286916Y-7707172D01*
G37*
G36*
X1364640Y-7707172D02*
G01*
X1337462Y-7729524D01*
X1346352Y-7739430D01*
X1356969Y-7730388D01*
X1362354Y-7724698D01*
X1362354Y-7730286D01*
X1362100Y-7734858D01*
X1362100Y-7799882D01*
X1379372Y-7799882D01*
X1379372Y-7707172D01*
G37*
G36*
X760831Y-6882180D02*
G01*
X760831Y-6896150D01*
X785977Y-6896150D01*
X791311Y-6896455D01*
X795629Y-6897420D01*
X797407Y-6898284D01*
X798931Y-6899300D01*
X800201Y-6900570D01*
X801217Y-6901992D01*
X802030Y-6903618D01*
X802589Y-6905548D01*
X802995Y-6910120D01*
X802894Y-6912305D01*
X802030Y-6916267D01*
X801217Y-6917994D01*
X800201Y-6919518D01*
X798931Y-6920890D01*
X797407Y-6922058D01*
X795629Y-6923074D01*
X793699Y-6923735D01*
X789025Y-6924497D01*
X778357Y-6924598D01*
X778357Y-6896150D01*
X760831Y-6896150D01*
X760831Y-6974890D01*
X778357Y-6974890D01*
X778357Y-6938314D01*
X789533Y-6938314D01*
X809853Y-6974890D01*
X829665Y-6974890D01*
X804519Y-6934250D01*
X808837Y-6931964D01*
X812647Y-6929170D01*
X815898Y-6925462D01*
X818489Y-6921042D01*
X819505Y-6918502D01*
X820216Y-6915708D01*
X820623Y-6912660D01*
X820775Y-6909358D01*
X820572Y-6904939D01*
X819861Y-6900976D01*
X818641Y-6897319D01*
X816965Y-6894118D01*
X814933Y-6891375D01*
X812393Y-6888937D01*
X809345Y-6886905D01*
X805789Y-6885228D01*
X801827Y-6883857D01*
X797356Y-6882942D01*
X792327Y-6882333D01*
G37*
G36*
X864463Y-6882180D02*
G01*
X837539Y-6904532D01*
X846429Y-6914438D01*
X856843Y-6905396D01*
X862431Y-6899706D01*
X861974Y-6915708D01*
X861923Y-6974890D01*
X879449Y-6974890D01*
X879449Y-6882180D01*
G37*
G36*
X911453Y-6882180D02*
G01*
X908151Y-6928154D01*
X915263Y-6932218D01*
X921613Y-6930694D01*
X925321Y-6930288D01*
X928725Y-6930186D01*
X933043Y-6930440D01*
X936752Y-6931202D01*
X939901Y-6932472D01*
X942441Y-6934250D01*
X944321Y-6936486D01*
X945692Y-6939178D01*
X946505Y-6942328D01*
X946759Y-6945934D01*
X946658Y-6948678D01*
X945642Y-6953402D01*
X943610Y-6957110D01*
X942187Y-6958634D01*
X940562Y-6959904D01*
X936650Y-6961682D01*
X934466Y-6962241D01*
X929487Y-6962698D01*
X923747Y-6962241D01*
X917549Y-6960920D01*
X911555Y-6959041D01*
X908964Y-6957923D01*
X906627Y-6956602D01*
X906627Y-6971334D01*
X911402Y-6973366D01*
X917041Y-6974890D01*
X923340Y-6976008D01*
X929995Y-6976414D01*
X935482Y-6976160D01*
X940511Y-6975398D01*
X945032Y-6974128D01*
X949045Y-6972350D01*
X952652Y-6970217D01*
X955700Y-6967677D01*
X958342Y-6964781D01*
X960475Y-6961428D01*
X962152Y-6957669D01*
X963371Y-6953605D01*
X964082Y-6949186D01*
X964285Y-6944410D01*
X964082Y-6940143D01*
X963421Y-6936181D01*
X962304Y-6932625D01*
X960729Y-6929424D01*
X958799Y-6926427D01*
X956564Y-6923836D01*
X953973Y-6921601D01*
X951077Y-6919772D01*
X947826Y-6918401D01*
X944321Y-6917486D01*
X940562Y-6916877D01*
X931011Y-6916826D01*
X924915Y-6917994D01*
X926439Y-6896404D01*
X958443Y-6896404D01*
X958443Y-6882180D01*
G37*
G36*
X675132Y-7085990D02*
G01*
X675132Y-7103262D01*
X753872Y-7103262D01*
X753770Y-7113778D01*
X753160Y-7118603D01*
X752602Y-7120534D01*
X751738Y-7122312D01*
X750671Y-7123836D01*
X749452Y-7125106D01*
X748030Y-7126122D01*
X746353Y-7126986D01*
X744474Y-7127646D01*
X739902Y-7128154D01*
X735634Y-7127646D01*
X732028Y-7126122D01*
X730453Y-7125106D01*
X729081Y-7123887D01*
X727913Y-7122464D01*
X726948Y-7120788D01*
X725779Y-7116470D01*
X725424Y-7111136D01*
X725424Y-7103262D01*
X711708Y-7103262D01*
X711708Y-7114692D01*
X675132Y-7134758D01*
X675132Y-7154570D01*
X715772Y-7129678D01*
X718058Y-7133793D01*
X720852Y-7137552D01*
X722579Y-7139330D01*
X724509Y-7140905D01*
X726643Y-7142276D01*
X731520Y-7144410D01*
X734314Y-7145121D01*
X737362Y-7145528D01*
X740664Y-7145680D01*
X745032Y-7145477D01*
X749046Y-7144766D01*
X752652Y-7143699D01*
X755904Y-7142124D01*
X758647Y-7139990D01*
X761034Y-7137400D01*
X763066Y-7134402D01*
X764794Y-7130948D01*
X766114Y-7126884D01*
X767080Y-7122363D01*
X767638Y-7117384D01*
X767842Y-7111898D01*
X767842Y-7085990D01*
G37*
G36*
X678688Y-7161174D02*
G01*
X677570Y-7163460D01*
X675792Y-7168642D01*
X673963Y-7178040D01*
X673608Y-7184796D01*
X673862Y-7190181D01*
X674624Y-7195058D01*
X675894Y-7199579D01*
X677672Y-7203592D01*
X679754Y-7207148D01*
X682294Y-7210247D01*
X685241Y-7212888D01*
X688594Y-7215022D01*
X692302Y-7216800D01*
X696366Y-7218070D01*
X700836Y-7218832D01*
X705612Y-7219086D01*
X709879Y-7218883D01*
X713790Y-7218172D01*
X717346Y-7217105D01*
X720598Y-7215530D01*
X723544Y-7213549D01*
X726186Y-7211263D01*
X728370Y-7208621D01*
X730250Y-7205624D01*
X731570Y-7202424D01*
X732536Y-7198969D01*
X733094Y-7195210D01*
X733145Y-7185659D01*
X732028Y-7179462D01*
X753618Y-7181240D01*
X753618Y-7212990D01*
X767842Y-7212990D01*
X767842Y-7166254D01*
X721868Y-7162952D01*
X717804Y-7170064D01*
X719328Y-7176160D01*
X719836Y-7183526D01*
X719582Y-7187793D01*
X718820Y-7191451D01*
X717550Y-7194499D01*
X715772Y-7196988D01*
X713486Y-7198969D01*
X710793Y-7200392D01*
X707644Y-7201255D01*
X704088Y-7201560D01*
X698804Y-7201052D01*
X696569Y-7200392D01*
X694690Y-7199528D01*
X692912Y-7198309D01*
X691388Y-7196836D01*
X690118Y-7195261D01*
X689102Y-7193432D01*
X688289Y-7191400D01*
X687730Y-7189165D01*
X687324Y-7184034D01*
X687730Y-7178243D01*
X689914Y-7169048D01*
X692099Y-7163562D01*
X693420Y-7161174D01*
G37*
G36*
X1000099Y-8360816D02*
G01*
X1000099Y-8378342D01*
X1078839Y-8378342D01*
X1078788Y-8388756D01*
X1078128Y-8393582D01*
X1077569Y-8395614D01*
X1076706Y-8397392D01*
X1075690Y-8398916D01*
X1074420Y-8400186D01*
X1072997Y-8401202D01*
X1071372Y-8402015D01*
X1069441Y-8402574D01*
X1064869Y-8402980D01*
X1060602Y-8402574D01*
X1058722Y-8402015D01*
X1056995Y-8401202D01*
X1055471Y-8400186D01*
X1054100Y-8398916D01*
X1052931Y-8397392D01*
X1051915Y-8395614D01*
X1051255Y-8393684D01*
X1050493Y-8389010D01*
X1050391Y-8378342D01*
X1036675Y-8378342D01*
X1036675Y-8389518D01*
X1000099Y-8409838D01*
X1000099Y-8429650D01*
X1040739Y-8404504D01*
X1043025Y-8408822D01*
X1045819Y-8412632D01*
X1049528Y-8415883D01*
X1053947Y-8418474D01*
X1056487Y-8419490D01*
X1059281Y-8420201D01*
X1062329Y-8420608D01*
X1065631Y-8420760D01*
X1070000Y-8420557D01*
X1074013Y-8419846D01*
X1077671Y-8418626D01*
X1080871Y-8416950D01*
X1083614Y-8414918D01*
X1086053Y-8412378D01*
X1088085Y-8409330D01*
X1089761Y-8405774D01*
X1091133Y-8401812D01*
X1092047Y-8397341D01*
X1092657Y-8392312D01*
X1092809Y-8360816D01*
G37*
G36*
X1023467Y-8434476D02*
G01*
X1019810Y-8434730D01*
X1016355Y-8435390D01*
X1013206Y-8436508D01*
X1010259Y-8438032D01*
X1007618Y-8439912D01*
X1005332Y-8442248D01*
X1003300Y-8444992D01*
X1001623Y-8448192D01*
X1000302Y-8451748D01*
X999337Y-8455710D01*
X998778Y-8460130D01*
X998586Y-8464702D01*
X1011275Y-8464702D01*
X1011529Y-8461502D01*
X1012190Y-8458657D01*
X1013307Y-8456269D01*
X1014831Y-8454288D01*
X1016863Y-8452764D01*
X1019098Y-8451646D01*
X1021537Y-8450986D01*
X1024229Y-8450732D01*
X1028039Y-8451138D01*
X1031341Y-8452256D01*
X1034440Y-8454288D01*
X1037183Y-8456828D01*
X1039621Y-8460130D01*
X1041755Y-8463940D01*
X1041078Y-8464956D01*
X1055725Y-8464956D01*
X1059535Y-8459368D01*
X1061720Y-8456930D01*
X1064107Y-8455050D01*
X1067155Y-8453932D01*
X1070711Y-8453526D01*
X1073150Y-8453729D01*
X1075283Y-8454390D01*
X1077214Y-8455406D01*
X1078839Y-8456828D01*
X1080058Y-8458454D01*
X1080922Y-8460333D01*
X1081481Y-8462416D01*
X1081633Y-8464702D01*
X1081481Y-8467140D01*
X1080922Y-8469274D01*
X1080058Y-8471204D01*
X1078839Y-8472830D01*
X1077214Y-8474303D01*
X1075283Y-8475319D01*
X1073150Y-8475929D01*
X1070711Y-8476132D01*
X1067155Y-8475776D01*
X1064107Y-8474608D01*
X1061516Y-8472678D01*
X1059281Y-8470290D01*
X1055725Y-8464956D01*
X1041078Y-8464956D01*
X1037793Y-8470544D01*
X1035405Y-8473541D01*
X1032611Y-8476081D01*
X1029614Y-8478062D01*
X1026210Y-8479078D01*
X1022400Y-8479078D01*
X1020622Y-8478774D01*
X1018946Y-8478215D01*
X1015949Y-8476538D01*
X1014730Y-8475472D01*
X1013663Y-8474151D01*
X1012139Y-8470950D01*
X1011377Y-8467039D01*
X1011275Y-8464702D01*
X998586Y-8464702D01*
X998778Y-8469630D01*
X999439Y-8473846D01*
X1000455Y-8477707D01*
X1001877Y-8481212D01*
X1003604Y-8484463D01*
X1005636Y-8487257D01*
X1008024Y-8489645D01*
X1010767Y-8491626D01*
X1013714Y-8493201D01*
X1016863Y-8494318D01*
X1020318Y-8494979D01*
X1023975Y-8495182D01*
X1027074Y-8495030D01*
X1029919Y-8494572D01*
X1032510Y-8493760D01*
X1034897Y-8492642D01*
X1039215Y-8489696D01*
X1041196Y-8487867D01*
X1044651Y-8483600D01*
X1049121Y-8476640D01*
X1051661Y-8480958D01*
X1054709Y-8484768D01*
X1058011Y-8487968D01*
X1061821Y-8490356D01*
X1064056Y-8491372D01*
X1066495Y-8492083D01*
X1069035Y-8492490D01*
X1071727Y-8492642D01*
X1075283Y-8492439D01*
X1078534Y-8491677D01*
X1081481Y-8490508D01*
X1084173Y-8488832D01*
X1086459Y-8486902D01*
X1088440Y-8484666D01*
X1090117Y-8482076D01*
X1091539Y-8479180D01*
X1092657Y-8475929D01*
X1093470Y-8472474D01*
X1093927Y-8468817D01*
X1094079Y-8464956D01*
X1093927Y-8461248D01*
X1093470Y-8457590D01*
X1092657Y-8454085D01*
X1091539Y-8450732D01*
X1090117Y-8447735D01*
X1088440Y-8445093D01*
X1086459Y-8442807D01*
X1084173Y-8440826D01*
X1081532Y-8439302D01*
X1078585Y-8438184D01*
X1075436Y-8437524D01*
X1071981Y-8437270D01*
X1069187Y-8437372D01*
X1064107Y-8438286D01*
X1061821Y-8439048D01*
X1057960Y-8441334D01*
X1054455Y-8444128D01*
X1051306Y-8447633D01*
X1048359Y-8451494D01*
X1045819Y-8447074D01*
X1042771Y-8442858D01*
X1038961Y-8439454D01*
X1034643Y-8436762D01*
X1032154Y-8435797D01*
X1029462Y-8435035D01*
X1026566Y-8434628D01*
G37*
G36*
X638606Y-5555742D02*
G01*
X632307Y-5556046D01*
X626668Y-5557012D01*
X621792Y-5558536D01*
X617270Y-5560568D01*
X613308Y-5562752D01*
X609650Y-5565140D01*
X617524Y-5576570D01*
X622604Y-5573014D01*
X625652Y-5571642D01*
X629208Y-5570474D01*
X632968Y-5569712D01*
X637082Y-5569458D01*
X639927Y-5569661D01*
X642467Y-5570220D01*
X644652Y-5571185D01*
X646480Y-5572506D01*
X647903Y-5574182D01*
X648970Y-5576163D01*
X649579Y-5578500D01*
X649782Y-5581142D01*
X649274Y-5585206D01*
X647750Y-5588762D01*
X646684Y-5590336D01*
X645312Y-5591657D01*
X643636Y-5592876D01*
X641654Y-5593842D01*
X639318Y-5594604D01*
X636574Y-5595162D01*
X633476Y-5595518D01*
X623112Y-5595620D01*
X623112Y-5608828D01*
X633476Y-5608929D01*
X639826Y-5609691D01*
X642416Y-5610352D01*
X646328Y-5612180D01*
X647852Y-5613349D01*
X649020Y-5614670D01*
X650036Y-5616295D01*
X650748Y-5618175D01*
X651154Y-5620258D01*
X651306Y-5622544D01*
X651052Y-5625896D01*
X650240Y-5628894D01*
X648868Y-5631484D01*
X646988Y-5633720D01*
X644550Y-5635498D01*
X641400Y-5636768D01*
X637438Y-5637530D01*
X632764Y-5637784D01*
X627227Y-5637377D01*
X621334Y-5636260D01*
X615188Y-5634329D01*
X609396Y-5631688D01*
X609396Y-5646166D01*
X615086Y-5648401D01*
X621080Y-5649976D01*
X627481Y-5650941D01*
X634542Y-5651246D01*
X640334Y-5651042D01*
X645566Y-5650331D01*
X650240Y-5649264D01*
X654354Y-5647690D01*
X658012Y-5645708D01*
X661162Y-5643372D01*
X663752Y-5640628D01*
X665784Y-5637530D01*
X667359Y-5634278D01*
X668426Y-5630773D01*
X669137Y-5627166D01*
X669340Y-5623306D01*
X668985Y-5618835D01*
X668020Y-5614873D01*
X666343Y-5611368D01*
X664006Y-5608320D01*
X661009Y-5605780D01*
X657352Y-5603798D01*
X652983Y-5602376D01*
X648004Y-5601462D01*
X648004Y-5601208D01*
X653288Y-5599379D01*
X657910Y-5596890D01*
X661568Y-5593486D01*
X664514Y-5589270D01*
X665632Y-5586882D01*
X666394Y-5584240D01*
X666902Y-5581396D01*
X667054Y-5578348D01*
X666597Y-5573420D01*
X665124Y-5569000D01*
X662787Y-5565140D01*
X659434Y-5561838D01*
X655370Y-5559145D01*
X650544Y-5557266D01*
X644956Y-5556097D01*
G37*
G36*
X535990Y-5557266D02*
G01*
X535990Y-5570982D01*
X561136Y-5570982D01*
X566420Y-5571337D01*
X570534Y-5572506D01*
X572312Y-5573268D01*
X573836Y-5574233D01*
X575106Y-5575401D01*
X576986Y-5578449D01*
X577646Y-5580380D01*
X578154Y-5584952D01*
X577646Y-5589422D01*
X576986Y-5591352D01*
X575106Y-5594604D01*
X573887Y-5595924D01*
X572465Y-5597042D01*
X568756Y-5598668D01*
X564083Y-5599582D01*
X553262Y-5599684D01*
X553262Y-5570982D01*
X535990Y-5570982D01*
X535990Y-5649976D01*
X553262Y-5649976D01*
X553262Y-5613400D01*
X564692Y-5613400D01*
X584758Y-5649976D01*
X604570Y-5649976D01*
X579678Y-5609082D01*
X583793Y-5606948D01*
X589330Y-5602376D01*
X590905Y-5600496D01*
X592277Y-5598414D01*
X594410Y-5593588D01*
X595122Y-5590794D01*
X595528Y-5587746D01*
X595680Y-5584444D01*
X595477Y-5580075D01*
X594766Y-5576062D01*
X593699Y-5572455D01*
X592124Y-5569204D01*
X589991Y-5566359D01*
X587400Y-5563870D01*
X584403Y-5561787D01*
X580948Y-5560060D01*
X576884Y-5558840D01*
X572363Y-5557977D01*
X567385Y-5557418D01*
G37*
G36*
X1470456Y-6531864D02*
G01*
X1432492Y-6591808D01*
X1447342Y-6591808D01*
X1465732Y-6559550D01*
X1470202Y-6550659D01*
X1470710Y-6550659D01*
X1469948Y-6565392D01*
X1469948Y-6591808D01*
X1432492Y-6591808D01*
X1431848Y-6592824D01*
X1431848Y-6605016D01*
X1469948Y-6605016D01*
X1469948Y-6625081D01*
X1486966Y-6625081D01*
X1486966Y-6605016D01*
X1497888Y-6605016D01*
X1497888Y-6591808D01*
X1486966Y-6591808D01*
X1486966Y-6531864D01*
G37*
G36*
X1360982Y-6532118D02*
G01*
X1360982Y-6546088D01*
X1386128Y-6546088D01*
X1391412Y-6546392D01*
X1395526Y-6547357D01*
X1397304Y-6548221D01*
X1398828Y-6549237D01*
X1400098Y-6550507D01*
X1402029Y-6553555D01*
X1403045Y-6557619D01*
X1403045Y-6562344D01*
X1402029Y-6566408D01*
X1401114Y-6568186D01*
X1398879Y-6570878D01*
X1397457Y-6572046D01*
X1395780Y-6573012D01*
X1393748Y-6573774D01*
X1391513Y-6574332D01*
X1386382Y-6574790D01*
X1378254Y-6574790D01*
X1378254Y-6546088D01*
X1360982Y-6546088D01*
X1360982Y-6625081D01*
X1378254Y-6625081D01*
X1378254Y-6588252D01*
X1389684Y-6588252D01*
X1409750Y-6625081D01*
X1429562Y-6625081D01*
X1404670Y-6584188D01*
X1408785Y-6581902D01*
X1412544Y-6579108D01*
X1415897Y-6575399D01*
X1417269Y-6573266D01*
X1419402Y-6568440D01*
X1420114Y-6565696D01*
X1420520Y-6562699D01*
X1420672Y-6559550D01*
X1420469Y-6555079D01*
X1419758Y-6551015D01*
X1418691Y-6547459D01*
X1417116Y-6544309D01*
X1414983Y-6541414D01*
X1412392Y-6538976D01*
X1409395Y-6536842D01*
X1405940Y-6535166D01*
X1401876Y-6533794D01*
X1397355Y-6532880D01*
X1392377Y-6532270D01*
G37*
G36*
X999998Y-7760817D02*
G01*
X999998Y-7778343D01*
X1078992Y-7778343D01*
X1078890Y-7788757D01*
X1078128Y-7793583D01*
X1076706Y-7797393D01*
X1075740Y-7798917D01*
X1074572Y-7800187D01*
X1073150Y-7801203D01*
X1071473Y-7801965D01*
X1069594Y-7802524D01*
X1067409Y-7802880D01*
X1062685Y-7802880D01*
X1058621Y-7801965D01*
X1056894Y-7801203D01*
X1055319Y-7800187D01*
X1053998Y-7798917D01*
X1052931Y-7797393D01*
X1051255Y-7793685D01*
X1050696Y-7791500D01*
X1050290Y-7786217D01*
X1050290Y-7778343D01*
X1036574Y-7778343D01*
X1036574Y-7789519D01*
X999998Y-7809839D01*
X999998Y-7829651D01*
X1040892Y-7804505D01*
X1043025Y-7808823D01*
X1045971Y-7812633D01*
X1049578Y-7815884D01*
X1053846Y-7818475D01*
X1056386Y-7819491D01*
X1059180Y-7820202D01*
X1062228Y-7820609D01*
X1065530Y-7820761D01*
X1069898Y-7820507D01*
X1073912Y-7819796D01*
X1077518Y-7818628D01*
X1080770Y-7816951D01*
X1083614Y-7814919D01*
X1086104Y-7812379D01*
X1088186Y-7809331D01*
X1089914Y-7805775D01*
X1091133Y-7801813D01*
X1091996Y-7797342D01*
X1092504Y-7792313D01*
X1092708Y-7786725D01*
X1092708Y-7760817D01*
G37*
G36*
X1070610Y-7837525D02*
G01*
X1060450Y-7846415D01*
X1071372Y-7858709D01*
X1075436Y-7862417D01*
X1069848Y-7862163D01*
X999998Y-7862163D01*
X999998Y-7879435D01*
X1092708Y-7879435D01*
X1092708Y-7864449D01*
G37*
G36*
X1019810Y-7902295D02*
G01*
X1019810Y-7917789D01*
X1033271Y-7917789D01*
X1065530Y-7936230D01*
X1074420Y-7940395D01*
X1074420Y-7940903D01*
X1061161Y-7940395D01*
X1033271Y-7940395D01*
X1033271Y-7917789D01*
X1019810Y-7917789D01*
X1019810Y-7940395D01*
X999998Y-7940395D01*
X999998Y-7957413D01*
X1019810Y-7957413D01*
X1019810Y-7968335D01*
X1033271Y-7968335D01*
X1033271Y-7957413D01*
X1093216Y-7957413D01*
X1093216Y-7940903D01*
X1032002Y-7902295D01*
G37*
G36*
X1848612Y-5680964D02*
G01*
X1843786Y-5681167D01*
X1839214Y-5681776D01*
X1834896Y-5682843D01*
X1830832Y-5684266D01*
X1827072Y-5686196D01*
X1823618Y-5688533D01*
X1820468Y-5691174D01*
X1817624Y-5694172D01*
X1815134Y-5697524D01*
X1812899Y-5701131D01*
X1811070Y-5705144D01*
X1809496Y-5709412D01*
X1808378Y-5713831D01*
X1807565Y-5718505D01*
X1807108Y-5723382D01*
X1806956Y-5728462D01*
X1808022Y-5742076D01*
X1811274Y-5753862D01*
X1813712Y-5758891D01*
X1816760Y-5763310D01*
X1820316Y-5767171D01*
X1824482Y-5770372D01*
X1829206Y-5772912D01*
X1834489Y-5774740D01*
X1840382Y-5775858D01*
X1846834Y-5776214D01*
X1853539Y-5775960D01*
X1859534Y-5775198D01*
X1865274Y-5773877D01*
X1870710Y-5771896D01*
X1870710Y-5757672D01*
X1865172Y-5759500D01*
X1859788Y-5760974D01*
X1854403Y-5761939D01*
X1848866Y-5762244D01*
X1844954Y-5761990D01*
X1841449Y-5761228D01*
X1838248Y-5759958D01*
X1835404Y-5758180D01*
X1832914Y-5755944D01*
X1830781Y-5753303D01*
X1828952Y-5750204D01*
X1827530Y-5746750D01*
X1826412Y-5742787D01*
X1825650Y-5738418D01*
X1825142Y-5733745D01*
X1825091Y-5724906D01*
X1825853Y-5717895D01*
X1827377Y-5711698D01*
X1828393Y-5708904D01*
X1829663Y-5706364D01*
X1832711Y-5701944D01*
X1834489Y-5700064D01*
X1836521Y-5698490D01*
X1840941Y-5696204D01*
X1843328Y-5695492D01*
X1845919Y-5695086D01*
X1851253Y-5695035D01*
X1856333Y-5695950D01*
X1863547Y-5698540D01*
X1868170Y-5700522D01*
X1874012Y-5687060D01*
X1871370Y-5685637D01*
X1865375Y-5683351D01*
X1858670Y-5681827D01*
X1851914Y-5681065D01*
G37*
G36*
X1882393Y-5682234D02*
G01*
X1882393Y-5696458D01*
X1925320Y-5696458D01*
X1892300Y-5774944D01*
X1910588Y-5774944D01*
X1943862Y-5693156D01*
X1943862Y-5682234D01*
G37*
G36*
X198628Y-7005828D02*
G01*
X193802Y-7006031D01*
X189230Y-7006691D01*
X184912Y-7007809D01*
X180848Y-7009384D01*
X177088Y-7011314D01*
X173634Y-7013651D01*
X170484Y-7016292D01*
X167640Y-7019290D01*
X165150Y-7022592D01*
X162915Y-7026198D01*
X161086Y-7030110D01*
X159512Y-7034275D01*
X158394Y-7038797D01*
X157581Y-7043521D01*
X157124Y-7048449D01*
X156972Y-7053580D01*
X158038Y-7067092D01*
X161290Y-7078725D01*
X163728Y-7083755D01*
X166776Y-7088276D01*
X170332Y-7092137D01*
X174498Y-7095490D01*
X179222Y-7098030D01*
X184505Y-7099858D01*
X190398Y-7100976D01*
X196850Y-7101331D01*
X203606Y-7101078D01*
X209550Y-7100316D01*
X215239Y-7098893D01*
X220725Y-7096759D01*
X220725Y-7082790D01*
X215188Y-7084618D01*
X209804Y-7086092D01*
X204419Y-7087057D01*
X198882Y-7087362D01*
X194970Y-7087108D01*
X191465Y-7086346D01*
X188264Y-7085075D01*
X185420Y-7083298D01*
X182930Y-7081062D01*
X180797Y-7078370D01*
X178968Y-7075220D01*
X177546Y-7071614D01*
X176428Y-7067702D01*
X175615Y-7063435D01*
X175158Y-7058710D01*
X175107Y-7049871D01*
X175361Y-7046264D01*
X176530Y-7039609D01*
X178460Y-7033869D01*
X181102Y-7028942D01*
X182727Y-7026909D01*
X184556Y-7025131D01*
X186537Y-7023608D01*
X190957Y-7021220D01*
X193344Y-7020407D01*
X195935Y-7019950D01*
X201269Y-7019899D01*
X206349Y-7020814D01*
X211175Y-7022490D01*
X218186Y-7025640D01*
X224028Y-7011924D01*
X218490Y-7009434D01*
X212090Y-7007606D01*
X205282Y-7006285D01*
G37*
G36*
X263144Y-7006081D02*
G01*
X259435Y-7006234D01*
X255828Y-7006640D01*
X252425Y-7007352D01*
X249174Y-7008368D01*
X246176Y-7009790D01*
X243535Y-7011568D01*
X241198Y-7013600D01*
X239267Y-7015988D01*
X237591Y-7018578D01*
X236423Y-7021423D01*
X235712Y-7024674D01*
X235496Y-7029196D01*
X251967Y-7029196D01*
X252171Y-7026808D01*
X252729Y-7024674D01*
X253695Y-7022846D01*
X255016Y-7021322D01*
X256743Y-7020001D01*
X258724Y-7019036D01*
X260807Y-7018477D01*
X263144Y-7018274D01*
X265480Y-7018477D01*
X267614Y-7019036D01*
X269544Y-7020001D01*
X271272Y-7021322D01*
X272592Y-7022846D01*
X273558Y-7024674D01*
X274116Y-7026808D01*
X274320Y-7029196D01*
X273913Y-7032853D01*
X273456Y-7034428D01*
X271983Y-7037171D01*
X269951Y-7039559D01*
X263398Y-7044181D01*
X257556Y-7040372D01*
X255270Y-7038340D01*
X253492Y-7035800D01*
X252323Y-7032752D01*
X251967Y-7029196D01*
X235496Y-7029196D01*
X235966Y-7033463D01*
X237490Y-7038086D01*
X239623Y-7041997D01*
X242570Y-7045706D01*
X245973Y-7048804D01*
X249682Y-7051548D01*
X245313Y-7054138D01*
X241300Y-7057390D01*
X239471Y-7059117D01*
X236423Y-7063181D01*
X234188Y-7067905D01*
X233476Y-7070547D01*
X232956Y-7075678D01*
X249174Y-7075678D01*
X249529Y-7071868D01*
X250698Y-7068566D01*
X252577Y-7065670D01*
X255270Y-7062978D01*
X258368Y-7060488D01*
X262128Y-7058152D01*
X265633Y-7060082D01*
X268935Y-7062266D01*
X271932Y-7064654D01*
X274370Y-7067346D01*
X276250Y-7070394D01*
X276860Y-7072071D01*
X277368Y-7075678D01*
X277012Y-7079284D01*
X275844Y-7082536D01*
X273761Y-7085228D01*
X271018Y-7087108D01*
X269392Y-7087870D01*
X265430Y-7088784D01*
X263144Y-7088886D01*
X259791Y-7088631D01*
X256946Y-7087920D01*
X254457Y-7086752D01*
X252475Y-7085075D01*
X251053Y-7083145D01*
X249986Y-7080961D01*
X249377Y-7078472D01*
X249174Y-7075678D01*
X232956Y-7075678D01*
X233121Y-7080097D01*
X233730Y-7083552D01*
X234797Y-7086752D01*
X236220Y-7089648D01*
X238201Y-7092289D01*
X240538Y-7094575D01*
X243281Y-7096607D01*
X246379Y-7098284D01*
X250037Y-7099604D01*
X254050Y-7100570D01*
X258521Y-7101128D01*
X263398Y-7101331D01*
X267919Y-7101128D01*
X272186Y-7100570D01*
X276047Y-7099604D01*
X279654Y-7098284D01*
X282803Y-7096506D01*
X285546Y-7094423D01*
X287985Y-7092035D01*
X290068Y-7089394D01*
X291642Y-7086346D01*
X292760Y-7083094D01*
X293420Y-7079640D01*
X293624Y-7075931D01*
X293471Y-7072884D01*
X292912Y-7070039D01*
X292049Y-7067397D01*
X289458Y-7062825D01*
X287934Y-7060742D01*
X284226Y-7057136D01*
X279755Y-7053834D01*
X275082Y-7051040D01*
X279400Y-7048398D01*
X283210Y-7045452D01*
X286410Y-7041946D01*
X288798Y-7038086D01*
X290322Y-7033463D01*
X290830Y-7028180D01*
X290626Y-7024674D01*
X289915Y-7021423D01*
X288848Y-7018578D01*
X287274Y-7015988D01*
X285343Y-7013600D01*
X283006Y-7011517D01*
X280365Y-7009790D01*
X277368Y-7008368D01*
X274218Y-7007352D01*
X270764Y-7006640D01*
X267055Y-7006234D01*
G37*
G36*
X1246378Y-9031986D02*
G01*
X1232865Y-9033002D01*
X1221232Y-9036050D01*
X1216202Y-9038488D01*
X1211783Y-9041536D01*
X1207922Y-9045092D01*
X1204722Y-9049258D01*
X1202029Y-9053982D01*
X1200150Y-9059367D01*
X1198981Y-9065310D01*
X1198626Y-9071864D01*
X1198880Y-9078620D01*
X1199642Y-9084564D01*
X1201013Y-9090101D01*
X1203198Y-9095486D01*
X1217168Y-9095486D01*
X1215339Y-9090152D01*
X1213866Y-9084818D01*
X1213104Y-9079433D01*
X1212850Y-9073896D01*
X1213104Y-9069984D01*
X1213815Y-9066479D01*
X1214983Y-9063278D01*
X1216660Y-9060434D01*
X1218895Y-9057944D01*
X1221587Y-9055811D01*
X1224737Y-9053982D01*
X1228344Y-9052560D01*
X1232255Y-9051442D01*
X1236522Y-9050680D01*
X1241247Y-9050172D01*
X1250086Y-9050121D01*
X1257096Y-9050883D01*
X1260348Y-9051544D01*
X1266088Y-9053474D01*
X1271016Y-9056116D01*
X1274826Y-9059468D01*
X1276350Y-9061399D01*
X1277620Y-9063482D01*
X1278737Y-9065818D01*
X1279550Y-9068257D01*
X1280007Y-9070746D01*
X1280160Y-9073388D01*
X1280058Y-9076131D01*
X1279144Y-9081363D01*
X1277467Y-9086189D01*
X1274318Y-9093200D01*
X1288034Y-9099042D01*
X1290574Y-9093504D01*
X1292606Y-9087104D01*
X1293723Y-9080195D01*
X1294130Y-9073642D01*
X1293926Y-9068714D01*
X1293215Y-9064091D01*
X1292148Y-9059824D01*
X1290574Y-9055862D01*
X1288643Y-9052102D01*
X1286306Y-9048648D01*
X1283665Y-9045498D01*
X1280668Y-9042654D01*
X1277366Y-9040164D01*
X1273759Y-9037980D01*
X1269847Y-9036100D01*
X1265682Y-9034526D01*
X1261211Y-9033408D01*
X1256538Y-9032646D01*
X1251610Y-9032138D01*
G37*
G36*
X1270508Y-9110726D02*
G01*
X1260348Y-9119616D01*
X1269593Y-9130233D01*
X1275334Y-9135618D01*
X1269746Y-9135618D01*
X1265174Y-9135364D01*
X1199896Y-9135364D01*
X1199896Y-9152636D01*
X1292860Y-9152636D01*
X1292860Y-9137904D01*
G37*
G36*
X1246378Y-9178290D02*
G01*
X1232662Y-9179052D01*
X1220978Y-9181338D01*
X1215847Y-9183217D01*
X1211376Y-9185452D01*
X1207617Y-9188145D01*
X1204468Y-9191244D01*
X1201928Y-9194901D01*
X1200099Y-9198965D01*
X1198981Y-9203537D01*
X1198626Y-9208516D01*
X1212342Y-9208516D01*
X1212596Y-9206230D01*
X1213307Y-9204147D01*
X1214475Y-9202267D01*
X1216152Y-9200642D01*
X1218285Y-9199372D01*
X1220927Y-9198305D01*
X1224026Y-9197441D01*
X1231595Y-9196273D01*
X1240993Y-9195663D01*
X1251966Y-9195663D01*
X1261465Y-9196273D01*
X1268984Y-9197441D01*
X1272082Y-9198305D01*
X1274724Y-9199372D01*
X1276858Y-9200642D01*
X1278534Y-9202267D01*
X1279702Y-9204147D01*
X1280414Y-9206230D01*
X1280668Y-9208516D01*
X1280414Y-9210802D01*
X1279702Y-9212834D01*
X1278534Y-9214612D01*
X1276858Y-9216136D01*
X1274724Y-9217456D01*
X1268984Y-9219488D01*
X1261364Y-9220758D01*
X1251864Y-9221368D01*
X1240993Y-9221368D01*
X1231493Y-9220758D01*
X1223772Y-9219488D01*
X1218031Y-9217456D01*
X1215898Y-9216136D01*
X1214323Y-9214612D01*
X1213256Y-9212834D01*
X1212545Y-9210802D01*
X1212342Y-9208516D01*
X1198626Y-9208516D01*
X1198829Y-9212427D01*
X1199438Y-9216085D01*
X1200505Y-9219438D01*
X1201928Y-9222486D01*
X1203756Y-9225280D01*
X1205941Y-9227769D01*
X1208430Y-9229953D01*
X1211326Y-9231884D01*
X1214526Y-9233509D01*
X1218133Y-9234932D01*
X1222044Y-9236049D01*
X1230934Y-9237726D01*
X1241094Y-9238640D01*
X1246632Y-9238742D01*
X1260398Y-9237929D01*
X1272286Y-9235440D01*
X1277315Y-9233560D01*
X1281684Y-9231325D01*
X1285443Y-9228632D01*
X1288542Y-9225534D01*
X1290980Y-9221876D01*
X1292707Y-9217863D01*
X1293774Y-9213392D01*
X1294130Y-9208516D01*
X1293774Y-9203232D01*
X1292707Y-9198508D01*
X1290980Y-9194342D01*
X1288542Y-9190736D01*
X1285341Y-9187637D01*
X1281480Y-9184995D01*
X1277061Y-9182811D01*
X1272032Y-9181084D01*
X1260297Y-9179001D01*
G37*
G36*
X246379Y-7156958D02*
G01*
X232867Y-7158024D01*
X221234Y-7161275D01*
X216204Y-7163714D01*
X211785Y-7166762D01*
X207924Y-7170318D01*
X204724Y-7174484D01*
X202031Y-7179208D01*
X200152Y-7184491D01*
X199034Y-7190384D01*
X198628Y-7196836D01*
X198882Y-7203541D01*
X199644Y-7209536D01*
X201015Y-7215276D01*
X203200Y-7220712D01*
X217170Y-7220712D01*
X215341Y-7215174D01*
X213867Y-7209790D01*
X213106Y-7204405D01*
X212852Y-7198868D01*
X213106Y-7194956D01*
X213817Y-7191451D01*
X214985Y-7188250D01*
X216662Y-7185406D01*
X218897Y-7182916D01*
X221589Y-7180783D01*
X224739Y-7178954D01*
X228346Y-7177531D01*
X232257Y-7176414D01*
X236524Y-7175652D01*
X241249Y-7175144D01*
X250088Y-7175093D01*
X253695Y-7175347D01*
X260350Y-7176516D01*
X266039Y-7178395D01*
X271018Y-7181088D01*
X273050Y-7182713D01*
X274828Y-7184491D01*
X276352Y-7186523D01*
X278739Y-7190943D01*
X279552Y-7193330D01*
X280009Y-7195921D01*
X280060Y-7201255D01*
X279146Y-7206335D01*
X277469Y-7211161D01*
X274320Y-7218172D01*
X288036Y-7224014D01*
X290576Y-7218476D01*
X292608Y-7212075D01*
X293776Y-7205268D01*
X294132Y-7198614D01*
X293928Y-7193788D01*
X293268Y-7189216D01*
X292150Y-7184898D01*
X290576Y-7180834D01*
X288645Y-7177074D01*
X286308Y-7173620D01*
X283667Y-7170470D01*
X280670Y-7167625D01*
X277368Y-7165136D01*
X273761Y-7162952D01*
X269849Y-7161072D01*
X265684Y-7159498D01*
X261213Y-7158380D01*
X256540Y-7157618D01*
X251561Y-7157110D01*
G37*
G36*
X270510Y-7235698D02*
G01*
X260350Y-7244588D01*
X271373Y-7256983D01*
X275336Y-7260844D01*
X263652Y-7260336D01*
X199898Y-7260336D01*
X199898Y-7277608D01*
X292862Y-7277608D01*
X292862Y-7262875D01*
G37*
G36*
X270510Y-7306056D02*
G01*
X260350Y-7314946D01*
X271373Y-7327341D01*
X275336Y-7331202D01*
X263652Y-7330694D01*
X199898Y-7330694D01*
X199898Y-7347966D01*
X292862Y-7347966D01*
X292862Y-7333234D01*
G37*
G36*
X1923542Y-9230868D02*
G01*
X1918716Y-9231071D01*
X1914143Y-9231731D01*
X1909825Y-9232849D01*
X1905762Y-9234424D01*
X1902002Y-9236354D01*
X1898599Y-9238691D01*
X1895500Y-9241332D01*
X1892807Y-9244330D01*
X1890318Y-9247632D01*
X1888134Y-9251238D01*
X1886254Y-9255150D01*
X1884680Y-9259316D01*
X1883460Y-9263786D01*
X1882597Y-9268460D01*
X1882038Y-9273438D01*
X1881886Y-9278620D01*
X1882952Y-9292132D01*
X1886204Y-9303766D01*
X1888642Y-9308795D01*
X1891639Y-9313214D01*
X1895246Y-9317075D01*
X1899412Y-9320276D01*
X1904136Y-9322968D01*
X1909521Y-9324848D01*
X1915464Y-9325965D01*
X1922018Y-9326372D01*
X1928622Y-9326118D01*
X1934718Y-9325356D01*
X1940255Y-9323832D01*
X1945639Y-9321800D01*
X1945639Y-9307576D01*
X1940102Y-9309557D01*
X1934718Y-9310878D01*
X1929333Y-9311843D01*
X1923796Y-9312148D01*
X1920036Y-9311894D01*
X1916531Y-9311132D01*
X1913432Y-9309862D01*
X1910588Y-9308084D01*
X1908098Y-9305950D01*
X1905863Y-9303308D01*
X1904034Y-9300210D01*
X1902460Y-9296654D01*
X1901342Y-9292742D01*
X1900580Y-9288475D01*
X1900072Y-9283750D01*
X1900021Y-9274911D01*
X1900783Y-9267901D01*
X1902307Y-9261602D01*
X1904593Y-9256268D01*
X1906016Y-9253982D01*
X1909572Y-9250121D01*
X1911553Y-9248495D01*
X1913636Y-9247124D01*
X1915871Y-9246108D01*
X1918258Y-9245396D01*
X1920849Y-9244990D01*
X1926183Y-9244939D01*
X1931263Y-9245854D01*
X1936191Y-9247530D01*
X1943354Y-9250680D01*
X1949196Y-9236964D01*
X1943455Y-9234424D01*
X1937004Y-9232392D01*
X1930196Y-9231223D01*
G37*
G36*
X2058670Y-9230868D02*
G01*
X2055114Y-9230969D01*
X2048611Y-9231884D01*
X2043023Y-9233509D01*
X2038197Y-9235643D01*
X2034032Y-9238386D01*
X2028189Y-9243314D01*
X2037588Y-9253982D01*
X2042515Y-9250121D01*
X2047239Y-9247124D01*
X2049576Y-9246108D01*
X2052015Y-9245396D01*
X2054504Y-9244990D01*
X2057146Y-9244838D01*
X2059584Y-9245041D01*
X2061768Y-9245600D01*
X2063750Y-9246565D01*
X2065528Y-9247886D01*
X2066848Y-9249714D01*
X2067814Y-9251950D01*
X2068372Y-9254540D01*
X2068575Y-9257538D01*
X2068474Y-9260027D01*
X2067560Y-9264853D01*
X2066798Y-9267190D01*
X2064461Y-9271711D01*
X2060956Y-9276588D01*
X2056231Y-9282379D01*
X2028189Y-9312910D01*
X2028189Y-9325102D01*
X2088642Y-9325102D01*
X2088642Y-9310878D01*
X2050034Y-9310878D01*
X2050034Y-9310116D01*
X2074468Y-9282988D01*
X2078126Y-9278162D01*
X2081174Y-9273540D01*
X2083612Y-9268815D01*
X2084578Y-9266428D01*
X2085695Y-9261348D01*
X2086102Y-9255760D01*
X2085898Y-9252204D01*
X2085289Y-9248851D01*
X2084222Y-9245701D01*
X2082800Y-9242806D01*
X2080869Y-9240164D01*
X2078634Y-9237776D01*
X2076043Y-9235694D01*
X2073148Y-9233916D01*
X2069947Y-9232595D01*
X2066493Y-9231630D01*
X2062734Y-9231071D01*
G37*
G36*
X1987804Y-9232138D02*
G01*
X1960880Y-9254490D01*
X1969516Y-9264650D01*
X1981911Y-9253626D01*
X1985772Y-9249664D01*
X1985568Y-9252356D01*
X1985518Y-9261348D01*
X1985264Y-9265666D01*
X1985264Y-9325102D01*
X2002536Y-9325102D01*
X2002536Y-9232138D01*
G37*
G36*
X323596Y-9205976D02*
G01*
X318770Y-9206179D01*
X314198Y-9206788D01*
X309880Y-9207855D01*
X305816Y-9209278D01*
X302056Y-9211208D01*
X298602Y-9213545D01*
X295452Y-9216186D01*
X292608Y-9219184D01*
X290118Y-9222536D01*
X287985Y-9226143D01*
X286156Y-9230156D01*
X283514Y-9238843D01*
X282651Y-9243517D01*
X282092Y-9248394D01*
X281940Y-9253474D01*
X283006Y-9266986D01*
X286258Y-9278620D01*
X288696Y-9283750D01*
X291744Y-9288272D01*
X295300Y-9292132D01*
X299466Y-9295384D01*
X304190Y-9297924D01*
X309524Y-9299752D01*
X315366Y-9300870D01*
X321818Y-9301226D01*
X328523Y-9300972D01*
X334518Y-9300210D01*
X340207Y-9298889D01*
X345694Y-9296908D01*
X345694Y-9282684D01*
X340156Y-9284512D01*
X334772Y-9285986D01*
X329387Y-9286951D01*
X323850Y-9287256D01*
X319938Y-9287002D01*
X316433Y-9286240D01*
X313232Y-9284970D01*
X310388Y-9283192D01*
X307898Y-9280956D01*
X305765Y-9278315D01*
X303936Y-9275216D01*
X302514Y-9271762D01*
X301396Y-9267799D01*
X300634Y-9263430D01*
X300126Y-9258757D01*
X300075Y-9249918D01*
X300329Y-9246311D01*
X301498Y-9239758D01*
X303377Y-9233916D01*
X304647Y-9231376D01*
X307695Y-9226956D01*
X309524Y-9225076D01*
X311505Y-9223502D01*
X315925Y-9221216D01*
X318312Y-9220504D01*
X320903Y-9220098D01*
X326237Y-9220047D01*
X331317Y-9220962D01*
X338531Y-9223552D01*
X343154Y-9225534D01*
X348996Y-9212072D01*
X343458Y-9209379D01*
X337058Y-9207500D01*
X330250Y-9206331D01*
G37*
G36*
X464058Y-9206992D02*
G01*
X426254Y-9266682D01*
X440943Y-9266682D01*
X459435Y-9234525D01*
X463804Y-9225534D01*
X464312Y-9225534D01*
X463804Y-9234424D01*
X463550Y-9244482D01*
X463550Y-9266682D01*
X426254Y-9266682D01*
X425450Y-9267952D01*
X425450Y-9280144D01*
X463550Y-9280144D01*
X463550Y-9299956D01*
X480568Y-9299956D01*
X480568Y-9280144D01*
X491490Y-9280144D01*
X491490Y-9266682D01*
X480568Y-9266682D01*
X480568Y-9206992D01*
G37*
G36*
X387858Y-9207246D02*
G01*
X360680Y-9229344D01*
X369570Y-9239504D01*
X380187Y-9230360D01*
X385826Y-9224518D01*
X385318Y-9236202D01*
X385318Y-9299956D01*
X402590Y-9299956D01*
X402590Y-9207246D01*
G37*
G36*
X1071473Y-6431788D02*
G01*
X1057960Y-6432854D01*
X1046327Y-6436106D01*
X1041196Y-6438544D01*
X1036675Y-6441592D01*
X1032814Y-6445148D01*
X1029563Y-6449314D01*
X1027023Y-6454089D01*
X1025194Y-6459423D01*
X1024077Y-6465366D01*
X1023721Y-6471920D01*
X1023975Y-6478676D01*
X1024737Y-6484620D01*
X1026058Y-6490157D01*
X1028039Y-6495542D01*
X1042263Y-6495542D01*
X1040434Y-6490208D01*
X1038961Y-6484874D01*
X1037996Y-6479489D01*
X1037691Y-6473952D01*
X1037945Y-6470091D01*
X1038707Y-6466535D01*
X1039977Y-6463334D01*
X1041755Y-6460490D01*
X1043990Y-6458000D01*
X1046632Y-6455867D01*
X1049731Y-6454089D01*
X1053185Y-6452616D01*
X1057198Y-6451396D01*
X1061516Y-6450533D01*
X1066190Y-6450025D01*
X1071219Y-6449822D01*
X1075029Y-6449923D01*
X1082040Y-6450838D01*
X1088237Y-6452463D01*
X1093571Y-6454749D01*
X1097991Y-6457797D01*
X1099870Y-6459524D01*
X1101445Y-6461455D01*
X1102715Y-6463538D01*
X1103731Y-6465874D01*
X1104442Y-6468313D01*
X1104849Y-6470853D01*
X1105001Y-6473444D01*
X1104900Y-6476187D01*
X1103985Y-6481419D01*
X1101394Y-6488633D01*
X1099413Y-6493256D01*
X1112875Y-6499098D01*
X1115568Y-6493408D01*
X1117447Y-6486906D01*
X1118768Y-6480200D01*
X1119225Y-6473698D01*
X1119022Y-6468770D01*
X1118362Y-6464096D01*
X1117244Y-6459728D01*
X1115669Y-6455664D01*
X1113739Y-6452006D01*
X1111402Y-6448602D01*
X1108760Y-6445504D01*
X1105763Y-6442710D01*
X1102461Y-6440220D01*
X1098804Y-6438036D01*
X1094841Y-6436156D01*
X1090523Y-6434582D01*
X1086104Y-6433362D01*
X1081430Y-6432499D01*
X1076553Y-6431991D01*
G37*
G36*
X1095603Y-6510781D02*
G01*
X1085443Y-6519672D01*
X1094638Y-6530238D01*
X1100429Y-6535674D01*
X1094841Y-6535420D01*
X1024991Y-6535420D01*
X1024991Y-6552692D01*
X1117701Y-6552692D01*
X1117701Y-6537706D01*
G37*
G36*
X1028801Y-6579870D02*
G01*
X1026566Y-6584645D01*
X1024991Y-6590284D01*
X1024026Y-6596583D01*
X1023721Y-6603238D01*
X1023975Y-6608724D01*
X1024686Y-6613702D01*
X1025855Y-6618224D01*
X1027531Y-6622288D01*
X1029665Y-6625844D01*
X1032154Y-6628942D01*
X1035100Y-6631584D01*
X1038453Y-6633718D01*
X1042212Y-6635496D01*
X1046276Y-6636766D01*
X1050696Y-6637528D01*
X1055471Y-6637781D01*
X1059840Y-6637528D01*
X1063853Y-6636816D01*
X1067460Y-6635648D01*
X1070711Y-6633972D01*
X1073607Y-6632041D01*
X1076096Y-6629806D01*
X1078280Y-6627215D01*
X1080109Y-6624320D01*
X1081582Y-6621018D01*
X1082598Y-6617512D01*
X1083208Y-6613804D01*
X1083411Y-6607809D01*
X1083157Y-6604355D01*
X1082141Y-6598158D01*
X1103477Y-6599936D01*
X1103477Y-6631686D01*
X1117701Y-6631686D01*
X1117701Y-6584950D01*
X1071727Y-6581394D01*
X1067917Y-6588759D01*
X1069187Y-6594856D01*
X1069746Y-6598564D01*
X1069949Y-6601968D01*
X1069695Y-6606336D01*
X1068933Y-6610096D01*
X1067663Y-6613194D01*
X1065885Y-6615684D01*
X1063599Y-6617563D01*
X1060856Y-6618935D01*
X1057656Y-6619748D01*
X1053947Y-6620002D01*
X1051255Y-6619900D01*
X1046581Y-6618884D01*
X1044549Y-6617970D01*
X1042771Y-6616852D01*
X1041298Y-6615480D01*
X1040130Y-6613906D01*
X1039215Y-6612128D01*
X1037894Y-6607759D01*
X1037539Y-6605320D01*
X1037539Y-6599885D01*
X1038301Y-6593941D01*
X1038961Y-6590792D01*
X1040942Y-6584899D01*
X1043279Y-6579870D01*
G37*
G36*
X208025Y-6685025D02*
G01*
X194056Y-6687312D01*
X183134Y-6694170D01*
X176072Y-6705142D01*
X173736Y-6720331D01*
X174040Y-6726072D01*
X174904Y-6731304D01*
X176326Y-6736080D01*
X178308Y-6740398D01*
X180695Y-6744106D01*
X183540Y-6747306D01*
X186791Y-6750050D01*
X190500Y-6752336D01*
X194462Y-6754012D01*
X198628Y-6755180D01*
X203047Y-6755892D01*
X207771Y-6756146D01*
X267716Y-6756146D01*
X267716Y-6738620D01*
X206502Y-6738518D01*
X200507Y-6737603D01*
X197866Y-6736842D01*
X195478Y-6735724D01*
X193395Y-6734352D01*
X191668Y-6732778D01*
X190246Y-6731000D01*
X189230Y-6728917D01*
X188518Y-6726529D01*
X188112Y-6723837D01*
X187960Y-6720840D01*
X188264Y-6716572D01*
X189230Y-6712813D01*
X190804Y-6709714D01*
X193040Y-6707124D01*
X196088Y-6705142D01*
X199898Y-6703669D01*
X204470Y-6702856D01*
X209804Y-6702552D01*
X267716Y-6702552D01*
X267716Y-6685025D01*
G37*
G36*
X245617Y-6774180D02*
G01*
X235458Y-6783070D01*
X246430Y-6795414D01*
X250444Y-6799072D01*
X244856Y-6799072D01*
X240284Y-6798818D01*
X175006Y-6798818D01*
X175006Y-6816090D01*
X267716Y-6816090D01*
X267716Y-6801103D01*
G37*
G36*
X1175004Y-5910834D02*
G01*
X1175004Y-5928360D01*
X1253998Y-5928360D01*
X1253896Y-5938774D01*
X1253134Y-5943600D01*
X1251712Y-5947410D01*
X1250746Y-5948934D01*
X1249578Y-5950204D01*
X1248156Y-5951220D01*
X1246479Y-5951982D01*
X1244600Y-5952540D01*
X1242415Y-5952896D01*
X1237691Y-5952896D01*
X1233627Y-5951982D01*
X1231900Y-5951220D01*
X1230376Y-5950204D01*
X1229055Y-5948934D01*
X1227937Y-5947410D01*
X1226312Y-5943701D01*
X1225753Y-5941517D01*
X1225397Y-5939028D01*
X1225296Y-5928360D01*
X1211580Y-5928360D01*
X1211580Y-5939536D01*
X1175004Y-5959856D01*
X1175004Y-5979668D01*
X1215898Y-5954522D01*
X1218031Y-5958840D01*
X1220978Y-5962650D01*
X1224483Y-5965901D01*
X1228852Y-5968492D01*
X1231392Y-5969508D01*
X1234186Y-5970219D01*
X1237234Y-5970625D01*
X1240536Y-5970778D01*
X1244904Y-5970524D01*
X1248918Y-5969812D01*
X1252524Y-5968644D01*
X1255776Y-5966968D01*
X1258620Y-5964936D01*
X1261110Y-5962396D01*
X1263192Y-5959348D01*
X1264920Y-5955792D01*
X1266139Y-5951829D01*
X1267002Y-5947359D01*
X1267561Y-5942330D01*
X1267714Y-5910834D01*
G37*
G36*
X1175004Y-5984494D02*
G01*
X1175004Y-6044946D01*
X1189228Y-6044946D01*
X1189228Y-6006338D01*
X1189990Y-6006338D01*
X1212037Y-6026454D01*
X1217015Y-6030772D01*
X1221740Y-6034430D01*
X1226413Y-6037478D01*
X1231290Y-6039916D01*
X1233678Y-6040882D01*
X1238707Y-6041999D01*
X1244092Y-6042406D01*
X1247648Y-6042202D01*
X1251000Y-6041593D01*
X1254150Y-6040526D01*
X1257046Y-6039104D01*
X1259687Y-6037275D01*
X1262075Y-6035040D01*
X1264158Y-6032449D01*
X1265936Y-6029452D01*
X1267358Y-6026251D01*
X1268425Y-6022797D01*
X1269034Y-6019038D01*
X1269238Y-6014974D01*
X1269136Y-6011418D01*
X1268222Y-6004915D01*
X1267460Y-6002020D01*
X1265428Y-5996940D01*
X1262888Y-5992368D01*
X1259992Y-5988354D01*
X1256792Y-5984494D01*
X1245870Y-5993892D01*
X1249883Y-5998819D01*
X1252728Y-6003544D01*
X1253845Y-6005982D01*
X1254607Y-6008420D01*
X1255115Y-6010910D01*
X1255268Y-6013450D01*
X1255064Y-6015990D01*
X1254455Y-6018225D01*
X1253388Y-6020155D01*
X1251966Y-6021832D01*
X1250238Y-6023254D01*
X1248105Y-6024321D01*
X1245514Y-6024930D01*
X1242568Y-6025134D01*
X1237488Y-6024626D01*
X1235151Y-6024016D01*
X1230579Y-6022086D01*
X1225753Y-6019139D01*
X1220622Y-6015075D01*
X1214475Y-6009741D01*
X1187196Y-5984494D01*
G37*
G36*
X949960Y-9135872D02*
G01*
X949960Y-9153398D01*
X1028953Y-9153398D01*
X1028852Y-9163812D01*
X1028598Y-9166352D01*
X1027430Y-9170670D01*
X1026668Y-9172448D01*
X1025702Y-9173972D01*
X1024534Y-9175242D01*
X1023112Y-9176258D01*
X1021486Y-9177020D01*
X1017371Y-9177934D01*
X1012647Y-9177934D01*
X1008583Y-9177020D01*
X1006856Y-9176258D01*
X1005433Y-9175242D01*
X1004112Y-9173972D01*
X1002995Y-9172448D01*
X1002030Y-9170670D01*
X1001268Y-9168638D01*
X1000353Y-9163964D01*
X1000252Y-9153398D01*
X986790Y-9153398D01*
X986790Y-9164574D01*
X949960Y-9184894D01*
X949960Y-9204452D01*
X990853Y-9179560D01*
X993140Y-9183776D01*
X995934Y-9187688D01*
X999642Y-9190939D01*
X1001725Y-9192310D01*
X1004062Y-9193530D01*
X1006602Y-9194546D01*
X1009345Y-9195257D01*
X1012291Y-9195663D01*
X1015492Y-9195816D01*
X1019860Y-9195562D01*
X1023874Y-9194850D01*
X1027480Y-9193682D01*
X1030732Y-9192006D01*
X1033576Y-9189872D01*
X1036066Y-9187281D01*
X1038148Y-9184284D01*
X1039876Y-9180830D01*
X1041196Y-9176766D01*
X1042162Y-9172244D01*
X1042720Y-9167266D01*
X1042924Y-9161780D01*
X1042924Y-9135872D01*
G37*
G36*
X989584Y-9209786D02*
G01*
X984554Y-9209938D01*
X979881Y-9210344D01*
X975512Y-9211056D01*
X971550Y-9212072D01*
X967790Y-9213443D01*
X964387Y-9215069D01*
X961288Y-9216898D01*
X958596Y-9218930D01*
X956310Y-9221165D01*
X954328Y-9223552D01*
X952652Y-9226143D01*
X951230Y-9228836D01*
X950112Y-9231782D01*
X949350Y-9234881D01*
X948842Y-9238030D01*
X948713Y-9240774D01*
X962152Y-9240774D01*
X962253Y-9239148D01*
X963168Y-9236252D01*
X964895Y-9233611D01*
X967181Y-9231325D01*
X968502Y-9230360D01*
X971702Y-9228937D01*
X975106Y-9227820D01*
X978662Y-9227261D01*
X982218Y-9227058D01*
X985774Y-9227515D01*
X989330Y-9228836D01*
X992327Y-9230918D01*
X994664Y-9233662D01*
X995578Y-9235287D01*
X996187Y-9237014D01*
X996696Y-9241028D01*
X996442Y-9243974D01*
X995629Y-9246565D01*
X994257Y-9248698D01*
X992378Y-9250426D01*
X989990Y-9251746D01*
X987247Y-9252712D01*
X984046Y-9253270D01*
X980440Y-9253474D01*
X976020Y-9253270D01*
X972261Y-9252610D01*
X969060Y-9251492D01*
X966469Y-9249918D01*
X964590Y-9248089D01*
X963218Y-9245955D01*
X962406Y-9243517D01*
X962152Y-9240774D01*
X948713Y-9240774D01*
X948944Y-9245600D01*
X949655Y-9249613D01*
X950823Y-9253321D01*
X952500Y-9256776D01*
X954633Y-9259874D01*
X957122Y-9262618D01*
X960069Y-9264954D01*
X963421Y-9266936D01*
X967232Y-9268510D01*
X971346Y-9269628D01*
X975766Y-9270288D01*
X980440Y-9270492D01*
X984961Y-9270288D01*
X989076Y-9269730D01*
X992835Y-9268764D01*
X996187Y-9267444D01*
X999185Y-9265767D01*
X1001826Y-9263786D01*
X1004163Y-9261449D01*
X1006094Y-9258808D01*
X1007668Y-9255912D01*
X1008786Y-9252712D01*
X1009446Y-9249257D01*
X1009650Y-9245600D01*
X1009294Y-9241078D01*
X1008126Y-9237218D01*
X1006398Y-9233712D01*
X1004316Y-9230868D01*
X1001674Y-9228531D01*
X998728Y-9226550D01*
X998728Y-9225788D01*
X1005332Y-9226346D01*
X1011428Y-9227566D01*
X1016863Y-9229445D01*
X1019352Y-9230715D01*
X1023721Y-9233763D01*
X1025601Y-9235694D01*
X1027176Y-9237878D01*
X1028446Y-9240266D01*
X1029563Y-9242958D01*
X1030376Y-9246057D01*
X1030833Y-9249460D01*
X1030935Y-9254744D01*
X1030071Y-9261906D01*
X1029462Y-9264396D01*
X1042924Y-9264396D01*
X1043686Y-9258808D01*
X1043940Y-9252712D01*
X1043736Y-9247581D01*
X1043178Y-9242856D01*
X1042212Y-9238589D01*
X1040892Y-9234678D01*
X1039215Y-9231020D01*
X1037285Y-9227769D01*
X1035050Y-9224822D01*
X1032510Y-9222232D01*
X1029716Y-9219844D01*
X1026718Y-9217812D01*
X1023518Y-9216034D01*
X1016558Y-9213342D01*
X1009192Y-9211411D01*
X1001471Y-9210344D01*
X993597Y-9209836D01*
G37*
G36*
X2249932Y-5860796D02*
G01*
X2249932Y-5878322D01*
X2328926Y-5878322D01*
X2328824Y-5888736D01*
X2328214Y-5893562D01*
X2327656Y-5895594D01*
X2326792Y-5897372D01*
X2325725Y-5898896D01*
X2324506Y-5900166D01*
X2323084Y-5901182D01*
X2321458Y-5901944D01*
X2317394Y-5902858D01*
X2312619Y-5902858D01*
X2308555Y-5901944D01*
X2306828Y-5901182D01*
X2305405Y-5900166D01*
X2304084Y-5898896D01*
X2302967Y-5897372D01*
X2301240Y-5893663D01*
X2300681Y-5891479D01*
X2300325Y-5888990D01*
X2300224Y-5878322D01*
X2286762Y-5878322D01*
X2286762Y-5889752D01*
X2249932Y-5909818D01*
X2249932Y-5929630D01*
X2290826Y-5904484D01*
X2293112Y-5908802D01*
X2295906Y-5912612D01*
X2297633Y-5914390D01*
X2299563Y-5915964D01*
X2301697Y-5917336D01*
X2306574Y-5919470D01*
X2309317Y-5920181D01*
X2312263Y-5920587D01*
X2315464Y-5920740D01*
X2319934Y-5920486D01*
X2323947Y-5919774D01*
X2327554Y-5918606D01*
X2330704Y-5916930D01*
X2333548Y-5914898D01*
X2336038Y-5912358D01*
X2338120Y-5909310D01*
X2339848Y-5905754D01*
X2341168Y-5901791D01*
X2342134Y-5897321D01*
X2342692Y-5892292D01*
X2342896Y-5886704D01*
X2342896Y-5860796D01*
G37*
G36*
X2311908Y-5934456D02*
G01*
X2307590Y-5934659D01*
X2303576Y-5935218D01*
X2299868Y-5936183D01*
X2296414Y-5937504D01*
X2293315Y-5939180D01*
X2290622Y-5941110D01*
X2288387Y-5943346D01*
X2286508Y-5945886D01*
X2285085Y-5948781D01*
X2284018Y-5951829D01*
X2283409Y-5955131D01*
X2283206Y-5958586D01*
X2283485Y-5963412D01*
X2295906Y-5963412D01*
X2296210Y-5960567D01*
X2297074Y-5958078D01*
X2298496Y-5955995D01*
X2300478Y-5954268D01*
X2302814Y-5952947D01*
X2305558Y-5951982D01*
X2308656Y-5951423D01*
X2312162Y-5951220D01*
X2316581Y-5951423D01*
X2320340Y-5952134D01*
X2323541Y-5953201D01*
X2326132Y-5954776D01*
X2328113Y-5956655D01*
X2329586Y-5958840D01*
X2330399Y-5961278D01*
X2330704Y-5963920D01*
X2330602Y-5965647D01*
X2329688Y-5968695D01*
X2327960Y-5971235D01*
X2325674Y-5973419D01*
X2322880Y-5975146D01*
X2319578Y-5976416D01*
X2315972Y-5977331D01*
X2312263Y-5977839D01*
X2308606Y-5977788D01*
X2305202Y-5976874D01*
X2301951Y-5975146D01*
X2300528Y-5973978D01*
X2298192Y-5971032D01*
X2297176Y-5969406D01*
X2296464Y-5967628D01*
X2296058Y-5965596D01*
X2295906Y-5963412D01*
X2283485Y-5963412D01*
X2284476Y-5967984D01*
X2286254Y-5971438D01*
X2288540Y-5974080D01*
X2293874Y-5978144D01*
X2293874Y-5978906D01*
X2287422Y-5978398D01*
X2281174Y-5977382D01*
X2275738Y-5975502D01*
X2273249Y-5974232D01*
X2271014Y-5972810D01*
X2268982Y-5971032D01*
X2267153Y-5969050D01*
X2265527Y-5966866D01*
X2264156Y-5964428D01*
X2263140Y-5961583D01*
X2262428Y-5958332D01*
X2262022Y-5954725D01*
X2261870Y-5949340D01*
X2262378Y-5944006D01*
X2263394Y-5940298D01*
X2249678Y-5940298D01*
X2248916Y-5945886D01*
X2248662Y-5951982D01*
X2248966Y-5958179D01*
X2249779Y-5963818D01*
X2251252Y-5968847D01*
X2253234Y-5973318D01*
X2255723Y-5977280D01*
X2258568Y-5980836D01*
X2261819Y-5983884D01*
X2265426Y-5986526D01*
X2269388Y-5988761D01*
X2273604Y-5990640D01*
X2278126Y-5992215D01*
X2282952Y-5993384D01*
X2292858Y-5994704D01*
X2297988Y-5995060D01*
X2303272Y-5995162D01*
X2308301Y-5995009D01*
X2312974Y-5994603D01*
X2317343Y-5993892D01*
X2321306Y-5992876D01*
X2324963Y-5991504D01*
X2328265Y-5989878D01*
X2331313Y-5988050D01*
X2334006Y-5986018D01*
X2336393Y-5983782D01*
X2338425Y-5981395D01*
X2340203Y-5978804D01*
X2341626Y-5976112D01*
X2342743Y-5973165D01*
X2343505Y-5970066D01*
X2344013Y-5966917D01*
X2344166Y-5963666D01*
X2343912Y-5959348D01*
X2343200Y-5955334D01*
X2342032Y-5951626D01*
X2340356Y-5948172D01*
X2338222Y-5945073D01*
X2335631Y-5942330D01*
X2332634Y-5939993D01*
X2329180Y-5938012D01*
X2325420Y-5936437D01*
X2321306Y-5935370D01*
X2316784Y-5934659D01*
G37*
G36*
X2249932Y-6385814D02*
G01*
X2249932Y-6403340D01*
X2328926Y-6403340D01*
X2328824Y-6413754D01*
X2328214Y-6418580D01*
X2327656Y-6420612D01*
X2326792Y-6422390D01*
X2325725Y-6423914D01*
X2324506Y-6425184D01*
X2323084Y-6426200D01*
X2321458Y-6426962D01*
X2317394Y-6427876D01*
X2312619Y-6427876D01*
X2308555Y-6426962D01*
X2306828Y-6426200D01*
X2305405Y-6425184D01*
X2304084Y-6423914D01*
X2302967Y-6422390D01*
X2301240Y-6418681D01*
X2300681Y-6416497D01*
X2300325Y-6414008D01*
X2300224Y-6403340D01*
X2286762Y-6403340D01*
X2286762Y-6414770D01*
X2249932Y-6434836D01*
X2249932Y-6454648D01*
X2290826Y-6429502D01*
X2293112Y-6433820D01*
X2295906Y-6437630D01*
X2299563Y-6440881D01*
X2304034Y-6443472D01*
X2306574Y-6444488D01*
X2309317Y-6445199D01*
X2312263Y-6445605D01*
X2315464Y-6445758D01*
X2319934Y-6445504D01*
X2323947Y-6444792D01*
X2327554Y-6443624D01*
X2330704Y-6441948D01*
X2333548Y-6439916D01*
X2336038Y-6437376D01*
X2338120Y-6434328D01*
X2339848Y-6430772D01*
X2341168Y-6426809D01*
X2342134Y-6422339D01*
X2342692Y-6417310D01*
X2342896Y-6411722D01*
X2342896Y-6385814D01*
G37*
G36*
X2320544Y-6462522D02*
G01*
X2310384Y-6471412D01*
X2318766Y-6481064D01*
X2325370Y-6487414D01*
X2319782Y-6487160D01*
X2249932Y-6487160D01*
X2249932Y-6504431D01*
X2342896Y-6504431D01*
X2342896Y-6489446D01*
G37*
G36*
X2296414Y-6529831D02*
G01*
X2282647Y-6530644D01*
X2270760Y-6533134D01*
X2265730Y-6535013D01*
X2261362Y-6537248D01*
X2257602Y-6539941D01*
X2254504Y-6543040D01*
X2251964Y-6546596D01*
X2250135Y-6550609D01*
X2249017Y-6555079D01*
X2248662Y-6560058D01*
X2262124Y-6560058D01*
X2262378Y-6557772D01*
X2263140Y-6555740D01*
X2264410Y-6553962D01*
X2266188Y-6552438D01*
X2268321Y-6551117D01*
X2270963Y-6549999D01*
X2274062Y-6549085D01*
X2277618Y-6548374D01*
X2286000Y-6547612D01*
X2296414Y-6547357D01*
X2307031Y-6547612D01*
X2315464Y-6548374D01*
X2319020Y-6549085D01*
X2322118Y-6549999D01*
X2324760Y-6551117D01*
X2326894Y-6552438D01*
X2328570Y-6553962D01*
X2329738Y-6555740D01*
X2330450Y-6557772D01*
X2330704Y-6560058D01*
X2330450Y-6562344D01*
X2329738Y-6564375D01*
X2328570Y-6566153D01*
X2326894Y-6567678D01*
X2324760Y-6569100D01*
X2322118Y-6570268D01*
X2319020Y-6571234D01*
X2315464Y-6571996D01*
X2306878Y-6572758D01*
X2296414Y-6573012D01*
X2285949Y-6572758D01*
X2277364Y-6571996D01*
X2273808Y-6571234D01*
X2270709Y-6570268D01*
X2268067Y-6569100D01*
X2265934Y-6567678D01*
X2264257Y-6566153D01*
X2263089Y-6564375D01*
X2262378Y-6562344D01*
X2262124Y-6560058D01*
X2248662Y-6560058D01*
X2248865Y-6564071D01*
X2249474Y-6567779D01*
X2250541Y-6571183D01*
X2251964Y-6574281D01*
X2253792Y-6577075D01*
X2255977Y-6579565D01*
X2258466Y-6581749D01*
X2261362Y-6583680D01*
X2264562Y-6585356D01*
X2268169Y-6586728D01*
X2272080Y-6587845D01*
X2276348Y-6588759D01*
X2285847Y-6589928D01*
X2296668Y-6590284D01*
X2310434Y-6589522D01*
X2322322Y-6587236D01*
X2327351Y-6585356D01*
X2331720Y-6583070D01*
X2335479Y-6580276D01*
X2338578Y-6577075D01*
X2341016Y-6573520D01*
X2342743Y-6569506D01*
X2343810Y-6565036D01*
X2344166Y-6560058D01*
X2343810Y-6554876D01*
X2342743Y-6550202D01*
X2341016Y-6546088D01*
X2338578Y-6542531D01*
X2335377Y-6539433D01*
X2331516Y-6536842D01*
X2327097Y-6534607D01*
X2322068Y-6532880D01*
X2310333Y-6530594D01*
G37*
G36*
X1175004Y-6161024D02*
G01*
X1175004Y-6178296D01*
X1253998Y-6178296D01*
X1253896Y-6188710D01*
X1253134Y-6193536D01*
X1251712Y-6197346D01*
X1250746Y-6198870D01*
X1249578Y-6200140D01*
X1248156Y-6201156D01*
X1246479Y-6201918D01*
X1244600Y-6202476D01*
X1242415Y-6202832D01*
X1237691Y-6202832D01*
X1233627Y-6201918D01*
X1231900Y-6201156D01*
X1230376Y-6200140D01*
X1229055Y-6198920D01*
X1227937Y-6197498D01*
X1226312Y-6193790D01*
X1225397Y-6188964D01*
X1225296Y-6178296D01*
X1211580Y-6178296D01*
X1211580Y-6189726D01*
X1175004Y-6209792D01*
X1175004Y-6229604D01*
X1215898Y-6204712D01*
X1218031Y-6208826D01*
X1222603Y-6214364D01*
X1224483Y-6215938D01*
X1226566Y-6217310D01*
X1231392Y-6219444D01*
X1234186Y-6220155D01*
X1237234Y-6220561D01*
X1240536Y-6220714D01*
X1244904Y-6220460D01*
X1248918Y-6219748D01*
X1252524Y-6218580D01*
X1255776Y-6216904D01*
X1258620Y-6214872D01*
X1261110Y-6212332D01*
X1263192Y-6209284D01*
X1264920Y-6205728D01*
X1266139Y-6201765D01*
X1267002Y-6197295D01*
X1267561Y-6192266D01*
X1267714Y-6161024D01*
G37*
G36*
X1245616Y-6237478D02*
G01*
X1235456Y-6246368D01*
X1244650Y-6256934D01*
X1250442Y-6262370D01*
X1244854Y-6262370D01*
X1240282Y-6262116D01*
X1175004Y-6262116D01*
X1175004Y-6279388D01*
X1267714Y-6279388D01*
X1267714Y-6264656D01*
G37*
G36*
X1256792Y-6304788D02*
G01*
X1245870Y-6314440D01*
X1249883Y-6319266D01*
X1251458Y-6321653D01*
X1253845Y-6326428D01*
X1254607Y-6328765D01*
X1255115Y-6331254D01*
X1255268Y-6333744D01*
X1255064Y-6336284D01*
X1254455Y-6338519D01*
X1253388Y-6340449D01*
X1251966Y-6342126D01*
X1250238Y-6343548D01*
X1248105Y-6344615D01*
X1245514Y-6345224D01*
X1242568Y-6345428D01*
X1239977Y-6345326D01*
X1235151Y-6344310D01*
X1230579Y-6342380D01*
X1225753Y-6339433D01*
X1220622Y-6335369D01*
X1214475Y-6330035D01*
X1187196Y-6305042D01*
X1175004Y-6305042D01*
X1175004Y-6365494D01*
X1189228Y-6365494D01*
X1189228Y-6326886D01*
X1189990Y-6326886D01*
X1217015Y-6351066D01*
X1221740Y-6354724D01*
X1226413Y-6357874D01*
X1231290Y-6360312D01*
X1236116Y-6361836D01*
X1238707Y-6362344D01*
X1244092Y-6362700D01*
X1247648Y-6362496D01*
X1251000Y-6361887D01*
X1254150Y-6360820D01*
X1257046Y-6359398D01*
X1259687Y-6357569D01*
X1262075Y-6355384D01*
X1264158Y-6352895D01*
X1265936Y-6350000D01*
X1267358Y-6346698D01*
X1268425Y-6343142D01*
X1269034Y-6339332D01*
X1269238Y-6335268D01*
X1269136Y-6331712D01*
X1268222Y-6325362D01*
X1266494Y-6319875D01*
X1264208Y-6314897D01*
X1261465Y-6310630D01*
G37*
G36*
X2296414Y-6656831D02*
G01*
X2282901Y-6657898D01*
X2271268Y-6661150D01*
X2266238Y-6663588D01*
X2261768Y-6666636D01*
X2257856Y-6670192D01*
X2254504Y-6674358D01*
X2251964Y-6679082D01*
X2250135Y-6684467D01*
X2249017Y-6690410D01*
X2248662Y-6696964D01*
X2248916Y-6703720D01*
X2249678Y-6709664D01*
X2251100Y-6715201D01*
X2253234Y-6720586D01*
X2267204Y-6720586D01*
X2265375Y-6715252D01*
X2263902Y-6709918D01*
X2262936Y-6704533D01*
X2262632Y-6698996D01*
X2262886Y-6695084D01*
X2263648Y-6691579D01*
X2264918Y-6688378D01*
X2266696Y-6685534D01*
X2268931Y-6683044D01*
X2271623Y-6680911D01*
X2274773Y-6679082D01*
X2278380Y-6677659D01*
X2282291Y-6676440D01*
X2286558Y-6675577D01*
X2291283Y-6675018D01*
X2300122Y-6674967D01*
X2307132Y-6675881D01*
X2313330Y-6677507D01*
X2318664Y-6679793D01*
X2321052Y-6681216D01*
X2324862Y-6684568D01*
X2326386Y-6686499D01*
X2327656Y-6688581D01*
X2328773Y-6690918D01*
X2329586Y-6693357D01*
X2330043Y-6695846D01*
X2330196Y-6698488D01*
X2330094Y-6701231D01*
X2329180Y-6706463D01*
X2327503Y-6711289D01*
X2324354Y-6718300D01*
X2338070Y-6724142D01*
X2340559Y-6718452D01*
X2342388Y-6711950D01*
X2343708Y-6705244D01*
X2344166Y-6698742D01*
X2343962Y-6693814D01*
X2343302Y-6689140D01*
X2342184Y-6684772D01*
X2340610Y-6680708D01*
X2338679Y-6677050D01*
X2336342Y-6673646D01*
X2333701Y-6670548D01*
X2330704Y-6667753D01*
X2327402Y-6665264D01*
X2323795Y-6663080D01*
X2319883Y-6661200D01*
X2315718Y-6659625D01*
X2311196Y-6658406D01*
X2306472Y-6657543D01*
X2301544Y-6656984D01*
G37*
G36*
X2320544Y-6735825D02*
G01*
X2310384Y-6744716D01*
X2318766Y-6754368D01*
X2325370Y-6760718D01*
X2319782Y-6760464D01*
X2249932Y-6760464D01*
X2249932Y-6777736D01*
X2342896Y-6777736D01*
X2342896Y-6762750D01*
G37*
G36*
X2296414Y-7331964D02*
G01*
X2282901Y-7333030D01*
X2271268Y-7336281D01*
X2266238Y-7338618D01*
X2261768Y-7341565D01*
X2257856Y-7345070D01*
X2254504Y-7349236D01*
X2251964Y-7354062D01*
X2250135Y-7359446D01*
X2249017Y-7365390D01*
X2248662Y-7371842D01*
X2248916Y-7378547D01*
X2249678Y-7384542D01*
X2251100Y-7390079D01*
X2253234Y-7395464D01*
X2267204Y-7395464D01*
X2265375Y-7390130D01*
X2263902Y-7384796D01*
X2262936Y-7379411D01*
X2262632Y-7373874D01*
X2262886Y-7369962D01*
X2263648Y-7366457D01*
X2264918Y-7363256D01*
X2266696Y-7360412D01*
X2268931Y-7357922D01*
X2271623Y-7355789D01*
X2274773Y-7353960D01*
X2278380Y-7352538D01*
X2282291Y-7351420D01*
X2286558Y-7350607D01*
X2291283Y-7350150D01*
X2300122Y-7350099D01*
X2307132Y-7350861D01*
X2310384Y-7351522D01*
X2313330Y-7352385D01*
X2318664Y-7354671D01*
X2321052Y-7356094D01*
X2323084Y-7357719D01*
X2324862Y-7359497D01*
X2326386Y-7361529D01*
X2328773Y-7365949D01*
X2329586Y-7368286D01*
X2330043Y-7370775D01*
X2330196Y-7373366D01*
X2330094Y-7376109D01*
X2329180Y-7381341D01*
X2327503Y-7386167D01*
X2324354Y-7393178D01*
X2338070Y-7399020D01*
X2340559Y-7393482D01*
X2342388Y-7387081D01*
X2343708Y-7380274D01*
X2344166Y-7373620D01*
X2343962Y-7368794D01*
X2343302Y-7364222D01*
X2342184Y-7359903D01*
X2340610Y-7355840D01*
X2338679Y-7352080D01*
X2336342Y-7348626D01*
X2333701Y-7345476D01*
X2330704Y-7342631D01*
X2327402Y-7340142D01*
X2323795Y-7337907D01*
X2319883Y-7336078D01*
X2315718Y-7334503D01*
X2311196Y-7333386D01*
X2306472Y-7332573D01*
X2301544Y-7332116D01*
G37*
G36*
X2249932Y-7407909D02*
G01*
X2249932Y-7468362D01*
X2264156Y-7468362D01*
X2264156Y-7429753D01*
X2264918Y-7429753D01*
X2286965Y-7449870D01*
X2291994Y-7454087D01*
X2296820Y-7457795D01*
X2301494Y-7460894D01*
X2306218Y-7463180D01*
X2311095Y-7464806D01*
X2316429Y-7465720D01*
X2319274Y-7465822D01*
X2322830Y-7465618D01*
X2326182Y-7464907D01*
X2329332Y-7463840D01*
X2332228Y-7462266D01*
X2334869Y-7460437D01*
X2337155Y-7458252D01*
X2339187Y-7455763D01*
X2340864Y-7452868D01*
X2342286Y-7449667D01*
X2343353Y-7446162D01*
X2343962Y-7442301D01*
X2344166Y-7438136D01*
X2344064Y-7434681D01*
X2343150Y-7428331D01*
X2341524Y-7422743D01*
X2339390Y-7417917D01*
X2336647Y-7413650D01*
X2331720Y-7407909D01*
X2321052Y-7417308D01*
X2324912Y-7422286D01*
X2327910Y-7426959D01*
X2328926Y-7429296D01*
X2329637Y-7431735D01*
X2330043Y-7434224D01*
X2330196Y-7436866D01*
X2329992Y-7439304D01*
X2329434Y-7441488D01*
X2328468Y-7443470D01*
X2327148Y-7445248D01*
X2325319Y-7446568D01*
X2323084Y-7447534D01*
X2320493Y-7448092D01*
X2317496Y-7448296D01*
X2314905Y-7448194D01*
X2310079Y-7447280D01*
X2307844Y-7446518D01*
X2303272Y-7443978D01*
X2298192Y-7440422D01*
X2292604Y-7435900D01*
X2262124Y-7407909D01*
G37*
G36*
X1846325Y-5856986D02*
G01*
X1832914Y-5858052D01*
X1821180Y-5861304D01*
X1816150Y-5863640D01*
X1811731Y-5866587D01*
X1807870Y-5870092D01*
X1804670Y-5874258D01*
X1802028Y-5879084D01*
X1800098Y-5884468D01*
X1798980Y-5890412D01*
X1798574Y-5896864D01*
X1798878Y-5903620D01*
X1799843Y-5909564D01*
X1801164Y-5915101D01*
X1803146Y-5920486D01*
X1817370Y-5920486D01*
X1815388Y-5915152D01*
X1814068Y-5909818D01*
X1813102Y-5904433D01*
X1812798Y-5898896D01*
X1813052Y-5894984D01*
X1813814Y-5891479D01*
X1815084Y-5888278D01*
X1816862Y-5885434D01*
X1818995Y-5882944D01*
X1821637Y-5880811D01*
X1824736Y-5878982D01*
X1828292Y-5877560D01*
X1832203Y-5876442D01*
X1836470Y-5875680D01*
X1841195Y-5875172D01*
X1850136Y-5875121D01*
X1857146Y-5875883D01*
X1863343Y-5877407D01*
X1868678Y-5879693D01*
X1870964Y-5881116D01*
X1872996Y-5882741D01*
X1876450Y-5886551D01*
X1877822Y-5888736D01*
X1878838Y-5890971D01*
X1879549Y-5893308D01*
X1879955Y-5895797D01*
X1880107Y-5898388D01*
X1880006Y-5901131D01*
X1879092Y-5906363D01*
X1877415Y-5911189D01*
X1874266Y-5918200D01*
X1887982Y-5924042D01*
X1890522Y-5918504D01*
X1892554Y-5912104D01*
X1893722Y-5905296D01*
X1894078Y-5898642D01*
X1893874Y-5893816D01*
X1893163Y-5889244D01*
X1892096Y-5884926D01*
X1890522Y-5880862D01*
X1888642Y-5877102D01*
X1886407Y-5873648D01*
X1883714Y-5870498D01*
X1880616Y-5867654D01*
X1877314Y-5865164D01*
X1873707Y-5862980D01*
X1869795Y-5861100D01*
X1865630Y-5859526D01*
X1861159Y-5858408D01*
X1856486Y-5857646D01*
X1851507Y-5857138D01*
G37*
G36*
X1862074Y-5932932D02*
G01*
X1857654Y-5933084D01*
X1853539Y-5933643D01*
X1849780Y-5934506D01*
X1846325Y-5935726D01*
X1843328Y-5937402D01*
X1840687Y-5939434D01*
X1838350Y-5941720D01*
X1836420Y-5944362D01*
X1834997Y-5947156D01*
X1833930Y-5950204D01*
X1833321Y-5953506D01*
X1833118Y-5957062D01*
X1833446Y-5961888D01*
X1846072Y-5961888D01*
X1846325Y-5959043D01*
X1847138Y-5956554D01*
X1848510Y-5954471D01*
X1850389Y-5952744D01*
X1852777Y-5951423D01*
X1855520Y-5950458D01*
X1858721Y-5949899D01*
X1862328Y-5949696D01*
X1866747Y-5949899D01*
X1870506Y-5950610D01*
X1873707Y-5951677D01*
X1876298Y-5953252D01*
X1878177Y-5955131D01*
X1879549Y-5957316D01*
X1880362Y-5959703D01*
X1880616Y-5962396D01*
X1880209Y-5965698D01*
X1879092Y-5968492D01*
X1877009Y-5970676D01*
X1874266Y-5972556D01*
X1871268Y-5974130D01*
X1867916Y-5975350D01*
X1864156Y-5975908D01*
X1860550Y-5976112D01*
X1858670Y-5976010D01*
X1855114Y-5975096D01*
X1853438Y-5974334D01*
X1850593Y-5972251D01*
X1848104Y-5969508D01*
X1846580Y-5965952D01*
X1846173Y-5963970D01*
X1846072Y-5961888D01*
X1833446Y-5961888D01*
X1833981Y-5964275D01*
X1835353Y-5968034D01*
X1837283Y-5971082D01*
X1839772Y-5973521D01*
X1842566Y-5975553D01*
X1844039Y-5976366D01*
X1844039Y-5977382D01*
X1837436Y-5976823D01*
X1828393Y-5974842D01*
X1825701Y-5973826D01*
X1823212Y-5972556D01*
X1820925Y-5971032D01*
X1818893Y-5969355D01*
X1817116Y-5967425D01*
X1815592Y-5965190D01*
X1814322Y-5962650D01*
X1813204Y-5959805D01*
X1812442Y-5956554D01*
X1811934Y-5952947D01*
X1811832Y-5947664D01*
X1812442Y-5942330D01*
X1813306Y-5938520D01*
X1799843Y-5938520D01*
X1798574Y-5950204D01*
X1798878Y-5956401D01*
X1799742Y-5962091D01*
X1801164Y-5967222D01*
X1803146Y-5971794D01*
X1805635Y-5975756D01*
X1808530Y-5979312D01*
X1811883Y-5982360D01*
X1815592Y-5985002D01*
X1819554Y-5987135D01*
X1823720Y-5988913D01*
X1828190Y-5990437D01*
X1832864Y-5991606D01*
X1837740Y-5992520D01*
X1847900Y-5993536D01*
X1853184Y-5993638D01*
X1858213Y-5993485D01*
X1862886Y-5992977D01*
X1867255Y-5992215D01*
X1874977Y-5989828D01*
X1878380Y-5988304D01*
X1881479Y-5986526D01*
X1884172Y-5984494D01*
X1886559Y-5982258D01*
X1888540Y-5979820D01*
X1890217Y-5977178D01*
X1892655Y-5971489D01*
X1893468Y-5968492D01*
X1893925Y-5965393D01*
X1894078Y-5962142D01*
X1893824Y-5957722D01*
X1893112Y-5953709D01*
X1891944Y-5950000D01*
X1890268Y-5946648D01*
X1888134Y-5943549D01*
X1885645Y-5940806D01*
X1882698Y-5938469D01*
X1879346Y-5936488D01*
X1875485Y-5934913D01*
X1871319Y-5933795D01*
X1866849Y-5933135D01*
G37*
G36*
X2296414Y-6106922D02*
G01*
X2282901Y-6107988D01*
X2271268Y-6111240D01*
X2266238Y-6113678D01*
X2261768Y-6116726D01*
X2257856Y-6120282D01*
X2254504Y-6124448D01*
X2251964Y-6129172D01*
X2250135Y-6134455D01*
X2249017Y-6140348D01*
X2248662Y-6146800D01*
X2248916Y-6153556D01*
X2249678Y-6159500D01*
X2251100Y-6165189D01*
X2253234Y-6170676D01*
X2267204Y-6170676D01*
X2265375Y-6165138D01*
X2263902Y-6159754D01*
X2262936Y-6154369D01*
X2262632Y-6148832D01*
X2262886Y-6144920D01*
X2263648Y-6141415D01*
X2264918Y-6138214D01*
X2266696Y-6135370D01*
X2268931Y-6132880D01*
X2271623Y-6130747D01*
X2274773Y-6128918D01*
X2278380Y-6127496D01*
X2282291Y-6126378D01*
X2286558Y-6125565D01*
X2291283Y-6125108D01*
X2300122Y-6125057D01*
X2303729Y-6125311D01*
X2310384Y-6126480D01*
X2313330Y-6127343D01*
X2318664Y-6129629D01*
X2321052Y-6131052D01*
X2323084Y-6132677D01*
X2324862Y-6134506D01*
X2326386Y-6136487D01*
X2328773Y-6140907D01*
X2329586Y-6143294D01*
X2330043Y-6145885D01*
X2330094Y-6151219D01*
X2329180Y-6156299D01*
X2327503Y-6161125D01*
X2324354Y-6168136D01*
X2338070Y-6173978D01*
X2340559Y-6168440D01*
X2342388Y-6162040D01*
X2343708Y-6155232D01*
X2344166Y-6148578D01*
X2343962Y-6143752D01*
X2343302Y-6139180D01*
X2342184Y-6134862D01*
X2340610Y-6130798D01*
X2338679Y-6127038D01*
X2336342Y-6123584D01*
X2333701Y-6120434D01*
X2330704Y-6117590D01*
X2327402Y-6115100D01*
X2323795Y-6112967D01*
X2319883Y-6111138D01*
X2315718Y-6109716D01*
X2311196Y-6108496D01*
X2306472Y-6107633D01*
X2301544Y-6107074D01*
G37*
G36*
X2320544Y-6185662D02*
G01*
X2310384Y-6194552D01*
X2319629Y-6205169D01*
X2325370Y-6210808D01*
X2313686Y-6210300D01*
X2249932Y-6210300D01*
X2249932Y-6227572D01*
X2342896Y-6227572D01*
X2342896Y-6212840D01*
G37*
G36*
X2253742Y-6253226D02*
G01*
X2251506Y-6258864D01*
X2249932Y-6264656D01*
X2248966Y-6271056D01*
X2248662Y-6278118D01*
X2248916Y-6283909D01*
X2249627Y-6289192D01*
X2250795Y-6293815D01*
X2252472Y-6297930D01*
X2254402Y-6301587D01*
X2256739Y-6304737D01*
X2259380Y-6307328D01*
X2262378Y-6309360D01*
X2265680Y-6311036D01*
X2269185Y-6312204D01*
X2272893Y-6312916D01*
X2276856Y-6313170D01*
X2281224Y-6312814D01*
X2285136Y-6311747D01*
X2288590Y-6310020D01*
X2291588Y-6307582D01*
X2294128Y-6304584D01*
X2296109Y-6300978D01*
X2297531Y-6296710D01*
X2298446Y-6291834D01*
X2298954Y-6291834D01*
X2299665Y-6294424D01*
X2301697Y-6299250D01*
X2303018Y-6301486D01*
X2306472Y-6305194D01*
X2310638Y-6308090D01*
X2313127Y-6309207D01*
X2315768Y-6309969D01*
X2318613Y-6310477D01*
X2321560Y-6310630D01*
X2326487Y-6310172D01*
X2330907Y-6308801D01*
X2334768Y-6306464D01*
X2338070Y-6303264D01*
X2340762Y-6299098D01*
X2342642Y-6294170D01*
X2343759Y-6288532D01*
X2344166Y-6282182D01*
X2343861Y-6275882D01*
X2342896Y-6270244D01*
X2341422Y-6265367D01*
X2339594Y-6260846D01*
X2337257Y-6256985D01*
X2334768Y-6253480D01*
X2323338Y-6261100D01*
X2325268Y-6263538D01*
X2326894Y-6266180D01*
X2328367Y-6269329D01*
X2329688Y-6272784D01*
X2330450Y-6276543D01*
X2330704Y-6280658D01*
X2330500Y-6283553D01*
X2329891Y-6286042D01*
X2328824Y-6288227D01*
X2327402Y-6290056D01*
X2325725Y-6291478D01*
X2323744Y-6292545D01*
X2321407Y-6293154D01*
X2318766Y-6293358D01*
X2316683Y-6293256D01*
X2312873Y-6292342D01*
X2311146Y-6291580D01*
X2309672Y-6290411D01*
X2308352Y-6288989D01*
X2307132Y-6287262D01*
X2306066Y-6285230D01*
X2305304Y-6282893D01*
X2304745Y-6280150D01*
X2304389Y-6277051D01*
X2304288Y-6266688D01*
X2291334Y-6266688D01*
X2291232Y-6277152D01*
X2290470Y-6283502D01*
X2289810Y-6285992D01*
X2288946Y-6288125D01*
X2287930Y-6289903D01*
X2286660Y-6291427D01*
X2283612Y-6293612D01*
X2281834Y-6294323D01*
X2279802Y-6294729D01*
X2277618Y-6294882D01*
X2274163Y-6294628D01*
X2271064Y-6293866D01*
X2268423Y-6292596D01*
X2266188Y-6290818D01*
X2264410Y-6288278D01*
X2263140Y-6285026D01*
X2262378Y-6281064D01*
X2262124Y-6276340D01*
X2262530Y-6270802D01*
X2263648Y-6264910D01*
X2265527Y-6258915D01*
X2268220Y-6253226D01*
G37*
G36*
X632968Y-8735060D02*
G01*
X618998Y-8737346D01*
X608076Y-8744204D01*
X601014Y-8755126D01*
X598678Y-8770112D01*
X598982Y-8775954D01*
X599795Y-8781237D01*
X601268Y-8785961D01*
X603250Y-8790178D01*
X605637Y-8793988D01*
X608431Y-8797290D01*
X611733Y-8800084D01*
X615442Y-8802370D01*
X619404Y-8804046D01*
X623570Y-8805214D01*
X628040Y-8805926D01*
X632714Y-8806180D01*
X692912Y-8806180D01*
X692912Y-8788654D01*
X631444Y-8788552D01*
X625449Y-8787638D01*
X622808Y-8786876D01*
X620420Y-8785758D01*
X618439Y-8784386D01*
X616762Y-8782812D01*
X615442Y-8781034D01*
X614324Y-8778951D01*
X613511Y-8776512D01*
X613054Y-8773769D01*
X612902Y-8770620D01*
X613257Y-8766454D01*
X614222Y-8762796D01*
X615899Y-8759698D01*
X618236Y-8757158D01*
X621182Y-8755176D01*
X624890Y-8753754D01*
X629412Y-8752890D01*
X634746Y-8752586D01*
X692912Y-8752586D01*
X692912Y-8735060D01*
G37*
G36*
X681736Y-8821166D02*
G01*
X671068Y-8830564D01*
X674928Y-8835593D01*
X677926Y-8840470D01*
X678942Y-8842806D01*
X679653Y-8845143D01*
X680212Y-8850122D01*
X680008Y-8852662D01*
X679399Y-8854897D01*
X678332Y-8856827D01*
X676910Y-8858504D01*
X675182Y-8859926D01*
X673049Y-8860993D01*
X670458Y-8861602D01*
X667512Y-8861806D01*
X664921Y-8861704D01*
X660095Y-8860688D01*
X655624Y-8858758D01*
X650798Y-8855811D01*
X645515Y-8851747D01*
X639419Y-8846413D01*
X612140Y-8821420D01*
X599948Y-8821420D01*
X599948Y-8881872D01*
X614172Y-8881872D01*
X614172Y-8843264D01*
X614934Y-8843264D01*
X641959Y-8867444D01*
X646836Y-8871102D01*
X651510Y-8874252D01*
X656234Y-8876690D01*
X661060Y-8878214D01*
X663651Y-8878722D01*
X669036Y-8879078D01*
X672693Y-8878874D01*
X676148Y-8878265D01*
X679297Y-8877198D01*
X682244Y-8875776D01*
X684885Y-8873947D01*
X687222Y-8871712D01*
X689203Y-8869121D01*
X690880Y-8866124D01*
X692302Y-8862923D01*
X693369Y-8859469D01*
X693978Y-8855710D01*
X694182Y-8851646D01*
X694080Y-8848090D01*
X693166Y-8841587D01*
X692404Y-8838692D01*
X690372Y-8833612D01*
X687832Y-8829040D01*
G37*
G36*
X2250084Y-7135875D02*
G01*
X2250084Y-7153402D01*
X2328824Y-7153402D01*
X2328722Y-7163816D01*
X2328062Y-7168642D01*
X2327554Y-7170674D01*
X2326792Y-7172452D01*
X2325827Y-7173975D01*
X2324608Y-7175246D01*
X2323236Y-7176262D01*
X2321560Y-7177024D01*
X2319680Y-7177582D01*
X2317496Y-7177938D01*
X2312771Y-7177938D01*
X2308707Y-7177024D01*
X2306929Y-7176262D01*
X2305405Y-7175246D01*
X2304034Y-7173975D01*
X2302865Y-7172452D01*
X2301900Y-7170674D01*
X2301189Y-7168642D01*
X2300427Y-7163968D01*
X2300325Y-7153402D01*
X2286609Y-7153402D01*
X2286609Y-7164578D01*
X2250084Y-7184898D01*
X2250084Y-7204456D01*
X2290724Y-7179564D01*
X2293061Y-7183881D01*
X2296058Y-7187692D01*
X2299512Y-7190943D01*
X2303881Y-7193534D01*
X2306472Y-7194550D01*
X2309266Y-7195261D01*
X2312263Y-7195667D01*
X2315565Y-7195820D01*
X2319985Y-7195566D01*
X2323947Y-7194854D01*
X2327605Y-7193686D01*
X2330856Y-7192009D01*
X2333650Y-7189876D01*
X2336088Y-7187285D01*
X2338120Y-7184288D01*
X2339695Y-7180834D01*
X2341067Y-7176871D01*
X2341981Y-7172401D01*
X2342591Y-7167372D01*
X2342743Y-7135875D01*
G37*
G36*
X2320645Y-7212584D02*
G01*
X2310536Y-7221220D01*
X2319528Y-7231837D01*
X2325522Y-7237475D01*
X2322626Y-7237272D01*
X2313838Y-7237222D01*
X2310841Y-7237018D01*
X2250084Y-7236968D01*
X2250084Y-7254240D01*
X2342743Y-7254240D01*
X2342743Y-7239508D01*
G37*
G36*
X560832Y-8307171D02*
G01*
X560832Y-8321141D01*
X585978Y-8321141D01*
X591312Y-8321446D01*
X595630Y-8322411D01*
X597408Y-8323275D01*
X598932Y-8324291D01*
X600202Y-8325561D01*
X601218Y-8326983D01*
X602030Y-8328609D01*
X602894Y-8332673D01*
X602894Y-8337296D01*
X602030Y-8341258D01*
X601218Y-8342985D01*
X600202Y-8344509D01*
X598932Y-8345881D01*
X597408Y-8347049D01*
X595630Y-8348065D01*
X593699Y-8348725D01*
X589026Y-8349488D01*
X578358Y-8349589D01*
X578358Y-8321141D01*
X560832Y-8321141D01*
X560832Y-8399881D01*
X578358Y-8399881D01*
X578358Y-8363305D01*
X589534Y-8363305D01*
X609854Y-8399881D01*
X629666Y-8399881D01*
X604520Y-8359241D01*
X608838Y-8356955D01*
X612648Y-8354161D01*
X615899Y-8350453D01*
X618490Y-8346033D01*
X619506Y-8343493D01*
X620217Y-8340699D01*
X620623Y-8337651D01*
X620776Y-8334349D01*
X620572Y-8329930D01*
X619861Y-8325967D01*
X618642Y-8322309D01*
X616966Y-8319109D01*
X614934Y-8316366D01*
X612394Y-8313928D01*
X609346Y-8311896D01*
X605790Y-8310219D01*
X601827Y-8308848D01*
X597357Y-8307933D01*
X592328Y-8307374D01*
X586740Y-8307171D01*
G37*
G36*
X633984Y-8307171D02*
G01*
X633984Y-8321395D01*
X676910Y-8321395D01*
X643890Y-8399881D01*
X662432Y-8399881D01*
X695452Y-8318347D01*
X695452Y-8307171D01*
G37*
G36*
X560984Y-8457285D02*
G01*
X560984Y-8471001D01*
X588772Y-8471052D01*
X593598Y-8471814D01*
X597306Y-8473236D01*
X598830Y-8474202D01*
X600100Y-8475421D01*
X602030Y-8478469D01*
X603046Y-8482533D01*
X603046Y-8487257D01*
X602030Y-8491321D01*
X600151Y-8494623D01*
X598881Y-8495944D01*
X597458Y-8497011D01*
X595782Y-8497925D01*
X593750Y-8498687D01*
X591464Y-8499246D01*
X586130Y-8499652D01*
X578256Y-8499652D01*
X578256Y-8471001D01*
X560984Y-8471001D01*
X560984Y-8549944D01*
X578256Y-8549944D01*
X578256Y-8513368D01*
X589686Y-8513368D01*
X609752Y-8549944D01*
X629564Y-8549944D01*
X604672Y-8509101D01*
X608838Y-8506917D01*
X614375Y-8502345D01*
X615950Y-8500516D01*
X617270Y-8498433D01*
X619404Y-8493556D01*
X620115Y-8490762D01*
X620522Y-8487714D01*
X620674Y-8484412D01*
X620471Y-8480044D01*
X619810Y-8476030D01*
X618693Y-8472424D01*
X617118Y-8469172D01*
X614984Y-8466328D01*
X612444Y-8463838D01*
X609396Y-8461756D01*
X605942Y-8460028D01*
X601929Y-8458809D01*
X597357Y-8457946D01*
X592378Y-8457438D01*
G37*
G36*
X664616Y-8457285D02*
G01*
X637438Y-8479383D01*
X646328Y-8489543D01*
X656996Y-8480348D01*
X662330Y-8474506D01*
X662127Y-8484717D01*
X662076Y-8549944D01*
X679348Y-8549944D01*
X679348Y-8457285D01*
G37*
G36*
X734720Y-8457285D02*
G01*
X707796Y-8479383D01*
X716686Y-8489543D01*
X727252Y-8480348D01*
X732688Y-8474506D01*
X732485Y-8484717D01*
X732434Y-8549944D01*
X749706Y-8549944D01*
X749706Y-8457285D01*
G37*
G36*
X1373682Y-8055762D02*
G01*
X1368755Y-8055965D01*
X1364132Y-8056625D01*
X1359865Y-8057743D01*
X1355852Y-8059318D01*
X1352092Y-8061248D01*
X1348638Y-8063585D01*
X1345488Y-8066227D01*
X1342644Y-8069224D01*
X1340154Y-8072526D01*
X1337970Y-8076184D01*
X1336090Y-8080146D01*
X1334566Y-8084464D01*
X1333449Y-8088884D01*
X1332636Y-8093506D01*
X1332179Y-8098383D01*
X1331976Y-8103514D01*
X1332992Y-8117027D01*
X1336090Y-8128660D01*
X1338529Y-8133791D01*
X1341526Y-8138312D01*
X1345133Y-8142173D01*
X1349298Y-8145424D01*
X1354023Y-8147964D01*
X1359357Y-8149793D01*
X1365300Y-8150910D01*
X1371854Y-8151266D01*
X1378610Y-8151012D01*
X1384554Y-8150250D01*
X1390091Y-8148878D01*
X1395476Y-8146948D01*
X1395476Y-8132724D01*
X1390142Y-8134553D01*
X1384858Y-8136026D01*
X1379423Y-8136991D01*
X1373886Y-8137296D01*
X1370025Y-8137042D01*
X1366469Y-8136280D01*
X1363268Y-8135010D01*
X1360474Y-8133232D01*
X1357934Y-8130997D01*
X1355801Y-8128304D01*
X1354023Y-8125256D01*
X1352600Y-8121802D01*
X1351483Y-8117789D01*
X1350670Y-8113471D01*
X1350213Y-8108797D01*
X1350010Y-8103768D01*
X1350416Y-8096300D01*
X1351534Y-8089798D01*
X1352397Y-8086750D01*
X1354683Y-8081416D01*
X1357731Y-8076996D01*
X1359509Y-8075117D01*
X1361440Y-8073542D01*
X1363522Y-8072272D01*
X1365808Y-8071256D01*
X1368247Y-8070545D01*
X1370787Y-8070138D01*
X1373378Y-8069986D01*
X1378813Y-8070392D01*
X1381353Y-8070951D01*
X1393240Y-8075574D01*
X1399082Y-8062112D01*
X1393545Y-8059420D01*
X1387094Y-8057540D01*
X1380185Y-8056168D01*
G37*
G36*
X1436878Y-8055762D02*
G01*
X1430629Y-8056067D01*
X1424990Y-8057032D01*
X1420063Y-8058556D01*
X1415592Y-8060588D01*
X1411630Y-8062722D01*
X1407972Y-8065160D01*
X1415796Y-8076590D01*
X1420876Y-8073034D01*
X1423924Y-8071612D01*
X1427530Y-8070494D01*
X1431239Y-8069732D01*
X1435354Y-8069478D01*
X1438249Y-8069630D01*
X1440789Y-8070240D01*
X1442974Y-8071154D01*
X1444752Y-8072526D01*
X1446225Y-8074202D01*
X1447241Y-8076184D01*
X1447850Y-8078520D01*
X1448054Y-8081162D01*
X1447952Y-8083245D01*
X1446936Y-8087055D01*
X1446072Y-8088782D01*
X1445006Y-8090306D01*
X1443634Y-8091678D01*
X1441958Y-8092846D01*
X1439926Y-8093862D01*
X1437589Y-8094624D01*
X1434846Y-8095183D01*
X1431747Y-8095538D01*
X1421384Y-8095640D01*
X1421384Y-8108848D01*
X1431848Y-8108950D01*
X1435252Y-8109203D01*
X1440738Y-8110372D01*
X1442821Y-8111185D01*
X1444650Y-8112201D01*
X1446123Y-8113369D01*
X1447342Y-8114690D01*
X1448308Y-8116316D01*
X1449019Y-8118094D01*
X1449476Y-8120125D01*
X1449578Y-8122310D01*
X1449324Y-8125764D01*
X1448511Y-8128812D01*
X1447190Y-8131505D01*
X1445260Y-8133740D01*
X1442872Y-8135518D01*
X1439722Y-8136788D01*
X1435760Y-8137550D01*
X1431036Y-8137804D01*
X1425549Y-8137398D01*
X1419656Y-8136280D01*
X1413459Y-8134350D01*
X1407668Y-8131708D01*
X1407668Y-8146186D01*
X1413408Y-8148421D01*
X1419352Y-8149996D01*
X1425803Y-8150961D01*
X1432864Y-8151266D01*
X1438656Y-8151012D01*
X1443888Y-8150352D01*
X1448562Y-8149234D01*
X1452626Y-8147710D01*
X1456334Y-8145627D01*
X1459433Y-8143240D01*
X1462024Y-8140547D01*
X1464106Y-8137550D01*
X1465630Y-8134248D01*
X1466748Y-8130794D01*
X1467408Y-8127136D01*
X1467612Y-8123326D01*
X1467307Y-8118856D01*
X1466291Y-8114893D01*
X1464614Y-8111337D01*
X1462278Y-8108340D01*
X1459280Y-8105800D01*
X1455623Y-8103819D01*
X1451305Y-8102396D01*
X1446276Y-8101482D01*
X1446276Y-8101228D01*
X1451559Y-8099399D01*
X1456232Y-8096910D01*
X1458163Y-8095284D01*
X1461465Y-8091474D01*
X1462786Y-8089290D01*
X1463903Y-8086902D01*
X1464716Y-8084261D01*
X1465173Y-8081416D01*
X1465326Y-8078368D01*
X1464868Y-8073440D01*
X1463446Y-8069021D01*
X1461058Y-8065160D01*
X1457756Y-8061858D01*
X1453642Y-8059166D01*
X1448866Y-8057286D01*
X1443228Y-8056118D01*
G37*
G36*
X1446479Y-9031986D02*
G01*
X1432966Y-9033002D01*
X1421333Y-9036050D01*
X1416202Y-9038488D01*
X1411681Y-9041536D01*
X1407820Y-9045092D01*
X1404569Y-9049258D01*
X1402029Y-9053982D01*
X1400200Y-9059367D01*
X1399082Y-9065310D01*
X1398727Y-9071864D01*
X1398981Y-9078620D01*
X1399743Y-9084564D01*
X1401064Y-9090101D01*
X1403045Y-9095486D01*
X1417269Y-9095486D01*
X1415440Y-9090152D01*
X1413967Y-9084818D01*
X1413002Y-9079433D01*
X1412697Y-9073896D01*
X1412951Y-9069984D01*
X1413713Y-9066479D01*
X1414983Y-9063278D01*
X1416761Y-9060434D01*
X1418996Y-9057944D01*
X1421638Y-9055811D01*
X1424736Y-9053982D01*
X1428191Y-9052560D01*
X1432153Y-9051442D01*
X1436522Y-9050680D01*
X1441196Y-9050172D01*
X1450035Y-9050121D01*
X1457045Y-9050883D01*
X1463243Y-9052407D01*
X1468577Y-9054693D01*
X1472996Y-9057741D01*
X1474876Y-9059468D01*
X1476451Y-9061399D01*
X1477721Y-9063482D01*
X1478737Y-9065818D01*
X1479448Y-9068257D01*
X1479854Y-9070746D01*
X1480007Y-9073388D01*
X1479905Y-9076131D01*
X1478991Y-9081363D01*
X1476400Y-9088577D01*
X1474419Y-9093200D01*
X1487881Y-9099042D01*
X1489303Y-9096400D01*
X1491589Y-9090406D01*
X1493215Y-9083598D01*
X1494129Y-9076842D01*
X1494231Y-9073642D01*
X1494028Y-9068714D01*
X1493367Y-9064142D01*
X1492250Y-9059824D01*
X1490675Y-9055862D01*
X1488744Y-9052102D01*
X1486408Y-9048648D01*
X1483766Y-9045498D01*
X1480769Y-9042654D01*
X1477416Y-9040164D01*
X1473809Y-9037980D01*
X1469796Y-9036100D01*
X1465529Y-9034526D01*
X1461109Y-9033408D01*
X1456436Y-9032646D01*
X1451559Y-9032138D01*
G37*
G36*
X1419809Y-9105138D02*
G01*
X1419809Y-9120632D01*
X1433271Y-9120632D01*
X1465529Y-9139072D01*
X1474419Y-9143492D01*
X1474419Y-9144000D01*
X1459687Y-9143238D01*
X1433271Y-9143238D01*
X1433271Y-9120632D01*
X1419809Y-9120632D01*
X1419809Y-9143238D01*
X1399997Y-9143238D01*
X1399997Y-9160256D01*
X1419809Y-9160256D01*
X1419809Y-9171178D01*
X1433271Y-9171178D01*
X1433271Y-9160256D01*
X1492961Y-9160256D01*
X1492961Y-9143746D01*
X1432001Y-9105138D01*
G37*
G36*
X1923643Y-8730742D02*
G01*
X1918716Y-8730996D01*
X1914143Y-8731656D01*
X1909825Y-8732774D01*
X1905863Y-8734298D01*
X1902104Y-8736279D01*
X1898650Y-8738565D01*
X1895500Y-8741206D01*
X1892655Y-8744204D01*
X1890166Y-8747556D01*
X1887982Y-8751214D01*
X1886102Y-8755176D01*
X1884527Y-8759444D01*
X1883410Y-8763863D01*
X1882648Y-8768537D01*
X1882139Y-8773414D01*
X1881987Y-8778494D01*
X1883003Y-8792006D01*
X1886051Y-8803640D01*
X1888489Y-8808770D01*
X1891538Y-8813292D01*
X1895093Y-8817152D01*
X1899259Y-8820404D01*
X1904034Y-8822944D01*
X1909368Y-8824772D01*
X1915312Y-8825890D01*
X1921865Y-8826246D01*
X1928622Y-8825992D01*
X1934565Y-8825230D01*
X1940102Y-8823909D01*
X1945487Y-8821928D01*
X1945487Y-8807704D01*
X1940153Y-8809532D01*
X1934819Y-8811006D01*
X1929434Y-8811971D01*
X1923897Y-8812276D01*
X1920036Y-8812022D01*
X1916480Y-8811260D01*
X1913280Y-8809990D01*
X1910435Y-8808212D01*
X1907946Y-8805976D01*
X1905812Y-8803335D01*
X1904034Y-8800287D01*
X1902561Y-8796782D01*
X1901443Y-8792819D01*
X1900682Y-8788450D01*
X1900174Y-8783777D01*
X1900123Y-8774938D01*
X1900885Y-8767927D01*
X1902409Y-8761730D01*
X1904695Y-8756396D01*
X1907743Y-8751976D01*
X1909521Y-8750096D01*
X1911400Y-8748522D01*
X1913483Y-8747252D01*
X1915820Y-8746236D01*
X1918258Y-8745524D01*
X1920798Y-8745118D01*
X1923389Y-8744966D01*
X1926132Y-8745067D01*
X1931365Y-8745982D01*
X1938578Y-8748572D01*
X1943201Y-8750554D01*
X1949043Y-8737092D01*
X1946402Y-8735669D01*
X1940458Y-8733383D01*
X1933600Y-8731758D01*
X1926894Y-8730843D01*
G37*
G36*
X1964537Y-8732266D02*
G01*
X1961235Y-8778240D01*
X1968347Y-8782050D01*
X1974443Y-8780780D01*
X1978202Y-8780221D01*
X1981809Y-8780018D01*
X1986076Y-8780272D01*
X1989785Y-8781034D01*
X1992833Y-8782304D01*
X1995271Y-8784082D01*
X1997303Y-8786368D01*
X1998725Y-8789111D01*
X1999589Y-8792311D01*
X1999843Y-8796020D01*
X1999742Y-8798712D01*
X1998725Y-8803386D01*
X1997811Y-8805418D01*
X1996592Y-8807196D01*
X1995170Y-8808669D01*
X1993544Y-8809837D01*
X1989734Y-8811514D01*
X1985010Y-8812428D01*
X1979472Y-8812428D01*
X1973529Y-8811666D01*
X1970379Y-8811006D01*
X1964486Y-8809024D01*
X1959457Y-8806688D01*
X1959457Y-8821166D01*
X1961743Y-8822385D01*
X1967077Y-8824264D01*
X1973224Y-8825534D01*
X1979726Y-8826195D01*
X1983079Y-8826246D01*
X1988464Y-8825992D01*
X1993392Y-8825280D01*
X1997862Y-8824112D01*
X2001875Y-8822436D01*
X2005482Y-8820353D01*
X2008581Y-8817813D01*
X2011172Y-8814866D01*
X2013305Y-8811514D01*
X2015083Y-8807805D01*
X2016353Y-8803690D01*
X2017115Y-8799271D01*
X2017369Y-8794496D01*
X2017166Y-8790127D01*
X2016506Y-8786114D01*
X2015388Y-8782507D01*
X2013813Y-8779256D01*
X2011883Y-8776411D01*
X2009597Y-8773871D01*
X2006904Y-8771686D01*
X2003907Y-8769858D01*
X2000707Y-8768435D01*
X1997252Y-8767368D01*
X1993493Y-8766759D01*
X1987397Y-8766606D01*
X1983943Y-8766860D01*
X1977745Y-8767826D01*
X1979523Y-8746490D01*
X2011273Y-8746490D01*
X2011273Y-8732266D01*
G37*
G36*
X1696466Y-8382000D02*
G01*
X1682953Y-8383016D01*
X1671320Y-8386064D01*
X1666189Y-8388502D01*
X1661668Y-8391499D01*
X1657807Y-8395106D01*
X1654556Y-8399272D01*
X1652016Y-8403996D01*
X1650187Y-8409381D01*
X1649069Y-8415324D01*
X1648714Y-8421878D01*
X1648968Y-8428583D01*
X1649730Y-8434578D01*
X1651050Y-8440115D01*
X1653032Y-8445500D01*
X1667256Y-8445500D01*
X1665427Y-8440166D01*
X1663954Y-8434832D01*
X1662988Y-8429447D01*
X1662684Y-8423910D01*
X1662938Y-8419998D01*
X1663700Y-8416493D01*
X1664970Y-8413292D01*
X1666748Y-8410448D01*
X1668983Y-8407958D01*
X1671675Y-8405825D01*
X1674723Y-8403996D01*
X1678178Y-8402574D01*
X1682191Y-8401456D01*
X1686509Y-8400643D01*
X1691182Y-8400186D01*
X1700072Y-8400135D01*
X1703679Y-8400389D01*
X1710182Y-8401558D01*
X1716024Y-8403437D01*
X1718564Y-8404707D01*
X1722983Y-8407704D01*
X1724863Y-8409482D01*
X1726438Y-8411413D01*
X1727707Y-8413496D01*
X1728724Y-8415832D01*
X1729435Y-8418271D01*
X1729841Y-8420760D01*
X1729993Y-8423402D01*
X1729892Y-8426145D01*
X1729028Y-8431326D01*
X1726387Y-8438591D01*
X1724406Y-8443214D01*
X1737868Y-8449056D01*
X1740560Y-8443518D01*
X1742439Y-8437118D01*
X1743811Y-8430209D01*
X1744218Y-8423656D01*
X1744014Y-8418728D01*
X1743354Y-8414105D01*
X1742236Y-8409838D01*
X1740662Y-8405876D01*
X1738731Y-8402066D01*
X1736445Y-8398611D01*
X1733753Y-8395462D01*
X1730756Y-8392668D01*
X1727454Y-8390128D01*
X1723796Y-8387943D01*
X1719834Y-8386064D01*
X1715516Y-8384540D01*
X1711096Y-8383422D01*
X1706473Y-8382609D01*
X1701596Y-8382152D01*
G37*
G36*
X1689607Y-8457946D02*
G01*
X1684578Y-8458098D01*
X1679854Y-8458555D01*
X1675434Y-8459368D01*
X1671320Y-8460486D01*
X1667662Y-8461756D01*
X1664360Y-8463280D01*
X1661312Y-8465058D01*
X1658620Y-8467090D01*
X1656283Y-8469325D01*
X1654251Y-8471763D01*
X1652574Y-8474405D01*
X1650136Y-8480094D01*
X1649374Y-8483092D01*
X1648866Y-8486190D01*
X1648725Y-8489188D01*
X1662175Y-8489188D01*
X1662277Y-8487460D01*
X1663192Y-8484412D01*
X1664817Y-8481872D01*
X1667103Y-8479688D01*
X1670100Y-8477961D01*
X1673402Y-8476691D01*
X1676907Y-8475878D01*
X1680464Y-8475522D01*
X1684020Y-8475573D01*
X1685747Y-8475827D01*
X1689100Y-8476996D01*
X1690725Y-8477961D01*
X1693519Y-8480501D01*
X1695602Y-8483650D01*
X1696618Y-8487359D01*
X1696720Y-8489442D01*
X1696466Y-8492388D01*
X1695653Y-8494979D01*
X1694281Y-8497112D01*
X1692402Y-8498840D01*
X1689963Y-8500160D01*
X1687118Y-8501126D01*
X1683969Y-8501684D01*
X1680464Y-8501888D01*
X1676095Y-8501634D01*
X1672285Y-8500973D01*
X1669084Y-8499856D01*
X1666493Y-8498332D01*
X1664614Y-8496401D01*
X1663293Y-8494268D01*
X1662480Y-8491829D01*
X1662175Y-8489188D01*
X1648725Y-8489188D01*
X1648968Y-8493810D01*
X1649679Y-8497874D01*
X1650847Y-8501583D01*
X1652524Y-8504936D01*
X1654657Y-8508034D01*
X1657146Y-8510778D01*
X1660093Y-8513114D01*
X1663446Y-8515096D01*
X1667205Y-8516620D01*
X1671269Y-8517737D01*
X1675688Y-8518398D01*
X1680464Y-8518652D01*
X1684985Y-8518448D01*
X1689100Y-8517940D01*
X1692859Y-8517077D01*
X1696212Y-8515858D01*
X1699209Y-8514181D01*
X1701850Y-8512149D01*
X1704187Y-8509863D01*
X1706118Y-8507222D01*
X1707591Y-8504275D01*
X1708607Y-8501126D01*
X1709216Y-8497671D01*
X1709369Y-8491677D01*
X1708708Y-8487359D01*
X1708150Y-8485378D01*
X1706372Y-8482076D01*
X1704086Y-8479282D01*
X1701546Y-8476945D01*
X1698498Y-8474964D01*
X1698498Y-8474202D01*
X1705305Y-8474760D01*
X1714296Y-8476691D01*
X1719376Y-8478875D01*
X1723694Y-8481923D01*
X1725523Y-8483854D01*
X1727098Y-8485987D01*
X1728470Y-8488426D01*
X1729486Y-8491118D01*
X1730197Y-8494217D01*
X1730603Y-8497620D01*
X1730756Y-8503005D01*
X1730349Y-8508847D01*
X1729486Y-8512556D01*
X1742948Y-8512556D01*
X1743710Y-8506968D01*
X1743964Y-8501126D01*
X1743760Y-8495995D01*
X1743202Y-8491220D01*
X1742236Y-8486851D01*
X1740916Y-8482838D01*
X1739239Y-8479282D01*
X1737309Y-8476030D01*
X1735074Y-8473084D01*
X1732534Y-8470392D01*
X1729790Y-8468106D01*
X1726793Y-8466074D01*
X1723542Y-8464296D01*
X1720088Y-8462772D01*
X1712975Y-8460587D01*
X1705356Y-8459216D01*
X1697482Y-8458250D01*
G37*
G36*
X1674977Y-6110833D02*
G01*
X1674977Y-6128359D01*
X1753971Y-6128359D01*
X1753971Y-6138773D01*
X1753768Y-6142786D01*
X1753158Y-6146495D01*
X1752142Y-6149898D01*
X1750669Y-6152997D01*
X1748688Y-6155690D01*
X1746250Y-6158077D01*
X1743354Y-6160008D01*
X1740001Y-6161633D01*
X1736191Y-6162954D01*
X1731873Y-6163919D01*
X1727047Y-6164478D01*
X1721713Y-6164681D01*
X1707438Y-6162954D01*
X1697075Y-6157823D01*
X1693519Y-6153912D01*
X1690979Y-6149086D01*
X1689455Y-6143396D01*
X1688947Y-6136741D01*
X1688947Y-6128359D01*
X1674977Y-6128359D01*
X1674977Y-6136487D01*
X1676349Y-6149949D01*
X1680311Y-6161379D01*
X1683308Y-6166256D01*
X1686915Y-6170574D01*
X1691182Y-6174282D01*
X1696059Y-6177381D01*
X1707946Y-6181344D01*
X1722221Y-6182715D01*
X1736039Y-6181445D01*
X1747367Y-6177635D01*
X1752041Y-6174638D01*
X1756156Y-6171133D01*
X1759661Y-6167018D01*
X1762607Y-6162395D01*
X1764842Y-6157163D01*
X1766417Y-6151524D01*
X1767382Y-6145377D01*
X1767687Y-6138773D01*
X1767687Y-6110833D01*
G37*
G36*
X1745589Y-6197701D02*
G01*
X1735429Y-6206591D01*
X1746402Y-6218885D01*
X1750415Y-6222593D01*
X1744827Y-6222339D01*
X1674977Y-6222085D01*
X1674977Y-6239611D01*
X1767687Y-6239611D01*
X1767687Y-6224625D01*
G37*
G36*
X1674977Y-6310833D02*
G01*
X1674977Y-6328359D01*
X1753971Y-6328359D01*
X1753971Y-6338773D01*
X1753768Y-6342786D01*
X1753158Y-6346494D01*
X1752142Y-6349898D01*
X1750669Y-6352997D01*
X1748688Y-6355689D01*
X1746250Y-6358077D01*
X1743354Y-6360007D01*
X1740001Y-6361633D01*
X1736191Y-6362954D01*
X1731873Y-6363919D01*
X1727047Y-6364478D01*
X1721713Y-6364681D01*
X1707438Y-6362954D01*
X1697075Y-6357823D01*
X1693519Y-6353911D01*
X1690979Y-6349085D01*
X1689455Y-6343345D01*
X1688947Y-6336741D01*
X1688947Y-6328359D01*
X1674977Y-6328359D01*
X1674977Y-6336487D01*
X1676349Y-6349949D01*
X1680311Y-6361379D01*
X1683308Y-6366256D01*
X1686915Y-6370574D01*
X1691182Y-6374282D01*
X1696059Y-6377381D01*
X1707946Y-6381343D01*
X1722221Y-6382715D01*
X1736039Y-6381445D01*
X1747367Y-6377635D01*
X1752041Y-6374638D01*
X1756156Y-6371132D01*
X1759661Y-6367018D01*
X1762607Y-6362395D01*
X1764842Y-6357162D01*
X1766417Y-6351524D01*
X1767382Y-6345377D01*
X1767687Y-6338773D01*
X1767687Y-6310833D01*
G37*
G36*
X1674977Y-6394653D02*
G01*
X1674977Y-6455105D01*
X1689201Y-6455105D01*
X1689201Y-6416497D01*
X1689963Y-6416497D01*
X1712010Y-6436614D01*
X1721713Y-6444589D01*
X1726438Y-6447637D01*
X1733651Y-6451041D01*
X1738680Y-6452158D01*
X1744065Y-6452565D01*
X1747672Y-6452311D01*
X1751025Y-6451701D01*
X1754124Y-6450685D01*
X1757019Y-6449263D01*
X1759712Y-6447383D01*
X1762048Y-6445199D01*
X1764131Y-6442557D01*
X1765909Y-6439611D01*
X1767382Y-6436410D01*
X1768398Y-6432905D01*
X1769008Y-6429146D01*
X1769211Y-6425133D01*
X1768805Y-6418173D01*
X1768246Y-6415074D01*
X1766519Y-6409537D01*
X1764233Y-6404711D01*
X1761439Y-6400495D01*
X1756765Y-6394653D01*
X1745843Y-6404051D01*
X1749856Y-6408978D01*
X1752701Y-6413703D01*
X1753819Y-6416090D01*
X1754632Y-6418580D01*
X1755089Y-6421069D01*
X1755241Y-6423609D01*
X1755038Y-6426098D01*
X1754428Y-6428333D01*
X1753412Y-6430314D01*
X1751939Y-6431991D01*
X1750212Y-6433413D01*
X1748078Y-6434429D01*
X1745538Y-6435039D01*
X1742541Y-6435293D01*
X1737461Y-6434785D01*
X1732889Y-6433261D01*
X1728216Y-6430873D01*
X1723237Y-6427419D01*
X1711045Y-6416751D01*
X1687169Y-6394653D01*
G37*
G36*
X2249982Y-7660792D02*
G01*
X2249982Y-7678318D01*
X2328976Y-7678318D01*
X2328976Y-7688732D01*
X2328773Y-7692745D01*
X2328164Y-7696504D01*
X2327148Y-7699857D01*
X2325674Y-7702956D01*
X2323693Y-7705699D01*
X2321255Y-7708036D01*
X2318359Y-7710017D01*
X2315006Y-7711592D01*
X2311196Y-7712913D01*
X2306878Y-7713878D01*
X2302052Y-7714437D01*
X2296718Y-7714640D01*
X2282444Y-7712913D01*
X2272080Y-7707782D01*
X2268524Y-7703870D01*
X2265984Y-7699095D01*
X2264460Y-7693355D01*
X2263952Y-7686700D01*
X2263952Y-7678318D01*
X2249982Y-7678318D01*
X2249982Y-7686446D01*
X2251354Y-7699908D01*
X2255316Y-7711338D01*
X2258314Y-7716266D01*
X2261920Y-7720533D01*
X2266188Y-7724241D01*
X2271064Y-7727340D01*
X2282952Y-7731353D01*
X2297226Y-7732674D01*
X2311044Y-7731404D01*
X2322372Y-7727594D01*
X2327046Y-7724648D01*
X2331161Y-7721142D01*
X2334666Y-7717028D01*
X2337612Y-7712354D01*
X2339848Y-7707172D01*
X2341422Y-7701483D01*
X2342388Y-7695336D01*
X2342692Y-7688732D01*
X2342692Y-7660792D01*
G37*
G36*
X2253792Y-7744612D02*
G01*
X2251608Y-7750352D01*
X2249982Y-7756296D01*
X2249068Y-7762544D01*
X2248712Y-7769504D01*
X2248966Y-7775346D01*
X2249627Y-7780629D01*
X2250744Y-7785353D01*
X2252268Y-7789570D01*
X2254351Y-7793126D01*
X2256739Y-7796225D01*
X2259431Y-7798866D01*
X2262428Y-7801000D01*
X2265730Y-7802575D01*
X2269185Y-7803692D01*
X2272842Y-7804353D01*
X2276652Y-7804556D01*
X2281123Y-7804200D01*
X2285136Y-7803235D01*
X2288641Y-7801559D01*
X2291638Y-7799222D01*
X2294178Y-7796123D01*
X2296160Y-7792415D01*
X2297633Y-7788148D01*
X2298496Y-7783220D01*
X2298750Y-7783220D01*
X2300630Y-7788300D01*
X2303068Y-7792872D01*
X2304694Y-7794904D01*
X2306523Y-7796682D01*
X2308504Y-7798206D01*
X2313127Y-7800594D01*
X2315718Y-7801406D01*
X2318562Y-7801864D01*
X2321610Y-7802016D01*
X2326589Y-7801559D01*
X2330958Y-7800187D01*
X2334818Y-7797850D01*
X2338120Y-7794650D01*
X2340813Y-7790586D01*
X2342692Y-7785709D01*
X2343861Y-7780020D01*
X2344216Y-7773568D01*
X2343912Y-7767472D01*
X2342946Y-7761884D01*
X2341422Y-7756855D01*
X2337257Y-7748422D01*
X2334818Y-7744866D01*
X2323388Y-7752740D01*
X2325166Y-7755026D01*
X2326944Y-7757820D01*
X2328367Y-7760817D01*
X2329484Y-7764170D01*
X2330246Y-7768031D01*
X2330500Y-7772044D01*
X2330348Y-7775041D01*
X2329738Y-7777632D01*
X2328824Y-7779867D01*
X2327452Y-7781696D01*
X2325776Y-7783118D01*
X2323795Y-7784185D01*
X2321458Y-7784795D01*
X2318816Y-7784998D01*
X2316734Y-7784896D01*
X2312924Y-7783880D01*
X2311196Y-7782966D01*
X2309672Y-7781798D01*
X2308301Y-7780375D01*
X2307132Y-7778648D01*
X2306116Y-7776616D01*
X2305354Y-7774381D01*
X2304796Y-7771688D01*
X2304338Y-7764932D01*
X2304338Y-7758074D01*
X2291130Y-7758074D01*
X2291080Y-7768640D01*
X2290318Y-7774889D01*
X2288794Y-7779512D01*
X2287778Y-7781391D01*
X2286609Y-7782966D01*
X2285288Y-7784236D01*
X2283714Y-7785150D01*
X2279904Y-7786166D01*
X2277668Y-7786268D01*
X2274214Y-7786014D01*
X2271166Y-7785252D01*
X2268474Y-7783982D01*
X2266238Y-7782204D01*
X2264460Y-7779816D01*
X2263190Y-7776616D01*
X2262428Y-7772704D01*
X2262174Y-7767980D01*
X2262581Y-7762392D01*
X2263698Y-7756296D01*
X2265629Y-7750352D01*
X2268270Y-7744612D01*
G37*
G36*
X1160881Y-5632297D02*
G01*
X1160881Y-5725007D01*
X1178407Y-5725007D01*
X1178407Y-5683859D01*
X1214221Y-5683859D01*
X1214221Y-5725007D01*
X1231747Y-5725007D01*
X1231747Y-5632297D01*
X1214221Y-5632297D01*
X1214221Y-5669635D01*
X1178407Y-5669635D01*
X1178407Y-5632297D01*
G37*
G36*
X1277467Y-5632297D02*
G01*
X1250543Y-5654395D01*
X1259433Y-5664555D01*
X1269847Y-5655360D01*
X1275435Y-5649569D01*
X1274927Y-5667095D01*
X1274927Y-5725007D01*
X1292453Y-5725007D01*
X1292453Y-5632297D01*
G37*
G36*
X1277975Y-9305899D02*
G01*
X1271016Y-9306306D01*
X1264970Y-9307423D01*
X1259941Y-9309455D01*
X1255318Y-9311995D01*
X1247444Y-9318091D01*
X1256893Y-9329013D01*
X1261872Y-9325152D01*
X1266799Y-9322155D01*
X1269085Y-9321190D01*
X1271473Y-9320479D01*
X1273911Y-9320022D01*
X1276451Y-9319869D01*
X1278940Y-9320072D01*
X1281176Y-9320631D01*
X1283157Y-9321596D01*
X1284833Y-9322917D01*
X1286256Y-9324797D01*
X1287272Y-9326981D01*
X1287881Y-9329572D01*
X1288135Y-9332569D01*
X1287627Y-9337548D01*
X1286967Y-9339935D01*
X1285036Y-9344456D01*
X1282141Y-9349130D01*
X1278026Y-9354312D01*
X1272692Y-9360560D01*
X1247749Y-9387941D01*
X1247749Y-9399879D01*
X1308201Y-9399879D01*
X1308201Y-9385909D01*
X1269593Y-9385909D01*
X1269593Y-9384893D01*
X1289456Y-9362998D01*
X1293723Y-9358020D01*
X1297432Y-9353194D01*
X1300581Y-9348470D01*
X1302969Y-9343796D01*
X1303883Y-9341459D01*
X1305001Y-9336379D01*
X1305407Y-9330791D01*
X1305153Y-9327235D01*
X1304544Y-9323882D01*
X1303528Y-9320733D01*
X1302054Y-9317837D01*
X1300226Y-9315196D01*
X1298041Y-9312808D01*
X1295400Y-9310776D01*
X1292402Y-9308947D01*
X1289253Y-9307626D01*
X1285748Y-9306661D01*
X1281988Y-9306102D01*
G37*
G36*
X1160830Y-9307169D02*
G01*
X1160830Y-9399879D01*
X1178407Y-9399879D01*
X1178407Y-9358731D01*
X1214170Y-9358731D01*
X1214170Y-9399879D01*
X1231696Y-9399879D01*
X1231696Y-9307169D01*
X1214170Y-9307169D01*
X1214170Y-9344507D01*
X1178407Y-9344507D01*
X1178407Y-9307169D01*
G37*
G36*
X2224989Y-8160816D02*
G01*
X2224989Y-8214156D01*
X2238959Y-8214156D01*
X2238959Y-8178342D01*
X2317699Y-8178342D01*
X2317699Y-8160816D01*
G37*
G36*
X2295601Y-8225840D02*
G01*
X2285441Y-8234476D01*
X2294636Y-8245144D01*
X2300427Y-8250732D01*
X2282901Y-8250224D01*
X2224989Y-8250224D01*
X2224989Y-8267496D01*
X2317699Y-8267496D01*
X2317699Y-8252764D01*
G37*
G36*
X1375003Y-8185759D02*
G01*
X1375003Y-8239099D01*
X1388973Y-8239099D01*
X1388973Y-8203285D01*
X1467713Y-8203285D01*
X1467713Y-8185759D01*
G37*
G36*
X1456791Y-8247735D02*
G01*
X1445869Y-8257133D01*
X1449882Y-8262162D01*
X1452727Y-8267039D01*
X1453845Y-8269376D01*
X1454607Y-8271764D01*
X1455115Y-8274202D01*
X1455267Y-8276691D01*
X1455064Y-8279231D01*
X1454454Y-8281466D01*
X1453388Y-8283448D01*
X1451965Y-8285073D01*
X1450238Y-8286546D01*
X1448104Y-8287562D01*
X1445514Y-8288172D01*
X1442567Y-8288375D01*
X1439976Y-8288274D01*
X1435150Y-8287258D01*
X1430578Y-8285327D01*
X1425752Y-8282431D01*
X1420571Y-8278317D01*
X1414475Y-8272983D01*
X1387195Y-8247989D01*
X1375003Y-8247989D01*
X1375003Y-8308441D01*
X1389227Y-8308441D01*
X1389227Y-8269833D01*
X1389989Y-8269833D01*
X1412036Y-8289747D01*
X1417015Y-8294014D01*
X1421739Y-8297722D01*
X1426413Y-8300872D01*
X1431239Y-8303259D01*
X1436116Y-8304834D01*
X1441348Y-8305596D01*
X1447647Y-8305444D01*
X1451000Y-8304834D01*
X1454150Y-8303818D01*
X1457045Y-8302345D01*
X1459687Y-8300516D01*
X1462074Y-8298281D01*
X1464157Y-8295690D01*
X1465935Y-8292693D01*
X1467358Y-8289544D01*
X1468424Y-8286038D01*
X1469034Y-8282279D01*
X1469237Y-8278215D01*
X1469136Y-8274659D01*
X1468221Y-8268208D01*
X1467459Y-8265261D01*
X1465427Y-8260181D01*
X1462887Y-8255609D01*
G37*
G36*
X1725015Y-8960764D02*
G01*
X1725015Y-9014104D01*
X1738985Y-9014104D01*
X1738985Y-8978290D01*
X1817725Y-8978290D01*
X1817725Y-8960764D01*
G37*
G36*
X1728825Y-9022740D02*
G01*
X1726590Y-9028480D01*
X1725015Y-9034424D01*
X1724050Y-9040672D01*
X1723745Y-9047632D01*
X1723948Y-9053474D01*
X1724609Y-9058757D01*
X1725726Y-9063482D01*
X1727301Y-9067698D01*
X1729333Y-9071305D01*
X1731721Y-9074353D01*
X1734413Y-9076994D01*
X1737461Y-9079128D01*
X1740712Y-9080703D01*
X1744167Y-9081820D01*
X1747824Y-9082481D01*
X1751685Y-9082684D01*
X1756105Y-9082379D01*
X1760118Y-9081363D01*
X1763623Y-9079687D01*
X1766671Y-9077350D01*
X1769160Y-9074353D01*
X1771142Y-9070695D01*
X1772615Y-9066377D01*
X1773529Y-9061348D01*
X1773783Y-9061348D01*
X1775612Y-9066580D01*
X1778101Y-9071000D01*
X1779727Y-9073083D01*
X1781505Y-9074861D01*
X1783537Y-9076486D01*
X1785721Y-9077858D01*
X1788109Y-9078874D01*
X1790700Y-9079585D01*
X1793544Y-9079992D01*
X1796643Y-9080144D01*
X1801571Y-9079687D01*
X1805939Y-9078315D01*
X1809800Y-9076029D01*
X1813153Y-9072778D01*
X1815795Y-9068714D01*
X1817725Y-9063837D01*
X1818843Y-9058148D01*
X1819249Y-9051696D01*
X1818893Y-9045600D01*
X1817979Y-9040012D01*
X1816455Y-9034983D01*
X1814423Y-9030614D01*
X1812239Y-9026550D01*
X1809851Y-9022994D01*
X1798421Y-9030868D01*
X1801977Y-9035948D01*
X1803349Y-9038945D01*
X1804517Y-9042298D01*
X1805279Y-9046260D01*
X1805533Y-9050426D01*
X1805330Y-9053322D01*
X1804771Y-9055862D01*
X1803806Y-9057995D01*
X1802485Y-9059824D01*
X1800809Y-9061297D01*
X1798777Y-9062313D01*
X1796491Y-9062923D01*
X1793849Y-9063126D01*
X1791716Y-9063024D01*
X1787906Y-9062008D01*
X1784654Y-9059976D01*
X1783283Y-9058554D01*
X1782114Y-9056928D01*
X1781149Y-9054998D01*
X1780336Y-9052661D01*
X1779778Y-9049867D01*
X1779371Y-9043060D01*
X1779371Y-9036202D01*
X1766163Y-9036202D01*
X1766062Y-9046819D01*
X1765300Y-9053017D01*
X1764639Y-9055506D01*
X1763775Y-9057741D01*
X1761642Y-9061196D01*
X1760321Y-9062364D01*
X1758696Y-9063278D01*
X1754886Y-9064294D01*
X1752701Y-9064396D01*
X1749196Y-9064142D01*
X1746148Y-9063380D01*
X1743506Y-9062110D01*
X1741271Y-9060332D01*
X1739493Y-9057944D01*
X1738223Y-9054744D01*
X1737461Y-9050832D01*
X1737207Y-9046108D01*
X1737563Y-9040520D01*
X1738731Y-9034424D01*
X1740611Y-9028480D01*
X1743303Y-9022740D01*
G37*
G36*
X2249982Y-6910781D02*
G01*
X2249982Y-6964121D01*
X2263952Y-6964121D01*
X2263952Y-6928307D01*
X2342692Y-6928307D01*
X2342692Y-6910781D01*
G37*
G36*
X2269794Y-6970217D02*
G01*
X2269794Y-6985711D01*
X2283256Y-6985711D01*
X2315514Y-7004151D01*
X2324404Y-7008317D01*
X2324404Y-7008825D01*
X2312670Y-7008368D01*
X2283256Y-7008317D01*
X2283256Y-6985711D01*
X2269794Y-6985711D01*
X2269794Y-7008317D01*
X2249982Y-7008317D01*
X2249982Y-7025335D01*
X2269794Y-7025335D01*
X2269794Y-7036257D01*
X2283256Y-7036257D01*
X2283256Y-7025335D01*
X2342946Y-7025335D01*
X2342946Y-7008825D01*
X2281986Y-6970217D01*
G37*
G36*
X1583029Y-7685125D02*
G01*
X1569059Y-7687360D01*
X1558137Y-7694015D01*
X1551076Y-7705140D01*
X1548739Y-7720177D01*
X1548993Y-7726019D01*
X1549857Y-7731302D01*
X1551279Y-7736078D01*
X1553311Y-7740243D01*
X1555699Y-7744053D01*
X1558493Y-7747304D01*
X1561795Y-7750048D01*
X1565503Y-7752181D01*
X1569415Y-7753959D01*
X1573631Y-7755229D01*
X1578051Y-7755991D01*
X1582775Y-7756245D01*
X1642719Y-7756245D01*
X1642719Y-7738719D01*
X1581454Y-7738618D01*
X1575511Y-7737602D01*
X1570482Y-7735671D01*
X1568399Y-7734401D01*
X1566672Y-7732877D01*
X1565249Y-7731099D01*
X1564233Y-7728966D01*
X1563522Y-7726476D01*
X1563116Y-7723733D01*
X1562963Y-7720685D01*
X1563268Y-7716520D01*
X1564233Y-7712913D01*
X1565808Y-7709814D01*
X1568043Y-7707223D01*
X1571091Y-7705242D01*
X1574901Y-7703820D01*
X1579473Y-7702956D01*
X1584807Y-7702651D01*
X1642719Y-7702651D01*
X1642719Y-7685125D01*
G37*
G36*
X1553819Y-7771231D02*
G01*
X1551584Y-7776921D01*
X1550009Y-7782661D01*
X1549044Y-7789113D01*
X1548739Y-7796123D01*
X1548942Y-7801965D01*
X1549603Y-7807248D01*
X1550720Y-7812024D01*
X1552295Y-7816189D01*
X1554327Y-7819745D01*
X1556715Y-7822793D01*
X1559407Y-7825333D01*
X1562455Y-7827365D01*
X1565706Y-7829042D01*
X1569161Y-7830261D01*
X1572818Y-7830972D01*
X1576679Y-7831175D01*
X1581150Y-7830870D01*
X1585112Y-7829803D01*
X1588617Y-7828076D01*
X1591665Y-7825587D01*
X1594154Y-7822641D01*
X1596186Y-7818983D01*
X1597609Y-7814767D01*
X1598523Y-7809839D01*
X1598777Y-7809839D01*
X1599590Y-7812481D01*
X1601774Y-7817307D01*
X1603095Y-7819491D01*
X1604721Y-7821523D01*
X1606499Y-7823301D01*
X1608531Y-7824825D01*
X1613103Y-7827213D01*
X1615744Y-7828025D01*
X1618538Y-7828483D01*
X1621637Y-7828635D01*
X1626565Y-7828178D01*
X1630984Y-7826806D01*
X1634794Y-7824520D01*
X1638147Y-7821269D01*
X1640789Y-7817205D01*
X1642719Y-7812328D01*
X1643837Y-7806690D01*
X1644243Y-7800187D01*
X1643938Y-7793990D01*
X1642973Y-7788503D01*
X1641449Y-7783423D01*
X1639417Y-7778851D01*
X1637233Y-7774990D01*
X1634845Y-7771485D01*
X1623415Y-7779105D01*
X1626971Y-7784185D01*
X1628343Y-7787386D01*
X1629511Y-7790789D01*
X1630273Y-7794548D01*
X1630527Y-7798663D01*
X1630324Y-7801559D01*
X1629765Y-7804099D01*
X1628800Y-7806232D01*
X1627479Y-7808061D01*
X1625803Y-7809534D01*
X1623771Y-7810550D01*
X1621485Y-7811160D01*
X1618843Y-7811363D01*
X1614779Y-7810957D01*
X1612950Y-7810398D01*
X1611223Y-7809585D01*
X1609648Y-7808468D01*
X1608277Y-7806994D01*
X1607108Y-7805267D01*
X1606143Y-7803235D01*
X1605330Y-7800898D01*
X1604467Y-7795056D01*
X1604365Y-7784693D01*
X1591157Y-7784693D01*
X1591056Y-7795310D01*
X1590294Y-7801508D01*
X1589633Y-7803997D01*
X1587804Y-7808010D01*
X1586636Y-7809585D01*
X1585315Y-7810855D01*
X1583690Y-7811770D01*
X1579880Y-7812786D01*
X1577695Y-7812887D01*
X1574190Y-7812633D01*
X1571142Y-7811871D01*
X1568500Y-7810601D01*
X1566265Y-7808823D01*
X1564487Y-7806334D01*
X1563217Y-7803083D01*
X1562455Y-7799070D01*
X1562201Y-7794345D01*
X1562557Y-7788859D01*
X1563725Y-7782915D01*
X1565605Y-7776972D01*
X1568297Y-7771231D01*
G37*
G36*
X512165Y-6833768D02*
G01*
X508355Y-6834428D01*
X504748Y-6835851D01*
X501599Y-6838035D01*
X498957Y-6840829D01*
X496976Y-6844182D01*
X495808Y-6847840D01*
X495401Y-6851700D01*
X495808Y-6855510D01*
X496976Y-6859168D01*
X498957Y-6862521D01*
X501599Y-6865315D01*
X504748Y-6867499D01*
X508355Y-6868922D01*
X512165Y-6869582D01*
X516026Y-6869328D01*
X519734Y-6868312D01*
X523138Y-6866483D01*
X526034Y-6863994D01*
X528370Y-6860895D01*
X529945Y-6857390D01*
X530758Y-6853580D01*
X530758Y-6849770D01*
X529945Y-6845960D01*
X528370Y-6842455D01*
X526034Y-6839356D01*
X523138Y-6836867D01*
X519734Y-6835038D01*
X516026Y-6834022D01*
G37*
G36*
X1367028Y-6094730D02*
G01*
X1367028Y-6129985D01*
X1397508Y-6129985D01*
X1397508Y-6094730D01*
G37*
G36*
X1367028Y-6220002D02*
G01*
X1367028Y-6255207D01*
X1397508Y-6255207D01*
X1397508Y-6220002D01*
G37*
G36*
X1552498Y-6420002D02*
G01*
X1552498Y-6455206D01*
X1582978Y-6455206D01*
X1582978Y-6420002D01*
G37*
G36*
X1552498Y-6294729D02*
G01*
X1552498Y-6329984D01*
X1582978Y-6329984D01*
X1582978Y-6294729D01*
G37*
G36*
X2170023Y-7641996D02*
G01*
X2170023Y-7672476D01*
X2205228Y-7672476D01*
X2205228Y-7641996D01*
G37*
G36*
X2044750Y-7641996D02*
G01*
X2044750Y-7672476D01*
X2080006Y-7672476D01*
X2080006Y-7641996D01*
G37*
D10*
X2449995Y-4924988D02*
G01*
X49999Y-4924988D01*
D11*
X199999Y-699996D02*
G01*
X199999Y-4349991D01*
X2299995Y-699996D02*
G01*
X2299995Y-4349991D01*
X299999Y-599996D02*
G01*
X2199995Y-599996D01*
X2199995Y-4449993D02*
G01*
X300004Y-4449993D01*
D10*
X425000Y-4724991D02*
G01*
X49999Y-4724991D01*
X2074997Y-4724991D02*
G01*
X2449995Y-4724991D01*
D12*
X1392618Y-7691046D02*
G01*
X1488506Y-7691046D01*
X1488506Y-7558925D01*
X1392618Y-7558925D01*
X1307376Y-7691046D02*
G01*
X1211488Y-7691046D01*
X1211488Y-7558925D01*
X1307376Y-7558925D01*
X807377Y-6733926D02*
G01*
X711489Y-6733926D01*
X711489Y-6866046D01*
X807377Y-6866046D01*
X892619Y-6733926D02*
G01*
X988507Y-6733926D01*
X988507Y-6866046D01*
X892619Y-6866046D01*
X916058Y-7107364D02*
G01*
X916058Y-7011476D01*
X783937Y-7011476D01*
X783937Y-7107364D01*
X916058Y-7192606D02*
G01*
X916058Y-7288494D01*
X783937Y-7288494D01*
X783937Y-7192606D01*
X966058Y-8382363D02*
G01*
X966058Y-8286475D01*
X833937Y-8286475D01*
X833937Y-8382363D01*
X966058Y-8467605D02*
G01*
X966058Y-8563493D01*
X833937Y-8563493D01*
X833937Y-8467605D01*
D13*
X599998Y-5921387D02*
G01*
X599998Y-6124587D01*
X498398Y-6022987D02*
G01*
X701598Y-6022987D01*
X244398Y-6124587D02*
G01*
X244398Y-5718187D01*
X244398Y-5667387D01*
X295198Y-5667387D01*
X295198Y-5718187D01*
X396798Y-5718187D01*
X396798Y-5667387D01*
X549198Y-5667387D01*
X549198Y-5718187D01*
X650798Y-5718187D01*
X650798Y-5667387D01*
X803198Y-5667387D01*
X803198Y-5718187D01*
X904798Y-5718187D01*
X904798Y-5667387D01*
X955598Y-5667387D01*
X955598Y-5718187D01*
X955598Y-6073787D01*
X955598Y-6378587D01*
X244398Y-6378587D01*
X244398Y-6073787D01*
X1424998Y-6921385D02*
G01*
X1424998Y-7124585D01*
X1323398Y-7022985D02*
G01*
X1526598Y-7022985D01*
X1069398Y-7124585D02*
G01*
X1069398Y-6718185D01*
X1069398Y-6667385D01*
X1120198Y-6667385D01*
X1120198Y-6718185D01*
X1221798Y-6718185D01*
X1221798Y-6667385D01*
X1374198Y-6667385D01*
X1374198Y-6718185D01*
X1475798Y-6718185D01*
X1475798Y-6667385D01*
X1628198Y-6667385D01*
X1628198Y-6718185D01*
X1729798Y-6718185D01*
X1729798Y-6667385D01*
X1780598Y-6667385D01*
X1780598Y-6718185D01*
X1780598Y-7073785D01*
X1780598Y-7378585D01*
X1069398Y-7378585D01*
X1069398Y-7073785D01*
X599998Y-7978584D02*
G01*
X599998Y-7775384D01*
X701598Y-7876984D02*
G01*
X498398Y-7876984D01*
X955598Y-7775384D02*
G01*
X955598Y-8181784D01*
X955598Y-8232584D01*
X904798Y-8232584D01*
X904798Y-8181784D01*
X803198Y-8181784D01*
X803198Y-8232584D01*
X650798Y-8232584D01*
X650798Y-8181784D01*
X549198Y-8181784D01*
X549198Y-8232584D01*
X396798Y-8232584D01*
X396798Y-8181784D01*
X295198Y-8181784D01*
X295198Y-8232584D01*
X244398Y-8232584D01*
X244398Y-8181784D01*
X244398Y-7826184D01*
X244398Y-7521384D01*
X955598Y-7521384D01*
X955598Y-7826184D01*
X1597073Y-5795863D02*
G01*
X1517075Y-5795863D01*
X1653118Y-5795909D02*
G01*
X1733115Y-5795909D01*
X1597073Y-5653895D02*
G01*
X1517075Y-5653895D01*
X1653118Y-5653943D02*
G01*
X1733115Y-5653943D01*
X1486100Y-5764880D02*
G01*
X1486100Y-5684875D01*
X1764093Y-5684928D02*
G01*
X1764093Y-5764931D01*
X446961Y-7120981D02*
G01*
X366963Y-7120981D01*
X503006Y-7121027D02*
G01*
X583003Y-7121027D01*
X446961Y-6979013D02*
G01*
X366963Y-6979013D01*
X503006Y-6979061D02*
G01*
X583003Y-6979061D01*
X335988Y-7089998D02*
G01*
X335988Y-7009993D01*
X613981Y-7010046D02*
G01*
X613981Y-7090049D01*
X1346037Y-8877886D02*
G01*
X1346037Y-8957884D01*
X1346083Y-8821841D02*
G01*
X1346083Y-8741844D01*
X1204069Y-8877886D02*
G01*
X1204069Y-8957884D01*
X1204117Y-8821841D02*
G01*
X1204117Y-8741844D01*
X1315054Y-8988859D02*
G01*
X1235049Y-8988859D01*
X1235102Y-8710866D02*
G01*
X1315105Y-8710866D01*
X446961Y-7320879D02*
G01*
X366963Y-7320879D01*
X503006Y-7320925D02*
G01*
X583003Y-7320925D01*
X446961Y-7178911D02*
G01*
X366963Y-7178911D01*
X503006Y-7178959D02*
G01*
X583003Y-7178959D01*
X335988Y-7289896D02*
G01*
X335988Y-7209891D01*
X613981Y-7209944D02*
G01*
X613981Y-7289947D01*
X1728040Y-9204106D02*
G01*
X1808038Y-9204106D01*
X1671995Y-9204060D02*
G01*
X1591998Y-9204060D01*
X1728040Y-9346074D02*
G01*
X1808038Y-9346074D01*
X1671995Y-9346026D02*
G01*
X1591998Y-9346026D01*
X1839013Y-9235089D02*
G01*
X1839013Y-9315094D01*
X1561020Y-9315041D02*
G01*
X1561020Y-9235038D01*
X372031Y-9171015D02*
G01*
X292033Y-9171015D01*
X428076Y-9171061D02*
G01*
X508073Y-9171061D01*
X372031Y-9029047D02*
G01*
X292033Y-9029047D01*
X428076Y-9029095D02*
G01*
X508073Y-9029095D01*
X261058Y-9140032D02*
G01*
X261058Y-9060027D01*
X539051Y-9060080D02*
G01*
X539051Y-9140083D01*
X821865Y-6720931D02*
G01*
X741867Y-6720931D01*
X877910Y-6720977D02*
G01*
X957907Y-6720977D01*
X821865Y-6578963D02*
G01*
X741867Y-6578963D01*
X877910Y-6579011D02*
G01*
X957907Y-6579011D01*
X710892Y-6689948D02*
G01*
X710892Y-6609943D01*
X988885Y-6609996D02*
G01*
X988885Y-6689999D01*
D14*
X565015Y-6890486D02*
G01*
X565015Y-6905081D01*
X565015Y-6795488D02*
G01*
X565015Y-6799656D01*
X565015Y-6700494D02*
G01*
X565015Y-6704660D01*
X565015Y-6595079D02*
G01*
X565015Y-6609664D01*
X385013Y-6890486D02*
G01*
X385013Y-6905081D01*
X385013Y-6700494D02*
G01*
X385013Y-6799658D01*
X385013Y-6595079D02*
G01*
X385013Y-6609666D01*
X385013Y-6595079D02*
G01*
X565015Y-6595079D01*
X385013Y-6905081D02*
G01*
X565015Y-6905081D01*
D16*
X932337Y-8777851D02*
G01*
X932337Y-8778847D01*
X899332Y-8811851D01*
X864334Y-8777851D02*
G01*
X865332Y-8777851D01*
X899332Y-8811851D01*
X864334Y-8777851D02*
G01*
X932337Y-8777851D01*
X824326Y-8775847D02*
G01*
X824326Y-8660846D01*
X974338Y-8775847D02*
G01*
X974338Y-8660846D01*
X824336Y-8660846D02*
G01*
X972329Y-8660846D01*
X974570Y-8813848D02*
G01*
X974570Y-8918859D01*
X934562Y-8948854D02*
G01*
X944565Y-8948854D01*
X974570Y-8918859D01*
X864567Y-8948854D02*
G01*
X934562Y-8948854D01*
X864567Y-8948854D02*
G01*
X854552Y-8948854D01*
X824557Y-8918859D01*
X824557Y-8813848D02*
G01*
X824557Y-8918859D01*
X899332Y-8777851D02*
G01*
X899332Y-8811851D01*
D12*
X1008867Y-6017717D02*
G01*
X1008867Y-6113604D01*
X1140988Y-6113604D01*
X1140988Y-6017717D01*
X1008867Y-5932474D02*
G01*
X1008867Y-5836587D01*
X1140988Y-5836587D01*
X1140988Y-5932474D01*
X783823Y-9242501D02*
G01*
X783823Y-9338388D01*
X915944Y-9338388D01*
X915944Y-9242501D01*
X783823Y-9157258D02*
G01*
X783823Y-9061371D01*
X915944Y-9061371D01*
X915944Y-9157258D01*
X2117547Y-5991118D02*
G01*
X2213434Y-5991118D01*
X2213434Y-5858997D01*
X2117547Y-5858997D01*
X2032304Y-5991118D02*
G01*
X1936417Y-5991118D01*
X1936417Y-5858997D01*
X2032304Y-5858997D01*
X2084049Y-6517589D02*
G01*
X2084049Y-6613476D01*
X2216170Y-6613476D01*
X2216170Y-6517589D01*
X2084049Y-6432346D02*
G01*
X2084049Y-6336459D01*
X2216170Y-6336459D01*
X2216170Y-6432346D01*
X1008867Y-6317691D02*
G01*
X1008867Y-6413578D01*
X1140988Y-6413578D01*
X1140988Y-6317691D01*
X1008867Y-6232448D02*
G01*
X1008867Y-6136561D01*
X1140988Y-6136561D01*
X1140988Y-6232448D01*
X2206007Y-6634543D02*
G01*
X2065007Y-6634543D01*
X2065007Y-6815264D02*
G01*
X2206007Y-6815264D01*
X2221247Y-6800024D02*
G01*
X2221247Y-6649783D01*
X1843768Y-6634543D02*
G01*
X1984768Y-6634543D01*
X1984768Y-6815264D02*
G01*
X1843768Y-6815264D01*
X1828528Y-6800024D02*
G01*
X1828528Y-6649783D01*
X2206007Y-7309675D02*
G01*
X2065007Y-7309675D01*
X2065007Y-7490396D02*
G01*
X2206007Y-7490396D01*
X2221247Y-7475156D02*
G01*
X2221247Y-7324915D01*
X1843768Y-7309675D02*
G01*
X1984768Y-7309675D01*
X1984768Y-7490396D02*
G01*
X1843768Y-7490396D01*
X1828528Y-7475156D02*
G01*
X1828528Y-7324915D01*
X1756173Y-5834697D02*
G01*
X1615173Y-5834697D01*
X1615173Y-6015418D02*
G01*
X1756173Y-6015418D01*
X1771413Y-6000178D02*
G01*
X1771413Y-5849937D01*
X1393934Y-5834697D02*
G01*
X1534934Y-5834697D01*
X1534934Y-6015418D02*
G01*
X1393934Y-6015418D01*
X1378694Y-6000178D02*
G01*
X1378694Y-5849937D01*
X2206007Y-6134671D02*
G01*
X2065007Y-6134671D01*
X2065007Y-6315392D02*
G01*
X2206007Y-6315392D01*
X2221247Y-6300152D02*
G01*
X2221247Y-6149911D01*
X1843768Y-6134671D02*
G01*
X1984768Y-6134671D01*
X1984768Y-6315392D02*
G01*
X1843768Y-6315392D01*
X1828528Y-6300152D02*
G01*
X1828528Y-6149911D01*
X487669Y-8646464D02*
G01*
X312430Y-8646464D01*
X312430Y-8750625D01*
X487669Y-8953703D02*
G01*
X312430Y-8953703D01*
X312430Y-8849542D01*
X487669Y-8754544D02*
G01*
X487669Y-8845623D01*
X2117618Y-7266045D02*
G01*
X2213505Y-7266045D01*
X2213505Y-7133925D01*
X2117618Y-7133925D01*
X2032375Y-7266045D02*
G01*
X1936488Y-7266045D01*
X1936488Y-7133925D01*
X2032375Y-7133925D01*
X442620Y-8416043D02*
G01*
X538507Y-8416043D01*
X538507Y-8283922D01*
X442620Y-8283922D01*
X357378Y-8416043D02*
G01*
X261490Y-8416043D01*
X261490Y-8283922D01*
X357378Y-8283922D01*
X357378Y-8433922D02*
G01*
X261490Y-8433922D01*
X261490Y-8566043D01*
X357378Y-8566043D01*
X442620Y-8433922D02*
G01*
X538507Y-8433922D01*
X538507Y-8566043D01*
X442620Y-8566043D01*
D13*
X1613999Y-7910007D02*
G01*
X1613999Y-7990009D01*
X1503024Y-7879021D02*
G01*
X1583021Y-7879021D01*
X1503024Y-8020987D02*
G01*
X1583021Y-8020987D01*
X1445435Y-7878439D02*
G01*
X1365435Y-7878439D01*
X1334452Y-7909422D02*
G01*
X1334452Y-7989420D01*
X1445435Y-8020400D02*
G01*
X1365435Y-8020400D01*
X1410020Y-8710980D02*
G01*
X1490022Y-8710980D01*
X1379034Y-8821955D02*
G01*
X1379034Y-8741958D01*
X1521000Y-8821955D02*
G01*
X1521000Y-8741958D01*
X1378452Y-8879545D02*
G01*
X1378452Y-8959545D01*
X1409435Y-8990528D02*
G01*
X1489433Y-8990528D01*
X1520413Y-8879545D02*
G01*
X1520413Y-8959545D01*
X1560995Y-8814960D02*
G01*
X1560995Y-8734958D01*
X1671970Y-8845946D02*
G01*
X1591972Y-8845946D01*
X1671970Y-8703980D02*
G01*
X1591972Y-8703980D01*
X1729559Y-8846527D02*
G01*
X1809559Y-8846527D01*
X1840542Y-8815544D02*
G01*
X1840542Y-8735547D01*
X1729559Y-8704567D02*
G01*
X1809559Y-8704567D01*
X1613999Y-8410006D02*
G01*
X1613999Y-8490008D01*
X1503024Y-8379020D02*
G01*
X1583021Y-8379020D01*
X1503024Y-8520986D02*
G01*
X1583021Y-8520986D01*
X1445435Y-8378438D02*
G01*
X1365435Y-8378438D01*
X1334452Y-8409421D02*
G01*
X1334452Y-8489419D01*
X1445435Y-8520399D02*
G01*
X1365435Y-8520399D01*
D17*
X1565122Y-6247610D02*
G01*
X1565122Y-6226987D01*
X1565122Y-6102367D02*
G01*
X1565122Y-6121989D01*
D12*
X1389877Y-6102367D02*
G01*
X1565122Y-6102367D01*
X1389877Y-6247610D02*
G01*
X1565122Y-6247610D01*
X1430322Y-6102367D02*
G01*
X1430322Y-6247610D01*
D17*
X1384874Y-6302367D02*
G01*
X1384874Y-6322989D01*
X1384874Y-6447609D02*
G01*
X1384874Y-6427988D01*
D12*
X1560118Y-6447609D02*
G01*
X1384874Y-6447609D01*
X1560118Y-6302367D02*
G01*
X1384874Y-6302367D01*
X1519674Y-6447609D02*
G01*
X1519674Y-6302367D01*
D17*
X2052375Y-7840108D02*
G01*
X2072998Y-7840108D01*
X2197618Y-7840108D02*
G01*
X2177996Y-7840108D01*
D12*
X2197618Y-7664864D02*
G01*
X2197618Y-7840108D01*
X2052375Y-7664864D02*
G01*
X2052375Y-7840108D01*
X2197618Y-7705308D02*
G01*
X2052375Y-7705308D01*
D13*
X1501645Y-5601990D02*
G01*
X741997Y-5601990D01*
X741997Y-5347990D01*
X1757997Y-5347990D01*
X1757997Y-5601990D01*
X1501645Y-5601990D01*
X1501645Y-5601990D02*
G01*
X1501645Y-5347990D01*
X998349Y-9422980D02*
G01*
X1757997Y-9422980D01*
X1757997Y-9676980D01*
X741997Y-9676980D01*
X741997Y-9422980D01*
X998349Y-9422980D01*
X998349Y-9422980D02*
G01*
X998349Y-9676980D01*
X2174996Y-7989984D02*
G01*
X1774997Y-7989984D01*
X2174996Y-8409983D02*
G01*
X1774997Y-8409983D01*
D17*
X1484861Y-8072815D02*
G01*
X1484861Y-8149015D01*
X1484861Y-8325817D02*
G01*
X1484861Y-8249617D01*
X1616981Y-8325817D02*
G01*
X1616981Y-8249617D01*
D12*
X1616981Y-8325817D02*
G01*
X1601739Y-8341047D01*
X1500096Y-8341047D01*
X1484861Y-8325817D01*
D17*
X1616981Y-8072815D02*
G01*
X1616981Y-8149015D01*
D12*
X1484861Y-8072815D02*
G01*
X1500096Y-8057573D01*
X1601739Y-8057573D01*
X1616981Y-8072815D01*
D17*
X1690133Y-9152150D02*
G01*
X1690133Y-9075950D01*
X1690133Y-8899149D02*
G01*
X1690133Y-8975349D01*
X1558013Y-8899149D02*
G01*
X1558013Y-8975349D01*
D12*
X1558013Y-8899149D02*
G01*
X1573255Y-8883919D01*
X1674898Y-8883919D01*
X1690133Y-8899149D01*
D17*
X1558013Y-9152150D02*
G01*
X1558013Y-9075950D01*
D12*
X1690133Y-9152150D02*
G01*
X1674898Y-9167393D01*
X1573255Y-9167393D01*
X1558013Y-9152150D01*
D17*
X2084862Y-6847819D02*
G01*
X2084862Y-6924019D01*
X2084862Y-7100821D02*
G01*
X2084862Y-7024621D01*
X2216983Y-7100821D02*
G01*
X2216983Y-7024621D01*
D12*
X2216983Y-7100821D02*
G01*
X2201740Y-7116051D01*
X2100097Y-7116051D01*
X2084862Y-7100821D01*
D17*
X2216983Y-6847819D02*
G01*
X2216983Y-6924019D01*
D12*
X2084862Y-6847819D02*
G01*
X2100097Y-6832577D01*
X2201740Y-6832577D01*
X2216983Y-6847819D01*
X1671078Y-7661064D02*
G01*
X1671078Y-7838904D01*
X1978916Y-7661064D02*
G01*
X1978916Y-7838904D01*
D11*
G75*
G01*
X2199996Y-599996D02*
G02*
X2299995Y-699996I0J-100000D01*
G75*
G01*
X200000Y-699996D02*
G02*
X299999Y-599996I99999J0D01*
G75*
G01*
X2299995Y-4349991D02*
G02*
X2199996Y-4449991I-99999J0D01*
G75*
G01*
X299999Y-4449991D02*
G02*
X200000Y-4349991I0J100000D01*
D13*
G75*
G01*
X853999Y-6315088D02*
G03*
X853745Y-6315088I-127J7619D01*
G75*
G01*
X599999Y-6136526D02*
G03*
X597967Y-6136526I-1016J113588D01*
G75*
G01*
X1424998Y-7136524D02*
G03*
X1422966Y-7136524I-1016J113588D01*
G75*
G01*
X1168458Y-7287146D02*
G03*
X1168204Y-7287146I-127J7619D01*
G75*
G01*
X599999Y-7763447D02*
G03*
X602031Y-7763447I1016J-113587D01*
G75*
G01*
X856539Y-7612825D02*
G03*
X856793Y-7612825I127J-7618D01*
G75*
G01*
X1733111Y-5653943D02*
G02*
X1764093Y-5684929I0J-30983D01*
G75*
G01*
X1764093Y-5764926D02*
G02*
X1733111Y-5795909I-30982J0D01*
G75*
G01*
X1517081Y-5795863D02*
G02*
X1486101Y-5764881I3J30982D01*
G75*
G01*
X1486101Y-5684883D02*
G02*
X1517081Y-5653895I30983J5D01*
G75*
G01*
X582999Y-6979061D02*
G02*
X613982Y-7010047I0J-30983D01*
G75*
G01*
X613982Y-7090044D02*
G02*
X582999Y-7121027I-30983J0D01*
G75*
G01*
X366969Y-7120981D02*
G02*
X335989Y-7089999I3J30982D01*
G75*
G01*
X335989Y-7010001D02*
G02*
X366969Y-6979013I30983J5D01*
G75*
G01*
X1204117Y-8741849D02*
G02*
X1235103Y-8710867I30983J0D01*
G75*
G01*
X1315100Y-8710867D02*
G02*
X1346083Y-8741849I0J-30982D01*
G75*
G01*
X1346037Y-8957879D02*
G02*
X1315055Y-8988859I-30982J3D01*
G75*
G01*
X1235057Y-8988859D02*
G02*
X1204069Y-8957879I-5J30983D01*
G75*
G01*
X582999Y-7178959D02*
G02*
X613982Y-7209945I0J-30983D01*
G75*
G01*
X613982Y-7289942D02*
G02*
X582999Y-7320925I-30983J0D01*
G75*
G01*
X366969Y-7320879D02*
G02*
X335989Y-7289897I3J30982D01*
G75*
G01*
X335989Y-7209899D02*
G02*
X366969Y-7178911I30983J5D01*
G75*
G01*
X1592003Y-9346027D02*
G02*
X1561020Y-9315041I0J30983D01*
G75*
G01*
X1561020Y-9235044D02*
G02*
X1592003Y-9204061I30983J0D01*
G75*
G01*
X1808033Y-9204107D02*
G02*
X1839013Y-9235089I-3J-30982D01*
G75*
G01*
X1839013Y-9315087D02*
G02*
X1808033Y-9346075I-30983J-5D01*
G75*
G01*
X508069Y-9029095D02*
G02*
X539051Y-9060081I0J-30983D01*
G75*
G01*
X539051Y-9140078D02*
G02*
X508069Y-9171061I-30982J0D01*
G75*
G01*
X292039Y-9171015D02*
G02*
X261059Y-9140033I3J30982D01*
G75*
G01*
X261059Y-9060035D02*
G02*
X292039Y-9029047I30983J5D01*
G75*
G01*
X957903Y-6579011D02*
G02*
X988885Y-6609997I0J-30983D01*
G75*
G01*
X988885Y-6689994D02*
G02*
X957903Y-6720977I-30982J0D01*
G75*
G01*
X741873Y-6720931D02*
G02*
X710893Y-6689949I3J30982D01*
G75*
G01*
X710893Y-6609951D02*
G02*
X741873Y-6578963I30983J5D01*
D12*
G75*
G01*
X2206008Y-6815265D02*
G03*
X2221248Y-6800025I0J15241D01*
G75*
G01*
X2221248Y-6649783D02*
G03*
X2206008Y-6634543I-15240J0D01*
G75*
G01*
X1843768Y-6815265D02*
G02*
X1828528Y-6800025I0J15241D01*
G75*
G01*
X1828528Y-6649783D02*
G02*
X1843768Y-6634543I15240J0D01*
G75*
G01*
X2206008Y-7490397D02*
G03*
X2221248Y-7475157I0J15241D01*
G75*
G01*
X2221248Y-7324916D02*
G03*
X2206008Y-7309675I-15240J1D01*
G75*
G01*
X1843768Y-7490397D02*
G02*
X1828528Y-7475157I0J15241D01*
G75*
G01*
X1828528Y-7324916D02*
G02*
X1843768Y-7309675I15240J1D01*
G75*
G01*
X1756174Y-6015418D02*
G03*
X1771414Y-6000178I0J15240D01*
G75*
G01*
X1771414Y-5849937D02*
G03*
X1756174Y-5834698I-15240J0D01*
G75*
G01*
X1393934Y-6015418D02*
G02*
X1378694Y-6000178I0J15240D01*
G75*
G01*
X1378694Y-5849937D02*
G02*
X1393934Y-5834698I15240J0D01*
G75*
G01*
X2206008Y-6315392D02*
G03*
X2221248Y-6300152I0J15240D01*
G75*
G01*
X2221248Y-6149911D02*
G03*
X2206008Y-6134672I-15240J-1D01*
G75*
G01*
X1843768Y-6315392D02*
G02*
X1828528Y-6300152I0J15240D01*
G75*
G01*
X1828528Y-6149911D02*
G02*
X1843768Y-6134672I15240J-1D01*
D13*
G75*
G01*
X1334447Y-7909423D02*
G02*
X1365430Y-7878440I30983J0D01*
G75*
G01*
X1365430Y-8020406D02*
G02*
X1334447Y-7989420I0J30983D01*
G75*
G01*
X1583017Y-7879022D02*
G02*
X1614000Y-7910007I0J-30982D01*
G75*
G01*
X1614000Y-7990004D02*
G02*
X1583017Y-8020987I-30983J0D01*
G75*
G01*
X1409436Y-8990533D02*
G02*
X1378453Y-8959550I0J30983D01*
G75*
G01*
X1520419Y-8959550D02*
G02*
X1489433Y-8990533I-30983J0D01*
G75*
G01*
X1379035Y-8741964D02*
G02*
X1410020Y-8710981I30982J0D01*
G75*
G01*
X1490017Y-8710981D02*
G02*
X1521000Y-8741964I0J-30983D01*
G75*
G01*
X1840548Y-8815545D02*
G02*
X1809565Y-8846528I-30983J0D01*
G75*
G01*
X1809565Y-8704562D02*
G02*
X1840548Y-8735548I0J-30983D01*
G75*
G01*
X1591978Y-8845946D02*
G02*
X1560995Y-8814961I0J30983D01*
G75*
G01*
X1560995Y-8734963D02*
G02*
X1591978Y-8703981I30983J0D01*
G75*
G01*
X1334447Y-8409422D02*
G02*
X1365430Y-8378439I30983J0D01*
G75*
G01*
X1365430Y-8520405D02*
G02*
X1334447Y-8489419I0J30983D01*
G75*
G01*
X1583017Y-8379021D02*
G02*
X1614000Y-8410006I0J-30982D01*
G75*
G01*
X1614000Y-8490003D02*
G02*
X1583017Y-8520986I-30983J0D01*
D11*
G75*
G01
X2006829Y-7619848D02*
G03X2006829Y-7619848I-15011J0D01*
M02*
