G04 Layer: TopLayer*
G04 EasyEDA v6.5.22, 2022-12-04 21:32:46*
G04 716598de6f4c4b7384a2731a6566dcc5,9a5be75d700b4a6385dc1106f27949ae,10*
G04 Gerber Generator version 0.2*
G04 Scale: 100 percent, Rotated: No, Reflected: No *
G04 Dimensions in millimeters *
G04 leading zeros omitted , absolute positions ,4 integer and 5 decimal *
%FSLAX45Y45*%
%MOMM*%

%AMMACRO1*21,1,$1,$2,0,0,$3*%
%ADD10C,0.4000*%
%ADD11C,0.2100*%
%ADD12MACRO1,1.35X1.41X-90.0000*%
%ADD13MACRO1,1.35X1.41X0.0000*%
%ADD14R,1.3500X1.4100*%
%ADD15MACRO1,1.35X1.41X90.0000*%
%ADD16R,1.1500X0.9500*%
%ADD17MACRO1,1.377X1.1325X90.0000*%
%ADD18MACRO1,1.377X1.1325X-90.0000*%
%ADD19R,0.6000X1.0000*%
%ADD20MACRO1,1.377X1.1325X0.0000*%
%ADD21R,1.3770X1.1325*%
%ADD22R,0.5320X1.0720*%
%ADD23R,1.0700X0.6000*%
%ADD24R,1.2500X1.0000*%
%ADD25R,0.5320X1.0375*%
%ADD26MACRO1,4.22X2.124X-90.0000*%
%ADD27R,1.0000X0.6000*%
%ADD28C,1.8000*%
%ADD29R,1.7000X1.7000*%
%ADD30C,1.7000*%
%ADD31C,5.0000*%
%ADD32C,0.6000*%
%ADD33C,0.8000*%
%ADD34C,0.0107*%

%LPD*%
G36*
X2222246Y-10168077D02*
G01*
X2218131Y-10167366D01*
X2214676Y-10165130D01*
X2200452Y-10150906D01*
X2198268Y-10147604D01*
X2197506Y-10143744D01*
X2197506Y-10113518D01*
X2196693Y-10105136D01*
X2194356Y-10097516D01*
X2190648Y-10090556D01*
X2185619Y-10084409D01*
X2179472Y-10079380D01*
X2172462Y-10075621D01*
X2164892Y-10073335D01*
X2156460Y-10072522D01*
X2152650Y-10072522D01*
X2148789Y-10071709D01*
X2145487Y-10069525D01*
X2143302Y-10066223D01*
X2142490Y-10062362D01*
X2143302Y-10058450D01*
X2145487Y-10055148D01*
X2162911Y-10037724D01*
X2166061Y-10034270D01*
X2168753Y-10030764D01*
X2171192Y-10027005D01*
X2173224Y-10023043D01*
X2174900Y-10018928D01*
X2176272Y-10014712D01*
X2177237Y-10010343D01*
X2177796Y-10005974D01*
X2177999Y-10001300D01*
X2177999Y-9992664D01*
X2178964Y-9988346D01*
X2181707Y-9984790D01*
X2185619Y-9981641D01*
X2190648Y-9975494D01*
X2194407Y-9968484D01*
X2196693Y-9960914D01*
X2197506Y-9952532D01*
X2197506Y-9855911D01*
X2198268Y-9852050D01*
X2200503Y-9848748D01*
X2203805Y-9846564D01*
X2207666Y-9845751D01*
X2212898Y-9845751D01*
X2216810Y-9846564D01*
X2220112Y-9848748D01*
X2250897Y-9879533D01*
X2254351Y-9882733D01*
X2257907Y-9885426D01*
X2261616Y-9887813D01*
X2265578Y-9889845D01*
X2269693Y-9891572D01*
X2273960Y-9892893D01*
X2278278Y-9893858D01*
X2282698Y-9894468D01*
X2287371Y-9894671D01*
X2332837Y-9894671D01*
X2337054Y-9895586D01*
X2340508Y-9898176D01*
X2342591Y-9901986D01*
X2345232Y-9911080D01*
X2348941Y-9917988D01*
X2353970Y-9924135D01*
X2360117Y-9929164D01*
X2367127Y-9932924D01*
X2374696Y-9935210D01*
X2383078Y-9936022D01*
X2435301Y-9936022D01*
X2443683Y-9935210D01*
X2451303Y-9932924D01*
X2458262Y-9929164D01*
X2464409Y-9924135D01*
X2469438Y-9917988D01*
X2473198Y-9911029D01*
X2475484Y-9903409D01*
X2476296Y-9895027D01*
X2476296Y-9792258D01*
X2475484Y-9783876D01*
X2474010Y-9779000D01*
X2473655Y-9774732D01*
X2475077Y-9770668D01*
X2478074Y-9767620D01*
X2482088Y-9766046D01*
X2486355Y-9766249D01*
X2490165Y-9768179D01*
X2493568Y-9771024D01*
X2505252Y-9777120D01*
X2507792Y-9780524D01*
X2508707Y-9784740D01*
X2508707Y-9961372D01*
X2507945Y-9965232D01*
X2505710Y-9968534D01*
X2502408Y-9970719D01*
X2498547Y-9971532D01*
X2478074Y-9971532D01*
X2469692Y-9972344D01*
X2462123Y-9974630D01*
X2455113Y-9978390D01*
X2448966Y-9983419D01*
X2443937Y-9989566D01*
X2440228Y-9996525D01*
X2437892Y-10004145D01*
X2437079Y-10012527D01*
X2437079Y-10041229D01*
X2436317Y-10045141D01*
X2434082Y-10048392D01*
X2389327Y-10093198D01*
X2386025Y-10095433D01*
X2382113Y-10096195D01*
X2333853Y-10096195D01*
X2333853Y-10120833D01*
X2333091Y-10124694D01*
X2330856Y-10127996D01*
X2327554Y-10130231D01*
X2323693Y-10130993D01*
X2304694Y-10130993D01*
X2300833Y-10130231D01*
X2297531Y-10127996D01*
X2295296Y-10124694D01*
X2294534Y-10120833D01*
X2294534Y-10096195D01*
X2247087Y-10096195D01*
X2247087Y-10115296D01*
X2247900Y-10123678D01*
X2249373Y-10128554D01*
X2249779Y-10132517D01*
X2248611Y-10136276D01*
X2246122Y-10139375D01*
X2241804Y-10142880D01*
X2236774Y-10149027D01*
X2233066Y-10155986D01*
X2231593Y-10160863D01*
X2229561Y-10164521D01*
X2226310Y-10167061D01*
G37*

%LPC*%
G36*
X2333853Y-10031628D02*
G01*
X2381300Y-10031628D01*
X2381300Y-10012527D01*
X2380488Y-10004145D01*
X2378202Y-9996525D01*
X2374442Y-9989566D01*
X2369413Y-9983419D01*
X2363266Y-9978390D01*
X2356256Y-9974630D01*
X2348687Y-9972344D01*
X2340305Y-9971532D01*
X2333853Y-9971532D01*
G37*
G36*
X2247087Y-10031628D02*
G01*
X2294534Y-10031628D01*
X2294534Y-9971532D01*
X2288082Y-9971532D01*
X2279700Y-9972344D01*
X2272131Y-9974630D01*
X2265121Y-9978390D01*
X2258974Y-9983419D01*
X2253945Y-9989566D01*
X2250186Y-9996525D01*
X2247900Y-10004145D01*
X2247087Y-10012527D01*
G37*

%LPD*%
G36*
X1586738Y-12344196D02*
G01*
X1582267Y-12344146D01*
X1578254Y-12342164D01*
X1575460Y-12338659D01*
X1574495Y-12334290D01*
X1574495Y-10975594D01*
X1575257Y-10971733D01*
X1577441Y-10968431D01*
X1580692Y-10966246D01*
X1584502Y-10965434D01*
X1588414Y-10966145D01*
X1591716Y-10968278D01*
X1593951Y-10971479D01*
X1598422Y-10981588D01*
X1606245Y-10994898D01*
X1615643Y-11007191D01*
X1626412Y-11018266D01*
X1638401Y-11028019D01*
X1651507Y-11036300D01*
X1665478Y-11042904D01*
X1680108Y-11047882D01*
X1695246Y-11051082D01*
X1710639Y-11052454D01*
X1726082Y-11051997D01*
X1741373Y-11049711D01*
X1756918Y-11045342D01*
X1760829Y-11044631D01*
X1764690Y-11045393D01*
X1767941Y-11047577D01*
X1842973Y-11122609D01*
X1845056Y-11125606D01*
X1845919Y-11129162D01*
X1845513Y-11132769D01*
X1841652Y-11145367D01*
X1838909Y-11160556D01*
X1837994Y-11176000D01*
X1838909Y-11191443D01*
X1841652Y-11206632D01*
X1846173Y-11221415D01*
X1852422Y-11235588D01*
X1860245Y-11248898D01*
X1869643Y-11261191D01*
X1881327Y-11273078D01*
X1883460Y-11276380D01*
X1884222Y-11280190D01*
X1884222Y-11292890D01*
X1883511Y-11296548D01*
X1881581Y-11299698D01*
X1878634Y-11301984D01*
X1875028Y-11303000D01*
X1870710Y-11303457D01*
X1863089Y-11305743D01*
X1856130Y-11309502D01*
X1849983Y-11314531D01*
X1846427Y-11318798D01*
X1842922Y-11321542D01*
X1838604Y-11322558D01*
X1834235Y-11321542D01*
X1830730Y-11318798D01*
X1827225Y-11314531D01*
X1821078Y-11309502D01*
X1814068Y-11305743D01*
X1806498Y-11303457D01*
X1798116Y-11302593D01*
X1685848Y-11302593D01*
X1677466Y-11303457D01*
X1669846Y-11305743D01*
X1662887Y-11309502D01*
X1656740Y-11314531D01*
X1651711Y-11320627D01*
X1647952Y-11327638D01*
X1645666Y-11335207D01*
X1644853Y-11343640D01*
X1644853Y-11480342D01*
X1645666Y-11488724D01*
X1647952Y-11496294D01*
X1651152Y-11502288D01*
X1652219Y-11505438D01*
X1652219Y-11508740D01*
X1651152Y-11511889D01*
X1647952Y-11517833D01*
X1645666Y-11525453D01*
X1644853Y-11533835D01*
X1644853Y-11670538D01*
X1645666Y-11678920D01*
X1647952Y-11686489D01*
X1651711Y-11693499D01*
X1656740Y-11699646D01*
X1662887Y-11704675D01*
X1669846Y-11708434D01*
X1677466Y-11710720D01*
X1685848Y-11711533D01*
X1798116Y-11711533D01*
X1806498Y-11710720D01*
X1814068Y-11708434D01*
X1821078Y-11704675D01*
X1827225Y-11699646D01*
X1830730Y-11695328D01*
X1834235Y-11692585D01*
X1838604Y-11691620D01*
X1842922Y-11692585D01*
X1846427Y-11695328D01*
X1849983Y-11699646D01*
X1856130Y-11704675D01*
X1863089Y-11708434D01*
X1870710Y-11710720D01*
X1879092Y-11711533D01*
X1900580Y-11711533D01*
X1900580Y-11642953D01*
X1849272Y-11642953D01*
X1845360Y-11642191D01*
X1842109Y-11639956D01*
X1839874Y-11636705D01*
X1839112Y-11632793D01*
X1839112Y-11571579D01*
X1839874Y-11567668D01*
X1842109Y-11564366D01*
X1845360Y-11562181D01*
X1849272Y-11561419D01*
X1900580Y-11561419D01*
X1900580Y-11531498D01*
X1901342Y-11527586D01*
X1903526Y-11524335D01*
X1906828Y-11522100D01*
X1910740Y-11521338D01*
X1959711Y-11521338D01*
X1963623Y-11522100D01*
X1966925Y-11524335D01*
X1969109Y-11527586D01*
X1969871Y-11531498D01*
X1969871Y-11561419D01*
X2032355Y-11561419D01*
X2032355Y-11533835D01*
X2031542Y-11525453D01*
X2029256Y-11517833D01*
X2026056Y-11511889D01*
X2024989Y-11508740D01*
X2024989Y-11505438D01*
X2026056Y-11502288D01*
X2029256Y-11496294D01*
X2031542Y-11488724D01*
X2032355Y-11480342D01*
X2032355Y-11343640D01*
X2031542Y-11335207D01*
X2029256Y-11327638D01*
X2025497Y-11320627D01*
X2020468Y-11314531D01*
X2018182Y-11312652D01*
X2015540Y-11309400D01*
X2014474Y-11305336D01*
X2015083Y-11301222D01*
X2017318Y-11297716D01*
X2020773Y-11295380D01*
X2024634Y-11293805D01*
X2038146Y-11286337D01*
X2050745Y-11277346D01*
X2062124Y-11266881D01*
X2072233Y-11255197D01*
X2080869Y-11242344D01*
X2087930Y-11228628D01*
X2093315Y-11214100D01*
X2096922Y-11199063D01*
X2098751Y-11183721D01*
X2098751Y-11168278D01*
X2096922Y-11152936D01*
X2093315Y-11137900D01*
X2087930Y-11123371D01*
X2080869Y-11109655D01*
X2072233Y-11096802D01*
X2062124Y-11085118D01*
X2050745Y-11074654D01*
X2038146Y-11065662D01*
X2024634Y-11058194D01*
X2010308Y-11052403D01*
X1995373Y-11048288D01*
X1980082Y-11046002D01*
X1964639Y-11045545D01*
X1949246Y-11046917D01*
X1934108Y-11050117D01*
X1925624Y-11052962D01*
X1921916Y-11053521D01*
X1918258Y-11052657D01*
X1915210Y-11050524D01*
X1839975Y-10975340D01*
X1837842Y-10972139D01*
X1836978Y-10968380D01*
X1837639Y-10964621D01*
X1839315Y-10960100D01*
X1842922Y-10945063D01*
X1844751Y-10929721D01*
X1844751Y-10914278D01*
X1842922Y-10898936D01*
X1839315Y-10883900D01*
X1837639Y-10879378D01*
X1836978Y-10875619D01*
X1837842Y-10871860D01*
X1839975Y-10868660D01*
X1966366Y-10742269D01*
X1969871Y-10739983D01*
X1973935Y-10739272D01*
X1977948Y-10740288D01*
X1981250Y-10742777D01*
X1983282Y-10746384D01*
X1985772Y-10753039D01*
X1987854Y-10757001D01*
X1990242Y-10760760D01*
X1992934Y-10764266D01*
X1996084Y-10767720D01*
X2096973Y-10868609D01*
X2099056Y-10871606D01*
X2099919Y-10875162D01*
X2099513Y-10878769D01*
X2095652Y-10891367D01*
X2092909Y-10906556D01*
X2091994Y-10922000D01*
X2092909Y-10937443D01*
X2095652Y-10952632D01*
X2100173Y-10967415D01*
X2106422Y-10981588D01*
X2114245Y-10994898D01*
X2123643Y-11007191D01*
X2134412Y-11018266D01*
X2146401Y-11028019D01*
X2159508Y-11036300D01*
X2173478Y-11042904D01*
X2188108Y-11047882D01*
X2203246Y-11051082D01*
X2218639Y-11052454D01*
X2234082Y-11051997D01*
X2249373Y-11049711D01*
X2264308Y-11045596D01*
X2278634Y-11039805D01*
X2292146Y-11032337D01*
X2304745Y-11023346D01*
X2314498Y-11014354D01*
X2317851Y-11012373D01*
X2321661Y-11011712D01*
X2325471Y-11012576D01*
X2328672Y-11014811D01*
X2330805Y-11018062D01*
X2331516Y-11021872D01*
X2331516Y-11120932D01*
X2332380Y-11129314D01*
X2334666Y-11136934D01*
X2340559Y-11147755D01*
X2340965Y-11151717D01*
X2339797Y-11155476D01*
X2336038Y-11162487D01*
X2333752Y-11170056D01*
X2332939Y-11178438D01*
X2332939Y-11277193D01*
X2332177Y-11281054D01*
X2329942Y-11284356D01*
X2087981Y-11526316D01*
X2084832Y-11529771D01*
X2082139Y-11533327D01*
X2079752Y-11537086D01*
X2077669Y-11540998D01*
X2075992Y-11545112D01*
X2074621Y-11549380D01*
X2073656Y-11553698D01*
X2073097Y-11558117D01*
X2072893Y-11562791D01*
X2072893Y-11708485D01*
X2072233Y-11711990D01*
X2070455Y-11715089D01*
X2066899Y-11719255D01*
X2061108Y-11728704D01*
X2056841Y-11738914D01*
X2054301Y-11749633D01*
X2053437Y-11760708D01*
X2054301Y-11771731D01*
X2056841Y-11782450D01*
X2061108Y-11792661D01*
X2064054Y-11797487D01*
X2065172Y-11800027D01*
X2065528Y-11802821D01*
X2065528Y-11879122D01*
X2102764Y-11879122D01*
X2106676Y-11879884D01*
X2109978Y-11882069D01*
X2112162Y-11885371D01*
X2112924Y-11889282D01*
X2112924Y-11949125D01*
X2112162Y-11953036D01*
X2109978Y-11956338D01*
X2106676Y-11958523D01*
X2102764Y-11959285D01*
X2065528Y-11959285D01*
X2065528Y-12004192D01*
X2064766Y-12008053D01*
X2062581Y-12011355D01*
X2045766Y-12028170D01*
X2042972Y-12030151D01*
X2039670Y-12031116D01*
X2036267Y-12030913D01*
X2033117Y-12029592D01*
X2028393Y-12026595D01*
X2014423Y-12019940D01*
X1999792Y-12015012D01*
X1990394Y-12013031D01*
X1987194Y-12011761D01*
X1984603Y-12009475D01*
X1982927Y-12006478D01*
X1982368Y-12003074D01*
X1982368Y-11959285D01*
X1912924Y-11959285D01*
X1912924Y-11986209D01*
X1913737Y-11994591D01*
X1916074Y-12002211D01*
X1918716Y-12007138D01*
X1919884Y-12011202D01*
X1919274Y-12015368D01*
X1917039Y-12018975D01*
X1913534Y-12021312D01*
X1909267Y-12023039D01*
X1895754Y-12030506D01*
X1883156Y-12039549D01*
X1871776Y-12049963D01*
X1861667Y-12061698D01*
X1853031Y-12074499D01*
X1845970Y-12088266D01*
X1840585Y-12102744D01*
X1836978Y-12117781D01*
X1835150Y-12133122D01*
X1835150Y-12148616D01*
X1836978Y-12163958D01*
X1840585Y-12178995D01*
X1842262Y-12183465D01*
X1842871Y-12187275D01*
X1842058Y-12191034D01*
X1839925Y-12194184D01*
X1764690Y-12269419D01*
X1761642Y-12271552D01*
X1757984Y-12272365D01*
X1754276Y-12271857D01*
X1745792Y-12269012D01*
X1730654Y-12265812D01*
X1715262Y-12264440D01*
X1699818Y-12264898D01*
X1684528Y-12267184D01*
X1669592Y-12271248D01*
X1655267Y-12277039D01*
X1641754Y-12284506D01*
X1629156Y-12293549D01*
X1617776Y-12303963D01*
X1607667Y-12315698D01*
X1599031Y-12328499D01*
X1593697Y-12338913D01*
X1590802Y-12342368D01*
G37*

%LPC*%
G36*
X1912924Y-11879122D02*
G01*
X1982368Y-11879122D01*
X1982368Y-11811203D01*
X1953920Y-11811203D01*
X1945538Y-11812016D01*
X1937969Y-11814302D01*
X1930958Y-11818061D01*
X1924812Y-11823090D01*
X1919782Y-11829237D01*
X1916074Y-11836196D01*
X1913737Y-11843816D01*
X1912924Y-11852198D01*
G37*
G36*
X1969871Y-11711533D02*
G01*
X1991360Y-11711533D01*
X1999742Y-11710720D01*
X2007311Y-11708434D01*
X2014321Y-11704675D01*
X2020468Y-11699646D01*
X2025497Y-11693499D01*
X2029256Y-11686489D01*
X2031542Y-11678920D01*
X2032355Y-11670538D01*
X2032355Y-11642953D01*
X1969871Y-11642953D01*
G37*

%LPD*%
G36*
X2407005Y-12971627D02*
G01*
X2403094Y-12970865D01*
X2399792Y-12968681D01*
X2386431Y-12955270D01*
X2384044Y-12951510D01*
X2383485Y-12947091D01*
X2384348Y-12938556D01*
X2384348Y-12801854D01*
X2383536Y-12793421D01*
X2381199Y-12785852D01*
X2377490Y-12778841D01*
X2372461Y-12772694D01*
X2366314Y-12767665D01*
X2359304Y-12763957D01*
X2351735Y-12761620D01*
X2343302Y-12760807D01*
X2248458Y-12760807D01*
X2244598Y-12760045D01*
X2241296Y-12757861D01*
X2239060Y-12754559D01*
X2238298Y-12750647D01*
X2238298Y-12601498D01*
X2238095Y-12596825D01*
X2237536Y-12592456D01*
X2236571Y-12588087D01*
X2235200Y-12583871D01*
X2233523Y-12579756D01*
X2231491Y-12575794D01*
X2229053Y-12572034D01*
X2226360Y-12568529D01*
X2223211Y-12565075D01*
X2171039Y-12512903D01*
X2168804Y-12509601D01*
X2168042Y-12505690D01*
X2168042Y-12446203D01*
X2156663Y-12446203D01*
X2152802Y-12445441D01*
X2149500Y-12443256D01*
X2147265Y-12439954D01*
X2146503Y-12436043D01*
X2146503Y-12353696D01*
X2147265Y-12349784D01*
X2149500Y-12346482D01*
X2152802Y-12344298D01*
X2156663Y-12343536D01*
X2168042Y-12343536D01*
X2168042Y-12281763D01*
X2169058Y-12277394D01*
X2171801Y-12273838D01*
X2175814Y-12271857D01*
X2177389Y-12271502D01*
X2187600Y-12267285D01*
X2197049Y-12261494D01*
X2205431Y-12254331D01*
X2212594Y-12245898D01*
X2218385Y-12236450D01*
X2222652Y-12226239D01*
X2225192Y-12215520D01*
X2226056Y-12204496D01*
X2225192Y-12193422D01*
X2222652Y-12182703D01*
X2218385Y-12172492D01*
X2212594Y-12163044D01*
X2205431Y-12154611D01*
X2197049Y-12147448D01*
X2187600Y-12141657D01*
X2177389Y-12137440D01*
X2166620Y-12134850D01*
X2155596Y-12133986D01*
X2144572Y-12134850D01*
X2133803Y-12137440D01*
X2123592Y-12141657D01*
X2113991Y-12147550D01*
X2112365Y-12148820D01*
X2108403Y-12150750D01*
X2104034Y-12150801D01*
X2100021Y-12149023D01*
X2097125Y-12145721D01*
X2095906Y-12141454D01*
X2095144Y-12127941D01*
X2095754Y-12123724D01*
X2098090Y-12120118D01*
X2188006Y-12030202D01*
X2191308Y-12027966D01*
X2195220Y-12027204D01*
X2293975Y-12027204D01*
X2302357Y-12026392D01*
X2309926Y-12024106D01*
X2316937Y-12020346D01*
X2323084Y-12015317D01*
X2328113Y-12009170D01*
X2331821Y-12002211D01*
X2333955Y-11995251D01*
X2335784Y-11991797D01*
X2338882Y-11989257D01*
X2342642Y-11988088D01*
X2348077Y-11988952D01*
X2356510Y-11989765D01*
X2455468Y-11989765D01*
X2463901Y-11988952D01*
X2471470Y-11986666D01*
X2478481Y-11982907D01*
X2484628Y-11977878D01*
X2489657Y-11971731D01*
X2493365Y-11964771D01*
X2495702Y-11957151D01*
X2496515Y-11948769D01*
X2496515Y-11889790D01*
X2495702Y-11881358D01*
X2493365Y-11873788D01*
X2489657Y-11866778D01*
X2484628Y-11860631D01*
X2478481Y-11855602D01*
X2471470Y-11851894D01*
X2463901Y-11849557D01*
X2455468Y-11848744D01*
X2356510Y-11848744D01*
X2348077Y-11849557D01*
X2342692Y-11850420D01*
X2338882Y-11849252D01*
X2335834Y-11846763D01*
X2333955Y-11843258D01*
X2331821Y-11836196D01*
X2328113Y-11829237D01*
X2323084Y-11823090D01*
X2316937Y-11818061D01*
X2309926Y-11814302D01*
X2302357Y-11812016D01*
X2293975Y-11811203D01*
X2193493Y-11811203D01*
X2189327Y-11810288D01*
X2185873Y-11807748D01*
X2183790Y-11804040D01*
X2183434Y-11799773D01*
X2184857Y-11795709D01*
X2186686Y-11792661D01*
X2190953Y-11782450D01*
X2193493Y-11771731D01*
X2194356Y-11760708D01*
X2193493Y-11749633D01*
X2190953Y-11738914D01*
X2186686Y-11728704D01*
X2180894Y-11719255D01*
X2177338Y-11715089D01*
X2175560Y-11711990D01*
X2174900Y-11708485D01*
X2174900Y-11587886D01*
X2175662Y-11584025D01*
X2177897Y-11580723D01*
X2315565Y-11443004D01*
X2318867Y-11440820D01*
X2322779Y-11440058D01*
X2326640Y-11440820D01*
X2329942Y-11443004D01*
X2332177Y-11446306D01*
X2332939Y-11450218D01*
X2332939Y-11518493D01*
X2333752Y-11526875D01*
X2336038Y-11534444D01*
X2339797Y-11541455D01*
X2344826Y-11547602D01*
X2350719Y-11552428D01*
X2353462Y-11555933D01*
X2354427Y-11560251D01*
X2353462Y-11564620D01*
X2345740Y-11574221D01*
X2341981Y-11581231D01*
X2339695Y-11588851D01*
X2338832Y-11597233D01*
X2338832Y-11733936D01*
X2339695Y-11742318D01*
X2341981Y-11749887D01*
X2345740Y-11756898D01*
X2350770Y-11763044D01*
X2356866Y-11768074D01*
X2363876Y-11771833D01*
X2371445Y-11774119D01*
X2379878Y-11774932D01*
X2468981Y-11774932D01*
X2472893Y-11775694D01*
X2476195Y-11777929D01*
X2573223Y-11874957D01*
X2575610Y-11878716D01*
X2576118Y-11883136D01*
X2575458Y-11889790D01*
X2575458Y-11948769D01*
X2576322Y-11957151D01*
X2578303Y-11963806D01*
X2578760Y-11966752D01*
X2578303Y-11969699D01*
X2576322Y-11976404D01*
X2575458Y-11984786D01*
X2575458Y-11992914D01*
X2637434Y-11992914D01*
X2640787Y-11990628D01*
X2644800Y-11989816D01*
X2687167Y-11989816D01*
X2691180Y-11990628D01*
X2694533Y-11992914D01*
X2756509Y-11992914D01*
X2756509Y-11984786D01*
X2755696Y-11976404D01*
X2753664Y-11969750D01*
X2753207Y-11966803D01*
X2753664Y-11963857D01*
X2755696Y-11957151D01*
X2756509Y-11948769D01*
X2756509Y-11889790D01*
X2755696Y-11881408D01*
X2753360Y-11873788D01*
X2749651Y-11866778D01*
X2744622Y-11860682D01*
X2738475Y-11855653D01*
X2731465Y-11851894D01*
X2723896Y-11849608D01*
X2715514Y-11848795D01*
X2695549Y-11848795D01*
X2691638Y-11847982D01*
X2688336Y-11845798D01*
X2604312Y-11761774D01*
X2602128Y-11758472D01*
X2601315Y-11754561D01*
X2601315Y-11706352D01*
X2553106Y-11706352D01*
X2549245Y-11705590D01*
X2545943Y-11703354D01*
X2536088Y-11693550D01*
X2533904Y-11690248D01*
X2533142Y-11686336D01*
X2533142Y-11634978D01*
X2533904Y-11631066D01*
X2536088Y-11627764D01*
X2539390Y-11625580D01*
X2543302Y-11624818D01*
X2601315Y-11624818D01*
X2601315Y-11556238D01*
X2579878Y-11556238D01*
X2571496Y-11557050D01*
X2563876Y-11559336D01*
X2556916Y-11563096D01*
X2550769Y-11568125D01*
X2545740Y-11574221D01*
X2544978Y-11575694D01*
X2542133Y-11578996D01*
X2538171Y-11580825D01*
X2533802Y-11580825D01*
X2529840Y-11578996D01*
X2527046Y-11575694D01*
X2526284Y-11574221D01*
X2523185Y-11570512D01*
X2521204Y-11566550D01*
X2521102Y-11562080D01*
X2522880Y-11558016D01*
X2526284Y-11555120D01*
X2530906Y-11552631D01*
X2537053Y-11547602D01*
X2542082Y-11541455D01*
X2545842Y-11534444D01*
X2548128Y-11526875D01*
X2548940Y-11518493D01*
X2548940Y-11378488D01*
X2548128Y-11370056D01*
X2545842Y-11362486D01*
X2539898Y-11351869D01*
X2539288Y-11348466D01*
X2539898Y-11345062D01*
X2542082Y-11341455D01*
X2545842Y-11334445D01*
X2548128Y-11326876D01*
X2548940Y-11318443D01*
X2548940Y-11178438D01*
X2548128Y-11170056D01*
X2545842Y-11162487D01*
X2542032Y-11155426D01*
X2540914Y-11151616D01*
X2541270Y-11147704D01*
X2547112Y-11136934D01*
X2549448Y-11129314D01*
X2550261Y-11120932D01*
X2550261Y-11008664D01*
X2549448Y-11000282D01*
X2547112Y-10992713D01*
X2543403Y-10985703D01*
X2538374Y-10979556D01*
X2534056Y-10976051D01*
X2531313Y-10972546D01*
X2530348Y-10968177D01*
X2531313Y-10963808D01*
X2534056Y-10960303D01*
X2538374Y-10956798D01*
X2543403Y-10950651D01*
X2547112Y-10943640D01*
X2549448Y-10936071D01*
X2550261Y-10927689D01*
X2550261Y-10815421D01*
X2549448Y-10807039D01*
X2547112Y-10799419D01*
X2543403Y-10792460D01*
X2538374Y-10786313D01*
X2532227Y-10781284D01*
X2525217Y-10777524D01*
X2517648Y-10775238D01*
X2509266Y-10774426D01*
X2372563Y-10774426D01*
X2364130Y-10775238D01*
X2356561Y-10777524D01*
X2349550Y-10781284D01*
X2343454Y-10786313D01*
X2338374Y-10792460D01*
X2334666Y-10799419D01*
X2332380Y-10807039D01*
X2331923Y-10811357D01*
X2330907Y-10814964D01*
X2328621Y-10817910D01*
X2325471Y-10819841D01*
X2321814Y-10820552D01*
X2307793Y-10820552D01*
X2304694Y-10820044D01*
X2301900Y-10818622D01*
X2292146Y-10811662D01*
X2278634Y-10804194D01*
X2264308Y-10798403D01*
X2249373Y-10794288D01*
X2234082Y-10792002D01*
X2218639Y-10791545D01*
X2203246Y-10792917D01*
X2188108Y-10796117D01*
X2179624Y-10798962D01*
X2175916Y-10799521D01*
X2172258Y-10798657D01*
X2169210Y-10796524D01*
X2086000Y-10713364D01*
X2083765Y-10710062D01*
X2083003Y-10706150D01*
X2083003Y-10263327D01*
X2083866Y-10259212D01*
X2086356Y-10255758D01*
X2089962Y-10253675D01*
X2094179Y-10253218D01*
X2097481Y-10253522D01*
X2127707Y-10253522D01*
X2131618Y-10254284D01*
X2134920Y-10256520D01*
X2160066Y-10281615D01*
X2166061Y-10286949D01*
X2174443Y-10292384D01*
X2176272Y-10293350D01*
X2185568Y-10297007D01*
X2193290Y-10298785D01*
X2195372Y-10299090D01*
X2203348Y-10299598D01*
X2220061Y-10299598D01*
X2223719Y-10300258D01*
X2226919Y-10302240D01*
X2229154Y-10305186D01*
X2230170Y-10308742D01*
X2230729Y-10314381D01*
X2233066Y-10322001D01*
X2236978Y-10329316D01*
X2238044Y-10332466D01*
X2238044Y-10335768D01*
X2236978Y-10338917D01*
X2233066Y-10346232D01*
X2230729Y-10353852D01*
X2229916Y-10362234D01*
X2229916Y-10496245D01*
X2230729Y-10504627D01*
X2233066Y-10512247D01*
X2236774Y-10519206D01*
X2241804Y-10525353D01*
X2247950Y-10530382D01*
X2254961Y-10534142D01*
X2262530Y-10536428D01*
X2270912Y-10537240D01*
X2319477Y-10537240D01*
X2323338Y-10538002D01*
X2326640Y-10540238D01*
X2794000Y-11007598D01*
X2796235Y-11010900D01*
X2796997Y-11014760D01*
X2796997Y-11931243D01*
X2797759Y-11941302D01*
X2800197Y-11951004D01*
X2803245Y-11958320D01*
X2804210Y-11960199D01*
X2808376Y-11966905D01*
X2814929Y-11974576D01*
X2943148Y-12102795D01*
X2945384Y-12106097D01*
X2946146Y-12110008D01*
X2945384Y-12113869D01*
X2943148Y-12117171D01*
X2939846Y-12119406D01*
X2935986Y-12120168D01*
X2895600Y-12120168D01*
X2891231Y-12119152D01*
X2886913Y-12117070D01*
X2875432Y-12113514D01*
X2863494Y-12111736D01*
X2851505Y-12111736D01*
X2839567Y-12113514D01*
X2828086Y-12117070D01*
X2817266Y-12122302D01*
X2807309Y-12129058D01*
X2798521Y-12137237D01*
X2791206Y-12146381D01*
X2787954Y-12149074D01*
X2783840Y-12150191D01*
X2779674Y-12149531D01*
X2776118Y-12147245D01*
X2759456Y-12130582D01*
X2757271Y-12127280D01*
X2756509Y-12123420D01*
X2756509Y-12079782D01*
X2755646Y-12071400D01*
X2753664Y-12064746D01*
X2753207Y-12061799D01*
X2753664Y-12058853D01*
X2755696Y-12052147D01*
X2756509Y-12043765D01*
X2756509Y-12035637D01*
X2694533Y-12035637D01*
X2691180Y-12037923D01*
X2687167Y-12038787D01*
X2644800Y-12038787D01*
X2640787Y-12037923D01*
X2637434Y-12035637D01*
X2575458Y-12035637D01*
X2575458Y-12043765D01*
X2576322Y-12052147D01*
X2578303Y-12058802D01*
X2578760Y-12061748D01*
X2578303Y-12064695D01*
X2576271Y-12071400D01*
X2575458Y-12079782D01*
X2575458Y-12138761D01*
X2576271Y-12147143D01*
X2578608Y-12154763D01*
X2582316Y-12161774D01*
X2587345Y-12167870D01*
X2597505Y-12176099D01*
X2599385Y-12179960D01*
X2599436Y-12184278D01*
X2597708Y-12188190D01*
X2594559Y-12191085D01*
X2581706Y-12194794D01*
X2571089Y-12200737D01*
X2567686Y-12201347D01*
X2564282Y-12200737D01*
X2560675Y-12198553D01*
X2553665Y-12194794D01*
X2546096Y-12192508D01*
X2537663Y-12191695D01*
X2483866Y-12191695D01*
X2479852Y-12190831D01*
X2476449Y-12188444D01*
X2474315Y-12184938D01*
X2473756Y-12180824D01*
X2474874Y-12176861D01*
X2477465Y-12173610D01*
X2484628Y-12167870D01*
X2489606Y-12161723D01*
X2493365Y-12154763D01*
X2495651Y-12147143D01*
X2496515Y-12138761D01*
X2496515Y-12079782D01*
X2495651Y-12071350D01*
X2493365Y-12063780D01*
X2489606Y-12056770D01*
X2484577Y-12050623D01*
X2478481Y-12045594D01*
X2471470Y-12041886D01*
X2463850Y-12039549D01*
X2455468Y-12038736D01*
X2356459Y-12038736D01*
X2348077Y-12039549D01*
X2340508Y-12041886D01*
X2333498Y-12045594D01*
X2327351Y-12050623D01*
X2322322Y-12056770D01*
X2318613Y-12063780D01*
X2316276Y-12071350D01*
X2315464Y-12079782D01*
X2315464Y-12138761D01*
X2316276Y-12147143D01*
X2318613Y-12154763D01*
X2322322Y-12161723D01*
X2327351Y-12167870D01*
X2333498Y-12172899D01*
X2340102Y-12176404D01*
X2342946Y-12178690D01*
X2344826Y-12181789D01*
X2345486Y-12185396D01*
X2345486Y-12240564D01*
X2345944Y-12248540D01*
X2346248Y-12250623D01*
X2348026Y-12258344D01*
X2351582Y-12267336D01*
X2355240Y-12273432D01*
X2356307Y-12275972D01*
X2356662Y-12278664D01*
X2356662Y-12335103D01*
X2355900Y-12338964D01*
X2353716Y-12342215D01*
X2350566Y-12344400D01*
X2353716Y-12346482D01*
X2355900Y-12349784D01*
X2356662Y-12353696D01*
X2356662Y-12366701D01*
X2357475Y-12375083D01*
X2359812Y-12382703D01*
X2363520Y-12389662D01*
X2368550Y-12395809D01*
X2372512Y-12399010D01*
X2374798Y-12401753D01*
X2376068Y-12405055D01*
X2376068Y-12408611D01*
X2374849Y-12411964D01*
X2368397Y-12423140D01*
X2363978Y-12434366D01*
X2363063Y-12438329D01*
X2361082Y-12442240D01*
X2361387Y-12444628D01*
X2360422Y-12458039D01*
X2361285Y-12470079D01*
X2363978Y-12481763D01*
X2368397Y-12492990D01*
X2374392Y-12503404D01*
X2381910Y-12512802D01*
X2390698Y-12520980D01*
X2400655Y-12527788D01*
X2411476Y-12532969D01*
X2422956Y-12536525D01*
X2434894Y-12538303D01*
X2446883Y-12538303D01*
X2458821Y-12536525D01*
X2470302Y-12532969D01*
X2481122Y-12527788D01*
X2491079Y-12520980D01*
X2499868Y-12512802D01*
X2507386Y-12503404D01*
X2513380Y-12492990D01*
X2517800Y-12481763D01*
X2520492Y-12470079D01*
X2521356Y-12458090D01*
X2520492Y-12446050D01*
X2517800Y-12434366D01*
X2513279Y-12422936D01*
X2512009Y-12418923D01*
X2512415Y-12414707D01*
X2514549Y-12411049D01*
X2517952Y-12408611D01*
X2522067Y-12407696D01*
X2537663Y-12407696D01*
X2546096Y-12406884D01*
X2553665Y-12404598D01*
X2564282Y-12398654D01*
X2567686Y-12398044D01*
X2571089Y-12398654D01*
X2574696Y-12400838D01*
X2581706Y-12404598D01*
X2589276Y-12406884D01*
X2597708Y-12407696D01*
X2626106Y-12407696D01*
X2626106Y-12339777D01*
X2588869Y-12339777D01*
X2584958Y-12339015D01*
X2581656Y-12336830D01*
X2579471Y-12333528D01*
X2578709Y-12329617D01*
X2578709Y-12269774D01*
X2579471Y-12265863D01*
X2581656Y-12262561D01*
X2584958Y-12260376D01*
X2588869Y-12259614D01*
X2626106Y-12259614D01*
X2626106Y-12189968D01*
X2626868Y-12186056D01*
X2629052Y-12182754D01*
X2632354Y-12180570D01*
X2636266Y-12179808D01*
X2660192Y-12179808D01*
X2664053Y-12180570D01*
X2667355Y-12182754D01*
X2706319Y-12221718D01*
X2708503Y-12225020D01*
X2709265Y-12228880D01*
X2709265Y-12259614D01*
X2739999Y-12259614D01*
X2743860Y-12260376D01*
X2747162Y-12262561D01*
X2803194Y-12318593D01*
X2805430Y-12321895D01*
X2806192Y-12325807D01*
X2806192Y-12429185D01*
X2805430Y-12433096D01*
X2803194Y-12436398D01*
X2799892Y-12438583D01*
X2796032Y-12439345D01*
X2788869Y-12439345D01*
X2780436Y-12440158D01*
X2772867Y-12442494D01*
X2762148Y-12448286D01*
X2758186Y-12448641D01*
X2754426Y-12447524D01*
X2751328Y-12445847D01*
X2743758Y-12443561D01*
X2735376Y-12442748D01*
X2598674Y-12442748D01*
X2590241Y-12443561D01*
X2582672Y-12445847D01*
X2575661Y-12449606D01*
X2569514Y-12454636D01*
X2564485Y-12460782D01*
X2560777Y-12467742D01*
X2558440Y-12475362D01*
X2557627Y-12483744D01*
X2557627Y-12596012D01*
X2558440Y-12604394D01*
X2560777Y-12611963D01*
X2564485Y-12618974D01*
X2569514Y-12625120D01*
X2573832Y-12628626D01*
X2576576Y-12632131D01*
X2577541Y-12636500D01*
X2576576Y-12640868D01*
X2573832Y-12644374D01*
X2569514Y-12647879D01*
X2564485Y-12654026D01*
X2560777Y-12661036D01*
X2558440Y-12668605D01*
X2557627Y-12676987D01*
X2557627Y-12766141D01*
X2556865Y-12770053D01*
X2554681Y-12773355D01*
X2504084Y-12823901D01*
X2500934Y-12827355D01*
X2498242Y-12830860D01*
X2495854Y-12834620D01*
X2493772Y-12838582D01*
X2492095Y-12842697D01*
X2490724Y-12846913D01*
X2489758Y-12851282D01*
X2489200Y-12855702D01*
X2488996Y-12860375D01*
X2488996Y-12961467D01*
X2488234Y-12965379D01*
X2485999Y-12968681D01*
X2482697Y-12970865D01*
X2478836Y-12971627D01*
G37*

%LPC*%
G36*
X2270760Y-12514681D02*
G01*
X2282393Y-12509144D01*
X2295448Y-12500914D01*
X2307488Y-12491161D01*
X2318258Y-12480086D01*
X2327605Y-12467793D01*
X2335479Y-12454483D01*
X2339136Y-12446203D01*
X2270760Y-12446203D01*
G37*
G36*
X2709265Y-12407696D02*
G01*
X2737713Y-12407696D01*
X2746095Y-12406884D01*
X2753664Y-12404598D01*
X2760675Y-12400838D01*
X2766822Y-12395809D01*
X2771851Y-12389662D01*
X2775559Y-12382703D01*
X2777896Y-12375083D01*
X2778709Y-12366701D01*
X2778709Y-12339777D01*
X2709265Y-12339777D01*
G37*
G36*
X2270760Y-12343536D02*
G01*
X2341168Y-12343536D01*
X2339441Y-12342418D01*
X2337206Y-12339218D01*
X2335479Y-12335306D01*
X2327605Y-12321997D01*
X2318258Y-12309703D01*
X2307488Y-12298578D01*
X2295448Y-12288824D01*
X2282393Y-12280595D01*
X2270760Y-12275058D01*
G37*
G36*
X2670657Y-11774932D02*
G01*
X2692146Y-11774932D01*
X2700528Y-11774119D01*
X2708097Y-11771833D01*
X2715107Y-11768074D01*
X2721254Y-11763044D01*
X2726283Y-11756898D01*
X2729992Y-11749887D01*
X2732328Y-11742318D01*
X2733141Y-11733936D01*
X2733141Y-11706352D01*
X2670657Y-11706352D01*
G37*
G36*
X2670657Y-11624818D02*
G01*
X2733141Y-11624818D01*
X2733141Y-11597233D01*
X2732328Y-11588851D01*
X2729992Y-11581231D01*
X2726283Y-11574221D01*
X2721254Y-11568125D01*
X2715107Y-11563096D01*
X2708097Y-11559336D01*
X2700528Y-11557050D01*
X2692146Y-11556238D01*
X2670657Y-11556238D01*
G37*

%LPD*%
G36*
X2970276Y-12999872D02*
G01*
X2966161Y-12999008D01*
X2962757Y-12996519D01*
X2960624Y-12992862D01*
X2960217Y-12988086D01*
X2960217Y-12889077D01*
X2959404Y-12880695D01*
X2957118Y-12873126D01*
X2953359Y-12866116D01*
X2948330Y-12859969D01*
X2942183Y-12854940D01*
X2934411Y-12850774D01*
X2931363Y-12848285D01*
X2929483Y-12844780D01*
X2929077Y-12840817D01*
X2930245Y-12837058D01*
X2932785Y-12833959D01*
X2936240Y-12832130D01*
X2941523Y-12830505D01*
X2948533Y-12826796D01*
X2954680Y-12821767D01*
X2959709Y-12815620D01*
X2963418Y-12808610D01*
X2965754Y-12801041D01*
X2966567Y-12792608D01*
X2966567Y-12680391D01*
X2965754Y-12672009D01*
X2963418Y-12664389D01*
X2959709Y-12657378D01*
X2954680Y-12651282D01*
X2948533Y-12646253D01*
X2947060Y-12645440D01*
X2943758Y-12642646D01*
X2941929Y-12638684D01*
X2941929Y-12634315D01*
X2943758Y-12630353D01*
X2947060Y-12627559D01*
X2948533Y-12626746D01*
X2954680Y-12621717D01*
X2959709Y-12615621D01*
X2963418Y-12608610D01*
X2965754Y-12600990D01*
X2966567Y-12592608D01*
X2966567Y-12480391D01*
X2965754Y-12471958D01*
X2963418Y-12464389D01*
X2959709Y-12457379D01*
X2954680Y-12451232D01*
X2948533Y-12446203D01*
X2941523Y-12442494D01*
X2933954Y-12440158D01*
X2925572Y-12439345D01*
X2918358Y-12439345D01*
X2914497Y-12438583D01*
X2911195Y-12436398D01*
X2909011Y-12433096D01*
X2908198Y-12429185D01*
X2908198Y-12300661D01*
X2907995Y-12296038D01*
X2907436Y-12291618D01*
X2906471Y-12287250D01*
X2905150Y-12283033D01*
X2903423Y-12278918D01*
X2899664Y-12272314D01*
X2898241Y-12268657D01*
X2898292Y-12264796D01*
X2899765Y-12261189D01*
X2902508Y-12258446D01*
X2907690Y-12254941D01*
X2916478Y-12246762D01*
X2920085Y-12242952D01*
X2922828Y-12241631D01*
X2925826Y-12241174D01*
X2988818Y-12241174D01*
X2992475Y-12241885D01*
X2995625Y-12243816D01*
X2997860Y-12246762D01*
X2998927Y-12250369D01*
X2999486Y-12256109D01*
X3001772Y-12263678D01*
X3005531Y-12270689D01*
X3010560Y-12276836D01*
X3016707Y-12281865D01*
X3023666Y-12285573D01*
X3031286Y-12287910D01*
X3039668Y-12288723D01*
X3124860Y-12288723D01*
X3128721Y-12289485D01*
X3132023Y-12291669D01*
X3193694Y-12353340D01*
X3195929Y-12356642D01*
X3196691Y-12360554D01*
X3196691Y-12879070D01*
X3195980Y-12882727D01*
X3194050Y-12885877D01*
X3191103Y-12888112D01*
X3187496Y-12889179D01*
X3181756Y-12889738D01*
X3174187Y-12892024D01*
X3167176Y-12895783D01*
X3161030Y-12900812D01*
X3156000Y-12906959D01*
X3152292Y-12913918D01*
X3149955Y-12921538D01*
X3149142Y-12929920D01*
X3149142Y-12989712D01*
X3148380Y-12993573D01*
X3146196Y-12996875D01*
X3142894Y-12999110D01*
X3138982Y-12999872D01*
G37*

%LPD*%
G36*
X2514193Y-14113052D02*
G01*
X2509824Y-14112798D01*
X2505964Y-14110766D01*
X2503322Y-14107312D01*
X2502408Y-14103045D01*
X2502408Y-14084554D01*
X2501595Y-14076172D01*
X2499258Y-14068602D01*
X2495550Y-14061592D01*
X2490520Y-14055445D01*
X2484374Y-14050416D01*
X2477363Y-14046707D01*
X2469794Y-14044371D01*
X2461412Y-14043558D01*
X2327706Y-14043558D01*
X2323846Y-14042796D01*
X2320544Y-14040561D01*
X2241296Y-13961313D01*
X2239060Y-13958011D01*
X2238298Y-13954150D01*
X2238298Y-12989712D01*
X2239060Y-12985800D01*
X2241296Y-12982498D01*
X2244598Y-12980314D01*
X2248458Y-12979552D01*
X2262174Y-12979552D01*
X2266086Y-12980314D01*
X2269388Y-12982498D01*
X2339898Y-13053009D01*
X2342083Y-13056311D01*
X2342845Y-13060222D01*
X2342845Y-13102640D01*
X2342286Y-13106044D01*
X2340559Y-13109092D01*
X2338933Y-13111073D01*
X2336647Y-13114680D01*
X2334564Y-13118642D01*
X2332888Y-13122757D01*
X2331516Y-13126974D01*
X2330551Y-13131342D01*
X2329992Y-13135762D01*
X2329789Y-13140436D01*
X2329789Y-13202462D01*
X2329129Y-13206120D01*
X2327148Y-13209269D01*
X2324201Y-13211505D01*
X2319426Y-13212673D01*
X2311806Y-13215010D01*
X2304846Y-13218718D01*
X2298700Y-13223748D01*
X2293670Y-13229894D01*
X2289911Y-13236905D01*
X2287625Y-13244474D01*
X2286812Y-13252856D01*
X2286812Y-13311886D01*
X2287625Y-13320268D01*
X2289911Y-13327837D01*
X2293670Y-13334847D01*
X2298700Y-13340994D01*
X2304846Y-13346023D01*
X2311806Y-13349732D01*
X2319426Y-13352068D01*
X2327808Y-13352881D01*
X2433828Y-13352881D01*
X2442210Y-13352068D01*
X2449779Y-13349732D01*
X2456789Y-13346023D01*
X2462936Y-13340994D01*
X2467965Y-13334847D01*
X2469845Y-13331291D01*
X2472791Y-13327888D01*
X2476855Y-13326110D01*
X2481275Y-13326211D01*
X2485288Y-13328192D01*
X2488031Y-13331698D01*
X2488996Y-13336066D01*
X2488996Y-13418667D01*
X2488031Y-13423036D01*
X2485288Y-13426541D01*
X2481275Y-13428522D01*
X2476855Y-13428624D01*
X2472791Y-13426846D01*
X2469845Y-13423493D01*
X2467965Y-13419886D01*
X2462936Y-13413740D01*
X2456789Y-13408710D01*
X2449779Y-13405002D01*
X2442210Y-13402665D01*
X2433828Y-13401852D01*
X2413914Y-13401852D01*
X2413914Y-13451027D01*
X2478836Y-13451027D01*
X2482697Y-13451789D01*
X2485999Y-13454024D01*
X2488234Y-13457275D01*
X2488996Y-13461187D01*
X2488996Y-13483539D01*
X2488234Y-13487450D01*
X2485999Y-13490752D01*
X2482697Y-13492937D01*
X2478836Y-13493699D01*
X2413914Y-13493699D01*
X2413914Y-13542873D01*
X2433828Y-13542873D01*
X2442210Y-13542060D01*
X2449779Y-13539774D01*
X2456789Y-13536015D01*
X2462936Y-13530986D01*
X2467965Y-13524839D01*
X2469845Y-13521283D01*
X2472791Y-13517880D01*
X2476855Y-13516101D01*
X2481275Y-13516203D01*
X2485288Y-13518184D01*
X2488031Y-13521740D01*
X2488996Y-13526058D01*
X2488996Y-13779296D01*
X2489200Y-13783970D01*
X2489758Y-13788339D01*
X2490724Y-13792707D01*
X2492095Y-13796924D01*
X2493772Y-13801039D01*
X2495854Y-13805001D01*
X2498242Y-13808760D01*
X2500934Y-13812266D01*
X2504084Y-13815720D01*
X2576880Y-13888516D01*
X2579116Y-13891818D01*
X2579878Y-13895730D01*
X2579878Y-14048079D01*
X2579116Y-14051889D01*
X2577033Y-14055140D01*
X2559608Y-14065808D01*
X2547670Y-14075156D01*
X2536952Y-14085874D01*
X2527604Y-14097762D01*
X2521254Y-14108277D01*
X2518257Y-14111478D01*
G37*

%LPC*%
G36*
X2327808Y-13542873D02*
G01*
X2347722Y-13542873D01*
X2347722Y-13493699D01*
X2286812Y-13493699D01*
X2286812Y-13501878D01*
X2287625Y-13510260D01*
X2289911Y-13517880D01*
X2293670Y-13524839D01*
X2298700Y-13530986D01*
X2304846Y-13536015D01*
X2311806Y-13539774D01*
X2319426Y-13542060D01*
G37*
G36*
X2286812Y-13451027D02*
G01*
X2347722Y-13451027D01*
X2347722Y-13401852D01*
X2327808Y-13401852D01*
X2319426Y-13402665D01*
X2311806Y-13405002D01*
X2304846Y-13408710D01*
X2298700Y-13413740D01*
X2293670Y-13419886D01*
X2289911Y-13426897D01*
X2287625Y-13434466D01*
X2286812Y-13442848D01*
G37*

%LPD*%
G36*
X1720342Y-14364004D02*
G01*
X1716430Y-14363242D01*
X1713128Y-14361007D01*
X1710943Y-14357756D01*
X1710182Y-14353844D01*
X1710182Y-14228368D01*
X1584655Y-14228368D01*
X1580743Y-14227606D01*
X1577492Y-14225371D01*
X1575257Y-14222069D01*
X1574495Y-14218208D01*
X1574495Y-13975842D01*
X1575257Y-13971930D01*
X1577492Y-13968628D01*
X1580743Y-13966444D01*
X1584655Y-13965682D01*
X1710182Y-13965682D01*
X1710131Y-13837919D01*
X1689455Y-13849451D01*
X1669796Y-13862710D01*
X1651254Y-13877442D01*
X1634032Y-13893698D01*
X1618132Y-13911275D01*
X1603756Y-13930122D01*
X1593189Y-13946479D01*
X1590141Y-13949578D01*
X1586077Y-13951051D01*
X1581810Y-13950746D01*
X1578000Y-13948663D01*
X1575409Y-13945209D01*
X1574495Y-13940993D01*
X1574495Y-12455448D01*
X1575460Y-12451080D01*
X1578254Y-12447574D01*
X1582267Y-12445593D01*
X1586738Y-12445542D01*
X1590802Y-12447371D01*
X1593697Y-12450826D01*
X1599031Y-12461240D01*
X1607667Y-12474041D01*
X1617776Y-12485776D01*
X1629156Y-12496190D01*
X1641754Y-12505232D01*
X1654860Y-12512446D01*
X1657654Y-12514732D01*
X1659483Y-12517831D01*
X1660093Y-12521387D01*
X1659483Y-12750800D01*
X1658823Y-12754406D01*
X1656842Y-12757607D01*
X1653895Y-12759842D01*
X1650339Y-12760858D01*
X1642414Y-12761620D01*
X1634845Y-12763957D01*
X1627835Y-12767665D01*
X1621688Y-12772694D01*
X1616659Y-12778841D01*
X1612950Y-12785852D01*
X1610614Y-12793421D01*
X1609801Y-12801854D01*
X1609801Y-12938556D01*
X1610614Y-12946938D01*
X1612950Y-12954508D01*
X1616659Y-12961518D01*
X1621688Y-12967665D01*
X1627835Y-12972694D01*
X1634845Y-12976402D01*
X1642414Y-12978739D01*
X1650847Y-12979552D01*
X1763064Y-12979552D01*
X1771446Y-12978739D01*
X1779066Y-12976402D01*
X1786077Y-12972694D01*
X1792173Y-12967665D01*
X1797202Y-12961518D01*
X1798015Y-12960045D01*
X1800809Y-12956743D01*
X1804771Y-12954914D01*
X1809140Y-12954914D01*
X1813102Y-12956743D01*
X1815896Y-12960045D01*
X1816709Y-12961518D01*
X1821738Y-12967665D01*
X1827834Y-12972694D01*
X1834845Y-12976402D01*
X1842465Y-12978739D01*
X1850847Y-12979552D01*
X1963064Y-12979552D01*
X1971497Y-12978739D01*
X1979066Y-12976402D01*
X1986076Y-12972694D01*
X1990648Y-12968935D01*
X1993646Y-12967208D01*
X1997100Y-12966649D01*
X2000504Y-12967208D01*
X2003501Y-12968935D01*
X2008073Y-12972694D01*
X2015083Y-12976402D01*
X2022652Y-12978739D01*
X2031085Y-12979552D01*
X2126132Y-12979552D01*
X2129993Y-12980314D01*
X2133295Y-12982498D01*
X2135530Y-12985800D01*
X2136292Y-12989712D01*
X2136292Y-13979245D01*
X2136495Y-13983919D01*
X2137054Y-13988338D01*
X2138019Y-13992656D01*
X2139391Y-13996924D01*
X2141067Y-14001038D01*
X2143150Y-14005001D01*
X2145538Y-14008709D01*
X2148230Y-14012265D01*
X2151380Y-14015719D01*
X2248408Y-14112748D01*
X2250592Y-14115999D01*
X2251405Y-14119910D01*
X2251405Y-14253565D01*
X2252218Y-14261947D01*
X2254504Y-14269567D01*
X2258263Y-14276527D01*
X2263292Y-14282674D01*
X2269388Y-14287703D01*
X2276398Y-14291462D01*
X2284018Y-14293748D01*
X2292400Y-14294561D01*
X2461412Y-14294561D01*
X2469794Y-14293748D01*
X2477363Y-14291462D01*
X2484374Y-14287703D01*
X2490520Y-14282674D01*
X2495550Y-14276527D01*
X2499258Y-14269567D01*
X2501595Y-14261947D01*
X2502408Y-14253565D01*
X2502408Y-14235125D01*
X2503322Y-14230857D01*
X2505964Y-14227352D01*
X2509824Y-14225320D01*
X2514193Y-14225066D01*
X2518257Y-14226692D01*
X2521254Y-14229842D01*
X2527604Y-14240357D01*
X2536952Y-14252295D01*
X2547670Y-14263014D01*
X2559608Y-14272361D01*
X2572562Y-14280184D01*
X2586380Y-14286433D01*
X2600858Y-14290903D01*
X2615742Y-14293646D01*
X2630881Y-14294561D01*
X2646019Y-14293646D01*
X2660904Y-14290903D01*
X2675382Y-14286433D01*
X2689199Y-14280184D01*
X2702204Y-14272361D01*
X2714091Y-14263014D01*
X2724810Y-14252295D01*
X2734157Y-14240357D01*
X2741980Y-14227403D01*
X2748635Y-14212569D01*
X2750820Y-14209471D01*
X2750566Y-14208506D01*
X2750972Y-14204746D01*
X2752750Y-14199107D01*
X2755493Y-14184172D01*
X2756408Y-14169085D01*
X2755493Y-14153946D01*
X2752750Y-14139062D01*
X2750972Y-14133423D01*
X2750566Y-14129664D01*
X2750820Y-14128699D01*
X2748635Y-14125549D01*
X2741980Y-14110716D01*
X2734157Y-14097762D01*
X2724810Y-14085874D01*
X2714091Y-14075156D01*
X2702204Y-14065808D01*
X2684729Y-14055140D01*
X2682646Y-14051889D01*
X2681884Y-14048079D01*
X2681884Y-13870584D01*
X2681681Y-13865910D01*
X2681122Y-13861542D01*
X2680157Y-13857173D01*
X2678785Y-13852956D01*
X2677109Y-13848842D01*
X2675077Y-13844879D01*
X2672638Y-13841120D01*
X2669946Y-13837615D01*
X2666796Y-13834160D01*
X2594000Y-13761364D01*
X2591765Y-13758062D01*
X2591003Y-13754150D01*
X2591003Y-13458037D01*
X2591765Y-13454176D01*
X2594000Y-13450874D01*
X2597302Y-13448639D01*
X2601163Y-13447877D01*
X2680817Y-13447877D01*
X2689199Y-13447064D01*
X2693466Y-13445744D01*
X2697429Y-13445388D01*
X2701188Y-13446506D01*
X2704287Y-13449046D01*
X2706116Y-13452551D01*
X2708503Y-13460374D01*
X2712262Y-13467334D01*
X2717292Y-13473480D01*
X2723388Y-13478510D01*
X2730398Y-13482269D01*
X2738018Y-13484555D01*
X2746400Y-13485368D01*
X2774797Y-13485368D01*
X2774797Y-13417448D01*
X2731973Y-13417448D01*
X2728112Y-13416686D01*
X2724810Y-13414501D01*
X2722575Y-13411200D01*
X2721813Y-13407288D01*
X2721813Y-13347446D01*
X2722575Y-13343534D01*
X2724810Y-13340232D01*
X2728112Y-13338048D01*
X2731973Y-13337286D01*
X2774797Y-13337286D01*
X2774797Y-13269366D01*
X2746400Y-13269366D01*
X2738018Y-13270179D01*
X2730398Y-13272465D01*
X2723388Y-13276224D01*
X2717292Y-13281253D01*
X2712262Y-13287400D01*
X2708503Y-13294410D01*
X2706116Y-13302183D01*
X2704287Y-13305688D01*
X2701188Y-13308228D01*
X2697429Y-13309346D01*
X2693466Y-13308990D01*
X2689199Y-13307669D01*
X2680817Y-13306856D01*
X2601163Y-13306856D01*
X2597302Y-13306094D01*
X2594000Y-13303859D01*
X2591765Y-13300608D01*
X2591003Y-13296696D01*
X2591003Y-13200532D01*
X2591765Y-13196620D01*
X2594000Y-13193318D01*
X2597302Y-13191134D01*
X2601163Y-13190372D01*
X2696108Y-13190372D01*
X2704541Y-13189559D01*
X2712110Y-13187222D01*
X2719120Y-13183514D01*
X2725267Y-13178485D01*
X2730296Y-13172338D01*
X2734005Y-13165328D01*
X2736342Y-13157758D01*
X2737154Y-13149376D01*
X2737154Y-13137388D01*
X2737916Y-13133527D01*
X2740101Y-13130225D01*
X2743403Y-13128040D01*
X2747314Y-13127228D01*
X2820365Y-13127228D01*
X2822549Y-13123926D01*
X2825851Y-13121690D01*
X2829763Y-13120878D01*
X2884627Y-13120878D01*
X2888589Y-13121690D01*
X2891891Y-13123926D01*
X2894076Y-13127228D01*
X2960979Y-13127228D01*
X2963164Y-13123926D01*
X2966466Y-13121690D01*
X2970377Y-13120878D01*
X3138982Y-13120878D01*
X3142894Y-13121640D01*
X3146196Y-13123875D01*
X3148380Y-13127177D01*
X3149142Y-13131038D01*
X3149142Y-13254431D01*
X3149955Y-13262813D01*
X3152292Y-13270433D01*
X3156254Y-13277900D01*
X3157321Y-13280999D01*
X3157321Y-13284352D01*
X3156254Y-13287451D01*
X3152292Y-13294918D01*
X3149955Y-13302538D01*
X3149142Y-13310920D01*
X3149142Y-13444931D01*
X3149955Y-13453313D01*
X3152292Y-13460933D01*
X3156000Y-13467892D01*
X3161030Y-13474039D01*
X3163976Y-13476478D01*
X3166516Y-13479526D01*
X3167684Y-13483336D01*
X3167278Y-13487247D01*
X3165398Y-13490752D01*
X3162350Y-13493292D01*
X3155797Y-13496747D01*
X3149650Y-13501776D01*
X3146145Y-13506094D01*
X3142640Y-13508837D01*
X3138271Y-13509802D01*
X3133953Y-13508837D01*
X3130448Y-13506094D01*
X3126892Y-13501776D01*
X3120745Y-13496747D01*
X3113836Y-13493038D01*
X3110738Y-13490549D01*
X3108858Y-13487044D01*
X3108502Y-13483082D01*
X3109620Y-13479322D01*
X3112160Y-13476224D01*
X3115513Y-13473480D01*
X3120542Y-13467334D01*
X3124301Y-13460374D01*
X3126587Y-13452754D01*
X3127400Y-13444372D01*
X3127400Y-13310362D01*
X3126587Y-13301980D01*
X3124301Y-13294410D01*
X3120542Y-13287400D01*
X3115513Y-13281253D01*
X3109366Y-13276224D01*
X3102406Y-13272465D01*
X3094786Y-13270179D01*
X3086404Y-13269366D01*
X2946400Y-13269366D01*
X2938018Y-13270179D01*
X2930398Y-13272465D01*
X2919831Y-13278408D01*
X2916377Y-13279018D01*
X2912973Y-13278408D01*
X2909366Y-13276224D01*
X2902356Y-13272465D01*
X2894787Y-13270179D01*
X2885948Y-13269163D01*
X2884627Y-13269417D01*
X2858008Y-13269417D01*
X2858008Y-13337286D01*
X2895244Y-13337286D01*
X2899105Y-13338048D01*
X2902407Y-13340232D01*
X2904591Y-13343534D01*
X2905404Y-13347446D01*
X2905404Y-13407288D01*
X2904591Y-13411200D01*
X2902407Y-13414501D01*
X2899105Y-13416686D01*
X2895244Y-13417448D01*
X2858008Y-13417448D01*
X2858008Y-13485368D01*
X2886405Y-13485368D01*
X2894787Y-13484555D01*
X2902356Y-13482269D01*
X2912973Y-13476325D01*
X2916377Y-13475716D01*
X2919831Y-13476325D01*
X2923438Y-13478510D01*
X2930398Y-13482269D01*
X2938018Y-13484555D01*
X2946400Y-13485368D01*
X2948432Y-13485368D01*
X2952140Y-13486079D01*
X2955340Y-13488111D01*
X2957576Y-13491210D01*
X2958541Y-13494867D01*
X2958084Y-13498677D01*
X2956255Y-13501979D01*
X2951378Y-13507923D01*
X2947670Y-13514933D01*
X2945333Y-13522502D01*
X2944520Y-13530935D01*
X2944520Y-13667638D01*
X2945333Y-13676020D01*
X2947670Y-13683589D01*
X2951378Y-13690600D01*
X2956407Y-13696746D01*
X2962554Y-13701776D01*
X2969564Y-13705484D01*
X2973933Y-13706856D01*
X2977692Y-13708938D01*
X2980232Y-13712342D01*
X2981147Y-13716558D01*
X2981147Y-14064488D01*
X2980182Y-14068907D01*
X2977388Y-14072412D01*
X2973324Y-14074394D01*
X2968802Y-14074394D01*
X2964738Y-14072514D01*
X2956204Y-14065808D01*
X2943199Y-14057934D01*
X2933750Y-14053667D01*
X2933750Y-14120215D01*
X3000248Y-14120215D01*
X3004159Y-14120977D01*
X3007461Y-14123212D01*
X3014218Y-14130019D01*
X3016148Y-14132661D01*
X3017113Y-14135760D01*
X3017062Y-14139011D01*
X3014319Y-14153946D01*
X3013405Y-14169085D01*
X3014319Y-14184172D01*
X3017062Y-14199107D01*
X3018790Y-14204746D01*
X3019247Y-14208506D01*
X3018993Y-14209471D01*
X3021177Y-14212569D01*
X3027781Y-14227403D01*
X3035604Y-14240357D01*
X3044952Y-14252295D01*
X3055670Y-14263014D01*
X3067608Y-14272361D01*
X3080562Y-14280184D01*
X3094380Y-14286433D01*
X3108858Y-14290903D01*
X3123742Y-14293646D01*
X3138881Y-14294561D01*
X3154019Y-14293646D01*
X3168904Y-14290903D01*
X3183382Y-14286433D01*
X3197199Y-14280184D01*
X3210204Y-14272361D01*
X3222091Y-14263014D01*
X3232810Y-14252295D01*
X3242157Y-14240357D01*
X3250031Y-14227403D01*
X3256229Y-14213586D01*
X3260750Y-14199107D01*
X3263493Y-14184172D01*
X3264408Y-14169085D01*
X3263493Y-14153946D01*
X3260750Y-14139062D01*
X3256229Y-14124584D01*
X3250031Y-14110766D01*
X3242157Y-14097762D01*
X3232810Y-14085874D01*
X3222091Y-14075156D01*
X3210204Y-14065808D01*
X3197199Y-14057934D01*
X3183382Y-14051737D01*
X3168904Y-14047216D01*
X3154019Y-14044472D01*
X3138881Y-14043558D01*
X3123742Y-14044472D01*
X3114192Y-14046250D01*
X3109772Y-14046098D01*
X3105861Y-14044066D01*
X3103168Y-14040561D01*
X3102203Y-14036243D01*
X3102203Y-13716558D01*
X3103118Y-13712342D01*
X3105658Y-13708888D01*
X3109417Y-13706805D01*
X3113786Y-13705484D01*
X3120745Y-13701776D01*
X3126892Y-13696746D01*
X3130448Y-13692428D01*
X3133953Y-13689685D01*
X3138271Y-13688720D01*
X3142640Y-13689685D01*
X3146145Y-13692428D01*
X3149650Y-13696746D01*
X3155797Y-13701776D01*
X3162808Y-13705484D01*
X3170377Y-13707821D01*
X3178810Y-13708634D01*
X3291027Y-13708634D01*
X3299409Y-13707821D01*
X3307029Y-13705484D01*
X3314039Y-13701776D01*
X3320135Y-13696746D01*
X3325164Y-13690600D01*
X3328924Y-13683589D01*
X3331210Y-13676020D01*
X3332073Y-13667638D01*
X3332073Y-13530935D01*
X3331210Y-13522502D01*
X3328924Y-13514933D01*
X3325164Y-13507923D01*
X3320745Y-13502538D01*
X3318967Y-13499185D01*
X3318459Y-13495426D01*
X3319424Y-13491768D01*
X3321659Y-13488669D01*
X3324860Y-13486638D01*
X3338576Y-13485113D01*
X3346145Y-13482828D01*
X3356762Y-13476884D01*
X3360165Y-13476274D01*
X3363569Y-13476884D01*
X3367176Y-13479068D01*
X3374186Y-13482828D01*
X3381756Y-13485113D01*
X3390188Y-13485926D01*
X3418586Y-13485926D01*
X3418586Y-13418007D01*
X3381349Y-13418007D01*
X3377437Y-13417245D01*
X3374136Y-13415060D01*
X3371951Y-13411758D01*
X3371189Y-13407847D01*
X3371189Y-13348004D01*
X3371951Y-13344093D01*
X3374136Y-13340791D01*
X3377437Y-13338606D01*
X3381349Y-13337844D01*
X3418586Y-13337844D01*
X3418586Y-13227507D01*
X3381349Y-13227507D01*
X3377437Y-13226745D01*
X3374136Y-13224560D01*
X3371951Y-13221258D01*
X3371189Y-13217347D01*
X3371189Y-13157504D01*
X3371951Y-13153593D01*
X3374136Y-13150291D01*
X3377437Y-13148106D01*
X3381349Y-13147344D01*
X3418586Y-13147344D01*
X3418586Y-13037007D01*
X3381349Y-13037007D01*
X3377437Y-13036245D01*
X3374136Y-13034060D01*
X3371951Y-13030758D01*
X3371189Y-13026847D01*
X3371189Y-12967004D01*
X3371951Y-12963093D01*
X3374136Y-12959791D01*
X3377437Y-12957606D01*
X3381349Y-12956844D01*
X3418586Y-12956844D01*
X3418586Y-12888925D01*
X3390188Y-12888925D01*
X3381756Y-12889738D01*
X3374186Y-12892024D01*
X3363569Y-12897967D01*
X3360165Y-12898577D01*
X3356762Y-12897967D01*
X3353155Y-12895783D01*
X3346145Y-12892024D01*
X3338576Y-12889738D01*
X3330143Y-12888925D01*
X3327857Y-12888925D01*
X3323996Y-12888163D01*
X3320694Y-12885928D01*
X3318459Y-12882626D01*
X3317697Y-12878765D01*
X3317697Y-12331598D01*
X3316935Y-12321540D01*
X3315157Y-12313920D01*
X3314141Y-12310973D01*
X3313582Y-12307163D01*
X3314496Y-12303404D01*
X3316732Y-12300305D01*
X3319983Y-12298222D01*
X3323742Y-12297511D01*
X3456076Y-12297511D01*
X3464509Y-12296648D01*
X3472078Y-12294362D01*
X3479088Y-12290602D01*
X3485235Y-12285573D01*
X3490264Y-12279477D01*
X3493973Y-12272467D01*
X3496310Y-12264847D01*
X3497122Y-12256465D01*
X3497122Y-11835485D01*
X3496310Y-11827103D01*
X3493973Y-11819483D01*
X3490264Y-11812473D01*
X3485235Y-11806377D01*
X3479088Y-11801348D01*
X3472078Y-11797588D01*
X3464509Y-11795302D01*
X3456076Y-11794439D01*
X3448558Y-11794439D01*
X3444646Y-11793677D01*
X3441395Y-11791492D01*
X3439160Y-11788190D01*
X3438398Y-11784279D01*
X3439160Y-11780418D01*
X3441395Y-11777116D01*
X3449523Y-11768988D01*
X3452774Y-11766804D01*
X3456686Y-11765991D01*
X3487115Y-11765991D01*
X3495497Y-11765178D01*
X3506825Y-11761470D01*
X3510178Y-11761470D01*
X3513937Y-11762892D01*
X3521506Y-11765178D01*
X3529888Y-11765991D01*
X3582111Y-11765991D01*
X3590493Y-11765178D01*
X3601821Y-11761470D01*
X3605174Y-11761470D01*
X3608933Y-11762892D01*
X3616502Y-11765178D01*
X3624884Y-11765991D01*
X3655314Y-11765991D01*
X3659225Y-11766804D01*
X3662476Y-11768988D01*
X3670604Y-11777116D01*
X3672840Y-11780418D01*
X3673601Y-11784279D01*
X3672840Y-11788190D01*
X3670604Y-11791492D01*
X3667353Y-11793677D01*
X3663442Y-11794439D01*
X3644696Y-11794439D01*
X3636314Y-11795302D01*
X3628694Y-11797588D01*
X3621684Y-11801348D01*
X3615588Y-11806377D01*
X3610559Y-11812473D01*
X3606800Y-11819483D01*
X3604514Y-11827103D01*
X3603650Y-11835485D01*
X3603650Y-12256465D01*
X3604514Y-12264847D01*
X3606800Y-12272467D01*
X3610559Y-12279477D01*
X3615588Y-12285573D01*
X3621684Y-12290602D01*
X3628694Y-12294362D01*
X3636314Y-12296648D01*
X3644696Y-12297511D01*
X3856075Y-12297511D01*
X3864457Y-12296648D01*
X3872077Y-12294362D01*
X3879087Y-12290602D01*
X3885184Y-12285573D01*
X3890213Y-12279477D01*
X3893972Y-12272467D01*
X3896258Y-12264847D01*
X3897122Y-12256465D01*
X3897122Y-11835485D01*
X3896258Y-11827103D01*
X3893972Y-11819483D01*
X3890213Y-11812473D01*
X3885184Y-11806377D01*
X3879087Y-11801348D01*
X3872077Y-11797588D01*
X3864457Y-11795302D01*
X3856075Y-11794439D01*
X3821074Y-11794439D01*
X3817162Y-11793677D01*
X3813860Y-11791492D01*
X3811676Y-11788190D01*
X3810914Y-11784279D01*
X3810914Y-11771630D01*
X3810406Y-11763603D01*
X3810101Y-11761520D01*
X3808323Y-11753850D01*
X3804665Y-11744553D01*
X3803700Y-11742674D01*
X3798265Y-11734292D01*
X3792931Y-11728297D01*
X3743756Y-11679072D01*
X3741572Y-11675821D01*
X3740759Y-11671909D01*
X3741572Y-11667998D01*
X3743756Y-11664746D01*
X3814826Y-11593626D01*
X3820160Y-11587632D01*
X3825595Y-11579250D01*
X3826560Y-11577370D01*
X3830218Y-11568074D01*
X3832301Y-11558320D01*
X3832809Y-11550294D01*
X3832809Y-11328704D01*
X3833723Y-11324539D01*
X3836263Y-11321084D01*
X3840022Y-11319002D01*
X3845407Y-11317376D01*
X3852367Y-11313617D01*
X3858514Y-11308588D01*
X3863543Y-11302441D01*
X3867302Y-11295481D01*
X3869588Y-11287861D01*
X3870401Y-11279479D01*
X3870401Y-11185448D01*
X3869588Y-11177066D01*
X3867302Y-11169497D01*
X3863543Y-11162487D01*
X3858514Y-11156340D01*
X3852367Y-11151311D01*
X3845407Y-11147602D01*
X3837787Y-11145266D01*
X3829405Y-11144453D01*
X3715410Y-11144453D01*
X3707028Y-11145266D01*
X3699408Y-11147602D01*
X3692448Y-11151311D01*
X3686301Y-11156340D01*
X3681272Y-11162487D01*
X3677513Y-11169497D01*
X3675227Y-11177066D01*
X3674414Y-11185448D01*
X3674414Y-11279479D01*
X3675227Y-11287861D01*
X3677513Y-11295481D01*
X3681272Y-11302441D01*
X3686301Y-11308588D01*
X3692448Y-11313617D01*
X3699408Y-11317376D01*
X3704539Y-11318900D01*
X3708298Y-11320983D01*
X3710838Y-11324437D01*
X3711752Y-11328654D01*
X3711752Y-11344148D01*
X3710940Y-11348212D01*
X3708501Y-11351615D01*
X3704945Y-11353749D01*
X3700830Y-11354257D01*
X3696817Y-11353088D01*
X3693109Y-11351107D01*
X3685489Y-11348821D01*
X3677107Y-11348008D01*
X3670655Y-11348008D01*
X3670655Y-11408968D01*
X3701592Y-11408968D01*
X3705504Y-11409730D01*
X3708806Y-11411915D01*
X3710990Y-11415217D01*
X3711752Y-11419128D01*
X3711752Y-11465102D01*
X3710990Y-11468963D01*
X3708806Y-11472265D01*
X3705504Y-11474500D01*
X3701592Y-11475262D01*
X3670655Y-11475262D01*
X3670655Y-11536222D01*
X3676599Y-11536222D01*
X3680460Y-11536984D01*
X3683762Y-11539169D01*
X3685946Y-11542471D01*
X3686759Y-11546382D01*
X3685946Y-11550243D01*
X3683762Y-11553545D01*
X3662527Y-11574830D01*
X3659225Y-11577015D01*
X3655314Y-11577777D01*
X3624884Y-11577777D01*
X3616502Y-11578590D01*
X3605174Y-11582298D01*
X3601821Y-11582298D01*
X3598062Y-11580926D01*
X3590493Y-11578590D01*
X3582111Y-11577777D01*
X3529888Y-11577777D01*
X3521506Y-11578590D01*
X3510178Y-11582298D01*
X3506825Y-11582298D01*
X3503066Y-11580926D01*
X3495497Y-11578590D01*
X3487115Y-11577777D01*
X3434892Y-11577777D01*
X3426510Y-11578590D01*
X3418890Y-11580926D01*
X3411931Y-11584635D01*
X3405784Y-11589664D01*
X3400755Y-11595811D01*
X3396996Y-11602821D01*
X3393948Y-11612626D01*
X3394252Y-11615267D01*
X3393897Y-11618823D01*
X3393897Y-11649252D01*
X3393135Y-11653113D01*
X3390900Y-11656415D01*
X3376879Y-11670487D01*
X3373577Y-11672671D01*
X3369665Y-11673433D01*
X3305860Y-11673433D01*
X3305860Y-11737898D01*
X3305301Y-11741200D01*
X3303676Y-11744198D01*
X3301187Y-11747296D01*
X3297072Y-11753900D01*
X3293110Y-11763044D01*
X3290671Y-11772747D01*
X3289858Y-11784838D01*
X3288944Y-11788546D01*
X3286709Y-11791645D01*
X3283508Y-11793728D01*
X3279749Y-11794439D01*
X3244697Y-11794439D01*
X3236315Y-11795302D01*
X3228695Y-11797588D01*
X3221736Y-11801348D01*
X3215589Y-11806377D01*
X3210560Y-11812473D01*
X3206800Y-11819483D01*
X3204514Y-11827103D01*
X3203702Y-11835485D01*
X3203702Y-11860377D01*
X3202990Y-11864086D01*
X3201009Y-11867286D01*
X3197961Y-11869521D01*
X3194304Y-11870486D01*
X3190595Y-11870080D01*
X3182061Y-11867489D01*
X3173679Y-11866676D01*
X3146755Y-11866676D01*
X3146755Y-11936120D01*
X3193542Y-11936120D01*
X3197402Y-11936882D01*
X3200704Y-11939066D01*
X3202889Y-11942368D01*
X3203702Y-11946280D01*
X3203702Y-12009120D01*
X3202889Y-12013031D01*
X3200704Y-12016333D01*
X3197402Y-12018518D01*
X3193542Y-12019280D01*
X3146755Y-12019280D01*
X3146755Y-12056516D01*
X3145993Y-12060428D01*
X3143808Y-12063730D01*
X3140506Y-12065914D01*
X3136595Y-12066676D01*
X3082391Y-12066676D01*
X3078530Y-12065914D01*
X3075228Y-12063730D01*
X3069539Y-12058040D01*
X3067354Y-12054738D01*
X3066592Y-12050877D01*
X3066592Y-12019280D01*
X3034995Y-12019280D01*
X3031134Y-12018518D01*
X3027832Y-12016333D01*
X2921000Y-11909501D01*
X2918764Y-11906199D01*
X2918002Y-11902287D01*
X2918002Y-11716004D01*
X2918968Y-11711686D01*
X2921711Y-11708130D01*
X2925724Y-11706148D01*
X2930144Y-11706047D01*
X2934208Y-11707825D01*
X2937154Y-11711228D01*
X2940710Y-11717883D01*
X2945739Y-11724030D01*
X2951886Y-11729059D01*
X2958846Y-11732818D01*
X2966466Y-11735104D01*
X2974848Y-11735917D01*
X3002432Y-11735917D01*
X3002432Y-11673433D01*
X2928162Y-11673433D01*
X2924302Y-11672671D01*
X2921000Y-11670487D01*
X2918764Y-11667185D01*
X2918002Y-11663273D01*
X2918002Y-11614302D01*
X2918764Y-11610390D01*
X2921000Y-11607088D01*
X2924302Y-11604904D01*
X2928162Y-11604142D01*
X3002432Y-11604142D01*
X3002432Y-11546078D01*
X3003194Y-11542166D01*
X3005378Y-11538864D01*
X3008680Y-11536680D01*
X3012592Y-11535918D01*
X3073806Y-11535918D01*
X3077718Y-11536680D01*
X3080969Y-11538864D01*
X3083204Y-11542166D01*
X3083966Y-11546078D01*
X3083966Y-11604142D01*
X3224326Y-11604142D01*
X3224326Y-11546078D01*
X3225088Y-11542166D01*
X3227273Y-11538864D01*
X3230575Y-11536680D01*
X3234486Y-11535918D01*
X3295700Y-11535918D01*
X3299612Y-11536680D01*
X3302914Y-11538864D01*
X3305098Y-11542166D01*
X3305860Y-11546078D01*
X3305860Y-11604142D01*
X3374440Y-11604142D01*
X3374440Y-11582654D01*
X3373628Y-11574272D01*
X3371342Y-11566652D01*
X3367582Y-11559692D01*
X3362553Y-11553545D01*
X3356406Y-11548516D01*
X3354984Y-11547754D01*
X3351682Y-11544909D01*
X3349853Y-11540947D01*
X3349853Y-11536578D01*
X3351682Y-11532666D01*
X3354984Y-11529822D01*
X3356406Y-11529060D01*
X3362553Y-11524030D01*
X3367582Y-11517884D01*
X3371342Y-11510873D01*
X3374237Y-11501424D01*
X3375050Y-11499392D01*
X3377641Y-11495786D01*
X3381501Y-11493550D01*
X3385921Y-11493195D01*
X3390087Y-11494820D01*
X3393186Y-11498021D01*
X3394557Y-11502288D01*
X3394710Y-11503609D01*
X3396996Y-11511178D01*
X3400755Y-11518188D01*
X3405784Y-11524335D01*
X3411931Y-11529364D01*
X3418890Y-11533073D01*
X3426510Y-11535410D01*
X3434892Y-11536222D01*
X3487115Y-11536222D01*
X3495497Y-11535410D01*
X3506825Y-11531701D01*
X3510178Y-11531701D01*
X3513937Y-11533073D01*
X3521506Y-11535410D01*
X3529888Y-11536222D01*
X3536340Y-11536222D01*
X3536340Y-11475059D01*
X3533089Y-11473840D01*
X3530447Y-11471554D01*
X3528720Y-11468506D01*
X3528110Y-11465102D01*
X3528110Y-11419128D01*
X3528720Y-11415674D01*
X3530447Y-11412626D01*
X3533089Y-11410391D01*
X3536340Y-11409121D01*
X3536340Y-11348008D01*
X3529888Y-11348008D01*
X3521506Y-11348821D01*
X3510178Y-11352530D01*
X3506825Y-11352530D01*
X3503066Y-11351107D01*
X3495497Y-11348821D01*
X3487115Y-11348008D01*
X3434892Y-11348008D01*
X3426510Y-11348821D01*
X3418890Y-11351107D01*
X3411931Y-11354866D01*
X3405784Y-11359896D01*
X3400755Y-11366042D01*
X3396996Y-11373002D01*
X3393287Y-11385854D01*
X3390493Y-11389004D01*
X3386582Y-11390731D01*
X3382365Y-11390731D01*
X3378504Y-11389004D01*
X3375660Y-11385854D01*
X3374390Y-11381790D01*
X3373628Y-11374272D01*
X3371342Y-11366652D01*
X3367582Y-11359642D01*
X3362553Y-11353546D01*
X3356406Y-11348516D01*
X3349447Y-11344757D01*
X3341827Y-11342471D01*
X3333445Y-11341658D01*
X3326282Y-11341658D01*
X3322370Y-11340846D01*
X3319068Y-11338661D01*
X3316884Y-11335359D01*
X3316122Y-11331498D01*
X3316122Y-11327892D01*
X3317087Y-11323523D01*
X3319881Y-11319967D01*
X3323894Y-11317986D01*
X3335121Y-11315293D01*
X3349599Y-11309908D01*
X3363366Y-11302847D01*
X3376168Y-11294211D01*
X3387902Y-11284102D01*
X3398316Y-11272723D01*
X3407359Y-11260124D01*
X3414826Y-11246612D01*
X3420618Y-11232286D01*
X3424682Y-11217351D01*
X3426968Y-11202060D01*
X3427425Y-11186617D01*
X3426053Y-11171224D01*
X3422853Y-11156086D01*
X3417925Y-11141456D01*
X3411270Y-11127486D01*
X3403041Y-11114379D01*
X3393287Y-11102390D01*
X3382162Y-11091621D01*
X3369919Y-11082223D01*
X3356559Y-11074400D01*
X3342436Y-11068151D01*
X3327654Y-11063630D01*
X3312414Y-11060887D01*
X3297021Y-11059972D01*
X3281578Y-11060887D01*
X3266338Y-11063630D01*
X3253740Y-11067491D01*
X3250133Y-11067897D01*
X3246628Y-11067034D01*
X3243630Y-11064951D01*
X3168599Y-10989919D01*
X3166414Y-10986668D01*
X3165602Y-10982807D01*
X3166618Y-10978286D01*
X3170682Y-10963351D01*
X3172968Y-10948060D01*
X3173425Y-10932617D01*
X3172053Y-10917224D01*
X3168853Y-10902086D01*
X3163925Y-10887456D01*
X3157270Y-10873486D01*
X3149041Y-10860379D01*
X3139287Y-10848390D01*
X3128162Y-10837621D01*
X3115919Y-10828223D01*
X3102559Y-10820400D01*
X3088436Y-10814151D01*
X3073654Y-10809630D01*
X3058414Y-10806887D01*
X3043021Y-10805972D01*
X3027578Y-10806887D01*
X3012338Y-10809630D01*
X2997555Y-10814151D01*
X2983433Y-10820400D01*
X2970072Y-10828223D01*
X2957830Y-10837621D01*
X2946704Y-10848390D01*
X2936951Y-10860379D01*
X2928721Y-10873486D01*
X2922066Y-10887456D01*
X2917139Y-10902086D01*
X2913938Y-10917224D01*
X2912668Y-10931499D01*
X2911602Y-10935157D01*
X2909265Y-10938205D01*
X2906014Y-10940135D01*
X2902254Y-10940745D01*
X2898495Y-10939932D01*
X2895346Y-10937798D01*
X2502306Y-10544759D01*
X2500122Y-10541457D01*
X2499360Y-10537545D01*
X2499360Y-10469321D01*
X2462123Y-10469321D01*
X2458212Y-10468559D01*
X2454910Y-10466374D01*
X2452725Y-10463072D01*
X2451963Y-10459161D01*
X2451963Y-10399318D01*
X2452725Y-10395407D01*
X2454910Y-10392105D01*
X2458212Y-10389920D01*
X2462123Y-10389158D01*
X2499360Y-10389158D01*
X2499360Y-10279075D01*
X2462123Y-10279075D01*
X2458212Y-10278313D01*
X2454910Y-10276128D01*
X2452725Y-10272826D01*
X2451963Y-10268915D01*
X2451963Y-10209072D01*
X2452725Y-10205161D01*
X2454910Y-10201859D01*
X2458212Y-10199674D01*
X2462123Y-10198912D01*
X2499360Y-10198912D01*
X2499360Y-10166451D01*
X2500122Y-10162540D01*
X2502306Y-10159288D01*
X2505608Y-10157053D01*
X2509520Y-10156291D01*
X2530297Y-10156291D01*
X2538679Y-10155478D01*
X2546299Y-10153142D01*
X2553258Y-10149433D01*
X2559405Y-10144404D01*
X2564536Y-10138156D01*
X2567736Y-10135565D01*
X2571699Y-10134447D01*
X2575814Y-10135006D01*
X2579319Y-10137190D01*
X2581706Y-10140543D01*
X2582519Y-10144607D01*
X2582519Y-10198912D01*
X2651963Y-10198912D01*
X2651963Y-10171988D01*
X2651150Y-10163606D01*
X2648813Y-10155986D01*
X2645105Y-10149027D01*
X2640076Y-10142880D01*
X2633929Y-10137851D01*
X2626918Y-10134092D01*
X2619349Y-10131806D01*
X2610967Y-10130993D01*
X2580995Y-10130993D01*
X2576880Y-10130129D01*
X2573426Y-10127640D01*
X2571343Y-10123982D01*
X2570886Y-10119817D01*
X2571292Y-10115296D01*
X2571292Y-10086594D01*
X2572105Y-10082682D01*
X2574290Y-10079380D01*
X2611780Y-10041890D01*
X2618333Y-10034219D01*
X2622499Y-10027513D01*
X2623464Y-10025634D01*
X2626512Y-10018318D01*
X2628950Y-10008616D01*
X2629712Y-9998557D01*
X2629712Y-9786874D01*
X2630627Y-9782657D01*
X2633167Y-9779203D01*
X2636926Y-9777120D01*
X2644800Y-9774732D01*
X2651810Y-9771024D01*
X2657957Y-9765995D01*
X2662986Y-9759848D01*
X2666695Y-9752838D01*
X2669032Y-9745268D01*
X2669844Y-9736886D01*
X2669844Y-9600184D01*
X2669032Y-9591751D01*
X2666695Y-9584182D01*
X2660853Y-9573361D01*
X2660446Y-9569450D01*
X2661615Y-9565640D01*
X2663240Y-9562592D01*
X2665526Y-9555022D01*
X2666339Y-9546640D01*
X2666339Y-9519056D01*
X2603906Y-9519056D01*
X2603906Y-9548977D01*
X2603093Y-9552889D01*
X2600909Y-9556191D01*
X2597607Y-9558375D01*
X2593746Y-9559137D01*
X2544724Y-9559137D01*
X2540812Y-9558375D01*
X2537510Y-9556191D01*
X2535326Y-9552889D01*
X2534564Y-9548977D01*
X2534564Y-9519056D01*
X2483256Y-9519056D01*
X2479395Y-9518294D01*
X2476093Y-9516059D01*
X2473858Y-9512808D01*
X2473096Y-9508896D01*
X2473096Y-9447682D01*
X2473858Y-9443770D01*
X2476093Y-9440468D01*
X2479395Y-9438284D01*
X2483256Y-9437522D01*
X2534564Y-9437522D01*
X2534564Y-9368942D01*
X2513076Y-9368942D01*
X2504694Y-9369755D01*
X2497124Y-9372041D01*
X2490114Y-9375800D01*
X2483967Y-9380829D01*
X2480462Y-9385147D01*
X2476957Y-9387840D01*
X2472588Y-9388856D01*
X2468270Y-9387840D01*
X2464765Y-9385147D01*
X2461209Y-9380829D01*
X2455062Y-9375800D01*
X2448102Y-9372041D01*
X2440482Y-9369755D01*
X2436368Y-9369348D01*
X2432812Y-9368282D01*
X2429865Y-9366046D01*
X2427884Y-9362846D01*
X2427224Y-9359188D01*
X2427630Y-9187230D01*
X2428392Y-9183471D01*
X2430475Y-9180220D01*
X2448204Y-9169450D01*
X2460091Y-9160103D01*
X2470810Y-9149384D01*
X2480157Y-9137446D01*
X2487980Y-9124492D01*
X2494635Y-9109710D01*
X2496820Y-9106560D01*
X2496566Y-9105595D01*
X2496972Y-9101836D01*
X2498750Y-9096197D01*
X2501493Y-9081312D01*
X2502408Y-9066174D01*
X2501493Y-9051036D01*
X2498750Y-9036151D01*
X2496972Y-9030512D01*
X2496566Y-9026753D01*
X2496820Y-9025788D01*
X2494635Y-9022689D01*
X2487980Y-9007856D01*
X2480157Y-8994902D01*
X2470810Y-8982964D01*
X2460091Y-8972245D01*
X2448204Y-8962898D01*
X2435199Y-8955074D01*
X2421382Y-8948826D01*
X2406904Y-8944356D01*
X2392019Y-8941612D01*
X2376881Y-8940698D01*
X2361742Y-8941612D01*
X2346858Y-8944356D01*
X2332380Y-8948826D01*
X2318562Y-8955074D01*
X2305608Y-8962898D01*
X2293670Y-8972245D01*
X2282952Y-8982964D01*
X2273604Y-8994902D01*
X2265781Y-9007856D01*
X2259533Y-9021673D01*
X2255062Y-9036151D01*
X2252319Y-9051036D01*
X2251405Y-9066174D01*
X2252319Y-9081312D01*
X2255062Y-9096197D01*
X2259533Y-9110675D01*
X2265781Y-9124492D01*
X2273604Y-9137446D01*
X2282952Y-9149384D01*
X2293670Y-9160103D01*
X2305608Y-9169450D01*
X2322779Y-9180017D01*
X2324912Y-9183268D01*
X2325624Y-9187078D01*
X2325217Y-9359188D01*
X2324506Y-9362846D01*
X2322576Y-9365996D01*
X2319578Y-9368282D01*
X2316022Y-9369298D01*
X2311450Y-9369755D01*
X2303881Y-9372041D01*
X2296871Y-9375800D01*
X2290724Y-9380829D01*
X2285695Y-9386925D01*
X2281936Y-9393936D01*
X2279650Y-9401556D01*
X2278837Y-9409938D01*
X2278837Y-9417100D01*
X2278075Y-9421012D01*
X2275840Y-9424314D01*
X2272538Y-9426498D01*
X2268677Y-9427260D01*
X2236317Y-9427260D01*
X2231644Y-9427464D01*
X2227224Y-9428073D01*
X2222906Y-9429038D01*
X2218639Y-9430359D01*
X2214524Y-9432086D01*
X2210562Y-9434118D01*
X2206853Y-9436506D01*
X2203297Y-9439198D01*
X2199843Y-9442399D01*
X2186990Y-9455251D01*
X2183688Y-9457436D01*
X2179777Y-9458248D01*
X2090674Y-9458248D01*
X2082241Y-9459061D01*
X2074672Y-9461347D01*
X2067661Y-9465106D01*
X2061514Y-9470136D01*
X2056485Y-9476282D01*
X2052777Y-9483242D01*
X2050440Y-9490862D01*
X2049627Y-9499244D01*
X2049627Y-9611512D01*
X2050440Y-9619894D01*
X2052777Y-9627463D01*
X2056485Y-9634474D01*
X2061514Y-9640620D01*
X2065832Y-9644126D01*
X2068575Y-9647631D01*
X2069541Y-9652000D01*
X2068575Y-9656368D01*
X2065832Y-9659874D01*
X2061514Y-9663379D01*
X2056485Y-9669526D01*
X2052777Y-9676536D01*
X2050440Y-9684105D01*
X2050034Y-9688677D01*
X2049068Y-9692030D01*
X2047087Y-9694824D01*
X2044293Y-9696856D01*
X2040940Y-9697770D01*
X2034743Y-9698431D01*
X2030577Y-9699345D01*
X2026310Y-9700717D01*
X2022195Y-9702393D01*
X2018233Y-9704476D01*
X2014524Y-9706864D01*
X2010968Y-9709556D01*
X2007514Y-9712706D01*
X1910334Y-9809886D01*
X1907489Y-9811918D01*
X1904136Y-9812832D01*
X1899107Y-9813340D01*
X1891538Y-9815626D01*
X1884527Y-9819335D01*
X1878380Y-9824415D01*
X1873351Y-9830511D01*
X1869643Y-9837521D01*
X1867306Y-9845090D01*
X1866493Y-9853523D01*
X1866493Y-9952482D01*
X1867306Y-9960914D01*
X1869643Y-9968484D01*
X1873351Y-9975494D01*
X1878380Y-9981590D01*
X1884527Y-9986670D01*
X1891538Y-9990378D01*
X1899107Y-9992664D01*
X1907489Y-9993528D01*
X1966518Y-9993528D01*
X1974900Y-9992664D01*
X1981555Y-9990683D01*
X1984502Y-9990226D01*
X1987448Y-9990683D01*
X1994103Y-9992715D01*
X2002485Y-9993528D01*
X2010664Y-9993528D01*
X2010664Y-9931552D01*
X2008327Y-9928199D01*
X2007514Y-9924186D01*
X2007514Y-9881819D01*
X2008327Y-9877806D01*
X2010664Y-9874504D01*
X2010664Y-9858095D01*
X2011425Y-9854184D01*
X2013610Y-9850882D01*
X2036013Y-9828530D01*
X2039315Y-9826294D01*
X2043175Y-9825532D01*
X2047087Y-9826294D01*
X2050389Y-9828530D01*
X2052574Y-9831832D01*
X2053336Y-9835692D01*
X2053336Y-9874504D01*
X2055672Y-9877806D01*
X2056485Y-9881819D01*
X2056485Y-9924186D01*
X2055672Y-9928199D01*
X2053336Y-9931552D01*
X2053336Y-9998811D01*
X2052574Y-10002672D01*
X2050389Y-10005974D01*
X1996084Y-10060279D01*
X1992934Y-10063734D01*
X1988616Y-10069728D01*
X1985568Y-10072827D01*
X1981454Y-10074351D01*
X1977136Y-10073995D01*
X1974900Y-10073335D01*
X1966468Y-10072471D01*
X1907489Y-10072471D01*
X1899107Y-10073335D01*
X1891487Y-10075621D01*
X1884527Y-10079380D01*
X1878380Y-10084409D01*
X1873351Y-10090505D01*
X1869592Y-10097516D01*
X1867306Y-10105085D01*
X1866493Y-10113518D01*
X1866493Y-10212527D01*
X1867306Y-10220909D01*
X1869592Y-10228478D01*
X1873351Y-10235488D01*
X1878380Y-10241635D01*
X1882292Y-10244836D01*
X1885035Y-10248341D01*
X1886000Y-10252659D01*
X1886000Y-10674146D01*
X1885238Y-10678058D01*
X1883003Y-10681360D01*
X1767941Y-10796422D01*
X1764690Y-10798606D01*
X1760829Y-10799368D01*
X1756308Y-10798403D01*
X1741373Y-10794288D01*
X1726082Y-10792002D01*
X1710639Y-10791545D01*
X1695246Y-10792917D01*
X1680108Y-10796117D01*
X1665478Y-10801096D01*
X1651507Y-10807700D01*
X1638401Y-10815980D01*
X1626412Y-10825734D01*
X1615643Y-10836808D01*
X1606245Y-10849102D01*
X1598422Y-10862411D01*
X1593951Y-10872520D01*
X1591716Y-10875721D01*
X1588414Y-10877854D01*
X1584502Y-10878566D01*
X1580692Y-10877753D01*
X1577441Y-10875568D01*
X1575257Y-10872266D01*
X1574495Y-10868406D01*
X1574495Y-9236506D01*
X1575409Y-9232290D01*
X1578000Y-9228836D01*
X1581810Y-9226753D01*
X1586077Y-9226448D01*
X1590141Y-9227972D01*
X1593189Y-9231020D01*
X1603756Y-9247428D01*
X1618132Y-9266224D01*
X1634032Y-9283801D01*
X1651254Y-9300057D01*
X1669796Y-9314840D01*
X1689455Y-9328048D01*
X1710182Y-9339630D01*
X1710182Y-9211868D01*
X1584655Y-9211868D01*
X1580743Y-9211106D01*
X1577492Y-9208871D01*
X1575257Y-9205569D01*
X1574495Y-9201708D01*
X1574495Y-8959342D01*
X1575257Y-8955430D01*
X1577492Y-8952128D01*
X1580743Y-8949944D01*
X1584655Y-8949182D01*
X1710182Y-8949182D01*
X1710131Y-8821420D01*
X1689455Y-8832951D01*
X1669796Y-8846210D01*
X1651254Y-8860942D01*
X1634032Y-8877198D01*
X1618132Y-8894775D01*
X1603756Y-8913622D01*
X1593189Y-8929979D01*
X1590141Y-8933078D01*
X1586077Y-8934551D01*
X1581810Y-8934246D01*
X1578000Y-8932164D01*
X1575409Y-8928709D01*
X1574495Y-8924493D01*
X1574495Y-8760155D01*
X1575257Y-8756243D01*
X1577492Y-8752992D01*
X1580743Y-8750757D01*
X1584655Y-8749995D01*
X1780032Y-8749944D01*
X1789023Y-8748725D01*
X1797659Y-8745880D01*
X1805635Y-8741511D01*
X1811223Y-8737041D01*
X1815541Y-8732723D01*
X1820976Y-8725611D01*
X1825091Y-8717483D01*
X1827174Y-8710676D01*
X1827733Y-8707831D01*
X1828952Y-8704529D01*
X1831238Y-8701836D01*
X1834235Y-8700109D01*
X1837689Y-8699500D01*
X3686810Y-8699500D01*
X3690264Y-8700109D01*
X3693261Y-8701836D01*
X3695547Y-8704529D01*
X3696766Y-8707831D01*
X3697325Y-8710676D01*
X3700119Y-8719159D01*
X3704488Y-8727135D01*
X3708958Y-8732723D01*
X3713276Y-8737041D01*
X3720388Y-8742476D01*
X3728516Y-8746591D01*
X3737203Y-8749080D01*
X3744468Y-8749944D01*
X3939844Y-8749995D01*
X3943756Y-8750757D01*
X3947007Y-8752992D01*
X3949242Y-8756243D01*
X3950004Y-8760155D01*
X3950004Y-8924594D01*
X3949039Y-8928862D01*
X3946398Y-8932367D01*
X3942486Y-8934399D01*
X3938117Y-8934602D01*
X3934053Y-8932926D01*
X3931056Y-8929725D01*
X3927398Y-8923477D01*
X3913784Y-8904071D01*
X3898646Y-8885834D01*
X3882034Y-8868918D01*
X3864152Y-8853373D01*
X3845001Y-8839352D01*
X3824833Y-8826957D01*
X3814368Y-8821674D01*
X3814368Y-8949182D01*
X3939844Y-8949182D01*
X3943756Y-8949944D01*
X3947007Y-8952128D01*
X3949242Y-8955430D01*
X3950004Y-8959342D01*
X3950004Y-9201708D01*
X3949242Y-9205569D01*
X3947007Y-9208871D01*
X3943756Y-9211106D01*
X3939844Y-9211868D01*
X3814368Y-9211868D01*
X3814368Y-9339376D01*
X3824833Y-9334042D01*
X3845001Y-9321647D01*
X3864152Y-9307626D01*
X3882034Y-9292132D01*
X3898646Y-9275165D01*
X3913784Y-9256979D01*
X3927398Y-9237573D01*
X3931056Y-9231274D01*
X3934053Y-9228074D01*
X3938117Y-9226397D01*
X3942486Y-9226651D01*
X3946398Y-9228683D01*
X3949039Y-9232138D01*
X3950004Y-9236456D01*
X3950004Y-13941094D01*
X3949039Y-13945362D01*
X3946398Y-13948867D01*
X3942486Y-13950899D01*
X3938117Y-13951102D01*
X3934053Y-13949426D01*
X3931056Y-13946225D01*
X3927398Y-13939977D01*
X3913784Y-13920571D01*
X3898646Y-13902334D01*
X3882034Y-13885418D01*
X3864152Y-13869873D01*
X3845001Y-13855852D01*
X3824833Y-13843457D01*
X3814368Y-13838174D01*
X3814368Y-13965682D01*
X3939844Y-13965682D01*
X3943756Y-13966444D01*
X3947007Y-13968628D01*
X3949242Y-13971930D01*
X3950004Y-13975842D01*
X3950004Y-14218208D01*
X3949242Y-14222069D01*
X3947007Y-14225371D01*
X3943756Y-14227606D01*
X3939844Y-14228368D01*
X3814368Y-14228368D01*
X3814368Y-14353844D01*
X3813606Y-14357756D01*
X3811371Y-14361007D01*
X3808069Y-14363242D01*
X3804208Y-14364004D01*
X3561842Y-14364004D01*
X3557930Y-14363242D01*
X3554628Y-14361007D01*
X3552444Y-14357756D01*
X3551682Y-14353844D01*
X3551682Y-14228368D01*
X3424123Y-14228368D01*
X3432403Y-14243964D01*
X3445256Y-14263928D01*
X3459632Y-14282724D01*
X3475532Y-14300301D01*
X3492754Y-14316557D01*
X3511296Y-14331340D01*
X3530955Y-14344548D01*
X3535019Y-14347901D01*
X3536746Y-14351965D01*
X3536594Y-14356384D01*
X3534613Y-14360347D01*
X3531108Y-14363039D01*
X3526790Y-14364004D01*
X1997354Y-14364004D01*
X1993138Y-14363090D01*
X1989632Y-14360448D01*
X1987600Y-14356588D01*
X1987346Y-14352269D01*
X1988921Y-14348206D01*
X1992071Y-14345208D01*
X2003501Y-14338147D01*
X2022652Y-14324126D01*
X2040534Y-14308632D01*
X2057146Y-14291665D01*
X2072284Y-14273479D01*
X2085898Y-14254073D01*
X2097887Y-14233601D01*
X2100427Y-14228368D01*
X1972868Y-14228368D01*
X1972868Y-14353844D01*
X1972106Y-14357756D01*
X1969871Y-14361007D01*
X1966569Y-14363242D01*
X1962708Y-14364004D01*
G37*

%LPC*%
G36*
X2836062Y-14284451D02*
G01*
X2836062Y-14217904D01*
X2769565Y-14217904D01*
X2773781Y-14227403D01*
X2781604Y-14240357D01*
X2790952Y-14252295D01*
X2801670Y-14263014D01*
X2813608Y-14272361D01*
X2826562Y-14280184D01*
G37*
G36*
X2933750Y-14284451D02*
G01*
X2943199Y-14280184D01*
X2956204Y-14272361D01*
X2968091Y-14263014D01*
X2978810Y-14252295D01*
X2988157Y-14240357D01*
X2995980Y-14227403D01*
X3000248Y-14217904D01*
X2933750Y-14217904D01*
G37*
G36*
X2769565Y-14120215D02*
G01*
X2836062Y-14120215D01*
X2836062Y-14053667D01*
X2826562Y-14057934D01*
X2813608Y-14065808D01*
X2801670Y-14075156D01*
X2790952Y-14085874D01*
X2781604Y-14097762D01*
X2773781Y-14110716D01*
G37*
G36*
X1972868Y-13965682D02*
G01*
X2100427Y-13965682D01*
X2097887Y-13960398D01*
X2085898Y-13939977D01*
X2072284Y-13920571D01*
X2057146Y-13902334D01*
X2040534Y-13885418D01*
X2022652Y-13869873D01*
X2003501Y-13855852D01*
X1983333Y-13843457D01*
X1972868Y-13838174D01*
G37*
G36*
X3424123Y-13965682D02*
G01*
X3551682Y-13965682D01*
X3551631Y-13837919D01*
X3530955Y-13849451D01*
X3511296Y-13862710D01*
X3492754Y-13877442D01*
X3475532Y-13893698D01*
X3459632Y-13911275D01*
X3445256Y-13930122D01*
X3432403Y-13950035D01*
G37*
G36*
X3501745Y-13485926D02*
G01*
X3530193Y-13485926D01*
X3538575Y-13485113D01*
X3546144Y-13482828D01*
X3553155Y-13479068D01*
X3559301Y-13474039D01*
X3564331Y-13467892D01*
X3568039Y-13460933D01*
X3570376Y-13453313D01*
X3571189Y-13444931D01*
X3571189Y-13418007D01*
X3501745Y-13418007D01*
G37*
G36*
X3501745Y-13337844D02*
G01*
X3571189Y-13337844D01*
X3571189Y-13310920D01*
X3570376Y-13302538D01*
X3568039Y-13294918D01*
X3564077Y-13287451D01*
X3563010Y-13284352D01*
X3563010Y-13280999D01*
X3564077Y-13277900D01*
X3568039Y-13270433D01*
X3570376Y-13262813D01*
X3571189Y-13254431D01*
X3571189Y-13227507D01*
X3501745Y-13227507D01*
G37*
G36*
X2894787Y-13249097D02*
G01*
X2919222Y-13249097D01*
X2927604Y-13248284D01*
X2935173Y-13245998D01*
X2942183Y-13242239D01*
X2948330Y-13237210D01*
X2953359Y-13231063D01*
X2957118Y-13224103D01*
X2959404Y-13216483D01*
X2960217Y-13208101D01*
X2960217Y-13189966D01*
X2894787Y-13189966D01*
G37*
G36*
X2794508Y-13249046D02*
G01*
X2819603Y-13249046D01*
X2819603Y-13189966D01*
X2754172Y-13189966D01*
X2754172Y-13208101D01*
X2755036Y-13216483D01*
X2757322Y-13224103D01*
X2761081Y-13231063D01*
X2766110Y-13237210D01*
X2772206Y-13242239D01*
X2779217Y-13245998D01*
X2786837Y-13248284D01*
G37*
G36*
X3501745Y-13147344D02*
G01*
X3571189Y-13147344D01*
X3571189Y-13120420D01*
X3570376Y-13112038D01*
X3568039Y-13104418D01*
X3564077Y-13096951D01*
X3563010Y-13093852D01*
X3563010Y-13090499D01*
X3564077Y-13087400D01*
X3568039Y-13079933D01*
X3570376Y-13072313D01*
X3571189Y-13063931D01*
X3571189Y-13037007D01*
X3501745Y-13037007D01*
G37*
G36*
X3501745Y-12956844D02*
G01*
X3571189Y-12956844D01*
X3571189Y-12929920D01*
X3570376Y-12921538D01*
X3568039Y-12913918D01*
X3564331Y-12906959D01*
X3559301Y-12900812D01*
X3553155Y-12895783D01*
X3546144Y-12892024D01*
X3538575Y-12889738D01*
X3530193Y-12888925D01*
X3501745Y-12888925D01*
G37*
G36*
X2998673Y-11936120D02*
G01*
X3066592Y-11936120D01*
X3066592Y-11866676D01*
X3039668Y-11866676D01*
X3031286Y-11867489D01*
X3023666Y-11869826D01*
X3016707Y-11873534D01*
X3010560Y-11878564D01*
X3005531Y-11884710D01*
X3001772Y-11891721D01*
X2999486Y-11899290D01*
X2998673Y-11907672D01*
G37*
G36*
X3083966Y-11735917D02*
G01*
X3111550Y-11735917D01*
X3119932Y-11735104D01*
X3127552Y-11732818D01*
X3134512Y-11729059D01*
X3140659Y-11724030D01*
X3146298Y-11717172D01*
X3149803Y-11714429D01*
X3154121Y-11713464D01*
X3158490Y-11714429D01*
X3161995Y-11717172D01*
X3167634Y-11724030D01*
X3173780Y-11729059D01*
X3180740Y-11732818D01*
X3188360Y-11735104D01*
X3196742Y-11735917D01*
X3224326Y-11735917D01*
X3224326Y-11673433D01*
X3083966Y-11673433D01*
G37*
G36*
X3575659Y-11536222D02*
G01*
X3582111Y-11536222D01*
X3590493Y-11535410D01*
X3601821Y-11531701D01*
X3605174Y-11531701D01*
X3608933Y-11533073D01*
X3616502Y-11535410D01*
X3624884Y-11536222D01*
X3631336Y-11536222D01*
X3631336Y-11475262D01*
X3575659Y-11475262D01*
G37*
G36*
X3575659Y-11408968D02*
G01*
X3631336Y-11408968D01*
X3631336Y-11348008D01*
X3624884Y-11348008D01*
X3616502Y-11348821D01*
X3605174Y-11352530D01*
X3601821Y-11352530D01*
X3598062Y-11351107D01*
X3590493Y-11348821D01*
X3582111Y-11348008D01*
X3575659Y-11348008D01*
G37*
G36*
X3715410Y-10981994D02*
G01*
X3829405Y-10981994D01*
X3837787Y-10981182D01*
X3845407Y-10978845D01*
X3852367Y-10975136D01*
X3858514Y-10970107D01*
X3863543Y-10963960D01*
X3867302Y-10956950D01*
X3869588Y-10949381D01*
X3870401Y-10940999D01*
X3870401Y-10846968D01*
X3869588Y-10838586D01*
X3867302Y-10830966D01*
X3863543Y-10824006D01*
X3858514Y-10817860D01*
X3852367Y-10812830D01*
X3845407Y-10809071D01*
X3840022Y-10807446D01*
X3836263Y-10805363D01*
X3833723Y-10801908D01*
X3832809Y-10797743D01*
X3832809Y-10537952D01*
X3833469Y-10534294D01*
X3835450Y-10531094D01*
X3838397Y-10528858D01*
X3841953Y-10527842D01*
X3849014Y-10527131D01*
X3856634Y-10524794D01*
X3863644Y-10521086D01*
X3869740Y-10516057D01*
X3874770Y-10509910D01*
X3878529Y-10502900D01*
X3880815Y-10495330D01*
X3881678Y-10486948D01*
X3881678Y-10374680D01*
X3880815Y-10366298D01*
X3878529Y-10358678D01*
X3874770Y-10351719D01*
X3869740Y-10345572D01*
X3865473Y-10342016D01*
X3862730Y-10338511D01*
X3861714Y-10334193D01*
X3862730Y-10329824D01*
X3865473Y-10326319D01*
X3869740Y-10322814D01*
X3874770Y-10316667D01*
X3878529Y-10309656D01*
X3880815Y-10302087D01*
X3881678Y-10293705D01*
X3881678Y-10181437D01*
X3880815Y-10173055D01*
X3878529Y-10165435D01*
X3874770Y-10158425D01*
X3869740Y-10152329D01*
X3863644Y-10147300D01*
X3856634Y-10143540D01*
X3849014Y-10141254D01*
X3840632Y-10140391D01*
X3806240Y-10140391D01*
X3801922Y-10139426D01*
X3798417Y-10136682D01*
X3796385Y-10132720D01*
X3796284Y-10128250D01*
X3798112Y-10124186D01*
X3801465Y-10121290D01*
X3806901Y-10118394D01*
X3813048Y-10113365D01*
X3818077Y-10107218D01*
X3821785Y-10100259D01*
X3824122Y-10092639D01*
X3824935Y-10084257D01*
X3824935Y-9950246D01*
X3824122Y-9941864D01*
X3821785Y-9934244D01*
X3818077Y-9927285D01*
X3813048Y-9921138D01*
X3806901Y-9916109D01*
X3799890Y-9912350D01*
X3792321Y-9910064D01*
X3786428Y-9909505D01*
X3782974Y-9908540D01*
X3780078Y-9906406D01*
X3778097Y-9903460D01*
X3777284Y-9900005D01*
X3776522Y-9890048D01*
X3774084Y-9880346D01*
X3771036Y-9873030D01*
X3765905Y-9864496D01*
X3759352Y-9856774D01*
X3726129Y-9823551D01*
X3723944Y-9820300D01*
X3723132Y-9816388D01*
X3723132Y-9740696D01*
X3722319Y-9732264D01*
X3720033Y-9724694D01*
X3716274Y-9717684D01*
X3711244Y-9711588D01*
X3706926Y-9708032D01*
X3704234Y-9704527D01*
X3703218Y-9700158D01*
X3704234Y-9695840D01*
X3706926Y-9692335D01*
X3711244Y-9688779D01*
X3716274Y-9682683D01*
X3720033Y-9675672D01*
X3722319Y-9668052D01*
X3723132Y-9659670D01*
X3723132Y-9547402D01*
X3722319Y-9539020D01*
X3720033Y-9531451D01*
X3716274Y-9524441D01*
X3711244Y-9518294D01*
X3705148Y-9513265D01*
X3698138Y-9509556D01*
X3690518Y-9507220D01*
X3682136Y-9506407D01*
X3545433Y-9506407D01*
X3537051Y-9507220D01*
X3529482Y-9509556D01*
X3522472Y-9513265D01*
X3516325Y-9518294D01*
X3511296Y-9524441D01*
X3507536Y-9531451D01*
X3506215Y-9535820D01*
X3504133Y-9539579D01*
X3500678Y-9542119D01*
X3496513Y-9543034D01*
X3478326Y-9543034D01*
X3474465Y-9542272D01*
X3471164Y-9540087D01*
X3468928Y-9536785D01*
X3468166Y-9532874D01*
X3468166Y-9530232D01*
X3467354Y-9521850D01*
X3465068Y-9514281D01*
X3461308Y-9507270D01*
X3456279Y-9501124D01*
X3450132Y-9496094D01*
X3443173Y-9492386D01*
X3435553Y-9490049D01*
X3427171Y-9489236D01*
X3293160Y-9489236D01*
X3284778Y-9490049D01*
X3277158Y-9492386D01*
X3270199Y-9496094D01*
X3264052Y-9501124D01*
X3259023Y-9507270D01*
X3258108Y-9508947D01*
X3255314Y-9512249D01*
X3251352Y-9514078D01*
X3246983Y-9514078D01*
X3243021Y-9512249D01*
X3240227Y-9508947D01*
X3239312Y-9507270D01*
X3234283Y-9501124D01*
X3228136Y-9496094D01*
X3221177Y-9492386D01*
X3213557Y-9490049D01*
X3207969Y-9489541D01*
X3204413Y-9488474D01*
X3201466Y-9486239D01*
X3199485Y-9483090D01*
X3198825Y-9479432D01*
X3198825Y-9201861D01*
X3199587Y-9197949D01*
X3201771Y-9194647D01*
X3205073Y-9192463D01*
X3208985Y-9191701D01*
X3223412Y-9191701D01*
X3231794Y-9190888D01*
X3239363Y-9188551D01*
X3246374Y-9184843D01*
X3252520Y-9179814D01*
X3257550Y-9173667D01*
X3261258Y-9166656D01*
X3263595Y-9159087D01*
X3264408Y-9150705D01*
X3264408Y-8981694D01*
X3263595Y-8973312D01*
X3261258Y-8965692D01*
X3257550Y-8958681D01*
X3252520Y-8952585D01*
X3246374Y-8947556D01*
X3239363Y-8943797D01*
X3231794Y-8941511D01*
X3223412Y-8940647D01*
X3054400Y-8940647D01*
X3046018Y-8941511D01*
X3038398Y-8943797D01*
X3031388Y-8947556D01*
X3025292Y-8952585D01*
X3020263Y-8958681D01*
X3016504Y-8965692D01*
X3014218Y-8973312D01*
X3013405Y-8981694D01*
X3013405Y-9000134D01*
X3012440Y-9004401D01*
X3009798Y-9007906D01*
X3005937Y-9009938D01*
X3001568Y-9010192D01*
X2997555Y-9008567D01*
X2994507Y-9005417D01*
X2988157Y-8994902D01*
X2978810Y-8982964D01*
X2968091Y-8972245D01*
X2956204Y-8962898D01*
X2943199Y-8955074D01*
X2933750Y-8950807D01*
X2933750Y-9017355D01*
X3003245Y-9017355D01*
X3007106Y-9018117D01*
X3010408Y-9020302D01*
X3012592Y-9023604D01*
X3013405Y-9027515D01*
X3013405Y-9104884D01*
X3012592Y-9108744D01*
X3010408Y-9112046D01*
X3007106Y-9114282D01*
X3003245Y-9115044D01*
X2933750Y-9115044D01*
X2933750Y-9181541D01*
X2943199Y-9177324D01*
X2956204Y-9169450D01*
X2968091Y-9160103D01*
X2978810Y-9149384D01*
X2988157Y-9137446D01*
X2994507Y-9126982D01*
X2997555Y-9123781D01*
X3001568Y-9122206D01*
X3005937Y-9122410D01*
X3009798Y-9124492D01*
X3012440Y-9127947D01*
X3013405Y-9132214D01*
X3013405Y-9150705D01*
X3014218Y-9159087D01*
X3016504Y-9166656D01*
X3020263Y-9173667D01*
X3025292Y-9179814D01*
X3031388Y-9184843D01*
X3038398Y-9188551D01*
X3046018Y-9190888D01*
X3054400Y-9191701D01*
X3067608Y-9191701D01*
X3071520Y-9192463D01*
X3074822Y-9194647D01*
X3077006Y-9197949D01*
X3077768Y-9201861D01*
X3077768Y-9479381D01*
X3077108Y-9483039D01*
X3075127Y-9486188D01*
X3072180Y-9488474D01*
X3068624Y-9489490D01*
X3062782Y-9490049D01*
X3055162Y-9492386D01*
X3048203Y-9496094D01*
X3042056Y-9501124D01*
X3037027Y-9507270D01*
X3033268Y-9514281D01*
X3030982Y-9521850D01*
X3030169Y-9530232D01*
X3030169Y-9670237D01*
X3030982Y-9678670D01*
X3033268Y-9686239D01*
X3039211Y-9696856D01*
X3039821Y-9700260D01*
X3039211Y-9703663D01*
X3037027Y-9707270D01*
X3033268Y-9714280D01*
X3030982Y-9721850D01*
X3030169Y-9730282D01*
X3030169Y-9758680D01*
X3098088Y-9758680D01*
X3098088Y-9721443D01*
X3098850Y-9717532D01*
X3101035Y-9714230D01*
X3104337Y-9712045D01*
X3108248Y-9711283D01*
X3168091Y-9711283D01*
X3172002Y-9712045D01*
X3175304Y-9714230D01*
X3177489Y-9717532D01*
X3178251Y-9721443D01*
X3178251Y-9758680D01*
X3320084Y-9758680D01*
X3320084Y-9721443D01*
X3320846Y-9717532D01*
X3323031Y-9714230D01*
X3326333Y-9712045D01*
X3330244Y-9711283D01*
X3390087Y-9711283D01*
X3393998Y-9712045D01*
X3397300Y-9714230D01*
X3399485Y-9717532D01*
X3400247Y-9721443D01*
X3400247Y-9758680D01*
X3468166Y-9758680D01*
X3468166Y-9730282D01*
X3467354Y-9721850D01*
X3465068Y-9714280D01*
X3459124Y-9703663D01*
X3458514Y-9700260D01*
X3459124Y-9696856D01*
X3461308Y-9693249D01*
X3465068Y-9686239D01*
X3467354Y-9678670D01*
X3467862Y-9673234D01*
X3468928Y-9669678D01*
X3471164Y-9666732D01*
X3474364Y-9664750D01*
X3478022Y-9664090D01*
X3496513Y-9664090D01*
X3500678Y-9665004D01*
X3504133Y-9667544D01*
X3506215Y-9671304D01*
X3507536Y-9675672D01*
X3511296Y-9682683D01*
X3516325Y-9688779D01*
X3520643Y-9692335D01*
X3523386Y-9695840D01*
X3524351Y-9700158D01*
X3523386Y-9704527D01*
X3520643Y-9708032D01*
X3516325Y-9711588D01*
X3511296Y-9717684D01*
X3507536Y-9724694D01*
X3505250Y-9732264D01*
X3504437Y-9740696D01*
X3504437Y-9852914D01*
X3505250Y-9861346D01*
X3507536Y-9868916D01*
X3511296Y-9875926D01*
X3516325Y-9882022D01*
X3522472Y-9887102D01*
X3529482Y-9890810D01*
X3537051Y-9893096D01*
X3546297Y-9894011D01*
X3549904Y-9895027D01*
X3552850Y-9897262D01*
X3554831Y-9900462D01*
X3555492Y-9904120D01*
X3555492Y-9977170D01*
X3592728Y-9977170D01*
X3596640Y-9977932D01*
X3599942Y-9980117D01*
X3602126Y-9983419D01*
X3602888Y-9987330D01*
X3602888Y-10047173D01*
X3602126Y-10051084D01*
X3599942Y-10054386D01*
X3596640Y-10056571D01*
X3592728Y-10057333D01*
X3555492Y-10057333D01*
X3555492Y-10105593D01*
X3557930Y-10108996D01*
X3558743Y-10113060D01*
X3558743Y-10192664D01*
X3626662Y-10192664D01*
X3626662Y-10164216D01*
X3625850Y-10155834D01*
X3623564Y-10148265D01*
X3619804Y-10141254D01*
X3617468Y-10138410D01*
X3615486Y-10134600D01*
X3615283Y-10130282D01*
X3616858Y-10126319D01*
X3619957Y-10123322D01*
X3623970Y-10121900D01*
X3628288Y-10122255D01*
X3635501Y-10124440D01*
X3643934Y-10125252D01*
X3646119Y-10125252D01*
X3649979Y-10126014D01*
X3653282Y-10128250D01*
X3655517Y-10131552D01*
X3656279Y-10135412D01*
X3656279Y-10181742D01*
X3657041Y-10191800D01*
X3658870Y-10199522D01*
X3662121Y-10207802D01*
X3662934Y-10211765D01*
X3662934Y-10293705D01*
X3663746Y-10302087D01*
X3666083Y-10309656D01*
X3669792Y-10316667D01*
X3674821Y-10322814D01*
X3679139Y-10326319D01*
X3681882Y-10329824D01*
X3682847Y-10334193D01*
X3681882Y-10338511D01*
X3679139Y-10342016D01*
X3674821Y-10345572D01*
X3669792Y-10351719D01*
X3666083Y-10358678D01*
X3663746Y-10366298D01*
X3662578Y-10371074D01*
X3660343Y-10374071D01*
X3657193Y-10376001D01*
X3653536Y-10376662D01*
X3636822Y-10376662D01*
X3632962Y-10375900D01*
X3629660Y-10373715D01*
X3627424Y-10370413D01*
X3626662Y-10366502D01*
X3626662Y-10364266D01*
X3625850Y-10355834D01*
X3623564Y-10348264D01*
X3617620Y-10337647D01*
X3617010Y-10334244D01*
X3617620Y-10330840D01*
X3619804Y-10327233D01*
X3623564Y-10320223D01*
X3625850Y-10312654D01*
X3626662Y-10304221D01*
X3626662Y-10275824D01*
X3558743Y-10275824D01*
X3558743Y-10313060D01*
X3557981Y-10316972D01*
X3555796Y-10320274D01*
X3552494Y-10322458D01*
X3548583Y-10323220D01*
X3488740Y-10323220D01*
X3484829Y-10322458D01*
X3481527Y-10320274D01*
X3479342Y-10316972D01*
X3478580Y-10313060D01*
X3478580Y-10275824D01*
X3410661Y-10275824D01*
X3410661Y-10304221D01*
X3411220Y-10310063D01*
X3410813Y-10313974D01*
X3408984Y-10317480D01*
X3405886Y-10320020D01*
X3402126Y-10321137D01*
X3389528Y-10319867D01*
X3277311Y-10319867D01*
X3268929Y-10320680D01*
X3261309Y-10323017D01*
X3254298Y-10326725D01*
X3248202Y-10331754D01*
X3243173Y-10337901D01*
X3242360Y-10339374D01*
X3239566Y-10342676D01*
X3235604Y-10344505D01*
X3231235Y-10344505D01*
X3227273Y-10342676D01*
X3224479Y-10339374D01*
X3223666Y-10337901D01*
X3218637Y-10331754D01*
X3212541Y-10326725D01*
X3205530Y-10323017D01*
X3197910Y-10320680D01*
X3189528Y-10319867D01*
X3077311Y-10319867D01*
X3068878Y-10320680D01*
X3061309Y-10323017D01*
X3054299Y-10326725D01*
X3048152Y-10331754D01*
X3043123Y-10337901D01*
X3039414Y-10344912D01*
X3037078Y-10352481D01*
X3036265Y-10360914D01*
X3036265Y-10497616D01*
X3037078Y-10505998D01*
X3039414Y-10513568D01*
X3043123Y-10520578D01*
X3048152Y-10526725D01*
X3054299Y-10531754D01*
X3061309Y-10535462D01*
X3068878Y-10537799D01*
X3077311Y-10538612D01*
X3081731Y-10538612D01*
X3085338Y-10539272D01*
X3088487Y-10541203D01*
X3090773Y-10544149D01*
X3092602Y-10547807D01*
X3094990Y-10551515D01*
X3097682Y-10555020D01*
X3100882Y-10558475D01*
X3171545Y-10629138D01*
X3173679Y-10632236D01*
X3174492Y-10635894D01*
X3173984Y-10639602D01*
X3171139Y-10648086D01*
X3167938Y-10663224D01*
X3166567Y-10678617D01*
X3167024Y-10694060D01*
X3169310Y-10709351D01*
X3173374Y-10724286D01*
X3179165Y-10738612D01*
X3186633Y-10752124D01*
X3195675Y-10764723D01*
X3206089Y-10776102D01*
X3217824Y-10786211D01*
X3230626Y-10794847D01*
X3244392Y-10801908D01*
X3258870Y-10807293D01*
X3273907Y-10810900D01*
X3289249Y-10812729D01*
X3304743Y-10812729D01*
X3320084Y-10810900D01*
X3335121Y-10807293D01*
X3349599Y-10801908D01*
X3363366Y-10794847D01*
X3376168Y-10786211D01*
X3387902Y-10776102D01*
X3398316Y-10764723D01*
X3407359Y-10752124D01*
X3414826Y-10738612D01*
X3420618Y-10724286D01*
X3424682Y-10709351D01*
X3426968Y-10694060D01*
X3427425Y-10678617D01*
X3426053Y-10663224D01*
X3422853Y-10648086D01*
X3417925Y-10633456D01*
X3411270Y-10619486D01*
X3403041Y-10606379D01*
X3393287Y-10594390D01*
X3382162Y-10583621D01*
X3369919Y-10574223D01*
X3356559Y-10566400D01*
X3342436Y-10560151D01*
X3336950Y-10558475D01*
X3333394Y-10556494D01*
X3330854Y-10553293D01*
X3329787Y-10549331D01*
X3330397Y-10545267D01*
X3332581Y-10541762D01*
X3335934Y-10539425D01*
X3339947Y-10538612D01*
X3389528Y-10538612D01*
X3397961Y-10537799D01*
X3405530Y-10535462D01*
X3411423Y-10532313D01*
X3415182Y-10531195D01*
X3419144Y-10531551D01*
X3422650Y-10533430D01*
X3428695Y-10538409D01*
X3435654Y-10542117D01*
X3443274Y-10544454D01*
X3451656Y-10545267D01*
X3585667Y-10545267D01*
X3594049Y-10544454D01*
X3601669Y-10542117D01*
X3608628Y-10538409D01*
X3614775Y-10533380D01*
X3619804Y-10527233D01*
X3623564Y-10520222D01*
X3625850Y-10512653D01*
X3626408Y-10506862D01*
X3627475Y-10503306D01*
X3629710Y-10500360D01*
X3632860Y-10498378D01*
X3636518Y-10497718D01*
X3657193Y-10497718D01*
X3660749Y-10498378D01*
X3663899Y-10500207D01*
X3666134Y-10503052D01*
X3669792Y-10509910D01*
X3674821Y-10516057D01*
X3680968Y-10521086D01*
X3687978Y-10524794D01*
X3695547Y-10527131D01*
X3702608Y-10527792D01*
X3706164Y-10528858D01*
X3709111Y-10531094D01*
X3711092Y-10534294D01*
X3711752Y-10537901D01*
X3711752Y-10797794D01*
X3710838Y-10802010D01*
X3708298Y-10805464D01*
X3704539Y-10807547D01*
X3699408Y-10809071D01*
X3692448Y-10812830D01*
X3686301Y-10817860D01*
X3681272Y-10824006D01*
X3677513Y-10830966D01*
X3675227Y-10838586D01*
X3674414Y-10846968D01*
X3674414Y-10940999D01*
X3675227Y-10949381D01*
X3677513Y-10956950D01*
X3681272Y-10963960D01*
X3686301Y-10970107D01*
X3692448Y-10975136D01*
X3699408Y-10978845D01*
X3707028Y-10981182D01*
G37*
G36*
X2582519Y-10537240D02*
G01*
X2610967Y-10537240D01*
X2619349Y-10536428D01*
X2626918Y-10534142D01*
X2633929Y-10530382D01*
X2640076Y-10525353D01*
X2645105Y-10519206D01*
X2648813Y-10512247D01*
X2651150Y-10504627D01*
X2651963Y-10496245D01*
X2651963Y-10469321D01*
X2582519Y-10469321D01*
G37*
G36*
X2582519Y-10389158D02*
G01*
X2651963Y-10389158D01*
X2651963Y-10362234D01*
X2651150Y-10353852D01*
X2648813Y-10346232D01*
X2644902Y-10338917D01*
X2643835Y-10335768D01*
X2643835Y-10332466D01*
X2644902Y-10329316D01*
X2648813Y-10322001D01*
X2651150Y-10314381D01*
X2651963Y-10305999D01*
X2651963Y-10279075D01*
X2582519Y-10279075D01*
G37*
G36*
X3410661Y-10192664D02*
G01*
X3478580Y-10192664D01*
X3478580Y-10144810D01*
X3475278Y-10142626D01*
X3473094Y-10139324D01*
X3472332Y-10135412D01*
X3472332Y-10057333D01*
X3402888Y-10057333D01*
X3402888Y-10084257D01*
X3403701Y-10092639D01*
X3406038Y-10100259D01*
X3409746Y-10107218D01*
X3414776Y-10113365D01*
X3421684Y-10119055D01*
X3424275Y-10122204D01*
X3425444Y-10127183D01*
X3425037Y-10130993D01*
X3423208Y-10134346D01*
X3417519Y-10141254D01*
X3413760Y-10148265D01*
X3411474Y-10155834D01*
X3410661Y-10164216D01*
G37*
G36*
X3402888Y-9977170D02*
G01*
X3472332Y-9977170D01*
X3472332Y-9909251D01*
X3469640Y-9909251D01*
X3465576Y-9908387D01*
X3462172Y-9905949D01*
X3460038Y-9902393D01*
X3459530Y-9898227D01*
X3460750Y-9894265D01*
X3465068Y-9886238D01*
X3467354Y-9878669D01*
X3468166Y-9870287D01*
X3468166Y-9841839D01*
X3400247Y-9841839D01*
X3400247Y-9911283D01*
X3405479Y-9912146D01*
X3408883Y-9914534D01*
X3411016Y-9918141D01*
X3411524Y-9922256D01*
X3410356Y-9926269D01*
X3406038Y-9934295D01*
X3403701Y-9941864D01*
X3402888Y-9950246D01*
G37*
G36*
X3071164Y-9911283D02*
G01*
X3098088Y-9911283D01*
X3098088Y-9841839D01*
X3030169Y-9841839D01*
X3030169Y-9870287D01*
X3030982Y-9878669D01*
X3033268Y-9886238D01*
X3037027Y-9893249D01*
X3042056Y-9899396D01*
X3048203Y-9904425D01*
X3055162Y-9908133D01*
X3062782Y-9910470D01*
G37*
G36*
X3178251Y-9911283D02*
G01*
X3205175Y-9911283D01*
X3213557Y-9910470D01*
X3221177Y-9908133D01*
X3228136Y-9904425D01*
X3234283Y-9899396D01*
X3239312Y-9893249D01*
X3240227Y-9891572D01*
X3243021Y-9888270D01*
X3246983Y-9886442D01*
X3251352Y-9886442D01*
X3255314Y-9888270D01*
X3258108Y-9891572D01*
X3259023Y-9893249D01*
X3264052Y-9899396D01*
X3270199Y-9904425D01*
X3277158Y-9908133D01*
X3284778Y-9910470D01*
X3293160Y-9911283D01*
X3320084Y-9911283D01*
X3320084Y-9841839D01*
X3178251Y-9841839D01*
G37*
G36*
X2603906Y-9437522D02*
G01*
X2666339Y-9437522D01*
X2666339Y-9409938D01*
X2665526Y-9401556D01*
X2663240Y-9393936D01*
X2659481Y-9386925D01*
X2654452Y-9380829D01*
X2648305Y-9375800D01*
X2641346Y-9372041D01*
X2633726Y-9369755D01*
X2625344Y-9368942D01*
X2603906Y-9368942D01*
G37*
G36*
X3551682Y-9339630D02*
G01*
X3551682Y-9211868D01*
X3424123Y-9211868D01*
X3432403Y-9227464D01*
X3445256Y-9247428D01*
X3459632Y-9266224D01*
X3475532Y-9283801D01*
X3492754Y-9300057D01*
X3511296Y-9314840D01*
X3530955Y-9328048D01*
G37*
G36*
X1972868Y-9339376D02*
G01*
X1983333Y-9334042D01*
X2003501Y-9321647D01*
X2022652Y-9307626D01*
X2040534Y-9292132D01*
X2057146Y-9275165D01*
X2072284Y-9256979D01*
X2085898Y-9237573D01*
X2097887Y-9217101D01*
X2100427Y-9211868D01*
X1972868Y-9211868D01*
G37*
G36*
X2836062Y-9181541D02*
G01*
X2836062Y-9115044D01*
X2769565Y-9115044D01*
X2773781Y-9124492D01*
X2781604Y-9137446D01*
X2790952Y-9149384D01*
X2801670Y-9160103D01*
X2813608Y-9169450D01*
X2826562Y-9177324D01*
G37*
G36*
X2582062Y-9181541D02*
G01*
X2582062Y-9115044D01*
X2515565Y-9115044D01*
X2519781Y-9124492D01*
X2527604Y-9137446D01*
X2536952Y-9149384D01*
X2547670Y-9160103D01*
X2559608Y-9169450D01*
X2572562Y-9177324D01*
G37*
G36*
X2679750Y-9181541D02*
G01*
X2689199Y-9177324D01*
X2702204Y-9169450D01*
X2714091Y-9160103D01*
X2724810Y-9149384D01*
X2734157Y-9137446D01*
X2741980Y-9124492D01*
X2746248Y-9115044D01*
X2679750Y-9115044D01*
G37*
G36*
X2769565Y-9017355D02*
G01*
X2836062Y-9017355D01*
X2836062Y-8950807D01*
X2826562Y-8955074D01*
X2813608Y-8962898D01*
X2801670Y-8972245D01*
X2790952Y-8982964D01*
X2781604Y-8994902D01*
X2773781Y-9007856D01*
G37*
G36*
X2515565Y-9017355D02*
G01*
X2582062Y-9017355D01*
X2582062Y-8950807D01*
X2572562Y-8955074D01*
X2559608Y-8962898D01*
X2547670Y-8972245D01*
X2536952Y-8982964D01*
X2527604Y-8994902D01*
X2519781Y-9007856D01*
G37*
G36*
X2679750Y-9017355D02*
G01*
X2746248Y-9017355D01*
X2741980Y-9007856D01*
X2734157Y-8994902D01*
X2724810Y-8982964D01*
X2714091Y-8972245D01*
X2702204Y-8962898D01*
X2689199Y-8955074D01*
X2679750Y-8950807D01*
G37*
G36*
X1972868Y-8949182D02*
G01*
X2100427Y-8949182D01*
X2097887Y-8943898D01*
X2085898Y-8923477D01*
X2072284Y-8904071D01*
X2057146Y-8885834D01*
X2040534Y-8868918D01*
X2022652Y-8853373D01*
X2003501Y-8839352D01*
X1983333Y-8826957D01*
X1972868Y-8821674D01*
G37*
G36*
X3424123Y-8949182D02*
G01*
X3551682Y-8949182D01*
X3551631Y-8821420D01*
X3530955Y-8832951D01*
X3511296Y-8846210D01*
X3492754Y-8860942D01*
X3475532Y-8877198D01*
X3459632Y-8894775D01*
X3445256Y-8913622D01*
X3432403Y-8933535D01*
G37*

%LPD*%
D10*
X2464688Y-12299569D02*
G01*
X2440894Y-12323363D01*
X2440894Y-12458075D01*
X2857500Y-12192000D02*
G01*
X2868828Y-12180671D01*
X3106597Y-12180671D01*
D11*
X2662793Y-10334180D02*
G01*
X2567683Y-10239070D01*
X2543886Y-10239070D01*
X2662793Y-10334180D02*
G01*
X2567708Y-10429265D01*
X2543886Y-10429265D01*
X2222500Y-10922000D02*
G01*
X2032000Y-10731500D01*
X2032000Y-10096500D01*
X2126995Y-10001504D01*
X2126995Y-9903002D01*
D10*
X3106597Y-12180671D02*
G01*
X2857500Y-11931573D01*
X2857500Y-10985500D01*
X2337892Y-10465892D01*
X2337892Y-10429265D01*
X3106597Y-12180671D02*
G01*
X3257194Y-12331268D01*
X3257194Y-12996976D01*
D11*
X2155596Y-12204476D02*
G01*
X2095500Y-12264572D01*
X2095500Y-12509500D01*
X2187295Y-12601295D01*
X2187295Y-13979474D01*
X2376881Y-14169059D01*
X2123897Y-11760682D02*
G01*
X2123897Y-11562567D01*
X2440891Y-11245570D01*
X2667005Y-12733129D02*
G01*
X2540000Y-12860134D01*
X2540000Y-13779500D01*
X2630881Y-13870381D01*
X2630881Y-14169059D01*
X2440000Y-13081000D02*
G01*
X2380800Y-13140199D01*
X2380800Y-13282376D01*
X2380800Y-13472368D02*
G01*
X2377495Y-13469063D01*
X2377495Y-13377372D01*
X2440000Y-13081000D02*
G01*
X2283917Y-12924917D01*
X2283917Y-12870179D01*
D10*
X2639999Y-13081000D02*
G01*
X2660627Y-13060372D01*
X3193798Y-13060372D01*
X3257194Y-12996976D01*
D11*
X2821294Y-13250572D02*
G01*
X2816395Y-13255472D01*
X2816395Y-13377372D01*
X2857200Y-13158604D02*
G01*
X2821294Y-13194510D01*
X2821294Y-13250572D01*
D10*
X3016394Y-13377372D02*
G01*
X3041675Y-13402652D01*
X3041675Y-13599261D01*
D11*
X2666009Y-12109272D02*
G01*
X2857200Y-12300463D01*
X2857200Y-12536507D01*
D10*
X3613784Y-9796805D02*
G01*
X3716781Y-9899802D01*
X3716781Y-10017175D01*
X3772283Y-10237546D02*
G01*
X3716781Y-10182044D01*
X3716781Y-10017175D01*
D11*
X3391893Y-9922080D02*
G01*
X3486988Y-10017175D01*
X3510788Y-10017175D01*
X3391893Y-9922080D02*
G01*
X3360191Y-9890379D01*
X3360191Y-9803180D01*
D10*
X3518687Y-10437190D02*
G01*
X3510785Y-10429288D01*
X3330016Y-10429288D01*
D11*
X3556076Y-11442115D02*
G01*
X3651072Y-11442115D01*
X2314193Y-9953752D02*
G01*
X2314193Y-10063987D01*
X3138302Y-9803178D02*
G01*
X3360188Y-9803178D01*
X3360191Y-9803180D01*
X3518687Y-10231170D02*
G01*
X3510793Y-10223276D01*
X3510793Y-10017175D01*
X3613911Y-13187171D02*
G01*
X3463290Y-13187426D01*
X3463188Y-13187476D02*
G01*
X3463188Y-13377976D01*
X3463188Y-12996976D02*
G01*
X3463188Y-13187476D01*
X2376931Y-9066276D02*
G01*
X2375915Y-9478263D01*
X2159000Y-9555378D02*
G01*
X2236088Y-9478289D01*
X2375966Y-9478289D01*
X2375966Y-9478289D02*
G01*
X2375966Y-9668484D01*
D10*
X2504186Y-10063911D02*
G01*
X2337892Y-10230205D01*
X2337892Y-10239070D01*
X2337892Y-10239070D02*
G01*
X2337892Y-10429265D01*
X3138934Y-9066273D02*
G01*
X3138297Y-9066911D01*
X3138297Y-9597186D01*
X3138302Y-9597186D02*
G01*
X3360191Y-9597186D01*
X3360191Y-9597186D01*
X3360191Y-9597186D02*
G01*
X3366566Y-9603562D01*
X3613784Y-9603562D01*
X3772281Y-10430814D02*
G01*
X3765903Y-10437192D01*
X3518682Y-10437192D01*
X3772281Y-10430814D02*
G01*
X3772281Y-10894032D01*
X3772283Y-10894032D01*
X3650995Y-11671909D02*
G01*
X3750381Y-11771294D01*
X3750381Y-12045975D01*
X3556076Y-11671935D02*
G01*
X3461080Y-11671935D01*
X3461004Y-11671909D02*
G01*
X3350407Y-11782506D01*
X3350407Y-12045975D01*
D11*
X1714500Y-10922000D02*
G01*
X1968500Y-11176000D01*
X1968500Y-11176000D02*
G01*
X1935225Y-11209274D01*
X1935225Y-11411965D01*
X1741982Y-11411965D02*
G01*
X1741982Y-11602186D01*
X1741982Y-11602189D01*
X2603500Y-9334500D02*
G01*
X2569209Y-9368789D01*
X2569209Y-9478289D01*
D10*
X3350412Y-12045975D02*
G01*
X3215716Y-12180671D01*
X3106597Y-12180671D01*
X3257194Y-12996976D02*
G01*
X3257194Y-13187476D01*
X3257194Y-13187476D02*
G01*
X3257194Y-13377976D01*
X3234918Y-13599261D02*
G01*
X3257194Y-13576985D01*
X3257194Y-13377976D01*
X3138881Y-14169059D02*
G01*
X3041675Y-14071854D01*
X3041675Y-13599261D01*
D11*
X2159000Y-9748621D02*
G01*
X2192121Y-9748621D01*
X2287143Y-9843643D01*
X2409190Y-9843643D01*
D10*
X2504186Y-10063911D02*
G01*
X2569209Y-9998887D01*
X2569209Y-9668484D01*
D11*
X3136772Y-10429265D02*
G01*
X3136772Y-10522249D01*
X3297001Y-10682478D01*
X3043001Y-10936478D02*
G01*
X3297001Y-11190478D01*
X3556081Y-11557015D02*
G01*
X3556076Y-11442115D01*
X3043199Y-11438788D02*
G01*
X3265083Y-11438788D01*
X3265091Y-11438780D01*
X3297001Y-11190478D02*
G01*
X3265093Y-11222385D01*
X3265093Y-11438778D01*
X3265093Y-11438778D02*
G01*
X3268405Y-11442090D01*
X3461004Y-11442090D01*
D10*
X3650995Y-11671909D02*
G01*
X3772281Y-11550624D01*
X3772281Y-11232514D01*
D11*
X3043194Y-11638777D02*
G01*
X3265093Y-11638777D01*
X3106592Y-11792376D02*
G01*
X3106597Y-11974677D01*
X3043194Y-11638777D02*
G01*
X3043194Y-11728978D01*
X3106592Y-11792376D01*
X2159000Y-9748621D02*
G01*
X2043755Y-9748621D01*
X1937004Y-9855372D01*
X1937004Y-9902990D01*
X1937004Y-10163009D02*
G01*
X1937004Y-10699495D01*
X1714500Y-10922000D01*
D10*
X2126995Y-10163009D02*
G01*
X2203056Y-10239070D01*
X2337892Y-10239070D01*
D11*
X2032000Y-9902990D02*
G01*
X2032000Y-10013977D01*
X2028797Y-10017180D01*
X2222500Y-10922000D02*
G01*
X2272946Y-10871553D01*
X2440884Y-10871553D01*
X2440884Y-11064796D02*
G01*
X2440884Y-11245588D01*
X1933702Y-11760708D02*
G01*
X1935225Y-11602212D01*
X2635994Y-11665577D02*
G01*
X2636001Y-11665585D01*
X2757881Y-11665585D01*
X2440884Y-11451582D02*
G01*
X2435994Y-11456471D01*
X2435994Y-11665577D01*
X2435994Y-11665577D02*
G01*
X2665994Y-11895576D01*
X2665994Y-11919282D01*
D10*
X2464691Y-12299571D02*
G01*
X2405974Y-12240854D01*
X2405974Y-12109274D01*
D11*
X2535994Y-12077674D02*
G01*
X2535994Y-12164880D01*
X2670685Y-12299571D01*
X2535994Y-12077674D02*
G01*
X2599390Y-12014278D01*
X2665994Y-12014278D01*
X2020897Y-11919176D02*
G01*
X1933696Y-11831975D01*
X1933696Y-11760677D01*
X1711396Y-12394874D02*
G01*
X1965396Y-12140874D01*
X1965396Y-12140874D02*
G01*
X2005192Y-12140874D01*
X2226891Y-11919176D01*
X2226818Y-11919204D02*
G01*
X2405888Y-11919204D01*
X1711452Y-12394945D02*
G01*
X1710181Y-12870179D01*
X1903519Y-12870174D02*
G01*
X2090661Y-12870162D01*
X2857200Y-12536500D02*
G01*
X2853824Y-12539875D01*
X2667002Y-12539875D01*
X2857200Y-12736499D02*
G01*
X2857207Y-12938602D01*
D12*
G01*
X2340937Y-10429240D03*
G01*
X2540942Y-10429240D03*
G01*
X2467683Y-12299696D03*
G01*
X2667688Y-12299696D03*
D13*
G01*
X2440939Y-11248463D03*
D14*
G01*
X2440940Y-11448465D03*
D15*
G01*
X3460168Y-13187425D03*
G01*
X3260163Y-13187425D03*
D12*
G01*
X2023945Y-11919204D03*
G01*
X2223950Y-11919204D03*
D13*
G01*
X3360165Y-9600257D03*
D14*
G01*
X3360165Y-9800259D03*
D16*
G01*
X3772408Y-11232464D03*
G01*
X3772408Y-10893983D03*
D17*
G01*
X3333424Y-10429239D03*
G01*
X3133415Y-10429239D03*
G01*
X2287198Y-12870180D03*
G01*
X2087189Y-12870180D03*
G01*
X1906960Y-12870180D03*
G01*
X1706951Y-12870180D03*
D12*
G01*
X2340937Y-10238993D03*
G01*
X2540942Y-10238993D03*
D15*
G01*
X3713914Y-10017251D03*
G01*
X3513909Y-10017251D03*
D13*
G01*
X3518662Y-10434246D03*
D14*
G01*
X3518661Y-10234244D03*
D15*
G01*
X3460168Y-12996925D03*
G01*
X3260163Y-12996925D03*
D13*
G01*
X3106673Y-12177702D03*
D14*
G01*
X3106674Y-11977700D03*
D15*
G01*
X3460168Y-13377925D03*
G01*
X3260163Y-13377925D03*
D18*
G01*
X2435989Y-11665577D03*
G01*
X2635999Y-11665577D03*
D19*
G01*
X2126995Y-10163022D03*
G01*
X1937004Y-10163022D03*
G01*
X1937004Y-9903002D03*
G01*
X2032000Y-9903002D03*
G01*
X2126995Y-9903002D03*
D13*
G01*
X3138170Y-9600257D03*
D14*
G01*
X3138170Y-9800259D03*
D15*
G01*
X3016397Y-13377372D03*
G01*
X2816392Y-13377372D03*
D20*
G01*
X3265093Y-11438773D03*
D21*
G01*
X3265093Y-11638787D03*
D20*
G01*
X3043194Y-11438773D03*
D21*
G01*
X3043199Y-11638787D03*
D17*
G01*
X2572694Y-9668510D03*
G01*
X2372685Y-9668510D03*
D22*
G01*
X3650995Y-11442090D03*
G01*
X3556000Y-11442090D03*
G01*
X3461004Y-11442090D03*
G01*
X3461004Y-11671909D03*
G01*
X3556000Y-11671909D03*
G01*
X3650995Y-11671909D03*
D23*
G01*
X2380792Y-13282371D03*
G01*
X2380792Y-13472363D03*
G01*
X2627807Y-13377367D03*
D20*
G01*
X2857200Y-12536495D03*
D21*
G01*
X2857195Y-12736499D03*
D17*
G01*
X2640004Y-13081000D03*
G01*
X2439995Y-13081000D03*
D24*
G01*
X2857195Y-13158596D03*
G01*
X2857195Y-12938582D03*
D25*
G01*
X2314193Y-10063911D03*
G01*
X2504186Y-10063911D03*
G01*
X2409190Y-9843643D03*
D17*
G01*
X1935223Y-11602176D03*
G01*
X1741970Y-11602176D03*
D20*
G01*
X2159000Y-9748626D03*
D21*
G01*
X2159000Y-9555378D03*
D18*
G01*
X2375969Y-9478281D03*
G01*
X2569222Y-9478281D03*
D20*
G01*
X2440894Y-11064803D03*
D21*
G01*
X2440889Y-10871555D03*
D18*
G01*
X1741970Y-11411976D03*
G01*
X1935223Y-11411976D03*
D20*
G01*
X2667000Y-12733126D03*
D21*
G01*
X2667000Y-12539878D03*
D20*
G01*
X3613792Y-9796807D03*
D21*
G01*
X3613784Y-9603562D03*
D26*
G01*
X3350399Y-12045975D03*
G01*
X3750383Y-12045975D03*
D17*
G01*
X3041667Y-13599267D03*
G01*
X3234921Y-13599267D03*
D20*
G01*
X3772293Y-10430807D03*
D21*
G01*
X3772281Y-10237546D03*
D27*
G01*
X2405989Y-12109272D03*
G01*
X2405989Y-11919280D03*
G01*
X2666009Y-11919280D03*
G01*
X2666009Y-12014276D03*
G01*
X2666009Y-12109272D03*
D28*
G01*
X1711401Y-12394869D03*
G01*
X1965401Y-12140869D03*
G01*
X2219401Y-12394869D03*
G01*
X2222500Y-10922000D03*
G01*
X1968500Y-11176000D03*
G01*
X1714500Y-10922000D03*
G01*
X3296996Y-11190478D03*
G01*
X3042996Y-10936478D03*
G01*
X3296996Y-10682478D03*
D29*
G01*
X2376881Y-14169059D03*
D30*
G01*
X2630881Y-14169059D03*
G01*
X2884881Y-14169059D03*
G01*
X3138881Y-14169059D03*
D29*
G01*
X3138881Y-9066174D03*
D30*
G01*
X2884881Y-9066174D03*
G01*
X2630881Y-9066174D03*
G01*
X2376881Y-9066174D03*
D31*
G01*
X3683000Y-9080500D03*
G01*
X1841500Y-9080500D03*
G01*
X1841500Y-14097000D03*
G01*
X3683000Y-14097000D03*
D32*
G01*
X2603500Y-9334500D03*
G01*
X3391890Y-9922078D03*
G01*
X2028799Y-10017175D03*
G01*
X2314092Y-9953777D03*
G01*
X2662783Y-10334193D03*
G01*
X3106597Y-11792381D03*
G01*
X1933702Y-11760682D03*
G01*
X2821304Y-13250570D03*
G01*
X3613784Y-13187171D03*
G01*
X3556076Y-11557025D03*
G01*
X2757881Y-11665585D03*
G01*
X2535986Y-12077674D03*
G01*
X2377490Y-13377367D03*
G01*
X2123897Y-11760682D03*
G01*
X2155596Y-12204471D03*
D33*
G01*
X2440889Y-12458064D03*
G01*
X2857500Y-12192000D03*
D32*
G01*
X2757881Y-11380266D03*
G01*
X2757881Y-11031575D03*
G01*
X2345791Y-10619486D03*
G01*
X2567686Y-10841380D03*
G01*
X2789605Y-11982577D03*
G01*
X3011500Y-12331268D03*
G01*
X3138297Y-12838480D03*
G01*
X3632327Y-11292078D03*
G01*
X3645484Y-10682884D03*
G01*
X3899103Y-10682884D03*
G01*
X3867404Y-11348567D03*
G01*
X3804005Y-11665585D03*
G01*
X3550386Y-11824080D03*
G01*
X3391890Y-12362967D03*
G01*
X3772306Y-12362967D03*
G01*
X3613784Y-10936478D03*
G01*
X2286000Y-9271000D03*
G01*
X2032000Y-9398000D03*
G01*
X1968500Y-9652000D03*
G01*
X1806905Y-9858679D03*
G01*
X2159000Y-10350500D03*
G01*
X3138297Y-12553187D03*
G01*
X3360191Y-12679984D03*
M02*
