G04 Layer: TopSolderMaskLayer*
G04 EasyEDA v6.5.42, 2024-03-01 12:08:59*
G04 82fce6b7a4c1403188722681d6bd6211,9a5be75d700b4a6385dc1106f27949ae,10*
G04 Gerber Generator version 0.2*
G04 Scale: 100 percent, Rotated: No, Reflected: No *
G04 Dimensions in millimeters *
G04 leading zeros omitted , absolute positions ,4 integer and 5 decimal *
%FSLAX45Y45*%
%MOMM*%

%AMMACRO1*1,1,$1,$2,$3*1,1,$1,$4,$5*1,1,$1,0-$2,0-$3*1,1,$1,0-$4,0-$5*20,1,$1,$2,$3,$4,$5,0*20,1,$1,$4,$5,0-$2,0-$3,0*20,1,$1,0-$2,0-$3,0-$4,0-$5,0*20,1,$1,0-$4,0-$5,$2,$3,0*4,1,4,$2,$3,$4,$5,0-$2,0-$3,0-$4,0-$5,$2,$3,0*%
%ADD10C,0.9016*%
%ADD11MACRO1,0.1016X0.4X-0.4X-0.4X-0.4*%
%ADD12MACRO1,0.1016X-0.705X-0.675X-0.705X0.675*%
%ADD13MACRO1,0.1016X0.705X-0.675X0.705X0.675*%
%ADD14MACRO1,0.1016X-0.4X0.45X0.4X0.45*%
%ADD15R,1.0016X0.9016*%
%ADD16MACRO1,0.1016X0.4X-0.45X-0.4X-0.45*%
%ADD17MACRO1,0.1016X-0.5X0.375X0.5X0.375*%
%ADD18MACRO1,0.1016X0.5X-0.375X-0.5X-0.375*%
%ADD19MACRO1,0.1016X0.375X0.5X0.375X-0.5*%
%ADD20MACRO1,0.1016X0.85X-0.85X-0.85X-0.85*%
%ADD21C,1.8016*%
%ADD22MACRO1,0.1016X-0.85X0.85X0.85X0.85*%
%ADD23MACRO1,0.1016X-0.6X1.85X0.6X1.85*%
%ADD24R,0.9656X0.9016*%
%ADD25MACRO1,0.1016X0.432X0.4X0.432X-0.4*%
%ADD26MACRO1,0.1016X-0.4032X-0.432X-0.4032X0.432*%
%ADD27MACRO1,0.1016X0.4032X-0.432X0.4032X0.432*%
%ADD28MACRO1,0.1016X-0.432X0.4032X0.432X0.4032*%
%ADD29MACRO1,0.1016X-0.432X-0.4032X0.432X-0.4032*%
%ADD30MACRO1,0.1016X0.4032X0.432X0.4032X-0.432*%
%ADD31MACRO1,0.1016X-0.4032X0.432X-0.4032X-0.432*%
%ADD32C,1.6256*%
%ADD33R,0.9656X0.9081*%
%ADD34MACRO1,0.1016X-0.5X0.3X0.5X0.3*%
%ADD35MACRO1,0.1016X-0.535X0.3X0.535X0.3*%
%ADD36MACRO1,0.1016X0.266X-0.536X-0.266X-0.536*%
%ADD37C,5.6016*%

%LPD*%
G36*
X-24993Y-4999990D02*
G01*
X-49987Y-10049967D01*
X125018Y-10049967D01*
X125018Y-4999990D01*
G37*
G36*
X2375001Y-4999990D02*
G01*
X2350008Y-10049967D01*
X2525014Y-10049967D01*
X2525014Y-4999990D01*
G37*
G36*
X-99974Y-9849967D02*
G01*
X-99974Y-10049967D01*
X2550007Y-10049967D01*
X2550007Y-9849967D01*
G37*
G36*
X-99974Y-4999990D02*
G01*
X-99974Y-5150002D01*
X2550007Y-5150002D01*
X2550007Y-4999990D01*
G37*
D10*
X1199997Y-7799984D02*
G01*
X1099997Y-7699984D01*
X1099997Y-7599984D01*
X1599996Y-8599982D02*
G01*
X2424996Y-8599982D01*
X1399997Y-8599982D02*
G01*
X1199997Y-8599982D01*
X1199997Y-8599982D02*
G01*
X1199997Y-7799984D01*
D11*
G01*
X899645Y-8720038D03*
G01*
X900346Y-8879939D03*
D12*
G01*
X2124999Y-6724987D03*
D13*
G01*
X1924994Y-6724987D03*
D12*
G01*
X2124999Y-7399985D03*
D13*
G01*
X1924994Y-7399985D03*
D12*
G01*
X1675000Y-5924989D03*
D13*
G01*
X1474995Y-5924989D03*
D12*
G01*
X2124999Y-6224988D03*
D13*
G01*
X1924994Y-6224988D03*
D14*
G01*
X1544998Y-7949984D03*
G01*
X1404998Y-7949984D03*
D15*
G01*
X1450009Y-8779992D03*
G01*
X1450009Y-8919971D03*
D16*
G01*
X1629996Y-8774983D03*
G01*
X1769996Y-8774983D03*
D14*
G01*
X1544998Y-8449983D03*
G01*
X1404998Y-8449983D03*
G01*
X1694997Y-5724989D03*
G01*
X1554998Y-5724989D03*
G01*
X545000Y-7049985D03*
G01*
X405000Y-7049985D03*
D15*
G01*
X1275003Y-8779992D03*
G01*
X1275003Y-8919971D03*
D14*
G01*
X545000Y-7249985D03*
G01*
X405000Y-7249985D03*
D16*
G01*
X1629996Y-9274982D03*
G01*
X1769996Y-9274982D03*
D14*
G01*
X469999Y-9099981D03*
G01*
X329999Y-9099981D03*
G01*
X920000Y-6649986D03*
G01*
X780000Y-6649986D03*
D17*
G01*
X1592253Y-6174988D03*
G01*
X1357748Y-6174988D03*
D18*
G01*
X1357743Y-6374988D03*
G01*
X1592248Y-6374988D03*
D19*
G01*
X2124997Y-7867239D03*
G01*
X2124997Y-7632734D03*
D20*
G01*
X1630997Y-5474990D03*
D21*
G01*
X1377010Y-5474995D03*
G01*
X1123010Y-5474995D03*
G01*
X869010Y-5474995D03*
D22*
G01*
X868997Y-9549980D03*
D21*
G01*
X1123010Y-9549993D03*
G01*
X1377010Y-9549993D03*
G01*
X1631010Y-9549993D03*
D23*
G01*
X2124857Y-8199982D03*
G01*
X1825137Y-8199982D03*
D24*
G01*
X1550009Y-8129981D03*
G01*
X1550009Y-8269986D03*
D25*
G01*
X1624985Y-9094983D03*
G01*
X1624985Y-8954983D03*
D24*
G01*
X2150008Y-6904989D03*
G01*
X2150008Y-7044994D03*
D26*
G01*
X2150322Y-7199985D03*
D27*
G01*
X1999672Y-7199985D03*
D28*
G01*
X1074999Y-6050314D03*
D29*
G01*
X1074999Y-5899664D03*
D28*
G01*
X849998Y-9275306D03*
D29*
G01*
X849998Y-9124656D03*
D26*
G01*
X475324Y-8349983D03*
D27*
G01*
X324674Y-8349983D03*
D26*
G01*
X2150322Y-5924989D03*
D27*
G01*
X1999672Y-5924989D03*
D28*
G01*
X2149998Y-6550313D03*
D29*
G01*
X2149998Y-6399663D03*
D30*
G01*
X324674Y-8499983D03*
D31*
G01*
X475324Y-8499983D03*
D28*
G01*
X1074999Y-6350313D03*
D29*
G01*
X1074999Y-6199663D03*
D26*
G01*
X1425322Y-7624986D03*
D27*
G01*
X1274672Y-7624986D03*
D32*
G01*
X345998Y-6023000D03*
G01*
X599998Y-6277000D03*
G01*
X853998Y-6023000D03*
G01*
X1170990Y-7022998D03*
G01*
X1424990Y-7276998D03*
G01*
X1678990Y-7022998D03*
G01*
X853998Y-7876997D03*
G01*
X599998Y-7622997D03*
G01*
X345998Y-7876997D03*
D33*
G01*
X899998Y-8349665D03*
G01*
X899998Y-8500313D03*
G01*
X850011Y-7074662D03*
G01*
X850011Y-7225309D03*
D34*
G01*
X344990Y-6844982D03*
G01*
X344990Y-6654990D03*
G01*
X605010Y-6654990D03*
G01*
X605010Y-6749986D03*
G01*
X605010Y-6844982D03*
D35*
G01*
X523499Y-8894978D03*
G01*
X523499Y-8704986D03*
G01*
X276499Y-8799982D03*
D36*
G01*
X1919993Y-7635074D03*
G01*
X1824997Y-7635074D03*
G01*
X1730001Y-7635074D03*
G01*
X1730001Y-7864894D03*
G01*
X1824997Y-7864894D03*
G01*
X1919993Y-7864894D03*
D37*
G01*
X324993Y-9674987D03*
G01*
X2175002Y-9674987D03*
G01*
X325018Y-5325008D03*
G01*
X2175002Y-5325008D03*
M02*
