G04 Layer: TopSilkscreenLayer*
G04 EasyEDA v6.5.22, 2023-03-08 13:41:41*
G04 390c6d156fdc4d62a17363b05527c9d0,9a5be75d700b4a6385dc1106f27949ae,10*
G04 Gerber Generator version 0.2*
G04 Scale: 100 percent, Rotated: No, Reflected: No *
G04 Dimensions in millimeters *
G04 leading zeros omitted , absolute positions ,4 integer and 5 decimal *
%FSLAX45Y45*%
%MOMM*%

%ADD10C,0.1600*%
%ADD11C,0.2000*%
%ADD12C,0.2600*%
%ADD13C,0.5000*%
%ADD14C,0.1524*%
%ADD15C,0.2500*%
%ADD16C,0.2100*%
%ADD17C,0.3000*%
%ADD18C,0.1520*%
%ADD19C,0.1500*%
%ADD20C,0.2540*%
%ADD21C,0.0112*%

%LPD*%
G36*
X1629206Y-12683591D02*
G01*
X1629206Y-12927330D01*
X1677314Y-12927330D01*
X1677314Y-12764820D01*
X1701393Y-12764820D01*
X1701393Y-12788036D01*
X1773631Y-12788036D01*
X1773631Y-12811252D01*
X1821789Y-12811252D01*
X1821789Y-12834467D01*
X1845868Y-12834467D01*
X1845868Y-12857683D01*
X1869948Y-12857683D01*
X1869948Y-12834467D01*
X1893976Y-12834467D01*
X1893976Y-12880898D01*
X1797710Y-12880898D01*
X1797710Y-12904114D01*
X1773631Y-12904114D01*
X1773631Y-12927330D01*
X1749552Y-12927330D01*
X1749552Y-12950545D01*
X1605127Y-12950545D01*
X1605127Y-12973761D01*
X1581048Y-12973761D01*
X1581048Y-13089839D01*
X1653235Y-13089839D01*
X1653235Y-13113054D01*
X1629206Y-13113054D01*
X1629206Y-13136270D01*
X1653235Y-13136270D01*
X1653235Y-13113054D01*
X1749552Y-13113054D01*
X1749552Y-13066623D01*
X1942134Y-13066623D01*
X1942134Y-13020192D01*
X1966214Y-13020192D01*
X1966214Y-12996976D01*
X1990293Y-12996976D01*
X1990293Y-12950545D01*
X2014372Y-12950545D01*
X2014372Y-12927330D01*
X2038451Y-12927330D01*
X2038451Y-12973761D01*
X2110638Y-12973761D01*
X2110638Y-12996976D01*
X2134717Y-12996976D01*
X2134717Y-13020192D01*
X2110638Y-13020192D01*
X2110638Y-13043408D01*
X2062530Y-13043408D01*
X2062530Y-13089839D01*
X2086610Y-13089839D01*
X2086610Y-13113054D01*
X2062530Y-13113054D01*
X2062530Y-13089839D01*
X2014372Y-13089839D01*
X2014372Y-13066623D01*
X1797710Y-13066623D01*
X1797710Y-13113054D01*
X1869948Y-13113054D01*
X1869948Y-13136270D01*
X1893976Y-13136270D01*
X1893976Y-13159486D01*
X1845868Y-13159486D01*
X1845868Y-13182701D01*
X1821789Y-13182701D01*
X1821789Y-13205917D01*
X1773631Y-13205917D01*
X1773631Y-13229132D01*
X1725472Y-13229132D01*
X1725472Y-13252348D01*
X1701393Y-13252348D01*
X1701393Y-13275563D01*
X1677314Y-13275563D01*
X1677314Y-13136270D01*
X1629206Y-13136270D01*
X1629206Y-13333577D01*
X1677314Y-13333577D01*
X1677314Y-13321995D01*
X1725472Y-13321995D01*
X1725472Y-13298779D01*
X1773631Y-13298779D01*
X1773631Y-13275563D01*
X1797710Y-13275563D01*
X1797710Y-13252348D01*
X1845868Y-13252348D01*
X1845868Y-13229132D01*
X1893976Y-13229132D01*
X1893976Y-13205917D01*
X1942134Y-13205917D01*
X1942134Y-13182701D01*
X1893976Y-13182701D01*
X1893976Y-13159486D01*
X2014372Y-13159486D01*
X2014372Y-13182701D01*
X2038451Y-13182701D01*
X2038451Y-13205917D01*
X2062530Y-13205917D01*
X2062530Y-13229132D01*
X2110638Y-13229132D01*
X2110638Y-13159486D01*
X2086610Y-13159486D01*
X2086610Y-13113054D01*
X2110638Y-13113054D01*
X2110638Y-13089839D01*
X2134717Y-13089839D01*
X2134717Y-13066623D01*
X2182876Y-13066623D01*
X2182876Y-13043408D01*
X2206955Y-13043408D01*
X2206955Y-13020192D01*
X2231034Y-13020192D01*
X2231034Y-12996976D01*
X2206955Y-12996976D01*
X2206955Y-12973761D01*
X2182876Y-12973761D01*
X2182876Y-12950545D01*
X2134717Y-12950545D01*
X2134717Y-12927330D01*
X2038451Y-12927330D01*
X2038451Y-12904114D01*
X2110638Y-12904114D01*
X2110638Y-12834467D01*
X2086610Y-12834467D01*
X2086610Y-12811252D01*
X2038451Y-12811252D01*
X2038451Y-12788036D01*
X1966214Y-12788036D01*
X1966214Y-12811252D01*
X1918055Y-12811252D01*
X1918055Y-12834467D01*
X1893976Y-12834467D01*
X1893976Y-12811252D01*
X1869948Y-12811252D01*
X1869948Y-12788036D01*
X1845868Y-12788036D01*
X1845868Y-12764820D01*
X1797710Y-12764820D01*
X1797710Y-12741605D01*
X1749552Y-12741605D01*
X1749552Y-12718389D01*
X1725472Y-12718389D01*
X1725472Y-12695174D01*
X1677314Y-12695174D01*
X1677314Y-12683591D01*
G37*
D10*
X2409065Y-8868176D02*
G01*
X2417955Y-8877320D01*
X2431671Y-8881892D01*
X2449959Y-8881892D01*
X2463421Y-8877320D01*
X2472565Y-8868176D01*
X2472565Y-8859032D01*
X2467993Y-8849888D01*
X2463421Y-8845316D01*
X2454531Y-8840998D01*
X2427099Y-8831854D01*
X2417955Y-8827282D01*
X2413637Y-8822710D01*
X2409065Y-8813566D01*
X2409065Y-8800104D01*
X2417955Y-8790960D01*
X2431671Y-8786388D01*
X2449959Y-8786388D01*
X2463421Y-8790960D01*
X2472565Y-8800104D01*
X2379093Y-8881892D02*
G01*
X2379093Y-8786388D01*
X2280795Y-8859032D02*
G01*
X2285367Y-8868176D01*
X2294511Y-8877320D01*
X2303401Y-8881892D01*
X2321689Y-8881892D01*
X2330833Y-8877320D01*
X2339977Y-8868176D01*
X2344549Y-8859032D01*
X2348867Y-8845316D01*
X2348867Y-8822710D01*
X2344549Y-8808994D01*
X2339977Y-8800104D01*
X2330833Y-8790960D01*
X2321689Y-8786388D01*
X2303401Y-8786388D01*
X2294511Y-8790960D01*
X2285367Y-8800104D01*
X2280795Y-8808994D01*
X2280795Y-8822710D01*
X2303401Y-8822710D02*
G01*
X2280795Y-8822710D01*
X2816611Y-8859123D02*
G01*
X2820929Y-8868267D01*
X2830073Y-8877157D01*
X2839217Y-8881729D01*
X2857505Y-8881729D01*
X2866395Y-8877157D01*
X2875539Y-8868267D01*
X2880111Y-8859123D01*
X2884683Y-8845407D01*
X2884683Y-8822801D01*
X2880111Y-8809085D01*
X2875539Y-8799941D01*
X2866395Y-8790797D01*
X2857505Y-8786225D01*
X2839217Y-8786225D01*
X2830073Y-8790797D01*
X2820929Y-8799941D01*
X2816611Y-8809085D01*
X2816611Y-8822801D01*
X2839217Y-8822801D02*
G01*
X2816611Y-8822801D01*
X2786385Y-8881729D02*
G01*
X2786385Y-8786225D01*
X2786385Y-8881729D02*
G01*
X2722885Y-8786225D01*
X2722885Y-8881729D02*
G01*
X2722885Y-8786225D01*
X2692913Y-8881729D02*
G01*
X2692913Y-8786225D01*
X2692913Y-8881729D02*
G01*
X2661163Y-8881729D01*
X2647447Y-8877157D01*
X2638303Y-8868267D01*
X2633731Y-8859123D01*
X2629159Y-8845407D01*
X2629159Y-8822801D01*
X2633731Y-8809085D01*
X2638303Y-8799941D01*
X2647447Y-8790797D01*
X2661163Y-8786225D01*
X2692913Y-8786225D01*
X3265170Y-8881892D02*
G01*
X3228847Y-8786388D01*
X3192272Y-8881892D02*
G01*
X3228847Y-8786388D01*
X3094227Y-8859032D02*
G01*
X3098800Y-8868176D01*
X3107943Y-8877320D01*
X3116834Y-8881892D01*
X3135122Y-8881892D01*
X3144265Y-8877320D01*
X3153156Y-8868176D01*
X3157727Y-8859032D01*
X3162300Y-8845316D01*
X3162300Y-8822710D01*
X3157727Y-8808994D01*
X3153156Y-8800104D01*
X3144265Y-8790960D01*
X3135122Y-8786388D01*
X3116834Y-8786388D01*
X3107943Y-8790960D01*
X3098800Y-8800104D01*
X3094227Y-8808994D01*
X2995929Y-8859032D02*
G01*
X3000502Y-8868176D01*
X3009645Y-8877320D01*
X3018790Y-8881892D01*
X3036824Y-8881892D01*
X3045968Y-8877320D01*
X3055111Y-8868176D01*
X3059684Y-8859032D01*
X3064256Y-8845316D01*
X3064256Y-8822710D01*
X3059684Y-8808994D01*
X3055111Y-8800104D01*
X3045968Y-8790960D01*
X3036824Y-8786388D01*
X3018790Y-8786388D01*
X3009645Y-8790960D01*
X3000502Y-8800104D01*
X2995929Y-8808994D01*
D11*
X3811701Y-11031253D02*
G01*
X3802811Y-11040397D01*
X3798239Y-11054113D01*
X3798239Y-11072401D01*
X3802811Y-11085863D01*
X3811701Y-11095007D01*
X3820845Y-11095007D01*
X3829989Y-11090435D01*
X3834561Y-11085863D01*
X3839133Y-11076719D01*
X3848277Y-11049541D01*
X3852595Y-11040397D01*
X3857167Y-11035825D01*
X3866311Y-11031253D01*
X3880027Y-11031253D01*
X3889171Y-11040397D01*
X3893743Y-11054113D01*
X3893743Y-11072401D01*
X3889171Y-11085863D01*
X3880027Y-11095007D01*
X3798239Y-11001281D02*
G01*
X3802811Y-10996709D01*
X3798239Y-10992391D01*
X3793667Y-10996709D01*
X3798239Y-11001281D01*
X3829989Y-10996709D02*
G01*
X3893743Y-10996709D01*
X3798239Y-10962165D02*
G01*
X3893743Y-10962165D01*
X3798239Y-10962165D02*
G01*
X3798239Y-10921271D01*
X3802811Y-10907809D01*
X3807383Y-10903237D01*
X3816273Y-10898665D01*
X3829989Y-10898665D01*
X3839133Y-10903237D01*
X3843705Y-10907809D01*
X3848277Y-10921271D01*
X3848277Y-10962165D01*
X3798239Y-10868693D02*
G01*
X3893743Y-10868693D01*
X3798239Y-10868693D02*
G01*
X3893743Y-10832371D01*
X3798239Y-10795795D02*
G01*
X3893743Y-10832371D01*
X3798239Y-10795795D02*
G01*
X3893743Y-10795795D01*
X3798239Y-10695973D02*
G01*
X3893743Y-10695973D01*
X3798239Y-10695973D02*
G01*
X3798239Y-10655079D01*
X3802811Y-10641363D01*
X3807383Y-10636791D01*
X3816273Y-10632219D01*
X3825417Y-10632219D01*
X3834561Y-10636791D01*
X3839133Y-10641363D01*
X3843705Y-10655079D01*
X3843705Y-10695973D02*
G01*
X3843705Y-10655079D01*
X3848277Y-10641363D01*
X3852595Y-10636791D01*
X3861739Y-10632219D01*
X3875455Y-10632219D01*
X3884599Y-10636791D01*
X3889171Y-10641363D01*
X3893743Y-10655079D01*
X3893743Y-10695973D01*
X3798239Y-10602247D02*
G01*
X3893743Y-10602247D01*
X3798239Y-10535953D02*
G01*
X3893743Y-10572275D01*
X3798239Y-10535953D02*
G01*
X3893743Y-10499631D01*
X3861739Y-10558559D02*
G01*
X3861739Y-10513093D01*
X3811701Y-10405905D02*
G01*
X3802811Y-10415049D01*
X3798239Y-10428765D01*
X3798239Y-10446799D01*
X3802811Y-10460515D01*
X3811701Y-10469659D01*
X3820845Y-10469659D01*
X3829989Y-10465087D01*
X3834561Y-10460515D01*
X3839133Y-10451371D01*
X3848277Y-10424193D01*
X3852595Y-10415049D01*
X3857167Y-10410477D01*
X3866311Y-10405905D01*
X3880027Y-10405905D01*
X3889171Y-10415049D01*
X3893743Y-10428765D01*
X3893743Y-10446799D01*
X3889171Y-10460515D01*
X3880027Y-10469659D01*
D10*
X2230894Y-13783548D02*
G01*
X2230894Y-13879052D01*
X2260866Y-13783548D02*
G01*
X2260866Y-13879052D01*
X2260866Y-13783548D02*
G01*
X2324620Y-13879052D01*
X2324620Y-13783548D02*
G01*
X2324620Y-13879052D01*
X2386342Y-13783548D02*
G01*
X2386342Y-13879052D01*
X2354592Y-13783548D02*
G01*
X2418092Y-13783548D01*
X2552641Y-13806365D02*
G01*
X2548069Y-13797221D01*
X2539179Y-13788077D01*
X2530035Y-13783759D01*
X2511747Y-13783759D01*
X2502603Y-13788077D01*
X2493713Y-13797221D01*
X2489141Y-13806365D01*
X2484569Y-13820081D01*
X2484569Y-13842687D01*
X2489141Y-13856403D01*
X2493713Y-13865547D01*
X2502603Y-13874691D01*
X2511747Y-13879009D01*
X2530035Y-13879009D01*
X2539179Y-13874691D01*
X2548069Y-13865547D01*
X2552641Y-13856403D01*
X2552641Y-13842687D01*
X2530035Y-13842687D02*
G01*
X2552641Y-13842687D01*
X2582613Y-13783759D02*
G01*
X2582613Y-13879009D01*
X2582613Y-13783759D02*
G01*
X2646367Y-13879009D01*
X2646367Y-13783759D02*
G01*
X2646367Y-13879009D01*
X2676339Y-13783759D02*
G01*
X2676339Y-13879009D01*
X2676339Y-13783759D02*
G01*
X2708089Y-13783759D01*
X2721805Y-13788077D01*
X2730949Y-13797221D01*
X2735521Y-13806365D01*
X2740093Y-13820081D01*
X2740093Y-13842687D01*
X2735521Y-13856403D01*
X2730949Y-13865547D01*
X2721805Y-13874691D01*
X2708089Y-13879009D01*
X2676339Y-13879009D01*
X3055051Y-13783551D02*
G01*
X3091373Y-13879055D01*
X3127949Y-13783551D02*
G01*
X3091373Y-13879055D01*
X3225993Y-13806411D02*
G01*
X3221421Y-13797267D01*
X3212277Y-13788123D01*
X3203387Y-13783551D01*
X3185099Y-13783551D01*
X3175955Y-13788123D01*
X3167065Y-13797267D01*
X3162493Y-13806411D01*
X3157921Y-13820127D01*
X3157921Y-13842733D01*
X3162493Y-13856449D01*
X3167065Y-13865593D01*
X3175955Y-13874483D01*
X3185099Y-13879055D01*
X3203387Y-13879055D01*
X3212277Y-13874483D01*
X3221421Y-13865593D01*
X3225993Y-13856449D01*
X3324291Y-13806411D02*
G01*
X3319719Y-13797267D01*
X3310575Y-13788123D01*
X3301431Y-13783551D01*
X3283397Y-13783551D01*
X3274253Y-13788123D01*
X3265109Y-13797267D01*
X3260537Y-13806411D01*
X3255965Y-13820127D01*
X3255965Y-13842733D01*
X3260537Y-13856449D01*
X3265109Y-13865593D01*
X3274253Y-13874483D01*
X3283397Y-13879055D01*
X3301431Y-13879055D01*
X3310575Y-13874483D01*
X3319719Y-13865593D01*
X3324291Y-13856449D01*
X2865066Y-13797221D02*
G01*
X2856176Y-13788077D01*
X2842460Y-13783759D01*
X2824172Y-13783759D01*
X2810710Y-13788077D01*
X2801566Y-13797221D01*
X2801566Y-13806365D01*
X2806138Y-13815509D01*
X2810710Y-13820081D01*
X2819600Y-13824653D01*
X2847032Y-13833543D01*
X2856176Y-13838115D01*
X2860494Y-13842687D01*
X2865066Y-13851831D01*
X2865066Y-13865547D01*
X2856176Y-13874691D01*
X2842460Y-13879009D01*
X2824172Y-13879009D01*
X2810710Y-13874691D01*
X2801566Y-13865547D01*
X2895038Y-13783759D02*
G01*
X2895038Y-13879009D01*
X2993336Y-13806365D02*
G01*
X2988764Y-13797221D01*
X2979620Y-13788077D01*
X2970730Y-13783759D01*
X2952442Y-13783759D01*
X2943298Y-13788077D01*
X2934154Y-13797221D01*
X2929836Y-13806365D01*
X2925264Y-13820081D01*
X2925264Y-13842687D01*
X2929836Y-13856403D01*
X2934154Y-13865547D01*
X2943298Y-13874691D01*
X2952442Y-13879009D01*
X2970730Y-13879009D01*
X2979620Y-13874691D01*
X2988764Y-13865547D01*
X2993336Y-13856403D01*
X2993336Y-13842687D01*
X2970730Y-13842687D02*
G01*
X2993336Y-13842687D01*
D12*
X3779357Y-13282173D02*
G01*
X3922613Y-13282173D01*
X3779357Y-13282173D02*
G01*
X3922613Y-13227817D01*
X3779357Y-13173207D02*
G01*
X3922613Y-13227817D01*
X3779357Y-13173207D02*
G01*
X3922613Y-13173207D01*
X3779357Y-13128249D02*
G01*
X3786215Y-13121391D01*
X3779357Y-13114533D01*
X3772499Y-13121391D01*
X3779357Y-13128249D01*
X3827109Y-13121391D02*
G01*
X3922613Y-13121391D01*
X3827109Y-13069575D02*
G01*
X3922613Y-13069575D01*
X3854541Y-13069575D02*
G01*
X3833967Y-13049001D01*
X3827109Y-13035539D01*
X3827109Y-13014965D01*
X3833967Y-13001249D01*
X3854541Y-12994645D01*
X3922613Y-12994645D01*
X3779357Y-12949433D02*
G01*
X3786215Y-12942829D01*
X3779357Y-12935971D01*
X3772499Y-12942829D01*
X3779357Y-12949433D01*
X3827109Y-12942829D02*
G01*
X3922613Y-12942829D01*
X3799931Y-12690353D02*
G01*
X3786215Y-12704069D01*
X3779357Y-12724643D01*
X3779357Y-12751821D01*
X3786215Y-12772395D01*
X3799931Y-12785857D01*
X3813393Y-12785857D01*
X3827109Y-12778999D01*
X3833967Y-12772395D01*
X3840825Y-12758679D01*
X3854541Y-12717785D01*
X3861145Y-12704069D01*
X3868003Y-12697211D01*
X3881719Y-12690353D01*
X3902039Y-12690353D01*
X3915755Y-12704069D01*
X3922613Y-12724643D01*
X3922613Y-12751821D01*
X3915755Y-12772395D01*
X3902039Y-12785857D01*
X3779357Y-12645395D02*
G01*
X3786215Y-12638537D01*
X3779357Y-12631933D01*
X3772499Y-12638537D01*
X3779357Y-12645395D01*
X3827109Y-12638537D02*
G01*
X3922613Y-12638537D01*
X3779357Y-12586721D02*
G01*
X3922613Y-12586721D01*
X3779357Y-12586721D02*
G01*
X3779357Y-12538969D01*
X3786215Y-12518649D01*
X3799931Y-12504933D01*
X3813393Y-12498075D01*
X3833967Y-12491471D01*
X3868003Y-12491471D01*
X3888577Y-12498075D01*
X3902039Y-12504933D01*
X3915755Y-12518649D01*
X3922613Y-12538969D01*
X3922613Y-12586721D01*
X3779357Y-12327641D02*
G01*
X3779357Y-12252711D01*
X3833967Y-12293605D01*
X3833967Y-12273285D01*
X3840825Y-12259569D01*
X3847683Y-12252711D01*
X3868003Y-12245853D01*
X3881719Y-12245853D01*
X3902039Y-12252711D01*
X3915755Y-12266427D01*
X3922613Y-12286747D01*
X3922613Y-12307321D01*
X3915755Y-12327641D01*
X3908897Y-12334499D01*
X3895435Y-12341357D01*
D13*
X2666507Y-7448981D02*
G01*
X2643901Y-7471587D01*
X2632471Y-7505623D01*
X2632471Y-7551089D01*
X2643901Y-7585379D01*
X2666507Y-7607985D01*
X2689113Y-7607985D01*
X2711973Y-7596555D01*
X2723403Y-7585379D01*
X2734579Y-7562519D01*
X2757439Y-7494447D01*
X2768869Y-7471587D01*
X2780045Y-7460157D01*
X2802905Y-7448981D01*
X2836941Y-7448981D01*
X2859801Y-7471587D01*
X2870977Y-7505623D01*
X2870977Y-7551089D01*
X2859801Y-7585379D01*
X2836941Y-7607985D01*
X2689113Y-7203363D02*
G01*
X2666507Y-7214793D01*
X2643901Y-7237653D01*
X2632471Y-7260259D01*
X2632471Y-7305725D01*
X2643901Y-7328331D01*
X2666507Y-7351191D01*
X2689113Y-7362621D01*
X2723403Y-7373797D01*
X2780045Y-7373797D01*
X2814335Y-7362621D01*
X2836941Y-7351191D01*
X2859801Y-7328331D01*
X2870977Y-7305725D01*
X2870977Y-7260259D01*
X2859801Y-7237653D01*
X2836941Y-7214793D01*
X2814335Y-7203363D01*
X2632471Y-7128433D02*
G01*
X2870977Y-7128433D01*
X2632471Y-7053503D02*
G01*
X2870977Y-7053503D01*
X2632471Y-7053503D02*
G01*
X2870977Y-6894245D01*
X2632471Y-6894245D02*
G01*
X2870977Y-6894245D01*
X2632471Y-6739813D02*
G01*
X2870977Y-6739813D01*
X2632471Y-6819315D02*
G01*
X2632471Y-6660311D01*
X2632471Y-6585381D02*
G01*
X2870977Y-6585381D01*
X2632471Y-6510197D02*
G01*
X2870977Y-6510197D01*
X2870977Y-6510197D02*
G01*
X2870977Y-6373799D01*
X2632471Y-6298869D02*
G01*
X2870977Y-6298869D01*
X2870977Y-6298869D02*
G01*
X2870977Y-6162471D01*
X2632471Y-5996609D02*
G01*
X2870977Y-6087541D01*
X2632471Y-5996609D02*
G01*
X2870977Y-5905677D01*
X2791475Y-6053505D02*
G01*
X2791475Y-5939713D01*
X2632471Y-5751245D02*
G01*
X2870977Y-5751245D01*
X2632471Y-5830747D02*
G01*
X2632471Y-5671743D01*
X2632471Y-5528487D02*
G01*
X2643901Y-5551093D01*
X2666507Y-5573953D01*
X2689113Y-5585383D01*
X2723403Y-5596559D01*
X2780045Y-5596559D01*
X2814335Y-5585383D01*
X2836941Y-5573953D01*
X2859801Y-5551093D01*
X2870977Y-5528487D01*
X2870977Y-5483021D01*
X2859801Y-5460161D01*
X2836941Y-5437555D01*
X2814335Y-5426125D01*
X2780045Y-5414695D01*
X2723403Y-5414695D01*
X2689113Y-5426125D01*
X2666507Y-5437555D01*
X2643901Y-5460161D01*
X2632471Y-5483021D01*
X2632471Y-5528487D01*
X2632471Y-5339765D02*
G01*
X2870977Y-5339765D01*
X2632471Y-5339765D02*
G01*
X2632471Y-5237657D01*
X2643901Y-5203367D01*
X2655077Y-5192191D01*
X2677937Y-5180761D01*
X2700543Y-5180761D01*
X2723403Y-5192191D01*
X2734579Y-5203367D01*
X2746009Y-5237657D01*
X2746009Y-5339765D01*
X2746009Y-5260263D02*
G01*
X2870977Y-5180761D01*
D11*
X1717542Y-11475425D02*
G01*
X1622038Y-11475425D01*
X1717542Y-11443675D02*
G01*
X1717542Y-11507429D01*
X1717542Y-11537401D02*
G01*
X1622038Y-11537401D01*
X1717542Y-11600901D02*
G01*
X1622038Y-11600901D01*
X1672076Y-11537401D02*
G01*
X1672076Y-11600901D01*
X1717542Y-11630873D02*
G01*
X1622038Y-11630873D01*
X1717542Y-11630873D02*
G01*
X1717542Y-11671767D01*
X1712970Y-11685483D01*
X1708398Y-11690055D01*
X1699508Y-11694627D01*
X1690364Y-11694627D01*
X1681220Y-11690055D01*
X1676648Y-11685483D01*
X1672076Y-11671767D01*
X1672076Y-11630873D01*
X1672076Y-11662877D02*
G01*
X1622038Y-11694627D01*
X1717542Y-11724599D02*
G01*
X1622038Y-11724599D01*
X1717542Y-11724599D02*
G01*
X1717542Y-11783781D01*
X1672076Y-11724599D02*
G01*
X1672076Y-11760921D01*
X1622038Y-11724599D02*
G01*
X1622038Y-11783781D01*
X1704080Y-11877253D02*
G01*
X1712970Y-11868109D01*
X1717542Y-11854647D01*
X1717542Y-11836359D01*
X1712970Y-11822643D01*
X1704080Y-11813753D01*
X1694936Y-11813753D01*
X1685792Y-11818325D01*
X1681220Y-11822643D01*
X1676648Y-11831787D01*
X1667504Y-11859219D01*
X1663186Y-11868109D01*
X1658614Y-11872681D01*
X1649470Y-11877253D01*
X1635754Y-11877253D01*
X1626610Y-11868109D01*
X1622038Y-11854647D01*
X1622038Y-11836359D01*
X1626610Y-11822643D01*
X1635754Y-11813753D01*
X1694792Y-9800000D02*
G01*
X1703936Y-9795428D01*
X1713080Y-9786538D01*
X1717652Y-9777394D01*
X1717652Y-9759106D01*
X1713080Y-9749962D01*
X1703936Y-9741072D01*
X1694792Y-9736500D01*
X1681330Y-9731928D01*
X1658470Y-9731928D01*
X1644754Y-9736500D01*
X1635864Y-9741072D01*
X1626720Y-9749962D01*
X1622148Y-9759106D01*
X1622148Y-9777394D01*
X1626720Y-9786538D01*
X1635864Y-9795428D01*
X1644754Y-9800000D01*
X1658470Y-9800000D01*
X1658470Y-9777394D02*
G01*
X1658470Y-9800000D01*
X1717652Y-9866548D02*
G01*
X1622148Y-9829972D01*
X1717652Y-9866548D02*
G01*
X1622148Y-9902870D01*
X1653898Y-9843688D02*
G01*
X1653898Y-9889154D01*
X1717652Y-9932842D02*
G01*
X1622148Y-9932842D01*
X1717652Y-9962814D02*
G01*
X1622148Y-9962814D01*
X1717652Y-9962814D02*
G01*
X1622148Y-10026314D01*
X1717652Y-10026314D02*
G01*
X1622148Y-10026314D01*
D14*
X3089473Y-9832672D02*
G01*
X3084139Y-9822258D01*
X3073725Y-9811844D01*
X3063565Y-9806764D01*
X3042737Y-9806764D01*
X3032323Y-9811844D01*
X3021909Y-9822258D01*
X3016575Y-9832672D01*
X3011495Y-9848420D01*
X3011495Y-9874328D01*
X3016575Y-9889822D01*
X3021909Y-9900236D01*
X3032323Y-9910650D01*
X3042737Y-9915730D01*
X3063565Y-9915730D01*
X3073725Y-9910650D01*
X3084139Y-9900236D01*
X3089473Y-9889822D01*
X3123763Y-9827592D02*
G01*
X3134177Y-9822258D01*
X3149671Y-9806764D01*
X3149671Y-9915730D01*
X3887609Y-9985481D02*
G01*
X3778643Y-9985481D01*
X3778643Y-9985481D02*
G01*
X3778643Y-10047711D01*
X3887609Y-10134071D02*
G01*
X3814965Y-10082001D01*
X3814965Y-10159979D01*
X3887609Y-10134071D02*
G01*
X3778643Y-10134071D01*
X3423592Y-12120859D02*
G01*
X3423592Y-12229825D01*
X3423592Y-12229825D02*
G01*
X3485822Y-12229825D01*
X3520112Y-12141687D02*
G01*
X3530526Y-12136353D01*
X3546274Y-12120859D01*
X3546274Y-12229825D01*
X2282395Y-9394664D02*
G01*
X2282395Y-9503630D01*
X2282395Y-9394664D02*
G01*
X2329131Y-9394664D01*
X2344625Y-9399744D01*
X2349959Y-9405078D01*
X2355039Y-9415492D01*
X2355039Y-9425906D01*
X2349959Y-9436320D01*
X2344625Y-9441400D01*
X2329131Y-9446480D01*
X2282395Y-9446480D01*
X2318717Y-9446480D02*
G01*
X2355039Y-9503630D01*
X2399743Y-9394664D02*
G01*
X2456893Y-9394664D01*
X2425905Y-9436320D01*
X2441399Y-9436320D01*
X2451813Y-9441400D01*
X2456893Y-9446480D01*
X2462227Y-9462228D01*
X2462227Y-9472642D01*
X2456893Y-9488136D01*
X2446479Y-9498550D01*
X2430985Y-9503630D01*
X2415491Y-9503630D01*
X2399743Y-9498550D01*
X2394663Y-9493470D01*
X2389329Y-9483056D01*
X2841510Y-10429278D02*
G01*
X2732544Y-10429278D01*
X2841510Y-10429278D02*
G01*
X2841510Y-10476014D01*
X2836430Y-10491508D01*
X2831096Y-10496842D01*
X2820682Y-10501922D01*
X2810268Y-10501922D01*
X2799854Y-10496842D01*
X2794774Y-10491508D01*
X2789694Y-10476014D01*
X2789694Y-10429278D01*
X2789694Y-10465600D02*
G01*
X2732544Y-10501922D01*
X2820682Y-10536212D02*
G01*
X2826016Y-10546626D01*
X2841510Y-10562374D01*
X2732544Y-10562374D01*
X2815602Y-10601744D02*
G01*
X2820682Y-10601744D01*
X2831096Y-10607078D01*
X2836430Y-10612158D01*
X2841510Y-10622572D01*
X2841510Y-10643400D01*
X2836430Y-10653814D01*
X2831096Y-10658894D01*
X2820682Y-10664228D01*
X2810268Y-10664228D01*
X2799854Y-10658894D01*
X2784360Y-10648480D01*
X2732544Y-10596664D01*
X2732544Y-10669308D01*
X2377490Y-12406144D02*
G01*
X2377490Y-12515110D01*
X2377490Y-12406144D02*
G01*
X2424226Y-12406144D01*
X2439720Y-12411224D01*
X2445054Y-12416558D01*
X2450134Y-12426972D01*
X2450134Y-12437386D01*
X2445054Y-12447800D01*
X2439720Y-12452880D01*
X2424226Y-12457960D01*
X2377490Y-12457960D01*
X2413812Y-12457960D02*
G01*
X2450134Y-12515110D01*
X2510586Y-12406144D02*
G01*
X2494838Y-12411224D01*
X2489758Y-12421638D01*
X2489758Y-12432052D01*
X2494838Y-12442466D01*
X2505252Y-12447800D01*
X2526080Y-12452880D01*
X2541574Y-12457960D01*
X2551988Y-12468374D01*
X2557322Y-12478788D01*
X2557322Y-12494536D01*
X2551988Y-12504950D01*
X2546908Y-12510030D01*
X2531160Y-12515110D01*
X2510586Y-12515110D01*
X2494838Y-12510030D01*
X2489758Y-12504950D01*
X2484424Y-12494536D01*
X2484424Y-12478788D01*
X2489758Y-12468374D01*
X2500172Y-12457960D01*
X2515666Y-12452880D01*
X2536494Y-12447800D01*
X2546908Y-12442466D01*
X2551988Y-12432052D01*
X2551988Y-12421638D01*
X2546908Y-12411224D01*
X2531160Y-12406144D01*
X2510586Y-12406144D01*
X3026046Y-12210168D02*
G01*
X3020712Y-12199754D01*
X3010552Y-12189340D01*
X3000138Y-12184260D01*
X2979310Y-12184260D01*
X2968896Y-12189340D01*
X2958482Y-12199754D01*
X2953402Y-12210168D01*
X2948068Y-12225916D01*
X2948068Y-12251824D01*
X2953402Y-12267318D01*
X2958482Y-12277732D01*
X2968896Y-12288146D01*
X2979310Y-12293226D01*
X3000138Y-12293226D01*
X3010552Y-12288146D01*
X3020712Y-12277732D01*
X3026046Y-12267318D01*
X3122566Y-12199754D02*
G01*
X3117486Y-12189340D01*
X3101992Y-12184260D01*
X3091578Y-12184260D01*
X3075830Y-12189340D01*
X3065416Y-12205088D01*
X3060336Y-12230996D01*
X3060336Y-12256904D01*
X3065416Y-12277732D01*
X3075830Y-12288146D01*
X3091578Y-12293226D01*
X3096658Y-12293226D01*
X3112152Y-12288146D01*
X3122566Y-12277732D01*
X3127900Y-12262238D01*
X3127900Y-12256904D01*
X3122566Y-12241410D01*
X3112152Y-12230996D01*
X3096658Y-12225916D01*
X3091578Y-12225916D01*
X3075830Y-12230996D01*
X3065416Y-12241410D01*
X3060336Y-12256904D01*
X2804109Y-9642596D02*
G01*
X2799029Y-9632182D01*
X2788615Y-9621768D01*
X2778201Y-9616434D01*
X2757373Y-9616434D01*
X2746959Y-9621768D01*
X2736545Y-9632182D01*
X2731465Y-9642596D01*
X2726131Y-9658090D01*
X2726131Y-9683998D01*
X2731465Y-9699746D01*
X2736545Y-9710160D01*
X2746959Y-9720574D01*
X2757373Y-9725654D01*
X2778201Y-9725654D01*
X2788615Y-9720574D01*
X2799029Y-9710160D01*
X2804109Y-9699746D01*
X2911043Y-9616434D02*
G01*
X2859227Y-9725654D01*
X2838399Y-9616434D02*
G01*
X2911043Y-9616434D01*
X2123820Y-12596258D02*
G01*
X2123820Y-12674236D01*
X2129154Y-12689730D01*
X2139568Y-12700144D01*
X2155063Y-12705478D01*
X2165477Y-12705478D01*
X2180970Y-12700144D01*
X2191384Y-12689730D01*
X2196718Y-12674236D01*
X2196718Y-12596258D01*
X2236088Y-12622420D02*
G01*
X2236088Y-12617086D01*
X2241422Y-12606672D01*
X2246502Y-12601592D01*
X2256916Y-12596258D01*
X2277745Y-12596258D01*
X2288159Y-12601592D01*
X2293238Y-12606672D01*
X2298572Y-12617086D01*
X2298572Y-12627500D01*
X2293238Y-12637914D01*
X2282825Y-12653408D01*
X2231009Y-12705478D01*
X2303652Y-12705478D01*
D15*
X2793872Y-13076026D02*
G01*
X2669920Y-13028782D01*
X2793872Y-13076026D02*
G01*
X2669920Y-13123270D01*
X2711322Y-13046308D02*
G01*
X2711322Y-13105490D01*
X2764409Y-13250778D02*
G01*
X2776347Y-13244936D01*
X2788031Y-13233252D01*
X2793872Y-13221314D01*
X2793872Y-13197692D01*
X2788031Y-13185754D01*
X2776347Y-13174070D01*
X2764409Y-13168228D01*
X2746629Y-13162132D01*
X2717165Y-13162132D01*
X2699384Y-13168228D01*
X2687700Y-13174070D01*
X2675763Y-13185754D01*
X2669920Y-13197692D01*
X2669920Y-13221314D01*
X2675763Y-13233252D01*
X2687700Y-13244936D01*
X2699384Y-13250778D01*
X2793872Y-13331296D02*
G01*
X2669920Y-13331296D01*
X2793872Y-13289894D02*
G01*
X2793872Y-13372698D01*
D14*
X3057763Y-10022860D02*
G01*
X3052429Y-10012446D01*
X3042015Y-10002032D01*
X3031855Y-9996952D01*
X3011027Y-9996952D01*
X3000613Y-10002032D01*
X2990199Y-10012446D01*
X2984865Y-10022860D01*
X2979785Y-10038608D01*
X2979785Y-10064516D01*
X2984865Y-10080010D01*
X2990199Y-10090424D01*
X3000613Y-10100838D01*
X3011027Y-10105918D01*
X3031855Y-10105918D01*
X3042015Y-10100838D01*
X3052429Y-10090424D01*
X3057763Y-10080010D01*
X3097133Y-10022860D02*
G01*
X3097133Y-10017780D01*
X3102467Y-10007366D01*
X3107547Y-10002032D01*
X3117961Y-9996952D01*
X3138789Y-9996952D01*
X3149203Y-10002032D01*
X3154283Y-10007366D01*
X3159617Y-10017780D01*
X3159617Y-10028194D01*
X3154283Y-10038608D01*
X3143869Y-10054102D01*
X3092053Y-10105918D01*
X3164697Y-10105918D01*
X3057763Y-9262064D02*
G01*
X3052429Y-9251650D01*
X3042015Y-9241236D01*
X3031855Y-9236156D01*
X3011027Y-9236156D01*
X3000613Y-9241236D01*
X2990199Y-9251650D01*
X2984865Y-9262064D01*
X2979785Y-9277812D01*
X2979785Y-9303720D01*
X2984865Y-9319214D01*
X2990199Y-9329628D01*
X3000613Y-9340042D01*
X3011027Y-9345122D01*
X3031855Y-9345122D01*
X3042015Y-9340042D01*
X3052429Y-9329628D01*
X3057763Y-9319214D01*
X3159617Y-9272478D02*
G01*
X3154283Y-9287972D01*
X3143869Y-9298386D01*
X3128375Y-9303720D01*
X3123295Y-9303720D01*
X3107547Y-9298386D01*
X3097133Y-9287972D01*
X3092053Y-9272478D01*
X3092053Y-9267398D01*
X3097133Y-9251650D01*
X3107547Y-9241236D01*
X3123295Y-9236156D01*
X3128375Y-9236156D01*
X3143869Y-9241236D01*
X3154283Y-9251650D01*
X3159617Y-9272478D01*
X3159617Y-9298386D01*
X3154283Y-9324548D01*
X3143869Y-9340042D01*
X3128375Y-9345122D01*
X3117961Y-9345122D01*
X3102467Y-9340042D01*
X3097133Y-9329628D01*
X3374770Y-13224543D02*
G01*
X3369436Y-13214129D01*
X3359022Y-13203715D01*
X3348863Y-13198635D01*
X3328034Y-13198635D01*
X3317620Y-13203715D01*
X3307206Y-13214129D01*
X3301872Y-13224543D01*
X3296793Y-13240291D01*
X3296793Y-13266199D01*
X3301872Y-13281693D01*
X3307206Y-13292107D01*
X3317620Y-13302521D01*
X3328034Y-13307601D01*
X3348863Y-13307601D01*
X3359022Y-13302521D01*
X3369436Y-13292107D01*
X3374770Y-13281693D01*
X3409061Y-13219463D02*
G01*
X3419475Y-13214129D01*
X3434968Y-13198635D01*
X3434968Y-13307601D01*
X3474593Y-13224543D02*
G01*
X3474593Y-13219463D01*
X3479672Y-13209049D01*
X3484752Y-13203715D01*
X3495166Y-13198635D01*
X3515995Y-13198635D01*
X3526409Y-13203715D01*
X3531743Y-13209049D01*
X3536822Y-13219463D01*
X3536822Y-13229877D01*
X3531743Y-13240291D01*
X3521329Y-13255785D01*
X3469259Y-13307601D01*
X3541902Y-13307601D01*
X3004108Y-11760647D02*
G01*
X2895142Y-11760647D01*
X2895142Y-11760647D02*
G01*
X2895142Y-11822877D01*
X2978200Y-11862501D02*
G01*
X2983280Y-11862501D01*
X2993694Y-11867581D01*
X2999028Y-11872915D01*
X3004108Y-11883329D01*
X3004108Y-11904157D01*
X2999028Y-11914317D01*
X2993694Y-11919651D01*
X2983280Y-11924731D01*
X2972866Y-11924731D01*
X2962452Y-11919651D01*
X2946958Y-11909237D01*
X2895142Y-11857167D01*
X2895142Y-11930065D01*
X3412101Y-12933555D02*
G01*
X3303135Y-12933555D01*
X3303135Y-12933555D02*
G01*
X3303135Y-12995785D01*
X3412101Y-13040489D02*
G01*
X3412101Y-13097639D01*
X3370445Y-13066651D01*
X3370445Y-13082145D01*
X3365365Y-13092559D01*
X3360285Y-13097639D01*
X3344537Y-13102973D01*
X3334123Y-13102973D01*
X3318629Y-13097639D01*
X3308215Y-13087225D01*
X3303135Y-13071731D01*
X3303135Y-13056237D01*
X3308215Y-13040489D01*
X3313295Y-13035409D01*
X3323709Y-13030075D01*
X3106092Y-10187264D02*
G01*
X3106092Y-10296230D01*
X3106092Y-10187264D02*
G01*
X3152828Y-10187264D01*
X3168322Y-10192344D01*
X3173656Y-10197678D01*
X3178736Y-10208092D01*
X3178736Y-10218506D01*
X3173656Y-10228920D01*
X3168322Y-10234000D01*
X3152828Y-10239080D01*
X3106092Y-10239080D01*
X3142414Y-10239080D02*
G01*
X3178736Y-10296230D01*
X3213026Y-10208092D02*
G01*
X3223440Y-10202758D01*
X3239188Y-10187264D01*
X3239188Y-10296230D01*
X1764576Y-12137664D02*
G01*
X1655610Y-12137664D01*
X1764576Y-12137664D02*
G01*
X1764576Y-12184400D01*
X1759496Y-12199894D01*
X1754162Y-12205228D01*
X1743748Y-12210308D01*
X1733334Y-12210308D01*
X1722920Y-12205228D01*
X1717840Y-12199894D01*
X1712760Y-12184400D01*
X1712760Y-12137664D01*
X1712760Y-12173986D02*
G01*
X1655610Y-12210308D01*
X1764576Y-12317496D02*
G01*
X1655610Y-12265426D01*
X1764576Y-12244598D02*
G01*
X1764576Y-12317496D01*
X2631549Y-11570472D02*
G01*
X2522583Y-11570472D01*
X2631549Y-11570472D02*
G01*
X2631549Y-11617208D01*
X2626469Y-11632702D01*
X2621135Y-11638036D01*
X2610721Y-11643116D01*
X2600307Y-11643116D01*
X2589893Y-11638036D01*
X2584813Y-11632702D01*
X2579733Y-11617208D01*
X2579733Y-11570472D01*
X2579733Y-11606794D02*
G01*
X2522583Y-11643116D01*
X2610721Y-11677406D02*
G01*
X2616055Y-11687820D01*
X2631549Y-11703568D01*
X2522583Y-11703568D01*
X2631549Y-11789674D02*
G01*
X2558905Y-11737858D01*
X2558905Y-11815582D01*
X2631549Y-11789674D02*
G01*
X2522583Y-11789674D01*
X2847312Y-11553337D02*
G01*
X2857726Y-11548003D01*
X2868140Y-11537589D01*
X2873220Y-11527429D01*
X2873220Y-11506601D01*
X2868140Y-11496187D01*
X2857726Y-11485773D01*
X2847312Y-11480439D01*
X2831564Y-11475359D01*
X2805656Y-11475359D01*
X2790162Y-11480439D01*
X2779748Y-11485773D01*
X2769334Y-11496187D01*
X2764254Y-11506601D01*
X2764254Y-11527429D01*
X2769334Y-11537589D01*
X2779748Y-11548003D01*
X2790162Y-11553337D01*
X2873220Y-11598041D02*
G01*
X2873220Y-11655191D01*
X2831564Y-11623949D01*
X2831564Y-11639443D01*
X2826484Y-11649857D01*
X2821404Y-11655191D01*
X2805656Y-11660271D01*
X2795242Y-11660271D01*
X2779748Y-11655191D01*
X2769334Y-11644777D01*
X2764254Y-11629029D01*
X2764254Y-11613535D01*
X2769334Y-11598041D01*
X2774414Y-11592707D01*
X2784828Y-11587627D01*
X3438154Y-12717353D02*
G01*
X3432820Y-12706939D01*
X3422406Y-12696525D01*
X3412246Y-12691445D01*
X3391418Y-12691445D01*
X3381004Y-12696525D01*
X3370590Y-12706939D01*
X3365256Y-12717353D01*
X3360176Y-12733101D01*
X3360176Y-12759009D01*
X3365256Y-12774503D01*
X3370590Y-12784917D01*
X3381004Y-12795331D01*
X3391418Y-12800411D01*
X3412246Y-12800411D01*
X3422406Y-12795331D01*
X3432820Y-12784917D01*
X3438154Y-12774503D01*
X3524260Y-12691445D02*
G01*
X3472444Y-12764089D01*
X3550422Y-12764089D01*
X3524260Y-12691445D02*
G01*
X3524260Y-12800411D01*
X3438177Y-12400356D02*
G01*
X3432843Y-12389942D01*
X3422429Y-12379528D01*
X3412269Y-12374448D01*
X3391441Y-12374448D01*
X3381027Y-12379528D01*
X3370613Y-12389942D01*
X3365279Y-12400356D01*
X3360199Y-12416104D01*
X3360199Y-12442012D01*
X3365279Y-12457506D01*
X3370613Y-12467920D01*
X3381027Y-12478334D01*
X3391441Y-12483414D01*
X3412269Y-12483414D01*
X3422429Y-12478334D01*
X3432843Y-12467920D01*
X3438177Y-12457506D01*
X3534697Y-12374448D02*
G01*
X3482881Y-12374448D01*
X3477547Y-12421184D01*
X3482881Y-12416104D01*
X3498375Y-12410770D01*
X3513869Y-12410770D01*
X3529617Y-12416104D01*
X3540031Y-12426264D01*
X3545111Y-12442012D01*
X3545111Y-12452426D01*
X3540031Y-12467920D01*
X3529617Y-12478334D01*
X3513869Y-12483414D01*
X3498375Y-12483414D01*
X3482881Y-12478334D01*
X3477547Y-12473254D01*
X3472467Y-12462840D01*
X2043381Y-11164067D02*
G01*
X2038047Y-11153653D01*
X2027633Y-11143239D01*
X2017473Y-11138159D01*
X1996645Y-11138159D01*
X1986231Y-11143239D01*
X1975817Y-11153653D01*
X1970483Y-11164067D01*
X1965403Y-11179815D01*
X1965403Y-11205723D01*
X1970483Y-11221217D01*
X1975817Y-11231631D01*
X1986231Y-11242045D01*
X1996645Y-11247125D01*
X2017473Y-11247125D01*
X2027633Y-11242045D01*
X2038047Y-11231631D01*
X2043381Y-11221217D01*
X2103579Y-11138159D02*
G01*
X2088085Y-11143239D01*
X2082751Y-11153653D01*
X2082751Y-11164067D01*
X2088085Y-11174481D01*
X2098499Y-11179815D01*
X2119073Y-11184895D01*
X2134821Y-11189975D01*
X2145235Y-11200389D01*
X2150315Y-11210803D01*
X2150315Y-11226551D01*
X2145235Y-11236965D01*
X2139901Y-11242045D01*
X2124407Y-11247125D01*
X2103579Y-11247125D01*
X2088085Y-11242045D01*
X2082751Y-11236965D01*
X2077671Y-11226551D01*
X2077671Y-11210803D01*
X2082751Y-11200389D01*
X2093165Y-11189975D01*
X2108913Y-11184895D01*
X2129487Y-11179815D01*
X2139901Y-11174481D01*
X2145235Y-11164067D01*
X2145235Y-11153653D01*
X2139901Y-11143239D01*
X2124407Y-11138159D01*
X2103579Y-11138159D01*
X3438177Y-12558859D02*
G01*
X3432843Y-12548445D01*
X3422429Y-12538031D01*
X3412269Y-12532951D01*
X3391441Y-12532951D01*
X3381027Y-12538031D01*
X3370613Y-12548445D01*
X3365279Y-12558859D01*
X3360199Y-12574607D01*
X3360199Y-12600515D01*
X3365279Y-12616009D01*
X3370613Y-12626423D01*
X3381027Y-12636837D01*
X3391441Y-12641917D01*
X3412269Y-12641917D01*
X3422429Y-12636837D01*
X3432843Y-12626423D01*
X3438177Y-12616009D01*
X3472467Y-12553779D02*
G01*
X3482881Y-12548445D01*
X3498375Y-12532951D01*
X3498375Y-12641917D01*
X3563907Y-12532951D02*
G01*
X3548159Y-12538031D01*
X3537999Y-12553779D01*
X3532665Y-12579687D01*
X3532665Y-12595181D01*
X3537999Y-12621343D01*
X3548159Y-12636837D01*
X3563907Y-12641917D01*
X3574321Y-12641917D01*
X3589815Y-12636837D01*
X3600229Y-12621343D01*
X3605309Y-12595181D01*
X3605309Y-12579687D01*
X3600229Y-12553779D01*
X3589815Y-12538031D01*
X3574321Y-12532951D01*
X3563907Y-12532951D01*
X1948281Y-10973869D02*
G01*
X1942947Y-10963455D01*
X1932533Y-10953041D01*
X1922373Y-10947961D01*
X1901545Y-10947961D01*
X1891131Y-10953041D01*
X1880717Y-10963455D01*
X1875383Y-10973869D01*
X1870303Y-10989617D01*
X1870303Y-11015525D01*
X1875383Y-11031019D01*
X1880717Y-11041433D01*
X1891131Y-11051847D01*
X1901545Y-11056927D01*
X1922373Y-11056927D01*
X1932533Y-11051847D01*
X1942947Y-11041433D01*
X1948281Y-11031019D01*
X1982571Y-10968789D02*
G01*
X1992985Y-10963455D01*
X2008479Y-10947961D01*
X2008479Y-11056927D01*
X2042769Y-10968789D02*
G01*
X2053183Y-10963455D01*
X2068677Y-10947961D01*
X2068677Y-11056927D01*
X2112398Y-10429265D02*
G01*
X2003432Y-10429265D01*
X2112398Y-10429265D02*
G01*
X2112398Y-10465587D01*
X2107318Y-10481335D01*
X2096904Y-10491495D01*
X2086490Y-10496829D01*
X2070742Y-10501909D01*
X2044834Y-10501909D01*
X2029340Y-10496829D01*
X2018926Y-10491495D01*
X2008512Y-10481335D01*
X2003432Y-10465587D01*
X2003432Y-10429265D01*
X2086490Y-10541533D02*
G01*
X2091570Y-10541533D01*
X2101984Y-10546613D01*
X2107318Y-10551947D01*
X2112398Y-10562361D01*
X2112398Y-10582935D01*
X2107318Y-10593349D01*
X2101984Y-10598683D01*
X2091570Y-10603763D01*
X2081156Y-10603763D01*
X2070742Y-10598683D01*
X2055248Y-10588269D01*
X2003432Y-10536199D01*
X2003432Y-10609097D01*
X2683019Y-9890371D02*
G01*
X2574053Y-9890371D01*
X2683019Y-9890371D02*
G01*
X2683019Y-9937107D01*
X2677939Y-9952601D01*
X2672605Y-9957935D01*
X2662191Y-9963015D01*
X2651777Y-9963015D01*
X2641363Y-9957935D01*
X2636283Y-9952601D01*
X2631203Y-9937107D01*
X2631203Y-9890371D01*
X2631203Y-9926693D02*
G01*
X2574053Y-9963015D01*
X2657111Y-10002639D02*
G01*
X2662191Y-10002639D01*
X2672605Y-10007719D01*
X2677939Y-10013053D01*
X2683019Y-10023467D01*
X2683019Y-10044041D01*
X2677939Y-10054455D01*
X2672605Y-10059789D01*
X2662191Y-10064869D01*
X2651777Y-10064869D01*
X2641363Y-10059789D01*
X2625869Y-10049375D01*
X2574053Y-9997305D01*
X2574053Y-10070203D01*
X2345796Y-12723162D02*
G01*
X2345796Y-12832128D01*
X2345796Y-12723162D02*
G01*
X2392532Y-12723162D01*
X2408026Y-12728242D01*
X2413360Y-12733576D01*
X2418440Y-12743990D01*
X2418440Y-12754404D01*
X2413360Y-12764818D01*
X2408026Y-12769898D01*
X2392532Y-12774978D01*
X2345796Y-12774978D01*
X2382118Y-12774978D02*
G01*
X2418440Y-12832128D01*
X2515214Y-12723162D02*
G01*
X2463144Y-12723162D01*
X2458064Y-12769898D01*
X2463144Y-12764818D01*
X2478892Y-12759484D01*
X2494386Y-12759484D01*
X2509880Y-12764818D01*
X2520294Y-12774978D01*
X2525628Y-12790726D01*
X2525628Y-12801140D01*
X2520294Y-12816634D01*
X2509880Y-12827048D01*
X2494386Y-12832128D01*
X2478892Y-12832128D01*
X2463144Y-12827048D01*
X2458064Y-12821968D01*
X2452730Y-12811554D01*
X2270922Y-13155470D02*
G01*
X2161956Y-13155470D01*
X2270922Y-13155470D02*
G01*
X2270922Y-13202206D01*
X2265842Y-13217700D01*
X2260508Y-13223034D01*
X2250094Y-13228114D01*
X2239680Y-13228114D01*
X2229266Y-13223034D01*
X2224186Y-13217700D01*
X2219106Y-13202206D01*
X2219106Y-13155470D01*
X2219106Y-13191792D02*
G01*
X2161956Y-13228114D01*
X2255428Y-13324888D02*
G01*
X2265842Y-13319554D01*
X2270922Y-13304060D01*
X2270922Y-13293646D01*
X2265842Y-13278152D01*
X2250094Y-13267738D01*
X2224186Y-13262404D01*
X2198278Y-13262404D01*
X2177450Y-13267738D01*
X2167036Y-13278152D01*
X2161956Y-13293646D01*
X2161956Y-13298980D01*
X2167036Y-13314474D01*
X2177450Y-13324888D01*
X2192944Y-13329968D01*
X2198278Y-13329968D01*
X2213772Y-13324888D01*
X2224186Y-13314474D01*
X2229266Y-13298980D01*
X2229266Y-13293646D01*
X2224186Y-13278152D01*
X2213772Y-13267738D01*
X2198278Y-13262404D01*
X3391893Y-9458065D02*
G01*
X3391893Y-9567031D01*
X3391893Y-9458065D02*
G01*
X3438629Y-9458065D01*
X3454123Y-9463145D01*
X3459457Y-9468479D01*
X3464537Y-9478893D01*
X3464537Y-9489307D01*
X3459457Y-9499721D01*
X3454123Y-9504801D01*
X3438629Y-9509881D01*
X3391893Y-9509881D01*
X3428215Y-9509881D02*
G01*
X3464537Y-9567031D01*
X3566391Y-9494387D02*
G01*
X3561311Y-9509881D01*
X3550897Y-9520295D01*
X3535403Y-9525629D01*
X3530069Y-9525629D01*
X3514575Y-9520295D01*
X3504161Y-9509881D01*
X3498827Y-9494387D01*
X3498827Y-9489307D01*
X3504161Y-9473559D01*
X3514575Y-9463145D01*
X3530069Y-9458065D01*
X3535403Y-9458065D01*
X3550897Y-9463145D01*
X3561311Y-9473559D01*
X3566391Y-9494387D01*
X3566391Y-9520295D01*
X3561311Y-9546457D01*
X3550897Y-9561951D01*
X3535403Y-9567031D01*
X3524989Y-9567031D01*
X3509241Y-9561951D01*
X3504161Y-9551537D01*
X3887609Y-9636780D02*
G01*
X3778643Y-9636780D01*
X3887609Y-9636780D02*
G01*
X3887609Y-9683516D01*
X3882529Y-9699010D01*
X3877195Y-9704344D01*
X3866781Y-9709424D01*
X3856367Y-9709424D01*
X3845953Y-9704344D01*
X3840873Y-9699010D01*
X3835793Y-9683516D01*
X3835793Y-9636780D01*
X3835793Y-9673102D02*
G01*
X3778643Y-9709424D01*
X3866781Y-9743714D02*
G01*
X3872115Y-9754128D01*
X3887609Y-9769876D01*
X3778643Y-9769876D01*
X3887609Y-9835154D02*
G01*
X3882529Y-9819660D01*
X3866781Y-9809246D01*
X3840873Y-9804166D01*
X3825379Y-9804166D01*
X3799217Y-9809246D01*
X3783723Y-9819660D01*
X3778643Y-9835154D01*
X3778643Y-9845568D01*
X3783723Y-9861316D01*
X3799217Y-9871730D01*
X3825379Y-9876810D01*
X3840873Y-9876810D01*
X3866781Y-9871730D01*
X3882529Y-9861316D01*
X3887609Y-9845568D01*
X3887609Y-9835154D01*
X2020968Y-12089142D02*
G01*
X2020968Y-12198108D01*
X2020968Y-12089142D02*
G01*
X2067704Y-12089142D01*
X2083198Y-12094222D01*
X2088532Y-12099556D01*
X2093612Y-12109970D01*
X2093612Y-12120384D01*
X2088532Y-12130798D01*
X2083198Y-12135878D01*
X2067704Y-12140958D01*
X2020968Y-12140958D01*
X2057290Y-12140958D02*
G01*
X2093612Y-12198108D01*
X2127902Y-12109970D02*
G01*
X2138316Y-12104636D01*
X2154064Y-12089142D01*
X2154064Y-12198108D01*
X2188354Y-12109970D02*
G01*
X2198768Y-12104636D01*
X2214262Y-12089142D01*
X2214262Y-12198108D01*
X2916394Y-11138161D02*
G01*
X2916394Y-11247127D01*
X2916394Y-11138161D02*
G01*
X2963130Y-11138161D01*
X2978624Y-11143241D01*
X2983958Y-11148575D01*
X2989038Y-11158989D01*
X2989038Y-11169403D01*
X2983958Y-11179817D01*
X2978624Y-11184897D01*
X2963130Y-11189977D01*
X2916394Y-11189977D01*
X2952716Y-11189977D02*
G01*
X2989038Y-11247127D01*
X3023328Y-11158989D02*
G01*
X3033742Y-11153655D01*
X3049490Y-11138161D01*
X3049490Y-11247127D01*
X3094194Y-11138161D02*
G01*
X3151344Y-11138161D01*
X3120102Y-11179817D01*
X3135596Y-11179817D01*
X3146010Y-11184897D01*
X3151344Y-11189977D01*
X3156424Y-11205725D01*
X3156424Y-11216139D01*
X3151344Y-11231633D01*
X3140930Y-11242047D01*
X3125182Y-11247127D01*
X3109688Y-11247127D01*
X3094194Y-11242047D01*
X3088860Y-11236967D01*
X3083780Y-11226553D01*
X2999993Y-10682866D02*
G01*
X2891027Y-10682866D01*
X2999993Y-10682866D02*
G01*
X2999993Y-10729602D01*
X2994913Y-10745096D01*
X2989579Y-10750430D01*
X2979165Y-10755510D01*
X2968752Y-10755510D01*
X2958338Y-10750430D01*
X2953258Y-10745096D01*
X2948177Y-10729602D01*
X2948177Y-10682866D01*
X2948177Y-10719188D02*
G01*
X2891027Y-10755510D01*
X2999993Y-10841870D02*
G01*
X2927350Y-10789800D01*
X2927350Y-10867778D01*
X2999993Y-10841870D02*
G01*
X2891027Y-10841870D01*
X3931140Y-11348471D02*
G01*
X3822174Y-11348471D01*
X3931140Y-11348471D02*
G01*
X3931140Y-11385047D01*
X3926060Y-11400541D01*
X3915646Y-11410955D01*
X3905232Y-11416035D01*
X3889738Y-11421369D01*
X3863830Y-11421369D01*
X3848082Y-11416035D01*
X3837668Y-11410955D01*
X3827254Y-11400541D01*
X3822174Y-11385047D01*
X3822174Y-11348471D01*
X3910566Y-11455659D02*
G01*
X3915646Y-11466073D01*
X3931140Y-11481567D01*
X3822174Y-11481567D01*
X3296777Y-11359974D02*
G01*
X3296777Y-11437952D01*
X3302111Y-11453446D01*
X3312271Y-11463860D01*
X3328019Y-11469194D01*
X3338433Y-11469194D01*
X3353927Y-11463860D01*
X3364341Y-11453446D01*
X3369421Y-11437952D01*
X3369421Y-11359974D01*
X3414125Y-11359974D02*
G01*
X3471275Y-11359974D01*
X3440287Y-11401630D01*
X3455781Y-11401630D01*
X3466195Y-11406710D01*
X3471275Y-11412044D01*
X3476609Y-11427538D01*
X3476609Y-11437952D01*
X3471275Y-11453446D01*
X3460861Y-11463860D01*
X3445367Y-11469194D01*
X3429873Y-11469194D01*
X3414125Y-11463860D01*
X3409045Y-11458780D01*
X3403711Y-11448366D01*
X2683004Y-10841367D02*
G01*
X2605026Y-10841367D01*
X2589532Y-10846447D01*
X2579118Y-10856861D01*
X2574038Y-10872609D01*
X2574038Y-10883023D01*
X2579118Y-10898517D01*
X2589532Y-10908931D01*
X2605026Y-10914011D01*
X2683004Y-10914011D01*
X2662176Y-10948301D02*
G01*
X2667510Y-10958715D01*
X2683004Y-10974463D01*
X2574038Y-10974463D01*
G36*
X3773627Y-11248491D02*
G01*
X3773627Y-11278971D01*
X3803142Y-11278971D01*
X3803142Y-11248491D01*
G37*
G36*
X3614674Y-11248491D02*
G01*
X3614674Y-11278971D01*
X3644137Y-11278971D01*
X3644137Y-11248491D01*
G37*
D16*
X1585005Y-9668482D02*
G01*
X1743499Y-9668482D01*
X1585000Y-9668479D02*
G01*
X1584998Y-10080579D01*
X1584998Y-10080579D02*
G01*
X1743491Y-10080579D01*
X1585008Y-11411973D02*
G01*
X1743501Y-11411973D01*
X1585000Y-11443672D02*
G01*
X1585000Y-11919173D01*
X1711802Y-11919173D02*
G01*
X1743501Y-11919173D01*
X1585008Y-11919173D02*
G01*
X1711802Y-11919173D01*
X1585000Y-11443672D02*
G01*
X1585000Y-11411973D01*
D17*
X3930792Y-8717483D02*
G01*
X1584998Y-8717483D01*
D16*
X3930792Y-11126678D02*
G01*
X3772293Y-11126678D01*
X3930792Y-11126678D02*
G01*
X3930792Y-10365879D01*
X3772293Y-10365879D01*
D14*
X3573012Y-9768319D02*
G01*
X3432012Y-9768319D01*
X3432012Y-9949040D02*
G01*
X3573012Y-9949040D01*
X3588252Y-9933800D02*
G01*
X3588252Y-9783559D01*
X3210773Y-9768319D02*
G01*
X3351773Y-9768319D01*
X3351773Y-9949040D02*
G01*
X3210773Y-9949040D01*
X3195533Y-9933800D02*
G01*
X3195533Y-9783559D01*
D18*
X3612057Y-9921712D02*
G01*
X3612057Y-9997912D01*
X3612057Y-10174714D02*
G01*
X3612057Y-10098514D01*
X3744178Y-10174714D02*
G01*
X3744178Y-10098514D01*
D14*
X3744178Y-10174714D02*
G01*
X3728935Y-10189944D01*
X3627292Y-10189944D01*
X3612057Y-10174714D01*
D18*
X3744178Y-9921712D02*
G01*
X3744178Y-9997912D01*
D14*
X3612057Y-9921712D02*
G01*
X3627292Y-9906469D01*
X3728935Y-9906469D01*
X3744178Y-9921712D01*
D19*
X3699499Y-11685501D02*
G01*
X3699499Y-11664881D01*
X3284255Y-11664881D01*
X3284499Y-11684500D01*
X3285500Y-12064499D02*
G01*
X3285490Y-12084050D01*
X3700779Y-12084050D01*
X3700500Y-12062500D01*
D20*
X2123894Y-9992179D02*
G01*
X2123894Y-9788979D01*
X2225494Y-9890579D02*
G01*
X2022294Y-9890579D01*
X2479494Y-9788979D02*
G01*
X2479494Y-10195379D01*
X2479494Y-10246179D01*
X2428694Y-10246179D01*
X2428694Y-10195379D01*
X2327094Y-10195379D01*
X2327094Y-10246179D01*
X2174694Y-10246179D01*
X2174694Y-10195379D01*
X2073094Y-10195379D01*
X2073094Y-10246179D01*
X1920694Y-10246179D01*
X1920694Y-10195379D01*
X1819094Y-10195379D01*
X1819094Y-10246179D01*
X1768294Y-10246179D01*
X1768294Y-10195379D01*
X1768294Y-9839779D01*
X1768294Y-9534979D01*
X2479494Y-9534979D01*
X2479494Y-9839779D01*
D14*
X2565034Y-10598701D02*
G01*
X2565034Y-10694588D01*
X2697154Y-10694588D01*
X2697154Y-10598701D01*
X2565034Y-10513458D02*
G01*
X2565034Y-10417571D01*
X2697154Y-10417571D01*
X2697154Y-10513458D01*
X2515222Y-12365631D02*
G01*
X2611109Y-12365631D01*
X2611109Y-12233511D01*
X2515222Y-12233511D01*
X2429979Y-12365631D02*
G01*
X2334092Y-12365631D01*
X2334092Y-12233511D01*
X2429979Y-12233511D01*
D20*
X3182195Y-12037697D02*
G01*
X3182195Y-12117699D01*
X3071220Y-12006712D02*
G01*
X3151217Y-12006712D01*
X3071220Y-12148677D02*
G01*
X3151217Y-12148677D01*
X3013631Y-12006130D02*
G01*
X2933631Y-12006130D01*
X2902648Y-12037113D02*
G01*
X2902648Y-12117110D01*
X3013631Y-12148091D02*
G01*
X2933631Y-12148091D01*
X3245675Y-9628532D02*
G01*
X3245675Y-9708535D01*
X3134700Y-9597547D02*
G01*
X3214697Y-9597547D01*
X3134700Y-9739513D02*
G01*
X3214697Y-9739513D01*
X3077110Y-9596965D02*
G01*
X2997111Y-9596965D01*
X2966128Y-9627948D02*
G01*
X2966128Y-9707946D01*
X3077110Y-9738926D02*
G01*
X2997111Y-9738926D01*
D14*
X1909495Y-12706791D02*
G01*
X2084735Y-12706791D01*
X2084735Y-12602631D01*
X1909495Y-12399553D02*
G01*
X2084735Y-12399553D01*
X2084735Y-12503713D01*
X1909495Y-12598712D02*
G01*
X1909495Y-12507633D01*
D20*
X3009579Y-9193276D02*
G01*
X2249931Y-9193276D01*
X2249931Y-8939276D01*
X3265931Y-8939276D01*
X3265931Y-9193276D01*
X3009579Y-9193276D01*
X3009579Y-9193276D02*
G01*
X3009579Y-8939276D01*
X2506245Y-13472271D02*
G01*
X3265893Y-13472271D01*
X3265893Y-13726271D01*
X2249893Y-13726271D01*
X2249893Y-13472271D01*
X2506245Y-13472271D01*
X2506245Y-13472271D02*
G01*
X2506245Y-13726271D01*
D19*
X2568346Y-13165129D02*
G01*
X2568346Y-13166125D01*
X2535341Y-13199130D01*
X2500342Y-13165129D02*
G01*
X2501341Y-13165129D01*
X2535341Y-13199130D01*
X2500342Y-13165129D02*
G01*
X2568346Y-13165129D01*
X2460335Y-13163125D02*
G01*
X2460335Y-13048124D01*
X2610347Y-13163125D02*
G01*
X2610347Y-13048124D01*
X2460345Y-13048124D02*
G01*
X2608338Y-13048124D01*
X2610578Y-13201126D02*
G01*
X2610578Y-13306137D01*
X2570571Y-13336132D02*
G01*
X2580573Y-13336132D01*
X2610578Y-13306137D01*
X2500576Y-13336132D02*
G01*
X2570571Y-13336132D01*
X2500576Y-13336132D02*
G01*
X2490561Y-13336132D01*
X2460566Y-13306137D01*
X2460566Y-13201126D02*
G01*
X2460566Y-13306137D01*
X2535341Y-13165129D02*
G01*
X2535341Y-13199130D01*
D14*
X3573012Y-9958519D02*
G01*
X3432012Y-9958519D01*
X3432012Y-10139240D02*
G01*
X3573012Y-10139240D01*
X3588252Y-10124000D02*
G01*
X3588252Y-9973759D01*
X3210773Y-9958519D02*
G01*
X3351773Y-9958519D01*
X3351773Y-10139240D02*
G01*
X3210773Y-10139240D01*
X3195533Y-10124000D02*
G01*
X3195533Y-9973759D01*
X3256013Y-9387921D02*
G01*
X3115012Y-9387921D01*
X3115012Y-9568642D02*
G01*
X3256013Y-9568642D01*
X3271253Y-9553402D02*
G01*
X3271253Y-9403161D01*
X2893773Y-9387921D02*
G01*
X3034774Y-9387921D01*
X3034774Y-9568642D02*
G01*
X2893773Y-9568642D01*
X2878533Y-9553402D02*
G01*
X2878533Y-9403161D01*
D20*
X3245594Y-13210595D02*
G01*
X3245594Y-13290598D01*
X3134619Y-13179610D02*
G01*
X3214616Y-13179610D01*
X3134619Y-13321576D02*
G01*
X3214616Y-13321576D01*
X3077029Y-13179028D02*
G01*
X2997029Y-13179028D01*
X2966046Y-13210011D02*
G01*
X2966046Y-13290008D01*
X3077029Y-13320989D02*
G01*
X2997029Y-13320989D01*
D18*
X3041456Y-11696908D02*
G01*
X3041456Y-11773108D01*
X3041456Y-11949910D02*
G01*
X3041456Y-11873710D01*
X3173577Y-11949910D02*
G01*
X3173577Y-11873710D01*
D14*
X3173577Y-11949910D02*
G01*
X3158335Y-11965139D01*
X3056691Y-11965139D01*
X3041456Y-11949910D01*
D18*
X3173577Y-11696908D02*
G01*
X3173577Y-11773108D01*
D14*
X3041456Y-11696908D02*
G01*
X3056691Y-11681665D01*
X3158335Y-11681665D01*
X3173577Y-11696908D01*
D18*
X3266828Y-13124141D02*
G01*
X3266828Y-13047941D01*
X3266828Y-12871140D02*
G01*
X3266828Y-12947340D01*
X3134707Y-12871140D02*
G01*
X3134707Y-12947340D01*
D14*
X3134707Y-12871140D02*
G01*
X3149950Y-12855910D01*
X3251593Y-12855910D01*
X3266828Y-12871140D01*
D18*
X3134707Y-13124141D02*
G01*
X3134707Y-13047941D01*
D14*
X3266828Y-13124141D02*
G01*
X3251593Y-13139384D01*
X3149950Y-13139384D01*
X3134707Y-13124141D01*
X3466213Y-10305140D02*
G01*
X3562101Y-10305140D01*
X3562101Y-10173020D01*
X3466213Y-10173020D01*
X3380971Y-10305140D02*
G01*
X3285083Y-10305140D01*
X3285083Y-10173020D01*
X3380971Y-10173020D01*
X1804240Y-12247095D02*
G01*
X1804240Y-12342982D01*
X1936361Y-12342982D01*
X1936361Y-12247095D01*
X1804240Y-12161852D02*
G01*
X1804240Y-12065965D01*
X1936361Y-12065965D01*
X1936361Y-12161852D01*
D20*
X2123902Y-11563774D02*
G01*
X2123902Y-11766974D01*
X2022302Y-11665374D02*
G01*
X2225502Y-11665374D01*
X1768302Y-11766974D02*
G01*
X1768302Y-11360574D01*
X1768302Y-11309774D01*
X1819102Y-11309774D01*
X1819102Y-11360574D01*
X1920702Y-11360574D01*
X1920702Y-11309774D01*
X2073102Y-11309774D01*
X2073102Y-11360574D01*
X2174702Y-11360574D01*
X2174702Y-11309774D01*
X2327102Y-11309774D01*
X2327102Y-11360574D01*
X2428702Y-11360574D01*
X2428702Y-11309774D01*
X2479502Y-11309774D01*
X2479502Y-11360574D01*
X2479502Y-11716174D01*
X2479502Y-12020974D01*
X1768302Y-12020974D01*
X1768302Y-11716174D01*
X3182195Y-11530500D02*
G01*
X3182195Y-11610502D01*
X3071220Y-11499514D02*
G01*
X3151217Y-11499514D01*
X3071220Y-11641480D02*
G01*
X3151217Y-11641480D01*
X3013631Y-11498933D02*
G01*
X2933631Y-11498933D01*
X2902648Y-11529915D02*
G01*
X2902648Y-11609913D01*
X3013631Y-11640893D02*
G01*
X2933631Y-11640893D01*
X3030992Y-12783352D02*
G01*
X3030992Y-12703350D01*
X3141967Y-12814338D02*
G01*
X3061970Y-12814338D01*
X3141967Y-12672372D02*
G01*
X3061970Y-12672372D01*
X3199556Y-12814919D02*
G01*
X3279556Y-12814919D01*
X3310539Y-12783936D02*
G01*
X3310539Y-12703939D01*
X3199556Y-12672959D02*
G01*
X3279556Y-12672959D01*
X3030992Y-12466353D02*
G01*
X3030992Y-12386350D01*
X3141967Y-12497338D02*
G01*
X3061970Y-12497338D01*
X3141967Y-12355372D02*
G01*
X3061970Y-12355372D01*
X3199556Y-12497920D02*
G01*
X3279556Y-12497920D01*
X3310539Y-12466937D02*
G01*
X3310539Y-12386939D01*
X3199556Y-12355959D02*
G01*
X3279556Y-12355959D01*
X2175101Y-11230053D02*
G01*
X2175101Y-11150051D01*
X2286076Y-11261039D02*
G01*
X2206078Y-11261039D01*
X2286076Y-11119073D02*
G01*
X2206078Y-11119073D01*
X2343665Y-11261620D02*
G01*
X2423665Y-11261620D01*
X2454648Y-11230637D02*
G01*
X2454648Y-11150640D01*
X2343665Y-11119660D02*
G01*
X2423665Y-11119660D01*
X3030992Y-12624854D02*
G01*
X3030992Y-12544851D01*
X3141967Y-12655839D02*
G01*
X3061970Y-12655839D01*
X3141967Y-12513873D02*
G01*
X3061970Y-12513873D01*
X3199556Y-12656421D02*
G01*
X3279556Y-12656421D01*
X3310539Y-12625438D02*
G01*
X3310539Y-12545440D01*
X3199556Y-12514460D02*
G01*
X3279556Y-12514460D01*
X2136104Y-10801400D02*
G01*
X2136104Y-10881403D01*
X2025129Y-10770415D02*
G01*
X2105126Y-10770415D01*
X2025129Y-10912381D02*
G01*
X2105126Y-10912381D01*
X1967539Y-10769833D02*
G01*
X1887540Y-10769833D01*
X1856557Y-10800816D02*
G01*
X1856557Y-10880813D01*
X1967539Y-10911794D02*
G01*
X1887540Y-10911794D01*
D14*
X2161473Y-10438508D02*
G01*
X2161473Y-10610248D01*
X2264636Y-10610248D01*
X2466715Y-10438508D02*
G01*
X2466715Y-10610248D01*
X2363553Y-10610248D01*
X2268555Y-10438508D02*
G01*
X2359634Y-10438508D01*
X2565034Y-10281701D02*
G01*
X2565034Y-10377589D01*
X2697154Y-10377589D01*
X2697154Y-10281701D01*
X2565034Y-10196459D02*
G01*
X2565034Y-10100571D01*
X2697154Y-10100571D01*
X2697154Y-10196459D01*
X2398273Y-12867512D02*
G01*
X2302385Y-12867512D01*
X2302385Y-12999633D01*
X2398273Y-12999633D01*
X2483515Y-12867512D02*
G01*
X2579403Y-12867512D01*
X2579403Y-12999633D01*
X2483515Y-12999633D01*
X2311435Y-13229793D02*
G01*
X2311435Y-13325680D01*
X2443556Y-13325680D01*
X2443556Y-13229793D01*
X2311435Y-13144550D02*
G01*
X2311435Y-13048663D01*
X2443556Y-13048663D01*
X2443556Y-13144550D01*
X3466213Y-9734539D02*
G01*
X3562101Y-9734539D01*
X3562101Y-9602419D01*
X3466213Y-9602419D01*
X3380971Y-9734539D02*
G01*
X3285083Y-9734539D01*
X3285083Y-9602419D01*
X3380971Y-9602419D01*
X3611133Y-9806200D02*
G01*
X3611133Y-9902088D01*
X3743253Y-9902088D01*
X3743253Y-9806200D01*
X3611133Y-9720958D02*
G01*
X3611133Y-9625070D01*
X3743253Y-9625070D01*
X3743253Y-9720958D01*
X2166523Y-12365631D02*
G01*
X2262411Y-12365631D01*
X2262411Y-12233511D01*
X2166523Y-12233511D01*
X2081281Y-12365631D02*
G01*
X1985393Y-12365631D01*
X1985393Y-12233511D01*
X2081281Y-12233511D01*
X3085815Y-11414638D02*
G01*
X3181703Y-11414638D01*
X3181703Y-11282517D01*
X3085815Y-11282517D01*
X3000573Y-11414638D02*
G01*
X2904685Y-11414638D01*
X2904685Y-11282517D01*
X3000573Y-11282517D01*
D20*
X3493693Y-10746277D02*
G01*
X3290493Y-10746277D01*
X3392093Y-10644677D02*
G01*
X3392093Y-10847877D01*
X3290493Y-10390677D02*
G01*
X3696893Y-10390677D01*
X3747693Y-10390677D01*
X3747693Y-10441477D01*
X3696893Y-10441477D01*
X3696893Y-10543077D01*
X3747693Y-10543077D01*
X3747693Y-10695477D01*
X3696893Y-10695477D01*
X3696893Y-10797077D01*
X3747693Y-10797077D01*
X3747693Y-10949477D01*
X3696893Y-10949477D01*
X3696893Y-11051077D01*
X3747693Y-11051077D01*
X3747693Y-11101877D01*
X3696893Y-11101877D01*
X3341293Y-11101877D01*
X3036493Y-11101877D01*
X3036493Y-10390677D01*
X3341293Y-10390677D01*
D14*
X3795511Y-11271359D02*
G01*
X3795511Y-11552593D01*
X3795511Y-11552593D02*
G01*
X3778712Y-11552593D01*
X3622273Y-11271359D02*
G01*
X3622273Y-11552593D01*
X3622273Y-11552593D02*
G01*
X3639073Y-11552593D01*
X3795511Y-11307046D02*
G01*
X3622273Y-11307046D01*
X3237974Y-11323055D02*
G01*
X3237974Y-11500896D01*
X3545812Y-11323055D02*
G01*
X3545812Y-11500896D01*
D20*
X2287498Y-11059782D02*
G01*
X2467500Y-11059782D01*
X2287498Y-10944783D02*
G01*
X2287498Y-10864781D01*
X2287498Y-10749780D02*
G01*
X2467500Y-10749780D01*
D14*
G75*
G01*
X3573013Y-9949040D02*
G03*
X3588253Y-9933800I0J15240D01*
G75*
G01*
X3588253Y-9783559D02*
G03*
X3573013Y-9768319I-15240J0D01*
G75*
G01*
X3210773Y-9949040D02*
G02*
X3195533Y-9933800I0J15240D01*
G75*
G01*
X3195533Y-9783559D02*
G02*
X3210773Y-9768319I15240J0D01*
D20*
G75*
G01*
X2123895Y-9777042D02*
G03*
X2125927Y-9777042I1016J-113587D01*
G75*
G01*
X2380435Y-9626420D02*
G03*
X2380689Y-9626420I127J-7619D01*
G75*
G01*
X2902643Y-12037113D02*
G02*
X2933626Y-12006130I30983J0D01*
G75*
G01*
X2933626Y-12148096D02*
G02*
X2902643Y-12117111I0J30983D01*
G75*
G01*
X3151213Y-12006712D02*
G02*
X3182196Y-12037698I0J-30983D01*
G75*
G01*
X3182196Y-12117695D02*
G02*
X3151213Y-12148678I-30983J0D01*
G75*
G01*
X2966123Y-9627949D02*
G02*
X2997106Y-9596966I30983J0D01*
G75*
G01*
X2997106Y-9738932D02*
G02*
X2966123Y-9707946I0J30983D01*
G75*
G01*
X3214693Y-9597547D02*
G02*
X3245676Y-9628533I0J-30983D01*
G75*
G01*
X3245676Y-9708530D02*
G02*
X3214693Y-9739513I-30983J0D01*
D14*
G75*
G01*
X3573013Y-10139241D02*
G03*
X3588253Y-10124001I0J15240D01*
G75*
G01*
X3588253Y-9973760D02*
G03*
X3573013Y-9958520I-15240J0D01*
G75*
G01*
X3210773Y-10139241D02*
G02*
X3195533Y-10124001I0J15240D01*
G75*
G01*
X3195533Y-9973760D02*
G02*
X3210773Y-9958520I15240J0D01*
G75*
G01*
X3256013Y-9568642D02*
G03*
X3271253Y-9553402I0J15240D01*
G75*
G01*
X3271253Y-9403161D02*
G03*
X3256013Y-9387921I-15240J0D01*
G75*
G01*
X2893774Y-9568642D02*
G02*
X2878534Y-9553402I0J15240D01*
G75*
G01*
X2878534Y-9403161D02*
G02*
X2893774Y-9387921I15240J0D01*
D20*
G75*
G01*
X2966042Y-13210012D02*
G02*
X2997025Y-13179029I30983J0D01*
G75*
G01*
X2997025Y-13320994D02*
G02*
X2966042Y-13290009I0J30982D01*
G75*
G01*
X3214611Y-13179610D02*
G02*
X3245594Y-13210596I0J-30983D01*
G75*
G01*
X3245594Y-13290593D02*
G02*
X3214611Y-13321576I-30983J0D01*
G75*
G01*
X2123902Y-11778912D02*
G03*
X2121870Y-11778912I-1016J113588D01*
G75*
G01*
X1867362Y-11929534D02*
G03*
X1867108Y-11929534I-127J7619D01*
G75*
G01*
X2902643Y-11529916D02*
G02*
X2933626Y-11498933I30983J0D01*
G75*
G01*
X2933626Y-11640899D02*
G02*
X2902643Y-11609913I0J30983D01*
G75*
G01*
X3151213Y-11499515D02*
G02*
X3182196Y-11530500I0J-30983D01*
G75*
G01*
X3182196Y-11610497D02*
G02*
X3151213Y-11641480I-30983J0D01*
G75*
G01*
X3310545Y-12783937D02*
G02*
X3279562Y-12814920I-30983J0D01*
G75*
G01*
X3279562Y-12672954D02*
G02*
X3310545Y-12703940I0J-30983D01*
G75*
G01*
X3061975Y-12814338D02*
G02*
X3030992Y-12783353I0J30983D01*
G75*
G01*
X3030992Y-12703355D02*
G02*
X3061975Y-12672372I30983J0D01*
G75*
G01*
X3310545Y-12466937D02*
G02*
X3279562Y-12497920I-30983J0D01*
G75*
G01*
X3279562Y-12355954D02*
G02*
X3310545Y-12386940I0J-30983D01*
G75*
G01*
X3061975Y-12497338D02*
G02*
X3030992Y-12466353I0J30982D01*
G75*
G01*
X3030992Y-12386356D02*
G02*
X3061975Y-12355373I30983J0D01*
G75*
G01*
X2454653Y-11230638D02*
G02*
X2423671Y-11261621I-30982J0D01*
G75*
G01*
X2423671Y-11119655D02*
G02*
X2454653Y-11150641I0J-30983D01*
G75*
G01*
X2206084Y-11261039D02*
G02*
X2175101Y-11230054I0J30983D01*
G75*
G01*
X2175101Y-11150056D02*
G02*
X2206084Y-11119074I30983J0D01*
G75*
G01*
X3310545Y-12625438D02*
G02*
X3279562Y-12656421I-30983J0D01*
G75*
G01*
X3279562Y-12514456D02*
G02*
X3310545Y-12545441I0J-30982D01*
G75*
G01*
X3061975Y-12655840D02*
G02*
X3030992Y-12624854I0J30983D01*
G75*
G01*
X3030992Y-12544857D02*
G02*
X3061975Y-12513874I30983J0D01*
G75*
G01*
X1856552Y-10800817D02*
G02*
X1887535Y-10769834I30983J0D01*
G75*
G01*
X1887535Y-10911799D02*
G02*
X1856552Y-10880814I0J30983D01*
G75*
G01*
X2105122Y-10770415D02*
G02*
X2136104Y-10801401I0J-30983D01*
G75*
G01*
X2136104Y-10881398D02*
G02*
X2105122Y-10912381I-30982J0D01*
G75*
G01*
X3278556Y-10746278D02*
G03*
X3278556Y-10744246I113588J1016D01*
G75*
G01*
X3127934Y-10489738D02*
G03*
X3127934Y-10489484I7619J127D01*
D17*
G75*
G01
X3573729Y-11281816D02*
G03X3573729Y-11281816I-15011J0D01*
D20*
G75*
G01
X2542565Y-11069904D02*
G03X2542565Y-11069904I-12700J0D01*
X2187295Y-4311192D02*
G01*
X3360191Y-4311192D01*
X3360191Y-8445500D01*
X2187295Y-8445500D01*
X2187295Y-4311192D01*
M02*
