G04 Layer: BottomLayer*
G04 EasyEDA v6.5.22, 2023-03-08 13:41:41*
G04 390c6d156fdc4d62a17363b05527c9d0,9a5be75d700b4a6385dc1106f27949ae,10*
G04 Gerber Generator version 0.2*
G04 Scale: 100 percent, Rotated: No, Reflected: No *
G04 Dimensions in millimeters *
G04 leading zeros omitted , absolute positions ,4 integer and 5 decimal *
%FSLAX45Y45*%
%MOMM*%

%ADD10C,0.4000*%
%ADD11C,1.8000*%
%ADD12R,1.7000X1.7000*%
%ADD13C,1.7000*%
%ADD14C,5.0000*%
%ADD15C,0.8100*%
%ADD16C,0.6096*%
%ADD17C,0.0127*%

%LPD*%
G36*
X1710791Y-13939164D02*
G01*
X1696669Y-13938453D01*
X1682191Y-13936268D01*
X1667967Y-13932662D01*
X1654098Y-13927632D01*
X1640839Y-13921282D01*
X1628241Y-13913713D01*
X1616456Y-13904874D01*
X1605584Y-13894968D01*
X1595729Y-13884046D01*
X1587042Y-13872210D01*
X1579473Y-13859560D01*
X1573225Y-13846251D01*
X1568348Y-13832382D01*
X1564792Y-13818057D01*
X1562709Y-13803477D01*
X1562100Y-13789456D01*
X1562100Y-8791041D01*
X1562862Y-8787130D01*
X1565097Y-8783878D01*
X1568399Y-8781643D01*
X1572260Y-8780881D01*
X3948836Y-8780881D01*
X3952748Y-8781643D01*
X3956050Y-8783878D01*
X3958234Y-8787180D01*
X3958996Y-8791041D01*
X3953662Y-13789406D01*
X3953001Y-13804493D01*
X3950766Y-13819073D01*
X3947160Y-13833297D01*
X3942130Y-13847165D01*
X3935831Y-13860424D01*
X3928211Y-13873022D01*
X3919423Y-13884808D01*
X3909466Y-13895679D01*
X3898544Y-13905534D01*
X3886708Y-13914272D01*
X3874058Y-13921790D01*
X3860749Y-13928039D01*
X3846880Y-13932916D01*
X3832606Y-13936472D01*
X3818026Y-13938554D01*
X3805631Y-13939164D01*
G37*

%LPC*%
G36*
X1707235Y-13910411D02*
G01*
X1707235Y-13794028D01*
X1590852Y-13794028D01*
X1591919Y-13796162D01*
X1603806Y-13816076D01*
X1617268Y-13834973D01*
X1632254Y-13852651D01*
X1648612Y-13869060D01*
X1666341Y-13884046D01*
X1685188Y-13897508D01*
X1705102Y-13909395D01*
G37*
G36*
X1969973Y-13910411D02*
G01*
X1972106Y-13909395D01*
X1992020Y-13897508D01*
X2010918Y-13884046D01*
X2028596Y-13869060D01*
X2044954Y-13852651D01*
X2059939Y-13834973D01*
X2073452Y-13816076D01*
X2085289Y-13796162D01*
X2086356Y-13794028D01*
X1969973Y-13794028D01*
G37*
G36*
X3545840Y-13910411D02*
G01*
X3545840Y-13794028D01*
X3429457Y-13794028D01*
X3430524Y-13796162D01*
X3442360Y-13816076D01*
X3455873Y-13834973D01*
X3470859Y-13852651D01*
X3487216Y-13869060D01*
X3504946Y-13884046D01*
X3523792Y-13897508D01*
X3543706Y-13909395D01*
G37*
G36*
X3808577Y-13910411D02*
G01*
X3810711Y-13909395D01*
X3830624Y-13897508D01*
X3849471Y-13884046D01*
X3867200Y-13869060D01*
X3883558Y-13852651D01*
X3898544Y-13834973D01*
X3912006Y-13816076D01*
X3923893Y-13796162D01*
X3924960Y-13794028D01*
X3808577Y-13794028D01*
G37*
G36*
X2292400Y-13714780D02*
G01*
X2461412Y-13714780D01*
X2467813Y-13714120D01*
X2473553Y-13712393D01*
X2478836Y-13709599D01*
X2483408Y-13705789D01*
X2487218Y-13701217D01*
X2490012Y-13695934D01*
X2491740Y-13690193D01*
X2492400Y-13683792D01*
X2492400Y-13514781D01*
X2491740Y-13508329D01*
X2490012Y-13502640D01*
X2487218Y-13497356D01*
X2483408Y-13492734D01*
X2478836Y-13488924D01*
X2473553Y-13486130D01*
X2467813Y-13484402D01*
X2461412Y-13483742D01*
X2292400Y-13483742D01*
X2285949Y-13484402D01*
X2280259Y-13486130D01*
X2274976Y-13488924D01*
X2270353Y-13492734D01*
X2266594Y-13497356D01*
X2263749Y-13502640D01*
X2262022Y-13508329D01*
X2261412Y-13514781D01*
X2261412Y-13683792D01*
X2262022Y-13690193D01*
X2263749Y-13695934D01*
X2266594Y-13701217D01*
X2270353Y-13705789D01*
X2274976Y-13709599D01*
X2280259Y-13712393D01*
X2285949Y-13714120D01*
G37*
G36*
X2877667Y-13714526D02*
G01*
X2892145Y-13714526D01*
X2906522Y-13712698D01*
X2920593Y-13709091D01*
X2934055Y-13703757D01*
X2946755Y-13696797D01*
X2958490Y-13688263D01*
X2969056Y-13678306D01*
X2978302Y-13667130D01*
X2986074Y-13654887D01*
X2992272Y-13641781D01*
X2996742Y-13628014D01*
X2999486Y-13613739D01*
X3000400Y-13599261D01*
X2999486Y-13584783D01*
X2996742Y-13570559D01*
X2992272Y-13556742D01*
X2986074Y-13543635D01*
X2978302Y-13531392D01*
X2969056Y-13520216D01*
X2958490Y-13510310D01*
X2946755Y-13501776D01*
X2934055Y-13494766D01*
X2920593Y-13489432D01*
X2906522Y-13485825D01*
X2892145Y-13483996D01*
X2877667Y-13483996D01*
X2863240Y-13485825D01*
X2849219Y-13489432D01*
X2835706Y-13494766D01*
X2823006Y-13501776D01*
X2811272Y-13510310D01*
X2800705Y-13520216D01*
X2791460Y-13531392D01*
X2783687Y-13543635D01*
X2777540Y-13556742D01*
X2773019Y-13570559D01*
X2770327Y-13584783D01*
X2769412Y-13599261D01*
X2770327Y-13613739D01*
X2773019Y-13628014D01*
X2777540Y-13641781D01*
X2783687Y-13654887D01*
X2791460Y-13667130D01*
X2800705Y-13678306D01*
X2811272Y-13688263D01*
X2823006Y-13696797D01*
X2835706Y-13703757D01*
X2849219Y-13709091D01*
X2863240Y-13712698D01*
G37*
G36*
X3131667Y-13714526D02*
G01*
X3146145Y-13714526D01*
X3160522Y-13712698D01*
X3174593Y-13709091D01*
X3188055Y-13703757D01*
X3200755Y-13696797D01*
X3212490Y-13688263D01*
X3223056Y-13678306D01*
X3232302Y-13667130D01*
X3240074Y-13654887D01*
X3246272Y-13641781D01*
X3250742Y-13628014D01*
X3253486Y-13613739D01*
X3254400Y-13599261D01*
X3253486Y-13584783D01*
X3250742Y-13570559D01*
X3246272Y-13556742D01*
X3240074Y-13543635D01*
X3232302Y-13531392D01*
X3223056Y-13520216D01*
X3212490Y-13510310D01*
X3200755Y-13501776D01*
X3188055Y-13494766D01*
X3174593Y-13489432D01*
X3160522Y-13485825D01*
X3146145Y-13483996D01*
X3131667Y-13483996D01*
X3117240Y-13485825D01*
X3103219Y-13489432D01*
X3089706Y-13494766D01*
X3077006Y-13501776D01*
X3065272Y-13510310D01*
X3054705Y-13520216D01*
X3045460Y-13531392D01*
X3037687Y-13543635D01*
X3031540Y-13556742D01*
X3027019Y-13570559D01*
X3024327Y-13584783D01*
X3023412Y-13599261D01*
X3024327Y-13613739D01*
X3027019Y-13628014D01*
X3031540Y-13641781D01*
X3037687Y-13654887D01*
X3045460Y-13667130D01*
X3054705Y-13678306D01*
X3065272Y-13688263D01*
X3077006Y-13696797D01*
X3089706Y-13703757D01*
X3103219Y-13709091D01*
X3117240Y-13712698D01*
G37*
G36*
X2679750Y-13703909D02*
G01*
X2692755Y-13696797D01*
X2704490Y-13688263D01*
X2715056Y-13678306D01*
X2724302Y-13667130D01*
X2732074Y-13654887D01*
X2735275Y-13648131D01*
X2679750Y-13648131D01*
G37*
G36*
X2582062Y-13703909D02*
G01*
X2582062Y-13648131D01*
X2526487Y-13648131D01*
X2529687Y-13654887D01*
X2537460Y-13667130D01*
X2546705Y-13678306D01*
X2557272Y-13688263D01*
X2569006Y-13696797D01*
G37*
G36*
X2679750Y-13550442D02*
G01*
X2735275Y-13550442D01*
X2732074Y-13543635D01*
X2724302Y-13531392D01*
X2715056Y-13520216D01*
X2704490Y-13510310D01*
X2692755Y-13501776D01*
X2679750Y-13494664D01*
G37*
G36*
X2526487Y-13550442D02*
G01*
X2582062Y-13550442D01*
X2582062Y-13494664D01*
X2569006Y-13501776D01*
X2557272Y-13510310D01*
X2546705Y-13520216D01*
X2537460Y-13531392D01*
X2529687Y-13543635D01*
G37*
G36*
X1590852Y-13531342D02*
G01*
X1707235Y-13531342D01*
X1707235Y-13414959D01*
X1705102Y-13415975D01*
X1685188Y-13427862D01*
X1666341Y-13441324D01*
X1648612Y-13456310D01*
X1632254Y-13472718D01*
X1617268Y-13490397D01*
X1603806Y-13509244D01*
X1591919Y-13529157D01*
G37*
G36*
X1969973Y-13531342D02*
G01*
X2086356Y-13531342D01*
X2085289Y-13529157D01*
X2073452Y-13509244D01*
X2059939Y-13490397D01*
X2044954Y-13472718D01*
X2028596Y-13456310D01*
X2010918Y-13441324D01*
X1992020Y-13427862D01*
X1972106Y-13415975D01*
X1969973Y-13414959D01*
G37*
G36*
X3429457Y-13531342D02*
G01*
X3545840Y-13531342D01*
X3545840Y-13414959D01*
X3543706Y-13415975D01*
X3523792Y-13427862D01*
X3504946Y-13441324D01*
X3487216Y-13456310D01*
X3470859Y-13472718D01*
X3455873Y-13490397D01*
X3442360Y-13509244D01*
X3430524Y-13529157D01*
G37*
G36*
X3808577Y-13531342D02*
G01*
X3924960Y-13531342D01*
X3923893Y-13529157D01*
X3912006Y-13509244D01*
X3898544Y-13490397D01*
X3883558Y-13472718D01*
X3867200Y-13456310D01*
X3849471Y-13441324D01*
X3830624Y-13427862D01*
X3810711Y-13415975D01*
X3808577Y-13414959D01*
G37*
G36*
X2567686Y-12497358D02*
G01*
X2578811Y-12496444D01*
X2589631Y-12493853D01*
X2599893Y-12489586D01*
X2609392Y-12483795D01*
X2614625Y-12479324D01*
X2617724Y-12477496D01*
X2621229Y-12476886D01*
X2767736Y-12476886D01*
X2771292Y-12477496D01*
X2774340Y-12479324D01*
X2779572Y-12483795D01*
X2789072Y-12489586D01*
X2799384Y-12493853D01*
X2810205Y-12496444D01*
X2821330Y-12497358D01*
X2832404Y-12496444D01*
X2843225Y-12493853D01*
X2853537Y-12489586D01*
X2863037Y-12483795D01*
X2871470Y-12476530D01*
X2878734Y-12468098D01*
X2884525Y-12458598D01*
X2888792Y-12448286D01*
X2891383Y-12437465D01*
X2892298Y-12426391D01*
X2891383Y-12415266D01*
X2888792Y-12404445D01*
X2884525Y-12394133D01*
X2878734Y-12384633D01*
X2871470Y-12376200D01*
X2863037Y-12368936D01*
X2853537Y-12363145D01*
X2843225Y-12358878D01*
X2832404Y-12356287D01*
X2821330Y-12355372D01*
X2810205Y-12356287D01*
X2799384Y-12358878D01*
X2789072Y-12363145D01*
X2779572Y-12368936D01*
X2774340Y-12373457D01*
X2771241Y-12375235D01*
X2767736Y-12375896D01*
X2621280Y-12375896D01*
X2617724Y-12375235D01*
X2614676Y-12373457D01*
X2609392Y-12368936D01*
X2599893Y-12363145D01*
X2589631Y-12358878D01*
X2578811Y-12356287D01*
X2567686Y-12355372D01*
X2556560Y-12356287D01*
X2545740Y-12358878D01*
X2535478Y-12363145D01*
X2525979Y-12368936D01*
X2517495Y-12376200D01*
X2510282Y-12384633D01*
X2504440Y-12394133D01*
X2500172Y-12404445D01*
X2497582Y-12415266D01*
X2496718Y-12426391D01*
X2497582Y-12437465D01*
X2500172Y-12448286D01*
X2504440Y-12458598D01*
X2510282Y-12468098D01*
X2517495Y-12476530D01*
X2525979Y-12483795D01*
X2535478Y-12489586D01*
X2545740Y-12493853D01*
X2556560Y-12496444D01*
G37*
G36*
X2567686Y-12212066D02*
G01*
X2578811Y-12211151D01*
X2589631Y-12208560D01*
X2599893Y-12204293D01*
X2609392Y-12198502D01*
X2617876Y-12191238D01*
X2625090Y-12182805D01*
X2630932Y-12173305D01*
X2635199Y-12162993D01*
X2637790Y-12152172D01*
X2638653Y-12141098D01*
X2637790Y-12129973D01*
X2635199Y-12119152D01*
X2630932Y-12108840D01*
X2625090Y-12099340D01*
X2617876Y-12090908D01*
X2609392Y-12083643D01*
X2599893Y-12077852D01*
X2589631Y-12073585D01*
X2578811Y-12070994D01*
X2567686Y-12070080D01*
X2556560Y-12070994D01*
X2545740Y-12073585D01*
X2535478Y-12077852D01*
X2525979Y-12083643D01*
X2520696Y-12088114D01*
X2517648Y-12089942D01*
X2514142Y-12090552D01*
X2453081Y-12090552D01*
X2449169Y-12089790D01*
X2445867Y-12087606D01*
X2443683Y-12084304D01*
X2440736Y-12077141D01*
X2434894Y-12067641D01*
X2427681Y-12059208D01*
X2419197Y-12051944D01*
X2409698Y-12046153D01*
X2399436Y-12041886D01*
X2388616Y-12039295D01*
X2377490Y-12038380D01*
X2366365Y-12039295D01*
X2355545Y-12041886D01*
X2345283Y-12046153D01*
X2335784Y-12051944D01*
X2327300Y-12059208D01*
X2320086Y-12067641D01*
X2314244Y-12077141D01*
X2309977Y-12087453D01*
X2307386Y-12098274D01*
X2306523Y-12109399D01*
X2307386Y-12120473D01*
X2309977Y-12131294D01*
X2314244Y-12141606D01*
X2320086Y-12151106D01*
X2327300Y-12159538D01*
X2335784Y-12166803D01*
X2345283Y-12172594D01*
X2355545Y-12176861D01*
X2366365Y-12179452D01*
X2374595Y-12180112D01*
X2377084Y-12180620D01*
X2379370Y-12181789D01*
X2384044Y-12184837D01*
X2387854Y-12186818D01*
X2391918Y-12188545D01*
X2396134Y-12189866D01*
X2400401Y-12190780D01*
X2404770Y-12191390D01*
X2409393Y-12191593D01*
X2514142Y-12191593D01*
X2517648Y-12192203D01*
X2520746Y-12194032D01*
X2525979Y-12198502D01*
X2535478Y-12204293D01*
X2545740Y-12208560D01*
X2556560Y-12211151D01*
G37*
G36*
X2127605Y-12039803D02*
G01*
X2142388Y-12038431D01*
X2156866Y-12035282D01*
X2170887Y-12030354D01*
X2184146Y-12023699D01*
X2196490Y-12015520D01*
X2207768Y-12005868D01*
X2217775Y-11994896D01*
X2226360Y-11982805D01*
X2233371Y-11969750D01*
X2238705Y-11955881D01*
X2242312Y-11941505D01*
X2244140Y-11926773D01*
X2244140Y-11911939D01*
X2242312Y-11897258D01*
X2238705Y-11882831D01*
X2233371Y-11869013D01*
X2226360Y-11855958D01*
X2217775Y-11843816D01*
X2207768Y-11832894D01*
X2196490Y-11823242D01*
X2184146Y-11815013D01*
X2170887Y-11808409D01*
X2156866Y-11803481D01*
X2142388Y-11800332D01*
X2127605Y-11798960D01*
X2112772Y-11799417D01*
X2098141Y-11801652D01*
X2083866Y-11805716D01*
X2070201Y-11811508D01*
X2057349Y-11818924D01*
X2045512Y-11827865D01*
X2034844Y-11838228D01*
X2025548Y-11849760D01*
X2017775Y-11862358D01*
X2011527Y-11875871D01*
X2007057Y-11889994D01*
X2004314Y-11904573D01*
X2003399Y-11919356D01*
X2004314Y-11934190D01*
X2007057Y-11948769D01*
X2011527Y-11962892D01*
X2017775Y-11976354D01*
X2025548Y-11989003D01*
X2034844Y-12000534D01*
X2045512Y-12010847D01*
X2057349Y-12019788D01*
X2070201Y-12027204D01*
X2083866Y-12032996D01*
X2098141Y-12037060D01*
X2112772Y-12039346D01*
G37*
G36*
X1873605Y-11785803D02*
G01*
X1888388Y-11784431D01*
X1902866Y-11781282D01*
X1916887Y-11776354D01*
X1930146Y-11769699D01*
X1942490Y-11761520D01*
X1953768Y-11751868D01*
X1963775Y-11740896D01*
X1972360Y-11728805D01*
X1979371Y-11715750D01*
X1984705Y-11701881D01*
X1988312Y-11687505D01*
X1990140Y-11672773D01*
X1990140Y-11657939D01*
X1988312Y-11643258D01*
X1984705Y-11628831D01*
X1979371Y-11615013D01*
X1972360Y-11601958D01*
X1963775Y-11589816D01*
X1953768Y-11578894D01*
X1942490Y-11569242D01*
X1930146Y-11561013D01*
X1916887Y-11554409D01*
X1902866Y-11549481D01*
X1888388Y-11546332D01*
X1873605Y-11544960D01*
X1858772Y-11545417D01*
X1844141Y-11547652D01*
X1829866Y-11551716D01*
X1816201Y-11557508D01*
X1803349Y-11564924D01*
X1791512Y-11573865D01*
X1780844Y-11584228D01*
X1771548Y-11595760D01*
X1763775Y-11608358D01*
X1757527Y-11621871D01*
X1753057Y-11635994D01*
X1750314Y-11650573D01*
X1749399Y-11665356D01*
X1750314Y-11680190D01*
X1753057Y-11694769D01*
X1757527Y-11708892D01*
X1763775Y-11722354D01*
X1771548Y-11735003D01*
X1780844Y-11746534D01*
X1791512Y-11756847D01*
X1803349Y-11765788D01*
X1816201Y-11773204D01*
X1829866Y-11778996D01*
X1844141Y-11783060D01*
X1858772Y-11785346D01*
G37*
G36*
X2326538Y-11774220D02*
G01*
X2326538Y-11716715D01*
X2269134Y-11716715D01*
X2271776Y-11722354D01*
X2279548Y-11735003D01*
X2288844Y-11746534D01*
X2299512Y-11756847D01*
X2311349Y-11765788D01*
X2324201Y-11773204D01*
G37*
G36*
X2429256Y-11774170D02*
G01*
X2438146Y-11769699D01*
X2450490Y-11761520D01*
X2461768Y-11751868D01*
X2471775Y-11740896D01*
X2480360Y-11728805D01*
X2486812Y-11716715D01*
X2429256Y-11716715D01*
G37*
G36*
X2269134Y-11614048D02*
G01*
X2326538Y-11614048D01*
X2326538Y-11556542D01*
X2324201Y-11557508D01*
X2311349Y-11564924D01*
X2299512Y-11573865D01*
X2288844Y-11584228D01*
X2279548Y-11595760D01*
X2271776Y-11608358D01*
G37*
G36*
X2429256Y-11614048D02*
G01*
X2486812Y-11614048D01*
X2480360Y-11601958D01*
X2471775Y-11589816D01*
X2461768Y-11578894D01*
X2450490Y-11569242D01*
X2438146Y-11561013D01*
X2429256Y-11556593D01*
G37*
G36*
X3384651Y-11120526D02*
G01*
X3399536Y-11120526D01*
X3414217Y-11118697D01*
X3428644Y-11115090D01*
X3442462Y-11109756D01*
X3455517Y-11102695D01*
X3467608Y-11094161D01*
X3478580Y-11084153D01*
X3488232Y-11072876D01*
X3496462Y-11060531D01*
X3503066Y-11047222D01*
X3507994Y-11033252D01*
X3511143Y-11018774D01*
X3512515Y-11003991D01*
X3512058Y-10989157D01*
X3509772Y-10974527D01*
X3505708Y-10960252D01*
X3499967Y-10946587D01*
X3492550Y-10933734D01*
X3483610Y-10921898D01*
X3473246Y-10911230D01*
X3461715Y-10901934D01*
X3449116Y-10894110D01*
X3435604Y-10887913D01*
X3421481Y-10883442D01*
X3406901Y-10880699D01*
X3392068Y-10879785D01*
X3377285Y-10880699D01*
X3362706Y-10883442D01*
X3348583Y-10887913D01*
X3335070Y-10894110D01*
X3322472Y-10901934D01*
X3310940Y-10911230D01*
X3300577Y-10921898D01*
X3291636Y-10933734D01*
X3284220Y-10946587D01*
X3278479Y-10960252D01*
X3274415Y-10974527D01*
X3272129Y-10989157D01*
X3271672Y-11003991D01*
X3273044Y-11018774D01*
X3276193Y-11033252D01*
X3281121Y-11047222D01*
X3287725Y-11060531D01*
X3295954Y-11072876D01*
X3305606Y-11084153D01*
X3316579Y-11094161D01*
X3328670Y-11102695D01*
X3341725Y-11109756D01*
X3355543Y-11115090D01*
X3369970Y-11118697D01*
G37*
G36*
X2250694Y-10975746D02*
G01*
X2261819Y-10974882D01*
X2272639Y-10972292D01*
X2282901Y-10968024D01*
X2292400Y-10962182D01*
X2300884Y-10954969D01*
X2308098Y-10946485D01*
X2313940Y-10936986D01*
X2318207Y-10926724D01*
X2320798Y-10915904D01*
X2321661Y-10904778D01*
X2320798Y-10893653D01*
X2318207Y-10882833D01*
X2313940Y-10872571D01*
X2308098Y-10863072D01*
X2300884Y-10854588D01*
X2292400Y-10847374D01*
X2282901Y-10841532D01*
X2272639Y-10837265D01*
X2261819Y-10834674D01*
X2254910Y-10834116D01*
X2251456Y-10833252D01*
X2248560Y-10831169D01*
X2240788Y-10823448D01*
X2238552Y-10820146D01*
X2237790Y-10816234D01*
X2237790Y-10736427D01*
X2238451Y-10732922D01*
X2240229Y-10729823D01*
X2244699Y-10724591D01*
X2250541Y-10715091D01*
X2254808Y-10704830D01*
X2257399Y-10694009D01*
X2258263Y-10682884D01*
X2257399Y-10671759D01*
X2254808Y-10660938D01*
X2250541Y-10650677D01*
X2244699Y-10641177D01*
X2237486Y-10632694D01*
X2229002Y-10625480D01*
X2219502Y-10619638D01*
X2209241Y-10615371D01*
X2198420Y-10612780D01*
X2187295Y-10611916D01*
X2176170Y-10612780D01*
X2165350Y-10615371D01*
X2155088Y-10619638D01*
X2145588Y-10625480D01*
X2137105Y-10632694D01*
X2129891Y-10641177D01*
X2124049Y-10650677D01*
X2119782Y-10660938D01*
X2117191Y-10671759D01*
X2116328Y-10682884D01*
X2117191Y-10694009D01*
X2119782Y-10704830D01*
X2124049Y-10715091D01*
X2129891Y-10724591D01*
X2134362Y-10729823D01*
X2136140Y-10732922D01*
X2136800Y-10736427D01*
X2136800Y-10841126D01*
X2137003Y-10845800D01*
X2137562Y-10850118D01*
X2138527Y-10854436D01*
X2139848Y-10858652D01*
X2141524Y-10862716D01*
X2143556Y-10866628D01*
X2145944Y-10870336D01*
X2148636Y-10873841D01*
X2151735Y-10877245D01*
X2177084Y-10902594D01*
X2179167Y-10905540D01*
X2180031Y-10908995D01*
X2180590Y-10915904D01*
X2183180Y-10926724D01*
X2187448Y-10936986D01*
X2193290Y-10946485D01*
X2200503Y-10954969D01*
X2208987Y-10962182D01*
X2218486Y-10968024D01*
X2228748Y-10972292D01*
X2239568Y-10974882D01*
G37*
G36*
X3130651Y-10866526D02*
G01*
X3145536Y-10866526D01*
X3160217Y-10864697D01*
X3174644Y-10861090D01*
X3188462Y-10855756D01*
X3201517Y-10848695D01*
X3213608Y-10840161D01*
X3224580Y-10830153D01*
X3234232Y-10818876D01*
X3242462Y-10806531D01*
X3249066Y-10793222D01*
X3253994Y-10779252D01*
X3257143Y-10764774D01*
X3258515Y-10749991D01*
X3258058Y-10735157D01*
X3255772Y-10720527D01*
X3251708Y-10706252D01*
X3245967Y-10692587D01*
X3238550Y-10679734D01*
X3229610Y-10667898D01*
X3219246Y-10657230D01*
X3207715Y-10647934D01*
X3195116Y-10640110D01*
X3181604Y-10633913D01*
X3167481Y-10629442D01*
X3152902Y-10626699D01*
X3138068Y-10625785D01*
X3123285Y-10626699D01*
X3108706Y-10629442D01*
X3094583Y-10633913D01*
X3081070Y-10640110D01*
X3068472Y-10647934D01*
X3056940Y-10657230D01*
X3046577Y-10667898D01*
X3037636Y-10679734D01*
X3030220Y-10692587D01*
X3024479Y-10706252D01*
X3020415Y-10720527D01*
X3018129Y-10735157D01*
X3017672Y-10749991D01*
X3019044Y-10764774D01*
X3022193Y-10779252D01*
X3027121Y-10793222D01*
X3033725Y-10806531D01*
X3041954Y-10818876D01*
X3051606Y-10830153D01*
X3062579Y-10840161D01*
X3074670Y-10848695D01*
X3087725Y-10855756D01*
X3101543Y-10861090D01*
X3115970Y-10864697D01*
G37*
G36*
X3384651Y-10612526D02*
G01*
X3399536Y-10612526D01*
X3414217Y-10610697D01*
X3428644Y-10607090D01*
X3442462Y-10601756D01*
X3455517Y-10594695D01*
X3467608Y-10586161D01*
X3478580Y-10576153D01*
X3488232Y-10564876D01*
X3496462Y-10552531D01*
X3503066Y-10539222D01*
X3507994Y-10525252D01*
X3511143Y-10510774D01*
X3512515Y-10495991D01*
X3512058Y-10481157D01*
X3509772Y-10466527D01*
X3505708Y-10452252D01*
X3499967Y-10438587D01*
X3492550Y-10425734D01*
X3483610Y-10413898D01*
X3473246Y-10403230D01*
X3461715Y-10393934D01*
X3449116Y-10386110D01*
X3435604Y-10379913D01*
X3421481Y-10375442D01*
X3406901Y-10372699D01*
X3392068Y-10371785D01*
X3377285Y-10372699D01*
X3362706Y-10375442D01*
X3348583Y-10379913D01*
X3335070Y-10386110D01*
X3322472Y-10393934D01*
X3310940Y-10403230D01*
X3300577Y-10413898D01*
X3291636Y-10425734D01*
X3284220Y-10438587D01*
X3278479Y-10452252D01*
X3274415Y-10466527D01*
X3272129Y-10481157D01*
X3271672Y-10495991D01*
X3273044Y-10510774D01*
X3276193Y-10525252D01*
X3281121Y-10539222D01*
X3287725Y-10552531D01*
X3295954Y-10564876D01*
X3305606Y-10576153D01*
X3316579Y-10586161D01*
X3328670Y-10594695D01*
X3341725Y-10601756D01*
X3355543Y-10607090D01*
X3369970Y-10610697D01*
G37*
G36*
X2374188Y-10011003D02*
G01*
X2389022Y-10010546D01*
X2403652Y-10008260D01*
X2417927Y-10004196D01*
X2431592Y-9998456D01*
X2444445Y-9991039D01*
X2456281Y-9982098D01*
X2466949Y-9971735D01*
X2476246Y-9960203D01*
X2484069Y-9947605D01*
X2490266Y-9934092D01*
X2494737Y-9919970D01*
X2497480Y-9905390D01*
X2498394Y-9890556D01*
X2497480Y-9875774D01*
X2494737Y-9861194D01*
X2490266Y-9847072D01*
X2484069Y-9833559D01*
X2476246Y-9820960D01*
X2466949Y-9809429D01*
X2456281Y-9799066D01*
X2444445Y-9790125D01*
X2431592Y-9782708D01*
X2417927Y-9776968D01*
X2403652Y-9772904D01*
X2389022Y-9770618D01*
X2374188Y-9770160D01*
X2359406Y-9771532D01*
X2344928Y-9774682D01*
X2330907Y-9779609D01*
X2317648Y-9786213D01*
X2305304Y-9794443D01*
X2294026Y-9804095D01*
X2284018Y-9815068D01*
X2275433Y-9827158D01*
X2268423Y-9840214D01*
X2263089Y-9854031D01*
X2259482Y-9868458D01*
X2257653Y-9883140D01*
X2257653Y-9897973D01*
X2259482Y-9912705D01*
X2263089Y-9927082D01*
X2268423Y-9940950D01*
X2275433Y-9954006D01*
X2284018Y-9966096D01*
X2294026Y-9977069D01*
X2305304Y-9986721D01*
X2317648Y-9994900D01*
X2330907Y-10001554D01*
X2344928Y-10006482D01*
X2359406Y-10009632D01*
G37*
G36*
X1921256Y-9999421D02*
G01*
X1923592Y-9998456D01*
X1936445Y-9991039D01*
X1948281Y-9982098D01*
X1958949Y-9971735D01*
X1968246Y-9960203D01*
X1976069Y-9947605D01*
X1978660Y-9941915D01*
X1921256Y-9941915D01*
G37*
G36*
X1818538Y-9999370D02*
G01*
X1818538Y-9941915D01*
X1760982Y-9941915D01*
X1767433Y-9954006D01*
X1776018Y-9966096D01*
X1786026Y-9977069D01*
X1797304Y-9986721D01*
X1809648Y-9994900D01*
G37*
G36*
X1921256Y-9839248D02*
G01*
X1978660Y-9839248D01*
X1976069Y-9833559D01*
X1968246Y-9820960D01*
X1958949Y-9809429D01*
X1948281Y-9799066D01*
X1936445Y-9790125D01*
X1923592Y-9782708D01*
X1921256Y-9781743D01*
G37*
G36*
X1760982Y-9839248D02*
G01*
X1818538Y-9839248D01*
X1818538Y-9781794D01*
X1809648Y-9786213D01*
X1797304Y-9794443D01*
X1786026Y-9804095D01*
X1776018Y-9815068D01*
X1767433Y-9827158D01*
G37*
G36*
X2175256Y-9745421D02*
G01*
X2177592Y-9744456D01*
X2190445Y-9737039D01*
X2202281Y-9728098D01*
X2212949Y-9717735D01*
X2222246Y-9706203D01*
X2230069Y-9693605D01*
X2232660Y-9687915D01*
X2175256Y-9687915D01*
G37*
G36*
X2072538Y-9745370D02*
G01*
X2072538Y-9687915D01*
X2014982Y-9687915D01*
X2021433Y-9700006D01*
X2030018Y-9712096D01*
X2040026Y-9723069D01*
X2051304Y-9732721D01*
X2063648Y-9740900D01*
G37*
G36*
X2175256Y-9585248D02*
G01*
X2232660Y-9585248D01*
X2230069Y-9579559D01*
X2222246Y-9566960D01*
X2212949Y-9555429D01*
X2202281Y-9545066D01*
X2190445Y-9536125D01*
X2177592Y-9528708D01*
X2175256Y-9527743D01*
G37*
G36*
X2014982Y-9585248D02*
G01*
X2072538Y-9585248D01*
X2072538Y-9527794D01*
X2063648Y-9532213D01*
X2051304Y-9540443D01*
X2040026Y-9550095D01*
X2030018Y-9561068D01*
X2021433Y-9573158D01*
G37*
G36*
X1710182Y-9328251D02*
G01*
X1710182Y-9211868D01*
X1593748Y-9211868D01*
X1594815Y-9214002D01*
X1606702Y-9233916D01*
X1620164Y-9252813D01*
X1635150Y-9270492D01*
X1651558Y-9286900D01*
X1669237Y-9301886D01*
X1688084Y-9315348D01*
X1707997Y-9327184D01*
G37*
G36*
X1972868Y-9328251D02*
G01*
X1975002Y-9327184D01*
X1994916Y-9315348D01*
X2013813Y-9301886D01*
X2031492Y-9286900D01*
X2047900Y-9270492D01*
X2062886Y-9252813D01*
X2076348Y-9233916D01*
X2088184Y-9214002D01*
X2089251Y-9211868D01*
X1972868Y-9211868D01*
G37*
G36*
X3551682Y-9328251D02*
G01*
X3551682Y-9211868D01*
X3435248Y-9211868D01*
X3436315Y-9214002D01*
X3448202Y-9233916D01*
X3461664Y-9252813D01*
X3476650Y-9270492D01*
X3493058Y-9286900D01*
X3510737Y-9301886D01*
X3529584Y-9315348D01*
X3549497Y-9327184D01*
G37*
G36*
X3814368Y-9328251D02*
G01*
X3816502Y-9327184D01*
X3836415Y-9315348D01*
X3855313Y-9301886D01*
X3872992Y-9286900D01*
X3889400Y-9270492D01*
X3904386Y-9252813D01*
X3917848Y-9233916D01*
X3929684Y-9214002D01*
X3930751Y-9211868D01*
X3814368Y-9211868D01*
G37*
G36*
X3054451Y-9191802D02*
G01*
X3223412Y-9191802D01*
X3231845Y-9190939D01*
X3239414Y-9188653D01*
X3246424Y-9184894D01*
X3252520Y-9179864D01*
X3257550Y-9173768D01*
X3261309Y-9166758D01*
X3263595Y-9159189D01*
X3264458Y-9150756D01*
X3264458Y-8981795D01*
X3263595Y-8973362D01*
X3261309Y-8965793D01*
X3257550Y-8958783D01*
X3252520Y-8952687D01*
X3246424Y-8947658D01*
X3239414Y-8943898D01*
X3231845Y-8941612D01*
X3223412Y-8940749D01*
X3054451Y-8940749D01*
X3046018Y-8941612D01*
X3038449Y-8943898D01*
X3031439Y-8947658D01*
X3025343Y-8952687D01*
X3020314Y-8958783D01*
X3016554Y-8965793D01*
X3014268Y-8973362D01*
X3013405Y-8981795D01*
X3013405Y-9150756D01*
X3014268Y-9159189D01*
X3016554Y-9166758D01*
X3020314Y-9173768D01*
X3025343Y-9179864D01*
X3031439Y-9184894D01*
X3038449Y-9188653D01*
X3046018Y-9190939D01*
G37*
G36*
X2369667Y-9181541D02*
G01*
X2384196Y-9181541D01*
X2398572Y-9179712D01*
X2412593Y-9176105D01*
X2426106Y-9170771D01*
X2438806Y-9163761D01*
X2450541Y-9155277D01*
X2461107Y-9145320D01*
X2470353Y-9134144D01*
X2478125Y-9121902D01*
X2484323Y-9108795D01*
X2488793Y-9094978D01*
X2491486Y-9080754D01*
X2492400Y-9066276D01*
X2491486Y-9051798D01*
X2488793Y-9037574D01*
X2484323Y-9023756D01*
X2478125Y-9010650D01*
X2470353Y-8998407D01*
X2461107Y-8987231D01*
X2450541Y-8977274D01*
X2438806Y-8968790D01*
X2426106Y-8961780D01*
X2412593Y-8956446D01*
X2398572Y-8952839D01*
X2384196Y-8951010D01*
X2369667Y-8951010D01*
X2355291Y-8952839D01*
X2341270Y-8956446D01*
X2327757Y-8961780D01*
X2315057Y-8968790D01*
X2303322Y-8977274D01*
X2292756Y-8987231D01*
X2283510Y-8998407D01*
X2275738Y-9010650D01*
X2269540Y-9023756D01*
X2265070Y-9037574D01*
X2262378Y-9051798D01*
X2261463Y-9066276D01*
X2262378Y-9080754D01*
X2265070Y-9094978D01*
X2269540Y-9108795D01*
X2275738Y-9121902D01*
X2283510Y-9134144D01*
X2292756Y-9145320D01*
X2303322Y-9155277D01*
X2315057Y-9163761D01*
X2327757Y-9170771D01*
X2341270Y-9176105D01*
X2355291Y-9179712D01*
G37*
G36*
X2679801Y-9170873D02*
G01*
X2692806Y-9163761D01*
X2704541Y-9155277D01*
X2715107Y-9145320D01*
X2724353Y-9134144D01*
X2732125Y-9121902D01*
X2735326Y-9115145D01*
X2679801Y-9115145D01*
G37*
G36*
X2933801Y-9170873D02*
G01*
X2946806Y-9163761D01*
X2958541Y-9155277D01*
X2969107Y-9145320D01*
X2978353Y-9134144D01*
X2986125Y-9121902D01*
X2989326Y-9115145D01*
X2933801Y-9115145D01*
G37*
G36*
X2582062Y-9170873D02*
G01*
X2582062Y-9115145D01*
X2526538Y-9115145D01*
X2529738Y-9121902D01*
X2537510Y-9134144D01*
X2546756Y-9145320D01*
X2557322Y-9155277D01*
X2569057Y-9163761D01*
G37*
G36*
X2836062Y-9170873D02*
G01*
X2836062Y-9115145D01*
X2780538Y-9115145D01*
X2783738Y-9121902D01*
X2791510Y-9134144D01*
X2800756Y-9145320D01*
X2811322Y-9155277D01*
X2823057Y-9163761D01*
G37*
G36*
X2679801Y-9017406D02*
G01*
X2735326Y-9017406D01*
X2732125Y-9010650D01*
X2724353Y-8998407D01*
X2715107Y-8987231D01*
X2704541Y-8977274D01*
X2692806Y-8968790D01*
X2679801Y-8961678D01*
G37*
G36*
X2780538Y-9017406D02*
G01*
X2836062Y-9017406D01*
X2836062Y-8961678D01*
X2823057Y-8968790D01*
X2811322Y-8977274D01*
X2800756Y-8987231D01*
X2791510Y-8998407D01*
X2783738Y-9010650D01*
G37*
G36*
X2526538Y-9017406D02*
G01*
X2582062Y-9017406D01*
X2582062Y-8961678D01*
X2569057Y-8968790D01*
X2557322Y-8977274D01*
X2546756Y-8987231D01*
X2537510Y-8998407D01*
X2529738Y-9010650D01*
G37*
G36*
X2933801Y-9017406D02*
G01*
X2989326Y-9017406D01*
X2986125Y-9010650D01*
X2978353Y-8998407D01*
X2969107Y-8987231D01*
X2958541Y-8977274D01*
X2946806Y-8968790D01*
X2933801Y-8961678D01*
G37*
G36*
X1593748Y-8949182D02*
G01*
X1710182Y-8949182D01*
X1710182Y-8832748D01*
X1707997Y-8833815D01*
X1688084Y-8845702D01*
X1669237Y-8859164D01*
X1651558Y-8874150D01*
X1635150Y-8890558D01*
X1620164Y-8908237D01*
X1606702Y-8927084D01*
X1594815Y-8946997D01*
G37*
G36*
X1972868Y-8949182D02*
G01*
X2089251Y-8949182D01*
X2088184Y-8946997D01*
X2076348Y-8927084D01*
X2062886Y-8908237D01*
X2047900Y-8890558D01*
X2031492Y-8874150D01*
X2013813Y-8859164D01*
X1994916Y-8845702D01*
X1975002Y-8833815D01*
X1972868Y-8832748D01*
G37*
G36*
X3814368Y-8949182D02*
G01*
X3930751Y-8949182D01*
X3929684Y-8946997D01*
X3917848Y-8927084D01*
X3904386Y-8908237D01*
X3889400Y-8890558D01*
X3872992Y-8874150D01*
X3855313Y-8859164D01*
X3836415Y-8845702D01*
X3816502Y-8833815D01*
X3814368Y-8832748D01*
G37*
G36*
X3435248Y-8949182D02*
G01*
X3551682Y-8949182D01*
X3551682Y-8832748D01*
X3549497Y-8833815D01*
X3529584Y-8845702D01*
X3510737Y-8859164D01*
X3493058Y-8874150D01*
X3476650Y-8890558D01*
X3461664Y-8908237D01*
X3448202Y-8927084D01*
X3436315Y-8946997D01*
G37*

%LPD*%
D10*
X2377495Y-12109376D02*
G01*
X2409195Y-12141075D01*
X2567693Y-12141075D01*
X2250704Y-10904778D02*
G01*
X2187295Y-10841372D01*
X2187295Y-10682884D01*
X2821294Y-12426375D02*
G01*
X2567693Y-12426375D01*
D11*
G01*
X1869897Y-9890582D03*
G01*
X2123897Y-9636582D03*
G01*
X2377897Y-9890582D03*
D12*
G01*
X3138931Y-9066276D03*
D13*
G01*
X2884931Y-9066276D03*
G01*
X2630931Y-9066276D03*
G01*
X2376931Y-9066276D03*
D12*
G01*
X2376881Y-13599261D03*
D13*
G01*
X2630881Y-13599261D03*
G01*
X2884881Y-13599261D03*
G01*
X3138881Y-13599261D03*
D11*
G01*
X2377897Y-11665381D03*
G01*
X2123897Y-11919381D03*
G01*
X1869897Y-11665381D03*
G01*
X3392093Y-11000282D03*
G01*
X3138093Y-10746282D03*
G01*
X3392093Y-10492282D03*
D14*
G01*
X3683000Y-9080500D03*
G01*
X1841500Y-9080500D03*
G01*
X1838604Y-13662685D03*
G01*
X3677183Y-13662685D03*
D15*
G01*
X3391890Y-11411965D03*
D16*
G01*
X1806905Y-10841380D03*
G01*
X2409190Y-10904778D03*
G01*
X3391890Y-12584887D03*
G01*
X3043199Y-13123799D03*
G01*
X1743506Y-12648260D03*
G01*
X2853004Y-12077674D03*
D15*
G01*
X2250693Y-10904778D03*
G01*
X2567686Y-12141072D03*
G01*
X2377490Y-12109373D03*
D16*
G01*
X2409190Y-10302468D03*
D15*
G01*
X2187295Y-10682884D03*
D16*
G01*
X3106597Y-10048875D03*
D15*
G01*
X2567686Y-12426365D03*
G01*
X2821304Y-12426365D03*
M02*
