G04 Layer: TopSilkscreenLayer*
G04 EasyEDA v6.5.22, 2022-11-15 19:49:41*
G04 707d77357ed9460192f0bb31fbe9fbc2,9a5be75d700b4a6385dc1106f27949ae,10*
G04 Gerber Generator version 0.2*
G04 Scale: 100 percent, Rotated: No, Reflected: No *
G04 Dimensions in millimeters *
G04 leading zeros omitted , absolute positions ,4 integer and 5 decimal *
%FSLAX45Y45*%
%MOMM*%

%ADD10C,0.1600*%
%ADD11C,0.2000*%
%ADD12C,0.5000*%
%ADD13C,0.1524*%
%ADD14C,0.2100*%
%ADD15C,0.2540*%
%ADD16C,0.1520*%
%ADD17C,0.3000*%
%ADD18C,0.0185*%

%LPD*%
G36*
X1660906Y-13159079D02*
G01*
X1660906Y-13402818D01*
X1709013Y-13402818D01*
X1709013Y-13240308D01*
X1733092Y-13240308D01*
X1733092Y-13263524D01*
X1805330Y-13263524D01*
X1805330Y-13286740D01*
X1853488Y-13286740D01*
X1853488Y-13309955D01*
X1877568Y-13309955D01*
X1877568Y-13333171D01*
X1901647Y-13333171D01*
X1901647Y-13309955D01*
X1925675Y-13309955D01*
X1925675Y-13356386D01*
X1829409Y-13356386D01*
X1829409Y-13379602D01*
X1805330Y-13379602D01*
X1805330Y-13402818D01*
X1781251Y-13402818D01*
X1781251Y-13426033D01*
X1636826Y-13426033D01*
X1636826Y-13449249D01*
X1612747Y-13449249D01*
X1612747Y-13565327D01*
X1684934Y-13565327D01*
X1684934Y-13588542D01*
X1660906Y-13588542D01*
X1660906Y-13611758D01*
X1684934Y-13611758D01*
X1684934Y-13588542D01*
X1781251Y-13588542D01*
X1781251Y-13542111D01*
X1973834Y-13542111D01*
X1973834Y-13495680D01*
X1997913Y-13495680D01*
X1997913Y-13472464D01*
X2021992Y-13472464D01*
X2021992Y-13426033D01*
X2046071Y-13426033D01*
X2046071Y-13402818D01*
X2070150Y-13402818D01*
X2070150Y-13449249D01*
X2142388Y-13449249D01*
X2142388Y-13472464D01*
X2166416Y-13472464D01*
X2166416Y-13495680D01*
X2142388Y-13495680D01*
X2142388Y-13518896D01*
X2094230Y-13518896D01*
X2094230Y-13565327D01*
X2118309Y-13565327D01*
X2118309Y-13588542D01*
X2094230Y-13588542D01*
X2094230Y-13565327D01*
X2046071Y-13565327D01*
X2046071Y-13542111D01*
X1829409Y-13542111D01*
X1829409Y-13588542D01*
X1901647Y-13588542D01*
X1901647Y-13611758D01*
X1925675Y-13611758D01*
X1925675Y-13634974D01*
X1877568Y-13634974D01*
X1877568Y-13658189D01*
X1853488Y-13658189D01*
X1853488Y-13681405D01*
X1805330Y-13681405D01*
X1805330Y-13704620D01*
X1757172Y-13704620D01*
X1757172Y-13727836D01*
X1733092Y-13727836D01*
X1733092Y-13751051D01*
X1709013Y-13751051D01*
X1709013Y-13611758D01*
X1660906Y-13611758D01*
X1660906Y-13809065D01*
X1709013Y-13809065D01*
X1709013Y-13797483D01*
X1757172Y-13797483D01*
X1757172Y-13774267D01*
X1805330Y-13774267D01*
X1805330Y-13751051D01*
X1829409Y-13751051D01*
X1829409Y-13727836D01*
X1877568Y-13727836D01*
X1877568Y-13704620D01*
X1925675Y-13704620D01*
X1925675Y-13681405D01*
X1973834Y-13681405D01*
X1973834Y-13658189D01*
X1925675Y-13658189D01*
X1925675Y-13634974D01*
X2046071Y-13634974D01*
X2046071Y-13658189D01*
X2070150Y-13658189D01*
X2070150Y-13681405D01*
X2094230Y-13681405D01*
X2094230Y-13704620D01*
X2142388Y-13704620D01*
X2142388Y-13634974D01*
X2118309Y-13634974D01*
X2118309Y-13588542D01*
X2142388Y-13588542D01*
X2142388Y-13565327D01*
X2166416Y-13565327D01*
X2166416Y-13542111D01*
X2214575Y-13542111D01*
X2214575Y-13518896D01*
X2238654Y-13518896D01*
X2238654Y-13495680D01*
X2262733Y-13495680D01*
X2262733Y-13472464D01*
X2238654Y-13472464D01*
X2238654Y-13449249D01*
X2214575Y-13449249D01*
X2214575Y-13426033D01*
X2166416Y-13426033D01*
X2166416Y-13402818D01*
X2070150Y-13402818D01*
X2070150Y-13379602D01*
X2142388Y-13379602D01*
X2142388Y-13309955D01*
X2118309Y-13309955D01*
X2118309Y-13286740D01*
X2070150Y-13286740D01*
X2070150Y-13263524D01*
X1997913Y-13263524D01*
X1997913Y-13286740D01*
X1949754Y-13286740D01*
X1949754Y-13309955D01*
X1925675Y-13309955D01*
X1925675Y-13286740D01*
X1901647Y-13286740D01*
X1901647Y-13263524D01*
X1877568Y-13263524D01*
X1877568Y-13240308D01*
X1829409Y-13240308D01*
X1829409Y-13217093D01*
X1781251Y-13217093D01*
X1781251Y-13193877D01*
X1757172Y-13193877D01*
X1757172Y-13170712D01*
X1709013Y-13170712D01*
X1709013Y-13159079D01*
G37*
D10*
X2409057Y-8868176D02*
G01*
X2417947Y-8877320D01*
X2431663Y-8881892D01*
X2449951Y-8881892D01*
X2463413Y-8877320D01*
X2472557Y-8868176D01*
X2472557Y-8859032D01*
X2467985Y-8849888D01*
X2463413Y-8845316D01*
X2454523Y-8840998D01*
X2427091Y-8831854D01*
X2417947Y-8827282D01*
X2413629Y-8822710D01*
X2409057Y-8813566D01*
X2409057Y-8800104D01*
X2417947Y-8790960D01*
X2431663Y-8786388D01*
X2449951Y-8786388D01*
X2463413Y-8790960D01*
X2472557Y-8800104D01*
X2379085Y-8881892D02*
G01*
X2379085Y-8786388D01*
X2280787Y-8859032D02*
G01*
X2285359Y-8868176D01*
X2294503Y-8877320D01*
X2303393Y-8881892D01*
X2321681Y-8881892D01*
X2330825Y-8877320D01*
X2339969Y-8868176D01*
X2344541Y-8859032D01*
X2348859Y-8845316D01*
X2348859Y-8822710D01*
X2344541Y-8808994D01*
X2339969Y-8800104D01*
X2330825Y-8790960D01*
X2321681Y-8786388D01*
X2303393Y-8786388D01*
X2294503Y-8790960D01*
X2285359Y-8800104D01*
X2280787Y-8808994D01*
X2280787Y-8822710D01*
X2303393Y-8822710D02*
G01*
X2280787Y-8822710D01*
X2816611Y-8859123D02*
G01*
X2820929Y-8868267D01*
X2830073Y-8877157D01*
X2839217Y-8881729D01*
X2857505Y-8881729D01*
X2866395Y-8877157D01*
X2875539Y-8868267D01*
X2880111Y-8859123D01*
X2884683Y-8845407D01*
X2884683Y-8822801D01*
X2880111Y-8809085D01*
X2875539Y-8799941D01*
X2866395Y-8790797D01*
X2857505Y-8786225D01*
X2839217Y-8786225D01*
X2830073Y-8790797D01*
X2820929Y-8799941D01*
X2816611Y-8809085D01*
X2816611Y-8822801D01*
X2839217Y-8822801D02*
G01*
X2816611Y-8822801D01*
X2786385Y-8881729D02*
G01*
X2786385Y-8786225D01*
X2786385Y-8881729D02*
G01*
X2722885Y-8786225D01*
X2722885Y-8881729D02*
G01*
X2722885Y-8786225D01*
X2692913Y-8881729D02*
G01*
X2692913Y-8786225D01*
X2692913Y-8881729D02*
G01*
X2661163Y-8881729D01*
X2647447Y-8877157D01*
X2638303Y-8868267D01*
X2633731Y-8859123D01*
X2629159Y-8845407D01*
X2629159Y-8822801D01*
X2633731Y-8809085D01*
X2638303Y-8799941D01*
X2647447Y-8790797D01*
X2661163Y-8786225D01*
X2692913Y-8786225D01*
X3296869Y-8881892D02*
G01*
X3260547Y-8786388D01*
X3223971Y-8881892D02*
G01*
X3260547Y-8786388D01*
X3125927Y-8859032D02*
G01*
X3130499Y-8868176D01*
X3139643Y-8877320D01*
X3148533Y-8881892D01*
X3166821Y-8881892D01*
X3175965Y-8877320D01*
X3184855Y-8868176D01*
X3189427Y-8859032D01*
X3193999Y-8845316D01*
X3193999Y-8822710D01*
X3189427Y-8808994D01*
X3184855Y-8800104D01*
X3175965Y-8790960D01*
X3166821Y-8786388D01*
X3148533Y-8786388D01*
X3139643Y-8790960D01*
X3130499Y-8800104D01*
X3125927Y-8808994D01*
X3027629Y-8859032D02*
G01*
X3032201Y-8868176D01*
X3041345Y-8877320D01*
X3050489Y-8881892D01*
X3068523Y-8881892D01*
X3077667Y-8877320D01*
X3086811Y-8868176D01*
X3091383Y-8859032D01*
X3095955Y-8845316D01*
X3095955Y-8822710D01*
X3091383Y-8808994D01*
X3086811Y-8800104D01*
X3077667Y-8790960D01*
X3068523Y-8786388D01*
X3050489Y-8786388D01*
X3041345Y-8790960D01*
X3032201Y-8800104D01*
X3027629Y-8808994D01*
D11*
X1874964Y-10414441D02*
G01*
X1870646Y-10405297D01*
X1861502Y-10396407D01*
X1852358Y-10391835D01*
X1834070Y-10391835D01*
X1825180Y-10396407D01*
X1816036Y-10405297D01*
X1811464Y-10414441D01*
X1806892Y-10428157D01*
X1806892Y-10450763D01*
X1811464Y-10464479D01*
X1816036Y-10473623D01*
X1825180Y-10482767D01*
X1834070Y-10487339D01*
X1852358Y-10487339D01*
X1861502Y-10482767D01*
X1870646Y-10473623D01*
X1874964Y-10464479D01*
X1874964Y-10450763D01*
X1852358Y-10450763D02*
G01*
X1874964Y-10450763D01*
X1941512Y-10391835D02*
G01*
X1905190Y-10487339D01*
X1941512Y-10391835D02*
G01*
X1977834Y-10487339D01*
X1918652Y-10455335D02*
G01*
X1964118Y-10455335D01*
X2007806Y-10391835D02*
G01*
X2007806Y-10487339D01*
X2037778Y-10391835D02*
G01*
X2037778Y-10487339D01*
X2037778Y-10391835D02*
G01*
X2101532Y-10487339D01*
X2101532Y-10391835D02*
G01*
X2101532Y-10487339D01*
X2797312Y-11221443D02*
G01*
X2788422Y-11230587D01*
X2783850Y-11244303D01*
X2783850Y-11262591D01*
X2788422Y-11276053D01*
X2797312Y-11285197D01*
X2806456Y-11285197D01*
X2815600Y-11280625D01*
X2820172Y-11276053D01*
X2824744Y-11266909D01*
X2833888Y-11239731D01*
X2838206Y-11230587D01*
X2842778Y-11226015D01*
X2851922Y-11221443D01*
X2865638Y-11221443D01*
X2874782Y-11230587D01*
X2879354Y-11244303D01*
X2879354Y-11262591D01*
X2874782Y-11276053D01*
X2865638Y-11285197D01*
X2783850Y-11191471D02*
G01*
X2788422Y-11186899D01*
X2783850Y-11182581D01*
X2779278Y-11186899D01*
X2783850Y-11191471D01*
X2815600Y-11186899D02*
G01*
X2879354Y-11186899D01*
X2783850Y-11152355D02*
G01*
X2879354Y-11152355D01*
X2783850Y-11152355D02*
G01*
X2783850Y-11111461D01*
X2788422Y-11097999D01*
X2792994Y-11093427D01*
X2801884Y-11088855D01*
X2815600Y-11088855D01*
X2824744Y-11093427D01*
X2829316Y-11097999D01*
X2833888Y-11111461D01*
X2833888Y-11152355D01*
X2783850Y-11058883D02*
G01*
X2879354Y-11058883D01*
X2783850Y-11058883D02*
G01*
X2879354Y-11022561D01*
X2783850Y-10985985D02*
G01*
X2879354Y-11022561D01*
X2783850Y-10985985D02*
G01*
X2879354Y-10985985D01*
X2783850Y-10886163D02*
G01*
X2879354Y-10886163D01*
X2783850Y-10886163D02*
G01*
X2783850Y-10845269D01*
X2788422Y-10831553D01*
X2792994Y-10826981D01*
X2801884Y-10822409D01*
X2811028Y-10822409D01*
X2820172Y-10826981D01*
X2824744Y-10831553D01*
X2829316Y-10845269D01*
X2829316Y-10886163D02*
G01*
X2829316Y-10845269D01*
X2833888Y-10831553D01*
X2838206Y-10826981D01*
X2847350Y-10822409D01*
X2861066Y-10822409D01*
X2870210Y-10826981D01*
X2874782Y-10831553D01*
X2879354Y-10845269D01*
X2879354Y-10886163D01*
X2783850Y-10792437D02*
G01*
X2879354Y-10792437D01*
X2783850Y-10726143D02*
G01*
X2879354Y-10762465D01*
X2783850Y-10726143D02*
G01*
X2879354Y-10689821D01*
X2847350Y-10748749D02*
G01*
X2847350Y-10703283D01*
X2797312Y-10596095D02*
G01*
X2788422Y-10605239D01*
X2783850Y-10618955D01*
X2783850Y-10636989D01*
X2788422Y-10650705D01*
X2797312Y-10659849D01*
X2806456Y-10659849D01*
X2815600Y-10655277D01*
X2820172Y-10650705D01*
X2824744Y-10641561D01*
X2833888Y-10614383D01*
X2838206Y-10605239D01*
X2842778Y-10600667D01*
X2851922Y-10596095D01*
X2865638Y-10596095D01*
X2874782Y-10605239D01*
X2879354Y-10618955D01*
X2879354Y-10636989D01*
X2874782Y-10650705D01*
X2865638Y-10659849D01*
D10*
X2567652Y-13910358D02*
G01*
X2567652Y-14005862D01*
X2597624Y-13910358D02*
G01*
X2597624Y-14005862D01*
X2597624Y-13910358D02*
G01*
X2661378Y-14005862D01*
X2661378Y-13910358D02*
G01*
X2661378Y-14005862D01*
X2723100Y-13910358D02*
G01*
X2723100Y-14005862D01*
X2691350Y-13910358D02*
G01*
X2754850Y-13910358D01*
X2921254Y-13932407D02*
G01*
X2916681Y-13923263D01*
X2907538Y-13914120D01*
X2898393Y-13909547D01*
X2880359Y-13909547D01*
X2871215Y-13914120D01*
X2862072Y-13923263D01*
X2857500Y-13932407D01*
X2852927Y-13946124D01*
X2852927Y-13968729D01*
X2857500Y-13982445D01*
X2862072Y-13991589D01*
X2871215Y-14000479D01*
X2880359Y-14005052D01*
X2898393Y-14005052D01*
X2907538Y-14000479D01*
X2916681Y-13991589D01*
X2921254Y-13982445D01*
X2921254Y-13968729D01*
X2898393Y-13968729D02*
G01*
X2921254Y-13968729D01*
X3043123Y-13909547D02*
G01*
X3079445Y-14005052D01*
X3116021Y-13909547D02*
G01*
X3079445Y-14005052D01*
X3214065Y-13932407D02*
G01*
X3209493Y-13923263D01*
X3200349Y-13914120D01*
X3191459Y-13909547D01*
X3173171Y-13909547D01*
X3164027Y-13914120D01*
X3155137Y-13923263D01*
X3150565Y-13932407D01*
X3145993Y-13946124D01*
X3145993Y-13968729D01*
X3150565Y-13982445D01*
X3155137Y-13991589D01*
X3164027Y-14000479D01*
X3173171Y-14005052D01*
X3191459Y-14005052D01*
X3200349Y-14000479D01*
X3209493Y-13991589D01*
X3214065Y-13982445D01*
X3312363Y-13932407D02*
G01*
X3307791Y-13923263D01*
X3298647Y-13914120D01*
X3289503Y-13909547D01*
X3271469Y-13909547D01*
X3262325Y-13914120D01*
X3253181Y-13923263D01*
X3248609Y-13932407D01*
X3244037Y-13946124D01*
X3244037Y-13968729D01*
X3248609Y-13982445D01*
X3253181Y-13991589D01*
X3262325Y-14000479D01*
X3271469Y-14005052D01*
X3289503Y-14005052D01*
X3298647Y-14000479D01*
X3307791Y-13991589D01*
X3312363Y-13982445D01*
X2255426Y-13910358D02*
G01*
X2219104Y-14005862D01*
X2255426Y-13910358D02*
G01*
X2291748Y-14005862D01*
X2232566Y-13974112D02*
G01*
X2278032Y-13974112D01*
X2321720Y-13910358D02*
G01*
X2321720Y-14005862D01*
X2321720Y-13910358D02*
G01*
X2358042Y-14005862D01*
X2394364Y-13910358D02*
G01*
X2358042Y-14005862D01*
X2394364Y-13910358D02*
G01*
X2394364Y-14005862D01*
X2424590Y-13910358D02*
G01*
X2424590Y-14005862D01*
X2424590Y-13910358D02*
G01*
X2465484Y-13910358D01*
X2478946Y-13914930D01*
X2483518Y-13919502D01*
X2488090Y-13928646D01*
X2488090Y-13942362D01*
X2483518Y-13951506D01*
X2478946Y-13955824D01*
X2465484Y-13960396D01*
X2424590Y-13960396D01*
D11*
X3815841Y-13716000D02*
G01*
X3930395Y-13716000D01*
X3815841Y-13716000D02*
G01*
X3930395Y-13672312D01*
X3815841Y-13628624D02*
G01*
X3930395Y-13672312D01*
X3815841Y-13628624D02*
G01*
X3930395Y-13628624D01*
X3815841Y-13592810D02*
G01*
X3821429Y-13587221D01*
X3815841Y-13581887D01*
X3810508Y-13587221D01*
X3815841Y-13592810D01*
X3854195Y-13587221D02*
G01*
X3930395Y-13587221D01*
X3854195Y-13545820D02*
G01*
X3930395Y-13545820D01*
X3875786Y-13545820D02*
G01*
X3859529Y-13529563D01*
X3854195Y-13518642D01*
X3854195Y-13502131D01*
X3859529Y-13491210D01*
X3875786Y-13485876D01*
X3930395Y-13485876D01*
X3815841Y-13449807D02*
G01*
X3821429Y-13444474D01*
X3815841Y-13438886D01*
X3810508Y-13444474D01*
X3815841Y-13449807D01*
X3854195Y-13444474D02*
G01*
X3930395Y-13444474D01*
X3832352Y-13242544D02*
G01*
X3821429Y-13253466D01*
X3815841Y-13269721D01*
X3815841Y-13291566D01*
X3821429Y-13308076D01*
X3832352Y-13318997D01*
X3843274Y-13318997D01*
X3854195Y-13313410D01*
X3859529Y-13308076D01*
X3865118Y-13297154D01*
X3875786Y-13264387D01*
X3881374Y-13253466D01*
X3886708Y-13247878D01*
X3897629Y-13242544D01*
X3914140Y-13242544D01*
X3925061Y-13253466D01*
X3930395Y-13269721D01*
X3930395Y-13291566D01*
X3925061Y-13308076D01*
X3914140Y-13318997D01*
X3815841Y-13206476D02*
G01*
X3821429Y-13201142D01*
X3815841Y-13195554D01*
X3810508Y-13201142D01*
X3815841Y-13206476D01*
X3854195Y-13201142D02*
G01*
X3930395Y-13201142D01*
X3815841Y-13159739D02*
G01*
X3930395Y-13159739D01*
X3815841Y-13159739D02*
G01*
X3815841Y-13121386D01*
X3821429Y-13105129D01*
X3832352Y-13094208D01*
X3843274Y-13088620D01*
X3859529Y-13083286D01*
X3886708Y-13083286D01*
X3903218Y-13088620D01*
X3914140Y-13094208D01*
X3925061Y-13105129D01*
X3930395Y-13121386D01*
X3930395Y-13159739D01*
X3815841Y-12963397D02*
G01*
X3930395Y-12963397D01*
X3815841Y-12963397D02*
G01*
X3815841Y-12914121D01*
X3821429Y-12897865D01*
X3826763Y-12892278D01*
X3837686Y-12886944D01*
X3848608Y-12886944D01*
X3859529Y-12892278D01*
X3865118Y-12897865D01*
X3870452Y-12914121D01*
X3870452Y-12963397D01*
X3870452Y-12925044D02*
G01*
X3930395Y-12886944D01*
X3815841Y-12850876D02*
G01*
X3930395Y-12850876D01*
X3815841Y-12850876D02*
G01*
X3815841Y-12780010D01*
X3870452Y-12850876D02*
G01*
X3870452Y-12807187D01*
X3930395Y-12850876D02*
G01*
X3930395Y-12780010D01*
X3815841Y-12743942D02*
G01*
X3930395Y-12700254D01*
X3815841Y-12656820D02*
G01*
X3930395Y-12700254D01*
X3843274Y-12531344D02*
G01*
X3837686Y-12531344D01*
X3826763Y-12525755D01*
X3821429Y-12520421D01*
X3815841Y-12509500D01*
X3815841Y-12487655D01*
X3821429Y-12476734D01*
X3826763Y-12471400D01*
X3837686Y-12465812D01*
X3848608Y-12465812D01*
X3859529Y-12471400D01*
X3875786Y-12482068D01*
X3930395Y-12536678D01*
X3930395Y-12460478D01*
D12*
X2683002Y-7429245D02*
G01*
X2664713Y-7447534D01*
X2655570Y-7474712D01*
X2655570Y-7511034D01*
X2664713Y-7538212D01*
X2683002Y-7556500D01*
X2701036Y-7556500D01*
X2719324Y-7547355D01*
X2728468Y-7538212D01*
X2737611Y-7520178D01*
X2755645Y-7465568D01*
X2764790Y-7447534D01*
X2773934Y-7438389D01*
X2791968Y-7429245D01*
X2819400Y-7429245D01*
X2837434Y-7447534D01*
X2846577Y-7474712D01*
X2846577Y-7511034D01*
X2837434Y-7538212D01*
X2819400Y-7556500D01*
X2701036Y-7232904D02*
G01*
X2683002Y-7242047D01*
X2664713Y-7260081D01*
X2655570Y-7278370D01*
X2655570Y-7314692D01*
X2664713Y-7332979D01*
X2683002Y-7351013D01*
X2701036Y-7360158D01*
X2728468Y-7369302D01*
X2773934Y-7369302D01*
X2801111Y-7360158D01*
X2819400Y-7351013D01*
X2837434Y-7332979D01*
X2846577Y-7314692D01*
X2846577Y-7278370D01*
X2837434Y-7260081D01*
X2819400Y-7242047D01*
X2801111Y-7232904D01*
X2655570Y-7172960D02*
G01*
X2846577Y-7172960D01*
X2655570Y-7112762D02*
G01*
X2846577Y-7112762D01*
X2655570Y-7112762D02*
G01*
X2846577Y-6985508D01*
X2655570Y-6985508D02*
G01*
X2846577Y-6985508D01*
X2655570Y-6862063D02*
G01*
X2846577Y-6862063D01*
X2655570Y-6925563D02*
G01*
X2655570Y-6798310D01*
X2655570Y-6738365D02*
G01*
X2846577Y-6738365D01*
X2655570Y-6678421D02*
G01*
X2846577Y-6678421D01*
X2846577Y-6678421D02*
G01*
X2846577Y-6569202D01*
X2655570Y-6509257D02*
G01*
X2846577Y-6509257D01*
X2846577Y-6509257D02*
G01*
X2846577Y-6400037D01*
X2655570Y-6267450D02*
G01*
X2846577Y-6340094D01*
X2655570Y-6267450D02*
G01*
X2846577Y-6194805D01*
X2783077Y-6312915D02*
G01*
X2783077Y-6221984D01*
X2655570Y-6071107D02*
G01*
X2846577Y-6071107D01*
X2655570Y-6134607D02*
G01*
X2655570Y-6007354D01*
X2655570Y-5892800D02*
G01*
X2664713Y-5911087D01*
X2683002Y-5929121D01*
X2701036Y-5938265D01*
X2728468Y-5947410D01*
X2773934Y-5947410D01*
X2801111Y-5938265D01*
X2819400Y-5929121D01*
X2837434Y-5911087D01*
X2846577Y-5892800D01*
X2846577Y-5856478D01*
X2837434Y-5838444D01*
X2819400Y-5820155D01*
X2801111Y-5811012D01*
X2773934Y-5801868D01*
X2728468Y-5801868D01*
X2701036Y-5811012D01*
X2683002Y-5820155D01*
X2664713Y-5838444D01*
X2655570Y-5856478D01*
X2655570Y-5892800D01*
X2655570Y-5741923D02*
G01*
X2846577Y-5741923D01*
X2655570Y-5741923D02*
G01*
X2655570Y-5660136D01*
X2664713Y-5632957D01*
X2673858Y-5623813D01*
X2692145Y-5614670D01*
X2710179Y-5614670D01*
X2728468Y-5623813D01*
X2737611Y-5632957D01*
X2746502Y-5660136D01*
X2746502Y-5741923D01*
X2746502Y-5678423D02*
G01*
X2846577Y-5614670D01*
D13*
X2567693Y-11423462D02*
G01*
X2567693Y-11532428D01*
X2567693Y-11423462D02*
G01*
X2614429Y-11423462D01*
X2629923Y-11428542D01*
X2635257Y-11433876D01*
X2640337Y-11444290D01*
X2640337Y-11454704D01*
X2635257Y-11465118D01*
X2629923Y-11470198D01*
X2614429Y-11475278D01*
X2567693Y-11475278D01*
X2604015Y-11475278D02*
G01*
X2640337Y-11532428D01*
X2747525Y-11423462D02*
G01*
X2695455Y-11532428D01*
X2674627Y-11423462D02*
G01*
X2747525Y-11423462D01*
X1616697Y-11898960D02*
G01*
X1616697Y-12007926D01*
X1616697Y-11898960D02*
G01*
X1663433Y-11898960D01*
X1678927Y-11904040D01*
X1684261Y-11909374D01*
X1689341Y-11919788D01*
X1689341Y-11930202D01*
X1684261Y-11940616D01*
X1678927Y-11945696D01*
X1663433Y-11950776D01*
X1616697Y-11950776D01*
X1653019Y-11950776D02*
G01*
X1689341Y-12007926D01*
X1723631Y-11919788D02*
G01*
X1734045Y-11914454D01*
X1749793Y-11898960D01*
X1749793Y-12007926D01*
X1851647Y-11935282D02*
G01*
X1846313Y-11950776D01*
X1835899Y-11961190D01*
X1820405Y-11966524D01*
X1815071Y-11966524D01*
X1799577Y-11961190D01*
X1789163Y-11950776D01*
X1784083Y-11935282D01*
X1784083Y-11930202D01*
X1789163Y-11914454D01*
X1799577Y-11904040D01*
X1815071Y-11898960D01*
X1820405Y-11898960D01*
X1835899Y-11904040D01*
X1846313Y-11914454D01*
X1851647Y-11935282D01*
X1851647Y-11961190D01*
X1846313Y-11987352D01*
X1835899Y-12002846D01*
X1820405Y-12007926D01*
X1809991Y-12007926D01*
X1794497Y-12002846D01*
X1789163Y-11992432D01*
X1648396Y-13008457D02*
G01*
X1648396Y-13117423D01*
X1648396Y-13008457D02*
G01*
X1695132Y-13008457D01*
X1710626Y-13013537D01*
X1715960Y-13018871D01*
X1721040Y-13029285D01*
X1721040Y-13039699D01*
X1715960Y-13050113D01*
X1710626Y-13055193D01*
X1695132Y-13060273D01*
X1648396Y-13060273D01*
X1684718Y-13060273D02*
G01*
X1721040Y-13117423D01*
X1760664Y-13034365D02*
G01*
X1760664Y-13029285D01*
X1765744Y-13018871D01*
X1771078Y-13013537D01*
X1781492Y-13008457D01*
X1802066Y-13008457D01*
X1812480Y-13013537D01*
X1817814Y-13018871D01*
X1822894Y-13029285D01*
X1822894Y-13039699D01*
X1817814Y-13050113D01*
X1807400Y-13065607D01*
X1755330Y-13117423D01*
X1828228Y-13117423D01*
X1893506Y-13008457D02*
G01*
X1878012Y-13013537D01*
X1867598Y-13029285D01*
X1862518Y-13055193D01*
X1862518Y-13070687D01*
X1867598Y-13096849D01*
X1878012Y-13112343D01*
X1893506Y-13117423D01*
X1903920Y-13117423D01*
X1919668Y-13112343D01*
X1930082Y-13096849D01*
X1935162Y-13070687D01*
X1935162Y-13055193D01*
X1930082Y-13029285D01*
X1919668Y-13013537D01*
X1903920Y-13008457D01*
X1893506Y-13008457D01*
X1723280Y-10112281D02*
G01*
X1801258Y-10112281D01*
X1816752Y-10107201D01*
X1827166Y-10096787D01*
X1832246Y-10081039D01*
X1832246Y-10070625D01*
X1827166Y-10055131D01*
X1816752Y-10044717D01*
X1801258Y-10039637D01*
X1723280Y-10039637D01*
X1749188Y-10000013D02*
G01*
X1744108Y-10000013D01*
X1733694Y-9994933D01*
X1728360Y-9989599D01*
X1723280Y-9979185D01*
X1723280Y-9958611D01*
X1728360Y-9948197D01*
X1733694Y-9942863D01*
X1744108Y-9937783D01*
X1754522Y-9937783D01*
X1764936Y-9942863D01*
X1780430Y-9953277D01*
X1832246Y-10005347D01*
X1832246Y-9932449D01*
X3164382Y-9366097D02*
G01*
X3174542Y-9360763D01*
X3184956Y-9350349D01*
X3190290Y-9339935D01*
X3190290Y-9319361D01*
X3184956Y-9308947D01*
X3174542Y-9298533D01*
X3164382Y-9293199D01*
X3148634Y-9288119D01*
X3122726Y-9288119D01*
X3107232Y-9293199D01*
X3096818Y-9298533D01*
X3086404Y-9308947D01*
X3081070Y-9319361D01*
X3081070Y-9339935D01*
X3086404Y-9350349D01*
X3096818Y-9360763D01*
X3107232Y-9366097D01*
X3153968Y-9467951D02*
G01*
X3138220Y-9462617D01*
X3127806Y-9452203D01*
X3122726Y-9436709D01*
X3122726Y-9431375D01*
X3127806Y-9415881D01*
X3138220Y-9405467D01*
X3153968Y-9400387D01*
X3159048Y-9400387D01*
X3174542Y-9405467D01*
X3184956Y-9415881D01*
X3190290Y-9431375D01*
X3190290Y-9436709D01*
X3184956Y-9452203D01*
X3174542Y-9462617D01*
X3153968Y-9467951D01*
X3127806Y-9467951D01*
X3101898Y-9462617D01*
X3086404Y-9452203D01*
X3081070Y-9436709D01*
X3081070Y-9426295D01*
X3086404Y-9410801D01*
X3096818Y-9405467D01*
X2138423Y-11702994D02*
G01*
X2133343Y-11692580D01*
X2122929Y-11682166D01*
X2112515Y-11677086D01*
X2091687Y-11677086D01*
X2081273Y-11682166D01*
X2070859Y-11692580D01*
X2065779Y-11702994D01*
X2060445Y-11718488D01*
X2060445Y-11744650D01*
X2065779Y-11760144D01*
X2070859Y-11770558D01*
X2081273Y-11780972D01*
X2091687Y-11786052D01*
X2112515Y-11786052D01*
X2122929Y-11780972D01*
X2133343Y-11770558D01*
X2138423Y-11760144D01*
X2172713Y-11697914D02*
G01*
X2183127Y-11692580D01*
X2198621Y-11677086D01*
X2198621Y-11786052D01*
X2232911Y-11697914D02*
G01*
X2243325Y-11692580D01*
X2259073Y-11677086D01*
X2259073Y-11786052D01*
X2815602Y-13582101D02*
G01*
X2826016Y-13577021D01*
X2836430Y-13566607D01*
X2841510Y-13556193D01*
X2841510Y-13535365D01*
X2836430Y-13524951D01*
X2826016Y-13514537D01*
X2815602Y-13509457D01*
X2799854Y-13504123D01*
X2773946Y-13504123D01*
X2758452Y-13509457D01*
X2748038Y-13514537D01*
X2737624Y-13524951D01*
X2732544Y-13535365D01*
X2732544Y-13556193D01*
X2737624Y-13566607D01*
X2748038Y-13577021D01*
X2758452Y-13582101D01*
X2820682Y-13616391D02*
G01*
X2826016Y-13626805D01*
X2841510Y-13642299D01*
X2732544Y-13642299D01*
X2815602Y-13681923D02*
G01*
X2820682Y-13681923D01*
X2831096Y-13687003D01*
X2836430Y-13692337D01*
X2841510Y-13702751D01*
X2841510Y-13723325D01*
X2836430Y-13733739D01*
X2831096Y-13739073D01*
X2820682Y-13744153D01*
X2810268Y-13744153D01*
X2799854Y-13739073D01*
X2784360Y-13728659D01*
X2732544Y-13676589D01*
X2732544Y-13749487D01*
X3074868Y-11740382D02*
G01*
X3074868Y-11849602D01*
X3074868Y-11740382D02*
G01*
X3121604Y-11740382D01*
X3137352Y-11745716D01*
X3142432Y-11750796D01*
X3147512Y-11761210D01*
X3147512Y-11771624D01*
X3142432Y-11782038D01*
X3137352Y-11787118D01*
X3121604Y-11792452D01*
X3074868Y-11792452D01*
X3111190Y-11792452D02*
G01*
X3147512Y-11849602D01*
X3249366Y-11776704D02*
G01*
X3244286Y-11792452D01*
X3233872Y-11802866D01*
X3218378Y-11807946D01*
X3213044Y-11807946D01*
X3197550Y-11802866D01*
X3187136Y-11792452D01*
X3181802Y-11776704D01*
X3181802Y-11771624D01*
X3187136Y-11756130D01*
X3197550Y-11745716D01*
X3213044Y-11740382D01*
X3218378Y-11740382D01*
X3233872Y-11745716D01*
X3244286Y-11756130D01*
X3249366Y-11776704D01*
X3249366Y-11802866D01*
X3244286Y-11828774D01*
X3233872Y-11844268D01*
X3218378Y-11849602D01*
X3207964Y-11849602D01*
X3192216Y-11844268D01*
X3187136Y-11833854D01*
X2904962Y-11412026D02*
G01*
X2795742Y-11412026D01*
X2904962Y-11412026D02*
G01*
X2904962Y-11458762D01*
X2899628Y-11474256D01*
X2894548Y-11479590D01*
X2884134Y-11484670D01*
X2873720Y-11484670D01*
X2863306Y-11479590D01*
X2858226Y-11474256D01*
X2852892Y-11458762D01*
X2852892Y-11412026D01*
X2852892Y-11448348D02*
G01*
X2795742Y-11484670D01*
X2884134Y-11518960D02*
G01*
X2889468Y-11529374D01*
X2904962Y-11544868D01*
X2795742Y-11544868D01*
X2904962Y-11589572D02*
G01*
X2904962Y-11646722D01*
X2863306Y-11615734D01*
X2863306Y-11631228D01*
X2858226Y-11641642D01*
X2852892Y-11646722D01*
X2837398Y-11652056D01*
X2826984Y-11652056D01*
X2811490Y-11646722D01*
X2801076Y-11636308D01*
X2795742Y-11620814D01*
X2795742Y-11605320D01*
X2801076Y-11589572D01*
X2806156Y-11584492D01*
X2816570Y-11579158D01*
X2694431Y-9616439D02*
G01*
X2694431Y-9725660D01*
X2694431Y-9616439D02*
G01*
X2741168Y-9616439D01*
X2756915Y-9621774D01*
X2761995Y-9626854D01*
X2767329Y-9637268D01*
X2767329Y-9647681D01*
X2761995Y-9658095D01*
X2756915Y-9663429D01*
X2741168Y-9668510D01*
X2694431Y-9668510D01*
X2730754Y-9668510D02*
G01*
X2767329Y-9725660D01*
X2801620Y-9637268D02*
G01*
X2812034Y-9632187D01*
X2827527Y-9616439D01*
X2827527Y-9725660D01*
X2934461Y-9616439D02*
G01*
X2882645Y-9725660D01*
X2861818Y-9616439D02*
G01*
X2934461Y-9616439D01*
X3740566Y-11518483D02*
G01*
X3740566Y-11596461D01*
X3745900Y-11611955D01*
X3756060Y-11622369D01*
X3771808Y-11627703D01*
X3782222Y-11627703D01*
X3797716Y-11622369D01*
X3808130Y-11611955D01*
X3813210Y-11596461D01*
X3813210Y-11518483D01*
X3857914Y-11518483D02*
G01*
X3915064Y-11518483D01*
X3884076Y-11560139D01*
X3899570Y-11560139D01*
X3909984Y-11565219D01*
X3915064Y-11570553D01*
X3920398Y-11586047D01*
X3920398Y-11596461D01*
X3915064Y-11611955D01*
X3904650Y-11622369D01*
X3889156Y-11627703D01*
X3873662Y-11627703D01*
X3857914Y-11622369D01*
X3852834Y-11617289D01*
X3847500Y-11606875D01*
X2409156Y-13579055D02*
G01*
X2409156Y-13657033D01*
X2414490Y-13672527D01*
X2424650Y-13682941D01*
X2440398Y-13688021D01*
X2450812Y-13688021D01*
X2466306Y-13682941D01*
X2476720Y-13672527D01*
X2481800Y-13657033D01*
X2481800Y-13579055D01*
X2568160Y-13579055D02*
G01*
X2516090Y-13651699D01*
X2594068Y-13651699D01*
X2568160Y-13579055D02*
G01*
X2568160Y-13688021D01*
X3095076Y-12553129D02*
G01*
X2986110Y-12553129D01*
X3095076Y-12553129D02*
G01*
X3095076Y-12599865D01*
X3089996Y-12615613D01*
X3084662Y-12620693D01*
X3074248Y-12626027D01*
X3063834Y-12626027D01*
X3053674Y-12620693D01*
X3048340Y-12615613D01*
X3043260Y-12599865D01*
X3043260Y-12553129D01*
X3043260Y-12589451D02*
G01*
X2986110Y-12626027D01*
X3095076Y-12722547D02*
G01*
X3095076Y-12670477D01*
X3048340Y-12665397D01*
X3053674Y-12670477D01*
X3058754Y-12686225D01*
X3058754Y-12701719D01*
X3053674Y-12717467D01*
X3043260Y-12727627D01*
X3027512Y-12732961D01*
X3017098Y-12732961D01*
X3001604Y-12727627D01*
X2991190Y-12717467D01*
X2986110Y-12701719D01*
X2986110Y-12686225D01*
X2991190Y-12670477D01*
X2996524Y-12665397D01*
X3006684Y-12660317D01*
X2655877Y-12970362D02*
G01*
X2655877Y-12861142D01*
X2655877Y-12970362D02*
G01*
X2609141Y-12970362D01*
X2593393Y-12965028D01*
X2588313Y-12959948D01*
X2582979Y-12949534D01*
X2582979Y-12939120D01*
X2588313Y-12928706D01*
X2593393Y-12923626D01*
X2609141Y-12918292D01*
X2655877Y-12918292D01*
X2619555Y-12918292D02*
G01*
X2582979Y-12861142D01*
X2548689Y-12949534D02*
G01*
X2538529Y-12954868D01*
X2522781Y-12970362D01*
X2522781Y-12861142D01*
X2462583Y-12970362D02*
G01*
X2478077Y-12965028D01*
X2483411Y-12954868D01*
X2483411Y-12944454D01*
X2478077Y-12934040D01*
X2467663Y-12928706D01*
X2447089Y-12923626D01*
X2431341Y-12918292D01*
X2420927Y-12907878D01*
X2415847Y-12897718D01*
X2415847Y-12881970D01*
X2420927Y-12871556D01*
X2426261Y-12866476D01*
X2441755Y-12861142D01*
X2462583Y-12861142D01*
X2478077Y-12866476D01*
X2483411Y-12871556D01*
X2488491Y-12881970D01*
X2488491Y-12897718D01*
X2483411Y-12907878D01*
X2472997Y-12918292D01*
X2457249Y-12923626D01*
X2436675Y-12928706D01*
X2426261Y-12934040D01*
X2420927Y-12944454D01*
X2420927Y-12954868D01*
X2426261Y-12965028D01*
X2441755Y-12970362D01*
X2462583Y-12970362D01*
X3095094Y-12943519D02*
G01*
X2986128Y-12901863D01*
X3095094Y-12943519D02*
G01*
X2986128Y-12984921D01*
X3022450Y-12917357D02*
G01*
X3022450Y-12969427D01*
X3069186Y-13097189D02*
G01*
X3079600Y-13092109D01*
X3090014Y-13081695D01*
X3095094Y-13071281D01*
X3095094Y-13050453D01*
X3090014Y-13040039D01*
X3079600Y-13029625D01*
X3069186Y-13024545D01*
X3053438Y-13019211D01*
X3027530Y-13019211D01*
X3012036Y-13024545D01*
X3001622Y-13029625D01*
X2991208Y-13040039D01*
X2986128Y-13050453D01*
X2986128Y-13071281D01*
X2991208Y-13081695D01*
X3001622Y-13092109D01*
X3012036Y-13097189D01*
X3095094Y-13167801D02*
G01*
X2986128Y-13167801D01*
X3095094Y-13131479D02*
G01*
X3095094Y-13204123D01*
X3279670Y-9991173D02*
G01*
X3274336Y-9980759D01*
X3263922Y-9970345D01*
X3253762Y-9965265D01*
X3232934Y-9965265D01*
X3222520Y-9970345D01*
X3212106Y-9980759D01*
X3206772Y-9991173D01*
X3201692Y-10006921D01*
X3201692Y-10032829D01*
X3206772Y-10048323D01*
X3212106Y-10058737D01*
X3222520Y-10069151D01*
X3232934Y-10074231D01*
X3253762Y-10074231D01*
X3263922Y-10069151D01*
X3274336Y-10058737D01*
X3279670Y-10048323D01*
X3319040Y-9991173D02*
G01*
X3319040Y-9986093D01*
X3324374Y-9975679D01*
X3329454Y-9970345D01*
X3339868Y-9965265D01*
X3360696Y-9965265D01*
X3371110Y-9970345D01*
X3376190Y-9975679D01*
X3381524Y-9986093D01*
X3381524Y-9996507D01*
X3376190Y-10006921D01*
X3365776Y-10022415D01*
X3313960Y-10074231D01*
X3386604Y-10074231D01*
X3386200Y-10190259D02*
G01*
X3396615Y-10184925D01*
X3407029Y-10174511D01*
X3412109Y-10164351D01*
X3412109Y-10143523D01*
X3407029Y-10133109D01*
X3396615Y-10122695D01*
X3386200Y-10117361D01*
X3370452Y-10112281D01*
X3344545Y-10112281D01*
X3329050Y-10117361D01*
X3318636Y-10122695D01*
X3308222Y-10133109D01*
X3303143Y-10143523D01*
X3303143Y-10164351D01*
X3308222Y-10174511D01*
X3318636Y-10184925D01*
X3329050Y-10190259D01*
X3412109Y-10234963D02*
G01*
X3412109Y-10292113D01*
X3370452Y-10260871D01*
X3370452Y-10276365D01*
X3365372Y-10286779D01*
X3360293Y-10292113D01*
X3344545Y-10297193D01*
X3334131Y-10297193D01*
X3318636Y-10292113D01*
X3308222Y-10281699D01*
X3303143Y-10265951D01*
X3303143Y-10250457D01*
X3308222Y-10234963D01*
X3313302Y-10229629D01*
X3323716Y-10224549D01*
X2752227Y-10412178D02*
G01*
X2762641Y-10406844D01*
X2773055Y-10396430D01*
X2778135Y-10386270D01*
X2778135Y-10365442D01*
X2773055Y-10355028D01*
X2762641Y-10344614D01*
X2752227Y-10339280D01*
X2736479Y-10334200D01*
X2710571Y-10334200D01*
X2695077Y-10339280D01*
X2684663Y-10344614D01*
X2674249Y-10355028D01*
X2669169Y-10365442D01*
X2669169Y-10386270D01*
X2674249Y-10396430D01*
X2684663Y-10406844D01*
X2695077Y-10412178D01*
X2778135Y-10498284D02*
G01*
X2705491Y-10446468D01*
X2705491Y-10524446D01*
X2778135Y-10498284D02*
G01*
X2669169Y-10498284D01*
X3643459Y-12989963D02*
G01*
X3639395Y-12981835D01*
X3631267Y-12973707D01*
X3622885Y-12969643D01*
X3606629Y-12969643D01*
X3598501Y-12973707D01*
X3590373Y-12981835D01*
X3586309Y-12989963D01*
X3581991Y-13002155D01*
X3581991Y-13022729D01*
X3586309Y-13034921D01*
X3590373Y-13043303D01*
X3598501Y-13051431D01*
X3606629Y-13055495D01*
X3622885Y-13055495D01*
X3631267Y-13051431D01*
X3639395Y-13043303D01*
X3643459Y-13034921D01*
X3719659Y-12969643D02*
G01*
X3678765Y-12969643D01*
X3674447Y-13006473D01*
X3678765Y-13002155D01*
X3690957Y-12998091D01*
X3703149Y-12998091D01*
X3715341Y-13002155D01*
X3723723Y-13010537D01*
X3727787Y-13022729D01*
X3727787Y-13030857D01*
X3723723Y-13043303D01*
X3715341Y-13051431D01*
X3703149Y-13055495D01*
X3690957Y-13055495D01*
X3678765Y-13051431D01*
X3674447Y-13047367D01*
X3670383Y-13038985D01*
X2867568Y-12273579D02*
G01*
X2862234Y-12263165D01*
X2851820Y-12252751D01*
X2841660Y-12247671D01*
X2820832Y-12247671D01*
X2810418Y-12252751D01*
X2800004Y-12263165D01*
X2794670Y-12273579D01*
X2789590Y-12289327D01*
X2789590Y-12315235D01*
X2794670Y-12330729D01*
X2800004Y-12341143D01*
X2810418Y-12351557D01*
X2820832Y-12356637D01*
X2841660Y-12356637D01*
X2851820Y-12351557D01*
X2862234Y-12341143D01*
X2867568Y-12330729D01*
X2964088Y-12263165D02*
G01*
X2959008Y-12252751D01*
X2943260Y-12247671D01*
X2933100Y-12247671D01*
X2917352Y-12252751D01*
X2906938Y-12268499D01*
X2901858Y-12294407D01*
X2901858Y-12320315D01*
X2906938Y-12341143D01*
X2917352Y-12351557D01*
X2933100Y-12356637D01*
X2938180Y-12356637D01*
X2953674Y-12351557D01*
X2964088Y-12341143D01*
X2969422Y-12325649D01*
X2969422Y-12320315D01*
X2964088Y-12304821D01*
X2953674Y-12294407D01*
X2938180Y-12289327D01*
X2933100Y-12289327D01*
X2917352Y-12294407D01*
X2906938Y-12304821D01*
X2901858Y-12320315D01*
X2657111Y-11268034D02*
G01*
X2667525Y-11262700D01*
X2677939Y-11252286D01*
X2683019Y-11242126D01*
X2683019Y-11221298D01*
X2677939Y-11210884D01*
X2667525Y-11200470D01*
X2657111Y-11195136D01*
X2641363Y-11190056D01*
X2615455Y-11190056D01*
X2599961Y-11195136D01*
X2589547Y-11200470D01*
X2579133Y-11210884D01*
X2574053Y-11221298D01*
X2574053Y-11242126D01*
X2579133Y-11252286D01*
X2589547Y-11262700D01*
X2599961Y-11268034D01*
X2683019Y-11374968D02*
G01*
X2574053Y-11323152D01*
X2683019Y-11302324D02*
G01*
X2683019Y-11374968D01*
X3643467Y-13180217D02*
G01*
X3639403Y-13172089D01*
X3631275Y-13163961D01*
X3622893Y-13159643D01*
X3606637Y-13159643D01*
X3598509Y-13163961D01*
X3590381Y-13172089D01*
X3586317Y-13180217D01*
X3581999Y-13192409D01*
X3581999Y-13212983D01*
X3586317Y-13225175D01*
X3590381Y-13233303D01*
X3598509Y-13241685D01*
X3606637Y-13245749D01*
X3622893Y-13245749D01*
X3631275Y-13241685D01*
X3639403Y-13233303D01*
X3643467Y-13225175D01*
X3690965Y-13159643D02*
G01*
X3678773Y-13163961D01*
X3674455Y-13172089D01*
X3674455Y-13180217D01*
X3678773Y-13188345D01*
X3686901Y-13192409D01*
X3703157Y-13196473D01*
X3715349Y-13200791D01*
X3723731Y-13208919D01*
X3727795Y-13217047D01*
X3727795Y-13229239D01*
X3723731Y-13237367D01*
X3719667Y-13241685D01*
X3707221Y-13245749D01*
X3690965Y-13245749D01*
X3678773Y-13241685D01*
X3674455Y-13237367D01*
X3670391Y-13229239D01*
X3670391Y-13217047D01*
X3674455Y-13208919D01*
X3682837Y-13200791D01*
X3695029Y-13196473D01*
X3711285Y-13192409D01*
X3719667Y-13188345D01*
X3723731Y-13180217D01*
X3723731Y-13172089D01*
X3719667Y-13163961D01*
X3707221Y-13159643D01*
X3690965Y-13159643D01*
X2974086Y-11965442D02*
G01*
X2984500Y-11960108D01*
X2994913Y-11949694D01*
X2999993Y-11939534D01*
X2999993Y-11918706D01*
X2994913Y-11908292D01*
X2984500Y-11897878D01*
X2974086Y-11892544D01*
X2958338Y-11887464D01*
X2932429Y-11887464D01*
X2916936Y-11892544D01*
X2906522Y-11897878D01*
X2896108Y-11908292D01*
X2891027Y-11918706D01*
X2891027Y-11939534D01*
X2896108Y-11949694D01*
X2906522Y-11960108D01*
X2916936Y-11965442D01*
X2979165Y-11999732D02*
G01*
X2984500Y-12010146D01*
X2999993Y-12025640D01*
X2891027Y-12025640D01*
X2999993Y-12091172D02*
G01*
X2994913Y-12075424D01*
X2979165Y-12065264D01*
X2953258Y-12059930D01*
X2937763Y-12059930D01*
X2911602Y-12065264D01*
X2896108Y-12075424D01*
X2891027Y-12091172D01*
X2891027Y-12101586D01*
X2896108Y-12117080D01*
X2911602Y-12127494D01*
X2937763Y-12132574D01*
X2953258Y-12132574D01*
X2979165Y-12127494D01*
X2994913Y-12117080D01*
X2999993Y-12101586D01*
X2999993Y-12091172D01*
X3343071Y-9388866D02*
G01*
X3337737Y-9378452D01*
X3327323Y-9368038D01*
X3317163Y-9362958D01*
X3296335Y-9362958D01*
X3285921Y-9368038D01*
X3275507Y-9378452D01*
X3270173Y-9388866D01*
X3265093Y-9404614D01*
X3265093Y-9430522D01*
X3270173Y-9446016D01*
X3275507Y-9456430D01*
X3285921Y-9466844D01*
X3296335Y-9471924D01*
X3317163Y-9471924D01*
X3327323Y-9466844D01*
X3337737Y-9456430D01*
X3343071Y-9446016D01*
X3377361Y-9383786D02*
G01*
X3387775Y-9378452D01*
X3403269Y-9362958D01*
X3403269Y-9471924D01*
X3447973Y-9362958D02*
G01*
X3505123Y-9362958D01*
X3473881Y-9404614D01*
X3489629Y-9404614D01*
X3500043Y-9409694D01*
X3505123Y-9414774D01*
X3510203Y-9430522D01*
X3510203Y-9440936D01*
X3505123Y-9456430D01*
X3494709Y-9466844D01*
X3479215Y-9471924D01*
X3463467Y-9471924D01*
X3447973Y-9466844D01*
X3442893Y-9461764D01*
X3437559Y-9451350D01*
X3643459Y-13370466D02*
G01*
X3639395Y-13362338D01*
X3631267Y-13353956D01*
X3622885Y-13349892D01*
X3606629Y-13349892D01*
X3598501Y-13353956D01*
X3590373Y-13362338D01*
X3586309Y-13370466D01*
X3581991Y-13382658D01*
X3581991Y-13403232D01*
X3586309Y-13415424D01*
X3590373Y-13423552D01*
X3598501Y-13431680D01*
X3606629Y-13435744D01*
X3622885Y-13435744D01*
X3631267Y-13431680D01*
X3639395Y-13423552D01*
X3643459Y-13415424D01*
X3670383Y-13366402D02*
G01*
X3678765Y-13362338D01*
X3690957Y-13349892D01*
X3690957Y-13435744D01*
X3758775Y-13349892D02*
G01*
X3717881Y-13407296D01*
X3779349Y-13407296D01*
X3758775Y-13349892D02*
G01*
X3758775Y-13435744D01*
X3919319Y-11316888D02*
G01*
X3810353Y-11316888D01*
X3919319Y-11316888D02*
G01*
X3919319Y-11353210D01*
X3914239Y-11368958D01*
X3903825Y-11379118D01*
X3893411Y-11384452D01*
X3877663Y-11389532D01*
X3851755Y-11389532D01*
X3836261Y-11384452D01*
X3825847Y-11379118D01*
X3815433Y-11368958D01*
X3810353Y-11353210D01*
X3810353Y-11316888D01*
X3898491Y-11423822D02*
G01*
X3903825Y-11434236D01*
X3919319Y-11449984D01*
X3810353Y-11449984D01*
X2714708Y-9858679D02*
G01*
X2605742Y-9858679D01*
X2714708Y-9858679D02*
G01*
X2714708Y-9895001D01*
X2709628Y-9910749D01*
X2699214Y-9920909D01*
X2688800Y-9926243D01*
X2673052Y-9931323D01*
X2647144Y-9931323D01*
X2631650Y-9926243D01*
X2621236Y-9920909D01*
X2610822Y-9910749D01*
X2605742Y-9895001D01*
X2605742Y-9858679D01*
X2688800Y-9970947D02*
G01*
X2693880Y-9970947D01*
X2704294Y-9976027D01*
X2709628Y-9981361D01*
X2714708Y-9991775D01*
X2714708Y-10012349D01*
X2709628Y-10022763D01*
X2704294Y-10028097D01*
X2693880Y-10033177D01*
X2683466Y-10033177D01*
X2673052Y-10028097D01*
X2657558Y-10017683D01*
X2605742Y-9965613D01*
X2605742Y-10038511D01*
X2461110Y-10587779D02*
G01*
X2352144Y-10587779D01*
X2461110Y-10587779D02*
G01*
X2461110Y-10634515D01*
X2456030Y-10650009D01*
X2450696Y-10655343D01*
X2440282Y-10660423D01*
X2429868Y-10660423D01*
X2419454Y-10655343D01*
X2414374Y-10650009D01*
X2409294Y-10634515D01*
X2409294Y-10587779D01*
X2409294Y-10624101D02*
G01*
X2352144Y-10660423D01*
X2435202Y-10700047D02*
G01*
X2440282Y-10700047D01*
X2450696Y-10705127D01*
X2456030Y-10710461D01*
X2461110Y-10720875D01*
X2461110Y-10741449D01*
X2456030Y-10751863D01*
X2450696Y-10757197D01*
X2440282Y-10762277D01*
X2429868Y-10762277D01*
X2419454Y-10757197D01*
X2403960Y-10746783D01*
X2352144Y-10694713D01*
X2352144Y-10767611D01*
X2852966Y-10440738D02*
G01*
X2852966Y-10549704D01*
X2852966Y-10440738D02*
G01*
X2899702Y-10440738D01*
X2915196Y-10445818D01*
X2920530Y-10451152D01*
X2925610Y-10461566D01*
X2925610Y-10471980D01*
X2920530Y-10482394D01*
X2915196Y-10487474D01*
X2899702Y-10492554D01*
X2852966Y-10492554D01*
X2889288Y-10492554D02*
G01*
X2925610Y-10549704D01*
X3011970Y-10440738D02*
G01*
X2959900Y-10513382D01*
X3037878Y-10513382D01*
X3011970Y-10440738D02*
G01*
X3011970Y-10549704D01*
X2060493Y-11518552D02*
G01*
X2060493Y-11627518D01*
X2060493Y-11518552D02*
G01*
X2107229Y-11518552D01*
X2122723Y-11523632D01*
X2128057Y-11528966D01*
X2133137Y-11539380D01*
X2133137Y-11549794D01*
X2128057Y-11560208D01*
X2122723Y-11565288D01*
X2107229Y-11570368D01*
X2060493Y-11570368D01*
X2096815Y-11570368D02*
G01*
X2133137Y-11627518D01*
X2229911Y-11534046D02*
G01*
X2224577Y-11523632D01*
X2209083Y-11518552D01*
X2198669Y-11518552D01*
X2183175Y-11523632D01*
X2172761Y-11539380D01*
X2167427Y-11565288D01*
X2167427Y-11591196D01*
X2172761Y-11612024D01*
X2183175Y-11622438D01*
X2198669Y-11627518D01*
X2204003Y-11627518D01*
X2219497Y-11622438D01*
X2229911Y-11612024D01*
X2234991Y-11596530D01*
X2234991Y-11591196D01*
X2229911Y-11575702D01*
X2219497Y-11565288D01*
X2204003Y-11560208D01*
X2198669Y-11560208D01*
X2183175Y-11565288D01*
X2172761Y-11575702D01*
X2167427Y-11591196D01*
X2028786Y-13008447D02*
G01*
X2028786Y-13117413D01*
X2028786Y-13008447D02*
G01*
X2075522Y-13008447D01*
X2091016Y-13013527D01*
X2096350Y-13018861D01*
X2101430Y-13029275D01*
X2101430Y-13039689D01*
X2096350Y-13050103D01*
X2091016Y-13055183D01*
X2075522Y-13060263D01*
X2028786Y-13060263D01*
X2065108Y-13060263D02*
G01*
X2101430Y-13117413D01*
X2135720Y-13029275D02*
G01*
X2146134Y-13023941D01*
X2161882Y-13008447D01*
X2161882Y-13117413D01*
X2258402Y-13008447D02*
G01*
X2206586Y-13008447D01*
X2201252Y-13055183D01*
X2206586Y-13050103D01*
X2222080Y-13044769D01*
X2237574Y-13044769D01*
X2253322Y-13050103D01*
X2263736Y-13060263D01*
X2268816Y-13076011D01*
X2268816Y-13086425D01*
X2263736Y-13101919D01*
X2253322Y-13112333D01*
X2237574Y-13117413D01*
X2222080Y-13117413D01*
X2206586Y-13112333D01*
X2201252Y-13107253D01*
X2196172Y-13096839D01*
X2752257Y-10222029D02*
G01*
X2762417Y-10216695D01*
X2772831Y-10206281D01*
X2778165Y-10195867D01*
X2778165Y-10175293D01*
X2772831Y-10164879D01*
X2762417Y-10154465D01*
X2752257Y-10149131D01*
X2736509Y-10144051D01*
X2710601Y-10144051D01*
X2695107Y-10149131D01*
X2684693Y-10154465D01*
X2674279Y-10164879D01*
X2668945Y-10175293D01*
X2668945Y-10195867D01*
X2674279Y-10206281D01*
X2684693Y-10216695D01*
X2695107Y-10222029D01*
X2757337Y-10256319D02*
G01*
X2762417Y-10266733D01*
X2778165Y-10282227D01*
X2668945Y-10282227D01*
X2017387Y-9573280D02*
G01*
X1908167Y-9573280D01*
X2017387Y-9573280D02*
G01*
X2017387Y-9620016D01*
X2012053Y-9635764D01*
X2006973Y-9640844D01*
X1996559Y-9646178D01*
X1986145Y-9646178D01*
X1975731Y-9640844D01*
X1970651Y-9635764D01*
X1965317Y-9620016D01*
X1965317Y-9573280D01*
X1965317Y-9609856D02*
G01*
X1908167Y-9646178D01*
X2017387Y-9706376D02*
G01*
X2012053Y-9690882D01*
X2001639Y-9685548D01*
X1991479Y-9685548D01*
X1981065Y-9690882D01*
X1975731Y-9701296D01*
X1970651Y-9721870D01*
X1965317Y-9737618D01*
X1954903Y-9748032D01*
X1944489Y-9753112D01*
X1928995Y-9753112D01*
X1918581Y-9748032D01*
X1913501Y-9742698D01*
X1908167Y-9727204D01*
X1908167Y-9706376D01*
X1913501Y-9690882D01*
X1918581Y-9685548D01*
X1928995Y-9680468D01*
X1944489Y-9680468D01*
X1954903Y-9685548D01*
X1965317Y-9695962D01*
X1970651Y-9711456D01*
X1975731Y-9732284D01*
X1981065Y-9742698D01*
X1991479Y-9748032D01*
X2001639Y-9748032D01*
X2012053Y-9742698D01*
X2017387Y-9727204D01*
X2017387Y-9706376D01*
X2694495Y-9426287D02*
G01*
X2694495Y-9535507D01*
X2694495Y-9426287D02*
G01*
X2741231Y-9426287D01*
X2756725Y-9431621D01*
X2762059Y-9436701D01*
X2767139Y-9447115D01*
X2767139Y-9457529D01*
X2762059Y-9467943D01*
X2756725Y-9473023D01*
X2741231Y-9478357D01*
X2694495Y-9478357D01*
X2730817Y-9478357D02*
G01*
X2767139Y-9535507D01*
X2801429Y-9447115D02*
G01*
X2811843Y-9442035D01*
X2827591Y-9426287D01*
X2827591Y-9535507D01*
X2892869Y-9426287D02*
G01*
X2877375Y-9431621D01*
X2866961Y-9447115D01*
X2861881Y-9473023D01*
X2861881Y-9488771D01*
X2866961Y-9514679D01*
X2877375Y-9530173D01*
X2892869Y-9535507D01*
X2903283Y-9535507D01*
X2919031Y-9530173D01*
X2929445Y-9514679D01*
X2934525Y-9488771D01*
X2934525Y-9473023D01*
X2929445Y-9447115D01*
X2919031Y-9431621D01*
X2903283Y-9426287D01*
X2892869Y-9426287D01*
X2683002Y-10872970D02*
G01*
X2574036Y-10872970D01*
X2683002Y-10872970D02*
G01*
X2683002Y-10919706D01*
X2677922Y-10935454D01*
X2672588Y-10940534D01*
X2662174Y-10945868D01*
X2651759Y-10945868D01*
X2641600Y-10940534D01*
X2636265Y-10935454D01*
X2631186Y-10919706D01*
X2631186Y-10872970D01*
X2631186Y-10909546D02*
G01*
X2574036Y-10945868D01*
X2662174Y-10980158D02*
G01*
X2667508Y-10990572D01*
X2683002Y-11006066D01*
X2574036Y-11006066D01*
X2662174Y-11040356D02*
G01*
X2667508Y-11050770D01*
X2683002Y-11066264D01*
X2574036Y-11066264D01*
X2060595Y-11328298D02*
G01*
X2060595Y-11437518D01*
X2060595Y-11328298D02*
G01*
X2107331Y-11328298D01*
X2122825Y-11333632D01*
X2128159Y-11338712D01*
X2133239Y-11349126D01*
X2133239Y-11359540D01*
X2128159Y-11369954D01*
X2122825Y-11375034D01*
X2107331Y-11380368D01*
X2060595Y-11380368D01*
X2096917Y-11380368D02*
G01*
X2133239Y-11437518D01*
X2167529Y-11349126D02*
G01*
X2177943Y-11343792D01*
X2193437Y-11328298D01*
X2193437Y-11437518D01*
X2233061Y-11354206D02*
G01*
X2233061Y-11349126D01*
X2238141Y-11338712D01*
X2243475Y-11333632D01*
X2253889Y-11328298D01*
X2274463Y-11328298D01*
X2284877Y-11333632D01*
X2290211Y-11338712D01*
X2295291Y-11349126D01*
X2295291Y-11359540D01*
X2290211Y-11369954D01*
X2279797Y-11385448D01*
X2227727Y-11437518D01*
X2300625Y-11437518D01*
X2556276Y-12521501D02*
G01*
X2447056Y-12521501D01*
X2556276Y-12521501D02*
G01*
X2556276Y-12568237D01*
X2550942Y-12583731D01*
X2545862Y-12589065D01*
X2535448Y-12594145D01*
X2525034Y-12594145D01*
X2514620Y-12589065D01*
X2509540Y-12583731D01*
X2504206Y-12568237D01*
X2504206Y-12521501D01*
X2504206Y-12557823D02*
G01*
X2447056Y-12594145D01*
X2535448Y-12628435D02*
G01*
X2540528Y-12638849D01*
X2556276Y-12654597D01*
X2447056Y-12654597D01*
X2556276Y-12740703D02*
G01*
X2483378Y-12688887D01*
X2483378Y-12766611D01*
X2556276Y-12740703D02*
G01*
X2447056Y-12740703D01*
X3855984Y-9573407D02*
G01*
X3746764Y-9573407D01*
X3855984Y-9573407D02*
G01*
X3855984Y-9620143D01*
X3850650Y-9635637D01*
X3845570Y-9640971D01*
X3835156Y-9646051D01*
X3824742Y-9646051D01*
X3814328Y-9640971D01*
X3809248Y-9635637D01*
X3803914Y-9620143D01*
X3803914Y-9573407D01*
X3803914Y-9609729D02*
G01*
X3746764Y-9646051D01*
X3835156Y-9680341D02*
G01*
X3840236Y-9690755D01*
X3855984Y-9706503D01*
X3746764Y-9706503D01*
X3840236Y-9803023D02*
G01*
X3850650Y-9797943D01*
X3855984Y-9782195D01*
X3855984Y-9771781D01*
X3850650Y-9756287D01*
X3835156Y-9745873D01*
X3809248Y-9740793D01*
X3783086Y-9740793D01*
X3762512Y-9745873D01*
X3752098Y-9756287D01*
X3746764Y-9771781D01*
X3746764Y-9777115D01*
X3752098Y-9792609D01*
X3762512Y-9803023D01*
X3778006Y-9808103D01*
X3783086Y-9808103D01*
X3798834Y-9803023D01*
X3809248Y-9792609D01*
X3814328Y-9777115D01*
X3814328Y-9771781D01*
X3809248Y-9756287D01*
X3798834Y-9745873D01*
X3783086Y-9740793D01*
X3486998Y-12342754D02*
G01*
X3486998Y-12451720D01*
X3486998Y-12451720D02*
G01*
X3549228Y-12451720D01*
X3583518Y-12363582D02*
G01*
X3593932Y-12358248D01*
X3609680Y-12342754D01*
X3609680Y-12451720D01*
X3360193Y-13547351D02*
G01*
X3360193Y-13656317D01*
X3360193Y-13656317D02*
G01*
X3422423Y-13656317D01*
X3462047Y-13573259D02*
G01*
X3462047Y-13568179D01*
X3467127Y-13557765D01*
X3472461Y-13552431D01*
X3482875Y-13547351D01*
X3503703Y-13547351D01*
X3513863Y-13552431D01*
X3519197Y-13557765D01*
X3524277Y-13568179D01*
X3524277Y-13578593D01*
X3519197Y-13589007D01*
X3508783Y-13604501D01*
X3456713Y-13656317D01*
X3529611Y-13656317D01*
X3074883Y-10187129D02*
G01*
X3074883Y-10296095D01*
X3074883Y-10187129D02*
G01*
X3121619Y-10187129D01*
X3137113Y-10192209D01*
X3142447Y-10197543D01*
X3147527Y-10207957D01*
X3147527Y-10218371D01*
X3142447Y-10228785D01*
X3137113Y-10233865D01*
X3121619Y-10238945D01*
X3074883Y-10238945D01*
X3111205Y-10238945D02*
G01*
X3147527Y-10296095D01*
X3181817Y-10207957D02*
G01*
X3192231Y-10202623D01*
X3207979Y-10187129D01*
X3207979Y-10296095D01*
X3824224Y-10556079D02*
G01*
X3715258Y-10556079D01*
X3824224Y-10556079D02*
G01*
X3824224Y-10602815D01*
X3819143Y-10618309D01*
X3813809Y-10623643D01*
X3803395Y-10628723D01*
X3792981Y-10628723D01*
X3782568Y-10623643D01*
X3777488Y-10618309D01*
X3772408Y-10602815D01*
X3772408Y-10556079D01*
X3772408Y-10592401D02*
G01*
X3715258Y-10628723D01*
X3824224Y-10673427D02*
G01*
X3824224Y-10730577D01*
X3782568Y-10699589D01*
X3782568Y-10715083D01*
X3777488Y-10725497D01*
X3772408Y-10730577D01*
X3756659Y-10735911D01*
X3746245Y-10735911D01*
X3730752Y-10730577D01*
X3720338Y-10720163D01*
X3715258Y-10704669D01*
X3715258Y-10689175D01*
X3720338Y-10673427D01*
X3725418Y-10668347D01*
X3735831Y-10663013D01*
X2841508Y-11950860D02*
G01*
X2763530Y-11950860D01*
X2748036Y-11955940D01*
X2737622Y-11966354D01*
X2732542Y-11982102D01*
X2732542Y-11992516D01*
X2737622Y-12008010D01*
X2748036Y-12018424D01*
X2763530Y-12023504D01*
X2841508Y-12023504D01*
X2820680Y-12057794D02*
G01*
X2826014Y-12068208D01*
X2841508Y-12083956D01*
X2732542Y-12083956D01*
D14*
X1773643Y-8622383D02*
G01*
X3742143Y-8622383D01*
X1778000Y-8699500D02*
G01*
X3746500Y-8699500D01*
D13*
X2488374Y-11573868D02*
G01*
X2359880Y-11573868D01*
X2359880Y-11757286D01*
X2488374Y-11757286D01*
X2583614Y-11573868D02*
G01*
X2712107Y-11573868D01*
X2712107Y-11757286D01*
X2583614Y-11757286D01*
D15*
X1965396Y-12496474D02*
G01*
X1965396Y-12293274D01*
X2066996Y-12394874D02*
G01*
X1863796Y-12394874D01*
X2320996Y-12293274D02*
G01*
X2320996Y-12699674D01*
X2320996Y-12750474D01*
X2270196Y-12750474D01*
X2270196Y-12699674D01*
X2168596Y-12699674D01*
X2168596Y-12750474D01*
X2016196Y-12750474D01*
X2016196Y-12699674D01*
X1914596Y-12699674D01*
X1914596Y-12750474D01*
X1762196Y-12750474D01*
X1762196Y-12699674D01*
X1660596Y-12699674D01*
X1660596Y-12750474D01*
X1609796Y-12750474D01*
X1609796Y-12699674D01*
X1609796Y-12344074D01*
X1609796Y-12039274D01*
X2320996Y-12039274D01*
X2320996Y-12344074D01*
D13*
X1854517Y-12961884D02*
G01*
X1983011Y-12961884D01*
X1983011Y-12778465D01*
X1854517Y-12778465D01*
X1759277Y-12961884D02*
G01*
X1630784Y-12961884D01*
X1630784Y-12778465D01*
X1759277Y-12778465D01*
D15*
X2187006Y-10123004D02*
G01*
X2187006Y-9943002D01*
X2072007Y-10123004D02*
G01*
X1992005Y-10123004D01*
X1877004Y-10123004D02*
G01*
X1877004Y-9943002D01*
D13*
X3047809Y-9519140D02*
G01*
X3047809Y-9660140D01*
X3228530Y-9660140D02*
G01*
X3228530Y-9519140D01*
X3213290Y-9503900D02*
G01*
X3063049Y-9503900D01*
X3047809Y-9881379D02*
G01*
X3047809Y-9740379D01*
X3228530Y-9740379D02*
G01*
X3228530Y-9881379D01*
X3213290Y-9896619D02*
G01*
X3063049Y-9896619D01*
X1942774Y-12009536D02*
G01*
X2083775Y-12009536D01*
X2083775Y-11828815D02*
G01*
X1942774Y-11828815D01*
X1927534Y-11844055D02*
G01*
X1927534Y-11994296D01*
X2305014Y-12009536D02*
G01*
X2164013Y-12009536D01*
X2164013Y-11828815D02*
G01*
X2305014Y-11828815D01*
X2320254Y-11844055D02*
G01*
X2320254Y-11994296D01*
X3097514Y-13287011D02*
G01*
X2956514Y-13287011D01*
X2956514Y-13467732D02*
G01*
X3097514Y-13467732D01*
X3112754Y-13452492D02*
G01*
X3112754Y-13302251D01*
X2735275Y-13287011D02*
G01*
X2876275Y-13287011D01*
X2876275Y-13467732D02*
G01*
X2735275Y-13467732D01*
X2720035Y-13452492D02*
G01*
X2720035Y-13302251D01*
X3356803Y-11491158D02*
G01*
X3356803Y-11362664D01*
X3173384Y-11362664D01*
X3173384Y-11491158D01*
X3356803Y-11586397D02*
G01*
X3356803Y-11714891D01*
X3173384Y-11714891D01*
X3173384Y-11586397D01*
X3134903Y-11491158D02*
G01*
X3134903Y-11362664D01*
X2951485Y-11362664D01*
X2951485Y-11491158D01*
X3134903Y-11586397D02*
G01*
X3134903Y-11714891D01*
X2951485Y-11714891D01*
X2951485Y-11586397D01*
X2520309Y-9760219D02*
G01*
X2648803Y-9760219D01*
X2648803Y-9576800D01*
X2520309Y-9576800D01*
X2425070Y-9760219D02*
G01*
X2296576Y-9760219D01*
X2296576Y-9576800D01*
X2425070Y-9576800D01*
X3402081Y-11468079D02*
G01*
X3402081Y-11645920D01*
X3709918Y-11468079D02*
G01*
X3709918Y-11645920D01*
X2416688Y-13530991D02*
G01*
X2591927Y-13530991D01*
X2591927Y-13426831D01*
X2416688Y-13223753D02*
G01*
X2591927Y-13223753D01*
X2591927Y-13327913D01*
X2416688Y-13422911D02*
G01*
X2416688Y-13331832D01*
X2948909Y-12588880D02*
G01*
X2948909Y-12460386D01*
X2765491Y-12460386D01*
X2765491Y-12588880D01*
X2948909Y-12684119D02*
G01*
X2948909Y-12812613D01*
X2765491Y-12812613D01*
X2765491Y-12684119D01*
X2587619Y-13172709D02*
G01*
X2716113Y-13172709D01*
X2716113Y-12989290D01*
X2587619Y-12989290D01*
X2492380Y-13172709D02*
G01*
X2363886Y-13172709D01*
X2363886Y-12989290D01*
X2492380Y-12989290D01*
D15*
X2762209Y-12998599D02*
G01*
X2761211Y-12850591D01*
X2951210Y-12984591D02*
G01*
X2951210Y-12850591D01*
X2761211Y-12850591D02*
G01*
X2951213Y-12850591D01*
X2952211Y-13223603D02*
G01*
X2952206Y-13223603D01*
X2917212Y-13258596D01*
X2762209Y-13223603D02*
G01*
X2762214Y-13223603D01*
X2797208Y-13258596D01*
X2762209Y-13098599D02*
G01*
X2762209Y-13223603D01*
X2952211Y-13098599D02*
G01*
X2952211Y-13223603D01*
X2797208Y-13258596D02*
G01*
X2917212Y-13258596D01*
X2807210Y-13018592D02*
G01*
X2907210Y-13018592D01*
X2857715Y-13018592D02*
G01*
X2857715Y-13068592D01*
D13*
X3794912Y-9926820D02*
G01*
X3653911Y-9926820D01*
X3653911Y-10107541D02*
G01*
X3794912Y-10107541D01*
X3810152Y-10092301D02*
G01*
X3810152Y-9942060D01*
X3432672Y-9926820D02*
G01*
X3573673Y-9926820D01*
X3573673Y-10107541D02*
G01*
X3432672Y-10107541D01*
X3417432Y-10092301D02*
G01*
X3417432Y-9942060D01*
X3609052Y-10515300D02*
G01*
X3609052Y-10374299D01*
X3428331Y-10374299D02*
G01*
X3428331Y-10515300D01*
X3443571Y-10530540D02*
G01*
X3593812Y-10530540D01*
X3609052Y-10153060D02*
G01*
X3609052Y-10294061D01*
X3428331Y-10294061D02*
G01*
X3428331Y-10153060D01*
X3443571Y-10137820D02*
G01*
X3593812Y-10137820D01*
X2259774Y-10519638D02*
G01*
X2400774Y-10519638D01*
X2400774Y-10338917D02*
G01*
X2259774Y-10338917D01*
X2244534Y-10354157D02*
G01*
X2244534Y-10504398D01*
X2622014Y-10519638D02*
G01*
X2481013Y-10519638D01*
X2481013Y-10338917D02*
G01*
X2622014Y-10338917D01*
X2637254Y-10354157D02*
G01*
X2637254Y-10504398D01*
X3541313Y-12906613D02*
G01*
X3400313Y-12906613D01*
X3400313Y-13087334D02*
G01*
X3541313Y-13087334D01*
X3556553Y-13072094D02*
G01*
X3556553Y-12921853D01*
X3179074Y-12906613D02*
G01*
X3320074Y-12906613D01*
X3320074Y-13087334D02*
G01*
X3179074Y-13087334D01*
X3163834Y-13072094D02*
G01*
X3163834Y-12921853D01*
X2386573Y-12389937D02*
G01*
X2527574Y-12389937D01*
X2527574Y-12209216D02*
G01*
X2386573Y-12209216D01*
X2371333Y-12224456D02*
G01*
X2371333Y-12374697D01*
X2748813Y-12389937D02*
G01*
X2607812Y-12389937D01*
X2607812Y-12209216D02*
G01*
X2748813Y-12209216D01*
X2764053Y-12224456D02*
G01*
X2764053Y-12374697D01*
X2350533Y-11167457D02*
G01*
X2350533Y-11308458D01*
X2531254Y-11308458D02*
G01*
X2531254Y-11167457D01*
X2516014Y-11152217D02*
G01*
X2365773Y-11152217D01*
X2350533Y-11529697D02*
G01*
X2350533Y-11388697D01*
X2531254Y-11388697D02*
G01*
X2531254Y-11529697D01*
X2516014Y-11544937D02*
G01*
X2365773Y-11544937D01*
X3541313Y-13097113D02*
G01*
X3400313Y-13097113D01*
X3400313Y-13277834D02*
G01*
X3541313Y-13277834D01*
X3556553Y-13262594D02*
G01*
X3556553Y-13112353D01*
X3179074Y-13097113D02*
G01*
X3320074Y-13097113D01*
X3320074Y-13277834D02*
G01*
X3179074Y-13277834D01*
X3163834Y-13262594D02*
G01*
X3163834Y-13112353D01*
X3196953Y-12258794D02*
G01*
X3196953Y-12117793D01*
X3016232Y-12117793D02*
G01*
X3016232Y-12258794D01*
X3031472Y-12274034D02*
G01*
X3181713Y-12274034D01*
X3196953Y-11896554D02*
G01*
X3196953Y-12037555D01*
X3016232Y-12037555D02*
G01*
X3016232Y-11896554D01*
X3031472Y-11881314D02*
G01*
X3181713Y-11881314D01*
X3269833Y-9519061D02*
G01*
X3269833Y-9660061D01*
X3450554Y-9660061D02*
G01*
X3450554Y-9519061D01*
X3435314Y-9503821D02*
G01*
X3285073Y-9503821D01*
X3269833Y-9881301D02*
G01*
X3269833Y-9740300D01*
X3450554Y-9740300D02*
G01*
X3450554Y-9881301D01*
X3435314Y-9896541D02*
G01*
X3285073Y-9896541D01*
X3541313Y-13287613D02*
G01*
X3400313Y-13287613D01*
X3400313Y-13468334D02*
G01*
X3541313Y-13468334D01*
X3556553Y-13453094D02*
G01*
X3556553Y-13302853D01*
X3179074Y-13287613D02*
G01*
X3320074Y-13287613D01*
X3320074Y-13468334D02*
G01*
X3179074Y-13468334D01*
X3163834Y-13453094D02*
G01*
X3163834Y-13302853D01*
D16*
X3696779Y-10905276D02*
G01*
X3696779Y-10922660D01*
X3847807Y-10905276D02*
G01*
X3847807Y-10922660D01*
X3847807Y-10905276D02*
G01*
X3858912Y-10905276D01*
X3858912Y-10922660D01*
X3685674Y-10922660D02*
G01*
X3685674Y-10905276D01*
X3696779Y-10905276D01*
X3696779Y-10922660D02*
G01*
X3685674Y-10922660D01*
X3858912Y-10922660D02*
G01*
X3847807Y-10922660D01*
X3858912Y-10980564D02*
G01*
X3685674Y-10980564D01*
D13*
X3858912Y-10966277D02*
G01*
X3685674Y-10966277D01*
X3858912Y-10922660D02*
G01*
X3858912Y-11203894D01*
X3858912Y-11203894D02*
G01*
X3842113Y-11203894D01*
X3685674Y-10922660D02*
G01*
X3685674Y-11203894D01*
X3685674Y-11203894D02*
G01*
X3702474Y-11203894D01*
X2561816Y-10039649D02*
G01*
X2561816Y-9867910D01*
X2458653Y-9867910D01*
X2256574Y-10039649D02*
G01*
X2256574Y-9867910D01*
X2359736Y-9867910D01*
X2454734Y-10039649D02*
G01*
X2363655Y-10039649D01*
D15*
X1968500Y-10820400D02*
G01*
X1968500Y-11023600D01*
X1866900Y-10922000D02*
G01*
X2070100Y-10922000D01*
X1612900Y-11023600D02*
G01*
X1612900Y-10617200D01*
X1612900Y-10566400D01*
X1663700Y-10566400D01*
X1663700Y-10617200D01*
X1765300Y-10617200D01*
X1765300Y-10566400D01*
X1917700Y-10566400D01*
X1917700Y-10617200D01*
X2019300Y-10617200D01*
X2019300Y-10566400D01*
X2171700Y-10566400D01*
X2171700Y-10617200D01*
X2273300Y-10617200D01*
X2273300Y-10566400D01*
X2324100Y-10566400D01*
X2324100Y-10617200D01*
X2324100Y-10972800D01*
X2324100Y-11277600D01*
X1612900Y-11277600D01*
X1612900Y-10972800D01*
X3398596Y-10936478D02*
G01*
X3195396Y-10936478D01*
X3296996Y-10834878D02*
G01*
X3296996Y-11038078D01*
X3195396Y-10580878D02*
G01*
X3601796Y-10580878D01*
X3652596Y-10580878D01*
X3652596Y-10631678D01*
X3601796Y-10631678D01*
X3601796Y-10733278D01*
X3652596Y-10733278D01*
X3652596Y-10885678D01*
X3601796Y-10885678D01*
X3601796Y-10987278D01*
X3652596Y-10987278D01*
X3652596Y-11139678D01*
X3601796Y-11139678D01*
X3601796Y-11241278D01*
X3652596Y-11241278D01*
X3652596Y-11292078D01*
X3601796Y-11292078D01*
X3246196Y-11292078D01*
X2941396Y-11292078D01*
X2941396Y-10580878D01*
X3246196Y-10580878D01*
D13*
X1886216Y-11693885D02*
G01*
X2014710Y-11693885D01*
X2014710Y-11510467D01*
X1886216Y-11510467D01*
X1790976Y-11693885D02*
G01*
X1662483Y-11693885D01*
X1662483Y-11510467D01*
X1790976Y-11510467D01*
X2234915Y-12961884D02*
G01*
X2363409Y-12961884D01*
X2363409Y-12778465D01*
X2234915Y-12778465D01*
X2139675Y-12961884D02*
G01*
X2011182Y-12961884D01*
X2011182Y-12778465D01*
X2139675Y-12778465D01*
X2259774Y-10329440D02*
G01*
X2400774Y-10329440D01*
X2400774Y-10148719D02*
G01*
X2259774Y-10148719D01*
X2244534Y-10163959D02*
G01*
X2244534Y-10314200D01*
X2622014Y-10329440D02*
G01*
X2481013Y-10329440D01*
X2481013Y-10148719D02*
G01*
X2622014Y-10148719D01*
X2637254Y-10163959D02*
G01*
X2637254Y-10314200D01*
X2067290Y-9699619D02*
G01*
X2067290Y-9828113D01*
X2250709Y-9828113D01*
X2250709Y-9699619D01*
X2067290Y-9604380D02*
G01*
X2067290Y-9475886D01*
X2250709Y-9475886D01*
X2250709Y-9604380D01*
X2424976Y-9386572D02*
G01*
X2296482Y-9386572D01*
X2296482Y-9569991D01*
X2424976Y-9569991D01*
X2520215Y-9386572D02*
G01*
X2648709Y-9386572D01*
X2648709Y-9569991D01*
X2520215Y-9569991D01*
X2349185Y-11015797D02*
G01*
X2349185Y-11144290D01*
X2532603Y-11144290D01*
X2532603Y-11015797D01*
X2349185Y-10920557D02*
G01*
X2349185Y-10792063D01*
X2532603Y-10792063D01*
X2532603Y-10920557D01*
X1790976Y-11320266D02*
G01*
X1662483Y-11320266D01*
X1662483Y-11503685D01*
X1790976Y-11503685D01*
X1886216Y-11320266D02*
G01*
X2014710Y-11320266D01*
X2014710Y-11503685D01*
X1886216Y-11503685D01*
X2575290Y-12684119D02*
G01*
X2575290Y-12812613D01*
X2758709Y-12812613D01*
X2758709Y-12684119D01*
X2575290Y-12588880D02*
G01*
X2575290Y-12460386D01*
X2758709Y-12460386D01*
X2758709Y-12588880D01*
X3522083Y-9747801D02*
G01*
X3522083Y-9876294D01*
X3705501Y-9876294D01*
X3705501Y-9747801D01*
X3522083Y-9652561D02*
G01*
X3522083Y-9524067D01*
X3705501Y-9524067D01*
X3705501Y-9652561D01*
X3803012Y-12272215D02*
G01*
X3803012Y-12298596D01*
X3297770Y-12298596D01*
X3297770Y-12272215D01*
X3803012Y-11819735D02*
G01*
X3803012Y-11793354D01*
X3297770Y-11793354D01*
X3297770Y-11819735D01*
D15*
X3096168Y-13497676D02*
G01*
X2981868Y-13497676D01*
X2969168Y-13497676D01*
X2943768Y-13523076D01*
X2943768Y-13662776D01*
X2943768Y-13675476D01*
X2969168Y-13700876D01*
X3096168Y-13700876D01*
X3172368Y-13700876D02*
G01*
X3286668Y-13700876D01*
X3299368Y-13700876D01*
X3324768Y-13675476D01*
X3324768Y-13535776D01*
X3324768Y-13523076D01*
X3299368Y-13497676D01*
X3172368Y-13497676D01*
D13*
X3281014Y-10520987D02*
G01*
X3409508Y-10520987D01*
X3409508Y-10337568D01*
X3281014Y-10337568D01*
X3185774Y-10520987D02*
G01*
X3057281Y-10520987D01*
X3057281Y-10337568D01*
X3185774Y-10337568D01*
D15*
X3286894Y-14042069D02*
G01*
X3286894Y-14296069D01*
X2228893Y-14042069D02*
G01*
X3286894Y-14042069D01*
X2506245Y-14042069D02*
G01*
X2506245Y-14296069D01*
X2228893Y-14296069D02*
G01*
X3286894Y-14296069D01*
X2228893Y-14042069D02*
G01*
X2228893Y-14296069D01*
D13*
X3680584Y-10381800D02*
G01*
X3680584Y-10510293D01*
X3864002Y-10510293D01*
X3864002Y-10381800D01*
X3680584Y-10286560D02*
G01*
X3680584Y-10158067D01*
X3864002Y-10158067D01*
X3864002Y-10286560D01*
D15*
X2228893Y-9193182D02*
G01*
X2228893Y-8939182D01*
X3286894Y-9193182D02*
G01*
X2228893Y-9193182D01*
X3009541Y-9193182D02*
G01*
X3009541Y-8939182D01*
X3286894Y-8939182D02*
G01*
X2228893Y-8939182D01*
X3286894Y-9193182D02*
G01*
X3286894Y-8939182D01*
X2445989Y-12169282D02*
G01*
X2625991Y-12169282D01*
X2445989Y-12054283D02*
G01*
X2445989Y-11974281D01*
X2445989Y-11859280D02*
G01*
X2625991Y-11859280D01*
G75*
G01*
X1965396Y-12281337D02*
G03*
X1967428Y-12281337I1016J-113588D01*
G75*
G01*
X2221936Y-12130715D02*
G03*
X2222190Y-12130715I127J-7619D01*
D13*
G75*
G01*
X3228531Y-9519140D02*
G03*
X3213290Y-9503900I-15241J0D01*
G75*
G01*
X3063049Y-9503900D02*
G03*
X3047810Y-9519140I0J-15240D01*
G75*
G01*
X3228531Y-9881380D02*
G02*
X3213290Y-9896620I-15241J0D01*
G75*
G01*
X3063049Y-9896620D02*
G02*
X3047810Y-9881380I0J15240D01*
G75*
G01*
X1942775Y-11828816D02*
G03*
X1927535Y-11844056I0J-15240D01*
G75*
G01*
X1927535Y-11994297D02*
G03*
X1942775Y-12009537I15240J0D01*
G75*
G01*
X2305014Y-11828816D02*
G02*
X2320254Y-11844056I0J-15240D01*
G75*
G01*
X2320254Y-11994297D02*
G02*
X2305014Y-12009537I-15240J0D01*
G75*
G01*
X3097515Y-13467733D02*
G03*
X3112755Y-13452493I0J15240D01*
G75*
G01*
X3112755Y-13302252D02*
G03*
X3097515Y-13287012I-15240J0D01*
G75*
G01*
X2735275Y-13467733D02*
G02*
X2720035Y-13452493I0J15240D01*
G75*
G01*
X2720035Y-13302252D02*
G02*
X2735275Y-13287012I15240J0D01*
G75*
G01*
X3794912Y-10107541D02*
G03*
X3810152Y-10092301I0J15240D01*
G75*
G01*
X3810152Y-9942060D02*
G03*
X3794912Y-9926820I-15240J0D01*
G75*
G01*
X3432673Y-10107541D02*
G02*
X3417433Y-10092301I0J15240D01*
G75*
G01*
X3417433Y-9942060D02*
G02*
X3432673Y-9926820I15240J0D01*
G75*
G01*
X3428332Y-10515300D02*
G03*
X3443572Y-10530540I15240J0D01*
G75*
G01*
X3593813Y-10530540D02*
G03*
X3609053Y-10515300I0J15240D01*
G75*
G01*
X3428332Y-10153061D02*
G02*
X3443572Y-10137821I15240J0D01*
G75*
G01*
X3593813Y-10137821D02*
G02*
X3609053Y-10153061I0J-15240D01*
G75*
G01*
X2259774Y-10338918D02*
G03*
X2244535Y-10354158I0J-15240D01*
G75*
G01*
X2244535Y-10504399D02*
G03*
X2259774Y-10519639I15239J0D01*
G75*
G01*
X2622014Y-10338918D02*
G02*
X2637254Y-10354158I0J-15240D01*
G75*
G01*
X2637254Y-10504399D02*
G02*
X2622014Y-10519639I-15240J0D01*
G75*
G01*
X3541314Y-13087335D02*
G03*
X3556554Y-13072095I0J15240D01*
G75*
G01*
X3556554Y-12921854D02*
G03*
X3541314Y-12906614I-15240J0D01*
G75*
G01*
X3179074Y-13087335D02*
G02*
X3163834Y-13072095I0J15240D01*
G75*
G01*
X3163834Y-12921854D02*
G02*
X3179074Y-12906614I15240J0D01*
G75*
G01*
X2386574Y-12209216D02*
G03*
X2371334Y-12224456I0J-15240D01*
G75*
G01*
X2371334Y-12374697D02*
G03*
X2386574Y-12389937I15240J0D01*
G75*
G01*
X2748813Y-12209216D02*
G02*
X2764053Y-12224456I0J-15240D01*
G75*
G01*
X2764053Y-12374697D02*
G02*
X2748813Y-12389937I-15240J0D01*
G75*
G01*
X2531255Y-11167458D02*
G03*
X2516015Y-11152218I-15240J0D01*
G75*
G01*
X2365774Y-11152218D02*
G03*
X2350534Y-11167458I0J-15240D01*
G75*
G01*
X2531255Y-11529698D02*
G02*
X2516015Y-11544938I-15240J0D01*
G75*
G01*
X2365774Y-11544938D02*
G02*
X2350534Y-11529698I0J15240D01*
G75*
G01*
X3541314Y-13277835D02*
G03*
X3556554Y-13262595I0J15240D01*
G75*
G01*
X3556554Y-13112354D02*
G03*
X3541314Y-13097114I-15240J0D01*
G75*
G01*
X3179074Y-13277835D02*
G02*
X3163834Y-13262595I0J15240D01*
G75*
G01*
X3163834Y-13112354D02*
G02*
X3179074Y-13097114I15240J0D01*
G75*
G01*
X3016232Y-12258794D02*
G03*
X3031472Y-12274034I15240J0D01*
G75*
G01*
X3181713Y-12274034D02*
G03*
X3196953Y-12258794I0J15240D01*
G75*
G01*
X3016232Y-11896555D02*
G02*
X3031472Y-11881315I15240J0D01*
G75*
G01*
X3181713Y-11881315D02*
G02*
X3196953Y-11896555I0J-15240D01*
G75*
G01*
X3450554Y-9519061D02*
G03*
X3435314Y-9503821I-15240J0D01*
G75*
G01*
X3285073Y-9503821D02*
G03*
X3269833Y-9519061I0J-15240D01*
G75*
G01*
X3450554Y-9881301D02*
G02*
X3435314Y-9896541I-15240J0D01*
G75*
G01*
X3285073Y-9896541D02*
G02*
X3269833Y-9881301I0J15240D01*
G75*
G01*
X3541314Y-13468335D02*
G03*
X3556554Y-13453095I0J15240D01*
G75*
G01*
X3556554Y-13302854D02*
G03*
X3541314Y-13287614I-15240J0D01*
G75*
G01*
X3179074Y-13468335D02*
G02*
X3163834Y-13453095I0J15240D01*
G75*
G01*
X3163834Y-13302854D02*
G02*
X3179074Y-13287614I15240J0D01*
D15*
G75*
G01*
X1968500Y-11035538D02*
G03*
X1966468Y-11035538I-1016J113588D01*
G75*
G01*
X1711960Y-11186160D02*
G03*
X1711706Y-11186160I-127J7619D01*
G75*
G01*
X3183458Y-10936478D02*
G03*
X3183458Y-10934446I113588J1016D01*
G75*
G01*
X3032836Y-10679938D02*
G03*
X3032836Y-10679684I7619J127D01*
D13*
G75*
G01*
X2259774Y-10148720D02*
G03*
X2244535Y-10163960I0J-15240D01*
G75*
G01*
X2244535Y-10314201D02*
G03*
X2259774Y-10329441I15239J0D01*
G75*
G01*
X2622014Y-10148720D02*
G02*
X2637254Y-10163960I0J-15240D01*
G75*
G01*
X2637254Y-10314201D02*
G02*
X2622014Y-10329441I-15240J0D01*
D15*
G75*
G01
X2209800Y-9880625D02*
G03X2209800Y-9880625I-12700J0D01*
D17*
G75*
G01
X3737839Y-11426850D02*
G03X3737839Y-11426850I-15011J0D01*
D15*
G75*
G01
X2701061Y-12179402D02*
G03X2701061Y-12179402I-12700J0D01*
X2159000Y-4699000D02*
G01*
X3365500Y-4699000D01*
X3365500Y-8445500D01*
X2159000Y-8445500D01*
X2159000Y-4699000D01*
M02*
