G04 Layer: TopSilkscreenLayer*
G04 Panelize: , Column: 1, Row: 1, Board Size: 24.79mm x 99.86mm, Panelized Board Size: 24.79mm x 99.86mm*
G04 EasyEDA v6.5.38, 2023-11-22 23:21:53*
G04 f551045807774007a63bfe64a8c91a45,9a5be75d700b4a6385dc1106f27949ae,10*
G04 Gerber Generator version 0.2*
G04 Scale: 100 percent, Rotated: No, Reflected: No *
G04 Dimensions in millimeters *
G04 leading zeros omitted , absolute positions ,4 integer and 5 decimal *
%FSLAX45Y45*%
%MOMM*%

%ADD10C,0.1600*%
%ADD11C,0.2000*%
%ADD12C,0.2600*%
%ADD13C,0.5000*%
%ADD14C,0.1524*%
%ADD15C,0.1400*%
%ADD16C,0.2500*%
%ADD17C,0.2100*%
%ADD18C,0.1520*%
%ADD19C,0.2540*%
%ADD20C,0.1500*%
%ADD21C,0.3000*%
%ADD22C,0.0130*%

%LPD*%
G36*
X1629206Y-12683591D02*
G01*
X1629206Y-12927330D01*
X1677314Y-12927330D01*
X1677314Y-12764820D01*
X1701393Y-12764820D01*
X1701393Y-12788036D01*
X1773631Y-12788036D01*
X1773631Y-12811252D01*
X1821789Y-12811252D01*
X1821789Y-12834467D01*
X1845868Y-12834467D01*
X1845868Y-12857683D01*
X1869948Y-12857683D01*
X1869948Y-12834467D01*
X1893976Y-12834467D01*
X1893976Y-12880898D01*
X1797710Y-12880898D01*
X1797710Y-12904114D01*
X1773631Y-12904114D01*
X1773631Y-12927330D01*
X1749552Y-12927330D01*
X1749552Y-12950545D01*
X1605127Y-12950545D01*
X1605127Y-12973761D01*
X1581048Y-12973761D01*
X1581048Y-13089839D01*
X1653235Y-13089839D01*
X1653235Y-13113054D01*
X1629206Y-13113054D01*
X1629206Y-13136270D01*
X1653235Y-13136270D01*
X1653235Y-13113054D01*
X1749552Y-13113054D01*
X1749552Y-13066623D01*
X1942134Y-13066623D01*
X1942134Y-13020192D01*
X1966214Y-13020192D01*
X1966214Y-12996976D01*
X1990293Y-12996976D01*
X1990293Y-12950545D01*
X2014372Y-12950545D01*
X2014372Y-12927330D01*
X2038451Y-12927330D01*
X2038451Y-12973761D01*
X2110638Y-12973761D01*
X2110638Y-12996976D01*
X2134717Y-12996976D01*
X2134717Y-13020192D01*
X2110638Y-13020192D01*
X2110638Y-13043408D01*
X2062530Y-13043408D01*
X2062530Y-13089839D01*
X2086610Y-13089839D01*
X2086610Y-13113054D01*
X2062530Y-13113054D01*
X2062530Y-13089839D01*
X2014372Y-13089839D01*
X2014372Y-13066623D01*
X1797710Y-13066623D01*
X1797710Y-13113054D01*
X1869948Y-13113054D01*
X1869948Y-13136270D01*
X1893976Y-13136270D01*
X1893976Y-13159486D01*
X1845868Y-13159486D01*
X1845868Y-13182701D01*
X1821789Y-13182701D01*
X1821789Y-13205917D01*
X1773631Y-13205917D01*
X1773631Y-13229132D01*
X1725472Y-13229132D01*
X1725472Y-13252348D01*
X1701393Y-13252348D01*
X1701393Y-13275563D01*
X1677314Y-13275563D01*
X1677314Y-13136270D01*
X1629206Y-13136270D01*
X1629206Y-13333577D01*
X1677314Y-13333577D01*
X1677314Y-13321995D01*
X1725472Y-13321995D01*
X1725472Y-13298779D01*
X1773631Y-13298779D01*
X1773631Y-13275563D01*
X1797710Y-13275563D01*
X1797710Y-13252348D01*
X1845868Y-13252348D01*
X1845868Y-13229132D01*
X1893976Y-13229132D01*
X1893976Y-13205917D01*
X1942134Y-13205917D01*
X1942134Y-13182701D01*
X1893976Y-13182701D01*
X1893976Y-13159486D01*
X2014372Y-13159486D01*
X2014372Y-13182701D01*
X2038451Y-13182701D01*
X2038451Y-13205917D01*
X2062530Y-13205917D01*
X2062530Y-13229132D01*
X2110638Y-13229132D01*
X2110638Y-13159486D01*
X2086610Y-13159486D01*
X2086610Y-13113054D01*
X2110638Y-13113054D01*
X2110638Y-13089839D01*
X2134717Y-13089839D01*
X2134717Y-13066623D01*
X2182876Y-13066623D01*
X2182876Y-13043408D01*
X2206955Y-13043408D01*
X2206955Y-13020192D01*
X2231034Y-13020192D01*
X2231034Y-12996976D01*
X2206955Y-12996976D01*
X2206955Y-12973761D01*
X2182876Y-12973761D01*
X2182876Y-12950545D01*
X2134717Y-12950545D01*
X2134717Y-12927330D01*
X2038451Y-12927330D01*
X2038451Y-12904114D01*
X2110638Y-12904114D01*
X2110638Y-12834467D01*
X2086610Y-12834467D01*
X2086610Y-12811252D01*
X2038451Y-12811252D01*
X2038451Y-12788036D01*
X1966214Y-12788036D01*
X1966214Y-12811252D01*
X1918055Y-12811252D01*
X1918055Y-12834467D01*
X1893976Y-12834467D01*
X1893976Y-12811252D01*
X1869948Y-12811252D01*
X1869948Y-12788036D01*
X1845868Y-12788036D01*
X1845868Y-12764820D01*
X1797710Y-12764820D01*
X1797710Y-12741605D01*
X1749552Y-12741605D01*
X1749552Y-12718389D01*
X1725472Y-12718389D01*
X1725472Y-12695174D01*
X1677314Y-12695174D01*
X1677314Y-12683591D01*
G37*
D10*
X2377371Y-9026677D02*
G01*
X2386261Y-9035821D01*
X2399977Y-9040393D01*
X2418265Y-9040393D01*
X2431727Y-9035821D01*
X2440871Y-9026677D01*
X2440871Y-9017533D01*
X2436299Y-9008389D01*
X2431727Y-9003817D01*
X2422837Y-8999499D01*
X2395405Y-8990355D01*
X2386261Y-8985783D01*
X2381943Y-8981211D01*
X2377371Y-8972067D01*
X2377371Y-8958605D01*
X2386261Y-8949461D01*
X2399977Y-8944889D01*
X2418265Y-8944889D01*
X2431727Y-8949461D01*
X2440871Y-8958605D01*
X2347399Y-9040393D02*
G01*
X2347399Y-8944889D01*
X2249101Y-9017533D02*
G01*
X2253673Y-9026677D01*
X2262817Y-9035821D01*
X2271707Y-9040393D01*
X2289995Y-9040393D01*
X2299139Y-9035821D01*
X2308283Y-9026677D01*
X2312855Y-9017533D01*
X2317173Y-9003817D01*
X2317173Y-8981211D01*
X2312855Y-8967495D01*
X2308283Y-8958605D01*
X2299139Y-8949461D01*
X2289995Y-8944889D01*
X2271707Y-8944889D01*
X2262817Y-8949461D01*
X2253673Y-8958605D01*
X2249101Y-8967495D01*
X2249101Y-8981211D01*
X2271707Y-8981211D02*
G01*
X2249101Y-8981211D01*
X2784901Y-9017624D02*
G01*
X2789219Y-9026768D01*
X2798363Y-9035658D01*
X2807507Y-9040230D01*
X2825795Y-9040230D01*
X2834685Y-9035658D01*
X2843829Y-9026768D01*
X2848401Y-9017624D01*
X2852973Y-9003908D01*
X2852973Y-8981302D01*
X2848401Y-8967586D01*
X2843829Y-8958442D01*
X2834685Y-8949298D01*
X2825795Y-8944726D01*
X2807507Y-8944726D01*
X2798363Y-8949298D01*
X2789219Y-8958442D01*
X2784901Y-8967586D01*
X2784901Y-8981302D01*
X2807507Y-8981302D02*
G01*
X2784901Y-8981302D01*
X2754675Y-9040230D02*
G01*
X2754675Y-8944726D01*
X2754675Y-9040230D02*
G01*
X2691175Y-8944726D01*
X2691175Y-9040230D02*
G01*
X2691175Y-8944726D01*
X2661203Y-9040230D02*
G01*
X2661203Y-8944726D01*
X2661203Y-9040230D02*
G01*
X2629453Y-9040230D01*
X2615737Y-9035658D01*
X2606593Y-9026768D01*
X2602021Y-9017624D01*
X2597449Y-9003908D01*
X2597449Y-8981302D01*
X2602021Y-8967586D01*
X2606593Y-8958442D01*
X2615737Y-8949298D01*
X2629453Y-8944726D01*
X2661203Y-8944726D01*
X3233475Y-9040393D02*
G01*
X3197153Y-8944889D01*
X3160577Y-9040393D02*
G01*
X3197153Y-8944889D01*
X3062533Y-9017533D02*
G01*
X3067105Y-9026677D01*
X3076249Y-9035821D01*
X3085139Y-9040393D01*
X3103427Y-9040393D01*
X3112571Y-9035821D01*
X3121461Y-9026677D01*
X3126033Y-9017533D01*
X3130605Y-9003817D01*
X3130605Y-8981211D01*
X3126033Y-8967495D01*
X3121461Y-8958605D01*
X3112571Y-8949461D01*
X3103427Y-8944889D01*
X3085139Y-8944889D01*
X3076249Y-8949461D01*
X3067105Y-8958605D01*
X3062533Y-8967495D01*
X2964235Y-9017533D02*
G01*
X2968807Y-9026677D01*
X2977951Y-9035821D01*
X2987095Y-9040393D01*
X3005129Y-9040393D01*
X3014273Y-9035821D01*
X3023417Y-9026677D01*
X3027989Y-9017533D01*
X3032561Y-9003817D01*
X3032561Y-8981211D01*
X3027989Y-8967495D01*
X3023417Y-8958605D01*
X3014273Y-8949461D01*
X3005129Y-8944889D01*
X2987095Y-8944889D01*
X2977951Y-8949461D01*
X2968807Y-8958605D01*
X2964235Y-8967495D01*
D11*
X3843390Y-11126355D02*
G01*
X3834500Y-11135499D01*
X3829928Y-11149215D01*
X3829928Y-11167503D01*
X3834500Y-11180965D01*
X3843390Y-11190109D01*
X3852534Y-11190109D01*
X3861678Y-11185537D01*
X3866250Y-11180965D01*
X3870822Y-11171821D01*
X3879966Y-11144643D01*
X3884284Y-11135499D01*
X3888856Y-11130927D01*
X3898000Y-11126355D01*
X3911716Y-11126355D01*
X3920860Y-11135499D01*
X3925432Y-11149215D01*
X3925432Y-11167503D01*
X3920860Y-11180965D01*
X3911716Y-11190109D01*
X3829928Y-11096383D02*
G01*
X3834500Y-11091811D01*
X3829928Y-11087493D01*
X3825356Y-11091811D01*
X3829928Y-11096383D01*
X3861678Y-11091811D02*
G01*
X3925432Y-11091811D01*
X3829928Y-11057267D02*
G01*
X3925432Y-11057267D01*
X3829928Y-11057267D02*
G01*
X3829928Y-11016373D01*
X3834500Y-11002911D01*
X3839072Y-10998339D01*
X3847962Y-10993767D01*
X3861678Y-10993767D01*
X3870822Y-10998339D01*
X3875394Y-11002911D01*
X3879966Y-11016373D01*
X3879966Y-11057267D01*
X3829928Y-10963795D02*
G01*
X3925432Y-10963795D01*
X3829928Y-10963795D02*
G01*
X3925432Y-10927473D01*
X3829928Y-10890897D02*
G01*
X3925432Y-10927473D01*
X3829928Y-10890897D02*
G01*
X3925432Y-10890897D01*
X3829928Y-10791075D02*
G01*
X3925432Y-10791075D01*
X3829928Y-10791075D02*
G01*
X3829928Y-10750181D01*
X3834500Y-10736465D01*
X3839072Y-10731893D01*
X3847962Y-10727321D01*
X3857106Y-10727321D01*
X3866250Y-10731893D01*
X3870822Y-10736465D01*
X3875394Y-10750181D01*
X3875394Y-10791075D02*
G01*
X3875394Y-10750181D01*
X3879966Y-10736465D01*
X3884284Y-10731893D01*
X3893428Y-10727321D01*
X3907144Y-10727321D01*
X3916288Y-10731893D01*
X3920860Y-10736465D01*
X3925432Y-10750181D01*
X3925432Y-10791075D01*
X3829928Y-10697349D02*
G01*
X3925432Y-10697349D01*
X3829928Y-10631055D02*
G01*
X3925432Y-10667377D01*
X3829928Y-10631055D02*
G01*
X3925432Y-10594733D01*
X3893428Y-10653661D02*
G01*
X3893428Y-10608195D01*
X3843390Y-10501007D02*
G01*
X3834500Y-10510151D01*
X3829928Y-10523867D01*
X3829928Y-10541901D01*
X3834500Y-10555617D01*
X3843390Y-10564761D01*
X3852534Y-10564761D01*
X3861678Y-10560189D01*
X3866250Y-10555617D01*
X3870822Y-10546473D01*
X3879966Y-10519295D01*
X3884284Y-10510151D01*
X3888856Y-10505579D01*
X3898000Y-10501007D01*
X3911716Y-10501007D01*
X3920860Y-10510151D01*
X3925432Y-10523867D01*
X3925432Y-10541901D01*
X3920860Y-10555617D01*
X3911716Y-10564761D01*
D10*
X2230894Y-13783548D02*
G01*
X2230894Y-13879052D01*
X2260866Y-13783548D02*
G01*
X2260866Y-13879052D01*
X2260866Y-13783548D02*
G01*
X2324620Y-13879052D01*
X2324620Y-13783548D02*
G01*
X2324620Y-13879052D01*
X2386342Y-13783548D02*
G01*
X2386342Y-13879052D01*
X2354592Y-13783548D02*
G01*
X2418092Y-13783548D01*
X2552641Y-13806365D02*
G01*
X2548069Y-13797221D01*
X2539179Y-13788077D01*
X2530035Y-13783759D01*
X2511747Y-13783759D01*
X2502603Y-13788077D01*
X2493713Y-13797221D01*
X2489141Y-13806365D01*
X2484569Y-13820081D01*
X2484569Y-13842687D01*
X2489141Y-13856403D01*
X2493713Y-13865547D01*
X2502603Y-13874691D01*
X2511747Y-13879009D01*
X2530035Y-13879009D01*
X2539179Y-13874691D01*
X2548069Y-13865547D01*
X2552641Y-13856403D01*
X2552641Y-13842687D01*
X2530035Y-13842687D02*
G01*
X2552641Y-13842687D01*
X2582613Y-13783759D02*
G01*
X2582613Y-13879009D01*
X2582613Y-13783759D02*
G01*
X2646367Y-13879009D01*
X2646367Y-13783759D02*
G01*
X2646367Y-13879009D01*
X2676339Y-13783759D02*
G01*
X2676339Y-13879009D01*
X2676339Y-13783759D02*
G01*
X2708089Y-13783759D01*
X2721805Y-13788077D01*
X2730949Y-13797221D01*
X2735521Y-13806365D01*
X2740093Y-13820081D01*
X2740093Y-13842687D01*
X2735521Y-13856403D01*
X2730949Y-13865547D01*
X2721805Y-13874691D01*
X2708089Y-13879009D01*
X2676339Y-13879009D01*
X3055051Y-13783551D02*
G01*
X3091373Y-13879055D01*
X3127949Y-13783551D02*
G01*
X3091373Y-13879055D01*
X3225993Y-13806411D02*
G01*
X3221421Y-13797267D01*
X3212277Y-13788123D01*
X3203387Y-13783551D01*
X3185099Y-13783551D01*
X3175955Y-13788123D01*
X3167065Y-13797267D01*
X3162493Y-13806411D01*
X3157921Y-13820127D01*
X3157921Y-13842733D01*
X3162493Y-13856449D01*
X3167065Y-13865593D01*
X3175955Y-13874483D01*
X3185099Y-13879055D01*
X3203387Y-13879055D01*
X3212277Y-13874483D01*
X3221421Y-13865593D01*
X3225993Y-13856449D01*
X3324291Y-13806411D02*
G01*
X3319719Y-13797267D01*
X3310575Y-13788123D01*
X3301431Y-13783551D01*
X3283397Y-13783551D01*
X3274253Y-13788123D01*
X3265109Y-13797267D01*
X3260537Y-13806411D01*
X3255965Y-13820127D01*
X3255965Y-13842733D01*
X3260537Y-13856449D01*
X3265109Y-13865593D01*
X3274253Y-13874483D01*
X3283397Y-13879055D01*
X3301431Y-13879055D01*
X3310575Y-13874483D01*
X3319719Y-13865593D01*
X3324291Y-13856449D01*
X2865066Y-13797221D02*
G01*
X2856176Y-13788077D01*
X2842460Y-13783759D01*
X2824172Y-13783759D01*
X2810710Y-13788077D01*
X2801566Y-13797221D01*
X2801566Y-13806365D01*
X2806138Y-13815509D01*
X2810710Y-13820081D01*
X2819600Y-13824653D01*
X2847032Y-13833543D01*
X2856176Y-13838115D01*
X2860494Y-13842687D01*
X2865066Y-13851831D01*
X2865066Y-13865547D01*
X2856176Y-13874691D01*
X2842460Y-13879009D01*
X2824172Y-13879009D01*
X2810710Y-13874691D01*
X2801566Y-13865547D01*
X2895038Y-13783759D02*
G01*
X2895038Y-13879009D01*
X2993336Y-13806365D02*
G01*
X2988764Y-13797221D01*
X2979620Y-13788077D01*
X2970730Y-13783759D01*
X2952442Y-13783759D01*
X2943298Y-13788077D01*
X2934154Y-13797221D01*
X2929836Y-13806365D01*
X2925264Y-13820081D01*
X2925264Y-13842687D01*
X2929836Y-13856403D01*
X2934154Y-13865547D01*
X2943298Y-13874691D01*
X2952442Y-13879009D01*
X2970730Y-13879009D01*
X2979620Y-13874691D01*
X2988764Y-13865547D01*
X2993336Y-13856403D01*
X2993336Y-13842687D01*
X2970730Y-13842687D02*
G01*
X2993336Y-13842687D01*
D12*
X3779316Y-13282168D02*
G01*
X3922572Y-13282168D01*
X3779316Y-13282168D02*
G01*
X3922572Y-13227812D01*
X3779316Y-13173202D02*
G01*
X3922572Y-13227812D01*
X3779316Y-13173202D02*
G01*
X3922572Y-13173202D01*
X3779316Y-13128244D02*
G01*
X3786174Y-13121386D01*
X3779316Y-13114528D01*
X3772712Y-13121386D01*
X3779316Y-13128244D01*
X3827068Y-13121386D02*
G01*
X3922572Y-13121386D01*
X3827068Y-13069570D02*
G01*
X3922572Y-13069570D01*
X3854500Y-13069570D02*
G01*
X3833926Y-13048995D01*
X3827068Y-13035534D01*
X3827068Y-13014960D01*
X3833926Y-13001244D01*
X3854500Y-12994639D01*
X3922572Y-12994639D01*
X3779316Y-12949428D02*
G01*
X3786174Y-12942824D01*
X3779316Y-12935965D01*
X3772712Y-12942824D01*
X3779316Y-12949428D01*
X3827068Y-12942824D02*
G01*
X3922572Y-12942824D01*
X3799890Y-12690347D02*
G01*
X3786174Y-12704063D01*
X3779316Y-12724637D01*
X3779316Y-12751815D01*
X3786174Y-12772389D01*
X3799890Y-12785852D01*
X3813606Y-12785852D01*
X3827068Y-12778994D01*
X3833926Y-12772389D01*
X3840784Y-12758674D01*
X3854500Y-12717779D01*
X3861358Y-12704063D01*
X3867962Y-12697205D01*
X3881678Y-12690347D01*
X3902252Y-12690347D01*
X3915714Y-12704063D01*
X3922572Y-12724637D01*
X3922572Y-12751815D01*
X3915714Y-12772389D01*
X3902252Y-12785852D01*
X3779316Y-12645389D02*
G01*
X3786174Y-12638531D01*
X3779316Y-12631928D01*
X3772712Y-12638531D01*
X3779316Y-12645389D01*
X3827068Y-12638531D02*
G01*
X3922572Y-12638531D01*
X3779316Y-12586715D02*
G01*
X3922572Y-12586715D01*
X3779316Y-12586715D02*
G01*
X3779316Y-12538963D01*
X3786174Y-12518644D01*
X3799890Y-12504928D01*
X3813606Y-12498070D01*
X3833926Y-12491465D01*
X3867962Y-12491465D01*
X3888536Y-12498070D01*
X3902252Y-12504928D01*
X3915714Y-12518644D01*
X3922572Y-12538963D01*
X3922572Y-12586715D01*
X3779316Y-12273279D02*
G01*
X3874820Y-12341352D01*
X3874820Y-12238989D01*
X3779316Y-12273279D02*
G01*
X3922572Y-12273279D01*
D13*
X2698198Y-7448981D02*
G01*
X2675592Y-7471587D01*
X2664162Y-7505623D01*
X2664162Y-7551089D01*
X2675592Y-7585379D01*
X2698198Y-7607985D01*
X2720804Y-7607985D01*
X2743664Y-7596555D01*
X2755094Y-7585379D01*
X2766270Y-7562519D01*
X2789130Y-7494447D01*
X2800560Y-7471587D01*
X2811736Y-7460157D01*
X2834596Y-7448981D01*
X2868632Y-7448981D01*
X2891492Y-7471587D01*
X2902668Y-7505623D01*
X2902668Y-7551089D01*
X2891492Y-7585379D01*
X2868632Y-7607985D01*
X2720804Y-7203363D02*
G01*
X2698198Y-7214793D01*
X2675592Y-7237653D01*
X2664162Y-7260259D01*
X2664162Y-7305725D01*
X2675592Y-7328331D01*
X2698198Y-7351191D01*
X2720804Y-7362621D01*
X2755094Y-7373797D01*
X2811736Y-7373797D01*
X2846026Y-7362621D01*
X2868632Y-7351191D01*
X2891492Y-7328331D01*
X2902668Y-7305725D01*
X2902668Y-7260259D01*
X2891492Y-7237653D01*
X2868632Y-7214793D01*
X2846026Y-7203363D01*
X2664162Y-7128433D02*
G01*
X2902668Y-7128433D01*
X2664162Y-7053503D02*
G01*
X2902668Y-7053503D01*
X2664162Y-7053503D02*
G01*
X2902668Y-6894245D01*
X2664162Y-6894245D02*
G01*
X2902668Y-6894245D01*
X2664162Y-6739813D02*
G01*
X2902668Y-6739813D01*
X2664162Y-6819315D02*
G01*
X2664162Y-6660311D01*
X2664162Y-6585381D02*
G01*
X2902668Y-6585381D01*
X2664162Y-6510197D02*
G01*
X2902668Y-6510197D01*
X2902668Y-6510197D02*
G01*
X2902668Y-6373799D01*
X2664162Y-6298869D02*
G01*
X2902668Y-6298869D01*
X2902668Y-6298869D02*
G01*
X2902668Y-6162471D01*
X2664162Y-5996609D02*
G01*
X2902668Y-6087541D01*
X2664162Y-5996609D02*
G01*
X2902668Y-5905677D01*
X2823166Y-6053505D02*
G01*
X2823166Y-5939713D01*
X2664162Y-5751245D02*
G01*
X2902668Y-5751245D01*
X2664162Y-5830747D02*
G01*
X2664162Y-5671743D01*
X2664162Y-5528487D02*
G01*
X2675592Y-5551093D01*
X2698198Y-5573953D01*
X2720804Y-5585383D01*
X2755094Y-5596559D01*
X2811736Y-5596559D01*
X2846026Y-5585383D01*
X2868632Y-5573953D01*
X2891492Y-5551093D01*
X2902668Y-5528487D01*
X2902668Y-5483021D01*
X2891492Y-5460161D01*
X2868632Y-5437555D01*
X2846026Y-5426125D01*
X2811736Y-5414695D01*
X2755094Y-5414695D01*
X2720804Y-5426125D01*
X2698198Y-5437555D01*
X2675592Y-5460161D01*
X2664162Y-5483021D01*
X2664162Y-5528487D01*
X2664162Y-5339765D02*
G01*
X2902668Y-5339765D01*
X2664162Y-5339765D02*
G01*
X2664162Y-5237657D01*
X2675592Y-5203367D01*
X2686768Y-5192191D01*
X2709628Y-5180761D01*
X2732234Y-5180761D01*
X2755094Y-5192191D01*
X2766270Y-5203367D01*
X2777700Y-5237657D01*
X2777700Y-5339765D01*
X2777700Y-5260263D02*
G01*
X2902668Y-5180761D01*
D11*
X1685831Y-11443736D02*
G01*
X1590327Y-11443736D01*
X1685831Y-11411986D02*
G01*
X1685831Y-11475740D01*
X1685831Y-11505712D02*
G01*
X1590327Y-11505712D01*
X1685831Y-11569212D02*
G01*
X1590327Y-11569212D01*
X1640365Y-11505712D02*
G01*
X1640365Y-11569212D01*
X1685831Y-11599184D02*
G01*
X1590327Y-11599184D01*
X1685831Y-11599184D02*
G01*
X1685831Y-11640078D01*
X1681259Y-11653794D01*
X1676687Y-11658366D01*
X1667797Y-11662938D01*
X1658653Y-11662938D01*
X1649509Y-11658366D01*
X1644937Y-11653794D01*
X1640365Y-11640078D01*
X1640365Y-11599184D01*
X1640365Y-11631188D02*
G01*
X1590327Y-11662938D01*
X1685831Y-11692910D02*
G01*
X1590327Y-11692910D01*
X1685831Y-11692910D02*
G01*
X1685831Y-11752092D01*
X1640365Y-11692910D02*
G01*
X1640365Y-11729232D01*
X1590327Y-11692910D02*
G01*
X1590327Y-11752092D01*
X1672369Y-11845564D02*
G01*
X1681259Y-11836420D01*
X1685831Y-11822958D01*
X1685831Y-11804670D01*
X1681259Y-11790954D01*
X1672369Y-11782064D01*
X1663225Y-11782064D01*
X1654081Y-11786636D01*
X1649509Y-11790954D01*
X1644937Y-11800098D01*
X1635793Y-11827530D01*
X1631475Y-11836420D01*
X1626903Y-11840992D01*
X1617759Y-11845564D01*
X1604043Y-11845564D01*
X1594899Y-11836420D01*
X1590327Y-11822958D01*
X1590327Y-11804670D01*
X1594899Y-11790954D01*
X1604043Y-11782064D01*
X1663080Y-9895098D02*
G01*
X1672224Y-9890526D01*
X1681368Y-9881636D01*
X1685940Y-9872492D01*
X1685940Y-9854204D01*
X1681368Y-9845060D01*
X1672224Y-9836170D01*
X1663080Y-9831598D01*
X1649618Y-9827026D01*
X1626758Y-9827026D01*
X1613042Y-9831598D01*
X1604152Y-9836170D01*
X1595008Y-9845060D01*
X1590436Y-9854204D01*
X1590436Y-9872492D01*
X1595008Y-9881636D01*
X1604152Y-9890526D01*
X1613042Y-9895098D01*
X1626758Y-9895098D01*
X1626758Y-9872492D02*
G01*
X1626758Y-9895098D01*
X1685940Y-9961646D02*
G01*
X1590436Y-9925070D01*
X1685940Y-9961646D02*
G01*
X1590436Y-9997968D01*
X1622186Y-9938786D02*
G01*
X1622186Y-9984252D01*
X1685940Y-10027940D02*
G01*
X1590436Y-10027940D01*
X1685940Y-10057912D02*
G01*
X1590436Y-10057912D01*
X1685940Y-10057912D02*
G01*
X1590436Y-10121412D01*
X1685940Y-10121412D02*
G01*
X1590436Y-10121412D01*
D14*
X2899270Y-9896073D02*
G01*
X2893936Y-9885659D01*
X2883522Y-9875245D01*
X2873362Y-9870165D01*
X2852534Y-9870165D01*
X2842120Y-9875245D01*
X2831706Y-9885659D01*
X2826372Y-9896073D01*
X2821292Y-9911821D01*
X2821292Y-9937729D01*
X2826372Y-9953223D01*
X2831706Y-9963637D01*
X2842120Y-9974051D01*
X2852534Y-9979131D01*
X2873362Y-9979131D01*
X2883522Y-9974051D01*
X2893936Y-9963637D01*
X2899270Y-9953223D01*
X2933560Y-9890993D02*
G01*
X2943974Y-9885659D01*
X2959468Y-9870165D01*
X2959468Y-9979131D01*
X3004172Y-9870165D02*
G01*
X3061322Y-9870165D01*
X3030080Y-9911821D01*
X3045828Y-9911821D01*
X3056242Y-9916901D01*
X3061322Y-9921981D01*
X3066402Y-9937729D01*
X3066402Y-9948143D01*
X3061322Y-9963637D01*
X3050908Y-9974051D01*
X3035414Y-9979131D01*
X3019666Y-9979131D01*
X3004172Y-9974051D01*
X2999092Y-9968971D01*
X2993758Y-9958557D01*
X1648396Y-10630961D02*
G01*
X1648396Y-10739927D01*
X1648396Y-10630961D02*
G01*
X1684718Y-10630961D01*
X1700466Y-10636041D01*
X1710626Y-10646455D01*
X1715960Y-10656869D01*
X1721040Y-10672617D01*
X1721040Y-10698525D01*
X1715960Y-10714019D01*
X1710626Y-10724433D01*
X1700466Y-10734847D01*
X1684718Y-10739927D01*
X1648396Y-10739927D01*
X1755330Y-10651789D02*
G01*
X1765744Y-10646455D01*
X1781492Y-10630961D01*
X1781492Y-10739927D01*
X2535994Y-10630964D02*
G01*
X2535994Y-10739930D01*
X2535994Y-10630964D02*
G01*
X2572316Y-10630964D01*
X2588064Y-10636044D01*
X2598224Y-10646458D01*
X2603558Y-10656872D01*
X2608638Y-10672620D01*
X2608638Y-10698528D01*
X2603558Y-10714022D01*
X2598224Y-10724436D01*
X2588064Y-10734850D01*
X2572316Y-10739930D01*
X2535994Y-10739930D01*
X2648262Y-10656872D02*
G01*
X2648262Y-10651792D01*
X2653342Y-10641378D01*
X2658676Y-10636044D01*
X2669090Y-10630964D01*
X2689664Y-10630964D01*
X2700078Y-10636044D01*
X2705412Y-10641378D01*
X2710492Y-10651792D01*
X2710492Y-10662206D01*
X2705412Y-10672620D01*
X2694998Y-10688114D01*
X2642928Y-10739930D01*
X2715826Y-10739930D01*
D15*
X3904795Y-11633789D02*
G01*
X3809545Y-11633789D01*
X3904795Y-11633789D02*
G01*
X3904795Y-11665793D01*
X3900477Y-11679255D01*
X3891333Y-11688399D01*
X3882189Y-11692971D01*
X3868473Y-11697543D01*
X3845867Y-11697543D01*
X3832151Y-11692971D01*
X3823007Y-11688399D01*
X3814117Y-11679255D01*
X3809545Y-11665793D01*
X3809545Y-11633789D01*
X3904795Y-11736659D02*
G01*
X3904795Y-11786697D01*
X3868473Y-11759265D01*
X3868473Y-11772981D01*
X3863901Y-11782125D01*
X3859329Y-11786697D01*
X3845867Y-11791269D01*
X3836723Y-11791269D01*
X3823007Y-11786697D01*
X3814117Y-11777553D01*
X3809545Y-11763837D01*
X3809545Y-11750121D01*
X3814117Y-11736659D01*
X3818435Y-11732087D01*
X3827579Y-11727515D01*
D14*
X2619636Y-9858763D02*
G01*
X2510416Y-9858763D01*
X2619636Y-9858763D02*
G01*
X2619636Y-9905499D01*
X2614302Y-9920993D01*
X2609222Y-9926327D01*
X2598808Y-9931407D01*
X2588394Y-9931407D01*
X2577980Y-9926327D01*
X2572646Y-9920993D01*
X2567566Y-9905499D01*
X2567566Y-9858763D01*
X2567566Y-9895085D02*
G01*
X2510416Y-9931407D01*
X2593474Y-9971031D02*
G01*
X2598808Y-9971031D01*
X2609222Y-9976111D01*
X2614302Y-9981445D01*
X2619636Y-9991859D01*
X2619636Y-10012433D01*
X2614302Y-10022847D01*
X2609222Y-10028181D01*
X2598808Y-10033261D01*
X2588394Y-10033261D01*
X2577980Y-10028181D01*
X2562486Y-10017767D01*
X2510416Y-9965697D01*
X2510416Y-10038595D01*
X2567592Y-13230306D02*
G01*
X2567592Y-13339526D01*
X2567592Y-13230306D02*
G01*
X2614328Y-13230306D01*
X2630076Y-13235640D01*
X2635156Y-13240720D01*
X2640490Y-13251134D01*
X2640490Y-13261548D01*
X2635156Y-13271962D01*
X2630076Y-13277042D01*
X2614328Y-13282376D01*
X2567592Y-13282376D01*
X2604168Y-13282376D02*
G01*
X2640490Y-13339526D01*
X2737010Y-13230306D02*
G01*
X2685194Y-13230306D01*
X2679860Y-13277042D01*
X2685194Y-13271962D01*
X2700688Y-13266628D01*
X2716182Y-13266628D01*
X2731930Y-13271962D01*
X2742344Y-13282376D01*
X2747424Y-13297870D01*
X2747424Y-13308284D01*
X2742344Y-13323778D01*
X2731930Y-13334192D01*
X2716182Y-13339526D01*
X2700688Y-13339526D01*
X2685194Y-13334192D01*
X2679860Y-13329112D01*
X2674780Y-13318698D01*
X2271019Y-13187276D02*
G01*
X2161799Y-13187276D01*
X2271019Y-13187276D02*
G01*
X2271019Y-13234012D01*
X2265685Y-13249506D01*
X2260605Y-13254840D01*
X2250191Y-13259920D01*
X2239777Y-13259920D01*
X2229363Y-13254840D01*
X2224283Y-13249506D01*
X2218949Y-13234012D01*
X2218949Y-13187276D01*
X2218949Y-13223598D02*
G01*
X2161799Y-13259920D01*
X2255525Y-13356440D02*
G01*
X2265685Y-13351360D01*
X2271019Y-13335866D01*
X2271019Y-13325452D01*
X2265685Y-13309704D01*
X2250191Y-13299290D01*
X2224283Y-13294210D01*
X2198375Y-13294210D01*
X2177547Y-13299290D01*
X2167133Y-13309704D01*
X2161799Y-13325452D01*
X2161799Y-13330532D01*
X2167133Y-13346280D01*
X2177547Y-13356440D01*
X2193041Y-13361774D01*
X2198375Y-13361774D01*
X2213869Y-13356440D01*
X2224283Y-13346280D01*
X2229363Y-13330532D01*
X2229363Y-13325452D01*
X2224283Y-13309704D01*
X2213869Y-13299290D01*
X2198375Y-13294210D01*
X2314044Y-12532908D02*
G01*
X2314044Y-12642128D01*
X2314044Y-12532908D02*
G01*
X2360780Y-12532908D01*
X2376528Y-12538242D01*
X2381608Y-12543322D01*
X2386942Y-12553736D01*
X2386942Y-12564150D01*
X2381608Y-12574564D01*
X2376528Y-12579644D01*
X2360780Y-12584978D01*
X2314044Y-12584978D01*
X2350366Y-12584978D02*
G01*
X2386942Y-12642128D01*
X2447140Y-12532908D02*
G01*
X2431392Y-12538242D01*
X2426312Y-12548402D01*
X2426312Y-12558816D01*
X2431392Y-12569230D01*
X2441806Y-12574564D01*
X2462634Y-12579644D01*
X2478382Y-12584978D01*
X2488542Y-12595392D01*
X2493876Y-12605552D01*
X2493876Y-12621300D01*
X2488542Y-12631714D01*
X2483462Y-12636794D01*
X2467968Y-12642128D01*
X2447140Y-12642128D01*
X2431392Y-12636794D01*
X2426312Y-12631714D01*
X2421232Y-12621300D01*
X2421232Y-12605552D01*
X2426312Y-12595392D01*
X2436726Y-12584978D01*
X2452220Y-12579644D01*
X2473048Y-12574564D01*
X2483462Y-12569230D01*
X2488542Y-12558816D01*
X2488542Y-12548402D01*
X2483462Y-12538242D01*
X2467968Y-12532908D01*
X2447140Y-12532908D01*
X3645517Y-9648139D02*
G01*
X3645517Y-9757359D01*
X3645517Y-9648139D02*
G01*
X3692253Y-9648139D01*
X3707747Y-9653473D01*
X3713081Y-9658553D01*
X3718161Y-9668967D01*
X3718161Y-9679381D01*
X3713081Y-9689795D01*
X3707747Y-9695129D01*
X3692253Y-9700209D01*
X3645517Y-9700209D01*
X3681839Y-9700209D02*
G01*
X3718161Y-9757359D01*
X3820015Y-9684715D02*
G01*
X3814935Y-9700209D01*
X3804521Y-9710623D01*
X3788773Y-9715703D01*
X3783693Y-9715703D01*
X3768199Y-9710623D01*
X3757785Y-9700209D01*
X3752451Y-9684715D01*
X3752451Y-9679381D01*
X3757785Y-9663887D01*
X3768199Y-9653473D01*
X3783693Y-9648139D01*
X3788773Y-9648139D01*
X3804521Y-9653473D01*
X3814935Y-9663887D01*
X3820015Y-9684715D01*
X3820015Y-9710623D01*
X3814935Y-9736531D01*
X3804521Y-9752279D01*
X3788773Y-9757359D01*
X3778613Y-9757359D01*
X3762865Y-9752279D01*
X3757785Y-9741865D01*
X3824234Y-9858783D02*
G01*
X3715014Y-9858783D01*
X3824234Y-9858783D02*
G01*
X3824234Y-9905519D01*
X3819154Y-9921013D01*
X3813820Y-9926347D01*
X3803406Y-9931427D01*
X3792992Y-9931427D01*
X3782578Y-9926347D01*
X3777498Y-9921013D01*
X3772164Y-9905519D01*
X3772164Y-9858783D01*
X3772164Y-9895105D02*
G01*
X3715014Y-9931427D01*
X3803406Y-9965717D02*
G01*
X3808740Y-9976131D01*
X3824234Y-9991625D01*
X3715014Y-9991625D01*
X3824234Y-10057157D02*
G01*
X3819154Y-10041663D01*
X3803406Y-10031249D01*
X3777498Y-10025915D01*
X3762004Y-10025915D01*
X3735842Y-10031249D01*
X3720348Y-10041663D01*
X3715014Y-10057157D01*
X3715014Y-10067571D01*
X3720348Y-10083065D01*
X3735842Y-10093479D01*
X3762004Y-10098813D01*
X3777498Y-10098813D01*
X3803406Y-10093479D01*
X3819154Y-10083065D01*
X3824234Y-10067571D01*
X3824234Y-10057157D01*
X1648498Y-12247633D02*
G01*
X1648498Y-12356853D01*
X1648498Y-12247633D02*
G01*
X1695234Y-12247633D01*
X1710728Y-12252713D01*
X1716062Y-12258047D01*
X1721142Y-12268461D01*
X1721142Y-12278875D01*
X1716062Y-12289289D01*
X1710728Y-12294369D01*
X1695234Y-12299703D01*
X1648498Y-12299703D01*
X1684820Y-12299703D02*
G01*
X1721142Y-12356853D01*
X1755432Y-12268461D02*
G01*
X1765846Y-12263127D01*
X1781340Y-12247633D01*
X1781340Y-12356853D01*
X1815630Y-12268461D02*
G01*
X1826044Y-12263127D01*
X1841792Y-12247633D01*
X1841792Y-12356853D01*
X1997069Y-10409011D02*
G01*
X1997069Y-10518231D01*
X1997069Y-10409011D02*
G01*
X2043805Y-10409011D01*
X2059553Y-10414345D01*
X2064633Y-10419425D01*
X2069713Y-10429839D01*
X2069713Y-10440253D01*
X2064633Y-10450667D01*
X2059553Y-10455747D01*
X2043805Y-10461081D01*
X1997069Y-10461081D01*
X2033391Y-10461081D02*
G01*
X2069713Y-10518231D01*
X2104003Y-10429839D02*
G01*
X2114417Y-10424505D01*
X2130165Y-10409011D01*
X2130165Y-10518231D01*
X2169535Y-10434919D02*
G01*
X2169535Y-10429839D01*
X2174869Y-10419425D01*
X2179949Y-10414345D01*
X2190363Y-10409011D01*
X2211191Y-10409011D01*
X2221605Y-10414345D01*
X2226685Y-10419425D01*
X2232019Y-10429839D01*
X2232019Y-10440253D01*
X2226685Y-10450667D01*
X2216271Y-10466161D01*
X2164455Y-10518231D01*
X2237099Y-10518231D01*
X3190133Y-11538905D02*
G01*
X3112409Y-11538905D01*
X3096661Y-11543985D01*
X3086247Y-11554399D01*
X3081167Y-11569893D01*
X3081167Y-11580307D01*
X3086247Y-11596055D01*
X3096661Y-11606215D01*
X3112409Y-11611549D01*
X3190133Y-11611549D01*
X3190133Y-11656253D02*
G01*
X3190133Y-11713403D01*
X3148731Y-11682161D01*
X3148731Y-11697655D01*
X3143397Y-11708069D01*
X3138317Y-11713403D01*
X3122569Y-11718483D01*
X3112409Y-11718483D01*
X3096661Y-11713403D01*
X3086247Y-11702989D01*
X3081167Y-11687495D01*
X3081167Y-11671747D01*
X3086247Y-11656253D01*
X3091581Y-11650919D01*
X3101995Y-11645839D01*
X3423592Y-12374460D02*
G01*
X3423592Y-12483426D01*
X3423592Y-12483426D02*
G01*
X3485822Y-12483426D01*
X3520112Y-12395288D02*
G01*
X3530526Y-12389954D01*
X3546274Y-12374460D01*
X3546274Y-12483426D01*
X2979793Y-11296660D02*
G01*
X2979793Y-11405626D01*
X2979793Y-11296660D02*
G01*
X3026529Y-11296660D01*
X3042023Y-11301740D01*
X3047357Y-11307074D01*
X3052437Y-11317488D01*
X3052437Y-11327902D01*
X3047357Y-11338316D01*
X3042023Y-11343396D01*
X3026529Y-11348476D01*
X2979793Y-11348476D01*
X3016115Y-11348476D02*
G01*
X3052437Y-11405626D01*
X3086727Y-11317488D02*
G01*
X3097141Y-11312154D01*
X3112889Y-11296660D01*
X3112889Y-11405626D01*
X2123894Y-9458065D02*
G01*
X2123894Y-9567031D01*
X2123894Y-9458065D02*
G01*
X2170630Y-9458065D01*
X2186124Y-9463145D01*
X2191458Y-9468479D01*
X2196538Y-9478893D01*
X2196538Y-9489307D01*
X2191458Y-9499721D01*
X2186124Y-9504801D01*
X2170630Y-9509881D01*
X2123894Y-9509881D01*
X2160216Y-9509881D02*
G01*
X2196538Y-9567031D01*
X2241242Y-9458065D02*
G01*
X2298392Y-9458065D01*
X2267404Y-9499721D01*
X2282898Y-9499721D01*
X2293312Y-9504801D01*
X2298392Y-9509881D01*
X2303726Y-9525629D01*
X2303726Y-9536043D01*
X2298392Y-9551537D01*
X2287978Y-9561951D01*
X2272484Y-9567031D01*
X2256990Y-9567031D01*
X2241242Y-9561951D01*
X2236162Y-9556871D01*
X2230828Y-9546457D01*
X3031708Y-10492679D02*
G01*
X2922742Y-10492679D01*
X3031708Y-10492679D02*
G01*
X3031708Y-10539415D01*
X3026628Y-10554909D01*
X3021294Y-10560243D01*
X3010880Y-10565323D01*
X3000466Y-10565323D01*
X2990052Y-10560243D01*
X2984972Y-10554909D01*
X2979892Y-10539415D01*
X2979892Y-10492679D01*
X2979892Y-10529001D02*
G01*
X2922742Y-10565323D01*
X3031708Y-10651683D02*
G01*
X2959064Y-10599613D01*
X2959064Y-10677591D01*
X3031708Y-10651683D02*
G01*
X2922742Y-10651683D01*
X2504292Y-12089160D02*
G01*
X2504292Y-12198126D01*
X2504292Y-12089160D02*
G01*
X2551028Y-12089160D01*
X2566522Y-12094240D01*
X2571856Y-12099574D01*
X2576936Y-12109988D01*
X2576936Y-12120402D01*
X2571856Y-12130816D01*
X2566522Y-12135896D01*
X2551028Y-12140976D01*
X2504292Y-12140976D01*
X2540614Y-12140976D02*
G01*
X2576936Y-12198126D01*
X2684124Y-12089160D02*
G01*
X2632054Y-12198126D01*
X2611226Y-12089160D02*
G01*
X2684124Y-12089160D01*
D15*
X2858886Y-10809561D02*
G01*
X2763382Y-10809561D01*
X2858886Y-10809561D02*
G01*
X2858886Y-10850709D01*
X2854314Y-10864171D01*
X2849742Y-10868743D01*
X2840598Y-10873315D01*
X2831454Y-10873315D01*
X2822564Y-10868743D01*
X2817992Y-10864171D01*
X2813420Y-10850709D01*
X2813420Y-10809561D01*
X2813420Y-10841565D02*
G01*
X2763382Y-10873315D01*
X2840598Y-10903287D02*
G01*
X2845170Y-10912431D01*
X2858886Y-10926147D01*
X2763382Y-10926147D01*
X2858886Y-10965009D02*
G01*
X2858886Y-11015047D01*
X2822564Y-10987869D01*
X2822564Y-11001585D01*
X2817992Y-11010475D01*
X2813420Y-11015047D01*
X2799704Y-11019619D01*
X2790560Y-11019619D01*
X2777098Y-11015047D01*
X2767954Y-11006157D01*
X2763382Y-10992441D01*
X2763382Y-10978725D01*
X2767954Y-10965009D01*
X2772526Y-10960691D01*
X2781416Y-10956119D01*
D14*
X2587912Y-11538778D02*
G01*
X2478946Y-11538778D01*
X2587912Y-11538778D02*
G01*
X2587912Y-11585514D01*
X2582832Y-11601008D01*
X2577498Y-11606342D01*
X2567084Y-11611422D01*
X2556670Y-11611422D01*
X2546256Y-11606342D01*
X2541176Y-11601008D01*
X2536096Y-11585514D01*
X2536096Y-11538778D01*
X2536096Y-11575100D02*
G01*
X2478946Y-11611422D01*
X2567084Y-11645712D02*
G01*
X2572418Y-11656126D01*
X2587912Y-11671874D01*
X2478946Y-11671874D01*
X2587912Y-11757980D02*
G01*
X2515268Y-11706164D01*
X2515268Y-11783888D01*
X2587912Y-11757980D02*
G01*
X2478946Y-11757980D01*
X1613590Y-12070034D02*
G01*
X1613590Y-12179000D01*
X1613590Y-12070034D02*
G01*
X1660326Y-12070034D01*
X1675820Y-12075114D01*
X1681154Y-12080448D01*
X1686234Y-12090862D01*
X1686234Y-12101276D01*
X1681154Y-12111690D01*
X1675820Y-12116770D01*
X1660326Y-12121850D01*
X1613590Y-12121850D01*
X1649912Y-12121850D02*
G01*
X1686234Y-12179000D01*
X1720524Y-12090862D02*
G01*
X1730938Y-12085528D01*
X1746686Y-12070034D01*
X1746686Y-12179000D01*
X1843206Y-12070034D02*
G01*
X1791390Y-12070034D01*
X1786056Y-12116770D01*
X1791390Y-12111690D01*
X1806884Y-12106356D01*
X1822378Y-12106356D01*
X1838126Y-12111690D01*
X1848540Y-12121850D01*
X1853620Y-12137598D01*
X1853620Y-12148012D01*
X1848540Y-12163506D01*
X1838126Y-12173920D01*
X1822378Y-12179000D01*
X1806884Y-12179000D01*
X1791390Y-12173920D01*
X1786056Y-12168840D01*
X1780976Y-12158426D01*
X3026072Y-10181374D02*
G01*
X3020738Y-10170960D01*
X3010324Y-10160546D01*
X3000164Y-10155466D01*
X2979336Y-10155466D01*
X2968922Y-10160546D01*
X2958508Y-10170960D01*
X2953174Y-10181374D01*
X2948094Y-10197122D01*
X2948094Y-10223030D01*
X2953174Y-10238524D01*
X2958508Y-10248938D01*
X2968922Y-10259352D01*
X2979336Y-10264432D01*
X3000164Y-10264432D01*
X3010324Y-10259352D01*
X3020738Y-10248938D01*
X3026072Y-10238524D01*
X3060362Y-10176294D02*
G01*
X3070776Y-10170960D01*
X3086270Y-10155466D01*
X3086270Y-10264432D01*
X3824208Y-10207381D02*
G01*
X3715242Y-10207381D01*
X3715242Y-10207381D02*
G01*
X3715242Y-10269611D01*
X3824208Y-10355971D02*
G01*
X3751564Y-10303901D01*
X3751564Y-10381879D01*
X3824208Y-10355971D02*
G01*
X3715242Y-10355971D01*
X2847317Y-12345809D02*
G01*
X2857731Y-12340475D01*
X2868145Y-12330315D01*
X2873225Y-12319901D01*
X2873225Y-12299073D01*
X2868145Y-12288659D01*
X2857731Y-12278245D01*
X2847317Y-12273165D01*
X2831569Y-12267831D01*
X2805661Y-12267831D01*
X2790167Y-12273165D01*
X2779753Y-12278245D01*
X2769339Y-12288659D01*
X2764259Y-12299073D01*
X2764259Y-12319901D01*
X2769339Y-12330315D01*
X2779753Y-12340475D01*
X2790167Y-12345809D01*
X2857731Y-12442329D02*
G01*
X2868145Y-12437249D01*
X2873225Y-12421755D01*
X2873225Y-12411341D01*
X2868145Y-12395593D01*
X2852397Y-12385179D01*
X2826489Y-12380099D01*
X2800581Y-12380099D01*
X2779753Y-12385179D01*
X2769339Y-12395593D01*
X2764259Y-12411341D01*
X2764259Y-12416421D01*
X2769339Y-12431915D01*
X2779753Y-12442329D01*
X2795247Y-12447663D01*
X2800581Y-12447663D01*
X2816075Y-12442329D01*
X2826489Y-12431915D01*
X2831569Y-12416421D01*
X2831569Y-12411341D01*
X2826489Y-12395593D01*
X2816075Y-12385179D01*
X2800581Y-12380099D01*
X2867494Y-9674296D02*
G01*
X2862414Y-9663882D01*
X2852000Y-9653468D01*
X2841586Y-9648134D01*
X2820758Y-9648134D01*
X2810344Y-9653468D01*
X2799930Y-9663882D01*
X2794850Y-9674296D01*
X2789516Y-9689790D01*
X2789516Y-9715698D01*
X2794850Y-9731446D01*
X2799930Y-9741860D01*
X2810344Y-9752274D01*
X2820758Y-9757354D01*
X2841586Y-9757354D01*
X2852000Y-9752274D01*
X2862414Y-9741860D01*
X2867494Y-9731446D01*
X2974428Y-9648134D02*
G01*
X2922612Y-9757354D01*
X2901784Y-9648134D02*
G01*
X2974428Y-9648134D01*
X1858919Y-12426299D02*
G01*
X1780941Y-12426299D01*
X1765447Y-12431633D01*
X1755033Y-12442047D01*
X1749699Y-12457541D01*
X1749699Y-12467955D01*
X1755033Y-12483449D01*
X1765447Y-12493863D01*
X1780941Y-12499197D01*
X1858919Y-12499197D01*
X1832757Y-12538567D02*
G01*
X1838091Y-12538567D01*
X1848505Y-12543901D01*
X1853585Y-12548981D01*
X1858919Y-12559395D01*
X1858919Y-12580223D01*
X1853585Y-12590637D01*
X1848505Y-12595717D01*
X1838091Y-12601051D01*
X1827677Y-12601051D01*
X1817263Y-12595717D01*
X1801769Y-12585303D01*
X1749699Y-12533487D01*
X1749699Y-12606131D01*
D16*
X2635384Y-12727325D02*
G01*
X2511432Y-12680081D01*
X2635384Y-12727325D02*
G01*
X2511432Y-12774569D01*
X2552834Y-12697607D02*
G01*
X2552834Y-12756789D01*
X2605920Y-12902077D02*
G01*
X2617858Y-12896235D01*
X2629542Y-12884551D01*
X2635384Y-12872613D01*
X2635384Y-12848991D01*
X2629542Y-12837053D01*
X2617858Y-12825369D01*
X2605920Y-12819527D01*
X2588140Y-12813431D01*
X2558676Y-12813431D01*
X2540896Y-12819527D01*
X2529212Y-12825369D01*
X2517274Y-12837053D01*
X2511432Y-12848991D01*
X2511432Y-12872613D01*
X2517274Y-12884551D01*
X2529212Y-12896235D01*
X2540896Y-12902077D01*
X2635384Y-12982595D02*
G01*
X2511432Y-12982595D01*
X2635384Y-12941193D02*
G01*
X2635384Y-13023997D01*
D15*
X3840479Y-11492384D02*
G01*
X3835908Y-11483240D01*
X3826763Y-11474096D01*
X3817874Y-11469524D01*
X3799586Y-11469524D01*
X3790441Y-11474096D01*
X3781297Y-11483240D01*
X3776725Y-11492384D01*
X3772408Y-11505846D01*
X3772408Y-11528706D01*
X3776725Y-11542168D01*
X3781297Y-11551312D01*
X3790441Y-11560456D01*
X3799586Y-11565028D01*
X3817874Y-11565028D01*
X3826763Y-11560456D01*
X3835908Y-11551312D01*
X3840479Y-11542168D01*
X3875024Y-11492384D02*
G01*
X3875024Y-11487812D01*
X3879595Y-11478668D01*
X3884168Y-11474096D01*
X3893311Y-11469524D01*
X3911345Y-11469524D01*
X3920490Y-11474096D01*
X3925061Y-11478668D01*
X3929634Y-11487812D01*
X3929634Y-11496956D01*
X3925061Y-11505846D01*
X3915918Y-11519562D01*
X3870452Y-11565028D01*
X3934206Y-11565028D01*
D14*
X3374755Y-9483951D02*
G01*
X3369421Y-9473537D01*
X3359007Y-9463123D01*
X3348847Y-9458043D01*
X3328019Y-9458043D01*
X3317605Y-9463123D01*
X3307191Y-9473537D01*
X3301857Y-9483951D01*
X3296777Y-9499699D01*
X3296777Y-9525607D01*
X3301857Y-9541101D01*
X3307191Y-9551515D01*
X3317605Y-9561929D01*
X3328019Y-9567009D01*
X3348847Y-9567009D01*
X3359007Y-9561929D01*
X3369421Y-9551515D01*
X3374755Y-9541101D01*
X3476609Y-9494365D02*
G01*
X3471275Y-9509859D01*
X3460861Y-9520273D01*
X3445367Y-9525607D01*
X3440287Y-9525607D01*
X3424539Y-9520273D01*
X3414125Y-9509859D01*
X3409045Y-9494365D01*
X3409045Y-9489285D01*
X3414125Y-9473537D01*
X3424539Y-9463123D01*
X3440287Y-9458043D01*
X3445367Y-9458043D01*
X3460861Y-9463123D01*
X3471275Y-9473537D01*
X3476609Y-9494365D01*
X3476609Y-9520273D01*
X3471275Y-9546435D01*
X3460861Y-9561929D01*
X3445367Y-9567009D01*
X3434953Y-9567009D01*
X3419459Y-9561929D01*
X3414125Y-9551515D01*
X3343071Y-13224543D02*
G01*
X3337737Y-13214129D01*
X3327323Y-13203715D01*
X3317163Y-13198635D01*
X3296335Y-13198635D01*
X3285921Y-13203715D01*
X3275507Y-13214129D01*
X3270173Y-13224543D01*
X3265093Y-13240291D01*
X3265093Y-13266199D01*
X3270173Y-13281693D01*
X3275507Y-13292107D01*
X3285921Y-13302521D01*
X3296335Y-13307601D01*
X3317163Y-13307601D01*
X3327323Y-13302521D01*
X3337737Y-13292107D01*
X3343071Y-13281693D01*
X3377361Y-13219463D02*
G01*
X3387775Y-13214129D01*
X3403269Y-13198635D01*
X3403269Y-13307601D01*
X3442893Y-13224543D02*
G01*
X3442893Y-13219463D01*
X3447973Y-13209049D01*
X3453053Y-13203715D01*
X3463467Y-13198635D01*
X3484295Y-13198635D01*
X3494709Y-13203715D01*
X3500043Y-13209049D01*
X3505123Y-13219463D01*
X3505123Y-13229877D01*
X3500043Y-13240291D01*
X3489629Y-13255785D01*
X3437559Y-13307601D01*
X3510203Y-13307601D01*
X3000009Y-12014266D02*
G01*
X2891043Y-12014266D01*
X2891043Y-12014266D02*
G01*
X2891043Y-12076496D01*
X2974101Y-12116120D02*
G01*
X2979181Y-12116120D01*
X2989595Y-12121200D01*
X2994929Y-12126534D01*
X3000009Y-12136948D01*
X3000009Y-12157776D01*
X2994929Y-12167936D01*
X2989595Y-12173270D01*
X2979181Y-12178350D01*
X2968767Y-12178350D01*
X2958353Y-12173270D01*
X2942859Y-12162856D01*
X2891043Y-12110786D01*
X2891043Y-12183684D01*
X3348702Y-12933555D02*
G01*
X3239736Y-12933555D01*
X3239736Y-12933555D02*
G01*
X3239736Y-12995785D01*
X3348702Y-13040489D02*
G01*
X3348702Y-13097639D01*
X3307046Y-13066651D01*
X3307046Y-13082145D01*
X3301966Y-13092559D01*
X3296886Y-13097639D01*
X3281138Y-13102973D01*
X3270724Y-13102973D01*
X3255230Y-13097639D01*
X3244816Y-13087225D01*
X3239736Y-13071731D01*
X3239736Y-13056237D01*
X3244816Y-13040489D01*
X3249896Y-13035409D01*
X3260310Y-13030075D01*
X2847312Y-11838637D02*
G01*
X2857726Y-11833303D01*
X2868140Y-11822889D01*
X2873220Y-11812729D01*
X2873220Y-11791901D01*
X2868140Y-11781487D01*
X2857726Y-11771073D01*
X2847312Y-11765739D01*
X2831564Y-11760659D01*
X2805656Y-11760659D01*
X2790162Y-11765739D01*
X2779748Y-11771073D01*
X2769334Y-11781487D01*
X2764254Y-11791901D01*
X2764254Y-11812729D01*
X2769334Y-11822889D01*
X2779748Y-11833303D01*
X2790162Y-11838637D01*
X2873220Y-11883341D02*
G01*
X2873220Y-11940491D01*
X2831564Y-11909249D01*
X2831564Y-11924743D01*
X2826484Y-11935157D01*
X2821404Y-11940491D01*
X2805656Y-11945571D01*
X2795242Y-11945571D01*
X2779748Y-11940491D01*
X2769334Y-11930077D01*
X2764254Y-11914329D01*
X2764254Y-11898835D01*
X2769334Y-11883341D01*
X2774414Y-11878007D01*
X2784828Y-11872927D01*
D15*
X2962963Y-12589532D02*
G01*
X2971853Y-12585214D01*
X2980997Y-12576070D01*
X2985569Y-12566926D01*
X2985569Y-12548638D01*
X2980997Y-12539748D01*
X2971853Y-12530604D01*
X2962963Y-12526032D01*
X2949247Y-12521460D01*
X2926387Y-12521460D01*
X2912925Y-12526032D01*
X2903781Y-12530604D01*
X2894637Y-12539748D01*
X2890065Y-12548638D01*
X2890065Y-12566926D01*
X2894637Y-12576070D01*
X2903781Y-12585214D01*
X2912925Y-12589532D01*
X2985569Y-12665224D02*
G01*
X2922069Y-12619758D01*
X2922069Y-12687830D01*
X2985569Y-12665224D02*
G01*
X2890065Y-12665224D01*
D14*
X3469876Y-12558854D02*
G01*
X3464542Y-12548440D01*
X3454128Y-12538026D01*
X3443968Y-12532946D01*
X3423140Y-12532946D01*
X3412726Y-12538026D01*
X3402312Y-12548440D01*
X3396978Y-12558854D01*
X3391898Y-12574602D01*
X3391898Y-12600510D01*
X3396978Y-12616004D01*
X3402312Y-12626418D01*
X3412726Y-12636832D01*
X3423140Y-12641912D01*
X3443968Y-12641912D01*
X3454128Y-12636832D01*
X3464542Y-12626418D01*
X3469876Y-12616004D01*
X3566396Y-12532946D02*
G01*
X3514580Y-12532946D01*
X3509246Y-12579682D01*
X3514580Y-12574602D01*
X3530074Y-12569268D01*
X3545568Y-12569268D01*
X3561316Y-12574602D01*
X3571730Y-12584762D01*
X3576810Y-12600510D01*
X3576810Y-12610924D01*
X3571730Y-12626418D01*
X3561316Y-12636832D01*
X3545568Y-12641912D01*
X3530074Y-12641912D01*
X3514580Y-12636832D01*
X3509246Y-12631752D01*
X3504166Y-12621338D01*
X2645674Y-11259174D02*
G01*
X2640340Y-11248760D01*
X2629926Y-11238346D01*
X2619766Y-11233266D01*
X2598938Y-11233266D01*
X2588524Y-11238346D01*
X2578110Y-11248760D01*
X2572776Y-11259174D01*
X2567696Y-11274922D01*
X2567696Y-11300830D01*
X2572776Y-11316324D01*
X2578110Y-11326738D01*
X2588524Y-11337152D01*
X2598938Y-11342232D01*
X2619766Y-11342232D01*
X2629926Y-11337152D01*
X2640340Y-11326738D01*
X2645674Y-11316324D01*
X2705872Y-11233266D02*
G01*
X2690378Y-11238346D01*
X2685044Y-11248760D01*
X2685044Y-11259174D01*
X2690378Y-11269588D01*
X2700792Y-11274922D01*
X2721366Y-11280002D01*
X2737114Y-11285082D01*
X2747528Y-11295496D01*
X2752608Y-11305910D01*
X2752608Y-11321658D01*
X2747528Y-11332072D01*
X2742194Y-11337152D01*
X2726700Y-11342232D01*
X2705872Y-11342232D01*
X2690378Y-11337152D01*
X2685044Y-11332072D01*
X2679964Y-11321658D01*
X2679964Y-11305910D01*
X2685044Y-11295496D01*
X2695458Y-11285082D01*
X2711206Y-11280002D01*
X2731780Y-11274922D01*
X2742194Y-11269588D01*
X2747528Y-11259174D01*
X2747528Y-11248760D01*
X2742194Y-11238346D01*
X2726700Y-11233266D01*
X2705872Y-11233266D01*
X3469876Y-12717358D02*
G01*
X3464542Y-12706944D01*
X3454128Y-12696530D01*
X3443968Y-12691450D01*
X3423140Y-12691450D01*
X3412726Y-12696530D01*
X3402312Y-12706944D01*
X3396978Y-12717358D01*
X3391898Y-12733106D01*
X3391898Y-12759014D01*
X3396978Y-12774508D01*
X3402312Y-12784922D01*
X3412726Y-12795336D01*
X3423140Y-12800416D01*
X3443968Y-12800416D01*
X3454128Y-12795336D01*
X3464542Y-12784922D01*
X3469876Y-12774508D01*
X3504166Y-12712278D02*
G01*
X3514580Y-12706944D01*
X3530074Y-12691450D01*
X3530074Y-12800416D01*
X3595606Y-12691450D02*
G01*
X3579858Y-12696530D01*
X3569698Y-12712278D01*
X3564364Y-12738186D01*
X3564364Y-12753680D01*
X3569698Y-12779842D01*
X3579858Y-12795336D01*
X3595606Y-12800416D01*
X3606020Y-12800416D01*
X3621514Y-12795336D01*
X3631928Y-12779842D01*
X3637008Y-12753680D01*
X3637008Y-12738186D01*
X3631928Y-12712278D01*
X3621514Y-12696530D01*
X3606020Y-12691450D01*
X3595606Y-12691450D01*
X1662976Y-11100673D02*
G01*
X1657642Y-11090259D01*
X1647228Y-11079845D01*
X1637068Y-11074765D01*
X1616240Y-11074765D01*
X1605826Y-11079845D01*
X1595412Y-11090259D01*
X1590078Y-11100673D01*
X1584998Y-11116421D01*
X1584998Y-11142329D01*
X1590078Y-11157823D01*
X1595412Y-11168237D01*
X1605826Y-11178651D01*
X1616240Y-11183731D01*
X1637068Y-11183731D01*
X1647228Y-11178651D01*
X1657642Y-11168237D01*
X1662976Y-11157823D01*
X1697266Y-11095593D02*
G01*
X1707680Y-11090259D01*
X1723174Y-11074765D01*
X1723174Y-11183731D01*
X1757464Y-11095593D02*
G01*
X1767878Y-11090259D01*
X1783372Y-11074765D01*
X1783372Y-11183731D01*
X2112413Y-10841367D02*
G01*
X2034435Y-10841367D01*
X2018941Y-10846447D01*
X2008527Y-10856861D01*
X2003447Y-10872609D01*
X2003447Y-10883023D01*
X2008527Y-10898517D01*
X2018941Y-10908931D01*
X2034435Y-10914011D01*
X2112413Y-10914011D01*
X2091585Y-10948301D02*
G01*
X2096919Y-10958715D01*
X2112413Y-10974463D01*
X2003447Y-10974463D01*
G36*
X2074570Y-10727893D02*
G01*
X2074570Y-10763097D01*
X2105050Y-10763097D01*
X2105050Y-10727893D01*
G37*
G36*
X2074570Y-10602620D02*
G01*
X2074570Y-10637875D01*
X2105050Y-10637875D01*
X2105050Y-10602620D01*
G37*
G36*
X2423312Y-10727893D02*
G01*
X2423312Y-10763097D01*
X2453792Y-10763097D01*
X2453792Y-10727893D01*
G37*
G36*
X2423312Y-10602620D02*
G01*
X2423312Y-10637875D01*
X2453792Y-10637875D01*
X2453792Y-10602620D01*
G37*
G36*
X3753916Y-11589308D02*
G01*
X3753916Y-11619788D01*
X3789121Y-11619788D01*
X3789121Y-11589308D01*
G37*
G36*
X3628644Y-11589308D02*
G01*
X3628644Y-11619788D01*
X3663899Y-11619788D01*
X3663899Y-11589308D01*
G37*
D17*
X3962491Y-8780881D02*
G01*
X1553296Y-8780881D01*
X3962491Y-8875981D02*
G01*
X1553296Y-8875981D01*
X3803992Y-11221778D02*
G01*
X3962491Y-11221778D01*
X3962491Y-10460979D01*
X3803992Y-10460979D01*
X1711797Y-11982577D02*
G01*
X1553296Y-11982577D01*
X1553296Y-11285176D01*
X1711797Y-11285176D01*
X1553296Y-10334180D02*
G01*
X1711797Y-10334180D01*
X1553296Y-10334180D02*
G01*
X1553296Y-9636780D01*
X1711797Y-9636780D01*
D14*
X3477912Y-9831720D02*
G01*
X3336912Y-9831720D01*
X3336912Y-10012441D02*
G01*
X3477912Y-10012441D01*
X3493152Y-9997201D02*
G01*
X3493152Y-9846960D01*
X3115673Y-9831720D02*
G01*
X3256673Y-9831720D01*
X3256673Y-10012441D02*
G01*
X3115673Y-10012441D01*
X3100433Y-9997201D02*
G01*
X3100433Y-9846960D01*
D18*
X1906971Y-10610258D02*
G01*
X1906971Y-10630880D01*
X1906971Y-10755500D02*
G01*
X1906971Y-10735878D01*
D14*
X2082215Y-10755500D02*
G01*
X1906971Y-10755500D01*
X2082215Y-10610258D02*
G01*
X1906971Y-10610258D01*
X2041771Y-10755500D02*
G01*
X2041771Y-10610258D01*
D18*
X2255669Y-10610258D02*
G01*
X2255669Y-10630880D01*
X2255669Y-10755500D02*
G01*
X2255669Y-10735878D01*
D14*
X2430914Y-10755500D02*
G01*
X2255669Y-10755500D01*
X2430914Y-10610258D02*
G01*
X2255669Y-10610258D01*
X2390470Y-10755500D02*
G01*
X2390470Y-10610258D01*
D18*
X3636271Y-11787400D02*
G01*
X3656893Y-11787400D01*
X3781513Y-11787400D02*
G01*
X3761892Y-11787400D01*
D14*
X3781513Y-11612156D02*
G01*
X3781513Y-11787400D01*
X3636271Y-11612156D02*
G01*
X3636271Y-11787400D01*
X3781513Y-11652600D02*
G01*
X3636271Y-11652600D01*
X2501633Y-10249999D02*
G01*
X2501633Y-10345887D01*
X2633753Y-10345887D01*
X2633753Y-10249999D01*
X2501633Y-10164757D02*
G01*
X2501633Y-10068869D01*
X2633753Y-10068869D01*
X2633753Y-10164757D01*
X2588473Y-13057713D02*
G01*
X2492585Y-13057713D01*
X2492585Y-13189833D01*
X2588473Y-13189833D01*
X2673715Y-13057713D02*
G01*
X2769603Y-13057713D01*
X2769603Y-13189833D01*
X2673715Y-13189833D01*
X2311435Y-13261494D02*
G01*
X2311435Y-13357382D01*
X2443556Y-13357382D01*
X2443556Y-13261494D01*
X2311435Y-13176252D02*
G01*
X2311435Y-13080364D01*
X2443556Y-13080364D01*
X2443556Y-13176252D01*
X2455621Y-12512060D02*
G01*
X2551508Y-12512060D01*
X2551508Y-12379939D01*
X2455621Y-12379939D01*
X2370378Y-12512060D02*
G01*
X2274491Y-12512060D01*
X2274491Y-12379939D01*
X2370378Y-12379939D01*
X3497912Y-9766241D02*
G01*
X3593800Y-9766241D01*
X3593800Y-9634120D01*
X3497912Y-9634120D01*
X3412670Y-9766241D02*
G01*
X3316782Y-9766241D01*
X3316782Y-9634120D01*
X3412670Y-9634120D01*
X3547732Y-9996401D02*
G01*
X3547732Y-10092288D01*
X3679852Y-10092288D01*
X3679852Y-9996401D01*
X3547732Y-9911158D02*
G01*
X3547732Y-9815271D01*
X3679852Y-9815271D01*
X3679852Y-9911158D01*
X2071415Y-12365636D02*
G01*
X2167303Y-12365636D01*
X2167303Y-12233516D01*
X2071415Y-12233516D01*
X1986173Y-12365636D02*
G01*
X1890285Y-12365636D01*
X1890285Y-12233516D01*
X1986173Y-12233516D01*
X2366573Y-10394919D02*
G01*
X2270686Y-10394919D01*
X2270686Y-10527040D01*
X2366573Y-10527040D01*
X2451816Y-10394919D02*
G01*
X2547703Y-10394919D01*
X2547703Y-10527040D01*
X2451816Y-10527040D01*
X3237997Y-11608346D02*
G01*
X3237997Y-11786186D01*
X3545834Y-11608346D02*
G01*
X3545834Y-11786186D01*
D19*
X3686992Y-11931075D02*
G01*
X3286993Y-11931075D01*
X3686992Y-12351075D02*
G01*
X3286993Y-12351075D01*
D14*
X3339414Y-11414638D02*
G01*
X3435301Y-11414638D01*
X3435301Y-11282517D01*
X3339414Y-11282517D01*
X3254171Y-11414638D02*
G01*
X3158284Y-11414638D01*
X3158284Y-11282517D01*
X3254171Y-11282517D01*
D19*
X2092195Y-9883681D02*
G01*
X2092195Y-10086881D01*
X1990595Y-9985281D02*
G01*
X2193795Y-9985281D01*
X1736595Y-10086881D02*
G01*
X1736595Y-9680481D01*
X1736595Y-9629681D01*
X1787395Y-9629681D01*
X1787395Y-9680481D01*
X1888995Y-9680481D01*
X1888995Y-9629681D01*
X2041395Y-9629681D01*
X2041395Y-9680481D01*
X2142995Y-9680481D01*
X2142995Y-9629681D01*
X2295395Y-9629681D01*
X2295395Y-9680481D01*
X2396995Y-9680481D01*
X2396995Y-9629681D01*
X2447795Y-9629681D01*
X2447795Y-9680481D01*
X2447795Y-10036081D01*
X2447795Y-10340881D01*
X1736595Y-10340881D01*
X1736595Y-10036081D01*
X3525393Y-10841377D02*
G01*
X3322193Y-10841377D01*
X3423793Y-10739777D02*
G01*
X3423793Y-10942977D01*
X3322193Y-10485777D02*
G01*
X3728593Y-10485777D01*
X3779393Y-10485777D01*
X3779393Y-10536577D01*
X3728593Y-10536577D01*
X3728593Y-10638177D01*
X3779393Y-10638177D01*
X3779393Y-10790577D01*
X3728593Y-10790577D01*
X3728593Y-10892177D01*
X3779393Y-10892177D01*
X3779393Y-11044577D01*
X3728593Y-11044577D01*
X3728593Y-11146177D01*
X3779393Y-11146177D01*
X3779393Y-11196977D01*
X3728593Y-11196977D01*
X3372993Y-11196977D01*
X3068193Y-11196977D01*
X3068193Y-10485777D01*
X3372993Y-10485777D01*
D14*
X2388415Y-12207135D02*
G01*
X2484302Y-12207135D01*
X2484302Y-12075015D01*
X2388415Y-12075015D01*
X2303172Y-12207135D02*
G01*
X2207285Y-12207135D01*
X2207285Y-12075015D01*
X2303172Y-12075015D01*
X3014154Y-10893856D02*
G01*
X3014154Y-10797969D01*
X2882033Y-10797969D01*
X2882033Y-10893856D01*
X3014154Y-10979099D02*
G01*
X3014154Y-11074986D01*
X2882033Y-11074986D01*
X2882033Y-10979099D01*
D19*
X1990394Y-11633875D02*
G01*
X2193594Y-11633875D01*
X2091994Y-11735475D02*
G01*
X2091994Y-11532275D01*
X2193594Y-11989475D02*
G01*
X1787194Y-11989475D01*
X1736394Y-11989475D01*
X1736394Y-11938675D01*
X1787194Y-11938675D01*
X1787194Y-11837075D01*
X1736394Y-11837075D01*
X1736394Y-11684675D01*
X1787194Y-11684675D01*
X1787194Y-11583075D01*
X1736394Y-11583075D01*
X1736394Y-11430675D01*
X1787194Y-11430675D01*
X1787194Y-11329075D01*
X1736394Y-11329075D01*
X1736394Y-11278275D01*
X1787194Y-11278275D01*
X2142794Y-11278275D01*
X2447594Y-11278275D01*
X2447594Y-11989475D01*
X2142794Y-11989475D01*
D14*
X2071415Y-12207135D02*
G01*
X2167303Y-12207135D01*
X2167303Y-12075015D01*
X2071415Y-12075015D01*
X1986173Y-12207135D02*
G01*
X1890285Y-12207135D01*
X1890285Y-12075015D01*
X1986173Y-12075015D01*
X3509611Y-10117020D02*
G01*
X3368611Y-10117020D01*
X3368611Y-10297741D02*
G01*
X3509611Y-10297741D01*
X3524851Y-10282501D02*
G01*
X3524851Y-10132260D01*
X3147372Y-10117020D02*
G01*
X3288372Y-10117020D01*
X3288372Y-10297741D02*
G01*
X3147372Y-10297741D01*
X3132132Y-10282501D02*
G01*
X3132132Y-10132260D01*
D18*
X3548656Y-10143611D02*
G01*
X3548656Y-10219811D01*
X3548656Y-10396613D02*
G01*
X3548656Y-10320413D01*
X3680777Y-10396613D02*
G01*
X3680777Y-10320413D01*
D14*
X3680777Y-10396613D02*
G01*
X3665534Y-10411843D01*
X3563891Y-10411843D01*
X3548656Y-10396613D01*
D18*
X3680777Y-10143611D02*
G01*
X3680777Y-10219811D01*
D14*
X3548656Y-10143611D02*
G01*
X3563891Y-10128369D01*
X3665534Y-10128369D01*
X3680777Y-10143611D01*
D19*
X3182195Y-12322997D02*
G01*
X3182195Y-12403000D01*
X3071220Y-12292012D02*
G01*
X3151217Y-12292012D01*
X3071220Y-12433978D02*
G01*
X3151217Y-12433978D01*
X3013631Y-12291430D02*
G01*
X2933631Y-12291430D01*
X2902648Y-12322413D02*
G01*
X2902648Y-12402411D01*
X3013631Y-12433391D02*
G01*
X2933631Y-12433391D01*
X3277293Y-9660204D02*
G01*
X3277293Y-9740206D01*
X3166318Y-9629218D02*
G01*
X3246315Y-9629218D01*
X3166318Y-9771184D02*
G01*
X3246315Y-9771184D01*
X3108728Y-9628637D02*
G01*
X3028729Y-9628637D01*
X2997746Y-9659620D02*
G01*
X2997746Y-9739617D01*
X3108728Y-9770597D02*
G01*
X3028729Y-9770597D01*
D14*
X1972894Y-12706791D02*
G01*
X2148133Y-12706791D01*
X2148133Y-12602631D01*
X1972894Y-12399553D02*
G01*
X2148133Y-12399553D01*
X2148133Y-12503713D01*
X1972894Y-12598712D02*
G01*
X1972894Y-12507633D01*
D19*
X3003773Y-9337456D02*
G01*
X2244125Y-9337456D01*
X2244125Y-9083456D01*
X3260125Y-9083456D01*
X3260125Y-9337456D01*
X3003773Y-9337456D01*
X3003773Y-9337456D02*
G01*
X3003773Y-9083456D01*
X2506245Y-13472271D02*
G01*
X3265893Y-13472271D01*
X3265893Y-13726271D01*
X2249893Y-13726271D01*
X2249893Y-13472271D01*
X2506245Y-13472271D01*
X2506245Y-13472271D02*
G01*
X2506245Y-13726271D01*
D20*
X2725541Y-12892217D02*
G01*
X2725541Y-12891221D01*
X2758546Y-12858216D01*
X2793545Y-12892217D02*
G01*
X2792547Y-12892217D01*
X2758546Y-12858216D01*
X2793545Y-12892217D02*
G01*
X2725541Y-12892217D01*
X2833552Y-12894221D02*
G01*
X2833552Y-13009222D01*
X2683540Y-12894221D02*
G01*
X2683540Y-13009222D01*
X2833542Y-13009222D02*
G01*
X2685549Y-13009222D01*
X2683309Y-12856220D02*
G01*
X2683309Y-12751208D01*
X2723316Y-12721214D02*
G01*
X2713314Y-12721214D01*
X2683309Y-12751208D01*
X2793311Y-12721214D02*
G01*
X2723316Y-12721214D01*
X2793311Y-12721214D02*
G01*
X2803326Y-12721214D01*
X2833321Y-12751208D01*
X2833321Y-12856220D02*
G01*
X2833321Y-12751208D01*
X2758546Y-12892217D02*
G01*
X2758546Y-12858216D01*
D14*
X3496073Y-11438938D02*
G01*
X3637074Y-11438938D01*
X3637074Y-11258217D02*
G01*
X3496073Y-11258217D01*
X3480833Y-11273457D02*
G01*
X3480833Y-11423698D01*
X3858313Y-11438938D02*
G01*
X3717312Y-11438938D01*
X3717312Y-11258217D02*
G01*
X3858313Y-11258217D01*
X3873553Y-11273457D02*
G01*
X3873553Y-11423698D01*
X3256013Y-9419617D02*
G01*
X3115012Y-9419617D01*
X3115012Y-9600338D02*
G01*
X3256013Y-9600338D01*
X3271253Y-9585098D02*
G01*
X3271253Y-9434857D01*
X2893773Y-9419617D02*
G01*
X3034774Y-9419617D01*
X3034774Y-9600338D02*
G01*
X2893773Y-9600338D01*
X2878533Y-9585098D02*
G01*
X2878533Y-9434857D01*
D19*
X3213895Y-13210595D02*
G01*
X3213895Y-13290598D01*
X3102919Y-13179610D02*
G01*
X3182917Y-13179610D01*
X3102919Y-13321576D02*
G01*
X3182917Y-13321576D01*
X3045330Y-13179028D02*
G01*
X2965330Y-13179028D01*
X2934347Y-13210011D02*
G01*
X2934347Y-13290008D01*
X3045330Y-13320989D02*
G01*
X2965330Y-13320989D01*
D18*
X3041456Y-11982208D02*
G01*
X3041456Y-12058408D01*
X3041456Y-12235210D02*
G01*
X3041456Y-12159010D01*
X3173577Y-12235210D02*
G01*
X3173577Y-12159010D01*
D14*
X3173577Y-12235210D02*
G01*
X3158335Y-12250440D01*
X3056691Y-12250440D01*
X3041456Y-12235210D01*
D18*
X3173577Y-11982208D02*
G01*
X3173577Y-12058408D01*
D14*
X3041456Y-11982208D02*
G01*
X3056691Y-11966966D01*
X3158335Y-11966966D01*
X3173577Y-11982208D01*
D18*
X3203430Y-13124141D02*
G01*
X3203430Y-13047941D01*
X3203430Y-12871140D02*
G01*
X3203430Y-12947340D01*
X3071309Y-12871140D02*
G01*
X3071309Y-12947340D01*
D14*
X3071309Y-12871140D02*
G01*
X3086552Y-12855910D01*
X3188195Y-12855910D01*
X3203430Y-12871140D01*
D18*
X3071309Y-13124141D02*
G01*
X3071309Y-13047941D01*
D14*
X3203430Y-13124141D02*
G01*
X3188195Y-13139384D01*
X3086552Y-13139384D01*
X3071309Y-13124141D01*
D19*
X3182195Y-11815800D02*
G01*
X3182195Y-11895802D01*
X3071220Y-11784815D02*
G01*
X3151217Y-11784815D01*
X3071220Y-11926780D02*
G01*
X3151217Y-11926780D01*
X3013631Y-11784233D02*
G01*
X2933631Y-11784233D01*
X2902648Y-11815216D02*
G01*
X2902648Y-11895213D01*
X3013631Y-11926194D02*
G01*
X2933631Y-11926194D01*
X2988071Y-13009176D02*
G01*
X2908068Y-13009176D01*
X3019056Y-12898201D02*
G01*
X3019056Y-12978198D01*
X2877091Y-12898201D02*
G01*
X2877091Y-12978198D01*
X3019638Y-12840611D02*
G01*
X3019638Y-12760612D01*
X2988655Y-12729629D02*
G01*
X2908658Y-12729629D01*
X2877677Y-12840611D02*
G01*
X2877677Y-12760612D01*
X3062691Y-12624851D02*
G01*
X3062691Y-12544849D01*
X3173666Y-12655837D02*
G01*
X3093669Y-12655837D01*
X3173666Y-12513871D02*
G01*
X3093669Y-12513871D01*
X3231255Y-12656418D02*
G01*
X3311255Y-12656418D01*
X3342238Y-12625435D02*
G01*
X3342238Y-12545438D01*
X3231255Y-12514458D02*
G01*
X3311255Y-12514458D01*
X2523792Y-11166655D02*
G01*
X2523792Y-11086652D01*
X2634767Y-11197640D02*
G01*
X2554770Y-11197640D01*
X2634767Y-11055675D02*
G01*
X2554770Y-11055675D01*
X2692356Y-11198222D02*
G01*
X2772356Y-11198222D01*
X2803339Y-11167239D02*
G01*
X2803339Y-11087242D01*
X2692356Y-11056261D02*
G01*
X2772356Y-11056261D01*
X3062691Y-12783352D02*
G01*
X3062691Y-12703350D01*
X3173666Y-12814338D02*
G01*
X3093669Y-12814338D01*
X3173666Y-12672372D02*
G01*
X3093669Y-12672372D01*
X3231255Y-12814919D02*
G01*
X3311255Y-12814919D01*
X3342238Y-12783936D02*
G01*
X3342238Y-12703939D01*
X3231255Y-12672959D02*
G01*
X3311255Y-12672959D01*
X2104397Y-11086701D02*
G01*
X2104397Y-11166703D01*
X1993422Y-11055715D02*
G01*
X2073419Y-11055715D01*
X1993422Y-11197681D02*
G01*
X2073419Y-11197681D01*
X1935833Y-11055134D02*
G01*
X1855833Y-11055134D01*
X1824850Y-11086117D02*
G01*
X1824850Y-11166114D01*
X1935833Y-11197094D02*
G01*
X1855833Y-11197094D01*
X2469100Y-11089883D02*
G01*
X2469100Y-10909881D01*
X2354102Y-11089883D02*
G01*
X2274100Y-11089883D01*
X2159099Y-11089883D02*
G01*
X2159099Y-10909881D01*
D14*
G75*
G01*
X3477913Y-10012441D02*
G03*
X3493153Y-9997201I0J15240D01*
G75*
G01*
X3493153Y-9846960D02*
G03*
X3477913Y-9831720I-15240J0D01*
G75*
G01*
X3115673Y-10012441D02*
G02*
X3100433Y-9997201I0J15240D01*
G75*
G01*
X3100433Y-9846960D02*
G02*
X3115673Y-9831720I15240J0D01*
D19*
G75*
G01*
X2346195Y-10277381D02*
G03*
X2345941Y-10277381I-127J7619D01*
G75*
G01*
X2092195Y-10098819D02*
G03*
X2090163Y-10098819I-1016J113588D01*
G75*
G01*
X3131693Y-11095378D02*
G03*
X3131693Y-11095124I7619J127D01*
G75*
G01*
X3310255Y-10841378D02*
G03*
X3310255Y-10839346I113588J1016D01*
G75*
G01*
X2384095Y-11379876D02*
G03*
X2384095Y-11380130I-7619J-127D01*
G75*
G01*
X2205533Y-11633876D02*
G03*
X2205533Y-11635908I-113588J-1016D01*
D14*
G75*
G01*
X3509612Y-10297742D02*
G03*
X3524852Y-10282502I0J15240D01*
G75*
G01*
X3524852Y-10132261D02*
G03*
X3509612Y-10117021I-15240J0D01*
G75*
G01*
X3147372Y-10297742D02*
G02*
X3132132Y-10282502I0J15240D01*
G75*
G01*
X3132132Y-10132261D02*
G02*
X3147372Y-10117021I15240J0D01*
D19*
G75*
G01*
X2902643Y-12322414D02*
G02*
X2933626Y-12291431I30983J0D01*
G75*
G01*
X2933626Y-12433397D02*
G02*
X2902643Y-12402411I0J30983D01*
G75*
G01*
X3151213Y-12292012D02*
G02*
X3182196Y-12322998I0J-30983D01*
G75*
G01*
X3182196Y-12402995D02*
G02*
X3151213Y-12433978I-30983J0D01*
G75*
G01*
X2997741Y-9659620D02*
G02*
X3028724Y-9628637I30983J0D01*
G75*
G01*
X3028724Y-9770603D02*
G02*
X2997741Y-9739617I0J30983D01*
G75*
G01*
X3246310Y-9629219D02*
G02*
X3277293Y-9660204I1J-30983D01*
G75*
G01*
X3277293Y-9740201D02*
G02*
X3246310Y-9771184I-30983J-1D01*
D14*
G75*
G01*
X3496074Y-11258217D02*
G03*
X3480834Y-11273457I0J-15240D01*
G75*
G01*
X3480834Y-11423698D02*
G03*
X3496074Y-11438938I15240J0D01*
G75*
G01*
X3858313Y-11258217D02*
G02*
X3873553Y-11273457I0J-15240D01*
G75*
G01*
X3873553Y-11423698D02*
G02*
X3858313Y-11438938I-15240J0D01*
G75*
G01*
X3256013Y-9600339D02*
G03*
X3271253Y-9585099I0J15240D01*
G75*
G01*
X3271253Y-9434858D02*
G03*
X3256013Y-9419618I-15240J0D01*
G75*
G01*
X2893774Y-9600339D02*
G02*
X2878534Y-9585099I0J15240D01*
G75*
G01*
X2878534Y-9434858D02*
G02*
X2893774Y-9419618I15240J0D01*
D19*
G75*
G01*
X2934343Y-13210012D02*
G02*
X2965326Y-13179029I30983J0D01*
G75*
G01*
X2965326Y-13320994D02*
G02*
X2934343Y-13290009I0J30982D01*
G75*
G01*
X3182912Y-13179610D02*
G02*
X3213895Y-13210596I0J-30983D01*
G75*
G01*
X3213895Y-13290593D02*
G02*
X3182912Y-13321576I-30983J0D01*
G75*
G01*
X2902643Y-11815216D02*
G02*
X2933626Y-11784233I30983J0D01*
G75*
G01*
X2933626Y-11926199D02*
G02*
X2902643Y-11895214I0J30983D01*
G75*
G01*
X3151213Y-11784815D02*
G02*
X3182196Y-11815801I0J-30983D01*
G75*
G01*
X3182196Y-11895798D02*
G02*
X3151213Y-11926781I-30983J0D01*
G75*
G01*
X2988655Y-12729624D02*
G02*
X3019638Y-12760607I0J-30983D01*
G75*
G01*
X2877673Y-12760607D02*
G02*
X2908658Y-12729624I30983J0D01*
G75*
G01*
X3019057Y-12978193D02*
G02*
X2988071Y-13009176I-30983J-1D01*
G75*
G01*
X2908074Y-13009176D02*
G02*
X2877091Y-12978193I0J30983D01*
G75*
G01*
X3342244Y-12625436D02*
G02*
X3311261Y-12656419I-30983J0D01*
G75*
G01*
X3311261Y-12514453D02*
G02*
X3342244Y-12545438I0J-30983D01*
G75*
G01*
X3093674Y-12655837D02*
G02*
X3062691Y-12624852I0J30983D01*
G75*
G01*
X3062691Y-12544854D02*
G02*
X3093674Y-12513871I30983J0D01*
G75*
G01*
X2803345Y-11167240D02*
G02*
X2772362Y-11198222I-30983J0D01*
G75*
G01*
X2772362Y-11056257D02*
G02*
X2803345Y-11087242I0J-30983D01*
G75*
G01*
X2554775Y-11197641D02*
G02*
X2523792Y-11166655I0J30983D01*
G75*
G01*
X2523792Y-11086658D02*
G02*
X2554775Y-11055675I30983J0D01*
G75*
G01*
X3342244Y-12783937D02*
G02*
X3311261Y-12814920I-30983J0D01*
G75*
G01*
X3311261Y-12672954D02*
G02*
X3342244Y-12703940I0J-30983D01*
G75*
G01*
X3093674Y-12814338D02*
G02*
X3062691Y-12783353I0J30983D01*
G75*
G01*
X3062691Y-12703355D02*
G02*
X3093674Y-12672372I30983J0D01*
G75*
G01*
X1824845Y-11086117D02*
G02*
X1855828Y-11055134I30983J0D01*
G75*
G01*
X1855828Y-11197100D02*
G02*
X1824845Y-11166114I0J30983D01*
G75*
G01*
X2073415Y-11055716D02*
G02*
X2104398Y-11086701I0J-30983D01*
G75*
G01*
X2104398Y-11166699D02*
G02*
X2073415Y-11197681I-30983J0D01*
D21*
G75*
G01
X3573755Y-11567117D02*
G03X3573755Y-11567117I-15011J0D01*
D19*
G75*
G01
X2491923Y-10847517D02*
G03X2491923Y-10847517I-12700J0D01*
X2187295Y-4311192D02*
G01*
X3360191Y-4311192D01*
X3360191Y-8445500D01*
X2187295Y-8445500D01*
X2187295Y-4311192D01*
M02*
