G04 Layer: TopPasteMaskLayer*
G04 EasyEDA v6.5.22, 2022-11-15 19:49:41*
G04 707d77357ed9460192f0bb31fbe9fbc2,9a5be75d700b4a6385dc1106f27949ae,10*
G04 Gerber Generator version 0.2*
G04 Scale: 100 percent, Rotated: No, Reflected: No *
G04 Dimensions in millimeters *
G04 leading zeros omitted , absolute positions ,4 integer and 5 decimal *
%FSLAX45Y45*%
%MOMM*%

%AMMACRO1*21,1,$1,$2,0,0,$3*%
%ADD10R,0.6000X1.0000*%
%ADD11R,0.5320X1.0720*%
%ADD12R,1.0700X0.6000*%
%ADD13R,1.2500X1.0000*%
%ADD14R,1.1500X0.9500*%
%ADD15R,0.5320X1.0375*%
%ADD16MACRO1,4.22X2.124X-90.0000*%
%ADD17R,1.0000X0.6000*%
%ADD18R,0.0108X0.6000*%

%LPD*%
G36*
X2585974Y-11596573D02*
G01*
X2580995Y-11601602D01*
X2581503Y-11643563D01*
X2625496Y-11643563D01*
X2625496Y-11688572D01*
X2580487Y-11688572D01*
X2580995Y-11729567D01*
X2585974Y-11734596D01*
X2700985Y-11734596D01*
X2706014Y-11729567D01*
X2706014Y-11601602D01*
X2700985Y-11596573D01*
G37*
G36*
X2370988Y-11596573D02*
G01*
X2366010Y-11601602D01*
X2366010Y-11729567D01*
X2370988Y-11734596D01*
X2485999Y-11734596D01*
X2490978Y-11729567D01*
X2490470Y-11688572D01*
X2446477Y-11688572D01*
X2446477Y-11643563D01*
X2490978Y-11643563D01*
X2490978Y-11601602D01*
X2485999Y-11596573D01*
G37*
G36*
X1641906Y-12801193D02*
G01*
X1636877Y-12806172D01*
X1636877Y-12934188D01*
X1641906Y-12939166D01*
X1756918Y-12939166D01*
X1761896Y-12934188D01*
X1761388Y-12892176D01*
X1717395Y-12892176D01*
X1717395Y-12847167D01*
X1762404Y-12847167D01*
X1761896Y-12806172D01*
X1756918Y-12801193D01*
G37*
G36*
X1856892Y-12801193D02*
G01*
X1851914Y-12806172D01*
X1852422Y-12847167D01*
X1896414Y-12847167D01*
X1896414Y-12892176D01*
X1851914Y-12892176D01*
X1851914Y-12934188D01*
X1856892Y-12939166D01*
X1971903Y-12939166D01*
X1976882Y-12934188D01*
X1976882Y-12806172D01*
X1971903Y-12801193D01*
G37*
G36*
X3113176Y-9742271D02*
G01*
X3072180Y-9742779D01*
X3067151Y-9747758D01*
X3067151Y-9862769D01*
X3072180Y-9867747D01*
X3200146Y-9867747D01*
X3205175Y-9862769D01*
X3205175Y-9747758D01*
X3200146Y-9742779D01*
X3158185Y-9743236D01*
X3158185Y-9787280D01*
X3113176Y-9787280D01*
G37*
G36*
X3072180Y-9527743D02*
G01*
X3067151Y-9532772D01*
X3067151Y-9647783D01*
X3072180Y-9652762D01*
X3113176Y-9652254D01*
X3113176Y-9608261D01*
X3158185Y-9608261D01*
X3158185Y-9652762D01*
X3200146Y-9652762D01*
X3205175Y-9647783D01*
X3205175Y-9532772D01*
X3200146Y-9527743D01*
G37*
G36*
X2171395Y-11852198D02*
G01*
X2166416Y-11857177D01*
X2166874Y-11899188D01*
X2210917Y-11899188D01*
X2210917Y-11944197D01*
X2165908Y-11944197D01*
X2166416Y-11985193D01*
X2171395Y-11990171D01*
X2286406Y-11990171D01*
X2291384Y-11985193D01*
X2291384Y-11857177D01*
X2286406Y-11852198D01*
G37*
G36*
X1956409Y-11852198D02*
G01*
X1951380Y-11857177D01*
X1951380Y-11985193D01*
X1956409Y-11990171D01*
X2071420Y-11990171D01*
X2076399Y-11985193D01*
X2075891Y-11944197D01*
X2031898Y-11944197D01*
X2031898Y-11899188D01*
X2076399Y-11899188D01*
X2076399Y-11857177D01*
X2071420Y-11852198D01*
G37*
G36*
X2753918Y-13306348D02*
G01*
X2748889Y-13311378D01*
X2748889Y-13439343D01*
X2753918Y-13444372D01*
X2868879Y-13444372D01*
X2873908Y-13439343D01*
X2873400Y-13397382D01*
X2829407Y-13397382D01*
X2829407Y-13352373D01*
X2874416Y-13352373D01*
X2873908Y-13311378D01*
X2868879Y-13306348D01*
G37*
G36*
X2968904Y-13306348D02*
G01*
X2963875Y-13311378D01*
X2964383Y-13352373D01*
X3008376Y-13352373D01*
X3008376Y-13397382D01*
X2963875Y-13397382D01*
X2963875Y-13439343D01*
X2968904Y-13444372D01*
X3083915Y-13444372D01*
X3088894Y-13439343D01*
X3088894Y-13311378D01*
X3083915Y-13306348D01*
G37*
G36*
X3242106Y-11583263D02*
G01*
X3201111Y-11583771D01*
X3196082Y-11588800D01*
X3196082Y-11703761D01*
X3201111Y-11708790D01*
X3329076Y-11708790D01*
X3334105Y-11703761D01*
X3334105Y-11588800D01*
X3329076Y-11583771D01*
X3287115Y-11584279D01*
X3287115Y-11628272D01*
X3242106Y-11628272D01*
G37*
G36*
X3201111Y-11368786D02*
G01*
X3196082Y-11373764D01*
X3196082Y-11488775D01*
X3201111Y-11493754D01*
X3242106Y-11493296D01*
X3242106Y-11449253D01*
X3287115Y-11449253D01*
X3287115Y-11493754D01*
X3329076Y-11493754D01*
X3334105Y-11488775D01*
X3334105Y-11373764D01*
X3329076Y-11368786D01*
G37*
G36*
X3020212Y-11583263D02*
G01*
X2979216Y-11583771D01*
X2974187Y-11588800D01*
X2974187Y-11703761D01*
X2979216Y-11708790D01*
X3107182Y-11708790D01*
X3112211Y-11703761D01*
X3112211Y-11588800D01*
X3107182Y-11583771D01*
X3065221Y-11584279D01*
X3065221Y-11628272D01*
X3020212Y-11628272D01*
G37*
G36*
X2979216Y-11368786D02*
G01*
X2974187Y-11373764D01*
X2974187Y-11488775D01*
X2979216Y-11493754D01*
X3020212Y-11493296D01*
X3020212Y-11449253D01*
X3065221Y-11449253D01*
X3065221Y-11493754D01*
X3107182Y-11493754D01*
X3112211Y-11488775D01*
X3112211Y-11373764D01*
X3107182Y-11368786D01*
G37*
G36*
X2307691Y-9599523D02*
G01*
X2302713Y-9604502D01*
X2302713Y-9732518D01*
X2307691Y-9737496D01*
X2422702Y-9737496D01*
X2427681Y-9732518D01*
X2427173Y-9690506D01*
X2383180Y-9690506D01*
X2383180Y-9645497D01*
X2428189Y-9645497D01*
X2427681Y-9604502D01*
X2422702Y-9599523D01*
G37*
G36*
X2522677Y-9599523D02*
G01*
X2517698Y-9604502D01*
X2518206Y-9645497D01*
X2562199Y-9645497D01*
X2562199Y-9690506D01*
X2517698Y-9690506D01*
X2517698Y-9732518D01*
X2522677Y-9737496D01*
X2637688Y-9737496D01*
X2642666Y-9732518D01*
X2642666Y-9604502D01*
X2637688Y-9599523D01*
G37*
G36*
X2834182Y-12681000D02*
G01*
X2793187Y-12681508D01*
X2788208Y-12686487D01*
X2788208Y-12801498D01*
X2793187Y-12806527D01*
X2921203Y-12806527D01*
X2926181Y-12801498D01*
X2926181Y-12686487D01*
X2921203Y-12681508D01*
X2879191Y-12682016D01*
X2879191Y-12726009D01*
X2834182Y-12726009D01*
G37*
G36*
X2793187Y-12466523D02*
G01*
X2788208Y-12471501D01*
X2788208Y-12586512D01*
X2793187Y-12591491D01*
X2834182Y-12590983D01*
X2834182Y-12546990D01*
X2879191Y-12546990D01*
X2879191Y-12591491D01*
X2921203Y-12591491D01*
X2926181Y-12586512D01*
X2926181Y-12471501D01*
X2921203Y-12466523D01*
G37*
G36*
X2375001Y-13012013D02*
G01*
X2369972Y-13016992D01*
X2369972Y-13145007D01*
X2375001Y-13149986D01*
X2490012Y-13149986D01*
X2494991Y-13145007D01*
X2494483Y-13102996D01*
X2450490Y-13102996D01*
X2450490Y-13057987D01*
X2495499Y-13057987D01*
X2494991Y-13016992D01*
X2490012Y-13012013D01*
G37*
G36*
X2589987Y-13012013D02*
G01*
X2585008Y-13016992D01*
X2585516Y-13057987D01*
X2629509Y-13057987D01*
X2629509Y-13102996D01*
X2585008Y-13102996D01*
X2585008Y-13145007D01*
X2589987Y-13149986D01*
X2704998Y-13149986D01*
X2709976Y-13145007D01*
X2709976Y-13016992D01*
X2704998Y-13012013D01*
G37*
G36*
X3451301Y-9946182D02*
G01*
X3446272Y-9951161D01*
X3446272Y-10079177D01*
X3451301Y-10084155D01*
X3566312Y-10084155D01*
X3571290Y-10079177D01*
X3570782Y-10037165D01*
X3526790Y-10037165D01*
X3526790Y-9992156D01*
X3571798Y-9992156D01*
X3571290Y-9951161D01*
X3566312Y-9946182D01*
G37*
G36*
X3666286Y-9946182D02*
G01*
X3661308Y-9951161D01*
X3661816Y-9992156D01*
X3705809Y-9992156D01*
X3705809Y-10037165D01*
X3661308Y-10037165D01*
X3661308Y-10079177D01*
X3666286Y-10084155D01*
X3781298Y-10084155D01*
X3786276Y-10079177D01*
X3786276Y-9951161D01*
X3781298Y-9946182D01*
G37*
G36*
X3456686Y-10166654D02*
G01*
X3451707Y-10171684D01*
X3451707Y-10286695D01*
X3456686Y-10291673D01*
X3498697Y-10291165D01*
X3498697Y-10247172D01*
X3543706Y-10247172D01*
X3543706Y-10292181D01*
X3584701Y-10291673D01*
X3589680Y-10286695D01*
X3589680Y-10171684D01*
X3584701Y-10166654D01*
G37*
G36*
X3456686Y-10381691D02*
G01*
X3451707Y-10386669D01*
X3451707Y-10501680D01*
X3456686Y-10506659D01*
X3584701Y-10506659D01*
X3589680Y-10501680D01*
X3589680Y-10386669D01*
X3584701Y-10381691D01*
X3543706Y-10382199D01*
X3543706Y-10426192D01*
X3498697Y-10426192D01*
X3498697Y-10381691D01*
G37*
G36*
X2488387Y-10362285D02*
G01*
X2483408Y-10367264D01*
X2483916Y-10409275D01*
X2527909Y-10409275D01*
X2527909Y-10454284D01*
X2482900Y-10454284D01*
X2483408Y-10495280D01*
X2488387Y-10500258D01*
X2603398Y-10500258D01*
X2608376Y-10495280D01*
X2608376Y-10367264D01*
X2603398Y-10362285D01*
G37*
G36*
X2273401Y-10362285D02*
G01*
X2268372Y-10367264D01*
X2268372Y-10495280D01*
X2273401Y-10500258D01*
X2388412Y-10500258D01*
X2393391Y-10495280D01*
X2392883Y-10454284D01*
X2348890Y-10454284D01*
X2348890Y-10409275D01*
X2393391Y-10409275D01*
X2393391Y-10367264D01*
X2388412Y-10362285D01*
G37*
G36*
X3197707Y-12925958D02*
G01*
X3192678Y-12930987D01*
X3192678Y-13058952D01*
X3197707Y-13063982D01*
X3312718Y-13063982D01*
X3317697Y-13058952D01*
X3317189Y-13016992D01*
X3273196Y-13016992D01*
X3273196Y-12971983D01*
X3318205Y-12971983D01*
X3317697Y-12930987D01*
X3312718Y-12925958D01*
G37*
G36*
X3412693Y-12925958D02*
G01*
X3407714Y-12930987D01*
X3408172Y-12971983D01*
X3452215Y-12971983D01*
X3452215Y-13016992D01*
X3407714Y-13016992D01*
X3407714Y-13058952D01*
X3412693Y-13063982D01*
X3527704Y-13063982D01*
X3532682Y-13058952D01*
X3532682Y-12930987D01*
X3527704Y-12925958D01*
G37*
G36*
X2615184Y-12232589D02*
G01*
X2610205Y-12237567D01*
X2610713Y-12279579D01*
X2654706Y-12279579D01*
X2654706Y-12324588D01*
X2609697Y-12324588D01*
X2610205Y-12365583D01*
X2615184Y-12370562D01*
X2730195Y-12370562D01*
X2735173Y-12365583D01*
X2735173Y-12237567D01*
X2730195Y-12232589D01*
G37*
G36*
X2400198Y-12232589D02*
G01*
X2395169Y-12237567D01*
X2395169Y-12365583D01*
X2400198Y-12370562D01*
X2515209Y-12370562D01*
X2520188Y-12365583D01*
X2519680Y-12324588D01*
X2475687Y-12324588D01*
X2475687Y-12279579D01*
X2520188Y-12279579D01*
X2520188Y-12237567D01*
X2515209Y-12232589D01*
G37*
G36*
X2415895Y-11390579D02*
G01*
X2374900Y-11391087D01*
X2369870Y-11396065D01*
X2369870Y-11511076D01*
X2374900Y-11516106D01*
X2502865Y-11516106D01*
X2507894Y-11511076D01*
X2507894Y-11396065D01*
X2502865Y-11391087D01*
X2460904Y-11391595D01*
X2460904Y-11435588D01*
X2415895Y-11435588D01*
G37*
G36*
X2374900Y-11176101D02*
G01*
X2369870Y-11181080D01*
X2369870Y-11296091D01*
X2374900Y-11301069D01*
X2415895Y-11300561D01*
X2415895Y-11256568D01*
X2460904Y-11256568D01*
X2460904Y-11301069D01*
X2502865Y-11301069D01*
X2507894Y-11296091D01*
X2507894Y-11181080D01*
X2502865Y-11176101D01*
G37*
G36*
X3197707Y-13116458D02*
G01*
X3192678Y-13121487D01*
X3192678Y-13249452D01*
X3197707Y-13254482D01*
X3312718Y-13254482D01*
X3317697Y-13249452D01*
X3317189Y-13207492D01*
X3273196Y-13207492D01*
X3273196Y-13162483D01*
X3318205Y-13162483D01*
X3317697Y-13121487D01*
X3312718Y-13116458D01*
G37*
G36*
X3412693Y-13116458D02*
G01*
X3407714Y-13121487D01*
X3408172Y-13162483D01*
X3452215Y-13162483D01*
X3452215Y-13207492D01*
X3407714Y-13207492D01*
X3407714Y-13249452D01*
X3412693Y-13254482D01*
X3527704Y-13254482D01*
X3532682Y-13249452D01*
X3532682Y-13121487D01*
X3527704Y-13116458D01*
G37*
G36*
X3044596Y-11910161D02*
G01*
X3039618Y-11915190D01*
X3039618Y-12030151D01*
X3044596Y-12035180D01*
X3086608Y-12034672D01*
X3086608Y-11990679D01*
X3131616Y-11990679D01*
X3131616Y-12035688D01*
X3172612Y-12035180D01*
X3177590Y-12030151D01*
X3177590Y-11915190D01*
X3172612Y-11910161D01*
G37*
G36*
X3044596Y-12125198D02*
G01*
X3039618Y-12130176D01*
X3039618Y-12245187D01*
X3044596Y-12250166D01*
X3172612Y-12250166D01*
X3177590Y-12245187D01*
X3177590Y-12130176D01*
X3172612Y-12125198D01*
X3131616Y-12125655D01*
X3131616Y-12169698D01*
X3086608Y-12169698D01*
X3086608Y-12125198D01*
G37*
G36*
X3335172Y-9742170D02*
G01*
X3294176Y-9742678D01*
X3289198Y-9747656D01*
X3289198Y-9862667D01*
X3294176Y-9867696D01*
X3422192Y-9867696D01*
X3427171Y-9862667D01*
X3427171Y-9747656D01*
X3422192Y-9742678D01*
X3380181Y-9743186D01*
X3380181Y-9787178D01*
X3335172Y-9787178D01*
G37*
G36*
X3294176Y-9527692D02*
G01*
X3289198Y-9532670D01*
X3289198Y-9647682D01*
X3294176Y-9652660D01*
X3335172Y-9652203D01*
X3335172Y-9608159D01*
X3380181Y-9608159D01*
X3380181Y-9652660D01*
X3422192Y-9652660D01*
X3427171Y-9647682D01*
X3427171Y-9532670D01*
X3422192Y-9527692D01*
G37*
G36*
X3197707Y-13306958D02*
G01*
X3192678Y-13311987D01*
X3192678Y-13439952D01*
X3197707Y-13444982D01*
X3312718Y-13444982D01*
X3317697Y-13439952D01*
X3317189Y-13397992D01*
X3273196Y-13397992D01*
X3273196Y-13352983D01*
X3318205Y-13352983D01*
X3317697Y-13311987D01*
X3312718Y-13306958D01*
G37*
G36*
X3412693Y-13306958D02*
G01*
X3407714Y-13311987D01*
X3408172Y-13352983D01*
X3452215Y-13352983D01*
X3452215Y-13397992D01*
X3407714Y-13397992D01*
X3407714Y-13439952D01*
X3412693Y-13444982D01*
X3527704Y-13444982D01*
X3532682Y-13439952D01*
X3532682Y-13311987D01*
X3527704Y-13306958D01*
G37*
G36*
X1880616Y-11533174D02*
G01*
X1875586Y-11538153D01*
X1876094Y-11579199D01*
X1920087Y-11579199D01*
X1920087Y-11624157D01*
X1875586Y-11624157D01*
X1875586Y-11666169D01*
X1880616Y-11671198D01*
X1995576Y-11671198D01*
X2000605Y-11666169D01*
X2000605Y-11538153D01*
X1995576Y-11533174D01*
G37*
G36*
X1681581Y-11533174D02*
G01*
X1676603Y-11538153D01*
X1676603Y-11666169D01*
X1681581Y-11671198D01*
X1796592Y-11671198D01*
X1801622Y-11666169D01*
X1801114Y-11624157D01*
X1757121Y-11624157D01*
X1757121Y-11579199D01*
X1802079Y-11579199D01*
X1801622Y-11538153D01*
X1796592Y-11533174D01*
G37*
G36*
X2022297Y-12801193D02*
G01*
X2017318Y-12806172D01*
X2017318Y-12934188D01*
X2022297Y-12939166D01*
X2137308Y-12939166D01*
X2142286Y-12934188D01*
X2141778Y-12892176D01*
X2097786Y-12892176D01*
X2097786Y-12847167D01*
X2142794Y-12847167D01*
X2142286Y-12806172D01*
X2137308Y-12801193D01*
G37*
G36*
X2237282Y-12801193D02*
G01*
X2232304Y-12806172D01*
X2232812Y-12847167D01*
X2276805Y-12847167D01*
X2276805Y-12892176D01*
X2232304Y-12892176D01*
X2232304Y-12934188D01*
X2237282Y-12939166D01*
X2352294Y-12939166D01*
X2357272Y-12934188D01*
X2357272Y-12806172D01*
X2352294Y-12801193D01*
G37*
G36*
X2488387Y-10172090D02*
G01*
X2483408Y-10177068D01*
X2483916Y-10219080D01*
X2527909Y-10219080D01*
X2527909Y-10264089D01*
X2482900Y-10264089D01*
X2483408Y-10305084D01*
X2488387Y-10310063D01*
X2603398Y-10310063D01*
X2608376Y-10305084D01*
X2608376Y-10177068D01*
X2603398Y-10172090D01*
G37*
G36*
X2273401Y-10172090D02*
G01*
X2268372Y-10177068D01*
X2268372Y-10305084D01*
X2273401Y-10310063D01*
X2388412Y-10310063D01*
X2393391Y-10305084D01*
X2392883Y-10264089D01*
X2348890Y-10264089D01*
X2348890Y-10219080D01*
X2393391Y-10219080D01*
X2393391Y-10177068D01*
X2388412Y-10172090D01*
G37*
G36*
X2094992Y-9481972D02*
G01*
X2090013Y-9487001D01*
X2090013Y-9602012D01*
X2094992Y-9606991D01*
X2137003Y-9606483D01*
X2137003Y-9562490D01*
X2182012Y-9562490D01*
X2182012Y-9607499D01*
X2223008Y-9606991D01*
X2227986Y-9602012D01*
X2227986Y-9487001D01*
X2223008Y-9481972D01*
G37*
G36*
X2094992Y-9697008D02*
G01*
X2090013Y-9701987D01*
X2090013Y-9816998D01*
X2094992Y-9821976D01*
X2223008Y-9821976D01*
X2227986Y-9816998D01*
X2227986Y-9701987D01*
X2223008Y-9697008D01*
X2182012Y-9697516D01*
X2182012Y-9741509D01*
X2137003Y-9741509D01*
X2137003Y-9697008D01*
G37*
G36*
X2315616Y-9409277D02*
G01*
X2310587Y-9414306D01*
X2310587Y-9542272D01*
X2315616Y-9547301D01*
X2430576Y-9547301D01*
X2435606Y-9542272D01*
X2435098Y-9501276D01*
X2391105Y-9501276D01*
X2391105Y-9456267D01*
X2435606Y-9456267D01*
X2435606Y-9414306D01*
X2430576Y-9409277D01*
G37*
G36*
X2514600Y-9409277D02*
G01*
X2509570Y-9414306D01*
X2510078Y-9456267D01*
X2554071Y-9456267D01*
X2554071Y-9501276D01*
X2509113Y-9501276D01*
X2509570Y-9542272D01*
X2514600Y-9547301D01*
X2629611Y-9547301D01*
X2634589Y-9542272D01*
X2634589Y-9414306D01*
X2629611Y-9409277D01*
G37*
G36*
X2376881Y-10798149D02*
G01*
X2371902Y-10803178D01*
X2371902Y-10918190D01*
X2376881Y-10923168D01*
X2418892Y-10922660D01*
X2418892Y-10878667D01*
X2463901Y-10878667D01*
X2463901Y-10923676D01*
X2504897Y-10923168D01*
X2509875Y-10918190D01*
X2509875Y-10803178D01*
X2504897Y-10798149D01*
G37*
G36*
X2376881Y-11013186D02*
G01*
X2371902Y-11018164D01*
X2371902Y-11133175D01*
X2376881Y-11138154D01*
X2504897Y-11138154D01*
X2509875Y-11133175D01*
X2509875Y-11018164D01*
X2504897Y-11013186D01*
X2463901Y-11013694D01*
X2463901Y-11057686D01*
X2418892Y-11057686D01*
X2418892Y-11013186D01*
G37*
G36*
X1681581Y-11342979D02*
G01*
X1676603Y-11347958D01*
X1676603Y-11475974D01*
X1681581Y-11480952D01*
X1796592Y-11480952D01*
X1801622Y-11475974D01*
X1801114Y-11434978D01*
X1757121Y-11434978D01*
X1757121Y-11389969D01*
X1801622Y-11389969D01*
X1801622Y-11347958D01*
X1796592Y-11342979D01*
G37*
G36*
X1880616Y-11342979D02*
G01*
X1875586Y-11347958D01*
X1876094Y-11389969D01*
X1920087Y-11389969D01*
X1920087Y-11434978D01*
X1875078Y-11434978D01*
X1875586Y-11475974D01*
X1880616Y-11480952D01*
X1995576Y-11480952D01*
X2000605Y-11475974D01*
X2000605Y-11347958D01*
X1995576Y-11342979D01*
G37*
G36*
X2602992Y-12466472D02*
G01*
X2598013Y-12471501D01*
X2598013Y-12586512D01*
X2602992Y-12591491D01*
X2645003Y-12590983D01*
X2645003Y-12546990D01*
X2690012Y-12546990D01*
X2690012Y-12591999D01*
X2731008Y-12591491D01*
X2735986Y-12586512D01*
X2735986Y-12471501D01*
X2731008Y-12466472D01*
G37*
G36*
X2602992Y-12681508D02*
G01*
X2598013Y-12686487D01*
X2598013Y-12801498D01*
X2602992Y-12806476D01*
X2731008Y-12806476D01*
X2735986Y-12801498D01*
X2735986Y-12686487D01*
X2731008Y-12681508D01*
X2690012Y-12682016D01*
X2690012Y-12726009D01*
X2645003Y-12726009D01*
X2645003Y-12681508D01*
G37*
G36*
X3549802Y-9530181D02*
G01*
X3544773Y-9535160D01*
X3544773Y-9650171D01*
X3549802Y-9655200D01*
X3591763Y-9654692D01*
X3591763Y-9610699D01*
X3636772Y-9610699D01*
X3636772Y-9655657D01*
X3677767Y-9655200D01*
X3682796Y-9650171D01*
X3682796Y-9535160D01*
X3677767Y-9530181D01*
G37*
G36*
X3549802Y-9745167D02*
G01*
X3544773Y-9750196D01*
X3544773Y-9865156D01*
X3549802Y-9870186D01*
X3677767Y-9870186D01*
X3682796Y-9865156D01*
X3682796Y-9750196D01*
X3677767Y-9745167D01*
X3636772Y-9745675D01*
X3636772Y-9789668D01*
X3591763Y-9789668D01*
X3591763Y-9745167D01*
G37*
G36*
X2995015Y-13530427D02*
G01*
X2985058Y-13540435D01*
X2985058Y-13658138D01*
X2995015Y-13668095D01*
X3063798Y-13668095D01*
X3102305Y-13621308D01*
X3102305Y-13577214D01*
X3063798Y-13530427D01*
G37*
G36*
X3212795Y-13530427D02*
G01*
X3174288Y-13577214D01*
X3174288Y-13621308D01*
X3212795Y-13668095D01*
X3281527Y-13668095D01*
X3291535Y-13658138D01*
X3291535Y-13540435D01*
X3281527Y-13530427D01*
G37*
G36*
X3068370Y-10360304D02*
G01*
X3063392Y-10365282D01*
X3063392Y-10493298D01*
X3068370Y-10498277D01*
X3183382Y-10498277D01*
X3188411Y-10493298D01*
X3187903Y-10451287D01*
X3143910Y-10451287D01*
X3143910Y-10406278D01*
X3188919Y-10406278D01*
X3188411Y-10365282D01*
X3183382Y-10360304D01*
G37*
G36*
X3283407Y-10360304D02*
G01*
X3278378Y-10365282D01*
X3278886Y-10406278D01*
X3322878Y-10406278D01*
X3322878Y-10451287D01*
X3278378Y-10451287D01*
X3278378Y-10493298D01*
X3283407Y-10498277D01*
X3398418Y-10498277D01*
X3403396Y-10493298D01*
X3403396Y-10365282D01*
X3398418Y-10360304D01*
G37*
G36*
X3708298Y-10164165D02*
G01*
X3703269Y-10169194D01*
X3703269Y-10284206D01*
X3708298Y-10289184D01*
X3750310Y-10288676D01*
X3750310Y-10244683D01*
X3795268Y-10244683D01*
X3795268Y-10289692D01*
X3836314Y-10289184D01*
X3841292Y-10284206D01*
X3841292Y-10169194D01*
X3836314Y-10164165D01*
G37*
G36*
X3708298Y-10379202D02*
G01*
X3703269Y-10384180D01*
X3703269Y-10499191D01*
X3708298Y-10504170D01*
X3836314Y-10504170D01*
X3841292Y-10499191D01*
X3841292Y-10384180D01*
X3836314Y-10379202D01*
X3795268Y-10379659D01*
X3795268Y-10423702D01*
X3750310Y-10423702D01*
X3750310Y-10379202D01*
G37*
D10*
G01*
X2126995Y-10163022D03*
G01*
X1937004Y-10163022D03*
G01*
X1937004Y-9903002D03*
G01*
X2032000Y-9903002D03*
G01*
X2126995Y-9903002D03*
D11*
G01*
X3650995Y-11442090D03*
G01*
X3556000Y-11442090D03*
G01*
X3461004Y-11442090D03*
G01*
X3461004Y-11671909D03*
G01*
X3556000Y-11671909D03*
G01*
X3650995Y-11671909D03*
D12*
G01*
X2380800Y-13282376D03*
G01*
X2380800Y-13472368D03*
G01*
X2627790Y-13377372D03*
D13*
G01*
X2857200Y-13158604D03*
G01*
X2857200Y-12938589D03*
D14*
G01*
X3772281Y-11232514D03*
G01*
X3772281Y-10894034D03*
D15*
G01*
X2314193Y-10063911D03*
G01*
X2504186Y-10063911D03*
G01*
X2409190Y-9843643D03*
D16*
G01*
X3350399Y-12045975D03*
G01*
X3750383Y-12045975D03*
D17*
G01*
X2405989Y-12109272D03*
G01*
X2405989Y-11919280D03*
G01*
X2666009Y-11919280D03*
G01*
X2666009Y-12014276D03*
G01*
X2666009Y-12109272D03*
M02*
