G04 Layer: TopSilkscreenLayer*
G04 EasyEDA v6.5.42, 2024-03-01 12:08:59*
G04 82fce6b7a4c1403188722681d6bd6211,9a5be75d700b4a6385dc1106f27949ae,10*
G04 Gerber Generator version 0.2*
G04 Scale: 100 percent, Rotated: No, Reflected: No *
G04 Dimensions in millimeters *
G04 leading zeros omitted , absolute positions ,4 integer and 5 decimal *
%FSLAX45Y45*%
%MOMM*%

%ADD10C,0.4000*%
%ADD11C,0.3000*%
%ADD12C,0.1500*%
%ADD13C,0.1524*%
%ADD14C,0.2540*%
%ADD15C,0.1520*%
%ADD16C,0.0146*%

%LPD*%
G36*
X729183Y-9685477D02*
G01*
X729183Y-9710877D01*
X828243Y-9710877D01*
X866343Y-9781540D01*
X866851Y-9781540D01*
X866089Y-9763201D01*
X866089Y-9710877D01*
X958545Y-9710877D01*
X958545Y-9724593D01*
X934923Y-9724593D01*
X934923Y-9756140D01*
X998423Y-9756140D01*
X998728Y-9749231D01*
X999693Y-9742830D01*
X1001268Y-9736937D01*
X1003503Y-9731451D01*
X1006449Y-9726574D01*
X1009903Y-9722205D01*
X1013917Y-9718446D01*
X1018489Y-9715246D01*
X1023721Y-9712756D01*
X1029512Y-9711029D01*
X1035913Y-9709962D01*
X1042873Y-9709607D01*
X1049934Y-9710013D01*
X1055362Y-9710877D01*
X1110691Y-9710877D01*
X1148791Y-9781540D01*
X1149299Y-9781540D01*
X1148334Y-9760000D01*
X1148283Y-9710877D01*
X1212545Y-9710877D01*
X1218895Y-9711232D01*
X1224838Y-9712198D01*
X1230325Y-9713772D01*
X1235405Y-9715957D01*
X1239926Y-9718802D01*
X1243888Y-9722256D01*
X1247292Y-9726320D01*
X1250137Y-9730943D01*
X1252321Y-9736124D01*
X1253947Y-9741865D01*
X1254861Y-9748316D01*
X1255217Y-9755327D01*
X1254861Y-9762642D01*
X1253896Y-9769297D01*
X1252220Y-9775342D01*
X1249883Y-9780727D01*
X1246886Y-9785604D01*
X1243330Y-9789820D01*
X1239164Y-9793376D01*
X1234389Y-9796272D01*
X1230833Y-9797796D01*
X1298651Y-9797796D01*
X1298651Y-9782556D01*
X1304645Y-9784943D01*
X1314348Y-9788093D01*
X1320850Y-9789261D01*
X1326337Y-9789312D01*
X1330299Y-9788550D01*
X1331925Y-9787890D01*
X1334566Y-9786112D01*
X1336497Y-9783775D01*
X1337614Y-9780879D01*
X1338021Y-9777730D01*
X1337919Y-9775850D01*
X1337005Y-9772548D01*
X1336243Y-9771075D01*
X1333754Y-9768636D01*
X1330401Y-9766249D01*
X1325981Y-9763963D01*
X1320495Y-9761677D01*
X1315110Y-9758984D01*
X1310081Y-9755835D01*
X1307795Y-9754057D01*
X1305763Y-9752025D01*
X1303985Y-9749739D01*
X1302461Y-9747199D01*
X1301242Y-9744506D01*
X1300378Y-9741458D01*
X1299819Y-9738055D01*
X1299667Y-9734296D01*
X1299870Y-9730587D01*
X1300530Y-9727184D01*
X1301648Y-9723983D01*
X1303223Y-9721088D01*
X1305306Y-9718446D01*
X1307744Y-9716160D01*
X1310487Y-9714230D01*
X1317040Y-9711334D01*
X1320749Y-9710369D01*
X1324660Y-9709810D01*
X1328877Y-9709607D01*
X1335887Y-9710013D01*
X1340989Y-9710877D01*
X1401521Y-9710877D01*
X1401521Y-9720072D01*
X1391361Y-9724390D01*
X1391361Y-9756140D01*
X1412697Y-9756140D01*
X1413002Y-9749231D01*
X1413967Y-9742830D01*
X1415542Y-9736937D01*
X1417777Y-9731451D01*
X1420723Y-9726574D01*
X1424228Y-9722205D01*
X1428343Y-9718446D01*
X1433017Y-9715246D01*
X1438249Y-9712756D01*
X1443990Y-9711029D01*
X1450289Y-9709962D01*
X1457147Y-9709607D01*
X1464310Y-9710013D01*
X1469680Y-9710877D01*
X1542237Y-9710877D01*
X1559255Y-9770668D01*
X1561896Y-9781590D01*
X1562557Y-9786366D01*
X1563827Y-9779711D01*
X1567129Y-9766249D01*
X1582877Y-9710877D01*
X1601419Y-9710877D01*
X1586720Y-9756140D01*
X1606753Y-9756140D01*
X1606905Y-9751161D01*
X1607464Y-9746386D01*
X1608328Y-9741865D01*
X1609547Y-9737598D01*
X1611071Y-9733432D01*
X1612900Y-9729571D01*
X1615033Y-9726066D01*
X1617421Y-9722866D01*
X1620113Y-9719868D01*
X1623161Y-9717227D01*
X1626616Y-9715042D01*
X1634185Y-9711639D01*
X1638350Y-9710521D01*
X1642821Y-9709861D01*
X1647647Y-9709607D01*
X1654048Y-9710013D01*
X1660601Y-9711182D01*
X1667002Y-9713010D01*
X1672539Y-9715449D01*
X1666697Y-9728911D01*
X1659940Y-9726015D01*
X1655216Y-9724339D01*
X1652778Y-9723780D01*
X1647647Y-9723374D01*
X1645005Y-9723475D01*
X1642465Y-9723932D01*
X1640078Y-9724644D01*
X1637741Y-9725609D01*
X1635658Y-9726930D01*
X1633778Y-9728454D01*
X1632102Y-9730232D01*
X1629206Y-9734499D01*
X1627936Y-9736988D01*
X1626057Y-9742627D01*
X1624888Y-9749129D01*
X1624538Y-9756140D01*
X1680667Y-9756140D01*
X1680819Y-9751161D01*
X1681276Y-9746386D01*
X1682089Y-9741865D01*
X1683207Y-9737598D01*
X1684731Y-9733432D01*
X1686560Y-9729571D01*
X1688693Y-9726066D01*
X1691081Y-9722866D01*
X1693875Y-9719868D01*
X1696974Y-9717227D01*
X1700377Y-9715042D01*
X1704035Y-9713214D01*
X1707946Y-9711639D01*
X1712163Y-9710521D01*
X1716582Y-9709861D01*
X1721307Y-9709607D01*
X1727758Y-9710013D01*
X1734515Y-9711182D01*
X1740763Y-9713010D01*
X1746453Y-9715449D01*
X1740611Y-9728911D01*
X1733854Y-9726015D01*
X1729028Y-9724339D01*
X1723948Y-9723475D01*
X1718665Y-9723475D01*
X1716227Y-9723932D01*
X1713839Y-9724644D01*
X1711655Y-9725609D01*
X1707642Y-9728454D01*
X1705864Y-9730232D01*
X1702866Y-9734499D01*
X1701647Y-9736988D01*
X1700682Y-9739731D01*
X1699310Y-9745776D01*
X1698802Y-9749129D01*
X1698447Y-9756343D01*
X1698599Y-9761270D01*
X1699056Y-9765842D01*
X1699869Y-9770059D01*
X1700987Y-9773869D01*
X1702307Y-9777374D01*
X1704035Y-9780371D01*
X1706118Y-9782962D01*
X1708607Y-9785096D01*
X1711401Y-9786874D01*
X1714550Y-9788144D01*
X1718005Y-9788906D01*
X1724456Y-9789058D01*
X1729638Y-9788398D01*
X1734870Y-9787280D01*
X1742897Y-9784588D01*
X1742897Y-9798507D01*
X1737563Y-9800488D01*
X1732229Y-9801809D01*
X1726285Y-9802622D01*
X1719783Y-9802825D01*
X1713433Y-9802469D01*
X1707642Y-9801402D01*
X1702409Y-9799574D01*
X1697685Y-9796983D01*
X1693621Y-9793782D01*
X1690116Y-9790023D01*
X1687169Y-9785654D01*
X1684731Y-9780727D01*
X1682953Y-9775291D01*
X1681683Y-9769398D01*
X1680921Y-9762998D01*
X1680667Y-9756140D01*
X1624538Y-9756140D01*
X1624685Y-9761270D01*
X1625142Y-9765842D01*
X1625955Y-9770059D01*
X1627073Y-9773869D01*
X1628495Y-9777374D01*
X1630324Y-9780371D01*
X1632457Y-9782962D01*
X1634947Y-9785096D01*
X1637639Y-9786874D01*
X1640687Y-9788144D01*
X1644142Y-9788906D01*
X1650542Y-9789058D01*
X1655876Y-9788398D01*
X1661210Y-9787280D01*
X1669237Y-9784588D01*
X1669237Y-9798507D01*
X1663852Y-9800488D01*
X1658315Y-9801809D01*
X1652524Y-9802622D01*
X1645869Y-9802825D01*
X1639519Y-9802469D01*
X1633778Y-9801402D01*
X1628597Y-9799574D01*
X1624025Y-9796983D01*
X1619859Y-9793782D01*
X1616354Y-9790023D01*
X1613408Y-9785654D01*
X1611071Y-9780727D01*
X1609191Y-9775291D01*
X1607820Y-9769398D01*
X1607007Y-9762998D01*
X1606753Y-9756140D01*
X1586720Y-9756140D01*
X1571955Y-9801606D01*
X1553159Y-9801606D01*
X1523949Y-9710877D01*
X1469680Y-9710877D01*
X1474419Y-9711944D01*
X1483309Y-9714941D01*
X1477467Y-9728403D01*
X1472946Y-9726523D01*
X1468069Y-9724898D01*
X1462684Y-9723729D01*
X1457147Y-9723374D01*
X1452880Y-9723577D01*
X1449019Y-9724339D01*
X1445514Y-9725609D01*
X1442415Y-9727438D01*
X1439672Y-9729673D01*
X1437284Y-9732314D01*
X1435201Y-9735362D01*
X1433525Y-9738817D01*
X1432153Y-9742678D01*
X1431239Y-9746894D01*
X1430680Y-9751466D01*
X1430477Y-9756343D01*
X1430629Y-9761067D01*
X1431086Y-9765436D01*
X1431899Y-9769551D01*
X1433017Y-9773361D01*
X1434490Y-9776866D01*
X1436319Y-9779965D01*
X1438503Y-9782708D01*
X1441145Y-9785096D01*
X1444091Y-9786874D01*
X1447444Y-9788144D01*
X1451102Y-9788906D01*
X1456334Y-9789109D01*
X1461058Y-9788753D01*
X1467815Y-9787382D01*
X1467815Y-9765538D01*
X1451051Y-9765538D01*
X1451051Y-9751822D01*
X1484325Y-9751822D01*
X1484325Y-9797999D01*
X1477314Y-9800082D01*
X1470101Y-9801606D01*
X1462024Y-9802520D01*
X1453083Y-9802825D01*
X1446936Y-9802520D01*
X1441348Y-9801453D01*
X1436166Y-9799726D01*
X1431493Y-9797288D01*
X1427175Y-9794290D01*
X1423416Y-9790633D01*
X1420215Y-9786416D01*
X1417523Y-9781540D01*
X1415389Y-9776002D01*
X1413865Y-9769957D01*
X1413002Y-9763302D01*
X1412697Y-9756140D01*
X1391361Y-9756140D01*
X1391361Y-9788093D01*
X1401521Y-9792411D01*
X1401521Y-9801606D01*
X1363929Y-9801606D01*
X1363929Y-9792411D01*
X1374343Y-9788093D01*
X1374343Y-9724390D01*
X1363929Y-9720072D01*
X1363929Y-9710877D01*
X1340989Y-9710877D01*
X1345438Y-9711994D01*
X1351280Y-9714179D01*
X1354023Y-9715449D01*
X1348689Y-9728403D01*
X1343609Y-9726371D01*
X1338529Y-9724898D01*
X1333449Y-9723729D01*
X1328369Y-9723374D01*
X1324813Y-9723678D01*
X1321765Y-9724593D01*
X1319530Y-9726218D01*
X1317955Y-9728403D01*
X1316786Y-9730943D01*
X1316431Y-9733991D01*
X1316837Y-9737293D01*
X1317396Y-9738766D01*
X1319225Y-9741458D01*
X1322019Y-9743897D01*
X1330807Y-9748774D01*
X1340053Y-9753244D01*
X1342847Y-9754870D01*
X1347622Y-9758375D01*
X1349552Y-9760305D01*
X1351178Y-9762439D01*
X1352499Y-9764725D01*
X1353616Y-9767316D01*
X1354378Y-9770211D01*
X1354886Y-9773412D01*
X1355039Y-9776917D01*
X1354785Y-9780778D01*
X1354124Y-9784334D01*
X1353007Y-9787636D01*
X1351483Y-9790633D01*
X1349400Y-9793427D01*
X1346911Y-9795865D01*
X1344015Y-9797999D01*
X1340815Y-9799777D01*
X1337056Y-9801148D01*
X1332839Y-9802114D01*
X1328267Y-9802672D01*
X1320800Y-9802825D01*
X1316075Y-9802571D01*
X1311757Y-9802063D01*
X1307846Y-9801148D01*
X1298651Y-9797796D01*
X1230833Y-9797796D01*
X1229055Y-9798558D01*
X1223213Y-9800234D01*
X1216863Y-9801250D01*
X1210005Y-9801606D01*
X1185113Y-9801606D01*
X1185113Y-9710877D01*
X1163777Y-9710877D01*
X1163777Y-9801606D01*
X1142441Y-9801606D01*
X1104087Y-9730435D01*
X1103579Y-9730435D01*
X1104188Y-9744303D01*
X1104595Y-9749282D01*
X1104595Y-9801606D01*
X1089355Y-9801606D01*
X1089355Y-9710877D01*
X1055362Y-9710877D01*
X1060043Y-9711944D01*
X1068781Y-9714941D01*
X1063193Y-9728403D01*
X1058621Y-9726523D01*
X1053541Y-9724898D01*
X1048156Y-9723729D01*
X1042619Y-9723374D01*
X1038453Y-9723577D01*
X1034643Y-9724339D01*
X1031240Y-9725609D01*
X1028141Y-9727438D01*
X1025296Y-9729673D01*
X1022807Y-9732314D01*
X1020673Y-9735362D01*
X1018997Y-9738817D01*
X1017625Y-9742678D01*
X1016711Y-9746894D01*
X1016101Y-9751466D01*
X1015949Y-9756343D01*
X1016101Y-9761067D01*
X1016558Y-9765436D01*
X1017371Y-9769551D01*
X1018489Y-9773361D01*
X1020013Y-9776866D01*
X1021892Y-9779965D01*
X1024077Y-9782708D01*
X1026617Y-9785096D01*
X1029614Y-9786874D01*
X1032967Y-9788144D01*
X1036675Y-9788906D01*
X1042060Y-9789109D01*
X1046784Y-9788753D01*
X1053541Y-9787382D01*
X1053541Y-9765538D01*
X1036777Y-9765538D01*
X1036777Y-9751822D01*
X1069797Y-9751822D01*
X1069797Y-9797999D01*
X1062939Y-9800082D01*
X1055573Y-9801606D01*
X1047546Y-9802520D01*
X1038809Y-9802825D01*
X1032662Y-9802520D01*
X1026972Y-9801453D01*
X1021740Y-9799726D01*
X1016965Y-9797288D01*
X1012647Y-9794290D01*
X1008887Y-9790633D01*
X1005687Y-9786416D01*
X1002995Y-9781540D01*
X1000963Y-9776002D01*
X999540Y-9769957D01*
X998677Y-9763302D01*
X998423Y-9756140D01*
X934923Y-9756140D01*
X934923Y-9801606D01*
X917905Y-9801606D01*
X917905Y-9724593D01*
X894029Y-9724593D01*
X894029Y-9710877D01*
X881329Y-9710877D01*
X881329Y-9801606D01*
X859993Y-9801606D01*
X821639Y-9730435D01*
X821131Y-9730435D01*
X821994Y-9750907D01*
X822147Y-9801606D01*
X806907Y-9801606D01*
X806907Y-9710877D01*
X791921Y-9710877D01*
X791921Y-9720072D01*
X781761Y-9724390D01*
X781761Y-9788093D01*
X791921Y-9792411D01*
X791921Y-9801606D01*
X754329Y-9801606D01*
X754329Y-9792411D01*
X764743Y-9788093D01*
X764743Y-9724390D01*
X754329Y-9720072D01*
X754329Y-9710877D01*
X729183Y-9710877D01*
X729183Y-9827006D01*
X1771345Y-9827006D01*
X1771345Y-9685477D01*
G37*
G36*
X1202131Y-9724390D02*
G01*
X1202131Y-9787890D01*
X1210513Y-9787890D01*
X1216914Y-9787382D01*
X1222451Y-9785908D01*
X1227074Y-9783419D01*
X1230833Y-9780016D01*
X1233830Y-9775444D01*
X1235964Y-9769906D01*
X1237234Y-9763353D01*
X1237691Y-9755835D01*
X1237488Y-9750653D01*
X1236929Y-9745929D01*
X1235964Y-9741763D01*
X1234643Y-9738106D01*
X1233068Y-9734854D01*
X1231138Y-9732060D01*
X1228852Y-9729673D01*
X1226261Y-9727641D01*
X1223264Y-9726218D01*
X1219962Y-9725202D01*
X1216304Y-9724593D01*
X1212291Y-9724390D01*
G37*
G36*
X731723Y-5165648D02*
G01*
X731723Y-5255818D01*
X762711Y-5255818D01*
X762711Y-5195874D01*
X771652Y-5193131D01*
X781253Y-5191048D01*
X791514Y-5189728D01*
X797153Y-5189372D01*
X803097Y-5189270D01*
X811022Y-5189728D01*
X818388Y-5191048D01*
X919175Y-5191048D01*
X919175Y-5202986D01*
X905459Y-5208320D01*
X905459Y-5223306D01*
X930605Y-5223306D01*
X930910Y-5218277D01*
X931773Y-5213604D01*
X933297Y-5209235D01*
X935431Y-5205272D01*
X937971Y-5201666D01*
X941120Y-5198567D01*
X944829Y-5195824D01*
X949147Y-5193588D01*
X953973Y-5191709D01*
X959408Y-5190337D01*
X965403Y-5189524D01*
X975106Y-5189321D01*
X981100Y-5189677D01*
X986688Y-5190439D01*
X991869Y-5191607D01*
X996848Y-5193131D01*
X1001521Y-5195011D01*
X1003757Y-5196128D01*
X1003757Y-5215940D01*
X996035Y-5212791D01*
X987755Y-5209844D01*
X983437Y-5208625D01*
X979169Y-5207762D01*
X974902Y-5207203D01*
X970737Y-5207050D01*
X964996Y-5207558D01*
X962609Y-5208219D01*
X958646Y-5210048D01*
X955751Y-5212588D01*
X953820Y-5215991D01*
X952804Y-5219903D01*
X952855Y-5224475D01*
X953312Y-5226659D01*
X954125Y-5228640D01*
X956564Y-5232146D01*
X958189Y-5233873D01*
X962609Y-5237022D01*
X968197Y-5239969D01*
X982522Y-5246471D01*
X990002Y-5251246D01*
X1060145Y-5251246D01*
X1060551Y-5241747D01*
X1061923Y-5233009D01*
X1064107Y-5225084D01*
X1067257Y-5217972D01*
X1071168Y-5211673D01*
X1075893Y-5206238D01*
X1081328Y-5201615D01*
X1087577Y-5197906D01*
X1094486Y-5194909D01*
X1102055Y-5192776D01*
X1110234Y-5191455D01*
X1119073Y-5191048D01*
X1207211Y-5191048D01*
X1256741Y-5283504D01*
X1257503Y-5283504D01*
X1256284Y-5254802D01*
X1256233Y-5191048D01*
X1276045Y-5191048D01*
X1276045Y-5255818D01*
X1301445Y-5255818D01*
X1301445Y-5195874D01*
X1310335Y-5193131D01*
X1319733Y-5191048D01*
X1330198Y-5189728D01*
X1335836Y-5189372D01*
X1341831Y-5189270D01*
X1349756Y-5189728D01*
X1357122Y-5191048D01*
X1363878Y-5193284D01*
X1370025Y-5196382D01*
X1375613Y-5200345D01*
X1380490Y-5205171D01*
X1384604Y-5210759D01*
X1388059Y-5217210D01*
X1390802Y-5224322D01*
X1392783Y-5232196D01*
X1394002Y-5240832D01*
X1394409Y-5250230D01*
X1393952Y-5259171D01*
X1392682Y-5267502D01*
X1390548Y-5275173D01*
X1387551Y-5282234D01*
X1383842Y-5288584D01*
X1379321Y-5294172D01*
X1374038Y-5298998D01*
X1368371Y-5302808D01*
X1448257Y-5302808D01*
X1455877Y-5285536D01*
X1461617Y-5288229D01*
X1467815Y-5290616D01*
X1470914Y-5291531D01*
X1477518Y-5292547D01*
X1481023Y-5292648D01*
X1484376Y-5292496D01*
X1487525Y-5291937D01*
X1490573Y-5291074D01*
X1493469Y-5289854D01*
X1496110Y-5288178D01*
X1498600Y-5286197D01*
X1500835Y-5283860D01*
X1502867Y-5281218D01*
X1504746Y-5278272D01*
X1506321Y-5275072D01*
X1507642Y-5271566D01*
X1508709Y-5267756D01*
X1510233Y-5259171D01*
X1510741Y-5249722D01*
X1510538Y-5243322D01*
X1509877Y-5237429D01*
X1508861Y-5231892D01*
X1507439Y-5226862D01*
X1505559Y-5222443D01*
X1503273Y-5218531D01*
X1500632Y-5215178D01*
X1497533Y-5212384D01*
X1493875Y-5210149D01*
X1489811Y-5208574D01*
X1485392Y-5207609D01*
X1480515Y-5207304D01*
X1473454Y-5207711D01*
X1466545Y-5208828D01*
X1459687Y-5210606D01*
X1452829Y-5212892D01*
X1452829Y-5195112D01*
X1456232Y-5193690D01*
X1463243Y-5191556D01*
X1470456Y-5190134D01*
X1478432Y-5189372D01*
X1482801Y-5189270D01*
X1491132Y-5189728D01*
X1498701Y-5191201D01*
X1505508Y-5193538D01*
X1511503Y-5196890D01*
X1516837Y-5201056D01*
X1521409Y-5205984D01*
X1525219Y-5211622D01*
X1528267Y-5217972D01*
X1530705Y-5225135D01*
X1532432Y-5232857D01*
X1533499Y-5241137D01*
X1533855Y-5249976D01*
X1533601Y-5256530D01*
X1532940Y-5262829D01*
X1531823Y-5268722D01*
X1530299Y-5274360D01*
X1528318Y-5279745D01*
X1525981Y-5284774D01*
X1523238Y-5289397D01*
X1520139Y-5293664D01*
X1516481Y-5297474D01*
X1512519Y-5300827D01*
X1509495Y-5302808D01*
X1544269Y-5302808D01*
X1551635Y-5285536D01*
X1557578Y-5288229D01*
X1563827Y-5290616D01*
X1566926Y-5291531D01*
X1573377Y-5292547D01*
X1580235Y-5292496D01*
X1583486Y-5291937D01*
X1586585Y-5291074D01*
X1589481Y-5289854D01*
X1592122Y-5288178D01*
X1594612Y-5286197D01*
X1596847Y-5283860D01*
X1598879Y-5281218D01*
X1600657Y-5278272D01*
X1602232Y-5275072D01*
X1604721Y-5267756D01*
X1606245Y-5259171D01*
X1606753Y-5249722D01*
X1606550Y-5243322D01*
X1605889Y-5237429D01*
X1604873Y-5231892D01*
X1603451Y-5226862D01*
X1601571Y-5222443D01*
X1599234Y-5218531D01*
X1596491Y-5215178D01*
X1593291Y-5212384D01*
X1589735Y-5210149D01*
X1585722Y-5208574D01*
X1581200Y-5207609D01*
X1576273Y-5207304D01*
X1569262Y-5207711D01*
X1562557Y-5208828D01*
X1555699Y-5210606D01*
X1548841Y-5212892D01*
X1548841Y-5195112D01*
X1552194Y-5193690D01*
X1559153Y-5191556D01*
X1566468Y-5190134D01*
X1574444Y-5189372D01*
X1578813Y-5189270D01*
X1587042Y-5189728D01*
X1594612Y-5191201D01*
X1601419Y-5193538D01*
X1607515Y-5196890D01*
X1612747Y-5201056D01*
X1617268Y-5205984D01*
X1621129Y-5211622D01*
X1624279Y-5217972D01*
X1626616Y-5225135D01*
X1628241Y-5232857D01*
X1629257Y-5241137D01*
X1629613Y-5249976D01*
X1629410Y-5256530D01*
X1628749Y-5262829D01*
X1627733Y-5268722D01*
X1626311Y-5274360D01*
X1624330Y-5279745D01*
X1621891Y-5284774D01*
X1619097Y-5289397D01*
X1615897Y-5293664D01*
X1612392Y-5297474D01*
X1608429Y-5300827D01*
X1604111Y-5303723D01*
X1599387Y-5306110D01*
X1594256Y-5308092D01*
X1591229Y-5308904D01*
X1636979Y-5308904D01*
X1674825Y-5191048D01*
X1699463Y-5191048D01*
X1737309Y-5308904D01*
X1713687Y-5308904D01*
X1691690Y-5231333D01*
X1689303Y-5221935D01*
X1687017Y-5210860D01*
X1685493Y-5219496D01*
X1681175Y-5236768D01*
X1660601Y-5308904D01*
X1591229Y-5308904D01*
X1588770Y-5309565D01*
X1582928Y-5310378D01*
X1576781Y-5310682D01*
X1568297Y-5310124D01*
X1564030Y-5309412D01*
X1555445Y-5307279D01*
X1551432Y-5306009D01*
X1547672Y-5304485D01*
X1544269Y-5302808D01*
X1509495Y-5302808D01*
X1508099Y-5303723D01*
X1503375Y-5306110D01*
X1498244Y-5308092D01*
X1492758Y-5309565D01*
X1486916Y-5310378D01*
X1480769Y-5310682D01*
X1472285Y-5310124D01*
X1468018Y-5309412D01*
X1459433Y-5307279D01*
X1455420Y-5306009D01*
X1451660Y-5304485D01*
X1448257Y-5302808D01*
X1368371Y-5302808D01*
X1361135Y-5306415D01*
X1353616Y-5308803D01*
X1345387Y-5310225D01*
X1336497Y-5310682D01*
X1331823Y-5310581D01*
X1322832Y-5309565D01*
X1314145Y-5307685D01*
X1310081Y-5306517D01*
X1306271Y-5305145D01*
X1302715Y-5303570D01*
X1310081Y-5286044D01*
X1315974Y-5288635D01*
X1322527Y-5290870D01*
X1329486Y-5292191D01*
X1333093Y-5292547D01*
X1336751Y-5292648D01*
X1342136Y-5292344D01*
X1347063Y-5291378D01*
X1351635Y-5289804D01*
X1355801Y-5287568D01*
X1359357Y-5284622D01*
X1362506Y-5281168D01*
X1365199Y-5277154D01*
X1367485Y-5272582D01*
X1369263Y-5267553D01*
X1370533Y-5262067D01*
X1371295Y-5256123D01*
X1371549Y-5249722D01*
X1371295Y-5243677D01*
X1370634Y-5237988D01*
X1369517Y-5232603D01*
X1367993Y-5227624D01*
X1366062Y-5223052D01*
X1363726Y-5219039D01*
X1360881Y-5215585D01*
X1357579Y-5212638D01*
X1353667Y-5210302D01*
X1349298Y-5208625D01*
X1344523Y-5207660D01*
X1337513Y-5207304D01*
X1331264Y-5207711D01*
X1322781Y-5209336D01*
X1322781Y-5237784D01*
X1344625Y-5237784D01*
X1344625Y-5255818D01*
X1276045Y-5255818D01*
X1276045Y-5308904D01*
X1248359Y-5308904D01*
X1198829Y-5217210D01*
X1198067Y-5217210D01*
X1199184Y-5242966D01*
X1199337Y-5308904D01*
X1179271Y-5308904D01*
X1179271Y-5191048D01*
X1151585Y-5191048D01*
X1151585Y-5308904D01*
X1116025Y-5308904D01*
X1107643Y-5308498D01*
X1099870Y-5307279D01*
X1092657Y-5305196D01*
X1086053Y-5302300D01*
X1080160Y-5298643D01*
X1075029Y-5294172D01*
X1070660Y-5288991D01*
X1067003Y-5282996D01*
X1064006Y-5276138D01*
X1061821Y-5268569D01*
X1060551Y-5260289D01*
X1060145Y-5251246D01*
X990002Y-5251246D01*
X992022Y-5252821D01*
X994664Y-5255463D01*
X996950Y-5258409D01*
X998931Y-5261660D01*
X1000556Y-5265166D01*
X1001776Y-5269179D01*
X1002487Y-5273548D01*
X1002741Y-5278424D01*
X1002436Y-5283301D01*
X1001521Y-5287822D01*
X999998Y-5291937D01*
X997915Y-5295696D01*
X995222Y-5299151D01*
X992124Y-5302199D01*
X988517Y-5304739D01*
X984453Y-5306872D01*
X979932Y-5308549D01*
X975106Y-5309717D01*
X969924Y-5310428D01*
X964387Y-5310682D01*
X959764Y-5310581D01*
X950976Y-5309565D01*
X942949Y-5307533D01*
X939139Y-5306263D01*
X931875Y-5303062D01*
X938733Y-5286044D01*
X945489Y-5288788D01*
X952195Y-5290870D01*
X958697Y-5292191D01*
X965149Y-5292648D01*
X969822Y-5292293D01*
X973785Y-5291124D01*
X976680Y-5288991D01*
X978865Y-5286044D01*
X980186Y-5282742D01*
X980643Y-5278932D01*
X980490Y-5276596D01*
X980033Y-5274513D01*
X979322Y-5272532D01*
X978357Y-5270804D01*
X977137Y-5269179D01*
X975563Y-5267655D01*
X973582Y-5266131D01*
X968502Y-5263134D01*
X962050Y-5259730D01*
X954024Y-5255920D01*
X946505Y-5251704D01*
X940308Y-5247182D01*
X937768Y-5244642D01*
X935634Y-5241848D01*
X933907Y-5238800D01*
X932434Y-5235448D01*
X931418Y-5231739D01*
X930808Y-5227726D01*
X930605Y-5223306D01*
X905459Y-5223306D01*
X905459Y-5291378D01*
X919175Y-5296966D01*
X919175Y-5308904D01*
X870153Y-5308904D01*
X870153Y-5296966D01*
X883361Y-5291378D01*
X883361Y-5208320D01*
X870153Y-5202986D01*
X870153Y-5191048D01*
X818388Y-5191048D01*
X825144Y-5193284D01*
X831291Y-5196382D01*
X836879Y-5200345D01*
X841756Y-5205171D01*
X845870Y-5210759D01*
X849325Y-5217210D01*
X852068Y-5224322D01*
X854049Y-5232196D01*
X855268Y-5240832D01*
X855675Y-5250230D01*
X855218Y-5259171D01*
X853948Y-5267502D01*
X851814Y-5275173D01*
X848817Y-5282234D01*
X845108Y-5288584D01*
X840587Y-5294172D01*
X835304Y-5298998D01*
X829259Y-5303062D01*
X822401Y-5306415D01*
X814882Y-5308803D01*
X806653Y-5310225D01*
X797763Y-5310682D01*
X793089Y-5310581D01*
X784098Y-5309565D01*
X775512Y-5307685D01*
X771448Y-5306517D01*
X763981Y-5303570D01*
X771347Y-5286044D01*
X777240Y-5288635D01*
X783793Y-5290870D01*
X790752Y-5292191D01*
X794359Y-5292547D01*
X798017Y-5292648D01*
X803402Y-5292344D01*
X808329Y-5291378D01*
X812901Y-5289804D01*
X817067Y-5287568D01*
X820623Y-5284622D01*
X823772Y-5281168D01*
X826465Y-5277154D01*
X828751Y-5272582D01*
X830529Y-5267553D01*
X831799Y-5262067D01*
X832561Y-5256123D01*
X832815Y-5249722D01*
X832561Y-5243677D01*
X831900Y-5237988D01*
X830783Y-5232603D01*
X829259Y-5227624D01*
X827328Y-5223052D01*
X824992Y-5219039D01*
X822147Y-5215585D01*
X818845Y-5212638D01*
X814933Y-5210302D01*
X810564Y-5208625D01*
X805789Y-5207660D01*
X798830Y-5207304D01*
X792683Y-5207711D01*
X784047Y-5209336D01*
X784047Y-5237784D01*
X805891Y-5237784D01*
X805891Y-5255818D01*
X731723Y-5255818D01*
X731723Y-5334355D01*
X1768297Y-5334355D01*
X1768297Y-5165648D01*
G37*
G36*
X1118565Y-5208828D02*
G01*
X1110234Y-5209489D01*
X1102969Y-5211419D01*
X1096873Y-5214670D01*
X1091895Y-5219242D01*
X1088085Y-5225084D01*
X1085392Y-5232247D01*
X1083767Y-5240731D01*
X1083259Y-5250484D01*
X1083462Y-5257190D01*
X1084173Y-5263235D01*
X1085392Y-5268722D01*
X1087069Y-5273598D01*
X1089202Y-5277866D01*
X1091742Y-5281523D01*
X1094790Y-5284622D01*
X1098245Y-5287060D01*
X1102004Y-5288940D01*
X1106271Y-5290312D01*
X1111046Y-5291124D01*
X1116279Y-5291378D01*
X1129487Y-5291378D01*
X1129487Y-5208828D01*
G37*
G36*
X232613Y-7379258D02*
G01*
X232613Y-7404658D01*
X344119Y-7404658D01*
X344119Y-7441234D01*
X379171Y-7441234D01*
X379171Y-7404658D01*
X544474Y-7404658D01*
X544474Y-7418120D01*
X512521Y-7418120D01*
X512521Y-7441234D01*
X542442Y-7441234D01*
X542442Y-7454950D01*
X512521Y-7454950D01*
X512521Y-7481620D01*
X544474Y-7481620D01*
X544474Y-7491526D01*
X556666Y-7491526D01*
X556666Y-7476286D01*
X562610Y-7478674D01*
X569163Y-7480858D01*
X575665Y-7482535D01*
X578916Y-7482992D01*
X584403Y-7483043D01*
X588314Y-7482281D01*
X591413Y-7480808D01*
X593699Y-7478775D01*
X594563Y-7477556D01*
X595680Y-7474610D01*
X596087Y-7471460D01*
X595934Y-7469581D01*
X594918Y-7466279D01*
X592988Y-7463586D01*
X590194Y-7461199D01*
X586384Y-7458862D01*
X575716Y-7454138D01*
X570484Y-7451191D01*
X565708Y-7447838D01*
X563626Y-7445806D01*
X561797Y-7443520D01*
X560222Y-7440980D01*
X559155Y-7438237D01*
X558342Y-7435189D01*
X557885Y-7431786D01*
X557682Y-7428026D01*
X557936Y-7424318D01*
X558596Y-7420914D01*
X559714Y-7417714D01*
X561289Y-7414818D01*
X563219Y-7412177D01*
X565556Y-7409891D01*
X568299Y-7408011D01*
X571398Y-7406436D01*
X574852Y-7405116D01*
X578612Y-7404150D01*
X582625Y-7403592D01*
X586892Y-7403388D01*
X593852Y-7403744D01*
X599154Y-7404658D01*
X645363Y-7404658D01*
X645363Y-7441234D01*
X680364Y-7441234D01*
X680364Y-7404658D01*
X697382Y-7404658D01*
X697382Y-7449870D01*
X714908Y-7449870D01*
X715213Y-7442962D01*
X716026Y-7436561D01*
X717346Y-7430668D01*
X719277Y-7425232D01*
X721715Y-7420305D01*
X724763Y-7415936D01*
X728421Y-7412177D01*
X732739Y-7408976D01*
X737565Y-7406386D01*
X743000Y-7404608D01*
X748995Y-7403490D01*
X755548Y-7403134D01*
X762152Y-7403490D01*
X768248Y-7404658D01*
X907237Y-7404658D01*
X913587Y-7404963D01*
X919530Y-7405928D01*
X925017Y-7407503D01*
X930097Y-7409738D01*
X934618Y-7412583D01*
X938580Y-7415987D01*
X941984Y-7420051D01*
X944829Y-7424724D01*
X947013Y-7429855D01*
X948588Y-7435646D01*
X949553Y-7442047D01*
X949858Y-7449108D01*
X949553Y-7456373D01*
X948537Y-7463078D01*
X946861Y-7469073D01*
X944524Y-7474508D01*
X941578Y-7479385D01*
X938021Y-7483551D01*
X933856Y-7487107D01*
X929081Y-7490002D01*
X923696Y-7492339D01*
X917854Y-7494016D01*
X911504Y-7494981D01*
X904697Y-7495336D01*
X879805Y-7495336D01*
X879805Y-7404658D01*
X830224Y-7404658D01*
X830224Y-7481620D01*
X865327Y-7481620D01*
X865327Y-7495336D01*
X813511Y-7495336D01*
X813511Y-7404658D01*
X768248Y-7404658D01*
X773430Y-7406386D01*
X778205Y-7408976D01*
X782320Y-7412177D01*
X785926Y-7415936D01*
X788924Y-7420305D01*
X791413Y-7425232D01*
X793292Y-7430668D01*
X794613Y-7436561D01*
X795426Y-7442962D01*
X795731Y-7449870D01*
X795578Y-7454950D01*
X795121Y-7459827D01*
X794410Y-7464501D01*
X793445Y-7468920D01*
X791972Y-7473086D01*
X790244Y-7476896D01*
X788162Y-7480452D01*
X783234Y-7486650D01*
X780288Y-7489240D01*
X776986Y-7491425D01*
X773379Y-7493304D01*
X769366Y-7494727D01*
X765048Y-7495794D01*
X760374Y-7496403D01*
X755345Y-7496606D01*
X750265Y-7496403D01*
X745591Y-7495794D01*
X741273Y-7494727D01*
X737311Y-7493304D01*
X733755Y-7491425D01*
X730504Y-7489240D01*
X727506Y-7486650D01*
X724814Y-7483652D01*
X722579Y-7480452D01*
X720598Y-7476896D01*
X718870Y-7473086D01*
X717448Y-7468920D01*
X716381Y-7464501D01*
X715568Y-7459827D01*
X715111Y-7454950D01*
X714908Y-7449870D01*
X697382Y-7449870D01*
X697382Y-7495336D01*
X680364Y-7495336D01*
X680364Y-7455204D01*
X645363Y-7455204D01*
X645363Y-7495336D01*
X628345Y-7495336D01*
X628345Y-7404658D01*
X599154Y-7404658D01*
X603504Y-7405725D01*
X609346Y-7407909D01*
X612089Y-7409230D01*
X606755Y-7422184D01*
X601472Y-7420152D01*
X596290Y-7418628D01*
X591312Y-7417460D01*
X586384Y-7417104D01*
X582726Y-7417409D01*
X579831Y-7418374D01*
X577392Y-7419949D01*
X575716Y-7422184D01*
X574802Y-7424724D01*
X574497Y-7427772D01*
X574903Y-7431074D01*
X576224Y-7433868D01*
X578408Y-7436459D01*
X581863Y-7438694D01*
X591769Y-7444028D01*
X597916Y-7447025D01*
X603148Y-7450378D01*
X605434Y-7452106D01*
X607415Y-7454036D01*
X609142Y-7456170D01*
X610514Y-7458506D01*
X611632Y-7461046D01*
X612444Y-7463942D01*
X612902Y-7467142D01*
X613105Y-7470698D01*
X612851Y-7474508D01*
X612140Y-7478064D01*
X610920Y-7481366D01*
X609295Y-7484414D01*
X607263Y-7487158D01*
X604824Y-7489596D01*
X601929Y-7491730D01*
X598627Y-7493558D01*
X594969Y-7494879D01*
X590854Y-7495844D01*
X586333Y-7496403D01*
X578815Y-7496556D01*
X574141Y-7496302D01*
X569823Y-7495794D01*
X565759Y-7494879D01*
X561949Y-7493660D01*
X556666Y-7491526D01*
X544474Y-7491526D01*
X544474Y-7495336D01*
X495503Y-7495336D01*
X495503Y-7404658D01*
X442874Y-7404658D01*
X448360Y-7404811D01*
X453237Y-7405370D01*
X457606Y-7406233D01*
X461416Y-7407452D01*
X464870Y-7409129D01*
X467868Y-7411212D01*
X470357Y-7413599D01*
X472389Y-7416342D01*
X474014Y-7419441D01*
X475234Y-7422997D01*
X475945Y-7426959D01*
X476148Y-7431328D01*
X476046Y-7434478D01*
X475589Y-7437424D01*
X474878Y-7440066D01*
X472795Y-7444790D01*
X470001Y-7448753D01*
X466496Y-7451852D01*
X462534Y-7454392D01*
X460400Y-7455458D01*
X484784Y-7495336D01*
X465531Y-7495336D01*
X445719Y-7459522D01*
X434797Y-7459522D01*
X434797Y-7495336D01*
X417779Y-7495336D01*
X417779Y-7404658D01*
X396392Y-7404658D01*
X396392Y-7495336D01*
X379171Y-7495336D01*
X379171Y-7455204D01*
X344119Y-7455204D01*
X344119Y-7495336D01*
X327050Y-7495336D01*
X327050Y-7404658D01*
X314350Y-7404658D01*
X314350Y-7418374D01*
X290779Y-7418374D01*
X290779Y-7495336D01*
X273761Y-7495336D01*
X273761Y-7418374D01*
X250139Y-7418374D01*
X250139Y-7404658D01*
X232613Y-7404658D01*
X232613Y-7520736D01*
X967384Y-7520736D01*
X967384Y-7379258D01*
G37*
G36*
X755548Y-7417104D02*
G01*
X751789Y-7417308D01*
X748385Y-7418019D01*
X745337Y-7419238D01*
X742645Y-7420914D01*
X740257Y-7423150D01*
X738225Y-7425791D01*
X736549Y-7428839D01*
X735279Y-7432344D01*
X734263Y-7436205D01*
X733552Y-7440371D01*
X733094Y-7444943D01*
X732942Y-7449870D01*
X733094Y-7454798D01*
X733552Y-7459370D01*
X734263Y-7463688D01*
X735279Y-7467650D01*
X736549Y-7471003D01*
X738225Y-7474000D01*
X740257Y-7476591D01*
X742645Y-7478826D01*
X745337Y-7480604D01*
X748334Y-7481874D01*
X751687Y-7482636D01*
X755345Y-7482890D01*
X759155Y-7482636D01*
X762609Y-7481874D01*
X765657Y-7480604D01*
X768248Y-7478826D01*
X770534Y-7476591D01*
X772464Y-7474000D01*
X774090Y-7471003D01*
X775411Y-7467650D01*
X776478Y-7463688D01*
X777290Y-7459370D01*
X777748Y-7454798D01*
X777900Y-7449870D01*
X777595Y-7442555D01*
X776579Y-7436053D01*
X774903Y-7430465D01*
X772566Y-7425740D01*
X769518Y-7421930D01*
X765657Y-7419238D01*
X761034Y-7417612D01*
G37*
G36*
X434797Y-7418120D02*
G01*
X434797Y-7446060D01*
X445058Y-7445959D01*
X449630Y-7445197D01*
X451561Y-7444536D01*
X453288Y-7443673D01*
X454812Y-7442555D01*
X456082Y-7441234D01*
X457098Y-7439710D01*
X457809Y-7438085D01*
X458571Y-7434122D01*
X458571Y-7429500D01*
X457809Y-7425588D01*
X457098Y-7423962D01*
X456082Y-7422540D01*
X454812Y-7421321D01*
X453288Y-7420356D01*
X449630Y-7418984D01*
X447395Y-7418476D01*
X442163Y-7418120D01*
G37*
G36*
X896772Y-7418120D02*
G01*
X896772Y-7481620D01*
X905205Y-7481620D01*
X911606Y-7481112D01*
X917143Y-7479639D01*
X921766Y-7477201D01*
X925474Y-7473746D01*
X928522Y-7469174D01*
X930656Y-7463637D01*
X931926Y-7457135D01*
X932332Y-7449616D01*
X932180Y-7444384D01*
X931570Y-7439710D01*
X930656Y-7435494D01*
X929284Y-7431836D01*
X927760Y-7428585D01*
X925830Y-7425791D01*
X923544Y-7423403D01*
X920953Y-7421422D01*
X917956Y-7419949D01*
X914653Y-7418933D01*
X910996Y-7418324D01*
X906932Y-7418120D01*
G37*
G36*
X1055573Y-7385507D02*
G01*
X1055573Y-7497775D01*
X1131366Y-7497775D01*
X1131366Y-7482535D01*
X1137412Y-7484973D01*
X1147114Y-7488123D01*
X1150366Y-7488834D01*
X1156766Y-7489393D01*
X1161186Y-7489037D01*
X1164640Y-7487869D01*
X1166114Y-7487056D01*
X1168400Y-7485024D01*
X1169924Y-7482382D01*
X1170686Y-7479334D01*
X1170635Y-7475880D01*
X1169619Y-7472578D01*
X1167688Y-7469835D01*
X1164894Y-7467447D01*
X1161084Y-7465110D01*
X1150366Y-7460386D01*
X1145184Y-7457490D01*
X1140510Y-7454087D01*
X1138428Y-7452055D01*
X1136599Y-7449769D01*
X1134922Y-7447229D01*
X1133856Y-7444536D01*
X1133043Y-7441438D01*
X1132586Y-7438034D01*
X1132382Y-7434275D01*
X1132636Y-7430617D01*
X1133297Y-7427163D01*
X1134414Y-7424013D01*
X1135938Y-7421067D01*
X1138021Y-7418425D01*
X1140460Y-7416190D01*
X1143254Y-7414259D01*
X1146352Y-7412685D01*
X1149705Y-7411364D01*
X1153363Y-7410399D01*
X1157325Y-7409840D01*
X1161592Y-7409637D01*
X1168654Y-7410043D01*
X1175054Y-7411161D01*
X1181150Y-7412990D01*
X1184667Y-7414463D01*
X1200962Y-7414463D01*
X1201166Y-7412329D01*
X1201623Y-7410602D01*
X1202436Y-7409180D01*
X1203502Y-7408113D01*
X1206550Y-7406792D01*
X1208278Y-7406436D01*
X1211834Y-7406436D01*
X1215034Y-7407351D01*
X1216456Y-7408113D01*
X1217574Y-7409180D01*
X1218467Y-7410907D01*
X1335836Y-7410907D01*
X1357426Y-7482027D01*
X1357680Y-7482027D01*
X1379778Y-7410907D01*
X1566214Y-7410907D01*
X1566214Y-7420051D01*
X1555800Y-7424369D01*
X1555800Y-7488123D01*
X1566214Y-7492441D01*
X1566214Y-7501585D01*
X1570532Y-7501585D01*
X1601012Y-7410653D01*
X1621332Y-7410653D01*
X1650779Y-7497775D01*
X1657654Y-7497775D01*
X1657654Y-7482535D01*
X1663598Y-7484973D01*
X1673402Y-7488123D01*
X1676654Y-7488834D01*
X1683054Y-7489393D01*
X1687474Y-7489037D01*
X1690928Y-7487869D01*
X1692402Y-7487056D01*
X1694688Y-7485024D01*
X1695500Y-7483805D01*
X1696466Y-7480909D01*
X1696770Y-7477709D01*
X1696364Y-7474153D01*
X1695805Y-7472578D01*
X1694992Y-7471105D01*
X1692706Y-7468616D01*
X1689404Y-7466279D01*
X1685036Y-7463993D01*
X1679498Y-7461707D01*
X1673910Y-7458964D01*
X1668830Y-7455865D01*
X1666646Y-7454087D01*
X1664665Y-7452055D01*
X1662836Y-7449769D01*
X1661210Y-7447229D01*
X1659991Y-7444536D01*
X1659128Y-7441438D01*
X1658620Y-7438034D01*
X1658416Y-7434275D01*
X1658670Y-7430617D01*
X1659382Y-7427163D01*
X1660601Y-7424013D01*
X1662226Y-7421067D01*
X1664309Y-7418425D01*
X1666697Y-7416190D01*
X1669389Y-7414259D01*
X1672386Y-7412685D01*
X1675942Y-7411364D01*
X1679702Y-7410399D01*
X1683715Y-7409840D01*
X1687880Y-7409637D01*
X1694840Y-7410043D01*
X1701342Y-7411161D01*
X1707337Y-7412990D01*
X1713026Y-7415479D01*
X1707692Y-7428433D01*
X1702460Y-7426401D01*
X1697278Y-7424877D01*
X1692300Y-7423708D01*
X1687372Y-7423353D01*
X1683715Y-7423658D01*
X1680768Y-7424623D01*
X1678381Y-7426198D01*
X1676704Y-7428433D01*
X1675790Y-7430973D01*
X1675434Y-7434021D01*
X1675892Y-7437323D01*
X1677212Y-7440117D01*
X1678178Y-7441488D01*
X1679397Y-7442708D01*
X1682800Y-7444943D01*
X1692706Y-7450277D01*
X1698904Y-7453274D01*
X1704136Y-7456627D01*
X1706422Y-7458354D01*
X1708404Y-7460335D01*
X1710131Y-7462418D01*
X1711502Y-7464755D01*
X1712518Y-7467346D01*
X1713230Y-7470241D01*
X1713687Y-7473442D01*
X1713788Y-7476947D01*
X1713585Y-7480757D01*
X1712925Y-7484313D01*
X1711807Y-7487615D01*
X1710232Y-7490663D01*
X1708251Y-7493406D01*
X1705813Y-7495844D01*
X1702917Y-7497978D01*
X1699564Y-7499807D01*
X1695805Y-7501128D01*
X1691639Y-7502093D01*
X1687068Y-7502652D01*
X1679702Y-7502804D01*
X1675130Y-7502550D01*
X1670812Y-7502042D01*
X1666748Y-7501178D01*
X1661109Y-7499248D01*
X1657654Y-7497775D01*
X1650779Y-7497775D01*
X1652066Y-7501585D01*
X1633778Y-7501585D01*
X1626666Y-7477455D01*
X1595678Y-7477455D01*
X1588820Y-7501585D01*
X1528368Y-7501585D01*
X1528368Y-7492441D01*
X1539036Y-7488123D01*
X1539036Y-7424369D01*
X1528368Y-7420051D01*
X1528368Y-7410907D01*
X1482394Y-7410907D01*
X1487779Y-7411059D01*
X1492707Y-7411466D01*
X1497177Y-7412177D01*
X1501190Y-7413193D01*
X1504645Y-7414412D01*
X1507642Y-7415987D01*
X1510131Y-7417968D01*
X1512112Y-7420305D01*
X1513789Y-7423048D01*
X1515008Y-7426147D01*
X1515719Y-7429652D01*
X1515922Y-7433513D01*
X1515516Y-7438542D01*
X1514957Y-7440777D01*
X1513179Y-7444943D01*
X1512011Y-7446772D01*
X1510639Y-7448397D01*
X1507490Y-7451039D01*
X1505712Y-7452055D01*
X1503781Y-7452817D01*
X1501698Y-7453325D01*
X1501698Y-7454087D01*
X1505915Y-7455408D01*
X1509826Y-7457389D01*
X1511655Y-7458659D01*
X1513281Y-7460183D01*
X1514703Y-7461961D01*
X1515922Y-7463993D01*
X1516938Y-7466431D01*
X1517650Y-7469174D01*
X1518107Y-7472273D01*
X1518208Y-7475677D01*
X1518005Y-7479588D01*
X1517294Y-7483246D01*
X1516075Y-7486599D01*
X1514398Y-7489647D01*
X1512316Y-7492390D01*
X1509826Y-7494778D01*
X1506982Y-7496860D01*
X1503730Y-7498537D01*
X1500124Y-7499858D01*
X1496110Y-7500823D01*
X1491742Y-7501381D01*
X1486966Y-7501585D01*
X1455470Y-7501585D01*
X1455470Y-7410907D01*
X1403400Y-7410907D01*
X1403400Y-7501585D01*
X1387144Y-7501585D01*
X1387297Y-7446924D01*
X1387551Y-7436866D01*
X1388160Y-7427417D01*
X1387652Y-7427417D01*
X1364792Y-7501585D01*
X1349298Y-7501585D01*
X1327200Y-7427163D01*
X1326692Y-7427163D01*
X1327708Y-7452156D01*
X1327708Y-7501585D01*
X1312468Y-7501585D01*
X1312468Y-7410907D01*
X1264462Y-7410907D01*
X1272184Y-7411364D01*
X1278788Y-7412736D01*
X1284224Y-7415072D01*
X1288592Y-7418273D01*
X1291945Y-7422286D01*
X1294333Y-7427010D01*
X1295755Y-7432446D01*
X1296212Y-7438593D01*
X1296060Y-7442352D01*
X1295450Y-7446009D01*
X1294536Y-7449616D01*
X1293164Y-7453071D01*
X1291386Y-7456322D01*
X1289100Y-7459218D01*
X1286306Y-7461808D01*
X1283004Y-7463993D01*
X1279144Y-7465872D01*
X1274572Y-7467244D01*
X1269339Y-7468057D01*
X1263446Y-7468311D01*
X1255064Y-7468311D01*
X1255064Y-7501585D01*
X1238046Y-7501585D01*
X1238046Y-7410907D01*
X1218467Y-7410907D01*
X1218844Y-7412329D01*
X1218996Y-7414463D01*
X1218844Y-7416596D01*
X1218387Y-7418425D01*
X1217574Y-7419898D01*
X1216456Y-7421067D01*
X1213510Y-7422591D01*
X1210106Y-7423099D01*
X1206550Y-7422591D01*
X1203502Y-7421067D01*
X1202436Y-7419898D01*
X1201623Y-7418425D01*
X1201166Y-7416596D01*
X1200962Y-7414463D01*
X1184667Y-7414463D01*
X1186738Y-7415479D01*
X1181404Y-7428433D01*
X1176324Y-7426401D01*
X1171244Y-7424877D01*
X1166063Y-7423708D01*
X1161084Y-7423353D01*
X1157528Y-7423658D01*
X1154480Y-7424623D01*
X1152093Y-7426198D01*
X1150416Y-7428433D01*
X1149502Y-7430973D01*
X1149228Y-7432751D01*
X1218488Y-7432751D01*
X1218488Y-7501585D01*
X1201724Y-7501585D01*
X1201724Y-7432751D01*
X1149228Y-7432751D01*
X1149299Y-7435748D01*
X1149604Y-7437323D01*
X1150924Y-7440117D01*
X1151890Y-7441488D01*
X1153109Y-7442708D01*
X1156512Y-7444943D01*
X1166418Y-7450277D01*
X1172616Y-7453274D01*
X1177848Y-7456627D01*
X1180134Y-7458354D01*
X1182116Y-7460335D01*
X1183843Y-7462418D01*
X1185214Y-7464755D01*
X1186332Y-7467346D01*
X1187145Y-7470241D01*
X1187602Y-7473442D01*
X1187754Y-7476947D01*
X1187551Y-7480757D01*
X1186840Y-7484313D01*
X1185621Y-7487615D01*
X1183944Y-7490663D01*
X1181963Y-7493406D01*
X1179525Y-7495844D01*
X1176629Y-7497978D01*
X1173276Y-7499807D01*
X1169568Y-7501128D01*
X1165402Y-7502093D01*
X1160932Y-7502652D01*
X1153515Y-7502804D01*
X1148842Y-7502550D01*
X1144524Y-7502042D01*
X1140460Y-7501178D01*
X1134821Y-7499248D01*
X1131366Y-7497775D01*
X1055573Y-7497775D01*
X1055573Y-7526985D01*
X1789734Y-7526985D01*
X1789734Y-7385507D01*
G37*
G36*
X1611172Y-7423861D02*
G01*
X1610309Y-7428382D01*
X1608124Y-7436764D01*
X1599996Y-7463485D01*
X1622602Y-7463485D01*
X1613001Y-7430973D01*
G37*
G36*
X1255064Y-7424369D02*
G01*
X1255064Y-7454849D01*
X1264158Y-7454747D01*
X1268984Y-7453833D01*
X1272997Y-7452207D01*
X1274622Y-7451090D01*
X1276045Y-7449769D01*
X1277162Y-7448245D01*
X1278077Y-7446365D01*
X1279093Y-7441793D01*
X1279194Y-7439101D01*
X1278991Y-7435646D01*
X1278280Y-7432649D01*
X1277061Y-7430058D01*
X1275384Y-7427925D01*
X1273251Y-7426350D01*
X1270558Y-7425283D01*
X1267409Y-7424572D01*
X1263700Y-7424369D01*
G37*
G36*
X1472488Y-7424369D02*
G01*
X1472488Y-7447737D01*
X1487525Y-7447584D01*
X1490726Y-7447025D01*
X1493266Y-7446162D01*
X1495094Y-7444943D01*
X1496568Y-7443216D01*
X1497584Y-7441133D01*
X1498193Y-7438644D01*
X1498396Y-7435799D01*
X1498193Y-7432954D01*
X1497482Y-7430516D01*
X1496263Y-7428534D01*
X1494586Y-7426909D01*
X1492504Y-7425791D01*
X1489862Y-7424978D01*
X1486560Y-7424521D01*
G37*
G36*
X1472488Y-7460945D02*
G01*
X1472488Y-7487869D01*
X1484934Y-7487869D01*
X1488948Y-7487615D01*
X1492300Y-7486903D01*
X1495044Y-7485735D01*
X1497126Y-7484059D01*
X1498600Y-7482128D01*
X1499616Y-7479792D01*
X1500225Y-7477150D01*
X1500378Y-7472070D01*
X1499616Y-7468514D01*
X1498041Y-7465618D01*
X1496974Y-7464399D01*
X1495653Y-7463332D01*
X1494078Y-7462469D01*
X1490116Y-7461300D01*
X1484680Y-7460945D01*
G37*
G36*
X235305Y-6379260D02*
G01*
X235305Y-6449872D01*
X453491Y-6449872D01*
X453847Y-6442964D01*
X454761Y-6436563D01*
X456387Y-6430670D01*
X458571Y-6425234D01*
X461518Y-6420307D01*
X465023Y-6415938D01*
X469036Y-6412179D01*
X473557Y-6408978D01*
X478891Y-6406540D01*
X484733Y-6404762D01*
X491083Y-6403746D01*
X497941Y-6403390D01*
X505155Y-6403746D01*
X511911Y-6404914D01*
X518210Y-6406642D01*
X523849Y-6408724D01*
X518261Y-6422186D01*
X513689Y-6420256D01*
X508609Y-6418630D01*
X503224Y-6417462D01*
X497687Y-6417106D01*
X493572Y-6417360D01*
X489762Y-6418122D01*
X486308Y-6419392D01*
X483209Y-6421170D01*
X480466Y-6423406D01*
X478028Y-6426047D01*
X475894Y-6429095D01*
X474065Y-6432600D01*
X472744Y-6436461D01*
X471779Y-6440627D01*
X471220Y-6445199D01*
X471017Y-6450126D01*
X471170Y-6454800D01*
X471678Y-6459169D01*
X472440Y-6463284D01*
X473557Y-6467144D01*
X475132Y-6470599D01*
X477012Y-6473748D01*
X479196Y-6476492D01*
X481685Y-6478828D01*
X484682Y-6480606D01*
X488035Y-6481876D01*
X491794Y-6482638D01*
X497179Y-6482842D01*
X500735Y-6482638D01*
X508609Y-6481114D01*
X508609Y-6459270D01*
X491845Y-6459270D01*
X491845Y-6445554D01*
X524865Y-6445554D01*
X524865Y-6491782D01*
X518007Y-6493814D01*
X510641Y-6495338D01*
X533755Y-6495338D01*
X564235Y-6404406D01*
X584809Y-6404406D01*
X584894Y-6404660D01*
X693521Y-6404660D01*
X731621Y-6475272D01*
X732129Y-6475272D01*
X731520Y-6461912D01*
X731367Y-6404660D01*
X746607Y-6404660D01*
X746607Y-6495338D01*
X725017Y-6495338D01*
X686917Y-6424218D01*
X686409Y-6424218D01*
X687425Y-6443014D01*
X687425Y-6495338D01*
X672185Y-6495338D01*
X672185Y-6404660D01*
X657199Y-6404660D01*
X657199Y-6413804D01*
X647039Y-6418122D01*
X647039Y-6481876D01*
X657199Y-6486194D01*
X657199Y-6495338D01*
X619607Y-6495338D01*
X619607Y-6486194D01*
X630021Y-6481876D01*
X630021Y-6418122D01*
X619607Y-6413804D01*
X619607Y-6404660D01*
X584894Y-6404660D01*
X615289Y-6495338D01*
X597001Y-6495338D01*
X589889Y-6471208D01*
X558901Y-6471208D01*
X552043Y-6495338D01*
X510641Y-6495338D01*
X502767Y-6496253D01*
X493877Y-6496608D01*
X487781Y-6496253D01*
X482092Y-6495186D01*
X476859Y-6493459D01*
X472033Y-6491020D01*
X467868Y-6488023D01*
X464159Y-6484416D01*
X461009Y-6480149D01*
X458317Y-6475272D01*
X456234Y-6469786D01*
X454710Y-6463690D01*
X453796Y-6457086D01*
X453491Y-6449872D01*
X235305Y-6449872D01*
X235305Y-6520738D01*
X964692Y-6520738D01*
X964692Y-6379260D01*
G37*
G36*
X574649Y-6417614D02*
G01*
X572008Y-6428587D01*
X563473Y-6457238D01*
X586079Y-6457238D01*
X577799Y-6430365D01*
G37*
G36*
X1256538Y-793445D02*
G01*
X1244498Y-793699D01*
X1232611Y-794359D01*
X1220825Y-795528D01*
X1209141Y-797102D01*
X1197610Y-799084D01*
X1186281Y-801522D01*
X1175054Y-804418D01*
X1164031Y-807669D01*
X1153160Y-811326D01*
X1142492Y-815390D01*
X1132027Y-819810D01*
X1121714Y-824585D01*
X1111656Y-829767D01*
X1101852Y-835304D01*
X1092200Y-841197D01*
X1082852Y-847394D01*
X1073708Y-853948D01*
X1064818Y-860806D01*
X1056182Y-867968D01*
X1047851Y-875436D01*
X1039774Y-883208D01*
X1032002Y-891286D01*
X1024534Y-899668D01*
X1017320Y-908253D01*
X1010462Y-917143D01*
X1003960Y-926287D01*
X997712Y-935634D01*
X991869Y-945286D01*
X986332Y-955141D01*
X981151Y-965200D01*
X976376Y-975461D01*
X971905Y-985926D01*
X967892Y-996594D01*
X964234Y-1007465D01*
X960932Y-1018489D01*
X958087Y-1029716D01*
X955649Y-1041095D01*
X953617Y-1052576D01*
X952042Y-1064260D01*
X950925Y-1076045D01*
X950214Y-1087983D01*
X950010Y-1099972D01*
X950010Y-1327962D01*
X1102360Y-1327962D01*
X1102410Y-1235760D01*
X1102969Y-1223670D01*
X1104087Y-1212342D01*
X1105712Y-1201826D01*
X1107897Y-1192072D01*
X1110691Y-1183081D01*
X1112266Y-1178864D01*
X1114907Y-1172819D01*
X1117854Y-1167231D01*
X1121105Y-1161999D01*
X1124712Y-1157173D01*
X1128623Y-1152702D01*
X1132840Y-1148689D01*
X1137361Y-1145032D01*
X1142238Y-1141780D01*
X1147419Y-1138885D01*
X1152906Y-1136345D01*
X1158798Y-1134211D01*
X1164945Y-1132433D01*
X1171498Y-1131062D01*
X1178306Y-1130096D01*
X1185519Y-1129538D01*
X1193038Y-1129334D01*
X1198575Y-1129436D01*
X1209040Y-1130350D01*
X1213916Y-1131163D01*
X1223060Y-1133500D01*
X1227328Y-1134973D01*
X1231392Y-1136700D01*
X1239062Y-1140663D01*
X1246073Y-1145184D01*
X1252372Y-1150315D01*
X1258062Y-1156004D01*
X1263091Y-1162253D01*
X1267612Y-1168806D01*
X1271625Y-1175715D01*
X1275080Y-1182928D01*
X1410716Y-1099870D01*
X1410716Y-1165656D01*
X1289050Y-1232458D01*
X1289050Y-1270050D01*
X1410716Y-1270050D01*
X1410716Y-1327962D01*
X950010Y-1327962D01*
X950010Y-1524558D01*
X1097534Y-1524558D01*
X1097635Y-1516888D01*
X1098753Y-1502206D01*
X1099718Y-1495247D01*
X1100937Y-1488490D01*
X1102461Y-1481937D01*
X1104239Y-1475638D01*
X1106322Y-1469593D01*
X1108659Y-1463751D01*
X1111300Y-1458112D01*
X1114145Y-1452727D01*
X1120698Y-1442669D01*
X1124305Y-1437944D01*
X1128115Y-1433423D01*
X1132128Y-1429156D01*
X1136396Y-1425041D01*
X1140866Y-1421180D01*
X1145590Y-1417523D01*
X1150518Y-1414068D01*
X1155649Y-1410817D01*
X1166622Y-1404975D01*
X1172464Y-1402384D01*
X1184706Y-1397863D01*
X1197660Y-1394206D01*
X1211275Y-1391310D01*
X1225499Y-1389278D01*
X1240434Y-1388059D01*
X1256030Y-1387652D01*
X1267764Y-1387906D01*
X1279144Y-1388567D01*
X1290167Y-1389735D01*
X1300835Y-1391361D01*
X1311097Y-1393494D01*
X1321054Y-1396034D01*
X1328216Y-1398270D01*
X1335125Y-1400759D01*
X1341831Y-1403502D01*
X1348232Y-1406499D01*
X1354378Y-1409801D01*
X1360271Y-1413306D01*
X1365961Y-1417116D01*
X1371346Y-1421180D01*
X1376527Y-1425549D01*
X1381353Y-1430223D01*
X1385925Y-1435201D01*
X1390142Y-1440434D01*
X1394053Y-1445920D01*
X1397609Y-1451711D01*
X1400911Y-1457756D01*
X1403858Y-1464106D01*
X1406448Y-1470710D01*
X1408734Y-1477619D01*
X1410665Y-1484782D01*
X1412240Y-1492250D01*
X1413459Y-1499971D01*
X1414322Y-1507947D01*
X1414830Y-1516227D01*
X1415034Y-1524812D01*
X1414830Y-1533550D01*
X1414322Y-1541983D01*
X1413408Y-1550111D01*
X1412189Y-1557934D01*
X1410563Y-1565503D01*
X1408582Y-1572717D01*
X1406245Y-1579676D01*
X1403604Y-1586280D01*
X1400606Y-1592630D01*
X1397254Y-1598676D01*
X1393647Y-1604416D01*
X1389735Y-1609902D01*
X1385519Y-1615084D01*
X1380998Y-1620012D01*
X1376222Y-1624634D01*
X1371092Y-1628952D01*
X1365758Y-1633016D01*
X1360119Y-1636826D01*
X1354226Y-1640332D01*
X1348079Y-1643634D01*
X1341678Y-1646631D01*
X1334973Y-1649374D01*
X1328013Y-1651863D01*
X1315872Y-1655470D01*
X1305763Y-1657857D01*
X1295298Y-1659788D01*
X1284478Y-1661210D01*
X1273251Y-1662175D01*
X1261668Y-1662684D01*
X1247851Y-1662633D01*
X1232560Y-1661820D01*
X1217980Y-1660143D01*
X1204061Y-1657654D01*
X1190904Y-1654302D01*
X1184554Y-1652320D01*
X1178407Y-1650136D01*
X1166622Y-1645157D01*
X1161034Y-1642313D01*
X1155649Y-1639265D01*
X1150518Y-1636014D01*
X1145590Y-1632559D01*
X1140917Y-1628901D01*
X1136396Y-1624990D01*
X1132128Y-1620875D01*
X1128115Y-1616557D01*
X1124305Y-1612036D01*
X1120698Y-1607261D01*
X1117346Y-1602282D01*
X1114145Y-1597050D01*
X1111300Y-1591564D01*
X1108659Y-1585874D01*
X1106322Y-1579981D01*
X1104239Y-1573834D01*
X1102461Y-1567484D01*
X1100937Y-1560880D01*
X1099718Y-1554073D01*
X1098753Y-1547012D01*
X1097635Y-1532280D01*
X1097534Y-1524558D01*
X950010Y-1524558D01*
X950010Y-1684578D01*
X1149096Y-1684578D01*
X1149096Y-1764588D01*
X1410716Y-1764588D01*
X1410716Y-1822754D01*
X1149096Y-1822754D01*
X1149096Y-1903018D01*
X1102360Y-1903018D01*
X1102360Y-1684578D01*
X950010Y-1684578D01*
X950010Y-2055672D01*
X1101090Y-2055672D01*
X1101090Y-1986076D01*
X1410716Y-1881936D01*
X1410716Y-1944166D01*
X1329182Y-1967788D01*
X1329182Y-2073198D01*
X1410716Y-2097074D01*
X1410716Y-2159304D01*
X1101090Y-2055672D01*
X950010Y-2055672D01*
X950010Y-2348788D01*
X1102360Y-2348788D01*
X1102360Y-2290876D01*
X1363980Y-2290876D01*
X1363980Y-2172258D01*
X1410716Y-2172258D01*
X1410716Y-2348788D01*
X950010Y-2348788D01*
X950010Y-2574594D01*
X1102360Y-2574594D01*
X1102360Y-2516682D01*
X1363980Y-2516682D01*
X1363980Y-2398064D01*
X1410716Y-2398064D01*
X1410716Y-2574594D01*
X950010Y-2574594D01*
X950010Y-2625648D01*
X1133856Y-2625648D01*
X1148080Y-2660446D01*
X1365250Y-2660446D01*
X1379220Y-2625648D01*
X1410716Y-2625648D01*
X1410716Y-2753664D01*
X1379220Y-2753664D01*
X1365250Y-2718358D01*
X1148080Y-2718358D01*
X1133856Y-2753664D01*
X1102360Y-2753664D01*
X1102360Y-2625648D01*
X950010Y-2625648D01*
X950010Y-2775254D01*
X1149096Y-2775254D01*
X1149096Y-2855264D01*
X1410716Y-2855264D01*
X1410716Y-2913430D01*
X1149096Y-2913430D01*
X1149096Y-2993948D01*
X1102360Y-2993948D01*
X1102360Y-2775254D01*
X950010Y-2775254D01*
X950010Y-3037382D01*
X1410716Y-3037382D01*
X1410716Y-3110534D01*
X1168908Y-3240328D01*
X1168908Y-3242106D01*
X1188974Y-3241344D01*
X1227226Y-3239312D01*
X1244092Y-3238855D01*
X1410716Y-3238804D01*
X1410716Y-3290620D01*
X1102360Y-3290620D01*
X1102360Y-3217976D01*
X1342390Y-3088436D01*
X1342390Y-3086658D01*
X1323594Y-3087674D01*
X1264310Y-3089656D01*
X1102360Y-3089706D01*
X1102360Y-3037382D01*
X950010Y-3037382D01*
X950010Y-3341420D01*
X1133856Y-3341420D01*
X1148080Y-3376472D01*
X1365250Y-3376472D01*
X1379220Y-3341420D01*
X1410716Y-3341420D01*
X1410716Y-3469690D01*
X1379220Y-3469690D01*
X1365250Y-3434384D01*
X1148080Y-3434384D01*
X1133856Y-3469690D01*
X1102360Y-3469690D01*
X1102360Y-3341420D01*
X950010Y-3341420D01*
X950010Y-3581450D01*
X1098042Y-3581450D01*
X1098346Y-3570579D01*
X1099362Y-3559556D01*
X1101039Y-3548329D01*
X1103376Y-3537000D01*
X1106373Y-3525926D01*
X1109929Y-3515512D01*
X1113891Y-3505860D01*
X1118362Y-3496868D01*
X1163828Y-3516426D01*
X1156817Y-3531717D01*
X1150620Y-3547668D01*
X1148029Y-3555898D01*
X1146251Y-3564382D01*
X1145133Y-3573068D01*
X1144778Y-3581958D01*
X1145235Y-3590747D01*
X1146657Y-3599179D01*
X1149045Y-3607155D01*
X1152398Y-3614724D01*
X1156766Y-3621786D01*
X1161999Y-3628288D01*
X1168044Y-3634232D01*
X1175004Y-3639616D01*
X1182725Y-3644392D01*
X1191209Y-3648506D01*
X1200353Y-3652012D01*
X1210310Y-3654856D01*
X1221028Y-3657193D01*
X1232408Y-3658870D01*
X1244396Y-3659835D01*
X1257046Y-3660190D01*
X1265580Y-3660038D01*
X1273810Y-3659632D01*
X1281734Y-3658971D01*
X1289354Y-3658057D01*
X1296670Y-3656837D01*
X1303680Y-3655314D01*
X1310335Y-3653586D01*
X1316736Y-3651554D01*
X1322781Y-3649268D01*
X1328470Y-3646678D01*
X1333804Y-3643782D01*
X1338783Y-3640632D01*
X1343355Y-3637178D01*
X1347622Y-3633470D01*
X1351534Y-3629456D01*
X1355090Y-3625138D01*
X1358188Y-3620566D01*
X1360881Y-3615690D01*
X1363116Y-3610559D01*
X1364996Y-3605123D01*
X1366418Y-3599434D01*
X1367485Y-3593490D01*
X1368094Y-3587242D01*
X1368298Y-3580688D01*
X1368044Y-3571443D01*
X1367282Y-3562350D01*
X1366012Y-3553307D01*
X1364234Y-3544366D01*
X1361998Y-3535476D01*
X1359458Y-3526536D01*
X1356563Y-3517544D01*
X1353312Y-3508552D01*
X1400302Y-3508552D01*
X1403959Y-3517493D01*
X1407007Y-3526586D01*
X1409547Y-3535781D01*
X1411478Y-3545128D01*
X1413002Y-3554780D01*
X1414119Y-3564991D01*
X1414780Y-3575761D01*
X1415034Y-3587038D01*
X1414881Y-3594506D01*
X1414475Y-3601770D01*
X1413814Y-3608781D01*
X1412849Y-3615588D01*
X1411630Y-3622141D01*
X1408379Y-3634638D01*
X1406347Y-3640531D01*
X1404010Y-3646220D01*
X1401419Y-3651707D01*
X1398574Y-3656939D01*
X1395476Y-3661968D01*
X1392072Y-3666794D01*
X1388414Y-3671468D01*
X1380490Y-3680053D01*
X1376222Y-3684066D01*
X1371701Y-3687826D01*
X1366977Y-3691382D01*
X1362049Y-3694684D01*
X1356868Y-3697833D01*
X1351483Y-3700729D01*
X1345895Y-3703421D01*
X1340104Y-3705910D01*
X1327912Y-3710279D01*
X1315008Y-3713835D01*
X1301445Y-3716578D01*
X1287170Y-3718560D01*
X1272184Y-3719728D01*
X1256538Y-3720134D01*
X1245006Y-3719880D01*
X1233830Y-3719118D01*
X1223010Y-3717848D01*
X1212494Y-3716070D01*
X1202334Y-3713784D01*
X1192530Y-3710990D01*
X1185468Y-3708654D01*
X1178610Y-3706012D01*
X1172006Y-3703065D01*
X1165656Y-3699865D01*
X1159510Y-3696411D01*
X1153617Y-3692651D01*
X1147927Y-3688638D01*
X1142492Y-3684320D01*
X1137361Y-3679748D01*
X1132535Y-3674922D01*
X1128014Y-3669842D01*
X1123746Y-3664508D01*
X1119784Y-3658920D01*
X1116126Y-3653078D01*
X1112774Y-3646982D01*
X1109726Y-3640632D01*
X1106982Y-3634028D01*
X1104595Y-3627221D01*
X1102614Y-3620160D01*
X1100937Y-3612896D01*
X1099667Y-3605377D01*
X1098753Y-3597605D01*
X1098194Y-3589629D01*
X1098042Y-3581450D01*
X950010Y-3581450D01*
X950010Y-3847642D01*
X1098042Y-3847642D01*
X1098346Y-3835552D01*
X1099362Y-3823817D01*
X1101039Y-3812540D01*
X1103376Y-3801668D01*
X1106170Y-3791305D01*
X1109522Y-3781247D01*
X1113434Y-3771493D01*
X1117854Y-3762044D01*
X1162304Y-3780078D01*
X1158443Y-3788918D01*
X1154988Y-3797757D01*
X1151940Y-3806444D01*
X1149350Y-3815130D01*
X1147318Y-3823715D01*
X1145895Y-3832250D01*
X1145032Y-3840734D01*
X1144778Y-3849166D01*
X1145032Y-3855618D01*
X1145895Y-3861562D01*
X1147318Y-3866946D01*
X1149350Y-3871772D01*
X1151737Y-3875938D01*
X1154684Y-3879596D01*
X1158087Y-3882694D01*
X1162050Y-3885234D01*
X1166266Y-3887215D01*
X1170838Y-3888638D01*
X1175816Y-3889501D01*
X1181100Y-3889806D01*
X1187094Y-3889451D01*
X1192580Y-3888333D01*
X1197610Y-3886504D01*
X1202182Y-3883964D01*
X1206449Y-3880561D01*
X1210564Y-3876294D01*
X1214577Y-3871061D01*
X1218438Y-3864914D01*
X1226413Y-3849979D01*
X1240993Y-3820109D01*
X1246428Y-3809949D01*
X1252016Y-3800551D01*
X1257808Y-3792016D01*
X1260805Y-3788054D01*
X1267256Y-3780942D01*
X1270711Y-3777742D01*
X1274267Y-3774795D01*
X1278026Y-3772052D01*
X1286002Y-3767378D01*
X1290167Y-3765397D01*
X1294587Y-3763721D01*
X1299311Y-3762248D01*
X1304239Y-3761079D01*
X1309370Y-3760165D01*
X1314805Y-3759504D01*
X1326388Y-3758996D01*
X1333093Y-3759200D01*
X1339596Y-3759758D01*
X1345895Y-3760724D01*
X1351889Y-3762095D01*
X1357680Y-3763873D01*
X1363218Y-3766007D01*
X1368552Y-3768547D01*
X1373632Y-3771442D01*
X1378407Y-3774694D01*
X1382928Y-3778250D01*
X1387195Y-3782212D01*
X1391158Y-3786530D01*
X1394815Y-3791254D01*
X1398168Y-3796284D01*
X1401267Y-3801719D01*
X1404112Y-3807510D01*
X1406652Y-3813708D01*
X1408887Y-3820261D01*
X1410766Y-3827170D01*
X1412290Y-3834434D01*
X1413510Y-3842054D01*
X1414322Y-3849979D01*
X1414830Y-3858310D01*
X1415034Y-3866946D01*
X1414526Y-3883202D01*
X1413002Y-3898442D01*
X1411935Y-3905707D01*
X1410614Y-3912666D01*
X1409039Y-3919423D01*
X1405128Y-3932174D01*
X1400454Y-3944365D01*
X1397762Y-3950258D01*
X1345946Y-3950258D01*
X1350162Y-3940403D01*
X1354175Y-3930040D01*
X1358036Y-3919321D01*
X1361694Y-3908094D01*
X1364792Y-3896868D01*
X1367028Y-3885742D01*
X1368348Y-3874770D01*
X1368806Y-3863898D01*
X1368501Y-3856126D01*
X1367586Y-3849115D01*
X1366062Y-3842816D01*
X1363980Y-3837228D01*
X1361186Y-3832351D01*
X1357934Y-3828135D01*
X1354226Y-3824630D01*
X1350010Y-3821734D01*
X1345387Y-3819601D01*
X1340408Y-3818128D01*
X1335074Y-3817213D01*
X1329436Y-3816908D01*
X1323187Y-3817315D01*
X1317498Y-3818483D01*
X1312265Y-3820464D01*
X1307592Y-3823258D01*
X1303070Y-3826713D01*
X1298752Y-3831082D01*
X1294587Y-3836263D01*
X1290574Y-3842308D01*
X1286713Y-3849268D01*
X1282750Y-3857244D01*
X1278686Y-3866184D01*
X1272489Y-3880865D01*
X1268018Y-3890162D01*
X1263192Y-3899154D01*
X1258011Y-3907739D01*
X1252372Y-3915867D01*
X1249273Y-3919626D01*
X1242415Y-3926535D01*
X1234795Y-3932580D01*
X1226312Y-3937812D01*
X1221740Y-3939997D01*
X1216863Y-3941927D01*
X1211783Y-3943553D01*
X1206398Y-3944874D01*
X1200810Y-3945890D01*
X1194917Y-3946601D01*
X1188770Y-3947058D01*
X1182370Y-3947210D01*
X1175867Y-3947007D01*
X1169619Y-3946448D01*
X1163574Y-3945483D01*
X1157782Y-3944112D01*
X1152194Y-3942334D01*
X1146860Y-3940200D01*
X1141780Y-3937660D01*
X1136904Y-3934764D01*
X1132281Y-3931513D01*
X1127963Y-3927906D01*
X1123899Y-3923995D01*
X1120140Y-3919778D01*
X1116634Y-3915257D01*
X1113434Y-3910380D01*
X1110538Y-3905199D01*
X1107948Y-3899712D01*
X1105611Y-3894023D01*
X1103579Y-3888079D01*
X1101902Y-3881932D01*
X1100531Y-3875532D01*
X1099413Y-3868877D01*
X1098651Y-3862019D01*
X1098194Y-3854958D01*
X1098042Y-3847642D01*
X950010Y-3847642D01*
X950061Y-3956354D01*
X950518Y-3968343D01*
X951433Y-3980179D01*
X952804Y-3991914D01*
X954582Y-4003497D01*
X956818Y-4014927D01*
X959459Y-4026204D01*
X962507Y-4037329D01*
X966012Y-4048302D01*
X969822Y-4059072D01*
X974090Y-4069638D01*
X978712Y-4080001D01*
X983691Y-4090162D01*
X989025Y-4100118D01*
X994765Y-4109872D01*
X1000810Y-4119372D01*
X1007160Y-4128617D01*
X1013866Y-4137609D01*
X1020876Y-4146397D01*
X1028242Y-4154881D01*
X1035862Y-4163060D01*
X1043787Y-4170984D01*
X1052017Y-4178655D01*
X1060500Y-4185970D01*
X1069238Y-4192981D01*
X1078230Y-4199686D01*
X1087475Y-4206087D01*
X1096975Y-4212132D01*
X1106728Y-4217822D01*
X1116685Y-4223156D01*
X1126845Y-4228134D01*
X1137208Y-4232757D01*
X1147826Y-4237024D01*
X1158544Y-4240885D01*
X1169517Y-4244340D01*
X1180642Y-4247388D01*
X1191920Y-4250029D01*
X1203350Y-4252264D01*
X1214932Y-4254042D01*
X1226667Y-4255414D01*
X1238554Y-4256328D01*
X1250492Y-4256786D01*
X1262583Y-4256786D01*
X1274572Y-4256328D01*
X1286408Y-4255414D01*
X1298143Y-4254042D01*
X1309725Y-4252264D01*
X1321155Y-4250029D01*
X1332484Y-4247388D01*
X1343558Y-4244340D01*
X1354531Y-4240885D01*
X1365300Y-4237024D01*
X1375867Y-4232757D01*
X1386230Y-4228134D01*
X1396441Y-4223156D01*
X1406398Y-4217822D01*
X1416100Y-4212132D01*
X1425600Y-4206087D01*
X1434846Y-4199686D01*
X1443888Y-4192981D01*
X1452626Y-4185970D01*
X1461109Y-4178655D01*
X1469339Y-4170984D01*
X1477264Y-4163060D01*
X1484884Y-4154881D01*
X1492199Y-4146397D01*
X1499209Y-4137609D01*
X1505915Y-4128617D01*
X1512316Y-4119372D01*
X1518361Y-4109872D01*
X1524050Y-4100118D01*
X1529384Y-4090162D01*
X1534414Y-4080001D01*
X1539036Y-4069638D01*
X1543253Y-4059072D01*
X1547114Y-4048302D01*
X1550568Y-4037329D01*
X1553616Y-4026204D01*
X1556258Y-4014927D01*
X1558493Y-4003497D01*
X1560322Y-3991914D01*
X1561642Y-3980179D01*
X1562608Y-3968343D01*
X1563065Y-3956354D01*
X1563116Y-1099972D01*
X1562862Y-1087983D01*
X1562201Y-1076045D01*
X1561033Y-1064260D01*
X1559458Y-1052576D01*
X1557426Y-1041095D01*
X1554988Y-1029716D01*
X1552143Y-1018489D01*
X1548892Y-1007465D01*
X1545234Y-996594D01*
X1541170Y-985926D01*
X1536750Y-975461D01*
X1531924Y-965200D01*
X1526794Y-955141D01*
X1521256Y-945286D01*
X1515364Y-935634D01*
X1509166Y-926287D01*
X1502613Y-917143D01*
X1495755Y-908253D01*
X1488592Y-899668D01*
X1481074Y-891286D01*
X1473301Y-883208D01*
X1465224Y-875436D01*
X1456893Y-867968D01*
X1448308Y-860806D01*
X1439418Y-853948D01*
X1430274Y-847394D01*
X1420876Y-841197D01*
X1411274Y-835304D01*
X1401419Y-829767D01*
X1391361Y-824585D01*
X1381099Y-819810D01*
X1370634Y-815390D01*
X1359916Y-811326D01*
X1349095Y-807669D01*
X1338021Y-804418D01*
X1326845Y-801522D01*
X1315466Y-799084D01*
X1303985Y-797102D01*
X1292301Y-795528D01*
X1280515Y-794359D01*
X1268577Y-793699D01*
G37*
G36*
X1194816Y-1188008D02*
G01*
X1186840Y-1188415D01*
X1179677Y-1189532D01*
X1173378Y-1191463D01*
X1167892Y-1194104D01*
X1163167Y-1197559D01*
X1159103Y-1201775D01*
X1155801Y-1206804D01*
X1153160Y-1212646D01*
X1151128Y-1219301D01*
X1149705Y-1226870D01*
X1148842Y-1235303D01*
X1148588Y-1244650D01*
X1148588Y-1270050D01*
X1243584Y-1270050D01*
X1243584Y-1243888D01*
X1243228Y-1234795D01*
X1242161Y-1226515D01*
X1240434Y-1219047D01*
X1237996Y-1212392D01*
X1234846Y-1206652D01*
X1231087Y-1201724D01*
X1226616Y-1197508D01*
X1221486Y-1194104D01*
X1215796Y-1191463D01*
X1209497Y-1189532D01*
X1202486Y-1188364D01*
G37*
G36*
X1256030Y-1448866D02*
G01*
X1247495Y-1448968D01*
X1231341Y-1449984D01*
X1223772Y-1450848D01*
X1209446Y-1453286D01*
X1202791Y-1454912D01*
X1196390Y-1456791D01*
X1190345Y-1458874D01*
X1184605Y-1461211D01*
X1179118Y-1463802D01*
X1173988Y-1466646D01*
X1169212Y-1469745D01*
X1164894Y-1473149D01*
X1160983Y-1476857D01*
X1157478Y-1480870D01*
X1154379Y-1485239D01*
X1151686Y-1489913D01*
X1149400Y-1494891D01*
X1147572Y-1500174D01*
X1146098Y-1505813D01*
X1145082Y-1511757D01*
X1144473Y-1518005D01*
X1144270Y-1524558D01*
X1144473Y-1531213D01*
X1145082Y-1537512D01*
X1146149Y-1543507D01*
X1147622Y-1549196D01*
X1149502Y-1554581D01*
X1151839Y-1559610D01*
X1154582Y-1564335D01*
X1157732Y-1568754D01*
X1161186Y-1572869D01*
X1165047Y-1576679D01*
X1169314Y-1580235D01*
X1173937Y-1583486D01*
X1178915Y-1586433D01*
X1184249Y-1589125D01*
X1189990Y-1591513D01*
X1196086Y-1593646D01*
X1202486Y-1595424D01*
X1209243Y-1596999D01*
X1223619Y-1599336D01*
X1231290Y-1600200D01*
X1239215Y-1600809D01*
X1247444Y-1601165D01*
X1264615Y-1601165D01*
X1272946Y-1600809D01*
X1288592Y-1599387D01*
X1303020Y-1596999D01*
X1309776Y-1595424D01*
X1316228Y-1593646D01*
X1322273Y-1591513D01*
X1327962Y-1589125D01*
X1333296Y-1586433D01*
X1338275Y-1583486D01*
X1342847Y-1580235D01*
X1347114Y-1576679D01*
X1351026Y-1572869D01*
X1354582Y-1568754D01*
X1357731Y-1564335D01*
X1360474Y-1559610D01*
X1362760Y-1554581D01*
X1364640Y-1549247D01*
X1366113Y-1543608D01*
X1367180Y-1537665D01*
X1367840Y-1531366D01*
X1368044Y-1524812D01*
X1367840Y-1518310D01*
X1367180Y-1512112D01*
X1366113Y-1506220D01*
X1364640Y-1500632D01*
X1362760Y-1495348D01*
X1360474Y-1490370D01*
X1357731Y-1485747D01*
X1354582Y-1481378D01*
X1351026Y-1477264D01*
X1347114Y-1473454D01*
X1342847Y-1469948D01*
X1338224Y-1466697D01*
X1333296Y-1463802D01*
X1327962Y-1461160D01*
X1322273Y-1458772D01*
X1316228Y-1456740D01*
X1309776Y-1454912D01*
X1303020Y-1453286D01*
X1288592Y-1450848D01*
X1280922Y-1449984D01*
X1264615Y-1448968D01*
G37*
G36*
X1281684Y-1981758D02*
G01*
X1202182Y-2006396D01*
X1175562Y-2013610D01*
X1146048Y-2020620D01*
X1161694Y-2023872D01*
X1176782Y-2027478D01*
X1202182Y-2034336D01*
X1281684Y-2058466D01*
G37*
G36*
X967587Y-8653983D02*
G01*
X967587Y-8689695D01*
X992987Y-8689695D01*
X1075029Y-8717127D01*
X1075029Y-8735415D01*
X992987Y-8763101D01*
X992987Y-8746591D01*
X1014577Y-8740241D01*
X1014577Y-8712555D01*
X992987Y-8706205D01*
X992987Y-8689695D01*
X967587Y-8689695D01*
X967587Y-8802217D01*
X991717Y-8802217D01*
X992073Y-8796477D01*
X993038Y-8791295D01*
X994714Y-8786571D01*
X997051Y-8782405D01*
X999896Y-8778697D01*
X1003249Y-8775547D01*
X1007262Y-8772855D01*
X1011783Y-8770721D01*
X1016711Y-8769045D01*
X1021994Y-8767876D01*
X1027734Y-8767165D01*
X1033881Y-8766911D01*
X1038352Y-8767064D01*
X1042669Y-8767521D01*
X1046734Y-8768334D01*
X1050645Y-8769451D01*
X1054303Y-8770772D01*
X1057757Y-8772347D01*
X1060907Y-8774328D01*
X1063853Y-8776563D01*
X1066596Y-8779002D01*
X1068984Y-8781694D01*
X1071067Y-8784691D01*
X1072743Y-8787993D01*
X1074064Y-8791549D01*
X1075029Y-8795359D01*
X1075588Y-8799423D01*
X1075791Y-8803741D01*
X1075385Y-8809431D01*
X1074267Y-8815425D01*
X1072692Y-8821115D01*
X1070457Y-8826093D01*
X1058265Y-8821013D01*
X1061821Y-8812631D01*
X1062939Y-8808161D01*
X1063345Y-8803487D01*
X1062837Y-8798915D01*
X1061313Y-8794851D01*
X1060196Y-8793022D01*
X1057249Y-8789720D01*
X1055471Y-8788247D01*
X1051102Y-8785961D01*
X1046073Y-8784183D01*
X1040180Y-8783218D01*
X1033627Y-8782913D01*
X1029208Y-8783066D01*
X1025093Y-8783472D01*
X1021334Y-8784183D01*
X1017879Y-8785199D01*
X1014780Y-8786469D01*
X1012037Y-8788044D01*
X1009700Y-8789924D01*
X1007719Y-8792057D01*
X1006144Y-8794597D01*
X1005078Y-8797442D01*
X1004366Y-8800592D01*
X1004214Y-8806383D01*
X1004722Y-8811107D01*
X1005840Y-8815781D01*
X1008227Y-8823045D01*
X995781Y-8823045D01*
X994003Y-8818219D01*
X992733Y-8813393D01*
X991971Y-8808059D01*
X991717Y-8802217D01*
X967587Y-8802217D01*
X967587Y-8868003D01*
X992987Y-8868003D01*
X992987Y-8852763D01*
X1062329Y-8852763D01*
X1062329Y-8831427D01*
X1074521Y-8831427D01*
X1074521Y-8889339D01*
X1062329Y-8889339D01*
X1062329Y-8868003D01*
X967587Y-8868003D01*
X967587Y-8925001D01*
X1099972Y-8925001D01*
X1099972Y-8653983D01*
G37*
G36*
X1027277Y-8716365D02*
G01*
X1027277Y-8736685D01*
X1048105Y-8730081D01*
X1052677Y-8729065D01*
X1063091Y-8726271D01*
X1054963Y-8724493D01*
X1048105Y-8722715D01*
G37*
G36*
X2247036Y-8652916D02*
G01*
X2241346Y-8653119D01*
X2235708Y-8653576D01*
X2230221Y-8654389D01*
X2224786Y-8655507D01*
X2219502Y-8656929D01*
X2214321Y-8658606D01*
X2209241Y-8660587D01*
X2204364Y-8662822D01*
X2199589Y-8665311D01*
X2195017Y-8668054D01*
X2186330Y-8674252D01*
X2182266Y-8677706D01*
X2178405Y-8681364D01*
X2174748Y-8685225D01*
X2171293Y-8689289D01*
X2165096Y-8697976D01*
X2162352Y-8702548D01*
X2159863Y-8707323D01*
X2157628Y-8712200D01*
X2155647Y-8717280D01*
X2153970Y-8722410D01*
X2152548Y-8727744D01*
X2151430Y-8733129D01*
X2150668Y-8738666D01*
X2150160Y-8744305D01*
X2150008Y-8749995D01*
X2150008Y-8815832D01*
X2188108Y-8815832D01*
X2188108Y-8780272D01*
X2188514Y-8771940D01*
X2189784Y-8764219D01*
X2191816Y-8757056D01*
X2194712Y-8750554D01*
X2198420Y-8744559D01*
X2202840Y-8739378D01*
X2208072Y-8734907D01*
X2214016Y-8731250D01*
X2220874Y-8728354D01*
X2228443Y-8726271D01*
X2236724Y-8725052D01*
X2245766Y-8724646D01*
X2255266Y-8725052D01*
X2264003Y-8726373D01*
X2271928Y-8728506D01*
X2279040Y-8731504D01*
X2285339Y-8735415D01*
X2290826Y-8740140D01*
X2295398Y-8745575D01*
X2299106Y-8751824D01*
X2302103Y-8758732D01*
X2304288Y-8766352D01*
X2305558Y-8774633D01*
X2305964Y-8783574D01*
X2305964Y-8815832D01*
X2150008Y-8815832D01*
X2150008Y-8852408D01*
X2182012Y-8852408D01*
X2182164Y-8850071D01*
X2182622Y-8847886D01*
X2183333Y-8845854D01*
X2184298Y-8844026D01*
X2185822Y-8842552D01*
X2187752Y-8841536D01*
X2190140Y-8840927D01*
X2192934Y-8840724D01*
X2195677Y-8840927D01*
X2198339Y-8841740D01*
X2305964Y-8841740D01*
X2305964Y-8863330D01*
X2216556Y-8863330D01*
X2216556Y-8841740D01*
X2198339Y-8841740D01*
X2199843Y-8842552D01*
X2201316Y-8844026D01*
X2202434Y-8845854D01*
X2203246Y-8847886D01*
X2203704Y-8850071D01*
X2203856Y-8852408D01*
X2203704Y-8854846D01*
X2203246Y-8857081D01*
X2202434Y-8859164D01*
X2201316Y-8861044D01*
X2199843Y-8862466D01*
X2197963Y-8863533D01*
X2195677Y-8864142D01*
X2192934Y-8864346D01*
X2190140Y-8864142D01*
X2187752Y-8863533D01*
X2185822Y-8862466D01*
X2184298Y-8861044D01*
X2183333Y-8859164D01*
X2182622Y-8857081D01*
X2182164Y-8854846D01*
X2182012Y-8852408D01*
X2150008Y-8852408D01*
X2150008Y-8915400D01*
X2186330Y-8915400D01*
X2186838Y-8906306D01*
X2188362Y-8897874D01*
X2190800Y-8890000D01*
X2193950Y-8882634D01*
X2210968Y-8889746D01*
X2208276Y-8896350D01*
X2206142Y-8902954D01*
X2204821Y-8909558D01*
X2204364Y-8916162D01*
X2204770Y-8920835D01*
X2205888Y-8924798D01*
X2208072Y-8927693D01*
X2210968Y-8929878D01*
X2214270Y-8931198D01*
X2216099Y-8931554D01*
X2220417Y-8931503D01*
X2222550Y-8931097D01*
X2224481Y-8930335D01*
X2226208Y-8929370D01*
X2227834Y-8928049D01*
X2229408Y-8926423D01*
X2232304Y-8922258D01*
X2235555Y-8916416D01*
X2243175Y-8901023D01*
X2247544Y-8894318D01*
X2249830Y-8891320D01*
X2252370Y-8888780D01*
X2255164Y-8886647D01*
X2258212Y-8884920D01*
X2261565Y-8883446D01*
X2265273Y-8882430D01*
X2269337Y-8881821D01*
X2273706Y-8881618D01*
X2278735Y-8881872D01*
X2283409Y-8882735D01*
X2287778Y-8884158D01*
X2291740Y-8886190D01*
X2295347Y-8888882D01*
X2298496Y-8892082D01*
X2301189Y-8895842D01*
X2303424Y-8900160D01*
X2305304Y-8904986D01*
X2306675Y-8910370D01*
X2307488Y-8916314D01*
X2307691Y-8925966D01*
X2307336Y-8932062D01*
X2306574Y-8937701D01*
X2305405Y-8942882D01*
X2303881Y-8947759D01*
X2300884Y-8954770D01*
X2281072Y-8954770D01*
X2284272Y-8947099D01*
X2287168Y-8938768D01*
X2288387Y-8934348D01*
X2289251Y-8930030D01*
X2289810Y-8925864D01*
X2289860Y-8918702D01*
X2289454Y-8916009D01*
X2288844Y-8913622D01*
X2286965Y-8909710D01*
X2285796Y-8908084D01*
X2284425Y-8906764D01*
X2281021Y-8904833D01*
X2277110Y-8903817D01*
X2272538Y-8903868D01*
X2270353Y-8904274D01*
X2268372Y-8904986D01*
X2266594Y-8906002D01*
X2263190Y-8909100D01*
X2259990Y-8913368D01*
X2257094Y-8919108D01*
X2250541Y-8933434D01*
X2246528Y-8940038D01*
X2244242Y-8943035D01*
X2241600Y-8945676D01*
X2238654Y-8947962D01*
X2235352Y-8949944D01*
X2231847Y-8951468D01*
X2227884Y-8952585D01*
X2223465Y-8953246D01*
X2218588Y-8953500D01*
X2213711Y-8953195D01*
X2209190Y-8952280D01*
X2205075Y-8950756D01*
X2201316Y-8948674D01*
X2197862Y-8946134D01*
X2194864Y-8943086D01*
X2192274Y-8939530D01*
X2190140Y-8935466D01*
X2188464Y-8930944D01*
X2187295Y-8926118D01*
X2186584Y-8920937D01*
X2186330Y-8915400D01*
X2150008Y-8915400D01*
X2150008Y-9024874D01*
X2182012Y-9024874D01*
X2182164Y-9022537D01*
X2182622Y-9020403D01*
X2183333Y-9018473D01*
X2184298Y-9016746D01*
X2185822Y-9015171D01*
X2187752Y-9014053D01*
X2190140Y-9013393D01*
X2192934Y-9013190D01*
X2195677Y-9013393D01*
X2198219Y-9014206D01*
X2305964Y-9014206D01*
X2305964Y-9036050D01*
X2216556Y-9036050D01*
X2216556Y-9014206D01*
X2198219Y-9014206D01*
X2199843Y-9015171D01*
X2201316Y-9016746D01*
X2202434Y-9018473D01*
X2203246Y-9020403D01*
X2203704Y-9022537D01*
X2203856Y-9024874D01*
X2203704Y-9027312D01*
X2203246Y-9029547D01*
X2202434Y-9031630D01*
X2201316Y-9033510D01*
X2199843Y-9035034D01*
X2197963Y-9036151D01*
X2195677Y-9036812D01*
X2192934Y-9037066D01*
X2190140Y-9036812D01*
X2187752Y-9036151D01*
X2185822Y-9035034D01*
X2184298Y-9033510D01*
X2183333Y-9031630D01*
X2182622Y-9029547D01*
X2182164Y-9027312D01*
X2182012Y-9024874D01*
X2150008Y-9024874D01*
X2150008Y-9089644D01*
X2214778Y-9089644D01*
X2215286Y-9082989D01*
X2216759Y-9077096D01*
X2219198Y-9071965D01*
X2222652Y-9067546D01*
X2227072Y-9063990D01*
X2232761Y-9061450D01*
X2239670Y-9059926D01*
X2247798Y-9059418D01*
X2305964Y-9059418D01*
X2305964Y-9081262D01*
X2251862Y-9081262D01*
X2247087Y-9081465D01*
X2242972Y-9082125D01*
X2239467Y-9083243D01*
X2236622Y-9084818D01*
X2234438Y-9086799D01*
X2232812Y-9089339D01*
X2231898Y-9092285D01*
X2231542Y-9095740D01*
X2232050Y-9100870D01*
X2233523Y-9105036D01*
X2235962Y-9108338D01*
X2239416Y-9110726D01*
X2243836Y-9112504D01*
X2249068Y-9113774D01*
X2255266Y-9114536D01*
X2262276Y-9114790D01*
X2305964Y-9114790D01*
X2305964Y-9136634D01*
X2216556Y-9136634D01*
X2216556Y-9119870D01*
X2228240Y-9116822D01*
X2228240Y-9115806D01*
X2224074Y-9112707D01*
X2220620Y-9108948D01*
X2219198Y-9106865D01*
X2217064Y-9102394D01*
X2215642Y-9097467D01*
X2214880Y-9092285D01*
X2214778Y-9089644D01*
X2150008Y-9089644D01*
X2150008Y-9171178D01*
X2182012Y-9171178D01*
X2182164Y-9168841D01*
X2182622Y-9166707D01*
X2183333Y-9164777D01*
X2184298Y-9163050D01*
X2185822Y-9161475D01*
X2187752Y-9160357D01*
X2190140Y-9159697D01*
X2192934Y-9159494D01*
X2195677Y-9159697D01*
X2198219Y-9160510D01*
X2305964Y-9160510D01*
X2305964Y-9182354D01*
X2216556Y-9182354D01*
X2216556Y-9160510D01*
X2198219Y-9160510D01*
X2199843Y-9161475D01*
X2201316Y-9163050D01*
X2202434Y-9164777D01*
X2203246Y-9166707D01*
X2203704Y-9168841D01*
X2203856Y-9171178D01*
X2203704Y-9173616D01*
X2203246Y-9175851D01*
X2202434Y-9177934D01*
X2201316Y-9179814D01*
X2199843Y-9181236D01*
X2197963Y-9182303D01*
X2195677Y-9182912D01*
X2192934Y-9183116D01*
X2190140Y-9182912D01*
X2187752Y-9182303D01*
X2185822Y-9181236D01*
X2184298Y-9179814D01*
X2183333Y-9177934D01*
X2182622Y-9175851D01*
X2182164Y-9173616D01*
X2182012Y-9171178D01*
X2150008Y-9171178D01*
X2150008Y-9208262D01*
X2305964Y-9208262D01*
X2305964Y-9229090D01*
X2234793Y-9228937D01*
X2209444Y-9227820D01*
X2209444Y-9228582D01*
X2305964Y-9258046D01*
X2305964Y-9278366D01*
X2209444Y-9307068D01*
X2209444Y-9307830D01*
X2231796Y-9306560D01*
X2238502Y-9306356D01*
X2305964Y-9306306D01*
X2305964Y-9326118D01*
X2188108Y-9326118D01*
X2188108Y-9295892D01*
X2280818Y-9267698D01*
X2280818Y-9267190D01*
X2188108Y-9238742D01*
X2188108Y-9208262D01*
X2150008Y-9208262D01*
X2150008Y-9300819D01*
X2150160Y-9306509D01*
X2150668Y-9312148D01*
X2151430Y-9317634D01*
X2152548Y-9323070D01*
X2153970Y-9328353D01*
X2155647Y-9333534D01*
X2157628Y-9338564D01*
X2159863Y-9343491D01*
X2162352Y-9348216D01*
X2165096Y-9352838D01*
X2171293Y-9361525D01*
X2178405Y-9369450D01*
X2182266Y-9373108D01*
X2190597Y-9379762D01*
X2195017Y-9382760D01*
X2199589Y-9385503D01*
X2204364Y-9387992D01*
X2209241Y-9390227D01*
X2214321Y-9392208D01*
X2219502Y-9393885D01*
X2224786Y-9395307D01*
X2230221Y-9396374D01*
X2235708Y-9397187D01*
X2241346Y-9397695D01*
X2247036Y-9397847D01*
X2252726Y-9397695D01*
X2258364Y-9397187D01*
X2263851Y-9396374D01*
X2269286Y-9395307D01*
X2274570Y-9393885D01*
X2279751Y-9392208D01*
X2284831Y-9390227D01*
X2289708Y-9387992D01*
X2294483Y-9385503D01*
X2299055Y-9382760D01*
X2303475Y-9379762D01*
X2311806Y-9373108D01*
X2319324Y-9365538D01*
X2322779Y-9361525D01*
X2328976Y-9352838D01*
X2331720Y-9348216D01*
X2334209Y-9343491D01*
X2336444Y-9338564D01*
X2338425Y-9333534D01*
X2340102Y-9328353D01*
X2341524Y-9323070D01*
X2342642Y-9317634D01*
X2343404Y-9312148D01*
X2343912Y-9306509D01*
X2344064Y-9300819D01*
X2344064Y-8749995D01*
X2343912Y-8744305D01*
X2343404Y-8738666D01*
X2342642Y-8733129D01*
X2341524Y-8727744D01*
X2340102Y-8722410D01*
X2338425Y-8717280D01*
X2336444Y-8712200D01*
X2334209Y-8707323D01*
X2331720Y-8702548D01*
X2328976Y-8697976D01*
X2322779Y-8689289D01*
X2319324Y-8685225D01*
X2315667Y-8681364D01*
X2311806Y-8677706D01*
X2307742Y-8674252D01*
X2299055Y-8668054D01*
X2294483Y-8665311D01*
X2289708Y-8662822D01*
X2284831Y-8660587D01*
X2279751Y-8658606D01*
X2274570Y-8656929D01*
X2269286Y-8655507D01*
X2263851Y-8654389D01*
X2258364Y-8653576D01*
X2252726Y-8653119D01*
G37*
G36*
X2246528Y-8747760D02*
G01*
X2239873Y-8747963D01*
X2233777Y-8748623D01*
X2228291Y-8749741D01*
X2223414Y-8751316D01*
X2219147Y-8753449D01*
X2215489Y-8755989D01*
X2212441Y-8759037D01*
X2209952Y-8762492D01*
X2208072Y-8766352D01*
X2206752Y-8770670D01*
X2205939Y-8775395D01*
X2205634Y-8780526D01*
X2205634Y-8793734D01*
X2288184Y-8793734D01*
X2288184Y-8783066D01*
X2287524Y-8774633D01*
X2285593Y-8767368D01*
X2282342Y-8761272D01*
X2277770Y-8756396D01*
X2271928Y-8752586D01*
X2264765Y-8749893D01*
X2256282Y-8748268D01*
G37*
G36*
X2296464Y-6656831D02*
G01*
X2282952Y-6657898D01*
X2271318Y-6661099D01*
X2266188Y-6663588D01*
X2261666Y-6666585D01*
X2257806Y-6670192D01*
X2254554Y-6674307D01*
X2252014Y-6679082D01*
X2250186Y-6684416D01*
X2249068Y-6690359D01*
X2248712Y-6696964D01*
X2248966Y-6703669D01*
X2249728Y-6709664D01*
X2251100Y-6715150D01*
X2253030Y-6720535D01*
X2267254Y-6720535D01*
X2265426Y-6715201D01*
X2263952Y-6709867D01*
X2263038Y-6704482D01*
X2262682Y-6698996D01*
X2262936Y-6695084D01*
X2263698Y-6691528D01*
X2264968Y-6688328D01*
X2266746Y-6685483D01*
X2268982Y-6682994D01*
X2271674Y-6680860D01*
X2274722Y-6679082D01*
X2278176Y-6677609D01*
X2282190Y-6676390D01*
X2286508Y-6675526D01*
X2291181Y-6675018D01*
X2300071Y-6674967D01*
X2303627Y-6675272D01*
X2310180Y-6676593D01*
X2313228Y-6677456D01*
X2318562Y-6679742D01*
X2322982Y-6682790D01*
X2324862Y-6684568D01*
X2326436Y-6686499D01*
X2327706Y-6688581D01*
X2328722Y-6690868D01*
X2329434Y-6693306D01*
X2329840Y-6695846D01*
X2329992Y-6698488D01*
X2329586Y-6703872D01*
X2329027Y-6706412D01*
X2324404Y-6718249D01*
X2337866Y-6724091D01*
X2340559Y-6718401D01*
X2343251Y-6708546D01*
X2344115Y-6701942D01*
X2344216Y-6698691D01*
X2344013Y-6693763D01*
X2343353Y-6689140D01*
X2342235Y-6684772D01*
X2340660Y-6680657D01*
X2338730Y-6676999D01*
X2336393Y-6673646D01*
X2333752Y-6670548D01*
X2330754Y-6667703D01*
X2327452Y-6665214D01*
X2323795Y-6663029D01*
X2319832Y-6661150D01*
X2315514Y-6659575D01*
X2311095Y-6658356D01*
X2306472Y-6657492D01*
X2301595Y-6656984D01*
G37*
G36*
X2320594Y-6735775D02*
G01*
X2310434Y-6744716D01*
X2319629Y-6755231D01*
X2325420Y-6760667D01*
X2319832Y-6760464D01*
X2249982Y-6760464D01*
X2249982Y-6777685D01*
X2342692Y-6777685D01*
X2342692Y-6762699D01*
G37*
G36*
X2296464Y-7331811D02*
G01*
X2282952Y-7332878D01*
X2271318Y-7336129D01*
X2266188Y-7338568D01*
X2261666Y-7341565D01*
X2257806Y-7345172D01*
X2254554Y-7349337D01*
X2252014Y-7354062D01*
X2250186Y-7359446D01*
X2249068Y-7365390D01*
X2248712Y-7371943D01*
X2248966Y-7378649D01*
X2249728Y-7384643D01*
X2251100Y-7390180D01*
X2253030Y-7395565D01*
X2267254Y-7395565D01*
X2265426Y-7390231D01*
X2263952Y-7384897D01*
X2263038Y-7379512D01*
X2262682Y-7373975D01*
X2262936Y-7370064D01*
X2263698Y-7366558D01*
X2264968Y-7363358D01*
X2266746Y-7360513D01*
X2268982Y-7358024D01*
X2271674Y-7355890D01*
X2274722Y-7354062D01*
X2278176Y-7352639D01*
X2282190Y-7351420D01*
X2286508Y-7350556D01*
X2291181Y-7349998D01*
X2300071Y-7349947D01*
X2307031Y-7350861D01*
X2313228Y-7352487D01*
X2316022Y-7353503D01*
X2318562Y-7354773D01*
X2322982Y-7357770D01*
X2324862Y-7359548D01*
X2326436Y-7361478D01*
X2327706Y-7363561D01*
X2328722Y-7365898D01*
X2329434Y-7368336D01*
X2329840Y-7370825D01*
X2329992Y-7373467D01*
X2329586Y-7378852D01*
X2329027Y-7381392D01*
X2326386Y-7388656D01*
X2324404Y-7393279D01*
X2337866Y-7399121D01*
X2340559Y-7393381D01*
X2342438Y-7386929D01*
X2343810Y-7380173D01*
X2344216Y-7373721D01*
X2344013Y-7368794D01*
X2343353Y-7364120D01*
X2342235Y-7359751D01*
X2340660Y-7355687D01*
X2338730Y-7352030D01*
X2336444Y-7348626D01*
X2333752Y-7345527D01*
X2330754Y-7342733D01*
X2327452Y-7340244D01*
X2323795Y-7338009D01*
X2319832Y-7336180D01*
X2315514Y-7334605D01*
X2311095Y-7333386D01*
X2306472Y-7332522D01*
X2301595Y-7331964D01*
G37*
G36*
X2331770Y-7407757D02*
G01*
X2320848Y-7417409D01*
X2324862Y-7422235D01*
X2326436Y-7424623D01*
X2328824Y-7429398D01*
X2329637Y-7431735D01*
X2330094Y-7434224D01*
X2330246Y-7436713D01*
X2330043Y-7439253D01*
X2329434Y-7441488D01*
X2328418Y-7443419D01*
X2326944Y-7445095D01*
X2325217Y-7446518D01*
X2323084Y-7447584D01*
X2320544Y-7448194D01*
X2317546Y-7448397D01*
X2312466Y-7447889D01*
X2307894Y-7446365D01*
X2303221Y-7444028D01*
X2298242Y-7440523D01*
X2286050Y-7429855D01*
X2262174Y-7408011D01*
X2249982Y-7408011D01*
X2249982Y-7468463D01*
X2264206Y-7468463D01*
X2264206Y-7429855D01*
X2264968Y-7429855D01*
X2291994Y-7454036D01*
X2296718Y-7457694D01*
X2301443Y-7460843D01*
X2306269Y-7463281D01*
X2311146Y-7464806D01*
X2316327Y-7465568D01*
X2319070Y-7465669D01*
X2322677Y-7465466D01*
X2326030Y-7464856D01*
X2329129Y-7463790D01*
X2332024Y-7462367D01*
X2334666Y-7460538D01*
X2337054Y-7458354D01*
X2339136Y-7455814D01*
X2340914Y-7452969D01*
X2342388Y-7449667D01*
X2343404Y-7446111D01*
X2344013Y-7442301D01*
X2344216Y-7438237D01*
X2343810Y-7431379D01*
X2343251Y-7428331D01*
X2341524Y-7422794D01*
X2339238Y-7417866D01*
X2336444Y-7413599D01*
G37*
G36*
X1846478Y-5856833D02*
G01*
X1832965Y-5857900D01*
X1821332Y-5861151D01*
X1816201Y-5863590D01*
X1811680Y-5866587D01*
X1807819Y-5870194D01*
X1804568Y-5874359D01*
X1802028Y-5879084D01*
X1800199Y-5884418D01*
X1799082Y-5890361D01*
X1798726Y-5896914D01*
X1798980Y-5903671D01*
X1799742Y-5909614D01*
X1801063Y-5915152D01*
X1803044Y-5920536D01*
X1817268Y-5920536D01*
X1815439Y-5915202D01*
X1813966Y-5909868D01*
X1813001Y-5904484D01*
X1812696Y-5898946D01*
X1812950Y-5895086D01*
X1813712Y-5891530D01*
X1814982Y-5888329D01*
X1816760Y-5885535D01*
X1818995Y-5882995D01*
X1821637Y-5880862D01*
X1824736Y-5879084D01*
X1828190Y-5877610D01*
X1832152Y-5876391D01*
X1836521Y-5875528D01*
X1841195Y-5875020D01*
X1850034Y-5874969D01*
X1853641Y-5875274D01*
X1860194Y-5876594D01*
X1863242Y-5877458D01*
X1868576Y-5879744D01*
X1872996Y-5882792D01*
X1874875Y-5884570D01*
X1876450Y-5886500D01*
X1877720Y-5888583D01*
X1878736Y-5890869D01*
X1879447Y-5893308D01*
X1879854Y-5895848D01*
X1880006Y-5898438D01*
X1879904Y-5901232D01*
X1878990Y-5906414D01*
X1877314Y-5911291D01*
X1874418Y-5918301D01*
X1887880Y-5924143D01*
X1890522Y-5918403D01*
X1892452Y-5911951D01*
X1893773Y-5905195D01*
X1894230Y-5898743D01*
X1894027Y-5893765D01*
X1893366Y-5889142D01*
X1892249Y-5884773D01*
X1890674Y-5880709D01*
X1888743Y-5877001D01*
X1886407Y-5873648D01*
X1883765Y-5870549D01*
X1880768Y-5867704D01*
X1877415Y-5865215D01*
X1873808Y-5863031D01*
X1869795Y-5861151D01*
X1865528Y-5859627D01*
X1861108Y-5858357D01*
X1856435Y-5857494D01*
X1851558Y-5856986D01*
G37*
G36*
X1861972Y-5932728D02*
G01*
X1857552Y-5932932D01*
X1853539Y-5933541D01*
X1849831Y-5934456D01*
X1846478Y-5935827D01*
X1843379Y-5937453D01*
X1840687Y-5939434D01*
X1838452Y-5941669D01*
X1836572Y-5944209D01*
X1835150Y-5947054D01*
X1834083Y-5950153D01*
X1833473Y-5953404D01*
X1833270Y-5956909D01*
X1833550Y-5961735D01*
X1845970Y-5961735D01*
X1846224Y-5958840D01*
X1847037Y-5956350D01*
X1848408Y-5954268D01*
X1850288Y-5952591D01*
X1852675Y-5951220D01*
X1855419Y-5950254D01*
X1858619Y-5949696D01*
X1862226Y-5949543D01*
X1866646Y-5949746D01*
X1870405Y-5950407D01*
X1873605Y-5951524D01*
X1876196Y-5953099D01*
X1878177Y-5954979D01*
X1879600Y-5957112D01*
X1880463Y-5959551D01*
X1880768Y-5962243D01*
X1880666Y-5963920D01*
X1879752Y-5966968D01*
X1878025Y-5969558D01*
X1875739Y-5971692D01*
X1874418Y-5972657D01*
X1871218Y-5974130D01*
X1864207Y-5975959D01*
X1860448Y-5976162D01*
X1856943Y-5975756D01*
X1853590Y-5974435D01*
X1850593Y-5972251D01*
X1847240Y-5967730D01*
X1846529Y-5965901D01*
X1846122Y-5963920D01*
X1845970Y-5961735D01*
X1833550Y-5961735D01*
X1834540Y-5966307D01*
X1836267Y-5969711D01*
X1838350Y-5972352D01*
X1841042Y-5974537D01*
X1843938Y-5976467D01*
X1843938Y-5977178D01*
X1837334Y-5976670D01*
X1831238Y-5975654D01*
X1828393Y-5974842D01*
X1823313Y-5972556D01*
X1821078Y-5971133D01*
X1819046Y-5969355D01*
X1817217Y-5967374D01*
X1815592Y-5965139D01*
X1814220Y-5962751D01*
X1813204Y-5959856D01*
X1812493Y-5956655D01*
X1812086Y-5952998D01*
X1811934Y-5947613D01*
X1812442Y-5942330D01*
X1813204Y-5938570D01*
X1799742Y-5938570D01*
X1798980Y-5944209D01*
X1798726Y-5950254D01*
X1799031Y-5956452D01*
X1799843Y-5962091D01*
X1801317Y-5967120D01*
X1803298Y-5971641D01*
X1805787Y-5975604D01*
X1808632Y-5979109D01*
X1811883Y-5982208D01*
X1815490Y-5984849D01*
X1819402Y-5987084D01*
X1823618Y-5988964D01*
X1828088Y-5990488D01*
X1832762Y-5991707D01*
X1842770Y-5993028D01*
X1853082Y-5993485D01*
X1858111Y-5993333D01*
X1862836Y-5992876D01*
X1867255Y-5992164D01*
X1871370Y-5991199D01*
X1875028Y-5989777D01*
X1878380Y-5988202D01*
X1881378Y-5986373D01*
X1884070Y-5984341D01*
X1886457Y-5982055D01*
X1888540Y-5979668D01*
X1890268Y-5977128D01*
X1891690Y-5974435D01*
X1892807Y-5971438D01*
X1893570Y-5968390D01*
X1894078Y-5965240D01*
X1894230Y-5961938D01*
X1893976Y-5957671D01*
X1893214Y-5953658D01*
X1891944Y-5949899D01*
X1890166Y-5946444D01*
X1888032Y-5943346D01*
X1885543Y-5940602D01*
X1882597Y-5938266D01*
X1879244Y-5936335D01*
X1875485Y-5934760D01*
X1871370Y-5933643D01*
X1866849Y-5932982D01*
G37*
G36*
X2296464Y-6106820D02*
G01*
X2282952Y-6107887D01*
X2271318Y-6111138D01*
X2266188Y-6113576D01*
X2261666Y-6116574D01*
X2257806Y-6120180D01*
X2254554Y-6124346D01*
X2252014Y-6129070D01*
X2250186Y-6134404D01*
X2249068Y-6140399D01*
X2248712Y-6146952D01*
X2248966Y-6153658D01*
X2249728Y-6159652D01*
X2251100Y-6165138D01*
X2253030Y-6170574D01*
X2267254Y-6170574D01*
X2265426Y-6165240D01*
X2263952Y-6159906D01*
X2263038Y-6154470D01*
X2262682Y-6148984D01*
X2262936Y-6145072D01*
X2263698Y-6141516D01*
X2264968Y-6138367D01*
X2266746Y-6135522D01*
X2268982Y-6133033D01*
X2271674Y-6130899D01*
X2274722Y-6129070D01*
X2278176Y-6127648D01*
X2282190Y-6126429D01*
X2286508Y-6125514D01*
X2291181Y-6125006D01*
X2300071Y-6124956D01*
X2307031Y-6125819D01*
X2313228Y-6127496D01*
X2316022Y-6128512D01*
X2318562Y-6129782D01*
X2322982Y-6132779D01*
X2324862Y-6134557D01*
X2326436Y-6136487D01*
X2327706Y-6138570D01*
X2328722Y-6140907D01*
X2329434Y-6143294D01*
X2329840Y-6145834D01*
X2329992Y-6148476D01*
X2329586Y-6153861D01*
X2329027Y-6156401D01*
X2324404Y-6168288D01*
X2337866Y-6174130D01*
X2340559Y-6168390D01*
X2342438Y-6161938D01*
X2343810Y-6155182D01*
X2344216Y-6148730D01*
X2344013Y-6143802D01*
X2343353Y-6139129D01*
X2342235Y-6134760D01*
X2340660Y-6130696D01*
X2338730Y-6127038D01*
X2336444Y-6123635D01*
X2333752Y-6120536D01*
X2330754Y-6117742D01*
X2327452Y-6115202D01*
X2323795Y-6113018D01*
X2319832Y-6111138D01*
X2315514Y-6109614D01*
X2311095Y-6108395D01*
X2306472Y-6107480D01*
X2301595Y-6106972D01*
G37*
G36*
X2320594Y-6185814D02*
G01*
X2310434Y-6194704D01*
X2319629Y-6205220D01*
X2325420Y-6210706D01*
X2319832Y-6210452D01*
X2249982Y-6210452D01*
X2249982Y-6227724D01*
X2342692Y-6227724D01*
X2342692Y-6212738D01*
G37*
G36*
X2253792Y-6253124D02*
G01*
X2251608Y-6258814D01*
X2249982Y-6264808D01*
X2249068Y-6271006D01*
X2248712Y-6278016D01*
X2248966Y-6283807D01*
X2249627Y-6289141D01*
X2250744Y-6293866D01*
X2252268Y-6298082D01*
X2254351Y-6301638D01*
X2256739Y-6304737D01*
X2259431Y-6307378D01*
X2262428Y-6309512D01*
X2265730Y-6311036D01*
X2269185Y-6312154D01*
X2272842Y-6312814D01*
X2276652Y-6313068D01*
X2281123Y-6312712D01*
X2285136Y-6311747D01*
X2288641Y-6310071D01*
X2291638Y-6307734D01*
X2294178Y-6304737D01*
X2296160Y-6301079D01*
X2297582Y-6296710D01*
X2298496Y-6291732D01*
X2298750Y-6291732D01*
X2300630Y-6296914D01*
X2301748Y-6299250D01*
X2303068Y-6301384D01*
X2304694Y-6303416D01*
X2308504Y-6306870D01*
X2310688Y-6308242D01*
X2313076Y-6309207D01*
X2315718Y-6309918D01*
X2318562Y-6310376D01*
X2321610Y-6310528D01*
X2326538Y-6310071D01*
X2330958Y-6308699D01*
X2334818Y-6306362D01*
X2338120Y-6303162D01*
X2340813Y-6299047D01*
X2342692Y-6294170D01*
X2343861Y-6288532D01*
X2344216Y-6282080D01*
X2343912Y-6275984D01*
X2342946Y-6270396D01*
X2341422Y-6265367D01*
X2340508Y-6263081D01*
X2338374Y-6258915D01*
X2336088Y-6255054D01*
X2334818Y-6253378D01*
X2323388Y-6261252D01*
X2325166Y-6263538D01*
X2326944Y-6266332D01*
X2328367Y-6269329D01*
X2329484Y-6272682D01*
X2330246Y-6276594D01*
X2330500Y-6280810D01*
X2330348Y-6283655D01*
X2329738Y-6286195D01*
X2328824Y-6288379D01*
X2327452Y-6290208D01*
X2325776Y-6291630D01*
X2323795Y-6292697D01*
X2321458Y-6293307D01*
X2318816Y-6293510D01*
X2314752Y-6293002D01*
X2311196Y-6291478D01*
X2309672Y-6290310D01*
X2308301Y-6288836D01*
X2307132Y-6287109D01*
X2306116Y-6285128D01*
X2305354Y-6282842D01*
X2304796Y-6280150D01*
X2304440Y-6277000D01*
X2304338Y-6266586D01*
X2291130Y-6266586D01*
X2291029Y-6277152D01*
X2290775Y-6280454D01*
X2289606Y-6285890D01*
X2288794Y-6288024D01*
X2287778Y-6289852D01*
X2286609Y-6291427D01*
X2285288Y-6292748D01*
X2281885Y-6294272D01*
X2277668Y-6294780D01*
X2274214Y-6294526D01*
X2271166Y-6293764D01*
X2268474Y-6292494D01*
X2266238Y-6290716D01*
X2264460Y-6288278D01*
X2263190Y-6285128D01*
X2262428Y-6281166D01*
X2262174Y-6276492D01*
X2262581Y-6270904D01*
X2263698Y-6264808D01*
X2265629Y-6258814D01*
X2268270Y-6253124D01*
G37*
G36*
X1373682Y-8055762D02*
G01*
X1368755Y-8055965D01*
X1364132Y-8056625D01*
X1359865Y-8057743D01*
X1355852Y-8059318D01*
X1352092Y-8061248D01*
X1348638Y-8063585D01*
X1345488Y-8066227D01*
X1342644Y-8069224D01*
X1340154Y-8072526D01*
X1337970Y-8076184D01*
X1336090Y-8080146D01*
X1334566Y-8084464D01*
X1333449Y-8088884D01*
X1332636Y-8093506D01*
X1332179Y-8098383D01*
X1331976Y-8103514D01*
X1332992Y-8117027D01*
X1336090Y-8128660D01*
X1338529Y-8133791D01*
X1341526Y-8138312D01*
X1345133Y-8142173D01*
X1349298Y-8145424D01*
X1354023Y-8147964D01*
X1359357Y-8149793D01*
X1365300Y-8150910D01*
X1371854Y-8151266D01*
X1378610Y-8151012D01*
X1384554Y-8150250D01*
X1390091Y-8148878D01*
X1395476Y-8146948D01*
X1395476Y-8132724D01*
X1390142Y-8134553D01*
X1384858Y-8136026D01*
X1379423Y-8136991D01*
X1373886Y-8137296D01*
X1370025Y-8137042D01*
X1366469Y-8136280D01*
X1363268Y-8135010D01*
X1360474Y-8133232D01*
X1357934Y-8130997D01*
X1355801Y-8128304D01*
X1354023Y-8125256D01*
X1352600Y-8121802D01*
X1351483Y-8117789D01*
X1350670Y-8113471D01*
X1350213Y-8108797D01*
X1350010Y-8103768D01*
X1350416Y-8096300D01*
X1351534Y-8089798D01*
X1352397Y-8086750D01*
X1354683Y-8081416D01*
X1357731Y-8076996D01*
X1359509Y-8075117D01*
X1361440Y-8073542D01*
X1363522Y-8072272D01*
X1365808Y-8071256D01*
X1368247Y-8070545D01*
X1370787Y-8070138D01*
X1373378Y-8069986D01*
X1378813Y-8070392D01*
X1381353Y-8070951D01*
X1393240Y-8075574D01*
X1399082Y-8062112D01*
X1393545Y-8059420D01*
X1387094Y-8057540D01*
X1380185Y-8056168D01*
G37*
G36*
X1436878Y-8055762D02*
G01*
X1430629Y-8056067D01*
X1424990Y-8057032D01*
X1420063Y-8058556D01*
X1415592Y-8060588D01*
X1411630Y-8062722D01*
X1407972Y-8065160D01*
X1415796Y-8076590D01*
X1420876Y-8073034D01*
X1423924Y-8071612D01*
X1427530Y-8070494D01*
X1431239Y-8069732D01*
X1435354Y-8069478D01*
X1438249Y-8069630D01*
X1440789Y-8070240D01*
X1442974Y-8071154D01*
X1444752Y-8072526D01*
X1446225Y-8074202D01*
X1447241Y-8076184D01*
X1447850Y-8078520D01*
X1448054Y-8081162D01*
X1447952Y-8083245D01*
X1446936Y-8087055D01*
X1446072Y-8088782D01*
X1445006Y-8090306D01*
X1443634Y-8091678D01*
X1441958Y-8092846D01*
X1439926Y-8093862D01*
X1437589Y-8094624D01*
X1434846Y-8095183D01*
X1431747Y-8095538D01*
X1421384Y-8095640D01*
X1421384Y-8108848D01*
X1431848Y-8108950D01*
X1435252Y-8109203D01*
X1440738Y-8110372D01*
X1442821Y-8111185D01*
X1444650Y-8112201D01*
X1446123Y-8113369D01*
X1447342Y-8114690D01*
X1448308Y-8116316D01*
X1449019Y-8118094D01*
X1449476Y-8120125D01*
X1449578Y-8122310D01*
X1449324Y-8125764D01*
X1448511Y-8128812D01*
X1447190Y-8131505D01*
X1445260Y-8133740D01*
X1442872Y-8135518D01*
X1439722Y-8136788D01*
X1435760Y-8137550D01*
X1431036Y-8137804D01*
X1425549Y-8137398D01*
X1419656Y-8136280D01*
X1413459Y-8134350D01*
X1407668Y-8131708D01*
X1407668Y-8146186D01*
X1413408Y-8148421D01*
X1419352Y-8149996D01*
X1425803Y-8150961D01*
X1432864Y-8151266D01*
X1438656Y-8151012D01*
X1443888Y-8150352D01*
X1448562Y-8149234D01*
X1452626Y-8147710D01*
X1456334Y-8145627D01*
X1459433Y-8143240D01*
X1462024Y-8140547D01*
X1464106Y-8137550D01*
X1465630Y-8134248D01*
X1466748Y-8130794D01*
X1467408Y-8127136D01*
X1467612Y-8123326D01*
X1467307Y-8118856D01*
X1466291Y-8114893D01*
X1464614Y-8111337D01*
X1462278Y-8108340D01*
X1459280Y-8105800D01*
X1455623Y-8103819D01*
X1451305Y-8102396D01*
X1446276Y-8101482D01*
X1446276Y-8101228D01*
X1451559Y-8099399D01*
X1456232Y-8096910D01*
X1458163Y-8095284D01*
X1461465Y-8091474D01*
X1462786Y-8089290D01*
X1463903Y-8086902D01*
X1464716Y-8084261D01*
X1465173Y-8081416D01*
X1465326Y-8078368D01*
X1464868Y-8073440D01*
X1463446Y-8069021D01*
X1461058Y-8065160D01*
X1457756Y-8061858D01*
X1453642Y-8059166D01*
X1448866Y-8057286D01*
X1443228Y-8056118D01*
G37*
G36*
X1446479Y-9031986D02*
G01*
X1432966Y-9033002D01*
X1421333Y-9036050D01*
X1416202Y-9038488D01*
X1411681Y-9041536D01*
X1407820Y-9045092D01*
X1404569Y-9049258D01*
X1402029Y-9053982D01*
X1400200Y-9059367D01*
X1399082Y-9065310D01*
X1398727Y-9071864D01*
X1398981Y-9078620D01*
X1399743Y-9084564D01*
X1401064Y-9090101D01*
X1403045Y-9095486D01*
X1417269Y-9095486D01*
X1415440Y-9090152D01*
X1413967Y-9084818D01*
X1413002Y-9079433D01*
X1412697Y-9073896D01*
X1412951Y-9069984D01*
X1413713Y-9066479D01*
X1414983Y-9063278D01*
X1416761Y-9060434D01*
X1418996Y-9057944D01*
X1421638Y-9055811D01*
X1424736Y-9053982D01*
X1428191Y-9052560D01*
X1432153Y-9051442D01*
X1436522Y-9050680D01*
X1441196Y-9050172D01*
X1450035Y-9050121D01*
X1457045Y-9050883D01*
X1463243Y-9052407D01*
X1468577Y-9054693D01*
X1472996Y-9057741D01*
X1474876Y-9059468D01*
X1476451Y-9061399D01*
X1477721Y-9063482D01*
X1478737Y-9065818D01*
X1479448Y-9068257D01*
X1479854Y-9070746D01*
X1480007Y-9073388D01*
X1479905Y-9076131D01*
X1478991Y-9081363D01*
X1476400Y-9088577D01*
X1474419Y-9093200D01*
X1487881Y-9099042D01*
X1489303Y-9096400D01*
X1491589Y-9090406D01*
X1493215Y-9083598D01*
X1494129Y-9076842D01*
X1494231Y-9073642D01*
X1494028Y-9068714D01*
X1493367Y-9064142D01*
X1492250Y-9059824D01*
X1490675Y-9055862D01*
X1488744Y-9052102D01*
X1486408Y-9048648D01*
X1483766Y-9045498D01*
X1480769Y-9042654D01*
X1477416Y-9040164D01*
X1473809Y-9037980D01*
X1469796Y-9036100D01*
X1465529Y-9034526D01*
X1461109Y-9033408D01*
X1456436Y-9032646D01*
X1451559Y-9032138D01*
G37*
G36*
X1419809Y-9105138D02*
G01*
X1419809Y-9120632D01*
X1433271Y-9120632D01*
X1465529Y-9139072D01*
X1474419Y-9143492D01*
X1474419Y-9144000D01*
X1459687Y-9143238D01*
X1433271Y-9143238D01*
X1433271Y-9120632D01*
X1419809Y-9120632D01*
X1419809Y-9143238D01*
X1399997Y-9143238D01*
X1399997Y-9160256D01*
X1419809Y-9160256D01*
X1419809Y-9171178D01*
X1433271Y-9171178D01*
X1433271Y-9160256D01*
X1492961Y-9160256D01*
X1492961Y-9143746D01*
X1432001Y-9105138D01*
G37*
G36*
X1923643Y-8730742D02*
G01*
X1918716Y-8730996D01*
X1914143Y-8731656D01*
X1909825Y-8732774D01*
X1905863Y-8734298D01*
X1902104Y-8736279D01*
X1898650Y-8738565D01*
X1895500Y-8741206D01*
X1892655Y-8744204D01*
X1890166Y-8747556D01*
X1887982Y-8751214D01*
X1886102Y-8755176D01*
X1884527Y-8759444D01*
X1883410Y-8763863D01*
X1882648Y-8768537D01*
X1882139Y-8773414D01*
X1881987Y-8778494D01*
X1883003Y-8792006D01*
X1886051Y-8803640D01*
X1888489Y-8808770D01*
X1891538Y-8813292D01*
X1895093Y-8817152D01*
X1899259Y-8820404D01*
X1904034Y-8822944D01*
X1909368Y-8824772D01*
X1915312Y-8825890D01*
X1921865Y-8826246D01*
X1928622Y-8825992D01*
X1934565Y-8825230D01*
X1940102Y-8823909D01*
X1945487Y-8821928D01*
X1945487Y-8807704D01*
X1940153Y-8809532D01*
X1934819Y-8811006D01*
X1929434Y-8811971D01*
X1923897Y-8812276D01*
X1920036Y-8812022D01*
X1916480Y-8811260D01*
X1913280Y-8809990D01*
X1910435Y-8808212D01*
X1907946Y-8805976D01*
X1905812Y-8803335D01*
X1904034Y-8800287D01*
X1902561Y-8796782D01*
X1901443Y-8792819D01*
X1900682Y-8788450D01*
X1900174Y-8783777D01*
X1900123Y-8774938D01*
X1900885Y-8767927D01*
X1902409Y-8761730D01*
X1904695Y-8756396D01*
X1907743Y-8751976D01*
X1909521Y-8750096D01*
X1911400Y-8748522D01*
X1913483Y-8747252D01*
X1915820Y-8746236D01*
X1918258Y-8745524D01*
X1920798Y-8745118D01*
X1923389Y-8744966D01*
X1926132Y-8745067D01*
X1931365Y-8745982D01*
X1938578Y-8748572D01*
X1943201Y-8750554D01*
X1949043Y-8737092D01*
X1946402Y-8735669D01*
X1940458Y-8733383D01*
X1933600Y-8731758D01*
X1926894Y-8730843D01*
G37*
G36*
X1964537Y-8732266D02*
G01*
X1961235Y-8778240D01*
X1968347Y-8782050D01*
X1974443Y-8780780D01*
X1978202Y-8780221D01*
X1981809Y-8780018D01*
X1986076Y-8780272D01*
X1989785Y-8781034D01*
X1992833Y-8782304D01*
X1995271Y-8784082D01*
X1997303Y-8786368D01*
X1998725Y-8789111D01*
X1999589Y-8792311D01*
X1999843Y-8796020D01*
X1999742Y-8798712D01*
X1998725Y-8803386D01*
X1997811Y-8805418D01*
X1996592Y-8807196D01*
X1995170Y-8808669D01*
X1993544Y-8809837D01*
X1989734Y-8811514D01*
X1985010Y-8812428D01*
X1979472Y-8812428D01*
X1973529Y-8811666D01*
X1970379Y-8811006D01*
X1964486Y-8809024D01*
X1959457Y-8806688D01*
X1959457Y-8821166D01*
X1961743Y-8822385D01*
X1967077Y-8824264D01*
X1973224Y-8825534D01*
X1979726Y-8826195D01*
X1983079Y-8826246D01*
X1988464Y-8825992D01*
X1993392Y-8825280D01*
X1997862Y-8824112D01*
X2001875Y-8822436D01*
X2005482Y-8820353D01*
X2008581Y-8817813D01*
X2011172Y-8814866D01*
X2013305Y-8811514D01*
X2015083Y-8807805D01*
X2016353Y-8803690D01*
X2017115Y-8799271D01*
X2017369Y-8794496D01*
X2017166Y-8790127D01*
X2016506Y-8786114D01*
X2015388Y-8782507D01*
X2013813Y-8779256D01*
X2011883Y-8776411D01*
X2009597Y-8773871D01*
X2006904Y-8771686D01*
X2003907Y-8769858D01*
X2000707Y-8768435D01*
X1997252Y-8767368D01*
X1993493Y-8766759D01*
X1987397Y-8766606D01*
X1983943Y-8766860D01*
X1977745Y-8767826D01*
X1979523Y-8746490D01*
X2011273Y-8746490D01*
X2011273Y-8732266D01*
G37*
G36*
X1696466Y-8382000D02*
G01*
X1682953Y-8383016D01*
X1671320Y-8386064D01*
X1666189Y-8388502D01*
X1661668Y-8391499D01*
X1657807Y-8395106D01*
X1654556Y-8399272D01*
X1652016Y-8403996D01*
X1650187Y-8409381D01*
X1649069Y-8415324D01*
X1648714Y-8421878D01*
X1648968Y-8428583D01*
X1649730Y-8434578D01*
X1651050Y-8440115D01*
X1653032Y-8445500D01*
X1667256Y-8445500D01*
X1665427Y-8440166D01*
X1663954Y-8434832D01*
X1662988Y-8429447D01*
X1662684Y-8423910D01*
X1662938Y-8419998D01*
X1663700Y-8416493D01*
X1664970Y-8413292D01*
X1666748Y-8410448D01*
X1668983Y-8407958D01*
X1671675Y-8405825D01*
X1674723Y-8403996D01*
X1678178Y-8402574D01*
X1682191Y-8401456D01*
X1686509Y-8400643D01*
X1691182Y-8400186D01*
X1700072Y-8400135D01*
X1703679Y-8400389D01*
X1710182Y-8401558D01*
X1716024Y-8403437D01*
X1718564Y-8404707D01*
X1722983Y-8407704D01*
X1724863Y-8409482D01*
X1726438Y-8411413D01*
X1727707Y-8413496D01*
X1728724Y-8415832D01*
X1729435Y-8418271D01*
X1729841Y-8420760D01*
X1729993Y-8423402D01*
X1729892Y-8426145D01*
X1729028Y-8431326D01*
X1726387Y-8438591D01*
X1724406Y-8443214D01*
X1737868Y-8449056D01*
X1740560Y-8443518D01*
X1742439Y-8437118D01*
X1743811Y-8430209D01*
X1744218Y-8423656D01*
X1744014Y-8418728D01*
X1743354Y-8414105D01*
X1742236Y-8409838D01*
X1740662Y-8405876D01*
X1738731Y-8402066D01*
X1736445Y-8398611D01*
X1733753Y-8395462D01*
X1730756Y-8392668D01*
X1727454Y-8390128D01*
X1723796Y-8387943D01*
X1719834Y-8386064D01*
X1715516Y-8384540D01*
X1711096Y-8383422D01*
X1706473Y-8382609D01*
X1701596Y-8382152D01*
G37*
G36*
X1689607Y-8457946D02*
G01*
X1684578Y-8458098D01*
X1679854Y-8458555D01*
X1675434Y-8459368D01*
X1671320Y-8460486D01*
X1667662Y-8461756D01*
X1664360Y-8463280D01*
X1661312Y-8465058D01*
X1658620Y-8467090D01*
X1656283Y-8469325D01*
X1654251Y-8471763D01*
X1652574Y-8474405D01*
X1650136Y-8480094D01*
X1649374Y-8483092D01*
X1648866Y-8486190D01*
X1648725Y-8489188D01*
X1662175Y-8489188D01*
X1662277Y-8487460D01*
X1663192Y-8484412D01*
X1664817Y-8481872D01*
X1667103Y-8479688D01*
X1670100Y-8477961D01*
X1673402Y-8476691D01*
X1676907Y-8475878D01*
X1680464Y-8475522D01*
X1684020Y-8475573D01*
X1685747Y-8475827D01*
X1689100Y-8476996D01*
X1690725Y-8477961D01*
X1693519Y-8480501D01*
X1695602Y-8483650D01*
X1696618Y-8487359D01*
X1696720Y-8489442D01*
X1696466Y-8492388D01*
X1695653Y-8494979D01*
X1694281Y-8497112D01*
X1692402Y-8498840D01*
X1689963Y-8500160D01*
X1687118Y-8501126D01*
X1683969Y-8501684D01*
X1680464Y-8501888D01*
X1676095Y-8501634D01*
X1672285Y-8500973D01*
X1669084Y-8499856D01*
X1666493Y-8498332D01*
X1664614Y-8496401D01*
X1663293Y-8494268D01*
X1662480Y-8491829D01*
X1662175Y-8489188D01*
X1648725Y-8489188D01*
X1648968Y-8493810D01*
X1649679Y-8497874D01*
X1650847Y-8501583D01*
X1652524Y-8504936D01*
X1654657Y-8508034D01*
X1657146Y-8510778D01*
X1660093Y-8513114D01*
X1663446Y-8515096D01*
X1667205Y-8516620D01*
X1671269Y-8517737D01*
X1675688Y-8518398D01*
X1680464Y-8518652D01*
X1684985Y-8518448D01*
X1689100Y-8517940D01*
X1692859Y-8517077D01*
X1696212Y-8515858D01*
X1699209Y-8514181D01*
X1701850Y-8512149D01*
X1704187Y-8509863D01*
X1706118Y-8507222D01*
X1707591Y-8504275D01*
X1708607Y-8501126D01*
X1709216Y-8497671D01*
X1709369Y-8491677D01*
X1708708Y-8487359D01*
X1708150Y-8485378D01*
X1706372Y-8482076D01*
X1704086Y-8479282D01*
X1701546Y-8476945D01*
X1698498Y-8474964D01*
X1698498Y-8474202D01*
X1705305Y-8474760D01*
X1714296Y-8476691D01*
X1719376Y-8478875D01*
X1723694Y-8481923D01*
X1725523Y-8483854D01*
X1727098Y-8485987D01*
X1728470Y-8488426D01*
X1729486Y-8491118D01*
X1730197Y-8494217D01*
X1730603Y-8497620D01*
X1730756Y-8503005D01*
X1730349Y-8508847D01*
X1729486Y-8512556D01*
X1742948Y-8512556D01*
X1743710Y-8506968D01*
X1743964Y-8501126D01*
X1743760Y-8495995D01*
X1743202Y-8491220D01*
X1742236Y-8486851D01*
X1740916Y-8482838D01*
X1739239Y-8479282D01*
X1737309Y-8476030D01*
X1735074Y-8473084D01*
X1732534Y-8470392D01*
X1729790Y-8468106D01*
X1726793Y-8466074D01*
X1723542Y-8464296D01*
X1720088Y-8462772D01*
X1712975Y-8460587D01*
X1705356Y-8459216D01*
X1697482Y-8458250D01*
G37*
G36*
X1848662Y-5680760D02*
G01*
X1843735Y-5680964D01*
X1839112Y-5681624D01*
X1834845Y-5682742D01*
X1830882Y-5684316D01*
X1827123Y-5686247D01*
X1823618Y-5688584D01*
X1820519Y-5691225D01*
X1817674Y-5694222D01*
X1815185Y-5697575D01*
X1812950Y-5701182D01*
X1811121Y-5705195D01*
X1809546Y-5709462D01*
X1808429Y-5713882D01*
X1807616Y-5718556D01*
X1807159Y-5723432D01*
X1807006Y-5728512D01*
X1808022Y-5742025D01*
X1811070Y-5753658D01*
X1813509Y-5758789D01*
X1816506Y-5763310D01*
X1820113Y-5767171D01*
X1824278Y-5770422D01*
X1829003Y-5772962D01*
X1834388Y-5774791D01*
X1840331Y-5775909D01*
X1846884Y-5776264D01*
X1853590Y-5776010D01*
X1859584Y-5775248D01*
X1865122Y-5773928D01*
X1870506Y-5771946D01*
X1870506Y-5757722D01*
X1865172Y-5759551D01*
X1859838Y-5761024D01*
X1854454Y-5761990D01*
X1848916Y-5762294D01*
X1845005Y-5762040D01*
X1841500Y-5761278D01*
X1838299Y-5760008D01*
X1835454Y-5758230D01*
X1832965Y-5755995D01*
X1830832Y-5753354D01*
X1829003Y-5750255D01*
X1827580Y-5746800D01*
X1826463Y-5742787D01*
X1825650Y-5738469D01*
X1825193Y-5733796D01*
X1825142Y-5724956D01*
X1825396Y-5721350D01*
X1826564Y-5714796D01*
X1828444Y-5708954D01*
X1829714Y-5706414D01*
X1832762Y-5701995D01*
X1834489Y-5700115D01*
X1836420Y-5698540D01*
X1838502Y-5697270D01*
X1840839Y-5696254D01*
X1843278Y-5695543D01*
X1845767Y-5695137D01*
X1848408Y-5694984D01*
X1851152Y-5695086D01*
X1856384Y-5696000D01*
X1863598Y-5698591D01*
X1868220Y-5700572D01*
X1874062Y-5687110D01*
X1868525Y-5684418D01*
X1862124Y-5682538D01*
X1855216Y-5681218D01*
G37*
G36*
X1882444Y-5682284D02*
G01*
X1882444Y-5696254D01*
X1925370Y-5696254D01*
X1892350Y-5774994D01*
X1910638Y-5774994D01*
X1943658Y-5693206D01*
X1943658Y-5682284D01*
G37*
G36*
X198678Y-7005726D02*
G01*
X193751Y-7005980D01*
X189128Y-7006640D01*
X184861Y-7007758D01*
X180898Y-7009282D01*
X177088Y-7011263D01*
X173634Y-7013549D01*
X170484Y-7016191D01*
X167690Y-7019239D01*
X165150Y-7022541D01*
X162966Y-7026198D01*
X161086Y-7030161D01*
X159562Y-7034479D01*
X158445Y-7038898D01*
X157632Y-7043521D01*
X157175Y-7048398D01*
X157022Y-7053529D01*
X158038Y-7067042D01*
X161086Y-7078624D01*
X163525Y-7083806D01*
X166522Y-7088276D01*
X170129Y-7092188D01*
X174294Y-7095439D01*
X179019Y-7097979D01*
X184353Y-7099808D01*
X190347Y-7100874D01*
X196900Y-7101281D01*
X203606Y-7100976D01*
X209600Y-7100214D01*
X215087Y-7098893D01*
X220522Y-7096963D01*
X220522Y-7082739D01*
X215188Y-7084568D01*
X209854Y-7085990D01*
X204419Y-7086955D01*
X198932Y-7087311D01*
X195021Y-7087057D01*
X191465Y-7086295D01*
X188315Y-7084974D01*
X185470Y-7083247D01*
X182981Y-7080961D01*
X180797Y-7078319D01*
X179019Y-7075271D01*
X177596Y-7071766D01*
X176479Y-7067803D01*
X175666Y-7063486D01*
X175209Y-7058812D01*
X175158Y-7049922D01*
X175412Y-7046315D01*
X176580Y-7039813D01*
X178460Y-7033920D01*
X181152Y-7029145D01*
X182727Y-7026960D01*
X184505Y-7025131D01*
X186436Y-7023557D01*
X188518Y-7022287D01*
X190855Y-7021271D01*
X193243Y-7020559D01*
X195783Y-7020102D01*
X198424Y-7019950D01*
X203809Y-7020407D01*
X206349Y-7020966D01*
X211226Y-7022642D01*
X218236Y-7025589D01*
X224078Y-7012076D01*
X218541Y-7009434D01*
X215442Y-7008368D01*
X208635Y-7006742D01*
X201879Y-7005878D01*
G37*
G36*
X263194Y-7006031D02*
G01*
X259435Y-7006183D01*
X255879Y-7006640D01*
X252475Y-7007453D01*
X246227Y-7009841D01*
X243535Y-7011517D01*
X241249Y-7013549D01*
X239318Y-7015937D01*
X237642Y-7018477D01*
X236423Y-7021372D01*
X235712Y-7024573D01*
X235554Y-7029348D01*
X252018Y-7029348D01*
X252171Y-7026859D01*
X252780Y-7024674D01*
X253695Y-7022795D01*
X255066Y-7021271D01*
X256794Y-7020001D01*
X258724Y-7019137D01*
X260858Y-7018629D01*
X263194Y-7018426D01*
X265480Y-7018629D01*
X267614Y-7019137D01*
X269544Y-7020001D01*
X271322Y-7021271D01*
X272643Y-7022795D01*
X273608Y-7024674D01*
X274167Y-7026859D01*
X274370Y-7029348D01*
X273964Y-7032904D01*
X272846Y-7036003D01*
X271068Y-7038390D01*
X268782Y-7040524D01*
X263448Y-7044131D01*
X260299Y-7042353D01*
X257606Y-7040524D01*
X255320Y-7038340D01*
X253542Y-7035698D01*
X252374Y-7032752D01*
X252018Y-7029348D01*
X235554Y-7029348D01*
X236016Y-7033361D01*
X236626Y-7035749D01*
X238506Y-7040118D01*
X241046Y-7043928D01*
X244297Y-7047230D01*
X249732Y-7051497D01*
X245313Y-7054088D01*
X243281Y-7055612D01*
X239420Y-7059066D01*
X237693Y-7060996D01*
X236220Y-7063130D01*
X233984Y-7067854D01*
X233273Y-7070445D01*
X232816Y-7073290D01*
X232741Y-7075576D01*
X248970Y-7075576D01*
X249377Y-7071817D01*
X249936Y-7070090D01*
X251612Y-7066991D01*
X253898Y-7064197D01*
X256794Y-7061657D01*
X260197Y-7059371D01*
X262178Y-7058355D01*
X265684Y-7060031D01*
X268986Y-7062165D01*
X271983Y-7064603D01*
X274421Y-7067245D01*
X276250Y-7070293D01*
X276910Y-7071969D01*
X277418Y-7075576D01*
X277012Y-7079335D01*
X275894Y-7082434D01*
X274929Y-7083907D01*
X272491Y-7086295D01*
X271068Y-7087311D01*
X267563Y-7088428D01*
X265480Y-7088733D01*
X259842Y-7088581D01*
X256946Y-7087870D01*
X254508Y-7086650D01*
X252526Y-7084974D01*
X250952Y-7083094D01*
X249834Y-7080859D01*
X249174Y-7078370D01*
X248970Y-7075576D01*
X232741Y-7075576D01*
X232917Y-7080148D01*
X233578Y-7083653D01*
X234696Y-7086904D01*
X236270Y-7089800D01*
X238201Y-7092442D01*
X240588Y-7094728D01*
X243281Y-7096658D01*
X246430Y-7098182D01*
X250037Y-7099553D01*
X254101Y-7100468D01*
X258571Y-7101078D01*
X263448Y-7101281D01*
X267970Y-7101078D01*
X272186Y-7100519D01*
X276098Y-7099553D01*
X279704Y-7098182D01*
X282803Y-7096506D01*
X285546Y-7094474D01*
X287883Y-7092086D01*
X289864Y-7089292D01*
X291388Y-7086396D01*
X292506Y-7083145D01*
X293166Y-7079640D01*
X293420Y-7075881D01*
X293268Y-7072884D01*
X292760Y-7070140D01*
X291998Y-7067550D01*
X290880Y-7065213D01*
X287883Y-7060742D01*
X284022Y-7057034D01*
X279755Y-7053732D01*
X275132Y-7050989D01*
X279450Y-7048296D01*
X283260Y-7045350D01*
X286308Y-7041997D01*
X288848Y-7037984D01*
X290372Y-7033361D01*
X290880Y-7028129D01*
X290626Y-7024573D01*
X289966Y-7021372D01*
X288848Y-7018477D01*
X287324Y-7015937D01*
X285343Y-7013549D01*
X283057Y-7011517D01*
X280416Y-7009841D01*
X274116Y-7007453D01*
X270662Y-7006640D01*
X267004Y-7006183D01*
G37*
G36*
X1246479Y-9031986D02*
G01*
X1232966Y-9033002D01*
X1221333Y-9036050D01*
X1216202Y-9038488D01*
X1211681Y-9041536D01*
X1207820Y-9045092D01*
X1204569Y-9049258D01*
X1202029Y-9053982D01*
X1200200Y-9059367D01*
X1199083Y-9065310D01*
X1198727Y-9071864D01*
X1198981Y-9078620D01*
X1199743Y-9084564D01*
X1201064Y-9090101D01*
X1203045Y-9095486D01*
X1217269Y-9095486D01*
X1215440Y-9090152D01*
X1213967Y-9084818D01*
X1213002Y-9079433D01*
X1212697Y-9073896D01*
X1212951Y-9069984D01*
X1213713Y-9066479D01*
X1214983Y-9063278D01*
X1216761Y-9060434D01*
X1218996Y-9057944D01*
X1221638Y-9055811D01*
X1224737Y-9053982D01*
X1228191Y-9052560D01*
X1232154Y-9051442D01*
X1236522Y-9050680D01*
X1241196Y-9050172D01*
X1250035Y-9050121D01*
X1257046Y-9050883D01*
X1263243Y-9052407D01*
X1268577Y-9054693D01*
X1272997Y-9057741D01*
X1274876Y-9059468D01*
X1276451Y-9061399D01*
X1277721Y-9063482D01*
X1278737Y-9065818D01*
X1279448Y-9068257D01*
X1279855Y-9070746D01*
X1280007Y-9073388D01*
X1279906Y-9076131D01*
X1278991Y-9081363D01*
X1276400Y-9088577D01*
X1274419Y-9093200D01*
X1287881Y-9099042D01*
X1289304Y-9096400D01*
X1291590Y-9090406D01*
X1293215Y-9083598D01*
X1294130Y-9076842D01*
X1294231Y-9073642D01*
X1294028Y-9068714D01*
X1293317Y-9064142D01*
X1292250Y-9059824D01*
X1290675Y-9055862D01*
X1288745Y-9052102D01*
X1286408Y-9048648D01*
X1283766Y-9045498D01*
X1280769Y-9042654D01*
X1277416Y-9040164D01*
X1273810Y-9037980D01*
X1269796Y-9036100D01*
X1265529Y-9034526D01*
X1261110Y-9033408D01*
X1256436Y-9032646D01*
X1251559Y-9032138D01*
G37*
G36*
X1270609Y-9110726D02*
G01*
X1260449Y-9119616D01*
X1270457Y-9131198D01*
X1275435Y-9135618D01*
X1269847Y-9135618D01*
X1265275Y-9135364D01*
X1199997Y-9135364D01*
X1199997Y-9152636D01*
X1292707Y-9152636D01*
X1292707Y-9137904D01*
G37*
G36*
X1246479Y-9178290D02*
G01*
X1232560Y-9179052D01*
X1220825Y-9181338D01*
X1215796Y-9183217D01*
X1211376Y-9185452D01*
X1207516Y-9188145D01*
X1204315Y-9191244D01*
X1201877Y-9194901D01*
X1200150Y-9199016D01*
X1199083Y-9203537D01*
X1198727Y-9208516D01*
X1212189Y-9208516D01*
X1212443Y-9206230D01*
X1213154Y-9204147D01*
X1214323Y-9202267D01*
X1215999Y-9200642D01*
X1218133Y-9199372D01*
X1220774Y-9198305D01*
X1223873Y-9197441D01*
X1231493Y-9196273D01*
X1240993Y-9195663D01*
X1251966Y-9195663D01*
X1261465Y-9196273D01*
X1269085Y-9197441D01*
X1272184Y-9198305D01*
X1274826Y-9199372D01*
X1276959Y-9200642D01*
X1278636Y-9202267D01*
X1279804Y-9204147D01*
X1280515Y-9206230D01*
X1280769Y-9208516D01*
X1280515Y-9210802D01*
X1279804Y-9212834D01*
X1278636Y-9214612D01*
X1276959Y-9216136D01*
X1274826Y-9217456D01*
X1272184Y-9218574D01*
X1269085Y-9219488D01*
X1261465Y-9220758D01*
X1251966Y-9221368D01*
X1240993Y-9221368D01*
X1231493Y-9220758D01*
X1223873Y-9219488D01*
X1220774Y-9218574D01*
X1218133Y-9217456D01*
X1215999Y-9216136D01*
X1214323Y-9214612D01*
X1213154Y-9212834D01*
X1212443Y-9210802D01*
X1212189Y-9208516D01*
X1198727Y-9208516D01*
X1198930Y-9212427D01*
X1199540Y-9216085D01*
X1200607Y-9219438D01*
X1202029Y-9222486D01*
X1203756Y-9225280D01*
X1205890Y-9227769D01*
X1208481Y-9229953D01*
X1211427Y-9231884D01*
X1214628Y-9233560D01*
X1218234Y-9234932D01*
X1222146Y-9236100D01*
X1230985Y-9237726D01*
X1241044Y-9238640D01*
X1246479Y-9238742D01*
X1260398Y-9237929D01*
X1272133Y-9235440D01*
X1277264Y-9233560D01*
X1281734Y-9231325D01*
X1285494Y-9228632D01*
X1288643Y-9225534D01*
X1291082Y-9221876D01*
X1292860Y-9217863D01*
X1293876Y-9213392D01*
X1294231Y-9208516D01*
X1293876Y-9203232D01*
X1292809Y-9198508D01*
X1291082Y-9194342D01*
X1288643Y-9190736D01*
X1285443Y-9187637D01*
X1281582Y-9185046D01*
X1277162Y-9182811D01*
X1272133Y-9181084D01*
X1260398Y-9179001D01*
G37*
G36*
X246481Y-7157008D02*
G01*
X232968Y-7158024D01*
X221335Y-7161072D01*
X216204Y-7163511D01*
X211683Y-7166508D01*
X207822Y-7170115D01*
X204571Y-7174280D01*
X202031Y-7179005D01*
X200202Y-7184339D01*
X199085Y-7190333D01*
X198729Y-7196886D01*
X198983Y-7203592D01*
X199745Y-7209586D01*
X201066Y-7215073D01*
X203047Y-7220508D01*
X217271Y-7220508D01*
X215442Y-7215174D01*
X213969Y-7209840D01*
X213004Y-7204405D01*
X212699Y-7198918D01*
X212953Y-7195007D01*
X213715Y-7191451D01*
X214985Y-7188301D01*
X216763Y-7185456D01*
X218998Y-7182967D01*
X221640Y-7180783D01*
X224739Y-7179005D01*
X228193Y-7177582D01*
X232156Y-7176465D01*
X236524Y-7175652D01*
X241198Y-7175195D01*
X250037Y-7175144D01*
X253644Y-7175398D01*
X260197Y-7176566D01*
X266039Y-7178446D01*
X268579Y-7179716D01*
X272999Y-7182713D01*
X274878Y-7184491D01*
X276453Y-7186422D01*
X277723Y-7188504D01*
X278739Y-7190841D01*
X279450Y-7193229D01*
X279857Y-7195769D01*
X280009Y-7198410D01*
X279908Y-7201153D01*
X278993Y-7206335D01*
X277317Y-7211212D01*
X274421Y-7218222D01*
X287883Y-7224064D01*
X290576Y-7218527D01*
X292455Y-7212126D01*
X293776Y-7205167D01*
X294233Y-7198664D01*
X294030Y-7193737D01*
X293319Y-7189114D01*
X292252Y-7184847D01*
X290677Y-7180884D01*
X288747Y-7177074D01*
X286410Y-7173620D01*
X283768Y-7170470D01*
X280771Y-7167676D01*
X277418Y-7165136D01*
X273761Y-7162952D01*
X269798Y-7161072D01*
X265531Y-7159548D01*
X261112Y-7158431D01*
X256438Y-7157618D01*
X251561Y-7157161D01*
G37*
G36*
X270611Y-7235748D02*
G01*
X260451Y-7244638D01*
X269646Y-7255256D01*
X275437Y-7260640D01*
X268325Y-7260488D01*
X199999Y-7260386D01*
X199999Y-7277658D01*
X292709Y-7277658D01*
X292709Y-7262926D01*
G37*
G36*
X270611Y-7306106D02*
G01*
X260451Y-7314996D01*
X269646Y-7325512D01*
X275437Y-7330998D01*
X268325Y-7330846D01*
X199999Y-7330744D01*
X199999Y-7348016D01*
X292709Y-7348016D01*
X292709Y-7333284D01*
G37*
G36*
X1923643Y-9230766D02*
G01*
X1918716Y-9230969D01*
X1914143Y-9231630D01*
X1909825Y-9232747D01*
X1905863Y-9234322D01*
X1902104Y-9236252D01*
X1898650Y-9238538D01*
X1895500Y-9241231D01*
X1892655Y-9244228D01*
X1890166Y-9247530D01*
X1887982Y-9251188D01*
X1886102Y-9255150D01*
X1884527Y-9259468D01*
X1883410Y-9263888D01*
X1882648Y-9268510D01*
X1882139Y-9273387D01*
X1881987Y-9278518D01*
X1883003Y-9292031D01*
X1886051Y-9303664D01*
X1888489Y-9308795D01*
X1891538Y-9313316D01*
X1895093Y-9317177D01*
X1899259Y-9320428D01*
X1904034Y-9322968D01*
X1909368Y-9324797D01*
X1915312Y-9325864D01*
X1921865Y-9326270D01*
X1928622Y-9326016D01*
X1934565Y-9325254D01*
X1940102Y-9323882D01*
X1945487Y-9321952D01*
X1945487Y-9307728D01*
X1940153Y-9309557D01*
X1934819Y-9311030D01*
X1929434Y-9311944D01*
X1923897Y-9312300D01*
X1920036Y-9312046D01*
X1916480Y-9311284D01*
X1913280Y-9310014D01*
X1910435Y-9308236D01*
X1907946Y-9306001D01*
X1905812Y-9303308D01*
X1904034Y-9300260D01*
X1902561Y-9296806D01*
X1901443Y-9292793D01*
X1900682Y-9288475D01*
X1900174Y-9283801D01*
X1900123Y-9274911D01*
X1900885Y-9267952D01*
X1902409Y-9261754D01*
X1904695Y-9256420D01*
X1907743Y-9251950D01*
X1909521Y-9250121D01*
X1911400Y-9248546D01*
X1913483Y-9247276D01*
X1915820Y-9246260D01*
X1918258Y-9245549D01*
X1920798Y-9245092D01*
X1926132Y-9245092D01*
X1928825Y-9245396D01*
X1931365Y-9245955D01*
X1936191Y-9247632D01*
X1943201Y-9250578D01*
X1949043Y-9237116D01*
X1943557Y-9234424D01*
X1937105Y-9232544D01*
X1930196Y-9231172D01*
G37*
G36*
X2058517Y-9230766D02*
G01*
X2051659Y-9231172D01*
X2048611Y-9231731D01*
X2043125Y-9233458D01*
X2038299Y-9235744D01*
X2034032Y-9238538D01*
X2028037Y-9243212D01*
X2037689Y-9254134D01*
X2042668Y-9250121D01*
X2047341Y-9247276D01*
X2049678Y-9246158D01*
X2052066Y-9245346D01*
X2054504Y-9244888D01*
X2056993Y-9244736D01*
X2059533Y-9244939D01*
X2061768Y-9245549D01*
X2063699Y-9246565D01*
X2065375Y-9248038D01*
X2066848Y-9249765D01*
X2067864Y-9251899D01*
X2068474Y-9254439D01*
X2068677Y-9257436D01*
X2068271Y-9262516D01*
X2067712Y-9264853D01*
X2066899Y-9267088D01*
X2064359Y-9271762D01*
X2060803Y-9276740D01*
X2056130Y-9282328D01*
X2028291Y-9312808D01*
X2028291Y-9325000D01*
X2088743Y-9325000D01*
X2088743Y-9310776D01*
X2050135Y-9310776D01*
X2050135Y-9310014D01*
X2070049Y-9287967D01*
X2078177Y-9278264D01*
X2079853Y-9275978D01*
X2082546Y-9271152D01*
X2085238Y-9263837D01*
X2085797Y-9261297D01*
X2086203Y-9255912D01*
X2086000Y-9252305D01*
X2085339Y-9248952D01*
X2084222Y-9245854D01*
X2082647Y-9242958D01*
X2080818Y-9240266D01*
X2078685Y-9237929D01*
X2076145Y-9235846D01*
X2073249Y-9234068D01*
X2069947Y-9232595D01*
X2066391Y-9231579D01*
X2062581Y-9230969D01*
G37*
G36*
X1987905Y-9232290D02*
G01*
X1960727Y-9254388D01*
X1969617Y-9264548D01*
X1980285Y-9255353D01*
X1985619Y-9249562D01*
X1985365Y-9261246D01*
X1985365Y-9325000D01*
X2002637Y-9325000D01*
X2002637Y-9232290D01*
G37*
G36*
X323646Y-9205772D02*
G01*
X318719Y-9205976D01*
X314147Y-9206636D01*
X309829Y-9207754D01*
X305866Y-9209278D01*
X302107Y-9211259D01*
X298653Y-9213545D01*
X295503Y-9216186D01*
X292658Y-9219184D01*
X290169Y-9222536D01*
X287985Y-9226194D01*
X286105Y-9230156D01*
X284530Y-9234474D01*
X283413Y-9238894D01*
X282651Y-9243517D01*
X282143Y-9248394D01*
X281990Y-9253524D01*
X283006Y-9267037D01*
X286054Y-9278620D01*
X288493Y-9283801D01*
X291541Y-9288322D01*
X295097Y-9292183D01*
X299262Y-9295384D01*
X304038Y-9297974D01*
X309372Y-9299803D01*
X315315Y-9300870D01*
X321868Y-9301226D01*
X328625Y-9300972D01*
X334568Y-9300210D01*
X340106Y-9298889D01*
X345490Y-9296958D01*
X345490Y-9282684D01*
X340156Y-9284563D01*
X334822Y-9285986D01*
X329438Y-9286951D01*
X323900Y-9287306D01*
X320040Y-9287052D01*
X316484Y-9286290D01*
X313283Y-9285020D01*
X310438Y-9283242D01*
X307949Y-9280956D01*
X305816Y-9278315D01*
X304038Y-9275267D01*
X302564Y-9271762D01*
X301447Y-9267799D01*
X300685Y-9263481D01*
X300177Y-9258808D01*
X300126Y-9249918D01*
X300888Y-9242958D01*
X302412Y-9236710D01*
X304698Y-9231426D01*
X307746Y-9226956D01*
X309524Y-9225127D01*
X311404Y-9223552D01*
X313486Y-9222282D01*
X315823Y-9221266D01*
X318262Y-9220555D01*
X320802Y-9220098D01*
X323392Y-9219946D01*
X328828Y-9220403D01*
X331368Y-9220962D01*
X336194Y-9222638D01*
X343204Y-9225534D01*
X349046Y-9212122D01*
X346405Y-9210649D01*
X340461Y-9208363D01*
X333603Y-9206738D01*
X326898Y-9205874D01*
G37*
G36*
X464108Y-9207042D02*
G01*
X426273Y-9266732D01*
X440994Y-9266732D01*
X459435Y-9234424D01*
X463854Y-9225534D01*
X464362Y-9225534D01*
X463600Y-9240316D01*
X463600Y-9266732D01*
X426273Y-9266732D01*
X425500Y-9267952D01*
X425500Y-9280144D01*
X463600Y-9280144D01*
X463600Y-9300006D01*
X480618Y-9300006D01*
X480618Y-9280144D01*
X491540Y-9280144D01*
X491540Y-9266732D01*
X480618Y-9266732D01*
X480618Y-9207042D01*
G37*
G36*
X387908Y-9207246D02*
G01*
X360730Y-9229344D01*
X369620Y-9239504D01*
X380288Y-9230360D01*
X385622Y-9224518D01*
X385368Y-9236202D01*
X385368Y-9300006D01*
X402640Y-9300006D01*
X402640Y-9207246D01*
G37*
G36*
X798677Y-6755739D02*
G01*
X793750Y-6755993D01*
X789127Y-6756653D01*
X784860Y-6757771D01*
X780897Y-6759295D01*
X777087Y-6761276D01*
X773633Y-6763562D01*
X770483Y-6766204D01*
X767689Y-6769201D01*
X765149Y-6772554D01*
X762965Y-6776212D01*
X761085Y-6780174D01*
X759561Y-6784441D01*
X758444Y-6788861D01*
X757631Y-6793534D01*
X757174Y-6798411D01*
X757021Y-6803491D01*
X758037Y-6817055D01*
X761085Y-6828637D01*
X763524Y-6833768D01*
X766521Y-6838289D01*
X770128Y-6842150D01*
X774293Y-6845401D01*
X779018Y-6847992D01*
X784352Y-6849770D01*
X790346Y-6850888D01*
X796899Y-6851243D01*
X803605Y-6850989D01*
X809599Y-6850227D01*
X815086Y-6848906D01*
X820521Y-6846925D01*
X820521Y-6832701D01*
X815187Y-6834581D01*
X809853Y-6836003D01*
X804418Y-6836968D01*
X798931Y-6837273D01*
X795020Y-6837019D01*
X791464Y-6836257D01*
X788314Y-6834987D01*
X785469Y-6833209D01*
X782980Y-6830974D01*
X780796Y-6828332D01*
X779018Y-6825284D01*
X777595Y-6821779D01*
X776478Y-6817817D01*
X775665Y-6813499D01*
X775208Y-6808774D01*
X775157Y-6799935D01*
X775411Y-6796328D01*
X776579Y-6789775D01*
X778459Y-6783933D01*
X779729Y-6781393D01*
X782726Y-6776974D01*
X784504Y-6775145D01*
X786434Y-6773570D01*
X788517Y-6772249D01*
X790854Y-6771284D01*
X793242Y-6770573D01*
X795782Y-6770116D01*
X798423Y-6769963D01*
X801166Y-6770065D01*
X806348Y-6770979D01*
X811225Y-6772656D01*
X818235Y-6775551D01*
X824077Y-6762089D01*
X821436Y-6760667D01*
X815441Y-6758381D01*
X808634Y-6756755D01*
X801878Y-6755841D01*
G37*
G36*
X862939Y-6757263D02*
G01*
X835761Y-6779361D01*
X844651Y-6789521D01*
X855268Y-6780377D01*
X860653Y-6774535D01*
X860653Y-6780123D01*
X860399Y-6784695D01*
X860399Y-6849973D01*
X877671Y-6849973D01*
X877671Y-6757263D01*
G37*
G36*
X909929Y-6757263D02*
G01*
X906627Y-6803237D01*
X913739Y-6807047D01*
X919835Y-6805777D01*
X923544Y-6805218D01*
X927201Y-6805015D01*
X931468Y-6805269D01*
X935126Y-6806031D01*
X938174Y-6807301D01*
X940663Y-6809079D01*
X942644Y-6811365D01*
X944067Y-6814108D01*
X944930Y-6817309D01*
X945235Y-6821017D01*
X945083Y-6823709D01*
X944626Y-6826199D01*
X943914Y-6828434D01*
X941832Y-6832193D01*
X940460Y-6833666D01*
X938885Y-6834835D01*
X935075Y-6836562D01*
X932840Y-6837121D01*
X927709Y-6837527D01*
X921918Y-6837172D01*
X915771Y-6836003D01*
X909828Y-6834022D01*
X904849Y-6831685D01*
X904849Y-6846163D01*
X907084Y-6847382D01*
X912317Y-6849262D01*
X918362Y-6850532D01*
X924966Y-6851192D01*
X933805Y-6851040D01*
X938733Y-6850329D01*
X943203Y-6849109D01*
X947267Y-6847433D01*
X950823Y-6845350D01*
X953922Y-6842810D01*
X956564Y-6839864D01*
X958697Y-6836511D01*
X960475Y-6832803D01*
X961745Y-6828739D01*
X962507Y-6824268D01*
X962761Y-6819493D01*
X962507Y-6815124D01*
X961847Y-6811111D01*
X960729Y-6807504D01*
X959205Y-6804253D01*
X957224Y-6801408D01*
X954938Y-6798868D01*
X952296Y-6796684D01*
X949299Y-6794855D01*
X945997Y-6793433D01*
X942492Y-6792417D01*
X938784Y-6791756D01*
X932738Y-6791604D01*
X929335Y-6791858D01*
X923137Y-6792823D01*
X924915Y-6771487D01*
X956665Y-6771487D01*
X956665Y-6757263D01*
G37*
G36*
X1674977Y-6110833D02*
G01*
X1674977Y-6128359D01*
X1753971Y-6128359D01*
X1753971Y-6138773D01*
X1753768Y-6142786D01*
X1753158Y-6146495D01*
X1752142Y-6149898D01*
X1750669Y-6152997D01*
X1748688Y-6155690D01*
X1746250Y-6158077D01*
X1743354Y-6160008D01*
X1740001Y-6161633D01*
X1736191Y-6162954D01*
X1731873Y-6163919D01*
X1727047Y-6164478D01*
X1721713Y-6164681D01*
X1707438Y-6162954D01*
X1697075Y-6157823D01*
X1693519Y-6153912D01*
X1690979Y-6149086D01*
X1689455Y-6143396D01*
X1688947Y-6136741D01*
X1688947Y-6128359D01*
X1674977Y-6128359D01*
X1674977Y-6136487D01*
X1676349Y-6149949D01*
X1680311Y-6161379D01*
X1683308Y-6166256D01*
X1686915Y-6170574D01*
X1691182Y-6174282D01*
X1696059Y-6177381D01*
X1707946Y-6181344D01*
X1722221Y-6182715D01*
X1736039Y-6181445D01*
X1747367Y-6177635D01*
X1752041Y-6174638D01*
X1756156Y-6171133D01*
X1759661Y-6167018D01*
X1762607Y-6162395D01*
X1764842Y-6157163D01*
X1766417Y-6151524D01*
X1767382Y-6145377D01*
X1767687Y-6138773D01*
X1767687Y-6110833D01*
G37*
G36*
X1745589Y-6197701D02*
G01*
X1735429Y-6206591D01*
X1746402Y-6218885D01*
X1750415Y-6222593D01*
X1744827Y-6222339D01*
X1674977Y-6222085D01*
X1674977Y-6239611D01*
X1767687Y-6239611D01*
X1767687Y-6224625D01*
G37*
G36*
X1674977Y-6310833D02*
G01*
X1674977Y-6328359D01*
X1753971Y-6328359D01*
X1753971Y-6338773D01*
X1753768Y-6342786D01*
X1753158Y-6346494D01*
X1752142Y-6349898D01*
X1750669Y-6352997D01*
X1748688Y-6355689D01*
X1746250Y-6358077D01*
X1743354Y-6360007D01*
X1740001Y-6361633D01*
X1736191Y-6362954D01*
X1731873Y-6363919D01*
X1727047Y-6364478D01*
X1721713Y-6364681D01*
X1707438Y-6362954D01*
X1697075Y-6357823D01*
X1693519Y-6353911D01*
X1690979Y-6349085D01*
X1689455Y-6343345D01*
X1688947Y-6336741D01*
X1688947Y-6328359D01*
X1674977Y-6328359D01*
X1674977Y-6336487D01*
X1676349Y-6349949D01*
X1680311Y-6361379D01*
X1683308Y-6366256D01*
X1686915Y-6370574D01*
X1691182Y-6374282D01*
X1696059Y-6377381D01*
X1707946Y-6381343D01*
X1722221Y-6382715D01*
X1736039Y-6381445D01*
X1747367Y-6377635D01*
X1752041Y-6374638D01*
X1756156Y-6371132D01*
X1759661Y-6367018D01*
X1762607Y-6362395D01*
X1764842Y-6357162D01*
X1766417Y-6351524D01*
X1767382Y-6345377D01*
X1767687Y-6338773D01*
X1767687Y-6310833D01*
G37*
G36*
X1674977Y-6394653D02*
G01*
X1674977Y-6455105D01*
X1689201Y-6455105D01*
X1689201Y-6416497D01*
X1689963Y-6416497D01*
X1712010Y-6436614D01*
X1721713Y-6444589D01*
X1726438Y-6447637D01*
X1733651Y-6451041D01*
X1738680Y-6452158D01*
X1744065Y-6452565D01*
X1747672Y-6452311D01*
X1751025Y-6451701D01*
X1754124Y-6450685D01*
X1757019Y-6449263D01*
X1759712Y-6447383D01*
X1762048Y-6445199D01*
X1764131Y-6442557D01*
X1765909Y-6439611D01*
X1767382Y-6436410D01*
X1768398Y-6432905D01*
X1769008Y-6429146D01*
X1769211Y-6425133D01*
X1768805Y-6418173D01*
X1768246Y-6415074D01*
X1766519Y-6409537D01*
X1764233Y-6404711D01*
X1761439Y-6400495D01*
X1756765Y-6394653D01*
X1745843Y-6404051D01*
X1749856Y-6408978D01*
X1752701Y-6413703D01*
X1753819Y-6416090D01*
X1754632Y-6418580D01*
X1755089Y-6421069D01*
X1755241Y-6423609D01*
X1755038Y-6426098D01*
X1754428Y-6428333D01*
X1753412Y-6430314D01*
X1751939Y-6431991D01*
X1750212Y-6433413D01*
X1748078Y-6434429D01*
X1745538Y-6435039D01*
X1742541Y-6435293D01*
X1737461Y-6434785D01*
X1732889Y-6433261D01*
X1728216Y-6430873D01*
X1723237Y-6427419D01*
X1711045Y-6416751D01*
X1687169Y-6394653D01*
G37*
G36*
X2224989Y-7660792D02*
G01*
X2224989Y-7678318D01*
X2303983Y-7678318D01*
X2303983Y-7688732D01*
X2303780Y-7692796D01*
X2303170Y-7696504D01*
X2302154Y-7699908D01*
X2300681Y-7702956D01*
X2298700Y-7705699D01*
X2296261Y-7708036D01*
X2293366Y-7710017D01*
X2290013Y-7711592D01*
X2286203Y-7712964D01*
X2281885Y-7713878D01*
X2277059Y-7714488D01*
X2271725Y-7714640D01*
X2257450Y-7712964D01*
X2247087Y-7707782D01*
X2243531Y-7703921D01*
X2240991Y-7699095D01*
X2239467Y-7693355D01*
X2238959Y-7686700D01*
X2238959Y-7678318D01*
X2224989Y-7678318D01*
X2224989Y-7686446D01*
X2226310Y-7699908D01*
X2230323Y-7711338D01*
X2233320Y-7716266D01*
X2236927Y-7720584D01*
X2241194Y-7724241D01*
X2246071Y-7727340D01*
X2257958Y-7731353D01*
X2272233Y-7732674D01*
X2286000Y-7731404D01*
X2297379Y-7727594D01*
X2302052Y-7724648D01*
X2306167Y-7721142D01*
X2309672Y-7717028D01*
X2312619Y-7712354D01*
X2314854Y-7707172D01*
X2316429Y-7701534D01*
X2317394Y-7695387D01*
X2317699Y-7688732D01*
X2317699Y-7660792D01*
G37*
G36*
X2228799Y-7744612D02*
G01*
X2226564Y-7750352D01*
X2224989Y-7756296D01*
X2224024Y-7762544D01*
X2223719Y-7769504D01*
X2223973Y-7775346D01*
X2224633Y-7780629D01*
X2225751Y-7785353D01*
X2227275Y-7789570D01*
X2229358Y-7793177D01*
X2231745Y-7796275D01*
X2234438Y-7798866D01*
X2237435Y-7801000D01*
X2240737Y-7802575D01*
X2244191Y-7803692D01*
X2247849Y-7804353D01*
X2251659Y-7804556D01*
X2256129Y-7804251D01*
X2260092Y-7803235D01*
X2263597Y-7801559D01*
X2266645Y-7799222D01*
X2269185Y-7796123D01*
X2271166Y-7792466D01*
X2272588Y-7788148D01*
X2273503Y-7783220D01*
X2273757Y-7783220D01*
X2275586Y-7788300D01*
X2278075Y-7792872D01*
X2279700Y-7794904D01*
X2281529Y-7796682D01*
X2283510Y-7798206D01*
X2288082Y-7800594D01*
X2290724Y-7801406D01*
X2293569Y-7801864D01*
X2296617Y-7802016D01*
X2301544Y-7801559D01*
X2305964Y-7800187D01*
X2309825Y-7797901D01*
X2313127Y-7794650D01*
X2315819Y-7790586D01*
X2317699Y-7785709D01*
X2318867Y-7780020D01*
X2319223Y-7773568D01*
X2318918Y-7767472D01*
X2317953Y-7761884D01*
X2316429Y-7756906D01*
X2312263Y-7748422D01*
X2309825Y-7744866D01*
X2298395Y-7752740D01*
X2300173Y-7755026D01*
X2301951Y-7757820D01*
X2303373Y-7760817D01*
X2304491Y-7764170D01*
X2305253Y-7768081D01*
X2305507Y-7772044D01*
X2305304Y-7775041D01*
X2304745Y-7777632D01*
X2303780Y-7779867D01*
X2302459Y-7781696D01*
X2300782Y-7783169D01*
X2298801Y-7784185D01*
X2296464Y-7784795D01*
X2293823Y-7784998D01*
X2291740Y-7784896D01*
X2287930Y-7783880D01*
X2286203Y-7782966D01*
X2284679Y-7781798D01*
X2283307Y-7780375D01*
X2282139Y-7778648D01*
X2281123Y-7776616D01*
X2280361Y-7774381D01*
X2279802Y-7771688D01*
X2279446Y-7768539D01*
X2279345Y-7758074D01*
X2266137Y-7758074D01*
X2266035Y-7768691D01*
X2265781Y-7771993D01*
X2264613Y-7777378D01*
X2263800Y-7779512D01*
X2262784Y-7781391D01*
X2261616Y-7782966D01*
X2260295Y-7784236D01*
X2258669Y-7785150D01*
X2256891Y-7785760D01*
X2254859Y-7786166D01*
X2252675Y-7786268D01*
X2249220Y-7786014D01*
X2246122Y-7785252D01*
X2243480Y-7783982D01*
X2241245Y-7782204D01*
X2239467Y-7779816D01*
X2238197Y-7776616D01*
X2237435Y-7772704D01*
X2237181Y-7767980D01*
X2237587Y-7762392D01*
X2238705Y-7756296D01*
X2240635Y-7750352D01*
X2243277Y-7744612D01*
G37*
G36*
X1160881Y-5632297D02*
G01*
X1160881Y-5725007D01*
X1178407Y-5725007D01*
X1178407Y-5683859D01*
X1214221Y-5683859D01*
X1214221Y-5725007D01*
X1231747Y-5725007D01*
X1231747Y-5632297D01*
X1214221Y-5632297D01*
X1214221Y-5669635D01*
X1178407Y-5669635D01*
X1178407Y-5632297D01*
G37*
G36*
X1277467Y-5632297D02*
G01*
X1250543Y-5654395D01*
X1259433Y-5664555D01*
X1269847Y-5655360D01*
X1275435Y-5649569D01*
X1274927Y-5667095D01*
X1274927Y-5725007D01*
X1292453Y-5725007D01*
X1292453Y-5632297D01*
G37*
G36*
X1277975Y-9305899D02*
G01*
X1271016Y-9306306D01*
X1264970Y-9307423D01*
X1259941Y-9309455D01*
X1255318Y-9311995D01*
X1247444Y-9318091D01*
X1256893Y-9329013D01*
X1261872Y-9325152D01*
X1266799Y-9322155D01*
X1269085Y-9321190D01*
X1271473Y-9320479D01*
X1273911Y-9320022D01*
X1276451Y-9319869D01*
X1278940Y-9320072D01*
X1281176Y-9320631D01*
X1283157Y-9321596D01*
X1284833Y-9322917D01*
X1286256Y-9324797D01*
X1287272Y-9326981D01*
X1287881Y-9329572D01*
X1288135Y-9332569D01*
X1287627Y-9337548D01*
X1286967Y-9339935D01*
X1285036Y-9344456D01*
X1282141Y-9349130D01*
X1278026Y-9354312D01*
X1272692Y-9360560D01*
X1247749Y-9387941D01*
X1247749Y-9399879D01*
X1308201Y-9399879D01*
X1308201Y-9385909D01*
X1269593Y-9385909D01*
X1269593Y-9384893D01*
X1289456Y-9362998D01*
X1293723Y-9358020D01*
X1297432Y-9353194D01*
X1300581Y-9348470D01*
X1302969Y-9343796D01*
X1303883Y-9341459D01*
X1305001Y-9336379D01*
X1305407Y-9330791D01*
X1305153Y-9327235D01*
X1304544Y-9323882D01*
X1303528Y-9320733D01*
X1302054Y-9317837D01*
X1300226Y-9315196D01*
X1298041Y-9312808D01*
X1295400Y-9310776D01*
X1292402Y-9308947D01*
X1289253Y-9307626D01*
X1285748Y-9306661D01*
X1281988Y-9306102D01*
G37*
G36*
X1160830Y-9307169D02*
G01*
X1160830Y-9399879D01*
X1178407Y-9399879D01*
X1178407Y-9358731D01*
X1214170Y-9358731D01*
X1214170Y-9399879D01*
X1231696Y-9399879D01*
X1231696Y-9307169D01*
X1214170Y-9307169D01*
X1214170Y-9344507D01*
X1178407Y-9344507D01*
X1178407Y-9307169D01*
G37*
G36*
X2224989Y-8160816D02*
G01*
X2224989Y-8214156D01*
X2238959Y-8214156D01*
X2238959Y-8178342D01*
X2317699Y-8178342D01*
X2317699Y-8160816D01*
G37*
G36*
X2295601Y-8225840D02*
G01*
X2285441Y-8234476D01*
X2294636Y-8245144D01*
X2300427Y-8250732D01*
X2282901Y-8250224D01*
X2224989Y-8250224D01*
X2224989Y-8267496D01*
X2317699Y-8267496D01*
X2317699Y-8252764D01*
G37*
G36*
X1375003Y-8185759D02*
G01*
X1375003Y-8239099D01*
X1388973Y-8239099D01*
X1388973Y-8203285D01*
X1467713Y-8203285D01*
X1467713Y-8185759D01*
G37*
G36*
X1456791Y-8247735D02*
G01*
X1445869Y-8257133D01*
X1449882Y-8262162D01*
X1452727Y-8267039D01*
X1453845Y-8269376D01*
X1454607Y-8271764D01*
X1455115Y-8274202D01*
X1455267Y-8276691D01*
X1455064Y-8279231D01*
X1454454Y-8281466D01*
X1453388Y-8283448D01*
X1451965Y-8285073D01*
X1450238Y-8286546D01*
X1448104Y-8287562D01*
X1445514Y-8288172D01*
X1442567Y-8288375D01*
X1439976Y-8288274D01*
X1435150Y-8287258D01*
X1430578Y-8285327D01*
X1425752Y-8282431D01*
X1420571Y-8278317D01*
X1414475Y-8272983D01*
X1387195Y-8247989D01*
X1375003Y-8247989D01*
X1375003Y-8308441D01*
X1389227Y-8308441D01*
X1389227Y-8269833D01*
X1389989Y-8269833D01*
X1412036Y-8289747D01*
X1417015Y-8294014D01*
X1421739Y-8297722D01*
X1426413Y-8300872D01*
X1431239Y-8303259D01*
X1436116Y-8304834D01*
X1441348Y-8305596D01*
X1447647Y-8305444D01*
X1451000Y-8304834D01*
X1454150Y-8303818D01*
X1457045Y-8302345D01*
X1459687Y-8300516D01*
X1462074Y-8298281D01*
X1464157Y-8295690D01*
X1465935Y-8292693D01*
X1467358Y-8289544D01*
X1468424Y-8286038D01*
X1469034Y-8282279D01*
X1469237Y-8278215D01*
X1469136Y-8274659D01*
X1468221Y-8268208D01*
X1467459Y-8265261D01*
X1465427Y-8260181D01*
X1462887Y-8255609D01*
G37*
G36*
X1725015Y-8960764D02*
G01*
X1725015Y-9014104D01*
X1738985Y-9014104D01*
X1738985Y-8978290D01*
X1817725Y-8978290D01*
X1817725Y-8960764D01*
G37*
G36*
X1728825Y-9022740D02*
G01*
X1726590Y-9028480D01*
X1725015Y-9034424D01*
X1724050Y-9040672D01*
X1723745Y-9047632D01*
X1723948Y-9053474D01*
X1724609Y-9058757D01*
X1725726Y-9063482D01*
X1727301Y-9067698D01*
X1729333Y-9071305D01*
X1731721Y-9074353D01*
X1734413Y-9076994D01*
X1737461Y-9079128D01*
X1740712Y-9080703D01*
X1744167Y-9081820D01*
X1747824Y-9082481D01*
X1751685Y-9082684D01*
X1756105Y-9082379D01*
X1760118Y-9081363D01*
X1763623Y-9079687D01*
X1766671Y-9077350D01*
X1769160Y-9074353D01*
X1771142Y-9070695D01*
X1772615Y-9066377D01*
X1773529Y-9061348D01*
X1773783Y-9061348D01*
X1775612Y-9066580D01*
X1778101Y-9071000D01*
X1779727Y-9073083D01*
X1781505Y-9074861D01*
X1783537Y-9076486D01*
X1785721Y-9077858D01*
X1788109Y-9078874D01*
X1790700Y-9079585D01*
X1793544Y-9079992D01*
X1796643Y-9080144D01*
X1801571Y-9079687D01*
X1805939Y-9078315D01*
X1809800Y-9076029D01*
X1813153Y-9072778D01*
X1815795Y-9068714D01*
X1817725Y-9063837D01*
X1818843Y-9058148D01*
X1819249Y-9051696D01*
X1818893Y-9045600D01*
X1817979Y-9040012D01*
X1816455Y-9034983D01*
X1814423Y-9030614D01*
X1812239Y-9026550D01*
X1809851Y-9022994D01*
X1798421Y-9030868D01*
X1801977Y-9035948D01*
X1803349Y-9038945D01*
X1804517Y-9042298D01*
X1805279Y-9046260D01*
X1805533Y-9050426D01*
X1805330Y-9053322D01*
X1804771Y-9055862D01*
X1803806Y-9057995D01*
X1802485Y-9059824D01*
X1800809Y-9061297D01*
X1798777Y-9062313D01*
X1796491Y-9062923D01*
X1793849Y-9063126D01*
X1791716Y-9063024D01*
X1787906Y-9062008D01*
X1784654Y-9059976D01*
X1783283Y-9058554D01*
X1782114Y-9056928D01*
X1781149Y-9054998D01*
X1780336Y-9052661D01*
X1779778Y-9049867D01*
X1779371Y-9043060D01*
X1779371Y-9036202D01*
X1766163Y-9036202D01*
X1766062Y-9046819D01*
X1765300Y-9053017D01*
X1764639Y-9055506D01*
X1763775Y-9057741D01*
X1761642Y-9061196D01*
X1760321Y-9062364D01*
X1758696Y-9063278D01*
X1754886Y-9064294D01*
X1752701Y-9064396D01*
X1749196Y-9064142D01*
X1746148Y-9063380D01*
X1743506Y-9062110D01*
X1741271Y-9060332D01*
X1739493Y-9057944D01*
X1738223Y-9054744D01*
X1737461Y-9050832D01*
X1737207Y-9046108D01*
X1737563Y-9040520D01*
X1738731Y-9034424D01*
X1740611Y-9028480D01*
X1743303Y-9022740D01*
G37*
G36*
X2249982Y-6910781D02*
G01*
X2249982Y-6964121D01*
X2263952Y-6964121D01*
X2263952Y-6928307D01*
X2342692Y-6928307D01*
X2342692Y-6910781D01*
G37*
G36*
X2269794Y-6970217D02*
G01*
X2269794Y-6985711D01*
X2283256Y-6985711D01*
X2315514Y-7004151D01*
X2324404Y-7008317D01*
X2324404Y-7008825D01*
X2312670Y-7008368D01*
X2283256Y-7008317D01*
X2283256Y-6985711D01*
X2269794Y-6985711D01*
X2269794Y-7008317D01*
X2249982Y-7008317D01*
X2249982Y-7025335D01*
X2269794Y-7025335D01*
X2269794Y-7036257D01*
X2283256Y-7036257D01*
X2283256Y-7025335D01*
X2342946Y-7025335D01*
X2342946Y-7008825D01*
X2281986Y-6970217D01*
G37*
G36*
X2249982Y-7135825D02*
G01*
X2249982Y-7153351D01*
X2328976Y-7153351D01*
X2328875Y-7163765D01*
X2328621Y-7166305D01*
X2327452Y-7170623D01*
X2326741Y-7172401D01*
X2325776Y-7173925D01*
X2324557Y-7175195D01*
X2323134Y-7176211D01*
X2321509Y-7176973D01*
X2317445Y-7177887D01*
X2312720Y-7177887D01*
X2308656Y-7176973D01*
X2306878Y-7176211D01*
X2305354Y-7175195D01*
X2304034Y-7173925D01*
X2302916Y-7172401D01*
X2301290Y-7168692D01*
X2300376Y-7163968D01*
X2300274Y-7153351D01*
X2286558Y-7153351D01*
X2286558Y-7164527D01*
X2249982Y-7184847D01*
X2249982Y-7204659D01*
X2290876Y-7179513D01*
X2293061Y-7183831D01*
X2295956Y-7187641D01*
X2297582Y-7189317D01*
X2301544Y-7192264D01*
X2303830Y-7193483D01*
X2306370Y-7194448D01*
X2309164Y-7195159D01*
X2312212Y-7195616D01*
X2315514Y-7195769D01*
X2319934Y-7195515D01*
X2323896Y-7194803D01*
X2327554Y-7193635D01*
X2330754Y-7191959D01*
X2333650Y-7189927D01*
X2336088Y-7187387D01*
X2338222Y-7184339D01*
X2339898Y-7180783D01*
X2341118Y-7176820D01*
X2342032Y-7172299D01*
X2342540Y-7167270D01*
X2342692Y-7135825D01*
G37*
G36*
X2320594Y-7212533D02*
G01*
X2310434Y-7221423D01*
X2319629Y-7231938D01*
X2325420Y-7237425D01*
X2319832Y-7237171D01*
X2249982Y-7237171D01*
X2249982Y-7254443D01*
X2342692Y-7254443D01*
X2342692Y-7239457D01*
G37*
G36*
X1175004Y-5910834D02*
G01*
X1175004Y-5928360D01*
X1253998Y-5928360D01*
X1253896Y-5938774D01*
X1253134Y-5943600D01*
X1251712Y-5947410D01*
X1250746Y-5948934D01*
X1249578Y-5950204D01*
X1248156Y-5951220D01*
X1246479Y-5951982D01*
X1244600Y-5952540D01*
X1240028Y-5952998D01*
X1235557Y-5952540D01*
X1233627Y-5951982D01*
X1231900Y-5951220D01*
X1230376Y-5950204D01*
X1229055Y-5948934D01*
X1227937Y-5947410D01*
X1226312Y-5943701D01*
X1225397Y-5938977D01*
X1225296Y-5928360D01*
X1211580Y-5928360D01*
X1211580Y-5939536D01*
X1175004Y-5959856D01*
X1175004Y-5979668D01*
X1215898Y-5954522D01*
X1218031Y-5958840D01*
X1220978Y-5962650D01*
X1222603Y-5964326D01*
X1226566Y-5967272D01*
X1228852Y-5968492D01*
X1231392Y-5969457D01*
X1234186Y-5970168D01*
X1237234Y-5970625D01*
X1240536Y-5970778D01*
X1244904Y-5970524D01*
X1248918Y-5969812D01*
X1252524Y-5968593D01*
X1255776Y-5966968D01*
X1258620Y-5964936D01*
X1261110Y-5962396D01*
X1263192Y-5959348D01*
X1264920Y-5955792D01*
X1266139Y-5951829D01*
X1267002Y-5947308D01*
X1267510Y-5942279D01*
X1267714Y-5936742D01*
X1267714Y-5910834D01*
G37*
G36*
X1256792Y-5984494D02*
G01*
X1245870Y-5993892D01*
X1249883Y-5998870D01*
X1253845Y-6006084D01*
X1254607Y-6008471D01*
X1255115Y-6010910D01*
X1255268Y-6013450D01*
X1255064Y-6015939D01*
X1254455Y-6018174D01*
X1253388Y-6020155D01*
X1251966Y-6021832D01*
X1250238Y-6023254D01*
X1248105Y-6024270D01*
X1245514Y-6024930D01*
X1242568Y-6025134D01*
X1237488Y-6024626D01*
X1232916Y-6023102D01*
X1228191Y-6020714D01*
X1223264Y-6017260D01*
X1211072Y-6006592D01*
X1187196Y-5984748D01*
X1175004Y-5984748D01*
X1175004Y-6045200D01*
X1189228Y-6045200D01*
X1189228Y-6006592D01*
X1189990Y-6006592D01*
X1217015Y-6030772D01*
X1221740Y-6034430D01*
X1226413Y-6037580D01*
X1231239Y-6039967D01*
X1236116Y-6041542D01*
X1241348Y-6042304D01*
X1244092Y-6042406D01*
X1247648Y-6042202D01*
X1251000Y-6041542D01*
X1254150Y-6040526D01*
X1257046Y-6039104D01*
X1259687Y-6037224D01*
X1262075Y-6035040D01*
X1264158Y-6032398D01*
X1265936Y-6029452D01*
X1267358Y-6026251D01*
X1268425Y-6022746D01*
X1269034Y-6018987D01*
X1269238Y-6014974D01*
X1269136Y-6011367D01*
X1268222Y-6004915D01*
X1267460Y-6002020D01*
X1265428Y-5996940D01*
X1262888Y-5992368D01*
X1258417Y-5986373D01*
G37*
G36*
X950010Y-9135821D02*
G01*
X950010Y-9153347D01*
X1029004Y-9153347D01*
X1028903Y-9163761D01*
X1028141Y-9168587D01*
X1026718Y-9172397D01*
X1025753Y-9173921D01*
X1024585Y-9175191D01*
X1023162Y-9176207D01*
X1021486Y-9176969D01*
X1019606Y-9177528D01*
X1015034Y-9177985D01*
X1010564Y-9177528D01*
X1008634Y-9176969D01*
X1006906Y-9176207D01*
X1005332Y-9175191D01*
X1004062Y-9173921D01*
X1002944Y-9172397D01*
X1001268Y-9168688D01*
X1000404Y-9163964D01*
X1000302Y-9153347D01*
X986586Y-9153347D01*
X986586Y-9164523D01*
X950010Y-9184843D01*
X950010Y-9204655D01*
X990904Y-9179509D01*
X993038Y-9183827D01*
X995984Y-9187637D01*
X999439Y-9190837D01*
X1001521Y-9192260D01*
X1003858Y-9193479D01*
X1006398Y-9194444D01*
X1009192Y-9195155D01*
X1012240Y-9195612D01*
X1015542Y-9195765D01*
X1019911Y-9195511D01*
X1023924Y-9194800D01*
X1027531Y-9193580D01*
X1030782Y-9191955D01*
X1033627Y-9189923D01*
X1036116Y-9187383D01*
X1038199Y-9184335D01*
X1039926Y-9180779D01*
X1041146Y-9176816D01*
X1042009Y-9172295D01*
X1042517Y-9167266D01*
X1042720Y-9161729D01*
X1042720Y-9135821D01*
G37*
G36*
X989634Y-9209735D02*
G01*
X984554Y-9209887D01*
X979830Y-9210344D01*
X975410Y-9211157D01*
X971346Y-9212275D01*
X967689Y-9213545D01*
X964336Y-9215069D01*
X961339Y-9216847D01*
X958646Y-9218879D01*
X956259Y-9221114D01*
X954227Y-9223502D01*
X952601Y-9226042D01*
X951280Y-9228785D01*
X950163Y-9231731D01*
X949350Y-9234779D01*
X948893Y-9237980D01*
X948764Y-9240723D01*
X962202Y-9240723D01*
X962609Y-9237573D01*
X963980Y-9234881D01*
X965860Y-9232493D01*
X968552Y-9230563D01*
X971702Y-9228937D01*
X975156Y-9227769D01*
X978712Y-9227159D01*
X982268Y-9227007D01*
X985774Y-9227413D01*
X989126Y-9228785D01*
X992174Y-9230868D01*
X994714Y-9233611D01*
X996238Y-9237065D01*
X996746Y-9240977D01*
X996442Y-9244025D01*
X995680Y-9246666D01*
X994308Y-9248851D01*
X992428Y-9250629D01*
X989939Y-9251950D01*
X987145Y-9252915D01*
X983996Y-9253474D01*
X980490Y-9253677D01*
X976071Y-9253423D01*
X972312Y-9252762D01*
X969111Y-9251645D01*
X966520Y-9250121D01*
X964641Y-9248190D01*
X963269Y-9245955D01*
X962456Y-9243466D01*
X962202Y-9240723D01*
X948764Y-9240723D01*
X948944Y-9245498D01*
X949706Y-9249511D01*
X950874Y-9253270D01*
X952550Y-9256725D01*
X954633Y-9259824D01*
X957173Y-9262567D01*
X960119Y-9264904D01*
X963472Y-9266885D01*
X967181Y-9268409D01*
X971296Y-9269526D01*
X975715Y-9270187D01*
X980490Y-9270441D01*
X985012Y-9270238D01*
X989126Y-9269679D01*
X992886Y-9268714D01*
X996238Y-9267393D01*
X999236Y-9265818D01*
X1001877Y-9263888D01*
X1004163Y-9261602D01*
X1006144Y-9259011D01*
X1007567Y-9256064D01*
X1008583Y-9252813D01*
X1009243Y-9249308D01*
X1009446Y-9245549D01*
X1009142Y-9241028D01*
X1008176Y-9237167D01*
X1006398Y-9233662D01*
X1004112Y-9230817D01*
X1001572Y-9228531D01*
X998524Y-9226753D01*
X998524Y-9225991D01*
X1005281Y-9226499D01*
X1011478Y-9227515D01*
X1016914Y-9229394D01*
X1021638Y-9232087D01*
X1023670Y-9233712D01*
X1025499Y-9235643D01*
X1027125Y-9237776D01*
X1028496Y-9240215D01*
X1029462Y-9242907D01*
X1030173Y-9245955D01*
X1030630Y-9249410D01*
X1030782Y-9253169D01*
X1030528Y-9259265D01*
X1029512Y-9264345D01*
X1042974Y-9264345D01*
X1043736Y-9258757D01*
X1043990Y-9252661D01*
X1043787Y-9247632D01*
X1043228Y-9242907D01*
X1042263Y-9238589D01*
X1040942Y-9234627D01*
X1039266Y-9230969D01*
X1037285Y-9227667D01*
X1035050Y-9224772D01*
X1032560Y-9222181D01*
X1029766Y-9219895D01*
X1026769Y-9217863D01*
X1023569Y-9216085D01*
X1016609Y-9213240D01*
X1013002Y-9212173D01*
X1005382Y-9210751D01*
X997508Y-9209989D01*
G37*
G36*
X560832Y-8307273D02*
G01*
X560832Y-8320989D01*
X585978Y-8320989D01*
X591312Y-8321344D01*
X595630Y-8322513D01*
X597408Y-8323275D01*
X598932Y-8324240D01*
X600202Y-8325408D01*
X601218Y-8326831D01*
X601980Y-8328456D01*
X602894Y-8332571D01*
X602894Y-8337296D01*
X601980Y-8341359D01*
X601218Y-8343087D01*
X600202Y-8344611D01*
X598932Y-8345931D01*
X597408Y-8347049D01*
X593699Y-8348675D01*
X591515Y-8349234D01*
X588975Y-8349589D01*
X578358Y-8349691D01*
X578358Y-8320989D01*
X560832Y-8320989D01*
X560832Y-8399983D01*
X578358Y-8399983D01*
X578358Y-8363407D01*
X589534Y-8363407D01*
X609854Y-8399983D01*
X629666Y-8399983D01*
X604520Y-8359089D01*
X606755Y-8358124D01*
X610819Y-8355584D01*
X614324Y-8352383D01*
X615899Y-8350503D01*
X618490Y-8346135D01*
X619455Y-8343595D01*
X620217Y-8340801D01*
X620623Y-8337753D01*
X620776Y-8334451D01*
X620522Y-8330082D01*
X619810Y-8326069D01*
X618642Y-8322462D01*
X616966Y-8319211D01*
X614934Y-8316366D01*
X612394Y-8313877D01*
X609346Y-8311794D01*
X605790Y-8310067D01*
X601827Y-8308848D01*
X597357Y-8307984D01*
X592277Y-8307425D01*
G37*
G36*
X634238Y-8307273D02*
G01*
X634238Y-8321243D01*
X676910Y-8321243D01*
X643890Y-8399983D01*
X662432Y-8399983D01*
X695452Y-8318195D01*
X695452Y-8307273D01*
G37*
G36*
X2249982Y-5860796D02*
G01*
X2249982Y-5878322D01*
X2328976Y-5878322D01*
X2328875Y-5888736D01*
X2328621Y-5891276D01*
X2327452Y-5895594D01*
X2326741Y-5897372D01*
X2325776Y-5898896D01*
X2324557Y-5900166D01*
X2323134Y-5901182D01*
X2321509Y-5901994D01*
X2319578Y-5902553D01*
X2315006Y-5902960D01*
X2310587Y-5902553D01*
X2308656Y-5901994D01*
X2306878Y-5901182D01*
X2305354Y-5900166D01*
X2304034Y-5898896D01*
X2302916Y-5897372D01*
X2301290Y-5893663D01*
X2300732Y-5891479D01*
X2300376Y-5888990D01*
X2300274Y-5878322D01*
X2286558Y-5878322D01*
X2286558Y-5889498D01*
X2249982Y-5909818D01*
X2249982Y-5929630D01*
X2290876Y-5904484D01*
X2293061Y-5908802D01*
X2295956Y-5912612D01*
X2297582Y-5914339D01*
X2301544Y-5917234D01*
X2303830Y-5918454D01*
X2306370Y-5919470D01*
X2309164Y-5920181D01*
X2312212Y-5920587D01*
X2315514Y-5920740D01*
X2319934Y-5920536D01*
X2323896Y-5919825D01*
X2327554Y-5918606D01*
X2330754Y-5916930D01*
X2333650Y-5914898D01*
X2336088Y-5912358D01*
X2338222Y-5909310D01*
X2339898Y-5905754D01*
X2341118Y-5901791D01*
X2341981Y-5897321D01*
X2342540Y-5892292D01*
X2342692Y-5860796D01*
G37*
G36*
X2311958Y-5934456D02*
G01*
X2307590Y-5934659D01*
X2303526Y-5935218D01*
X2299817Y-5936183D01*
X2296464Y-5937504D01*
X2293366Y-5939180D01*
X2290673Y-5941161D01*
X2288438Y-5943396D01*
X2286558Y-5945886D01*
X2285136Y-5948781D01*
X2284120Y-5951880D01*
X2283460Y-5955131D01*
X2283256Y-5958586D01*
X2283576Y-5963412D01*
X2295956Y-5963412D01*
X2296261Y-5960567D01*
X2297023Y-5958078D01*
X2298395Y-5955995D01*
X2300274Y-5954268D01*
X2302662Y-5952947D01*
X2305456Y-5951982D01*
X2308606Y-5951423D01*
X2312212Y-5951220D01*
X2316632Y-5951474D01*
X2320442Y-5952134D01*
X2323592Y-5953252D01*
X2326182Y-5954776D01*
X2328214Y-5956706D01*
X2329637Y-5958840D01*
X2330500Y-5961278D01*
X2330754Y-5963920D01*
X2330653Y-5965647D01*
X2329789Y-5968695D01*
X2328011Y-5971235D01*
X2325725Y-5973419D01*
X2322880Y-5975197D01*
X2319578Y-5976467D01*
X2316022Y-5977229D01*
X2312314Y-5977585D01*
X2308707Y-5977534D01*
X2305253Y-5976772D01*
X2303576Y-5976112D01*
X2300579Y-5973978D01*
X2298242Y-5971032D01*
X2296515Y-5967628D01*
X2296109Y-5965596D01*
X2295956Y-5963412D01*
X2283576Y-5963412D01*
X2283968Y-5966002D01*
X2284526Y-5967984D01*
X2286254Y-5971286D01*
X2288336Y-5974080D01*
X2291029Y-5976264D01*
X2293924Y-5978144D01*
X2293924Y-5978906D01*
X2287320Y-5978398D01*
X2281224Y-5977382D01*
X2275789Y-5975502D01*
X2271064Y-5972810D01*
X2269032Y-5971082D01*
X2267204Y-5969101D01*
X2265578Y-5966866D01*
X2264206Y-5964428D01*
X2263241Y-5961583D01*
X2262479Y-5958332D01*
X2262073Y-5954725D01*
X2261971Y-5949340D01*
X2262174Y-5945378D01*
X2263190Y-5940298D01*
X2249728Y-5940298D01*
X2248966Y-5945886D01*
X2248712Y-5951982D01*
X2249017Y-5958179D01*
X2249881Y-5963818D01*
X2251303Y-5968847D01*
X2253284Y-5973318D01*
X2255774Y-5977280D01*
X2258618Y-5980836D01*
X2261870Y-5983884D01*
X2265476Y-5986526D01*
X2269439Y-5988761D01*
X2273604Y-5990590D01*
X2278075Y-5992063D01*
X2287727Y-5994044D01*
X2297887Y-5995060D01*
X2303068Y-5995162D01*
X2308148Y-5995009D01*
X2312873Y-5994603D01*
X2317292Y-5993892D01*
X2321356Y-5992876D01*
X2325014Y-5991504D01*
X2328367Y-5989929D01*
X2331364Y-5988100D01*
X2334056Y-5986018D01*
X2336444Y-5983782D01*
X2338527Y-5981395D01*
X2340254Y-5978855D01*
X2341676Y-5976112D01*
X2342794Y-5973165D01*
X2343607Y-5970117D01*
X2344064Y-5966917D01*
X2344216Y-5963666D01*
X2343962Y-5959398D01*
X2343200Y-5955385D01*
X2341930Y-5951626D01*
X2340152Y-5948172D01*
X2338070Y-5945073D01*
X2335530Y-5942330D01*
X2332583Y-5939993D01*
X2329230Y-5938012D01*
X2325522Y-5936488D01*
X2321356Y-5935370D01*
X2316886Y-5934710D01*
G37*
G36*
X2249982Y-6385814D02*
G01*
X2249982Y-6403340D01*
X2328976Y-6403340D01*
X2328875Y-6413754D01*
X2328621Y-6416294D01*
X2327452Y-6420612D01*
X2326741Y-6422390D01*
X2325776Y-6423914D01*
X2324557Y-6425184D01*
X2323134Y-6426200D01*
X2321509Y-6426962D01*
X2317445Y-6427876D01*
X2312720Y-6427876D01*
X2308656Y-6426962D01*
X2306878Y-6426200D01*
X2305354Y-6425184D01*
X2304034Y-6423914D01*
X2302916Y-6422390D01*
X2301290Y-6418681D01*
X2300732Y-6416497D01*
X2300376Y-6414008D01*
X2300274Y-6403340D01*
X2286558Y-6403340D01*
X2286558Y-6414516D01*
X2249982Y-6434836D01*
X2249982Y-6454648D01*
X2290876Y-6429502D01*
X2293061Y-6433820D01*
X2295956Y-6437630D01*
X2299462Y-6440881D01*
X2303830Y-6443472D01*
X2306370Y-6444488D01*
X2309164Y-6445199D01*
X2312212Y-6445605D01*
X2315514Y-6445758D01*
X2319934Y-6445504D01*
X2323896Y-6444792D01*
X2327554Y-6443624D01*
X2330754Y-6441948D01*
X2333650Y-6439916D01*
X2336088Y-6437376D01*
X2338222Y-6434328D01*
X2339898Y-6430772D01*
X2341118Y-6426809D01*
X2342032Y-6422339D01*
X2342540Y-6417310D01*
X2342692Y-6385814D01*
G37*
G36*
X2320594Y-6462522D02*
G01*
X2310434Y-6471412D01*
X2319629Y-6481927D01*
X2325420Y-6487414D01*
X2319832Y-6487160D01*
X2249982Y-6487160D01*
X2249982Y-6504431D01*
X2342692Y-6504431D01*
X2342692Y-6489446D01*
G37*
G36*
X2296464Y-6529831D02*
G01*
X2282596Y-6530644D01*
X2270810Y-6533134D01*
X2265781Y-6535013D01*
X2261362Y-6537248D01*
X2257552Y-6539941D01*
X2254300Y-6543040D01*
X2251862Y-6546596D01*
X2250135Y-6550609D01*
X2249068Y-6555079D01*
X2248712Y-6560058D01*
X2262174Y-6560058D01*
X2262428Y-6557772D01*
X2263140Y-6555740D01*
X2264308Y-6553962D01*
X2265984Y-6552438D01*
X2268118Y-6551117D01*
X2270760Y-6549999D01*
X2273858Y-6549085D01*
X2277414Y-6548374D01*
X2286000Y-6547612D01*
X2296464Y-6547357D01*
X2306980Y-6547612D01*
X2315514Y-6548374D01*
X2319121Y-6549085D01*
X2322220Y-6549999D01*
X2324811Y-6551117D01*
X2326944Y-6552438D01*
X2328621Y-6553962D01*
X2329840Y-6555740D01*
X2330551Y-6557772D01*
X2330754Y-6560058D01*
X2330551Y-6562344D01*
X2329840Y-6564375D01*
X2328621Y-6566153D01*
X2326944Y-6567678D01*
X2324811Y-6569100D01*
X2322220Y-6570268D01*
X2319121Y-6571234D01*
X2315514Y-6571996D01*
X2306980Y-6572758D01*
X2296464Y-6573012D01*
X2286000Y-6572758D01*
X2277414Y-6571996D01*
X2273858Y-6571234D01*
X2270760Y-6570268D01*
X2268118Y-6569100D01*
X2265984Y-6567678D01*
X2264308Y-6566153D01*
X2263140Y-6564375D01*
X2262428Y-6562344D01*
X2262174Y-6560058D01*
X2248712Y-6560058D01*
X2248916Y-6564071D01*
X2249576Y-6567779D01*
X2250592Y-6571183D01*
X2252014Y-6574281D01*
X2253742Y-6577075D01*
X2255926Y-6579565D01*
X2258466Y-6581749D01*
X2261412Y-6583680D01*
X2264664Y-6585305D01*
X2268220Y-6586728D01*
X2272131Y-6587845D01*
X2276398Y-6588759D01*
X2285898Y-6589877D01*
X2296464Y-6590284D01*
X2310384Y-6589522D01*
X2322118Y-6587236D01*
X2327249Y-6585356D01*
X2331720Y-6583019D01*
X2335530Y-6580276D01*
X2338628Y-6577075D01*
X2341067Y-6573520D01*
X2342845Y-6569506D01*
X2343861Y-6565036D01*
X2344216Y-6560058D01*
X2343861Y-6554876D01*
X2342845Y-6550202D01*
X2341067Y-6546088D01*
X2338628Y-6542531D01*
X2335428Y-6539331D01*
X2331618Y-6536690D01*
X2327148Y-6534505D01*
X2322118Y-6532880D01*
X2310384Y-6530594D01*
G37*
G36*
X560832Y-8457285D02*
G01*
X560832Y-8471001D01*
X585978Y-8471001D01*
X591312Y-8471357D01*
X595630Y-8472525D01*
X597408Y-8473236D01*
X598932Y-8474202D01*
X600202Y-8475421D01*
X601218Y-8476843D01*
X601980Y-8478469D01*
X602894Y-8482533D01*
X602894Y-8487257D01*
X601980Y-8491321D01*
X601218Y-8493099D01*
X600202Y-8494623D01*
X598932Y-8495944D01*
X597408Y-8497062D01*
X593699Y-8498687D01*
X591515Y-8499246D01*
X588975Y-8499602D01*
X578358Y-8499703D01*
X578358Y-8471001D01*
X560832Y-8471001D01*
X560832Y-8549995D01*
X578358Y-8549995D01*
X578358Y-8513419D01*
X589534Y-8513419D01*
X609854Y-8549995D01*
X629666Y-8549995D01*
X604520Y-8509101D01*
X608838Y-8506917D01*
X612648Y-8504021D01*
X615899Y-8500516D01*
X618490Y-8496147D01*
X619455Y-8493607D01*
X620217Y-8490813D01*
X620623Y-8487765D01*
X620776Y-8484463D01*
X620522Y-8480044D01*
X619810Y-8476081D01*
X618642Y-8472424D01*
X616966Y-8469223D01*
X614934Y-8466328D01*
X612394Y-8463889D01*
X609346Y-8461806D01*
X605790Y-8460079D01*
X601827Y-8458860D01*
X597357Y-8457946D01*
X592277Y-8457438D01*
G37*
G36*
X664464Y-8457285D02*
G01*
X637540Y-8479383D01*
X646430Y-8489543D01*
X656945Y-8480348D01*
X662432Y-8474557D01*
X662178Y-8480145D01*
X662178Y-8549995D01*
X679450Y-8549995D01*
X679450Y-8457285D01*
G37*
G36*
X734822Y-8457285D02*
G01*
X707898Y-8479383D01*
X716788Y-8489543D01*
X728929Y-8478570D01*
X732790Y-8474557D01*
X732586Y-8477199D01*
X732536Y-8486241D01*
X732332Y-8489238D01*
X732282Y-8549995D01*
X749808Y-8549995D01*
X749808Y-8457285D01*
G37*
G36*
X1175004Y-6160820D02*
G01*
X1175004Y-6178346D01*
X1253998Y-6178346D01*
X1253896Y-6188760D01*
X1253134Y-6193586D01*
X1251712Y-6197396D01*
X1250746Y-6198920D01*
X1249578Y-6200190D01*
X1248156Y-6201206D01*
X1246479Y-6201968D01*
X1244600Y-6202527D01*
X1242415Y-6202883D01*
X1237691Y-6202883D01*
X1233627Y-6201968D01*
X1231900Y-6201206D01*
X1230376Y-6200190D01*
X1229055Y-6198920D01*
X1227937Y-6197396D01*
X1226312Y-6193688D01*
X1225753Y-6191504D01*
X1225397Y-6189014D01*
X1225296Y-6178346D01*
X1211580Y-6178346D01*
X1211580Y-6189522D01*
X1175004Y-6209842D01*
X1175004Y-6229654D01*
X1215898Y-6204508D01*
X1218031Y-6208826D01*
X1220978Y-6212636D01*
X1224483Y-6215888D01*
X1228852Y-6218478D01*
X1231392Y-6219494D01*
X1234186Y-6220206D01*
X1237234Y-6220612D01*
X1240536Y-6220764D01*
X1244904Y-6220510D01*
X1248918Y-6219799D01*
X1252524Y-6218631D01*
X1255776Y-6216954D01*
X1258620Y-6214922D01*
X1261110Y-6212382D01*
X1263192Y-6209334D01*
X1264920Y-6205778D01*
X1266139Y-6201816D01*
X1267002Y-6197346D01*
X1267510Y-6192316D01*
X1267714Y-6186728D01*
X1267714Y-6160820D01*
G37*
G36*
X1245616Y-6237528D02*
G01*
X1235456Y-6246418D01*
X1244650Y-6256934D01*
X1250442Y-6262420D01*
X1244854Y-6262166D01*
X1175004Y-6262166D01*
X1175004Y-6279438D01*
X1267714Y-6279438D01*
X1267714Y-6264452D01*
G37*
G36*
X1175004Y-6304838D02*
G01*
X1175004Y-6365290D01*
X1189228Y-6365290D01*
X1189228Y-6326682D01*
X1189990Y-6326682D01*
X1206550Y-6341973D01*
X1217015Y-6351117D01*
X1221740Y-6354775D01*
X1226413Y-6357823D01*
X1231239Y-6360261D01*
X1233678Y-6361226D01*
X1238707Y-6362344D01*
X1244092Y-6362750D01*
X1247648Y-6362547D01*
X1251000Y-6361938D01*
X1254150Y-6360871D01*
X1257046Y-6359448D01*
X1259687Y-6357620D01*
X1262075Y-6355384D01*
X1264158Y-6352794D01*
X1265936Y-6349796D01*
X1267358Y-6346596D01*
X1268425Y-6343142D01*
X1269034Y-6339382D01*
X1269238Y-6335318D01*
X1269136Y-6331762D01*
X1268222Y-6325260D01*
X1267460Y-6322364D01*
X1265428Y-6317284D01*
X1262888Y-6312712D01*
X1256792Y-6304838D01*
X1245870Y-6314236D01*
X1249883Y-6319164D01*
X1252728Y-6323888D01*
X1253845Y-6326327D01*
X1254607Y-6328765D01*
X1255115Y-6331254D01*
X1255268Y-6333794D01*
X1255064Y-6336334D01*
X1254455Y-6338570D01*
X1253388Y-6340500D01*
X1251966Y-6342176D01*
X1250238Y-6343599D01*
X1248105Y-6344666D01*
X1245514Y-6345275D01*
X1242568Y-6345478D01*
X1237488Y-6344970D01*
X1232916Y-6343446D01*
X1228191Y-6341110D01*
X1223264Y-6337604D01*
X1211072Y-6326936D01*
X1187196Y-6304838D01*
G37*
G36*
X1433779Y-7705750D02*
G01*
X1427581Y-7706055D01*
X1422095Y-7707020D01*
X1417116Y-7708544D01*
X1408633Y-7712709D01*
X1405077Y-7715148D01*
X1412951Y-7726578D01*
X1415237Y-7724800D01*
X1418031Y-7723022D01*
X1421028Y-7721650D01*
X1424381Y-7720482D01*
X1428292Y-7719720D01*
X1432255Y-7719466D01*
X1435252Y-7719669D01*
X1437843Y-7720228D01*
X1440078Y-7721193D01*
X1441907Y-7722514D01*
X1443380Y-7724190D01*
X1444396Y-7726222D01*
X1445006Y-7728508D01*
X1445209Y-7731150D01*
X1445107Y-7733233D01*
X1444091Y-7737043D01*
X1443177Y-7738770D01*
X1442008Y-7740345D01*
X1440586Y-7741716D01*
X1438859Y-7742885D01*
X1436827Y-7743850D01*
X1434490Y-7744612D01*
X1431747Y-7745171D01*
X1428648Y-7745526D01*
X1418285Y-7745628D01*
X1418285Y-7758836D01*
X1428902Y-7758938D01*
X1432204Y-7759192D01*
X1437589Y-7760360D01*
X1441602Y-7762189D01*
X1443177Y-7763357D01*
X1444447Y-7764678D01*
X1445361Y-7766303D01*
X1446377Y-7770114D01*
X1446479Y-7772298D01*
X1446225Y-7775752D01*
X1445463Y-7778851D01*
X1444193Y-7781493D01*
X1442415Y-7783728D01*
X1439926Y-7785506D01*
X1436725Y-7786776D01*
X1432814Y-7787538D01*
X1428191Y-7787792D01*
X1422603Y-7787386D01*
X1416507Y-7786268D01*
X1410563Y-7784338D01*
X1404823Y-7781696D01*
X1404823Y-7796174D01*
X1410563Y-7798409D01*
X1416507Y-7799984D01*
X1422755Y-7800949D01*
X1429715Y-7801254D01*
X1435557Y-7801051D01*
X1440840Y-7800390D01*
X1445564Y-7799273D01*
X1449781Y-7797698D01*
X1453388Y-7795615D01*
X1456486Y-7793228D01*
X1459077Y-7790535D01*
X1461211Y-7787538D01*
X1462786Y-7784287D01*
X1463903Y-7780781D01*
X1464564Y-7777175D01*
X1464767Y-7773314D01*
X1464462Y-7768844D01*
X1463446Y-7764881D01*
X1461770Y-7761376D01*
X1459433Y-7758328D01*
X1456334Y-7755788D01*
X1452676Y-7753807D01*
X1448358Y-7752384D01*
X1443431Y-7751470D01*
X1443431Y-7751216D01*
X1448511Y-7749387D01*
X1453083Y-7746898D01*
X1455115Y-7745272D01*
X1456893Y-7743444D01*
X1458417Y-7741462D01*
X1460804Y-7736890D01*
X1461617Y-7734249D01*
X1462074Y-7731404D01*
X1462227Y-7728356D01*
X1461770Y-7723428D01*
X1460398Y-7719009D01*
X1458112Y-7715148D01*
X1454861Y-7711846D01*
X1450797Y-7709204D01*
X1445920Y-7707274D01*
X1440230Y-7706156D01*
G37*
G36*
X1260805Y-7707274D02*
G01*
X1260805Y-7720990D01*
X1285951Y-7720990D01*
X1291285Y-7721396D01*
X1293571Y-7721853D01*
X1297381Y-7723276D01*
X1298905Y-7724241D01*
X1300175Y-7725409D01*
X1301191Y-7726832D01*
X1302004Y-7728458D01*
X1302562Y-7730388D01*
X1302969Y-7734960D01*
X1302562Y-7739380D01*
X1302004Y-7741361D01*
X1301191Y-7743088D01*
X1300175Y-7744612D01*
X1298905Y-7745933D01*
X1297381Y-7747050D01*
X1293672Y-7748676D01*
X1291488Y-7749235D01*
X1288999Y-7749590D01*
X1278331Y-7749692D01*
X1278331Y-7720990D01*
X1260805Y-7720990D01*
X1260805Y-7799984D01*
X1278331Y-7799984D01*
X1278331Y-7763408D01*
X1289507Y-7763408D01*
X1309827Y-7799984D01*
X1329639Y-7799984D01*
X1304493Y-7759090D01*
X1308811Y-7756956D01*
X1312621Y-7754010D01*
X1314348Y-7752384D01*
X1317244Y-7748422D01*
X1318463Y-7746136D01*
X1319479Y-7743596D01*
X1320190Y-7740802D01*
X1320596Y-7737754D01*
X1320749Y-7734452D01*
X1320546Y-7730083D01*
X1319834Y-7726070D01*
X1318615Y-7722463D01*
X1316939Y-7719212D01*
X1314907Y-7716367D01*
X1312367Y-7713878D01*
X1309319Y-7711795D01*
X1305763Y-7710068D01*
X1301800Y-7708849D01*
X1297330Y-7707985D01*
X1292301Y-7707426D01*
G37*
G36*
X1364437Y-7707274D02*
G01*
X1337513Y-7729372D01*
X1346403Y-7739532D01*
X1356969Y-7730337D01*
X1362405Y-7724546D01*
X1362151Y-7730134D01*
X1362151Y-7799984D01*
X1379423Y-7799984D01*
X1379423Y-7707274D01*
G37*
G36*
X638505Y-5530748D02*
G01*
X632307Y-5531053D01*
X626821Y-5532018D01*
X621741Y-5533542D01*
X617169Y-5535574D01*
X613308Y-5537758D01*
X609803Y-5540146D01*
X617423Y-5551576D01*
X622503Y-5548020D01*
X625703Y-5546648D01*
X629107Y-5545480D01*
X632866Y-5544718D01*
X636981Y-5544464D01*
X639876Y-5544667D01*
X642366Y-5545226D01*
X644550Y-5546191D01*
X646379Y-5547512D01*
X647852Y-5549188D01*
X648868Y-5551220D01*
X649478Y-5553506D01*
X649681Y-5556148D01*
X649579Y-5558231D01*
X648716Y-5562041D01*
X647903Y-5563768D01*
X646734Y-5565343D01*
X645312Y-5566714D01*
X643585Y-5567883D01*
X641553Y-5568848D01*
X639216Y-5569610D01*
X636473Y-5570169D01*
X633374Y-5570524D01*
X623011Y-5570626D01*
X623011Y-5583834D01*
X633628Y-5583936D01*
X639826Y-5584698D01*
X642315Y-5585358D01*
X646328Y-5587187D01*
X647903Y-5588355D01*
X649173Y-5589676D01*
X650087Y-5591302D01*
X651103Y-5595112D01*
X651205Y-5597296D01*
X650951Y-5600801D01*
X650189Y-5603849D01*
X648919Y-5606491D01*
X647141Y-5608726D01*
X644652Y-5610504D01*
X641400Y-5611774D01*
X637387Y-5612536D01*
X632663Y-5612790D01*
X627126Y-5612434D01*
X621233Y-5611266D01*
X615289Y-5609386D01*
X609549Y-5606694D01*
X609549Y-5621172D01*
X615238Y-5623407D01*
X620979Y-5624982D01*
X627430Y-5625947D01*
X634441Y-5626252D01*
X640283Y-5626049D01*
X645566Y-5625388D01*
X650290Y-5624271D01*
X654507Y-5622696D01*
X658063Y-5620664D01*
X661111Y-5618276D01*
X663651Y-5615584D01*
X665683Y-5612536D01*
X667359Y-5609285D01*
X668528Y-5605830D01*
X669290Y-5602173D01*
X669493Y-5598312D01*
X669137Y-5593842D01*
X668121Y-5589879D01*
X666343Y-5586374D01*
X663905Y-5583326D01*
X660958Y-5580786D01*
X657301Y-5578805D01*
X653084Y-5577382D01*
X648157Y-5576468D01*
X648157Y-5576214D01*
X650798Y-5575401D01*
X655574Y-5573217D01*
X657809Y-5571896D01*
X659841Y-5570270D01*
X661619Y-5568492D01*
X663143Y-5566460D01*
X665530Y-5561888D01*
X666343Y-5559247D01*
X666800Y-5556402D01*
X666953Y-5553354D01*
X666496Y-5548426D01*
X665124Y-5544007D01*
X662838Y-5540146D01*
X659587Y-5536844D01*
X655523Y-5534202D01*
X650646Y-5532272D01*
X644956Y-5531154D01*
G37*
G36*
X535889Y-5532272D02*
G01*
X535889Y-5545988D01*
X561035Y-5545988D01*
X566369Y-5546394D01*
X568655Y-5546852D01*
X572465Y-5548274D01*
X573989Y-5549239D01*
X575259Y-5550408D01*
X576275Y-5551830D01*
X577088Y-5553506D01*
X577951Y-5557570D01*
X577951Y-5562295D01*
X577088Y-5566359D01*
X576275Y-5568086D01*
X575259Y-5569610D01*
X573989Y-5570931D01*
X572465Y-5572048D01*
X568706Y-5573674D01*
X563981Y-5574588D01*
X553415Y-5574690D01*
X553415Y-5545988D01*
X535889Y-5545988D01*
X535889Y-5624982D01*
X553415Y-5624982D01*
X553415Y-5588406D01*
X564591Y-5588406D01*
X584911Y-5624982D01*
X604469Y-5624982D01*
X579577Y-5584088D01*
X583793Y-5581954D01*
X587705Y-5579008D01*
X589432Y-5577382D01*
X592328Y-5573420D01*
X593547Y-5571134D01*
X594563Y-5568594D01*
X595274Y-5565800D01*
X595680Y-5562752D01*
X595833Y-5559450D01*
X595630Y-5555081D01*
X594918Y-5551068D01*
X593699Y-5547461D01*
X592023Y-5544210D01*
X589889Y-5541365D01*
X587349Y-5538876D01*
X584301Y-5536793D01*
X580847Y-5535066D01*
X576834Y-5533847D01*
X572262Y-5532983D01*
X567283Y-5532475D01*
X561797Y-5532272D01*
G37*
G36*
X1470609Y-6532016D02*
G01*
X1432805Y-6591706D01*
X1447241Y-6591706D01*
X1465935Y-6559448D01*
X1470101Y-6550558D01*
X1470609Y-6550558D01*
X1469847Y-6570878D01*
X1469847Y-6591706D01*
X1432805Y-6591706D01*
X1432001Y-6592976D01*
X1432001Y-6605168D01*
X1469847Y-6605168D01*
X1469847Y-6624980D01*
X1487119Y-6624980D01*
X1487119Y-6605168D01*
X1498041Y-6605168D01*
X1498041Y-6591706D01*
X1487119Y-6591706D01*
X1487119Y-6532016D01*
G37*
G36*
X1360881Y-6532270D02*
G01*
X1360881Y-6545986D01*
X1386027Y-6545986D01*
X1391361Y-6546392D01*
X1393647Y-6546850D01*
X1397457Y-6548272D01*
X1398981Y-6549237D01*
X1400251Y-6550406D01*
X1401267Y-6551828D01*
X1402080Y-6553504D01*
X1402638Y-6555384D01*
X1403045Y-6559956D01*
X1402638Y-6564426D01*
X1402080Y-6566357D01*
X1401267Y-6568084D01*
X1400251Y-6569608D01*
X1398981Y-6570929D01*
X1397457Y-6572046D01*
X1393698Y-6573672D01*
X1388973Y-6574586D01*
X1378407Y-6574688D01*
X1378407Y-6545986D01*
X1360881Y-6545986D01*
X1360881Y-6624980D01*
X1378407Y-6624980D01*
X1378407Y-6588404D01*
X1389583Y-6588404D01*
X1409903Y-6624980D01*
X1429461Y-6624980D01*
X1404569Y-6584086D01*
X1408785Y-6581952D01*
X1412697Y-6579006D01*
X1414424Y-6577380D01*
X1417320Y-6573418D01*
X1418539Y-6571132D01*
X1419555Y-6568592D01*
X1420266Y-6565798D01*
X1420723Y-6562750D01*
X1420825Y-6559448D01*
X1420622Y-6555079D01*
X1419910Y-6551066D01*
X1418691Y-6547459D01*
X1417015Y-6544208D01*
X1414932Y-6541363D01*
X1412341Y-6538874D01*
X1409344Y-6536791D01*
X1405839Y-6535064D01*
X1401826Y-6533845D01*
X1397304Y-6532981D01*
X1392275Y-6532473D01*
X1386789Y-6532270D01*
G37*
G36*
X975004Y-7760868D02*
G01*
X975004Y-7778394D01*
X1053998Y-7778394D01*
X1053896Y-7788808D01*
X1053134Y-7793634D01*
X1051712Y-7797444D01*
X1050747Y-7798968D01*
X1049578Y-7800238D01*
X1048156Y-7801254D01*
X1046480Y-7802067D01*
X1044600Y-7802625D01*
X1040028Y-7803032D01*
X1035558Y-7802625D01*
X1033627Y-7802067D01*
X1031900Y-7801254D01*
X1030376Y-7800238D01*
X1029055Y-7798968D01*
X1027937Y-7797444D01*
X1026312Y-7793685D01*
X1025398Y-7788960D01*
X1025296Y-7778394D01*
X1011580Y-7778394D01*
X1011580Y-7789570D01*
X975004Y-7809890D01*
X975004Y-7829448D01*
X1015898Y-7804556D01*
X1018032Y-7808772D01*
X1020978Y-7812684D01*
X1022603Y-7814411D01*
X1026566Y-7817307D01*
X1028852Y-7818526D01*
X1031392Y-7819542D01*
X1034186Y-7820253D01*
X1037234Y-7820710D01*
X1040536Y-7820812D01*
X1044905Y-7820609D01*
X1048918Y-7819898D01*
X1052525Y-7818678D01*
X1055776Y-7817002D01*
X1058621Y-7814868D01*
X1061110Y-7812328D01*
X1063193Y-7809280D01*
X1064920Y-7805826D01*
X1066139Y-7801813D01*
X1067003Y-7797292D01*
X1067511Y-7792262D01*
X1067714Y-7786776D01*
X1067714Y-7760868D01*
G37*
G36*
X1045616Y-7837576D02*
G01*
X1035456Y-7846212D01*
X1044651Y-7856880D01*
X1050442Y-7862468D01*
X1032916Y-7861960D01*
X975004Y-7861960D01*
X975004Y-7879232D01*
X1067714Y-7879232D01*
X1067714Y-7864500D01*
G37*
G36*
X994816Y-7902092D02*
G01*
X994816Y-7917586D01*
X1008278Y-7917586D01*
X1040536Y-7936128D01*
X1049426Y-7940446D01*
X1049426Y-7940954D01*
X1029106Y-7940192D01*
X1008278Y-7940192D01*
X1008278Y-7917586D01*
X994816Y-7917586D01*
X994816Y-7940192D01*
X975004Y-7940192D01*
X975004Y-7957210D01*
X994816Y-7957210D01*
X994816Y-7968132D01*
X1008278Y-7968132D01*
X1008278Y-7957210D01*
X1067968Y-7957210D01*
X1067968Y-7940700D01*
X1007008Y-7902092D01*
G37*
G36*
X999998Y-8360816D02*
G01*
X999998Y-8378342D01*
X1078992Y-8378342D01*
X1078890Y-8388756D01*
X1078636Y-8391296D01*
X1077468Y-8395614D01*
X1076706Y-8397392D01*
X1075740Y-8398916D01*
X1074572Y-8400186D01*
X1073150Y-8401202D01*
X1071473Y-8401964D01*
X1069594Y-8402523D01*
X1067409Y-8402878D01*
X1062685Y-8402878D01*
X1058621Y-8401964D01*
X1056894Y-8401202D01*
X1055370Y-8400186D01*
X1054049Y-8398916D01*
X1052931Y-8397392D01*
X1051306Y-8393684D01*
X1050747Y-8391499D01*
X1050391Y-8388959D01*
X1050290Y-8378342D01*
X1036574Y-8378342D01*
X1036574Y-8389518D01*
X999998Y-8409838D01*
X999998Y-8429650D01*
X1040892Y-8404504D01*
X1041857Y-8406739D01*
X1044397Y-8410803D01*
X1047597Y-8414308D01*
X1049477Y-8415883D01*
X1053846Y-8418474D01*
X1056386Y-8419439D01*
X1059180Y-8420201D01*
X1062228Y-8420608D01*
X1065530Y-8420760D01*
X1069898Y-8420506D01*
X1073912Y-8419795D01*
X1077518Y-8418626D01*
X1080770Y-8416950D01*
X1083614Y-8414918D01*
X1086104Y-8412378D01*
X1088186Y-8409330D01*
X1089914Y-8405774D01*
X1091133Y-8401812D01*
X1091996Y-8397341D01*
X1092555Y-8392261D01*
X1092708Y-8360816D01*
G37*
G36*
X1003808Y-8436254D02*
G01*
X1001572Y-8441029D01*
X999998Y-8446668D01*
X999032Y-8452967D01*
X998728Y-8459622D01*
X998982Y-8465108D01*
X999693Y-8470087D01*
X1000861Y-8474608D01*
X1002537Y-8478672D01*
X1004671Y-8482228D01*
X1007160Y-8485327D01*
X1010107Y-8487968D01*
X1013460Y-8490102D01*
X1017168Y-8491778D01*
X1021283Y-8492947D01*
X1025702Y-8493658D01*
X1030478Y-8493912D01*
X1034846Y-8493658D01*
X1038860Y-8492998D01*
X1042466Y-8491880D01*
X1045718Y-8490356D01*
X1048613Y-8488426D01*
X1051102Y-8486140D01*
X1053287Y-8483600D01*
X1055116Y-8480704D01*
X1056538Y-8477402D01*
X1057605Y-8473897D01*
X1058214Y-8470188D01*
X1058367Y-8464143D01*
X1058113Y-8460740D01*
X1057148Y-8454542D01*
X1078484Y-8456320D01*
X1078484Y-8488070D01*
X1092708Y-8488070D01*
X1092708Y-8441334D01*
X1046734Y-8437778D01*
X1042924Y-8445144D01*
X1044752Y-8454898D01*
X1044956Y-8458352D01*
X1044702Y-8462721D01*
X1043940Y-8466480D01*
X1042669Y-8469579D01*
X1040892Y-8472068D01*
X1038606Y-8473948D01*
X1035862Y-8475319D01*
X1032662Y-8476081D01*
X1028953Y-8476386D01*
X1023823Y-8475878D01*
X1021587Y-8475218D01*
X1019556Y-8474354D01*
X1017778Y-8473236D01*
X1016304Y-8471865D01*
X1015136Y-8470290D01*
X1014221Y-8468512D01*
X1012901Y-8464143D01*
X1012545Y-8461705D01*
X1012545Y-8456269D01*
X1013307Y-8450275D01*
X1014882Y-8444077D01*
X1017066Y-8438642D01*
X1018286Y-8436254D01*
G37*
G36*
X674979Y-7085787D02*
G01*
X674979Y-7103313D01*
X753973Y-7103313D01*
X753922Y-7113727D01*
X753160Y-7118553D01*
X751738Y-7122363D01*
X750773Y-7123887D01*
X749554Y-7125157D01*
X748131Y-7126173D01*
X746506Y-7126986D01*
X744575Y-7127544D01*
X740003Y-7127951D01*
X735584Y-7127544D01*
X733653Y-7126986D01*
X731875Y-7126173D01*
X730351Y-7125157D01*
X729030Y-7123887D01*
X727964Y-7122363D01*
X726287Y-7118705D01*
X725728Y-7116470D01*
X725271Y-7111187D01*
X725271Y-7103313D01*
X711555Y-7103313D01*
X711555Y-7114489D01*
X674979Y-7134809D01*
X674979Y-7154621D01*
X715873Y-7129475D01*
X718058Y-7133793D01*
X720953Y-7137603D01*
X724458Y-7140854D01*
X728827Y-7143445D01*
X731367Y-7144461D01*
X734161Y-7145172D01*
X737209Y-7145629D01*
X740511Y-7145731D01*
X744931Y-7145528D01*
X748893Y-7144816D01*
X752551Y-7143597D01*
X755751Y-7141921D01*
X758647Y-7139889D01*
X761085Y-7137349D01*
X763219Y-7134301D01*
X764895Y-7130745D01*
X766114Y-7126833D01*
X767029Y-7122312D01*
X767537Y-7117283D01*
X767689Y-7085787D01*
G37*
G36*
X698601Y-7159447D02*
G01*
X694842Y-7159701D01*
X691337Y-7160361D01*
X688086Y-7161479D01*
X685139Y-7163003D01*
X682548Y-7164882D01*
X680262Y-7167219D01*
X678332Y-7169962D01*
X676757Y-7173163D01*
X675436Y-7176719D01*
X674471Y-7180681D01*
X673912Y-7185101D01*
X673720Y-7189673D01*
X686155Y-7189673D01*
X686409Y-7186472D01*
X687120Y-7183678D01*
X688340Y-7181291D01*
X689965Y-7179259D01*
X691896Y-7177735D01*
X694131Y-7176617D01*
X696620Y-7175957D01*
X699363Y-7175703D01*
X703173Y-7176109D01*
X706475Y-7177227D01*
X709422Y-7179259D01*
X712063Y-7181799D01*
X714502Y-7185101D01*
X716635Y-7188911D01*
X716127Y-7189927D01*
X730859Y-7189927D01*
X734415Y-7184339D01*
X736650Y-7182002D01*
X739241Y-7180021D01*
X742238Y-7178903D01*
X745591Y-7178497D01*
X748131Y-7178751D01*
X750316Y-7179360D01*
X752195Y-7180376D01*
X753719Y-7181799D01*
X754938Y-7183475D01*
X755853Y-7185304D01*
X756361Y-7187387D01*
X756513Y-7189673D01*
X756361Y-7192111D01*
X755853Y-7194245D01*
X754938Y-7196175D01*
X753719Y-7197801D01*
X752195Y-7199274D01*
X750316Y-7200290D01*
X748131Y-7200900D01*
X743762Y-7201052D01*
X740460Y-7200290D01*
X737768Y-7198766D01*
X735482Y-7196734D01*
X733450Y-7194245D01*
X730859Y-7189927D01*
X716127Y-7189927D01*
X714959Y-7192213D01*
X712774Y-7195515D01*
X710387Y-7198512D01*
X707694Y-7201052D01*
X704646Y-7203033D01*
X701243Y-7204049D01*
X697433Y-7204049D01*
X695655Y-7203744D01*
X693978Y-7203186D01*
X691083Y-7201560D01*
X688644Y-7199274D01*
X687679Y-7197801D01*
X686562Y-7194143D01*
X686155Y-7189673D01*
X673720Y-7189673D01*
X673912Y-7194600D01*
X674471Y-7198817D01*
X675436Y-7202728D01*
X676757Y-7206183D01*
X678484Y-7209434D01*
X680516Y-7212228D01*
X682904Y-7214616D01*
X685647Y-7216597D01*
X688594Y-7218172D01*
X691845Y-7219289D01*
X695350Y-7219950D01*
X699109Y-7220153D01*
X702106Y-7220000D01*
X704850Y-7219543D01*
X707440Y-7218730D01*
X712114Y-7216241D01*
X714248Y-7214666D01*
X716178Y-7212838D01*
X719632Y-7208570D01*
X722680Y-7203998D01*
X724001Y-7201611D01*
X726694Y-7205929D01*
X729589Y-7209739D01*
X731215Y-7211466D01*
X734872Y-7214260D01*
X739190Y-7216343D01*
X741629Y-7217054D01*
X744169Y-7217511D01*
X746861Y-7217613D01*
X750417Y-7217409D01*
X753618Y-7216749D01*
X756513Y-7215631D01*
X759053Y-7214057D01*
X761441Y-7212025D01*
X763473Y-7209688D01*
X765098Y-7207097D01*
X766419Y-7204151D01*
X767537Y-7200900D01*
X768350Y-7197445D01*
X768807Y-7193788D01*
X768959Y-7189927D01*
X768807Y-7186218D01*
X768350Y-7182662D01*
X767537Y-7179259D01*
X766419Y-7175957D01*
X765098Y-7172858D01*
X763473Y-7170115D01*
X761441Y-7167778D01*
X759053Y-7165797D01*
X756513Y-7164273D01*
X753618Y-7163155D01*
X750417Y-7162495D01*
X746861Y-7162241D01*
X741629Y-7162698D01*
X736955Y-7164019D01*
X732891Y-7166305D01*
X729335Y-7169099D01*
X726236Y-7172604D01*
X723493Y-7176465D01*
X720902Y-7172045D01*
X717651Y-7167829D01*
X713994Y-7164425D01*
X709523Y-7161733D01*
X707136Y-7160768D01*
X704545Y-7160056D01*
X701700Y-7159599D01*
G37*
G36*
X208025Y-6685229D02*
G01*
X194056Y-6687464D01*
X183134Y-6694119D01*
X176072Y-6705142D01*
X173736Y-6720281D01*
X174040Y-6726021D01*
X174853Y-6731304D01*
X176326Y-6736080D01*
X178308Y-6740347D01*
X180695Y-6744055D01*
X183489Y-6747306D01*
X186791Y-6750050D01*
X190500Y-6752285D01*
X194411Y-6754063D01*
X198628Y-6755333D01*
X203047Y-6756095D01*
X207771Y-6756349D01*
X267716Y-6756349D01*
X267716Y-6738569D01*
X206502Y-6738467D01*
X203403Y-6738162D01*
X200507Y-6737603D01*
X197866Y-6736791D01*
X195478Y-6735775D01*
X193395Y-6734454D01*
X191668Y-6732828D01*
X190246Y-6730949D01*
X189230Y-6728917D01*
X188518Y-6726529D01*
X188112Y-6723837D01*
X187960Y-6720789D01*
X188264Y-6716522D01*
X189230Y-6712813D01*
X190804Y-6709664D01*
X193040Y-6707073D01*
X196088Y-6705092D01*
X199898Y-6703669D01*
X204470Y-6702806D01*
X209804Y-6702501D01*
X267716Y-6702501D01*
X267716Y-6685229D01*
G37*
G36*
X245617Y-6774129D02*
G01*
X235458Y-6783019D01*
X244652Y-6793585D01*
X250444Y-6799021D01*
X238760Y-6798767D01*
X175006Y-6798767D01*
X175006Y-6816039D01*
X267716Y-6816039D01*
X267716Y-6801307D01*
G37*
G36*
X633018Y-8735161D02*
G01*
X619048Y-8737396D01*
X608126Y-8744051D01*
X601065Y-8755024D01*
X598728Y-8770213D01*
X599033Y-8776055D01*
X599897Y-8781338D01*
X601319Y-8786063D01*
X603300Y-8790279D01*
X605688Y-8794089D01*
X608533Y-8797340D01*
X611784Y-8800033D01*
X615492Y-8802217D01*
X619455Y-8803995D01*
X623620Y-8805265D01*
X628040Y-8806027D01*
X632764Y-8806281D01*
X692708Y-8806281D01*
X692708Y-8788755D01*
X631494Y-8788654D01*
X625500Y-8787638D01*
X620471Y-8785707D01*
X618388Y-8784386D01*
X616661Y-8782761D01*
X615238Y-8780881D01*
X614222Y-8778849D01*
X613511Y-8776462D01*
X613105Y-8773769D01*
X612952Y-8770721D01*
X613257Y-8766556D01*
X614222Y-8762898D01*
X615797Y-8759850D01*
X618032Y-8757259D01*
X621080Y-8755176D01*
X624890Y-8753652D01*
X629462Y-8752738D01*
X634796Y-8752433D01*
X692708Y-8752433D01*
X692708Y-8735161D01*
G37*
G36*
X599998Y-8821267D02*
G01*
X599998Y-8881719D01*
X614222Y-8881719D01*
X614222Y-8843111D01*
X614984Y-8843111D01*
X637032Y-8863228D01*
X642010Y-8867546D01*
X646734Y-8871254D01*
X651408Y-8874252D01*
X656234Y-8876538D01*
X661111Y-8878214D01*
X666343Y-8879078D01*
X669086Y-8879179D01*
X672642Y-8878976D01*
X675995Y-8878366D01*
X679145Y-8877350D01*
X682040Y-8875877D01*
X684682Y-8873947D01*
X687070Y-8871712D01*
X689152Y-8869121D01*
X690930Y-8866225D01*
X692353Y-8863025D01*
X693420Y-8859520D01*
X694029Y-8855659D01*
X694232Y-8851493D01*
X694131Y-8848039D01*
X693216Y-8841689D01*
X692454Y-8838793D01*
X690422Y-8833612D01*
X687882Y-8829141D01*
X684987Y-8825026D01*
X681786Y-8821267D01*
X670864Y-8830665D01*
X674878Y-8835644D01*
X677722Y-8840317D01*
X678840Y-8842654D01*
X679653Y-8845092D01*
X680110Y-8847632D01*
X680262Y-8850223D01*
X680059Y-8852662D01*
X679450Y-8854846D01*
X678383Y-8856878D01*
X676960Y-8858605D01*
X675233Y-8859926D01*
X673100Y-8860891D01*
X670509Y-8861450D01*
X667562Y-8861653D01*
X664972Y-8861552D01*
X660146Y-8860688D01*
X655574Y-8858758D01*
X650748Y-8855862D01*
X645566Y-8851849D01*
X639470Y-8846515D01*
X612190Y-8821267D01*
G37*
G36*
X1583029Y-7685125D02*
G01*
X1569059Y-7687360D01*
X1558137Y-7694015D01*
X1551076Y-7705140D01*
X1548739Y-7720177D01*
X1548993Y-7726019D01*
X1549857Y-7731302D01*
X1551279Y-7736078D01*
X1553311Y-7740243D01*
X1555699Y-7744053D01*
X1558493Y-7747304D01*
X1561795Y-7750048D01*
X1565503Y-7752181D01*
X1569415Y-7753959D01*
X1573631Y-7755229D01*
X1578051Y-7755991D01*
X1582775Y-7756245D01*
X1642719Y-7756245D01*
X1642719Y-7738719D01*
X1581454Y-7738618D01*
X1575511Y-7737602D01*
X1570482Y-7735671D01*
X1568399Y-7734401D01*
X1566672Y-7732877D01*
X1565249Y-7731099D01*
X1564233Y-7728966D01*
X1563522Y-7726476D01*
X1563116Y-7723733D01*
X1562963Y-7720685D01*
X1563268Y-7716520D01*
X1564233Y-7712913D01*
X1565808Y-7709814D01*
X1568043Y-7707223D01*
X1571091Y-7705242D01*
X1574901Y-7703820D01*
X1579473Y-7702956D01*
X1584807Y-7702651D01*
X1642719Y-7702651D01*
X1642719Y-7685125D01*
G37*
G36*
X1553819Y-7771231D02*
G01*
X1551584Y-7776921D01*
X1550009Y-7782661D01*
X1549044Y-7789113D01*
X1548739Y-7796123D01*
X1548942Y-7801965D01*
X1549603Y-7807248D01*
X1550720Y-7812024D01*
X1552295Y-7816189D01*
X1554327Y-7819745D01*
X1556715Y-7822793D01*
X1559407Y-7825333D01*
X1562455Y-7827365D01*
X1565706Y-7829042D01*
X1569161Y-7830261D01*
X1572818Y-7830972D01*
X1576679Y-7831175D01*
X1581150Y-7830870D01*
X1585112Y-7829803D01*
X1588617Y-7828076D01*
X1591665Y-7825587D01*
X1594154Y-7822641D01*
X1596186Y-7818983D01*
X1597609Y-7814767D01*
X1598523Y-7809839D01*
X1598777Y-7809839D01*
X1599590Y-7812481D01*
X1601774Y-7817307D01*
X1603095Y-7819491D01*
X1604721Y-7821523D01*
X1606499Y-7823301D01*
X1608531Y-7824825D01*
X1613103Y-7827213D01*
X1615744Y-7828025D01*
X1618538Y-7828483D01*
X1621637Y-7828635D01*
X1626565Y-7828178D01*
X1630984Y-7826806D01*
X1634794Y-7824520D01*
X1638147Y-7821269D01*
X1640789Y-7817205D01*
X1642719Y-7812328D01*
X1643837Y-7806690D01*
X1644243Y-7800187D01*
X1643938Y-7793990D01*
X1642973Y-7788503D01*
X1641449Y-7783423D01*
X1639417Y-7778851D01*
X1637233Y-7774990D01*
X1634845Y-7771485D01*
X1623415Y-7779105D01*
X1626971Y-7784185D01*
X1628343Y-7787386D01*
X1629511Y-7790789D01*
X1630273Y-7794548D01*
X1630527Y-7798663D01*
X1630324Y-7801559D01*
X1629765Y-7804099D01*
X1628800Y-7806232D01*
X1627479Y-7808061D01*
X1625803Y-7809534D01*
X1623771Y-7810550D01*
X1621485Y-7811160D01*
X1618843Y-7811363D01*
X1614779Y-7810957D01*
X1612950Y-7810398D01*
X1611223Y-7809585D01*
X1609648Y-7808468D01*
X1608277Y-7806994D01*
X1607108Y-7805267D01*
X1606143Y-7803235D01*
X1605330Y-7800898D01*
X1604467Y-7795056D01*
X1604365Y-7784693D01*
X1591157Y-7784693D01*
X1591056Y-7795310D01*
X1590294Y-7801508D01*
X1589633Y-7803997D01*
X1587804Y-7808010D01*
X1586636Y-7809585D01*
X1585315Y-7810855D01*
X1583690Y-7811770D01*
X1579880Y-7812786D01*
X1577695Y-7812887D01*
X1574190Y-7812633D01*
X1571142Y-7811871D01*
X1568500Y-7810601D01*
X1566265Y-7808823D01*
X1564487Y-7806334D01*
X1563217Y-7803083D01*
X1562455Y-7799070D01*
X1562201Y-7794345D01*
X1562557Y-7788859D01*
X1563725Y-7782915D01*
X1565605Y-7776972D01*
X1568297Y-7771231D01*
G37*
G36*
X1367028Y-6094730D02*
G01*
X1367028Y-6129985D01*
X1397508Y-6129985D01*
X1397508Y-6094730D01*
G37*
G36*
X1367028Y-6220002D02*
G01*
X1367028Y-6255207D01*
X1397508Y-6255207D01*
X1397508Y-6220002D01*
G37*
G36*
X1552498Y-6420002D02*
G01*
X1552498Y-6455206D01*
X1582978Y-6455206D01*
X1582978Y-6420002D01*
G37*
G36*
X1552498Y-6294729D02*
G01*
X1552498Y-6329984D01*
X1582978Y-6329984D01*
X1582978Y-6294729D01*
G37*
G36*
X2170023Y-7641996D02*
G01*
X2170023Y-7672476D01*
X2205228Y-7672476D01*
X2205228Y-7641996D01*
G37*
G36*
X2044750Y-7641996D02*
G01*
X2044750Y-7672476D01*
X2080006Y-7672476D01*
X2080006Y-7641996D01*
G37*
D10*
X2449995Y-4924988D02*
G01*
X49999Y-4924988D01*
D11*
X199999Y-699996D02*
G01*
X199999Y-4349991D01*
X2299995Y-699996D02*
G01*
X2299995Y-4349991D01*
X299999Y-599996D02*
G01*
X2199995Y-599996D01*
X2199995Y-4449993D02*
G01*
X300004Y-4449993D01*
D10*
X425000Y-4724991D02*
G01*
X49999Y-4724991D01*
X2074997Y-4724991D02*
G01*
X2449995Y-4724991D01*
D12*
X932350Y-8777940D02*
G01*
X932350Y-8778935D01*
X899345Y-8811940D01*
X864346Y-8777940D02*
G01*
X865344Y-8777940D01*
X899345Y-8811940D01*
X864346Y-8777940D02*
G01*
X932350Y-8777940D01*
X824339Y-8775936D02*
G01*
X824339Y-8660935D01*
X974351Y-8775936D02*
G01*
X974351Y-8660935D01*
X824349Y-8660935D02*
G01*
X972342Y-8660935D01*
X974582Y-8813937D02*
G01*
X974582Y-8918948D01*
X934575Y-8948943D02*
G01*
X944577Y-8948943D01*
X974582Y-8918948D01*
X864580Y-8948943D02*
G01*
X934575Y-8948943D01*
X864580Y-8948943D02*
G01*
X854565Y-8948943D01*
X824570Y-8918948D01*
X824570Y-8813937D02*
G01*
X824570Y-8918948D01*
X899345Y-8777940D02*
G01*
X899345Y-8811940D01*
D13*
X2206116Y-6634627D02*
G01*
X2065116Y-6634627D01*
X2065116Y-6815348D02*
G01*
X2206116Y-6815348D01*
X2221356Y-6800108D02*
G01*
X2221356Y-6649867D01*
X1843877Y-6634627D02*
G01*
X1984877Y-6634627D01*
X1984877Y-6815348D02*
G01*
X1843877Y-6815348D01*
X1828637Y-6800108D02*
G01*
X1828637Y-6649867D01*
X2206116Y-7309624D02*
G01*
X2065116Y-7309624D01*
X2065116Y-7490345D02*
G01*
X2206116Y-7490345D01*
X2221356Y-7475105D02*
G01*
X2221356Y-7324864D01*
X1843877Y-7309624D02*
G01*
X1984877Y-7309624D01*
X1984877Y-7490345D02*
G01*
X1843877Y-7490345D01*
X1828637Y-7475105D02*
G01*
X1828637Y-7324864D01*
X1756117Y-5834628D02*
G01*
X1615117Y-5834628D01*
X1615117Y-6015349D02*
G01*
X1756117Y-6015349D01*
X1771357Y-6000109D02*
G01*
X1771357Y-5849868D01*
X1393878Y-5834628D02*
G01*
X1534878Y-5834628D01*
X1534878Y-6015349D02*
G01*
X1393878Y-6015349D01*
X1378638Y-6000109D02*
G01*
X1378638Y-5849868D01*
X2206116Y-6134628D02*
G01*
X2065116Y-6134628D01*
X2065116Y-6315349D02*
G01*
X2206116Y-6315349D01*
X2221356Y-6300109D02*
G01*
X2221356Y-6149868D01*
X1843877Y-6134628D02*
G01*
X1984877Y-6134628D01*
X1984877Y-6315349D02*
G01*
X1843877Y-6315349D01*
X1828637Y-6300109D02*
G01*
X1828637Y-6149868D01*
D14*
X1613999Y-7910007D02*
G01*
X1613999Y-7990009D01*
X1503024Y-7879021D02*
G01*
X1583021Y-7879021D01*
X1503024Y-8020987D02*
G01*
X1583021Y-8020987D01*
X1445435Y-7878439D02*
G01*
X1365435Y-7878439D01*
X1334452Y-7909422D02*
G01*
X1334452Y-7989420D01*
X1445435Y-8020400D02*
G01*
X1365435Y-8020400D01*
X1410020Y-8710980D02*
G01*
X1490022Y-8710980D01*
X1379034Y-8821955D02*
G01*
X1379034Y-8741958D01*
X1521000Y-8821955D02*
G01*
X1521000Y-8741958D01*
X1378452Y-8879545D02*
G01*
X1378452Y-8959545D01*
X1409435Y-8990528D02*
G01*
X1489433Y-8990528D01*
X1520413Y-8879545D02*
G01*
X1520413Y-8959545D01*
X1560995Y-8814960D02*
G01*
X1560995Y-8734958D01*
X1671970Y-8845946D02*
G01*
X1591972Y-8845946D01*
X1671970Y-8703980D02*
G01*
X1591972Y-8703980D01*
X1729559Y-8846527D02*
G01*
X1809559Y-8846527D01*
X1840542Y-8815544D02*
G01*
X1840542Y-8735547D01*
X1729559Y-8704567D02*
G01*
X1809559Y-8704567D01*
X1613999Y-8410006D02*
G01*
X1613999Y-8490008D01*
X1503024Y-8379020D02*
G01*
X1583021Y-8379020D01*
X1503024Y-8520986D02*
G01*
X1583021Y-8520986D01*
X1445435Y-8378438D02*
G01*
X1365435Y-8378438D01*
X1334452Y-8409421D02*
G01*
X1334452Y-8489419D01*
X1445435Y-8520399D02*
G01*
X1365435Y-8520399D01*
X1763999Y-5685012D02*
G01*
X1763999Y-5765015D01*
X1653024Y-5654027D02*
G01*
X1733021Y-5654027D01*
X1653024Y-5795992D02*
G01*
X1733021Y-5795992D01*
X1595434Y-5653445D02*
G01*
X1515435Y-5653445D01*
X1484452Y-5684428D02*
G01*
X1484452Y-5764425D01*
X1595434Y-5795406D02*
G01*
X1515435Y-5795406D01*
X614001Y-7010008D02*
G01*
X614001Y-7090011D01*
X503026Y-6979023D02*
G01*
X583023Y-6979023D01*
X503026Y-7120989D02*
G01*
X583023Y-7120989D01*
X445437Y-6978441D02*
G01*
X365437Y-6978441D01*
X334454Y-7009424D02*
G01*
X334454Y-7089421D01*
X445437Y-7120402D02*
G01*
X365437Y-7120402D01*
X1235021Y-8710980D02*
G01*
X1315024Y-8710980D01*
X1204036Y-8821955D02*
G01*
X1204036Y-8741958D01*
X1346001Y-8821955D02*
G01*
X1346001Y-8741958D01*
X1203454Y-8879545D02*
G01*
X1203454Y-8959545D01*
X1234437Y-8990528D02*
G01*
X1314434Y-8990528D01*
X1345415Y-8879545D02*
G01*
X1345415Y-8959545D01*
X614001Y-7210008D02*
G01*
X614001Y-7290010D01*
X503026Y-7179022D02*
G01*
X583023Y-7179022D01*
X503026Y-7320988D02*
G01*
X583023Y-7320988D01*
X445437Y-7178441D02*
G01*
X365437Y-7178441D01*
X334454Y-7209424D02*
G01*
X334454Y-7289421D01*
X445437Y-7320401D02*
G01*
X365437Y-7320401D01*
X1560995Y-9314959D02*
G01*
X1560995Y-9234957D01*
X1671970Y-9345945D02*
G01*
X1591972Y-9345945D01*
X1671970Y-9203979D02*
G01*
X1591972Y-9203979D01*
X1729559Y-9346526D02*
G01*
X1809559Y-9346526D01*
X1840542Y-9315543D02*
G01*
X1840542Y-9235546D01*
X1729559Y-9204566D02*
G01*
X1809559Y-9204566D01*
X539000Y-9060004D02*
G01*
X539000Y-9140007D01*
X428025Y-9029019D02*
G01*
X508022Y-9029019D01*
X428025Y-9170984D02*
G01*
X508022Y-9170984D01*
X370436Y-9028437D02*
G01*
X290436Y-9028437D01*
X259453Y-9059420D02*
G01*
X259453Y-9139417D01*
X370436Y-9170398D02*
G01*
X290436Y-9170398D01*
X989002Y-6610009D02*
G01*
X989002Y-6690012D01*
X878027Y-6579024D02*
G01*
X958024Y-6579024D01*
X878027Y-6720989D02*
G01*
X958024Y-6720989D01*
X820437Y-6578442D02*
G01*
X740437Y-6578442D01*
X709455Y-6609425D02*
G01*
X709455Y-6689422D01*
X820437Y-6720403D02*
G01*
X740437Y-6720403D01*
D15*
X1565122Y-6247610D02*
G01*
X1565122Y-6226987D01*
X1565122Y-6102367D02*
G01*
X1565122Y-6121989D01*
D13*
X1389877Y-6102367D02*
G01*
X1565122Y-6102367D01*
X1389877Y-6247610D02*
G01*
X1565122Y-6247610D01*
X1430322Y-6102367D02*
G01*
X1430322Y-6247610D01*
D15*
X1384874Y-6302367D02*
G01*
X1384874Y-6322989D01*
X1384874Y-6447609D02*
G01*
X1384874Y-6427988D01*
D13*
X1560118Y-6447609D02*
G01*
X1384874Y-6447609D01*
X1560118Y-6302367D02*
G01*
X1384874Y-6302367D01*
X1519674Y-6447609D02*
G01*
X1519674Y-6302367D01*
D15*
X2052375Y-7840108D02*
G01*
X2072998Y-7840108D01*
X2197618Y-7840108D02*
G01*
X2177996Y-7840108D01*
D13*
X2197618Y-7664864D02*
G01*
X2197618Y-7840108D01*
X2052375Y-7664864D02*
G01*
X2052375Y-7840108D01*
X2197618Y-7705308D02*
G01*
X2052375Y-7705308D01*
D14*
X1501645Y-5601990D02*
G01*
X741997Y-5601990D01*
X741997Y-5347990D01*
X1757997Y-5347990D01*
X1757997Y-5601990D01*
X1501645Y-5601990D01*
X1501645Y-5601990D02*
G01*
X1501645Y-5347990D01*
X998349Y-9422980D02*
G01*
X1757997Y-9422980D01*
X1757997Y-9676980D01*
X741997Y-9676980D01*
X741997Y-9422980D01*
X998349Y-9422980D01*
X998349Y-9422980D02*
G01*
X998349Y-9676980D01*
X2174996Y-7989984D02*
G01*
X1774997Y-7989984D01*
X2174996Y-8409983D02*
G01*
X1774997Y-8409983D01*
D15*
X1484861Y-8072815D02*
G01*
X1484861Y-8149015D01*
X1484861Y-8325817D02*
G01*
X1484861Y-8249617D01*
X1616981Y-8325817D02*
G01*
X1616981Y-8249617D01*
D13*
X1616981Y-8325817D02*
G01*
X1601739Y-8341047D01*
X1500096Y-8341047D01*
X1484861Y-8325817D01*
D15*
X1616981Y-8072815D02*
G01*
X1616981Y-8149015D01*
D13*
X1484861Y-8072815D02*
G01*
X1500096Y-8057573D01*
X1601739Y-8057573D01*
X1616981Y-8072815D01*
D15*
X1690133Y-9152150D02*
G01*
X1690133Y-9075950D01*
X1690133Y-8899149D02*
G01*
X1690133Y-8975349D01*
X1558013Y-8899149D02*
G01*
X1558013Y-8975349D01*
D13*
X1558013Y-8899149D02*
G01*
X1573255Y-8883919D01*
X1674898Y-8883919D01*
X1690133Y-8899149D01*
D15*
X1558013Y-9152150D02*
G01*
X1558013Y-9075950D01*
D13*
X1690133Y-9152150D02*
G01*
X1674898Y-9167393D01*
X1573255Y-9167393D01*
X1558013Y-9152150D01*
D15*
X2084862Y-6847819D02*
G01*
X2084862Y-6924019D01*
X2084862Y-7100821D02*
G01*
X2084862Y-7024621D01*
X2216983Y-7100821D02*
G01*
X2216983Y-7024621D01*
D13*
X2216983Y-7100821D02*
G01*
X2201740Y-7116051D01*
X2100097Y-7116051D01*
X2084862Y-7100821D01*
D15*
X2216983Y-6847819D02*
G01*
X2216983Y-6924019D01*
D13*
X2084862Y-6847819D02*
G01*
X2100097Y-6832577D01*
X2201740Y-6832577D01*
X2216983Y-6847819D01*
X2117618Y-7266045D02*
G01*
X2213505Y-7266045D01*
X2213505Y-7133925D01*
X2117618Y-7133925D01*
X2032375Y-7266045D02*
G01*
X1936488Y-7266045D01*
X1936488Y-7133925D01*
X2032375Y-7133925D01*
X1008938Y-6017610D02*
G01*
X1008938Y-6113498D01*
X1141059Y-6113498D01*
X1141059Y-6017610D01*
X1008938Y-5932368D02*
G01*
X1008938Y-5836480D01*
X1141059Y-5836480D01*
X1141059Y-5932368D01*
X783937Y-9242602D02*
G01*
X783937Y-9338490D01*
X916058Y-9338490D01*
X916058Y-9242602D01*
X783937Y-9157360D02*
G01*
X783937Y-9061472D01*
X916058Y-9061472D01*
X916058Y-9157360D01*
X442620Y-8416043D02*
G01*
X538507Y-8416043D01*
X538507Y-8283922D01*
X442620Y-8283922D01*
X357378Y-8416043D02*
G01*
X261490Y-8416043D01*
X261490Y-8283922D01*
X357378Y-8283922D01*
X2117618Y-5991049D02*
G01*
X2213505Y-5991049D01*
X2213505Y-5858929D01*
X2117618Y-5858929D01*
X2032375Y-5991049D02*
G01*
X1936488Y-5991049D01*
X1936488Y-5858929D01*
X2032375Y-5858929D01*
X2083937Y-6517609D02*
G01*
X2083937Y-6613497D01*
X2216058Y-6613497D01*
X2216058Y-6517609D01*
X2083937Y-6432367D02*
G01*
X2083937Y-6336479D01*
X2216058Y-6336479D01*
X2216058Y-6432367D01*
X357378Y-8433922D02*
G01*
X261490Y-8433922D01*
X261490Y-8566043D01*
X357378Y-8566043D01*
X442620Y-8433922D02*
G01*
X538507Y-8433922D01*
X538507Y-8566043D01*
X442620Y-8566043D01*
X1008938Y-6317609D02*
G01*
X1008938Y-6413497D01*
X1141059Y-6413497D01*
X1141059Y-6317609D01*
X1008938Y-6232367D02*
G01*
X1008938Y-6136479D01*
X1141059Y-6136479D01*
X1141059Y-6232367D01*
X1392618Y-7691046D02*
G01*
X1488506Y-7691046D01*
X1488506Y-7558925D01*
X1392618Y-7558925D01*
X1307376Y-7691046D02*
G01*
X1211488Y-7691046D01*
X1211488Y-7558925D01*
X1307376Y-7558925D01*
D14*
X599998Y-5921387D02*
G01*
X599998Y-6124587D01*
X498398Y-6022987D02*
G01*
X701598Y-6022987D01*
X244398Y-6124587D02*
G01*
X244398Y-5718187D01*
X244398Y-5667387D01*
X295198Y-5667387D01*
X295198Y-5718187D01*
X396798Y-5718187D01*
X396798Y-5667387D01*
X549198Y-5667387D01*
X549198Y-5718187D01*
X650798Y-5718187D01*
X650798Y-5667387D01*
X803198Y-5667387D01*
X803198Y-5718187D01*
X904798Y-5718187D01*
X904798Y-5667387D01*
X955598Y-5667387D01*
X955598Y-5718187D01*
X955598Y-6073787D01*
X955598Y-6378587D01*
X244398Y-6378587D01*
X244398Y-6073787D01*
X1424998Y-6921385D02*
G01*
X1424998Y-7124585D01*
X1323398Y-7022985D02*
G01*
X1526598Y-7022985D01*
X1069398Y-7124585D02*
G01*
X1069398Y-6718185D01*
X1069398Y-6667385D01*
X1120198Y-6667385D01*
X1120198Y-6718185D01*
X1221798Y-6718185D01*
X1221798Y-6667385D01*
X1374198Y-6667385D01*
X1374198Y-6718185D01*
X1475798Y-6718185D01*
X1475798Y-6667385D01*
X1628198Y-6667385D01*
X1628198Y-6718185D01*
X1729798Y-6718185D01*
X1729798Y-6667385D01*
X1780598Y-6667385D01*
X1780598Y-6718185D01*
X1780598Y-7073785D01*
X1780598Y-7378585D01*
X1069398Y-7378585D01*
X1069398Y-7073785D01*
X599998Y-7978584D02*
G01*
X599998Y-7775384D01*
X701598Y-7876984D02*
G01*
X498398Y-7876984D01*
X955598Y-7775384D02*
G01*
X955598Y-8181784D01*
X955598Y-8232584D01*
X904798Y-8232584D01*
X904798Y-8181784D01*
X803198Y-8181784D01*
X803198Y-8232584D01*
X650798Y-8232584D01*
X650798Y-8181784D01*
X549198Y-8181784D01*
X549198Y-8232584D01*
X396798Y-8232584D01*
X396798Y-8181784D01*
X295198Y-8181784D01*
X295198Y-8232584D01*
X244398Y-8232584D01*
X244398Y-8181784D01*
X244398Y-7826184D01*
X244398Y-7521384D01*
X955598Y-7521384D01*
X955598Y-7826184D01*
D13*
X966058Y-8382363D02*
G01*
X966058Y-8286475D01*
X833937Y-8286475D01*
X833937Y-8382363D01*
X966058Y-8467605D02*
G01*
X966058Y-8563493D01*
X833937Y-8563493D01*
X833937Y-8467605D01*
X916058Y-7107364D02*
G01*
X916058Y-7011476D01*
X783937Y-7011476D01*
X783937Y-7107364D01*
X916058Y-7192606D02*
G01*
X916058Y-7288494D01*
X783937Y-7288494D01*
X783937Y-7192606D01*
D14*
X384995Y-6904992D02*
G01*
X564997Y-6904992D01*
X384995Y-6789994D02*
G01*
X384995Y-6709991D01*
X384995Y-6594990D02*
G01*
X564997Y-6594990D01*
D13*
X487606Y-8646363D02*
G01*
X312366Y-8646363D01*
X312366Y-8750523D01*
X487606Y-8953601D02*
G01*
X312366Y-8953601D01*
X312366Y-8849441D01*
X487606Y-8754442D02*
G01*
X487606Y-8845522D01*
X1671078Y-7661064D02*
G01*
X1671078Y-7838904D01*
X1978916Y-7661064D02*
G01*
X1978916Y-7838904D01*
D11*
G75*
G01*
X2199996Y-599996D02*
G02*
X2299995Y-699996I0J-100000D01*
G75*
G01*
X200000Y-699996D02*
G02*
X299999Y-599996I99999J0D01*
G75*
G01*
X2299995Y-4349991D02*
G02*
X2199996Y-4449991I-99999J0D01*
G75*
G01*
X299999Y-4449991D02*
G02*
X200000Y-4349991I0J100000D01*
D13*
G75*
G01*
X2206117Y-6815348D02*
G03*
X2221357Y-6800108I0J15240D01*
G75*
G01*
X2221357Y-6649867D02*
G03*
X2206117Y-6634627I-15240J0D01*
G75*
G01*
X1843877Y-6815348D02*
G02*
X1828637Y-6800108I0J15240D01*
G75*
G01*
X1828637Y-6649867D02*
G02*
X1843877Y-6634627I15240J0D01*
G75*
G01*
X2206117Y-7490346D02*
G03*
X2221357Y-7475106I0J15240D01*
G75*
G01*
X2221357Y-7324865D02*
G03*
X2206117Y-7309625I-15240J0D01*
G75*
G01*
X1843877Y-7490346D02*
G02*
X1828637Y-7475106I0J15240D01*
G75*
G01*
X1828637Y-7324865D02*
G02*
X1843877Y-7309625I15240J0D01*
G75*
G01*
X1756118Y-6015350D02*
G03*
X1771358Y-6000110I0J15240D01*
G75*
G01*
X1771358Y-5849869D02*
G03*
X1756118Y-5834629I-15240J0D01*
G75*
G01*
X1393878Y-6015350D02*
G02*
X1378638Y-6000110I0J15240D01*
G75*
G01*
X1378638Y-5849869D02*
G02*
X1393878Y-5834629I15240J0D01*
G75*
G01*
X2206117Y-6315349D02*
G03*
X2221357Y-6300109I0J15240D01*
G75*
G01*
X2221357Y-6149868D02*
G03*
X2206117Y-6134628I-15240J0D01*
G75*
G01*
X1843877Y-6315349D02*
G02*
X1828637Y-6300109I0J15240D01*
G75*
G01*
X1828637Y-6149868D02*
G02*
X1843877Y-6134628I15240J0D01*
D14*
G75*
G01*
X1334447Y-7909423D02*
G02*
X1365430Y-7878440I30983J0D01*
G75*
G01*
X1365430Y-8020406D02*
G02*
X1334447Y-7989420I0J30983D01*
G75*
G01*
X1583017Y-7879022D02*
G02*
X1614000Y-7910007I0J-30982D01*
G75*
G01*
X1614000Y-7990004D02*
G02*
X1583017Y-8020987I-30983J0D01*
G75*
G01*
X1409436Y-8990533D02*
G02*
X1378453Y-8959550I0J30983D01*
G75*
G01*
X1520419Y-8959550D02*
G02*
X1489433Y-8990533I-30983J0D01*
G75*
G01*
X1379035Y-8741964D02*
G02*
X1410020Y-8710981I30982J0D01*
G75*
G01*
X1490017Y-8710981D02*
G02*
X1521000Y-8741964I0J-30983D01*
G75*
G01*
X1840548Y-8815545D02*
G02*
X1809565Y-8846528I-30983J0D01*
G75*
G01*
X1809565Y-8704562D02*
G02*
X1840548Y-8735548I0J-30983D01*
G75*
G01*
X1591978Y-8845946D02*
G02*
X1560995Y-8814961I0J30983D01*
G75*
G01*
X1560995Y-8734963D02*
G02*
X1591978Y-8703981I30983J0D01*
G75*
G01*
X1334447Y-8409422D02*
G02*
X1365430Y-8378439I30983J0D01*
G75*
G01*
X1365430Y-8520405D02*
G02*
X1334447Y-8489419I0J30983D01*
G75*
G01*
X1583017Y-8379021D02*
G02*
X1614000Y-8410006I0J-30982D01*
G75*
G01*
X1614000Y-8490003D02*
G02*
X1583017Y-8520986I-30983J0D01*
G75*
G01*
X1484447Y-5684429D02*
G02*
X1515430Y-5653446I30983J0D01*
G75*
G01*
X1515430Y-5795411D02*
G02*
X1484447Y-5764426I0J30983D01*
G75*
G01*
X1733017Y-5654027D02*
G02*
X1764000Y-5685013I0J-30983D01*
G75*
G01*
X1764000Y-5765010D02*
G02*
X1733017Y-5795993I-30983J0D01*
G75*
G01*
X334449Y-7009425D02*
G02*
X365432Y-6978442I30983J0D01*
G75*
G01*
X365432Y-7120407D02*
G02*
X334449Y-7089422I0J30983D01*
G75*
G01*
X583019Y-6979023D02*
G02*
X614002Y-7010009I0J-30983D01*
G75*
G01*
X614002Y-7090006D02*
G02*
X583019Y-7120989I-30983J0D01*
G75*
G01*
X1234437Y-8990533D02*
G02*
X1203455Y-8959550I0J30983D01*
G75*
G01*
X1345420Y-8959550D02*
G02*
X1314435Y-8990533I-30983J0D01*
G75*
G01*
X1204036Y-8741964D02*
G02*
X1235022Y-8710981I30983J0D01*
G75*
G01*
X1315019Y-8710981D02*
G02*
X1346002Y-8741964I0J-30983D01*
G75*
G01*
X334449Y-7209424D02*
G02*
X365432Y-7178441I30983J0D01*
G75*
G01*
X365432Y-7320407D02*
G02*
X334449Y-7289422I0J30983D01*
G75*
G01*
X583019Y-7179023D02*
G02*
X614002Y-7210008I0J-30983D01*
G75*
G01*
X614002Y-7290006D02*
G02*
X583019Y-7320989I-30983J0D01*
G75*
G01*
X1840548Y-9315544D02*
G02*
X1809565Y-9346527I-30983J0D01*
G75*
G01*
X1809565Y-9204561D02*
G02*
X1840548Y-9235547I0J-30983D01*
G75*
G01*
X1591978Y-9345945D02*
G02*
X1560995Y-9314960I0J30983D01*
G75*
G01*
X1560995Y-9234962D02*
G02*
X1591978Y-9203980I30983J0D01*
G75*
G01*
X259448Y-9059421D02*
G02*
X290431Y-9028438I30983J0D01*
G75*
G01*
X290431Y-9170403D02*
G02*
X259448Y-9139418I0J30983D01*
G75*
G01*
X508018Y-9029019D02*
G02*
X539001Y-9060005I0J-30983D01*
G75*
G01*
X539001Y-9140002D02*
G02*
X508018Y-9170985I-30983J0D01*
G75*
G01*
X709450Y-6609425D02*
G02*
X740433Y-6578443I30983J0D01*
G75*
G01*
X740433Y-6720408D02*
G02*
X709450Y-6689423I0J30983D01*
G75*
G01*
X958019Y-6579024D02*
G02*
X989002Y-6610010I0J-30983D01*
G75*
G01*
X989002Y-6690007D02*
G02*
X958019Y-6720990I-30983J0D01*
G75*
G01*
X853999Y-6315088D02*
G03*
X853745Y-6315088I-127J7619D01*
G75*
G01*
X599999Y-6136526D02*
G03*
X597967Y-6136526I-1016J113588D01*
G75*
G01*
X1678998Y-7315086D02*
G03*
X1678744Y-7315086I-127J7619D01*
G75*
G01*
X1424998Y-7136524D02*
G03*
X1422966Y-7136524I-1016J113588D01*
G75*
G01*
X345999Y-7584884D02*
G03*
X346253Y-7584884I127J-7619D01*
G75*
G01*
X599999Y-7763447D02*
G03*
X602031Y-7763447I1016J-113587D01*
G75*
G01
X640080Y-6915099D02*
G03X640080Y-6915099I-12700J0D01*
D11*
G75*
G01
X2006829Y-7619848D02*
G03X2006829Y-7619848I-15011J0D01*
M02*
