G04 Layer: InnerLayer2*
G04 EasyEDA v6.5.47, 2024-11-14 14:17:51*
G04 9a5be75d700b4a6385dc1106f27949ae,10*
G04 Gerber Generator version 0.2*
G04 Scale: 100 percent, Rotated: No, Reflected: No *
G04 Dimensions in millimeters *
G04 leading zeros omitted , absolute positions ,4 integer and 5 decimal *
%FSLAX45Y45*%
%MOMM*%

%ADD10R,1.7000X1.7000*%
%ADD11C,1.7000*%
%ADD12C,1.5240*%
%ADD13C,5.5000*%
%ADD14C,0.6200*%
%ADD15C,0.8200*%
%ADD16C,0.0134*%

%LPD*%
G36*
X315163Y-9969500D02*
G01*
X311251Y-9968687D01*
X307949Y-9966502D01*
X305765Y-9963200D01*
X305003Y-9959340D01*
X305003Y-9694976D01*
X40690Y-9694976D01*
X36779Y-9694214D01*
X33477Y-9691979D01*
X31292Y-9688677D01*
X30530Y-9684816D01*
X30530Y-9665106D01*
X31292Y-9661245D01*
X33477Y-9657943D01*
X36779Y-9655759D01*
X40690Y-9654946D01*
X305003Y-9654946D01*
X305003Y-9370364D01*
X294690Y-9370974D01*
X270611Y-9374327D01*
X246888Y-9379610D01*
X223672Y-9386773D01*
X201117Y-9395714D01*
X179324Y-9406432D01*
X158445Y-9418878D01*
X138633Y-9432899D01*
X119989Y-9448495D01*
X102616Y-9465462D01*
X86715Y-9483801D01*
X72237Y-9503359D01*
X59436Y-9523984D01*
X49682Y-9542780D01*
X46786Y-9546234D01*
X42722Y-9548063D01*
X38252Y-9548012D01*
X34239Y-9546031D01*
X31495Y-9542475D01*
X30530Y-9538157D01*
X30530Y-5461812D01*
X31495Y-5457444D01*
X34239Y-5453938D01*
X38252Y-5451957D01*
X42722Y-5451856D01*
X46786Y-5453735D01*
X49682Y-5457139D01*
X59436Y-5475986D01*
X72237Y-5496610D01*
X86715Y-5516118D01*
X102616Y-5534456D01*
X119989Y-5551474D01*
X138633Y-5567019D01*
X158445Y-5581091D01*
X179324Y-5593486D01*
X201117Y-5604205D01*
X223672Y-5613196D01*
X246888Y-5620308D01*
X270611Y-5625592D01*
X294690Y-5628944D01*
X305003Y-5629605D01*
X305003Y-5344972D01*
X40690Y-5344972D01*
X36779Y-5344210D01*
X33477Y-5342026D01*
X31292Y-5338724D01*
X30530Y-5334812D01*
X30530Y-5315153D01*
X31292Y-5311241D01*
X33477Y-5307939D01*
X36779Y-5305755D01*
X40690Y-5304993D01*
X305003Y-5304993D01*
X305003Y-5020360D01*
X294690Y-5020970D01*
X270611Y-5024374D01*
X246888Y-5029606D01*
X223672Y-5036769D01*
X201117Y-5045710D01*
X179324Y-5056428D01*
X158445Y-5068874D01*
X138633Y-5082895D01*
X119989Y-5098491D01*
X102616Y-5115509D01*
X86715Y-5133848D01*
X72237Y-5153355D01*
X59436Y-5173980D01*
X49682Y-5192826D01*
X46786Y-5196230D01*
X42722Y-5198110D01*
X38252Y-5198008D01*
X34239Y-5196027D01*
X31495Y-5192522D01*
X30530Y-5188153D01*
X30530Y-5010150D01*
X31292Y-5006238D01*
X33477Y-5002987D01*
X36779Y-5000752D01*
X40690Y-4999990D01*
X305714Y-4999990D01*
X310489Y-5001310D01*
X311251Y-5000752D01*
X315163Y-4999990D01*
X334822Y-4999990D01*
X338734Y-5000752D01*
X340766Y-5002123D01*
X342341Y-5000955D01*
X346608Y-4999990D01*
X2155698Y-4999990D01*
X2160473Y-5001310D01*
X2161286Y-5000752D01*
X2165146Y-4999990D01*
X2184857Y-4999990D01*
X2188718Y-5000752D01*
X2190750Y-5002123D01*
X2192324Y-5000955D01*
X2196592Y-4999990D01*
X2459329Y-4999990D01*
X2463241Y-5000752D01*
X2466492Y-5002987D01*
X2468727Y-5006238D01*
X2469489Y-5010150D01*
X2469489Y-5188407D01*
X2468727Y-5192217D01*
X2466594Y-5195519D01*
X2463393Y-5197703D01*
X2459583Y-5198567D01*
X2455722Y-5197906D01*
X2452420Y-5195874D01*
X2450134Y-5192725D01*
X2446375Y-5184648D01*
X2434336Y-5163566D01*
X2420721Y-5143449D01*
X2405532Y-5124500D01*
X2388870Y-5106822D01*
X2370836Y-5090515D01*
X2351582Y-5075682D01*
X2331212Y-5062474D01*
X2309876Y-5050891D01*
X2287676Y-5041036D01*
X2264765Y-5032959D01*
X2241296Y-5026761D01*
X2217369Y-5022443D01*
X2195576Y-5020259D01*
X2195017Y-5020056D01*
X2195017Y-5304993D01*
X2459329Y-5304993D01*
X2463241Y-5305755D01*
X2466492Y-5307939D01*
X2468727Y-5311241D01*
X2469489Y-5315153D01*
X2469489Y-5334812D01*
X2468727Y-5338724D01*
X2466492Y-5342026D01*
X2463241Y-5344210D01*
X2459329Y-5344972D01*
X2195017Y-5344972D01*
X2195017Y-5629757D01*
X2217369Y-5627522D01*
X2241296Y-5623204D01*
X2264765Y-5617006D01*
X2287676Y-5608929D01*
X2309876Y-5599074D01*
X2331212Y-5587492D01*
X2351582Y-5574233D01*
X2370836Y-5559450D01*
X2388870Y-5543143D01*
X2405532Y-5525465D01*
X2420721Y-5506516D01*
X2434336Y-5486400D01*
X2446375Y-5465267D01*
X2450134Y-5457240D01*
X2452420Y-5454091D01*
X2455722Y-5452059D01*
X2459583Y-5451398D01*
X2463393Y-5452211D01*
X2466594Y-5454446D01*
X2468727Y-5457698D01*
X2469489Y-5461558D01*
X2469489Y-9538411D01*
X2468727Y-9542221D01*
X2466594Y-9545472D01*
X2463393Y-9547707D01*
X2459583Y-9548571D01*
X2455722Y-9547910D01*
X2452420Y-9545828D01*
X2450134Y-9542678D01*
X2446375Y-9534652D01*
X2434336Y-9513519D01*
X2420721Y-9493453D01*
X2405532Y-9474504D01*
X2388870Y-9456826D01*
X2370836Y-9440519D01*
X2351582Y-9425686D01*
X2331212Y-9412427D01*
X2309876Y-9400844D01*
X2287676Y-9390989D01*
X2264765Y-9382963D01*
X2241296Y-9376765D01*
X2217369Y-9372447D01*
X2195017Y-9370212D01*
X2195017Y-9654946D01*
X2459329Y-9654946D01*
X2463241Y-9655759D01*
X2466492Y-9657943D01*
X2468727Y-9661245D01*
X2469489Y-9665106D01*
X2469489Y-9684816D01*
X2468727Y-9688677D01*
X2466492Y-9691979D01*
X2463241Y-9694214D01*
X2459329Y-9694976D01*
X2195017Y-9694976D01*
X2195017Y-9959340D01*
X2194204Y-9963200D01*
X2192020Y-9966502D01*
X2188718Y-9968687D01*
X2184857Y-9969500D01*
X2165146Y-9969500D01*
X2161286Y-9968687D01*
X2157984Y-9966502D01*
X2155748Y-9963200D01*
X2154986Y-9959340D01*
X2154986Y-9694976D01*
X1870354Y-9694976D01*
X1871675Y-9711334D01*
X1875536Y-9735312D01*
X1881276Y-9758934D01*
X1888845Y-9781997D01*
X1898243Y-9804400D01*
X1909419Y-9825939D01*
X1922272Y-9846564D01*
X1936699Y-9866122D01*
X1952650Y-9884460D01*
X1969973Y-9901428D01*
X1988616Y-9917023D01*
X2008428Y-9931044D01*
X2029307Y-9943490D01*
X2042922Y-9950196D01*
X2046427Y-9953040D01*
X2048357Y-9957104D01*
X2048357Y-9961626D01*
X2046376Y-9965690D01*
X2042871Y-9968484D01*
X2038451Y-9969500D01*
X461873Y-9969500D01*
X458012Y-9968738D01*
X454710Y-9966553D01*
X452526Y-9963302D01*
X451713Y-9959441D01*
X452374Y-9955580D01*
X454507Y-9952278D01*
X457708Y-9950043D01*
X459892Y-9949078D01*
X481228Y-9937496D01*
X501599Y-9924237D01*
X520852Y-9909403D01*
X538835Y-9893147D01*
X555498Y-9875418D01*
X570738Y-9856470D01*
X584352Y-9836404D01*
X596341Y-9815271D01*
X606653Y-9793274D01*
X615188Y-9770516D01*
X621842Y-9747148D01*
X626618Y-9723374D01*
X629513Y-9699244D01*
X629716Y-9694976D01*
X344982Y-9694976D01*
X344982Y-9959340D01*
X344220Y-9963200D01*
X342036Y-9966502D01*
X338734Y-9968687D01*
X334822Y-9969500D01*
G37*

%LPC*%
G36*
X784504Y-9665462D02*
G01*
X953516Y-9665462D01*
X959916Y-9664852D01*
X965657Y-9663125D01*
X970940Y-9660280D01*
X975512Y-9656521D01*
X979322Y-9651898D01*
X982116Y-9646615D01*
X983843Y-9640925D01*
X984503Y-9634474D01*
X984503Y-9465462D01*
X983843Y-9459061D01*
X982116Y-9453321D01*
X979322Y-9448038D01*
X975512Y-9443466D01*
X970940Y-9439656D01*
X965657Y-9436862D01*
X959916Y-9435134D01*
X953516Y-9434474D01*
X784504Y-9434474D01*
X778052Y-9435134D01*
X772363Y-9436862D01*
X767080Y-9439656D01*
X762457Y-9443466D01*
X758698Y-9448038D01*
X755853Y-9453321D01*
X754126Y-9459061D01*
X753516Y-9465462D01*
X753516Y-9634474D01*
X754126Y-9640925D01*
X755853Y-9646615D01*
X758698Y-9651898D01*
X762457Y-9656521D01*
X767080Y-9660280D01*
X772363Y-9663125D01*
X778052Y-9664852D01*
G37*
G36*
X1369771Y-9665258D02*
G01*
X1384249Y-9665258D01*
X1398625Y-9663430D01*
X1412697Y-9659823D01*
X1426159Y-9654489D01*
X1438859Y-9647478D01*
X1450594Y-9638944D01*
X1461160Y-9629038D01*
X1470406Y-9617862D01*
X1478178Y-9605619D01*
X1484376Y-9592513D01*
X1488846Y-9578695D01*
X1491589Y-9564471D01*
X1492504Y-9549993D01*
X1491589Y-9535515D01*
X1488846Y-9521240D01*
X1484376Y-9507474D01*
X1478178Y-9494367D01*
X1470406Y-9482124D01*
X1461160Y-9470948D01*
X1450594Y-9460992D01*
X1438859Y-9452457D01*
X1426159Y-9445498D01*
X1412697Y-9440164D01*
X1398625Y-9436557D01*
X1384249Y-9434728D01*
X1369771Y-9434728D01*
X1355344Y-9436557D01*
X1341323Y-9440164D01*
X1327810Y-9445498D01*
X1315110Y-9452457D01*
X1303375Y-9460992D01*
X1292809Y-9470948D01*
X1283563Y-9482124D01*
X1275791Y-9494367D01*
X1269644Y-9507474D01*
X1265123Y-9521240D01*
X1262430Y-9535515D01*
X1261516Y-9549993D01*
X1262430Y-9564471D01*
X1265123Y-9578695D01*
X1269644Y-9592513D01*
X1275791Y-9605619D01*
X1283563Y-9617862D01*
X1292809Y-9629038D01*
X1303375Y-9638944D01*
X1315110Y-9647478D01*
X1327810Y-9654489D01*
X1341323Y-9659823D01*
X1355344Y-9663430D01*
G37*
G36*
X1623771Y-9665258D02*
G01*
X1638249Y-9665258D01*
X1652625Y-9663430D01*
X1666697Y-9659823D01*
X1680159Y-9654489D01*
X1692859Y-9647478D01*
X1704593Y-9638944D01*
X1715160Y-9629038D01*
X1724406Y-9617862D01*
X1732178Y-9605619D01*
X1738375Y-9592513D01*
X1742846Y-9578695D01*
X1745589Y-9564471D01*
X1746504Y-9549993D01*
X1745589Y-9535515D01*
X1742846Y-9521240D01*
X1738375Y-9507474D01*
X1732178Y-9494367D01*
X1724406Y-9482124D01*
X1715160Y-9470948D01*
X1704593Y-9460992D01*
X1692859Y-9452457D01*
X1680159Y-9445498D01*
X1666697Y-9440164D01*
X1652625Y-9436557D01*
X1638249Y-9434728D01*
X1623771Y-9434728D01*
X1609344Y-9436557D01*
X1595323Y-9440164D01*
X1581810Y-9445498D01*
X1569110Y-9452457D01*
X1557375Y-9460992D01*
X1546809Y-9470948D01*
X1537563Y-9482124D01*
X1529791Y-9494367D01*
X1523644Y-9507474D01*
X1519123Y-9521240D01*
X1516430Y-9535515D01*
X1515516Y-9549993D01*
X1516430Y-9564471D01*
X1519123Y-9578695D01*
X1523644Y-9592513D01*
X1529791Y-9605619D01*
X1537563Y-9617862D01*
X1546809Y-9629038D01*
X1557375Y-9638944D01*
X1569110Y-9647478D01*
X1581810Y-9654489D01*
X1595323Y-9659823D01*
X1609344Y-9663430D01*
G37*
G36*
X1103020Y-9663633D02*
G01*
X1103020Y-9570008D01*
X1009497Y-9570008D01*
X1011123Y-9578695D01*
X1015644Y-9592513D01*
X1021791Y-9605619D01*
X1029563Y-9617862D01*
X1038809Y-9629038D01*
X1049375Y-9638944D01*
X1061110Y-9647478D01*
X1073810Y-9654489D01*
X1087323Y-9659823D01*
X1101344Y-9663430D01*
G37*
G36*
X1143000Y-9663633D02*
G01*
X1144625Y-9663430D01*
X1158697Y-9659823D01*
X1172159Y-9654489D01*
X1184859Y-9647478D01*
X1196594Y-9638944D01*
X1207160Y-9629038D01*
X1216406Y-9617862D01*
X1224178Y-9605619D01*
X1230376Y-9592513D01*
X1234846Y-9578695D01*
X1236522Y-9570008D01*
X1143000Y-9570008D01*
G37*
G36*
X1870354Y-9654946D02*
G01*
X2154986Y-9654946D01*
X2154986Y-9370364D01*
X2144674Y-9370974D01*
X2120595Y-9374327D01*
X2096922Y-9379610D01*
X2073706Y-9386773D01*
X2051100Y-9395714D01*
X2029307Y-9406432D01*
X2008428Y-9418878D01*
X1988616Y-9432899D01*
X1969973Y-9448495D01*
X1952650Y-9465462D01*
X1936699Y-9483801D01*
X1922272Y-9503359D01*
X1909419Y-9523984D01*
X1898243Y-9545574D01*
X1888845Y-9567926D01*
X1881276Y-9591040D01*
X1875536Y-9614611D01*
X1871675Y-9638588D01*
G37*
G36*
X344982Y-9654946D02*
G01*
X629716Y-9654946D01*
X629513Y-9650679D01*
X626618Y-9626600D01*
X621842Y-9602774D01*
X615188Y-9579406D01*
X606653Y-9556648D01*
X596341Y-9534652D01*
X584352Y-9513519D01*
X570738Y-9493453D01*
X555498Y-9474504D01*
X538835Y-9456826D01*
X520852Y-9440519D01*
X501599Y-9425686D01*
X481228Y-9412427D01*
X459892Y-9400844D01*
X437692Y-9390989D01*
X414782Y-9382963D01*
X391261Y-9376765D01*
X367385Y-9372447D01*
X344982Y-9370212D01*
G37*
G36*
X1009497Y-9529978D02*
G01*
X1103020Y-9529978D01*
X1103020Y-9436354D01*
X1101344Y-9436557D01*
X1087323Y-9440164D01*
X1073810Y-9445498D01*
X1061110Y-9452457D01*
X1049375Y-9460992D01*
X1038809Y-9470948D01*
X1029563Y-9482124D01*
X1021791Y-9494367D01*
X1015644Y-9507474D01*
X1011123Y-9521240D01*
G37*
G36*
X1143000Y-9529978D02*
G01*
X1236522Y-9529978D01*
X1234846Y-9521240D01*
X1230376Y-9507474D01*
X1224178Y-9494367D01*
X1216406Y-9482124D01*
X1207160Y-9470948D01*
X1196594Y-9460992D01*
X1184859Y-9452457D01*
X1172159Y-9445498D01*
X1158697Y-9440164D01*
X1144625Y-9436557D01*
X1143000Y-9436354D01*
G37*
G36*
X599998Y-9171432D02*
G01*
X611174Y-9170568D01*
X622096Y-9167926D01*
X632460Y-9163659D01*
X642010Y-9157766D01*
X650544Y-9150502D01*
X657809Y-9141968D01*
X663702Y-9132417D01*
X667969Y-9122054D01*
X670610Y-9111132D01*
X671474Y-9099956D01*
X670610Y-9088780D01*
X667969Y-9077858D01*
X663702Y-9067495D01*
X657809Y-9057944D01*
X650544Y-9049410D01*
X642010Y-9042146D01*
X632460Y-9036253D01*
X622096Y-9031986D01*
X611174Y-9029344D01*
X599998Y-9028480D01*
X588822Y-9029344D01*
X577900Y-9031986D01*
X567537Y-9036253D01*
X557987Y-9042146D01*
X549452Y-9049410D01*
X542188Y-9057944D01*
X536295Y-9067495D01*
X532028Y-9077858D01*
X529386Y-9088780D01*
X528523Y-9099956D01*
X529386Y-9111132D01*
X532028Y-9122054D01*
X536295Y-9132417D01*
X542188Y-9141968D01*
X549452Y-9150502D01*
X557987Y-9157766D01*
X567537Y-9163659D01*
X577900Y-9167926D01*
X588822Y-9170568D01*
G37*
G36*
X1150010Y-8846464D02*
G01*
X1161186Y-8845600D01*
X1172108Y-8842959D01*
X1182471Y-8838692D01*
X1192022Y-8832799D01*
X1200556Y-8825534D01*
X1207820Y-8817000D01*
X1213713Y-8807450D01*
X1217980Y-8797086D01*
X1220622Y-8786164D01*
X1221486Y-8774988D01*
X1220622Y-8763812D01*
X1217980Y-8752890D01*
X1213713Y-8742527D01*
X1207820Y-8732977D01*
X1200556Y-8724442D01*
X1192022Y-8717178D01*
X1182471Y-8711285D01*
X1172108Y-8707018D01*
X1161186Y-8704376D01*
X1150010Y-8703513D01*
X1138834Y-8704376D01*
X1127912Y-8707018D01*
X1117549Y-8711285D01*
X1107998Y-8717178D01*
X1099464Y-8724442D01*
X1092200Y-8732977D01*
X1086307Y-8742527D01*
X1082040Y-8752890D01*
X1079398Y-8763812D01*
X1078534Y-8774988D01*
X1079398Y-8786164D01*
X1082040Y-8797086D01*
X1086307Y-8807450D01*
X1092200Y-8817000D01*
X1099464Y-8825534D01*
X1107998Y-8832799D01*
X1117549Y-8838692D01*
X1127912Y-8842959D01*
X1138834Y-8845600D01*
G37*
G36*
X345998Y-7983677D02*
G01*
X359918Y-7982762D01*
X373634Y-7980019D01*
X386842Y-7975549D01*
X399338Y-7969351D01*
X410921Y-7961630D01*
X421436Y-7952435D01*
X430631Y-7941919D01*
X438404Y-7930337D01*
X444550Y-7917789D01*
X449072Y-7904581D01*
X451764Y-7890916D01*
X452678Y-7876997D01*
X451764Y-7863078D01*
X449072Y-7849362D01*
X444550Y-7836153D01*
X438404Y-7823657D01*
X430631Y-7812024D01*
X421436Y-7801559D01*
X410921Y-7792364D01*
X399338Y-7784592D01*
X386842Y-7778445D01*
X373634Y-7773924D01*
X359918Y-7771231D01*
X345998Y-7770317D01*
X332079Y-7771231D01*
X318363Y-7773924D01*
X305155Y-7778445D01*
X292658Y-7784592D01*
X281076Y-7792364D01*
X270560Y-7801559D01*
X261366Y-7812024D01*
X253593Y-7823657D01*
X247446Y-7836153D01*
X242925Y-7849362D01*
X240233Y-7863078D01*
X239318Y-7876997D01*
X240233Y-7890916D01*
X242925Y-7904581D01*
X247446Y-7917789D01*
X253593Y-7930337D01*
X261366Y-7941919D01*
X270560Y-7952435D01*
X281076Y-7961630D01*
X292658Y-7969351D01*
X305155Y-7975549D01*
X318363Y-7980019D01*
X332079Y-7982762D01*
G37*
G36*
X874014Y-7981543D02*
G01*
X881634Y-7980019D01*
X894842Y-7975549D01*
X907338Y-7969351D01*
X918921Y-7961630D01*
X929436Y-7952435D01*
X938631Y-7941919D01*
X946403Y-7930337D01*
X952550Y-7917789D01*
X957071Y-7904581D01*
X958545Y-7897012D01*
X874014Y-7897012D01*
G37*
G36*
X833983Y-7981543D02*
G01*
X833983Y-7897012D01*
X749452Y-7897012D01*
X750925Y-7904581D01*
X755446Y-7917789D01*
X761593Y-7930337D01*
X769366Y-7941919D01*
X778560Y-7952435D01*
X789076Y-7961630D01*
X800658Y-7969351D01*
X813155Y-7975549D01*
X826363Y-7980019D01*
G37*
G36*
X874014Y-7856981D02*
G01*
X958545Y-7856981D01*
X957071Y-7849362D01*
X952550Y-7836153D01*
X946403Y-7823657D01*
X938631Y-7812024D01*
X929436Y-7801559D01*
X918921Y-7792364D01*
X907338Y-7784592D01*
X894842Y-7778445D01*
X881634Y-7773924D01*
X874014Y-7772400D01*
G37*
G36*
X749452Y-7856981D02*
G01*
X833983Y-7856981D01*
X833983Y-7772400D01*
X826363Y-7773924D01*
X813155Y-7778445D01*
X800658Y-7784592D01*
X789076Y-7792364D01*
X778560Y-7801559D01*
X769366Y-7812024D01*
X761593Y-7823657D01*
X755446Y-7836153D01*
X750925Y-7849362D01*
G37*
G36*
X599998Y-7729677D02*
G01*
X613918Y-7728762D01*
X627634Y-7726019D01*
X640842Y-7721549D01*
X653338Y-7715351D01*
X664921Y-7707630D01*
X675436Y-7698435D01*
X684631Y-7687919D01*
X692404Y-7676337D01*
X698550Y-7663789D01*
X703072Y-7650581D01*
X705764Y-7636916D01*
X706678Y-7622997D01*
X705764Y-7609078D01*
X703072Y-7595362D01*
X698550Y-7582153D01*
X692404Y-7569657D01*
X684631Y-7558024D01*
X675436Y-7547559D01*
X664921Y-7538364D01*
X653338Y-7530592D01*
X640842Y-7524445D01*
X627634Y-7519924D01*
X613918Y-7517231D01*
X599998Y-7516317D01*
X586079Y-7517231D01*
X572363Y-7519924D01*
X559155Y-7524445D01*
X546658Y-7530592D01*
X535076Y-7538364D01*
X524560Y-7547559D01*
X515366Y-7558024D01*
X507593Y-7569657D01*
X501446Y-7582153D01*
X496925Y-7595362D01*
X494233Y-7609078D01*
X493318Y-7622997D01*
X494233Y-7636916D01*
X496925Y-7650581D01*
X501446Y-7663789D01*
X507593Y-7676337D01*
X515366Y-7687919D01*
X524560Y-7698435D01*
X535076Y-7707630D01*
X546658Y-7715351D01*
X559155Y-7721549D01*
X572363Y-7726019D01*
X586079Y-7728762D01*
G37*
G36*
X1424990Y-7383678D02*
G01*
X1438910Y-7382764D01*
X1452626Y-7380020D01*
X1465834Y-7375550D01*
X1478330Y-7369352D01*
X1489964Y-7361631D01*
X1500428Y-7352436D01*
X1509623Y-7341920D01*
X1517396Y-7330338D01*
X1523542Y-7317790D01*
X1528064Y-7304582D01*
X1530756Y-7290917D01*
X1531670Y-7276998D01*
X1530756Y-7263079D01*
X1528064Y-7249363D01*
X1523542Y-7236155D01*
X1517396Y-7223658D01*
X1509623Y-7212025D01*
X1500428Y-7201560D01*
X1489964Y-7192365D01*
X1478330Y-7184593D01*
X1465834Y-7178446D01*
X1452626Y-7173925D01*
X1438910Y-7171232D01*
X1424990Y-7170318D01*
X1411071Y-7171232D01*
X1397406Y-7173925D01*
X1384147Y-7178446D01*
X1371650Y-7184593D01*
X1360068Y-7192365D01*
X1349552Y-7201560D01*
X1340358Y-7212025D01*
X1332585Y-7223658D01*
X1326438Y-7236155D01*
X1321968Y-7249363D01*
X1319225Y-7263079D01*
X1318310Y-7276998D01*
X1319225Y-7290917D01*
X1321968Y-7304582D01*
X1326438Y-7317790D01*
X1332585Y-7330338D01*
X1340358Y-7341920D01*
X1349552Y-7352436D01*
X1360068Y-7361631D01*
X1371650Y-7369352D01*
X1384147Y-7375550D01*
X1397406Y-7380020D01*
X1411071Y-7382764D01*
G37*
G36*
X1678990Y-7129678D02*
G01*
X1692910Y-7128764D01*
X1706625Y-7126020D01*
X1719834Y-7121550D01*
X1732330Y-7115352D01*
X1743964Y-7107631D01*
X1754428Y-7098436D01*
X1763623Y-7087920D01*
X1771396Y-7076338D01*
X1777542Y-7063790D01*
X1782064Y-7050582D01*
X1784756Y-7036917D01*
X1785670Y-7022998D01*
X1784756Y-7009079D01*
X1782064Y-6995363D01*
X1777542Y-6982155D01*
X1771396Y-6969658D01*
X1763623Y-6958025D01*
X1754428Y-6947560D01*
X1743964Y-6938365D01*
X1732330Y-6930593D01*
X1719834Y-6924446D01*
X1706625Y-6919925D01*
X1692910Y-6917232D01*
X1678990Y-6916318D01*
X1665071Y-6917232D01*
X1651406Y-6919925D01*
X1638147Y-6924446D01*
X1625650Y-6930593D01*
X1614068Y-6938365D01*
X1603552Y-6947560D01*
X1594358Y-6958025D01*
X1586585Y-6969658D01*
X1580438Y-6982155D01*
X1575968Y-6995363D01*
X1573225Y-7009079D01*
X1572310Y-7022998D01*
X1573225Y-7036917D01*
X1575968Y-7050582D01*
X1580438Y-7063790D01*
X1586585Y-7076338D01*
X1594358Y-7087920D01*
X1603552Y-7098436D01*
X1614068Y-7107631D01*
X1625650Y-7115352D01*
X1638147Y-7121550D01*
X1651406Y-7126020D01*
X1665071Y-7128764D01*
G37*
G36*
X1170990Y-7129678D02*
G01*
X1184910Y-7128764D01*
X1198626Y-7126020D01*
X1211834Y-7121550D01*
X1224330Y-7115352D01*
X1235964Y-7107631D01*
X1246428Y-7098436D01*
X1255623Y-7087920D01*
X1263396Y-7076338D01*
X1269542Y-7063790D01*
X1274064Y-7050582D01*
X1276756Y-7036917D01*
X1277670Y-7022998D01*
X1276756Y-7009079D01*
X1274064Y-6995363D01*
X1269542Y-6982155D01*
X1263396Y-6969658D01*
X1255623Y-6958025D01*
X1246428Y-6947560D01*
X1235964Y-6938365D01*
X1224330Y-6930593D01*
X1211834Y-6924446D01*
X1198626Y-6919925D01*
X1184910Y-6917232D01*
X1170990Y-6916318D01*
X1157071Y-6917232D01*
X1143406Y-6919925D01*
X1130147Y-6924446D01*
X1117650Y-6930593D01*
X1106068Y-6938365D01*
X1095552Y-6947560D01*
X1086358Y-6958025D01*
X1078585Y-6969658D01*
X1072438Y-6982155D01*
X1067968Y-6995363D01*
X1065225Y-7009079D01*
X1064310Y-7022998D01*
X1065225Y-7036917D01*
X1067968Y-7050582D01*
X1072438Y-7063790D01*
X1078585Y-7076338D01*
X1086358Y-7087920D01*
X1095552Y-7098436D01*
X1106068Y-7107631D01*
X1117650Y-7115352D01*
X1130147Y-7121550D01*
X1143406Y-7126020D01*
X1157071Y-7128764D01*
G37*
G36*
X475030Y-6921449D02*
G01*
X486206Y-6920585D01*
X497078Y-6917944D01*
X507441Y-6913676D01*
X517042Y-6907784D01*
X525526Y-6900519D01*
X532841Y-6891985D01*
X538683Y-6882434D01*
X543001Y-6872071D01*
X545592Y-6861149D01*
X546455Y-6849973D01*
X545592Y-6838797D01*
X543001Y-6827875D01*
X538683Y-6817512D01*
X532841Y-6807962D01*
X525526Y-6799427D01*
X517042Y-6792163D01*
X507441Y-6786270D01*
X497078Y-6782003D01*
X486206Y-6779361D01*
X475030Y-6778498D01*
X463804Y-6779361D01*
X452932Y-6782003D01*
X442569Y-6786270D01*
X432968Y-6792163D01*
X424484Y-6799427D01*
X417169Y-6807962D01*
X411327Y-6817512D01*
X407009Y-6827875D01*
X404418Y-6838797D01*
X403555Y-6849973D01*
X404418Y-6861149D01*
X407009Y-6872071D01*
X411327Y-6882434D01*
X417169Y-6891985D01*
X424484Y-6900519D01*
X432968Y-6907784D01*
X442569Y-6913676D01*
X452932Y-6917944D01*
X463804Y-6920585D01*
G37*
G36*
X1150010Y-6671411D02*
G01*
X1161186Y-6670548D01*
X1172108Y-6667957D01*
X1182471Y-6663639D01*
X1192022Y-6657797D01*
X1200556Y-6650481D01*
X1207820Y-6641998D01*
X1213713Y-6632397D01*
X1217980Y-6622034D01*
X1220622Y-6611162D01*
X1221486Y-6599986D01*
X1220622Y-6588759D01*
X1217980Y-6577888D01*
X1213713Y-6567525D01*
X1207820Y-6557924D01*
X1200556Y-6549440D01*
X1192022Y-6542125D01*
X1182471Y-6536283D01*
X1172108Y-6531965D01*
X1161186Y-6529374D01*
X1150010Y-6528511D01*
X1138834Y-6529374D01*
X1127912Y-6531965D01*
X1117549Y-6536283D01*
X1107998Y-6542125D01*
X1099464Y-6549440D01*
X1092200Y-6557924D01*
X1086307Y-6567525D01*
X1082040Y-6577888D01*
X1079398Y-6588759D01*
X1078534Y-6599986D01*
X1079398Y-6611162D01*
X1082040Y-6622034D01*
X1086307Y-6632397D01*
X1092200Y-6641998D01*
X1099464Y-6650481D01*
X1107998Y-6657797D01*
X1117549Y-6663639D01*
X1127912Y-6667957D01*
X1138834Y-6670548D01*
G37*
G36*
X620014Y-6381546D02*
G01*
X627634Y-6380022D01*
X640842Y-6375552D01*
X653338Y-6369354D01*
X664921Y-6361633D01*
X675436Y-6352438D01*
X684631Y-6341922D01*
X692404Y-6330340D01*
X698550Y-6317792D01*
X703072Y-6304584D01*
X704545Y-6297015D01*
X620014Y-6297015D01*
G37*
G36*
X579983Y-6381546D02*
G01*
X579983Y-6297015D01*
X495452Y-6297015D01*
X496925Y-6304584D01*
X501446Y-6317792D01*
X507593Y-6330340D01*
X515366Y-6341922D01*
X524560Y-6352438D01*
X535076Y-6361633D01*
X546658Y-6369354D01*
X559155Y-6375552D01*
X572363Y-6380022D01*
G37*
G36*
X620014Y-6256985D02*
G01*
X704545Y-6256985D01*
X703072Y-6249365D01*
X698550Y-6236157D01*
X692404Y-6223660D01*
X684631Y-6212027D01*
X675436Y-6201562D01*
X664921Y-6192367D01*
X653338Y-6184595D01*
X640842Y-6178448D01*
X627634Y-6173927D01*
X620014Y-6172403D01*
G37*
G36*
X495452Y-6256985D02*
G01*
X579983Y-6256985D01*
X579983Y-6172403D01*
X572363Y-6173927D01*
X559155Y-6178448D01*
X546658Y-6184595D01*
X535076Y-6192367D01*
X524560Y-6201562D01*
X515366Y-6212027D01*
X507593Y-6223660D01*
X501446Y-6236157D01*
X496925Y-6249365D01*
G37*
G36*
X853998Y-6129680D02*
G01*
X867918Y-6128766D01*
X881634Y-6126022D01*
X894842Y-6121552D01*
X907338Y-6115354D01*
X918921Y-6107633D01*
X929436Y-6098438D01*
X938631Y-6087922D01*
X946403Y-6076340D01*
X952550Y-6063792D01*
X957071Y-6050584D01*
X959764Y-6036919D01*
X960678Y-6023000D01*
X959764Y-6009081D01*
X957071Y-5995365D01*
X952550Y-5982157D01*
X946403Y-5969660D01*
X938631Y-5958027D01*
X929436Y-5947562D01*
X918921Y-5938367D01*
X907338Y-5930595D01*
X894842Y-5924448D01*
X881634Y-5919927D01*
X867918Y-5917234D01*
X853998Y-5916320D01*
X840079Y-5917234D01*
X826363Y-5919927D01*
X813155Y-5924448D01*
X800658Y-5930595D01*
X789076Y-5938367D01*
X778560Y-5947562D01*
X769366Y-5958027D01*
X761593Y-5969660D01*
X755446Y-5982157D01*
X750925Y-5995365D01*
X748233Y-6009081D01*
X747318Y-6023000D01*
X748233Y-6036919D01*
X750925Y-6050584D01*
X755446Y-6063792D01*
X761593Y-6076340D01*
X769366Y-6087922D01*
X778560Y-6098438D01*
X789076Y-6107633D01*
X800658Y-6115354D01*
X813155Y-6121552D01*
X826363Y-6126022D01*
X840079Y-6128766D01*
G37*
G36*
X325983Y-6127546D02*
G01*
X325983Y-6043015D01*
X241452Y-6043015D01*
X242925Y-6050584D01*
X247446Y-6063792D01*
X253593Y-6076340D01*
X261366Y-6087922D01*
X270560Y-6098438D01*
X281076Y-6107633D01*
X292658Y-6115354D01*
X305155Y-6121552D01*
X318363Y-6126022D01*
G37*
G36*
X366014Y-6127546D02*
G01*
X373634Y-6126022D01*
X386842Y-6121552D01*
X399338Y-6115354D01*
X410921Y-6107633D01*
X421436Y-6098438D01*
X430631Y-6087922D01*
X438404Y-6076340D01*
X444550Y-6063792D01*
X449072Y-6050584D01*
X450545Y-6043015D01*
X366014Y-6043015D01*
G37*
G36*
X241452Y-6002985D02*
G01*
X325983Y-6002985D01*
X325983Y-5918403D01*
X318363Y-5919927D01*
X305155Y-5924448D01*
X292658Y-5930595D01*
X281076Y-5938367D01*
X270560Y-5947562D01*
X261366Y-5958027D01*
X253593Y-5969660D01*
X247446Y-5982157D01*
X242925Y-5995365D01*
G37*
G36*
X366014Y-6002985D02*
G01*
X450545Y-6002985D01*
X449072Y-5995365D01*
X444550Y-5982157D01*
X438404Y-5969660D01*
X430631Y-5958027D01*
X421436Y-5947562D01*
X410921Y-5938367D01*
X399338Y-5930595D01*
X386842Y-5924448D01*
X373634Y-5919927D01*
X366014Y-5918403D01*
G37*
G36*
X344982Y-5629757D02*
G01*
X367385Y-5627522D01*
X391261Y-5623204D01*
X414782Y-5617006D01*
X437692Y-5608929D01*
X459892Y-5599074D01*
X481228Y-5587492D01*
X501599Y-5574233D01*
X520852Y-5559450D01*
X538835Y-5543143D01*
X555498Y-5525465D01*
X570738Y-5506516D01*
X584352Y-5486400D01*
X596341Y-5465267D01*
X606653Y-5443270D01*
X615188Y-5420512D01*
X621842Y-5397195D01*
X626618Y-5373370D01*
X629513Y-5349240D01*
X629716Y-5344972D01*
X344982Y-5344972D01*
G37*
G36*
X2154986Y-5629605D02*
G01*
X2154986Y-5344972D01*
X1870354Y-5344972D01*
X1871675Y-5361330D01*
X1875536Y-5385308D01*
X1881276Y-5408930D01*
X1888845Y-5431993D01*
X1898243Y-5454396D01*
X1909419Y-5475986D01*
X1922272Y-5496610D01*
X1936699Y-5516118D01*
X1952650Y-5534456D01*
X1969973Y-5551474D01*
X1988616Y-5567019D01*
X2008428Y-5581091D01*
X2029307Y-5593486D01*
X2051100Y-5604205D01*
X2073706Y-5613196D01*
X2096922Y-5620308D01*
X2120595Y-5625592D01*
X2144674Y-5628944D01*
G37*
G36*
X1546453Y-5610504D02*
G01*
X1715566Y-5610504D01*
X1724761Y-5609691D01*
X1733245Y-5607405D01*
X1741220Y-5603697D01*
X1748434Y-5598668D01*
X1754682Y-5592419D01*
X1759712Y-5585206D01*
X1763420Y-5577230D01*
X1765706Y-5568746D01*
X1766519Y-5559552D01*
X1766519Y-5390438D01*
X1765706Y-5381244D01*
X1763420Y-5372709D01*
X1759712Y-5364734D01*
X1754682Y-5357571D01*
X1748434Y-5351322D01*
X1741220Y-5346293D01*
X1733245Y-5342585D01*
X1724761Y-5340299D01*
X1715566Y-5339486D01*
X1546453Y-5339486D01*
X1537258Y-5340299D01*
X1528724Y-5342585D01*
X1520748Y-5346293D01*
X1513535Y-5351322D01*
X1507337Y-5357571D01*
X1502308Y-5364734D01*
X1498549Y-5372709D01*
X1496314Y-5381244D01*
X1495501Y-5390438D01*
X1495501Y-5411622D01*
X1494586Y-5415838D01*
X1491945Y-5419344D01*
X1488186Y-5421376D01*
X1483868Y-5421680D01*
X1479804Y-5420156D01*
X1476756Y-5417058D01*
X1470406Y-5407101D01*
X1461160Y-5395925D01*
X1450594Y-5386019D01*
X1438859Y-5377484D01*
X1426159Y-5370474D01*
X1412697Y-5365140D01*
X1398625Y-5361533D01*
X1397000Y-5361330D01*
X1397000Y-5455005D01*
X1485341Y-5455005D01*
X1489202Y-5455767D01*
X1492504Y-5457952D01*
X1494739Y-5461254D01*
X1495501Y-5465165D01*
X1495501Y-5484825D01*
X1494739Y-5488736D01*
X1492504Y-5492038D01*
X1489202Y-5494223D01*
X1485341Y-5494985D01*
X1397000Y-5494985D01*
X1397000Y-5588660D01*
X1398625Y-5588406D01*
X1412697Y-5584799D01*
X1426159Y-5579465D01*
X1438859Y-5572506D01*
X1450594Y-5563971D01*
X1461160Y-5554065D01*
X1470406Y-5542889D01*
X1476756Y-5532882D01*
X1479804Y-5529834D01*
X1483868Y-5528310D01*
X1488186Y-5528614D01*
X1491945Y-5530646D01*
X1494586Y-5534101D01*
X1495501Y-5538368D01*
X1495501Y-5559552D01*
X1496314Y-5568746D01*
X1498549Y-5577230D01*
X1502308Y-5585206D01*
X1507337Y-5592419D01*
X1513535Y-5598668D01*
X1520748Y-5603697D01*
X1528724Y-5607405D01*
X1537258Y-5609691D01*
G37*
G36*
X861771Y-5590235D02*
G01*
X876249Y-5590235D01*
X890625Y-5588406D01*
X904697Y-5584799D01*
X918159Y-5579465D01*
X930859Y-5572506D01*
X942594Y-5563971D01*
X953160Y-5554065D01*
X962406Y-5542889D01*
X970178Y-5530646D01*
X976376Y-5517489D01*
X980846Y-5503722D01*
X983589Y-5489448D01*
X984503Y-5474970D01*
X983589Y-5460492D01*
X980846Y-5446268D01*
X976376Y-5432501D01*
X970178Y-5419344D01*
X962406Y-5407101D01*
X953160Y-5395925D01*
X942594Y-5386019D01*
X930859Y-5377484D01*
X918159Y-5370474D01*
X904697Y-5365140D01*
X890625Y-5361533D01*
X876249Y-5359755D01*
X861771Y-5359755D01*
X847344Y-5361533D01*
X833323Y-5365140D01*
X819810Y-5370474D01*
X807110Y-5377484D01*
X795375Y-5386019D01*
X784809Y-5395925D01*
X775563Y-5407101D01*
X767791Y-5419344D01*
X761644Y-5432501D01*
X757123Y-5446268D01*
X754430Y-5460492D01*
X753516Y-5474970D01*
X754430Y-5489448D01*
X757123Y-5503722D01*
X761644Y-5517489D01*
X767791Y-5530646D01*
X775563Y-5542889D01*
X784809Y-5554065D01*
X795375Y-5563971D01*
X807110Y-5572506D01*
X819810Y-5579465D01*
X833323Y-5584799D01*
X847344Y-5588406D01*
G37*
G36*
X1357020Y-5588660D02*
G01*
X1357020Y-5494985D01*
X1263497Y-5494985D01*
X1265123Y-5503722D01*
X1269644Y-5517489D01*
X1275791Y-5530646D01*
X1283563Y-5542889D01*
X1292809Y-5554065D01*
X1303375Y-5563971D01*
X1315110Y-5572506D01*
X1327810Y-5579465D01*
X1341323Y-5584799D01*
X1355344Y-5588406D01*
G37*
G36*
X1103020Y-5588660D02*
G01*
X1103020Y-5494985D01*
X1009497Y-5494985D01*
X1011123Y-5503722D01*
X1015644Y-5517489D01*
X1021791Y-5530646D01*
X1029563Y-5542889D01*
X1038809Y-5554065D01*
X1049375Y-5563971D01*
X1061110Y-5572506D01*
X1073810Y-5579465D01*
X1087323Y-5584799D01*
X1101344Y-5588406D01*
G37*
G36*
X1143000Y-5588660D02*
G01*
X1144625Y-5588406D01*
X1158697Y-5584799D01*
X1172159Y-5579465D01*
X1184859Y-5572506D01*
X1196594Y-5563971D01*
X1207160Y-5554065D01*
X1216406Y-5542889D01*
X1224178Y-5530646D01*
X1230376Y-5517489D01*
X1234846Y-5503722D01*
X1236522Y-5494985D01*
X1143000Y-5494985D01*
G37*
G36*
X1263497Y-5455005D02*
G01*
X1357020Y-5455005D01*
X1357020Y-5361330D01*
X1355344Y-5361533D01*
X1341323Y-5365140D01*
X1327810Y-5370474D01*
X1315110Y-5377484D01*
X1303375Y-5386019D01*
X1292809Y-5395925D01*
X1283563Y-5407101D01*
X1275791Y-5419344D01*
X1269644Y-5432501D01*
X1265123Y-5446268D01*
G37*
G36*
X1009497Y-5455005D02*
G01*
X1103020Y-5455005D01*
X1103020Y-5361330D01*
X1101344Y-5361533D01*
X1087323Y-5365140D01*
X1073810Y-5370474D01*
X1061110Y-5377484D01*
X1049375Y-5386019D01*
X1038809Y-5395925D01*
X1029563Y-5407101D01*
X1021791Y-5419344D01*
X1015644Y-5432501D01*
X1011123Y-5446268D01*
G37*
G36*
X1143000Y-5455005D02*
G01*
X1236522Y-5455005D01*
X1234846Y-5446268D01*
X1230376Y-5432501D01*
X1224178Y-5419344D01*
X1216406Y-5407101D01*
X1207160Y-5395925D01*
X1196594Y-5386019D01*
X1184859Y-5377484D01*
X1172159Y-5370474D01*
X1158697Y-5365140D01*
X1144625Y-5361533D01*
X1143000Y-5361330D01*
G37*
G36*
X1870354Y-5304993D02*
G01*
X2154986Y-5304993D01*
X2154986Y-5020360D01*
X2144674Y-5020970D01*
X2120595Y-5024374D01*
X2096922Y-5029606D01*
X2073706Y-5036769D01*
X2051100Y-5045710D01*
X2029307Y-5056428D01*
X2008428Y-5068874D01*
X1988616Y-5082895D01*
X1969973Y-5098491D01*
X1952650Y-5115509D01*
X1936699Y-5133848D01*
X1922272Y-5153355D01*
X1909419Y-5173980D01*
X1898243Y-5195570D01*
X1888845Y-5217972D01*
X1881276Y-5241036D01*
X1875536Y-5264607D01*
X1871675Y-5288635D01*
G37*
G36*
X344982Y-5304993D02*
G01*
X629716Y-5304993D01*
X629513Y-5300726D01*
X626618Y-5276596D01*
X621842Y-5252770D01*
X615188Y-5229402D01*
X606653Y-5206644D01*
X596341Y-5184648D01*
X584352Y-5163566D01*
X570738Y-5143449D01*
X555498Y-5124500D01*
X538835Y-5106822D01*
X520852Y-5090515D01*
X501599Y-5075682D01*
X481228Y-5062474D01*
X459892Y-5050891D01*
X437692Y-5041036D01*
X414782Y-5032959D01*
X391261Y-5026761D01*
X367385Y-5022443D01*
X345592Y-5020259D01*
X344982Y-5020056D01*
G37*

%LPD*%
D10*
G01*
X1631010Y-5474995D03*
D11*
G01*
X1377010Y-5474995D03*
G01*
X1123010Y-5474995D03*
G01*
X869010Y-5474995D03*
D10*
G01*
X869010Y-9549993D03*
D11*
G01*
X1123010Y-9549993D03*
G01*
X1377010Y-9549993D03*
G01*
X1631010Y-9549993D03*
D12*
G01*
X345998Y-6023000D03*
G01*
X599998Y-6277000D03*
G01*
X853998Y-6023000D03*
G01*
X1170990Y-7022998D03*
G01*
X1424990Y-7276998D03*
G01*
X1678990Y-7022998D03*
G01*
X853998Y-7876997D03*
G01*
X599998Y-7622997D03*
G01*
X345998Y-7876997D03*
D13*
G01*
X324993Y-9674987D03*
G01*
X2175002Y-9674987D03*
G01*
X325018Y-5325008D03*
G01*
X2175002Y-5325008D03*
D14*
G01*
X750011Y-9924973D03*
G01*
X950010Y-9924973D03*
G01*
X1150010Y-9924973D03*
G01*
X1350010Y-9924973D03*
G01*
X1550009Y-9924973D03*
G01*
X1750009Y-9924973D03*
G01*
X75006Y-9399981D03*
G01*
X75006Y-9199981D03*
G01*
X75006Y-8999981D03*
G01*
X75006Y-8799982D03*
G01*
X75006Y-8599982D03*
G01*
X75006Y-8399983D03*
G01*
X75006Y-8199983D03*
G01*
X75006Y-7999984D03*
G01*
X75006Y-7799984D03*
G01*
X75006Y-7599984D03*
G01*
X75006Y-7399985D03*
G01*
X75006Y-7199985D03*
G01*
X75006Y-6999986D03*
G01*
X75006Y-6799986D03*
G01*
X75006Y-6599986D03*
G01*
X75006Y-6399987D03*
G01*
X75006Y-6199987D03*
G01*
X75006Y-5999987D03*
G01*
X75006Y-5799988D03*
G01*
X75006Y-5599988D03*
G01*
X2424988Y-5599988D03*
G01*
X2424988Y-5799988D03*
G01*
X2424988Y-5999987D03*
G01*
X2424988Y-6199987D03*
G01*
X2424988Y-6399987D03*
G01*
X2424988Y-6599986D03*
G01*
X2424988Y-6799986D03*
G01*
X2424988Y-6999986D03*
G01*
X2424988Y-7199985D03*
G01*
X2424988Y-7399985D03*
G01*
X2424988Y-7599984D03*
G01*
X2424988Y-7799984D03*
G01*
X2424988Y-7999984D03*
G01*
X2424988Y-8199983D03*
G01*
X2424988Y-8399983D03*
G01*
X2424988Y-8599982D03*
G01*
X2424988Y-8799982D03*
G01*
X2424988Y-8999981D03*
G01*
X2424988Y-9199981D03*
G01*
X2424988Y-9399981D03*
G01*
X2199995Y-8599982D03*
G01*
X1999995Y-8599982D03*
G01*
X1799996Y-8599982D03*
G01*
X1599996Y-8599982D03*
G01*
X1399997Y-8599982D03*
G01*
X1199997Y-8599982D03*
G01*
X550011Y-9924973D03*
G01*
X1950008Y-9924973D03*
G01*
X1199997Y-8399983D03*
G01*
X1199997Y-8199983D03*
G01*
X1199997Y-7999984D03*
G01*
X1199997Y-7799984D03*
G01*
X550011Y-5074996D03*
G01*
X750011Y-5074996D03*
G01*
X950010Y-5074996D03*
G01*
X1150010Y-5074996D03*
G01*
X1350010Y-5074996D03*
G01*
X1550009Y-5074996D03*
G01*
X1750009Y-5074996D03*
G01*
X1950008Y-5074996D03*
D15*
G01*
X1150010Y-8774988D03*
G01*
X599998Y-9099956D03*
D14*
G01*
X1099997Y-7599984D03*
D15*
G01*
X475005Y-6849973D03*
G01*
X1150010Y-6599961D03*
G01*
X475005Y-6724980D03*
G01*
X475005Y-7149972D03*
G01*
X399999Y-8799956D03*
G01*
X199999Y-9099956D03*
D14*
G01*
X999997Y-8974988D03*
D15*
G01*
X1774977Y-8899905D03*
G01*
X1775002Y-9149969D03*
G01*
X1349959Y-9049918D03*
G01*
X1299946Y-8349945D03*
G01*
X1299997Y-8049971D03*
G01*
X1824989Y-7749971D03*
G01*
X1924989Y-6574967D03*
G01*
X1924989Y-6374968D03*
G01*
X1324990Y-5924981D03*
G01*
X1424990Y-5724982D03*
G01*
X1624990Y-6274968D03*
D14*
G01*
X999997Y-7249998D03*
G01*
X999997Y-7049998D03*
G01*
X999997Y-7449997D03*
G01*
X1199997Y-6849998D03*
G01*
X1399997Y-6849998D03*
G01*
X1599996Y-6849998D03*
G01*
X599998Y-9199981D03*
G01*
X599998Y-8999981D03*
G01*
X1150010Y-8874988D03*
G01*
X1150010Y-6499987D03*
M02*
