G04 Layer: BottomLayer*
G04 EasyEDA v6.5.22, 2022-12-04 21:32:46*
G04 716598de6f4c4b7384a2731a6566dcc5,9a5be75d700b4a6385dc1106f27949ae,10*
G04 Gerber Generator version 0.2*
G04 Scale: 100 percent, Rotated: No, Reflected: No *
G04 Dimensions in millimeters *
G04 leading zeros omitted , absolute positions ,4 integer and 5 decimal *
%FSLAX45Y45*%
%MOMM*%

%ADD10C,0.4000*%
%ADD11C,0.2100*%
%ADD12C,1.8000*%
%ADD13R,1.7000X1.7000*%
%ADD14C,1.7000*%
%ADD15C,5.0000*%
%ADD16C,0.6000*%
%ADD17C,0.8000*%
%ADD18C,0.0185*%

%LPD*%
G36*
X1715719Y-14374012D02*
G01*
X1699310Y-14373148D01*
X1684782Y-14370913D01*
X1670507Y-14367306D01*
X1656689Y-14362328D01*
X1643380Y-14355978D01*
X1630781Y-14348358D01*
X1618996Y-14339569D01*
X1608124Y-14329663D01*
X1598320Y-14318742D01*
X1589582Y-14306854D01*
X1582064Y-14294205D01*
X1575816Y-14280896D01*
X1570888Y-14267027D01*
X1567383Y-14252752D01*
X1565249Y-14238173D01*
X1564538Y-14222780D01*
X1564538Y-8750198D01*
X1565300Y-8746286D01*
X1567484Y-8742984D01*
X1570786Y-8740800D01*
X1574698Y-8740038D01*
X1777492Y-8740038D01*
X1785670Y-8739225D01*
X1792986Y-8736990D01*
X1799793Y-8733383D01*
X1806651Y-8727592D01*
X1811883Y-8721293D01*
X1813407Y-8718397D01*
X1815642Y-8715603D01*
X1818741Y-8713724D01*
X1822297Y-8713063D01*
X3699103Y-8706713D01*
X3703320Y-8707628D01*
X3706774Y-8710168D01*
X3712616Y-8721293D01*
X3718407Y-8728151D01*
X3724706Y-8733383D01*
X3731514Y-8736990D01*
X3738829Y-8739225D01*
X3747008Y-8740038D01*
X3949852Y-8740038D01*
X3953713Y-8740800D01*
X3957015Y-8742984D01*
X3959199Y-8746286D01*
X3959961Y-8750198D01*
X3959961Y-14222780D01*
X3959148Y-14239189D01*
X3956913Y-14253718D01*
X3953306Y-14267992D01*
X3948328Y-14281810D01*
X3941978Y-14295119D01*
X3934358Y-14307718D01*
X3925570Y-14319504D01*
X3915664Y-14330375D01*
X3904742Y-14340179D01*
X3892854Y-14348917D01*
X3880205Y-14356435D01*
X3866896Y-14362684D01*
X3853027Y-14367611D01*
X3838752Y-14371116D01*
X3824173Y-14373250D01*
X3808780Y-14374012D01*
G37*

%LPC*%
G36*
X1710182Y-14344751D02*
G01*
X1710182Y-14228368D01*
X1593748Y-14228368D01*
X1594815Y-14230502D01*
X1606702Y-14250416D01*
X1620164Y-14269313D01*
X1635150Y-14286992D01*
X1651558Y-14303400D01*
X1669237Y-14318386D01*
X1688084Y-14331848D01*
X1707997Y-14343684D01*
G37*
G36*
X1972868Y-14344751D02*
G01*
X1975002Y-14343684D01*
X1994916Y-14331848D01*
X2013813Y-14318386D01*
X2031492Y-14303400D01*
X2047900Y-14286992D01*
X2062886Y-14269313D01*
X2076348Y-14250416D01*
X2088184Y-14230502D01*
X2089251Y-14228368D01*
X1972868Y-14228368D01*
G37*
G36*
X3551682Y-14344751D02*
G01*
X3551682Y-14228368D01*
X3435248Y-14228368D01*
X3436315Y-14230502D01*
X3448202Y-14250416D01*
X3461664Y-14269313D01*
X3476650Y-14286992D01*
X3493058Y-14303400D01*
X3510737Y-14318386D01*
X3529584Y-14331848D01*
X3549497Y-14343684D01*
G37*
G36*
X3814368Y-14344751D02*
G01*
X3816502Y-14343684D01*
X3836415Y-14331848D01*
X3855313Y-14318386D01*
X3872992Y-14303400D01*
X3889400Y-14286992D01*
X3904386Y-14269313D01*
X3917848Y-14250416D01*
X3929684Y-14230502D01*
X3930751Y-14228368D01*
X3814368Y-14228368D01*
G37*
G36*
X2292400Y-14284553D02*
G01*
X2461412Y-14284553D01*
X2467813Y-14283944D01*
X2473553Y-14282216D01*
X2478836Y-14279372D01*
X2483408Y-14275612D01*
X2487218Y-14270990D01*
X2490012Y-14265706D01*
X2491740Y-14260017D01*
X2492400Y-14253565D01*
X2492400Y-14084554D01*
X2491740Y-14078153D01*
X2490012Y-14072412D01*
X2487218Y-14067129D01*
X2483408Y-14062557D01*
X2478836Y-14058747D01*
X2473553Y-14055953D01*
X2467813Y-14054175D01*
X2461412Y-14053566D01*
X2292400Y-14053566D01*
X2285949Y-14054175D01*
X2280259Y-14055953D01*
X2274976Y-14058747D01*
X2270353Y-14062557D01*
X2266594Y-14067129D01*
X2263749Y-14072412D01*
X2262022Y-14078153D01*
X2261412Y-14084554D01*
X2261412Y-14253565D01*
X2262022Y-14260017D01*
X2263749Y-14265706D01*
X2266594Y-14270990D01*
X2270353Y-14275612D01*
X2274976Y-14279372D01*
X2280259Y-14282216D01*
X2285949Y-14283944D01*
G37*
G36*
X2623667Y-14284350D02*
G01*
X2638145Y-14284350D01*
X2652522Y-14282521D01*
X2666593Y-14278914D01*
X2680055Y-14273580D01*
X2692755Y-14266570D01*
X2704490Y-14258036D01*
X2715056Y-14248130D01*
X2724302Y-14236954D01*
X2732074Y-14224711D01*
X2738272Y-14211604D01*
X2742742Y-14197787D01*
X2745486Y-14183563D01*
X2746400Y-14169085D01*
X2745486Y-14154607D01*
X2742742Y-14140332D01*
X2738272Y-14126565D01*
X2732074Y-14113459D01*
X2724302Y-14101165D01*
X2715056Y-14090040D01*
X2704490Y-14080083D01*
X2692755Y-14071549D01*
X2680055Y-14064589D01*
X2666593Y-14059255D01*
X2652522Y-14055648D01*
X2638145Y-14053819D01*
X2623667Y-14053819D01*
X2609240Y-14055648D01*
X2595219Y-14059255D01*
X2581706Y-14064589D01*
X2569006Y-14071549D01*
X2557272Y-14080083D01*
X2546705Y-14090040D01*
X2537460Y-14101165D01*
X2529687Y-14113459D01*
X2523540Y-14126565D01*
X2519019Y-14140332D01*
X2516327Y-14154607D01*
X2515412Y-14169085D01*
X2516327Y-14183563D01*
X2519019Y-14197787D01*
X2523540Y-14211604D01*
X2529687Y-14224711D01*
X2537460Y-14236954D01*
X2546705Y-14248130D01*
X2557272Y-14258036D01*
X2569006Y-14266570D01*
X2581706Y-14273580D01*
X2595219Y-14278914D01*
X2609240Y-14282521D01*
G37*
G36*
X3131667Y-14284350D02*
G01*
X3146145Y-14284350D01*
X3160522Y-14282521D01*
X3174593Y-14278914D01*
X3188055Y-14273580D01*
X3200755Y-14266570D01*
X3212490Y-14258036D01*
X3223056Y-14248130D01*
X3232302Y-14236954D01*
X3240074Y-14224711D01*
X3246272Y-14211604D01*
X3250742Y-14197787D01*
X3253486Y-14183563D01*
X3254400Y-14169085D01*
X3253486Y-14154607D01*
X3250742Y-14140332D01*
X3246272Y-14126565D01*
X3240074Y-14113459D01*
X3232302Y-14101165D01*
X3223056Y-14090040D01*
X3212490Y-14080083D01*
X3200755Y-14071549D01*
X3188055Y-14064589D01*
X3174593Y-14059255D01*
X3160522Y-14055648D01*
X3146145Y-14053819D01*
X3131667Y-14053819D01*
X3117240Y-14055648D01*
X3103219Y-14059255D01*
X3089706Y-14064589D01*
X3077006Y-14071549D01*
X3065272Y-14080083D01*
X3054705Y-14090040D01*
X3045460Y-14101165D01*
X3037687Y-14113459D01*
X3031540Y-14126565D01*
X3027019Y-14140332D01*
X3024327Y-14154607D01*
X3023412Y-14169085D01*
X3024327Y-14183563D01*
X3027019Y-14197787D01*
X3031540Y-14211604D01*
X3037687Y-14224711D01*
X3045460Y-14236954D01*
X3054705Y-14248130D01*
X3065272Y-14258036D01*
X3077006Y-14266570D01*
X3089706Y-14273580D01*
X3103219Y-14278914D01*
X3117240Y-14282521D01*
G37*
G36*
X2836062Y-14273682D02*
G01*
X2836062Y-14217904D01*
X2780487Y-14217904D01*
X2783687Y-14224711D01*
X2791460Y-14236954D01*
X2800705Y-14248130D01*
X2811272Y-14258036D01*
X2823006Y-14266570D01*
G37*
G36*
X2933750Y-14273682D02*
G01*
X2946755Y-14266570D01*
X2958490Y-14258036D01*
X2969056Y-14248130D01*
X2978302Y-14236954D01*
X2986074Y-14224711D01*
X2989275Y-14217904D01*
X2933750Y-14217904D01*
G37*
G36*
X2780487Y-14120215D02*
G01*
X2836062Y-14120215D01*
X2836062Y-14064437D01*
X2823006Y-14071549D01*
X2811272Y-14080083D01*
X2800705Y-14090040D01*
X2791460Y-14101165D01*
X2783687Y-14113459D01*
G37*
G36*
X2933750Y-14120215D02*
G01*
X2989275Y-14120215D01*
X2986074Y-14113459D01*
X2978302Y-14101165D01*
X2969056Y-14090040D01*
X2958490Y-14080083D01*
X2946755Y-14071549D01*
X2933750Y-14064437D01*
G37*
G36*
X1593748Y-13965682D02*
G01*
X1710182Y-13965682D01*
X1710182Y-13849248D01*
X1707997Y-13850315D01*
X1688084Y-13862202D01*
X1669237Y-13875664D01*
X1651558Y-13890650D01*
X1635150Y-13907058D01*
X1620164Y-13924737D01*
X1606702Y-13943584D01*
X1594815Y-13963497D01*
G37*
G36*
X3435248Y-13965682D02*
G01*
X3551682Y-13965682D01*
X3551682Y-13849248D01*
X3549497Y-13850315D01*
X3529584Y-13862202D01*
X3510737Y-13875664D01*
X3493058Y-13890650D01*
X3476650Y-13907058D01*
X3461664Y-13924737D01*
X3448202Y-13943584D01*
X3436315Y-13963497D01*
G37*
G36*
X1972868Y-13965682D02*
G01*
X2089251Y-13965682D01*
X2088184Y-13963497D01*
X2076348Y-13943584D01*
X2062886Y-13924737D01*
X2047900Y-13907058D01*
X2031492Y-13890650D01*
X2013813Y-13875664D01*
X1994916Y-13862202D01*
X1975002Y-13850315D01*
X1972868Y-13849248D01*
G37*
G36*
X3814368Y-13965682D02*
G01*
X3930751Y-13965682D01*
X3929684Y-13963497D01*
X3917848Y-13943584D01*
X3904386Y-13924737D01*
X3889400Y-13907058D01*
X3872992Y-13890650D01*
X3855313Y-13875664D01*
X3836415Y-13862202D01*
X3816502Y-13850315D01*
X3814368Y-13849248D01*
G37*
G36*
X2440889Y-12528550D02*
G01*
X2451912Y-12527686D01*
X2462682Y-12525095D01*
X2472893Y-12520879D01*
X2482291Y-12515088D01*
X2490724Y-12507874D01*
X2497886Y-12499492D01*
X2503678Y-12490043D01*
X2507894Y-12479832D01*
X2510485Y-12469114D01*
X2510993Y-12462865D01*
X2511907Y-12459411D01*
X2513939Y-12456464D01*
X2724912Y-12245492D01*
X2728214Y-12243257D01*
X2732074Y-12242495D01*
X2804718Y-12242495D01*
X2808224Y-12243155D01*
X2811322Y-12244933D01*
X2816098Y-12248997D01*
X2825496Y-12254788D01*
X2835706Y-12259005D01*
X2846476Y-12261596D01*
X2857500Y-12262459D01*
X2868523Y-12261596D01*
X2879293Y-12259005D01*
X2889504Y-12254788D01*
X2898902Y-12248997D01*
X2907334Y-12241834D01*
X2914497Y-12233402D01*
X2920288Y-12224004D01*
X2924505Y-12213793D01*
X2927096Y-12203023D01*
X2927959Y-12192000D01*
X2927096Y-12180976D01*
X2924505Y-12170206D01*
X2920288Y-12159996D01*
X2914497Y-12150598D01*
X2907334Y-12142165D01*
X2898902Y-12135002D01*
X2889504Y-12129211D01*
X2879293Y-12124994D01*
X2868523Y-12122404D01*
X2857500Y-12121540D01*
X2846476Y-12122404D01*
X2835706Y-12124994D01*
X2825496Y-12129211D01*
X2816098Y-12135002D01*
X2811322Y-12139066D01*
X2808224Y-12140844D01*
X2804718Y-12141504D01*
X2707182Y-12141504D01*
X2702560Y-12141708D01*
X2698191Y-12142266D01*
X2693924Y-12143232D01*
X2689707Y-12144552D01*
X2685643Y-12146229D01*
X2681732Y-12148261D01*
X2678023Y-12150648D01*
X2674518Y-12153341D01*
X2671114Y-12156440D01*
X2442514Y-12385040D01*
X2439568Y-12387072D01*
X2436114Y-12387986D01*
X2429865Y-12388443D01*
X2419096Y-12391034D01*
X2408885Y-12395250D01*
X2399487Y-12401042D01*
X2391054Y-12408255D01*
X2383891Y-12416637D01*
X2378100Y-12426086D01*
X2373884Y-12436297D01*
X2371293Y-12447016D01*
X2370429Y-12458090D01*
X2371293Y-12469114D01*
X2373884Y-12479832D01*
X2378100Y-12490043D01*
X2383891Y-12499492D01*
X2391054Y-12507874D01*
X2399487Y-12515088D01*
X2408885Y-12520879D01*
X2419096Y-12525095D01*
X2429865Y-12527686D01*
G37*
G36*
X1707692Y-12515291D02*
G01*
X1722526Y-12514834D01*
X1737156Y-12512548D01*
X1751431Y-12508534D01*
X1765096Y-12502743D01*
X1777949Y-12495326D01*
X1789785Y-12486386D01*
X1800453Y-12476022D01*
X1809750Y-12464491D01*
X1817522Y-12451892D01*
X1823770Y-12438380D01*
X1828241Y-12424257D01*
X1830984Y-12409678D01*
X1831898Y-12394895D01*
X1830984Y-12380061D01*
X1828241Y-12365482D01*
X1823770Y-12351359D01*
X1817522Y-12337897D01*
X1809750Y-12325248D01*
X1800453Y-12313716D01*
X1789785Y-12303353D01*
X1777949Y-12294412D01*
X1765096Y-12286996D01*
X1751431Y-12281255D01*
X1737156Y-12277191D01*
X1722526Y-12274905D01*
X1707692Y-12274448D01*
X1692910Y-12275820D01*
X1678432Y-12278969D01*
X1664411Y-12283897D01*
X1651152Y-12290552D01*
X1638807Y-12298730D01*
X1627530Y-12308382D01*
X1617522Y-12319355D01*
X1608937Y-12331446D01*
X1601927Y-12344501D01*
X1596593Y-12358370D01*
X1592986Y-12372746D01*
X1591157Y-12387478D01*
X1591157Y-12402312D01*
X1592986Y-12416993D01*
X1596593Y-12431420D01*
X1601927Y-12445238D01*
X1608937Y-12458293D01*
X1617522Y-12470434D01*
X1627530Y-12481356D01*
X1638807Y-12491008D01*
X1651152Y-12499238D01*
X1664411Y-12505842D01*
X1678432Y-12510770D01*
X1692910Y-12513919D01*
G37*
G36*
X2270760Y-12503708D02*
G01*
X2273096Y-12502743D01*
X2285949Y-12495326D01*
X2297785Y-12486386D01*
X2308453Y-12476022D01*
X2317750Y-12464491D01*
X2325522Y-12451892D01*
X2328164Y-12446203D01*
X2270760Y-12446203D01*
G37*
G36*
X2168042Y-12503658D02*
G01*
X2168042Y-12446203D01*
X2110486Y-12446203D01*
X2116937Y-12458293D01*
X2125522Y-12470434D01*
X2135530Y-12481356D01*
X2146808Y-12491008D01*
X2159152Y-12499238D01*
G37*
G36*
X2270760Y-12343536D02*
G01*
X2328164Y-12343536D01*
X2325522Y-12337897D01*
X2317750Y-12325248D01*
X2308453Y-12313716D01*
X2297785Y-12303353D01*
X2285949Y-12294412D01*
X2273096Y-12286996D01*
X2270760Y-12286030D01*
G37*
G36*
X2110486Y-12343536D02*
G01*
X2168042Y-12343536D01*
X2168042Y-12286081D01*
X2159152Y-12290552D01*
X2146808Y-12298730D01*
X2135530Y-12308382D01*
X2125522Y-12319355D01*
X2116937Y-12331446D01*
G37*
G36*
X2150618Y-12264745D02*
G01*
X2160574Y-12264745D01*
X2171242Y-12262967D01*
X2172462Y-12263018D01*
X2174849Y-12261596D01*
X2180031Y-12259767D01*
X2188667Y-12255093D01*
X2196541Y-12248946D01*
X2203297Y-12241631D01*
X2208784Y-12233249D01*
X2212797Y-12224105D01*
X2215235Y-12214402D01*
X2216048Y-12204496D01*
X2215235Y-12194540D01*
X2212797Y-12184837D01*
X2208784Y-12175693D01*
X2203297Y-12167311D01*
X2199284Y-12162942D01*
X2197303Y-12159742D01*
X2196592Y-12156084D01*
X2196592Y-11792864D01*
X2195779Y-11784380D01*
X2193442Y-11776710D01*
X2189632Y-11769648D01*
X2186584Y-11765940D01*
X2185060Y-11763298D01*
X2184349Y-11760301D01*
X2183536Y-11750751D01*
X2181098Y-11741048D01*
X2177084Y-11731904D01*
X2171598Y-11723522D01*
X2164842Y-11716207D01*
X2156968Y-11710060D01*
X2148179Y-11705285D01*
X2138730Y-11702084D01*
X2128875Y-11700408D01*
X2118918Y-11700408D01*
X2109063Y-11702084D01*
X2099614Y-11705285D01*
X2090826Y-11710060D01*
X2082952Y-11716207D01*
X2076196Y-11723522D01*
X2070709Y-11731904D01*
X2066696Y-11741048D01*
X2064257Y-11750751D01*
X2063445Y-11760708D01*
X2064257Y-11770614D01*
X2066696Y-11780316D01*
X2070709Y-11789460D01*
X2076196Y-11797842D01*
X2082952Y-11805158D01*
X2090826Y-11811304D01*
X2099614Y-11816080D01*
X2107742Y-11818874D01*
X2111298Y-11821007D01*
X2113737Y-11824360D01*
X2114600Y-11828475D01*
X2114600Y-12156084D01*
X2113889Y-12159742D01*
X2111908Y-12162942D01*
X2107895Y-12167311D01*
X2102408Y-12175693D01*
X2100122Y-12180925D01*
X2097532Y-12184481D01*
X2096211Y-12185192D01*
X2096922Y-12186970D01*
X2096770Y-12191238D01*
X2095957Y-12194540D01*
X2095144Y-12204496D01*
X2095957Y-12214402D01*
X2098395Y-12224105D01*
X2102408Y-12233249D01*
X2107895Y-12241631D01*
X2114651Y-12248946D01*
X2122525Y-12255093D01*
X2131314Y-12259868D01*
X2140762Y-12263069D01*
G37*
G36*
X1961692Y-12261291D02*
G01*
X1976526Y-12260834D01*
X1991156Y-12258548D01*
X2005431Y-12254534D01*
X2019096Y-12248743D01*
X2031949Y-12241326D01*
X2043785Y-12232386D01*
X2054453Y-12222022D01*
X2063750Y-12210491D01*
X2071522Y-12197892D01*
X2077720Y-12184481D01*
X2080260Y-12181078D01*
X2081530Y-12180366D01*
X2080717Y-12178131D01*
X2081123Y-12173762D01*
X2082241Y-12170257D01*
X2084984Y-12155678D01*
X2085898Y-12140895D01*
X2084984Y-12126061D01*
X2082241Y-12111482D01*
X2077770Y-12097359D01*
X2071522Y-12083897D01*
X2063750Y-12071248D01*
X2054453Y-12059716D01*
X2043785Y-12049353D01*
X2031949Y-12040412D01*
X2019096Y-12032996D01*
X2005431Y-12027255D01*
X1991156Y-12023191D01*
X1976526Y-12020905D01*
X1961692Y-12020448D01*
X1946910Y-12021820D01*
X1932432Y-12024969D01*
X1918411Y-12029897D01*
X1905152Y-12036552D01*
X1892807Y-12044730D01*
X1881530Y-12054382D01*
X1871522Y-12065355D01*
X1862937Y-12077446D01*
X1855927Y-12090501D01*
X1850593Y-12104370D01*
X1846986Y-12118746D01*
X1845157Y-12133478D01*
X1845157Y-12148312D01*
X1846986Y-12162993D01*
X1850593Y-12177420D01*
X1855927Y-12191238D01*
X1862937Y-12204293D01*
X1871522Y-12216434D01*
X1881530Y-12227356D01*
X1892807Y-12237008D01*
X1905152Y-12245238D01*
X1918411Y-12251842D01*
X1932432Y-12256770D01*
X1946910Y-12259919D01*
G37*
G36*
X3289554Y-11310721D02*
G01*
X3304438Y-11310721D01*
X3319119Y-11308892D01*
X3333546Y-11305286D01*
X3347364Y-11299952D01*
X3360420Y-11292941D01*
X3372510Y-11284356D01*
X3383483Y-11274348D01*
X3393135Y-11263071D01*
X3401364Y-11250726D01*
X3407968Y-11237417D01*
X3412896Y-11223447D01*
X3416046Y-11208969D01*
X3417417Y-11194186D01*
X3416960Y-11179352D01*
X3414674Y-11164722D01*
X3410610Y-11150447D01*
X3404870Y-11136782D01*
X3397453Y-11123930D01*
X3388512Y-11112093D01*
X3378149Y-11101425D01*
X3366617Y-11092129D01*
X3354019Y-11084306D01*
X3340506Y-11078108D01*
X3326384Y-11073638D01*
X3311804Y-11070894D01*
X3297021Y-11069980D01*
X3282187Y-11070894D01*
X3267608Y-11073638D01*
X3253486Y-11078108D01*
X3239973Y-11084306D01*
X3227374Y-11092129D01*
X3215843Y-11101425D01*
X3205480Y-11112093D01*
X3196539Y-11123930D01*
X3189122Y-11136782D01*
X3183382Y-11150447D01*
X3179318Y-11164722D01*
X3177032Y-11179352D01*
X3176574Y-11194186D01*
X3177946Y-11208969D01*
X3181096Y-11223447D01*
X3186023Y-11237417D01*
X3192627Y-11250726D01*
X3200857Y-11263071D01*
X3210509Y-11274348D01*
X3221482Y-11284356D01*
X3233572Y-11292941D01*
X3246628Y-11299952D01*
X3260445Y-11305286D01*
X3274872Y-11308892D01*
G37*
G36*
X1972208Y-11296446D02*
G01*
X1986991Y-11295075D01*
X2001469Y-11291874D01*
X2015439Y-11286947D01*
X2028748Y-11280343D01*
X2041093Y-11272164D01*
X2052370Y-11262512D01*
X2062378Y-11251539D01*
X2070963Y-11239449D01*
X2077974Y-11226342D01*
X2083307Y-11212525D01*
X2086914Y-11198148D01*
X2088743Y-11183416D01*
X2088743Y-11168583D01*
X2086914Y-11153851D01*
X2083307Y-11139474D01*
X2077974Y-11125657D01*
X2070963Y-11112550D01*
X2062378Y-11100460D01*
X2052370Y-11089487D01*
X2041093Y-11079835D01*
X2028748Y-11071656D01*
X2015439Y-11065052D01*
X2001469Y-11060125D01*
X1986991Y-11056924D01*
X1972208Y-11055553D01*
X1957374Y-11056010D01*
X1942744Y-11058296D01*
X1928469Y-11062360D01*
X1914804Y-11068151D01*
X1901952Y-11075568D01*
X1890115Y-11084509D01*
X1879447Y-11094821D01*
X1870151Y-11106404D01*
X1862328Y-11119002D01*
X1856130Y-11132464D01*
X1851660Y-11146586D01*
X1848916Y-11161217D01*
X1848002Y-11176000D01*
X1848916Y-11190782D01*
X1851660Y-11205413D01*
X1856130Y-11219535D01*
X1862328Y-11232997D01*
X1870151Y-11245596D01*
X1879447Y-11257178D01*
X1890115Y-11267490D01*
X1901952Y-11276431D01*
X1914804Y-11283848D01*
X1928469Y-11289639D01*
X1942744Y-11293703D01*
X1957374Y-11295989D01*
G37*
G36*
X3035554Y-11056721D02*
G01*
X3050438Y-11056721D01*
X3065119Y-11054892D01*
X3079546Y-11051286D01*
X3093364Y-11045952D01*
X3106420Y-11038941D01*
X3118510Y-11030356D01*
X3129483Y-11020348D01*
X3139135Y-11009071D01*
X3147364Y-10996726D01*
X3153968Y-10983417D01*
X3158896Y-10969447D01*
X3162046Y-10954969D01*
X3163417Y-10940186D01*
X3162960Y-10925352D01*
X3160674Y-10910722D01*
X3156610Y-10896447D01*
X3150870Y-10882782D01*
X3143453Y-10869930D01*
X3134512Y-10858093D01*
X3124149Y-10847425D01*
X3112617Y-10838129D01*
X3100019Y-10830306D01*
X3086506Y-10824108D01*
X3072384Y-10819638D01*
X3057804Y-10816894D01*
X3043021Y-10815980D01*
X3028188Y-10816894D01*
X3013608Y-10819638D01*
X2999486Y-10824108D01*
X2985973Y-10830306D01*
X2973374Y-10838129D01*
X2961843Y-10847425D01*
X2951480Y-10858093D01*
X2942539Y-10869930D01*
X2935122Y-10882782D01*
X2929382Y-10896447D01*
X2925318Y-10910722D01*
X2923032Y-10925352D01*
X2922574Y-10940186D01*
X2923946Y-10954969D01*
X2927096Y-10969447D01*
X2932023Y-10983417D01*
X2938627Y-10996726D01*
X2946857Y-11009071D01*
X2956509Y-11020348D01*
X2967482Y-11030356D01*
X2979572Y-11038941D01*
X2992628Y-11045952D01*
X3006445Y-11051286D01*
X3020872Y-11054892D01*
G37*
G36*
X1718208Y-11042446D02*
G01*
X1732991Y-11041075D01*
X1747469Y-11037874D01*
X1761439Y-11032947D01*
X1774748Y-11026343D01*
X1787093Y-11018164D01*
X1798370Y-11008512D01*
X1808378Y-10997539D01*
X1816963Y-10985449D01*
X1823974Y-10972342D01*
X1829307Y-10958525D01*
X1832914Y-10944148D01*
X1834743Y-10929416D01*
X1834743Y-10914583D01*
X1832914Y-10899851D01*
X1829307Y-10885474D01*
X1823974Y-10871657D01*
X1816963Y-10858550D01*
X1808378Y-10846460D01*
X1798370Y-10835487D01*
X1787093Y-10825835D01*
X1774748Y-10817656D01*
X1761439Y-10811052D01*
X1747469Y-10806125D01*
X1732991Y-10802924D01*
X1718208Y-10801553D01*
X1703374Y-10802010D01*
X1688744Y-10804296D01*
X1674469Y-10808360D01*
X1660804Y-10814151D01*
X1647952Y-10821568D01*
X1636115Y-10830509D01*
X1625447Y-10840821D01*
X1616151Y-10852404D01*
X1608328Y-10865002D01*
X1602130Y-10878464D01*
X1597660Y-10892586D01*
X1594916Y-10907217D01*
X1594002Y-10922000D01*
X1594916Y-10936782D01*
X1597660Y-10951413D01*
X1602130Y-10965535D01*
X1608328Y-10978997D01*
X1616151Y-10991596D01*
X1625447Y-11003178D01*
X1636115Y-11013490D01*
X1647952Y-11022431D01*
X1660804Y-11029848D01*
X1674469Y-11035639D01*
X1688744Y-11039703D01*
X1703374Y-11041989D01*
G37*
G36*
X2226208Y-11042446D02*
G01*
X2240991Y-11041075D01*
X2255469Y-11037874D01*
X2269439Y-11032947D01*
X2282748Y-11026343D01*
X2295093Y-11018164D01*
X2306370Y-11008512D01*
X2316378Y-10997539D01*
X2324963Y-10985449D01*
X2331974Y-10972342D01*
X2337308Y-10958525D01*
X2340914Y-10944148D01*
X2342743Y-10929416D01*
X2342743Y-10914583D01*
X2340914Y-10899851D01*
X2337308Y-10885474D01*
X2331974Y-10871657D01*
X2324963Y-10858550D01*
X2316378Y-10846460D01*
X2306370Y-10835487D01*
X2295093Y-10825835D01*
X2282748Y-10817656D01*
X2269439Y-10811052D01*
X2255469Y-10806125D01*
X2240991Y-10802924D01*
X2226208Y-10801553D01*
X2211374Y-10802010D01*
X2196744Y-10804296D01*
X2182469Y-10808360D01*
X2168804Y-10814151D01*
X2155952Y-10821568D01*
X2144115Y-10830509D01*
X2133447Y-10840821D01*
X2124151Y-10852404D01*
X2116328Y-10865002D01*
X2110130Y-10878464D01*
X2105660Y-10892586D01*
X2102916Y-10907217D01*
X2102002Y-10922000D01*
X2102916Y-10936782D01*
X2105660Y-10951413D01*
X2110130Y-10965535D01*
X2116328Y-10978997D01*
X2124151Y-10991596D01*
X2133447Y-11003178D01*
X2144115Y-11013490D01*
X2155952Y-11022431D01*
X2168804Y-11029848D01*
X2182469Y-11035639D01*
X2196744Y-11039703D01*
X2211374Y-11041989D01*
G37*
G36*
X3289554Y-10802721D02*
G01*
X3304438Y-10802721D01*
X3319119Y-10800892D01*
X3333546Y-10797286D01*
X3347364Y-10791952D01*
X3360420Y-10784941D01*
X3372510Y-10776356D01*
X3383483Y-10766348D01*
X3393135Y-10755071D01*
X3401364Y-10742726D01*
X3407968Y-10729417D01*
X3412896Y-10715447D01*
X3416046Y-10700969D01*
X3417417Y-10686186D01*
X3416960Y-10671352D01*
X3414674Y-10656722D01*
X3410610Y-10642447D01*
X3404870Y-10628782D01*
X3397453Y-10615930D01*
X3388512Y-10604093D01*
X3378149Y-10593425D01*
X3366617Y-10584129D01*
X3354019Y-10576306D01*
X3340506Y-10570108D01*
X3326384Y-10565638D01*
X3311804Y-10562894D01*
X3297021Y-10561980D01*
X3282187Y-10562894D01*
X3267608Y-10565638D01*
X3253486Y-10570108D01*
X3239973Y-10576306D01*
X3227374Y-10584129D01*
X3215843Y-10593425D01*
X3205480Y-10604093D01*
X3196539Y-10615930D01*
X3189122Y-10628782D01*
X3183382Y-10642447D01*
X3179318Y-10656722D01*
X3177032Y-10671352D01*
X3176574Y-10686186D01*
X3177946Y-10700969D01*
X3181096Y-10715447D01*
X3186023Y-10729417D01*
X3192627Y-10742726D01*
X3200857Y-10755071D01*
X3210509Y-10766348D01*
X3221482Y-10776356D01*
X3233572Y-10784941D01*
X3246628Y-10791952D01*
X3260445Y-10797286D01*
X3274872Y-10800892D01*
G37*
G36*
X1710182Y-9328251D02*
G01*
X1710182Y-9211868D01*
X1593748Y-9211868D01*
X1594815Y-9214002D01*
X1606702Y-9233916D01*
X1620164Y-9252813D01*
X1635150Y-9270492D01*
X1651558Y-9286900D01*
X1669237Y-9301886D01*
X1688084Y-9315348D01*
X1707997Y-9327184D01*
G37*
G36*
X1972868Y-9328251D02*
G01*
X1975002Y-9327184D01*
X1994916Y-9315348D01*
X2013813Y-9301886D01*
X2031492Y-9286900D01*
X2047900Y-9270492D01*
X2062886Y-9252813D01*
X2076348Y-9233916D01*
X2088184Y-9214002D01*
X2089251Y-9211868D01*
X1972868Y-9211868D01*
G37*
G36*
X3551682Y-9328251D02*
G01*
X3551682Y-9211868D01*
X3435248Y-9211868D01*
X3436315Y-9214002D01*
X3448202Y-9233916D01*
X3461664Y-9252813D01*
X3476650Y-9270492D01*
X3493058Y-9286900D01*
X3510737Y-9301886D01*
X3529584Y-9315348D01*
X3549497Y-9327184D01*
G37*
G36*
X3814368Y-9328251D02*
G01*
X3816502Y-9327184D01*
X3836415Y-9315348D01*
X3855313Y-9301886D01*
X3872992Y-9286900D01*
X3889400Y-9270492D01*
X3904386Y-9252813D01*
X3917848Y-9233916D01*
X3929684Y-9214002D01*
X3930751Y-9211868D01*
X3814368Y-9211868D01*
G37*
G36*
X3054400Y-9191701D02*
G01*
X3223412Y-9191701D01*
X3231794Y-9190888D01*
X3239363Y-9188551D01*
X3246374Y-9184843D01*
X3252520Y-9179814D01*
X3257550Y-9173667D01*
X3261258Y-9166656D01*
X3263595Y-9159087D01*
X3264408Y-9150705D01*
X3264408Y-8981694D01*
X3263595Y-8973312D01*
X3261258Y-8965692D01*
X3257550Y-8958681D01*
X3252520Y-8952585D01*
X3246374Y-8947556D01*
X3239363Y-8943797D01*
X3231794Y-8941511D01*
X3223412Y-8940698D01*
X3054400Y-8940698D01*
X3046018Y-8941511D01*
X3038398Y-8943797D01*
X3031439Y-8947556D01*
X3025292Y-8952585D01*
X3020263Y-8958681D01*
X3016504Y-8965692D01*
X3014218Y-8973312D01*
X3013405Y-8981694D01*
X3013405Y-9150705D01*
X3014218Y-9159087D01*
X3016504Y-9166656D01*
X3020263Y-9173667D01*
X3025292Y-9179814D01*
X3031439Y-9184843D01*
X3038398Y-9188551D01*
X3046018Y-9190888D01*
G37*
G36*
X2369667Y-9181439D02*
G01*
X2384145Y-9181439D01*
X2398522Y-9179610D01*
X2412593Y-9176004D01*
X2426055Y-9170670D01*
X2438755Y-9163710D01*
X2450490Y-9155176D01*
X2461056Y-9145219D01*
X2470302Y-9134043D01*
X2478074Y-9121800D01*
X2484272Y-9108694D01*
X2488742Y-9094927D01*
X2491486Y-9080652D01*
X2492400Y-9066174D01*
X2491486Y-9051696D01*
X2488742Y-9037472D01*
X2484272Y-9023654D01*
X2478074Y-9010548D01*
X2470302Y-8998305D01*
X2461056Y-8987129D01*
X2450490Y-8977223D01*
X2438755Y-8968689D01*
X2426055Y-8961678D01*
X2412593Y-8956344D01*
X2398522Y-8952738D01*
X2384145Y-8950909D01*
X2369667Y-8950909D01*
X2355240Y-8952738D01*
X2341219Y-8956344D01*
X2327706Y-8961678D01*
X2315006Y-8968689D01*
X2303272Y-8977223D01*
X2292705Y-8987129D01*
X2283460Y-8998305D01*
X2275687Y-9010548D01*
X2269540Y-9023654D01*
X2265019Y-9037472D01*
X2262327Y-9051696D01*
X2261412Y-9066174D01*
X2262327Y-9080652D01*
X2265019Y-9094927D01*
X2269540Y-9108694D01*
X2275687Y-9121800D01*
X2283460Y-9134043D01*
X2292705Y-9145219D01*
X2303272Y-9155176D01*
X2315006Y-9163710D01*
X2327706Y-9170670D01*
X2341219Y-9176004D01*
X2355240Y-9179610D01*
G37*
G36*
X2679750Y-9170822D02*
G01*
X2692755Y-9163710D01*
X2704490Y-9155176D01*
X2715056Y-9145219D01*
X2724302Y-9134043D01*
X2732074Y-9121800D01*
X2735275Y-9115044D01*
X2679750Y-9115044D01*
G37*
G36*
X2933750Y-9170822D02*
G01*
X2946755Y-9163710D01*
X2958490Y-9155176D01*
X2969056Y-9145219D01*
X2978302Y-9134043D01*
X2986074Y-9121800D01*
X2989275Y-9115044D01*
X2933750Y-9115044D01*
G37*
G36*
X2582062Y-9170822D02*
G01*
X2582062Y-9115044D01*
X2526487Y-9115044D01*
X2529687Y-9121800D01*
X2537460Y-9134043D01*
X2546705Y-9145219D01*
X2557272Y-9155176D01*
X2569006Y-9163710D01*
G37*
G36*
X2836062Y-9170822D02*
G01*
X2836062Y-9115044D01*
X2780487Y-9115044D01*
X2783687Y-9121800D01*
X2791460Y-9134043D01*
X2800705Y-9145219D01*
X2811272Y-9155176D01*
X2823006Y-9163710D01*
G37*
G36*
X2679750Y-9017355D02*
G01*
X2735275Y-9017355D01*
X2732074Y-9010548D01*
X2724302Y-8998305D01*
X2715056Y-8987129D01*
X2704490Y-8977223D01*
X2692755Y-8968689D01*
X2679750Y-8961577D01*
G37*
G36*
X2780487Y-9017355D02*
G01*
X2836062Y-9017355D01*
X2836062Y-8961577D01*
X2823006Y-8968689D01*
X2811272Y-8977223D01*
X2800705Y-8987129D01*
X2791460Y-8998305D01*
X2783687Y-9010548D01*
G37*
G36*
X2526487Y-9017355D02*
G01*
X2582062Y-9017355D01*
X2582062Y-8961577D01*
X2569006Y-8968689D01*
X2557272Y-8977223D01*
X2546705Y-8987129D01*
X2537460Y-8998305D01*
X2529687Y-9010548D01*
G37*
G36*
X2933750Y-9017355D02*
G01*
X2989275Y-9017355D01*
X2986074Y-9010548D01*
X2978302Y-8998305D01*
X2969056Y-8987129D01*
X2958490Y-8977223D01*
X2946755Y-8968689D01*
X2933750Y-8961577D01*
G37*
G36*
X1593748Y-8949182D02*
G01*
X1710182Y-8949182D01*
X1710182Y-8832748D01*
X1707997Y-8833815D01*
X1688084Y-8845702D01*
X1669237Y-8859164D01*
X1651558Y-8874150D01*
X1635150Y-8890558D01*
X1620164Y-8908237D01*
X1606702Y-8927084D01*
X1594815Y-8946997D01*
G37*
G36*
X3435248Y-8949182D02*
G01*
X3551682Y-8949182D01*
X3551682Y-8832748D01*
X3549497Y-8833815D01*
X3529584Y-8845702D01*
X3510737Y-8859164D01*
X3493058Y-8874150D01*
X3476650Y-8890558D01*
X3461664Y-8908237D01*
X3448202Y-8927084D01*
X3436315Y-8946997D01*
G37*
G36*
X3814368Y-8949182D02*
G01*
X3930751Y-8949182D01*
X3929684Y-8946997D01*
X3917848Y-8927084D01*
X3904386Y-8908237D01*
X3889400Y-8890558D01*
X3872992Y-8874150D01*
X3855313Y-8859164D01*
X3836415Y-8845702D01*
X3816502Y-8833815D01*
X3814368Y-8832748D01*
G37*
G36*
X1972868Y-8949182D02*
G01*
X2089251Y-8949182D01*
X2088184Y-8946997D01*
X2076348Y-8927084D01*
X2062886Y-8908237D01*
X2047900Y-8890558D01*
X2031492Y-8874150D01*
X2013813Y-8859164D01*
X1994916Y-8845702D01*
X1975002Y-8833815D01*
X1972868Y-8832748D01*
G37*

%LPD*%
D10*
X2440894Y-12458075D02*
G01*
X2706969Y-12192000D01*
X2857500Y-12192000D01*
D11*
X2123894Y-11760677D02*
G01*
X2155596Y-11792379D01*
X2155596Y-12204476D01*
D12*
G01*
X1711401Y-12394869D03*
G01*
X1965401Y-12140869D03*
G01*
X2219401Y-12394869D03*
G01*
X2222500Y-10922000D03*
G01*
X1968500Y-11176000D03*
G01*
X1714500Y-10922000D03*
G01*
X3296996Y-11190478D03*
G01*
X3042996Y-10936478D03*
G01*
X3296996Y-10682478D03*
D13*
G01*
X2376881Y-14169059D03*
D14*
G01*
X2630881Y-14169059D03*
G01*
X2884881Y-14169059D03*
G01*
X3138881Y-14169059D03*
D13*
G01*
X3138881Y-9066174D03*
D14*
G01*
X2884881Y-9066174D03*
G01*
X2630881Y-9066174D03*
G01*
X2376881Y-9066174D03*
D15*
G01*
X3683000Y-9080500D03*
G01*
X1841500Y-9080500D03*
G01*
X1841500Y-14097000D03*
G01*
X3683000Y-14097000D03*
D16*
G01*
X2603500Y-9334500D03*
G01*
X3391890Y-9922078D03*
G01*
X2028799Y-10017175D03*
G01*
X2314092Y-9953777D03*
G01*
X2662783Y-10334193D03*
G01*
X3106597Y-11792381D03*
G01*
X1933702Y-11760682D03*
G01*
X2821304Y-13250570D03*
G01*
X3613784Y-13187171D03*
G01*
X3556076Y-11557025D03*
G01*
X2757881Y-11665585D03*
G01*
X2535986Y-12077674D03*
G01*
X2377490Y-13377367D03*
G01*
X2123897Y-11760682D03*
G01*
X2155596Y-12204471D03*
D17*
G01*
X2440889Y-12458064D03*
G01*
X2857500Y-12192000D03*
D16*
G01*
X2757881Y-11380266D03*
G01*
X2757881Y-11031575D03*
G01*
X2345791Y-10619486D03*
G01*
X2567686Y-10841380D03*
G01*
X2789605Y-11982577D03*
G01*
X3011500Y-12331268D03*
G01*
X3138297Y-12838480D03*
G01*
X3632327Y-11292078D03*
G01*
X3645484Y-10682884D03*
G01*
X3899103Y-10682884D03*
G01*
X3867404Y-11348567D03*
G01*
X3804005Y-11665585D03*
G01*
X3550386Y-11824080D03*
G01*
X3391890Y-12362967D03*
G01*
X3772306Y-12362967D03*
G01*
X3613784Y-10936478D03*
G01*
X2286000Y-9271000D03*
G01*
X2032000Y-9398000D03*
G01*
X1968500Y-9652000D03*
G01*
X1806905Y-9858679D03*
G01*
X2159000Y-10350500D03*
G01*
X3138297Y-12553187D03*
G01*
X3360191Y-12679984D03*
M02*
