G04 Layer: TopLayer*
G04 Panelize: , Column: 1, Row: 1, Board Size: 24.79mm x 99.86mm, Panelized Board Size: 24.79mm x 99.86mm*
G04 EasyEDA v6.5.38, 2023-11-29 22:14:48*
G04 649fd776c75745b294ce3d4cd4ec5058,9a5be75d700b4a6385dc1106f27949ae,10*
G04 Gerber Generator version 0.2*
G04 Scale: 100 percent, Rotated: No, Reflected: No *
G04 Dimensions in millimeters *
G04 leading zeros omitted , absolute positions ,4 integer and 5 decimal *
%FSLAX45Y45*%
%MOMM*%

%AMMACRO1*21,1,$1,$2,0,0,$3*%
%ADD10C,0.2100*%
%ADD11C,0.4000*%
%ADD12MACRO1,1.35X1.41X90.0000*%
%ADD13R,1.0000X0.7500*%
%ADD14R,0.7500X1.0000*%
%ADD15MACRO1,0.864X0.8065X0.0000*%
%ADD16R,0.8640X0.8065*%
%ADD17MACRO1,0.864X0.8065X-90.0000*%
%ADD18MACRO1,0.864X0.8065X90.0000*%
%ADD19R,0.5320X1.0720*%
%ADD20R,1.2000X3.7000*%
%ADD21R,0.8640X0.8000*%
%ADD22R,0.8000X0.9000*%
%ADD23R,1.0700X0.6000*%
%ADD24R,0.8000X0.8000*%
%ADD25MACRO1,1.35X1.41X-90.0000*%
%ADD26R,0.9000X0.8000*%
%ADD27R,0.6000X1.0000*%
%ADD28C,1.5240*%
%ADD29R,1.7000X1.7000*%
%ADD30C,1.7000*%
%ADD31C,5.5000*%
%ADD32C,0.8100*%
%ADD33C,0.6100*%
%ADD34C,0.6200*%
%ADD35C,0.0145*%

%LPD*%
G36*
X1711045Y-13949172D02*
G01*
X1704441Y-13948867D01*
X1700682Y-13947952D01*
X1697583Y-13945768D01*
X1695500Y-13942517D01*
X1694738Y-13938707D01*
X1694738Y-13806525D01*
X1562506Y-13806525D01*
X1558696Y-13805763D01*
X1555445Y-13803680D01*
X1553210Y-13800480D01*
X1552346Y-13796721D01*
X1552092Y-13789456D01*
X1552092Y-13529005D01*
X1552854Y-13525093D01*
X1555089Y-13521791D01*
X1558493Y-13519556D01*
X1555851Y-13518235D01*
X1553108Y-13514730D01*
X1552092Y-13510361D01*
X1552092Y-9382252D01*
X1553006Y-9378035D01*
X1555648Y-9374581D01*
X1559458Y-9372498D01*
X1563827Y-9372244D01*
X1567840Y-9373768D01*
X1570888Y-9376918D01*
X1582978Y-9396323D01*
X1597406Y-9415830D01*
X1613357Y-9434169D01*
X1630680Y-9451187D01*
X1649323Y-9466732D01*
X1669135Y-9480804D01*
X1690014Y-9493199D01*
X1691843Y-9494113D01*
X1691843Y-9368536D01*
X1562252Y-9368536D01*
X1558391Y-9367774D01*
X1555089Y-9365589D01*
X1552854Y-9362287D01*
X1552092Y-9358376D01*
X1552092Y-9091015D01*
X1552854Y-9087104D01*
X1555089Y-9083802D01*
X1558391Y-9081617D01*
X1562252Y-9080855D01*
X1691843Y-9080855D01*
X1691843Y-8955278D01*
X1690014Y-8956141D01*
X1669135Y-8968587D01*
X1649323Y-8982608D01*
X1630680Y-8998204D01*
X1613357Y-9015222D01*
X1597406Y-9033560D01*
X1582978Y-9053068D01*
X1570888Y-9072473D01*
X1567840Y-9075572D01*
X1563827Y-9077147D01*
X1559458Y-9076893D01*
X1555648Y-9074810D01*
X1553006Y-9071356D01*
X1552092Y-9067139D01*
X1552092Y-8900160D01*
X1552854Y-8896248D01*
X1555089Y-8892997D01*
X1558391Y-8890762D01*
X1562252Y-8890000D01*
X3958742Y-8890000D01*
X3962654Y-8890762D01*
X3965905Y-8892997D01*
X3968140Y-8896299D01*
X3968902Y-8900160D01*
X3968699Y-9081719D01*
X3967937Y-9085580D01*
X3967937Y-9087104D01*
X3968699Y-9091015D01*
X3968394Y-9358376D01*
X3967632Y-9362287D01*
X3966921Y-9363354D01*
X3967632Y-9364472D01*
X3968394Y-9368332D01*
X3963974Y-13511022D01*
X3963009Y-13515340D01*
X3960317Y-13518794D01*
X3958183Y-13519912D01*
X3960977Y-13521791D01*
X3963212Y-13525093D01*
X3963974Y-13529005D01*
X3963670Y-13789456D01*
X3963415Y-13796721D01*
X3962552Y-13800480D01*
X3960317Y-13803680D01*
X3957065Y-13805763D01*
X3953256Y-13806525D01*
X3821074Y-13806525D01*
X3821074Y-13938757D01*
X3820363Y-13942517D01*
X3818280Y-13945768D01*
X3815130Y-13948003D01*
X3811371Y-13948918D01*
X3805631Y-13949172D01*
X3543503Y-13949172D01*
X3539642Y-13948410D01*
X3536340Y-13946174D01*
X3534105Y-13942618D01*
X3532530Y-13945565D01*
X3529076Y-13948206D01*
X3524808Y-13949172D01*
X1990699Y-13949172D01*
X1986330Y-13948206D01*
X1982825Y-13945463D01*
X1981606Y-13943025D01*
X1979472Y-13946174D01*
X1976170Y-13948410D01*
X1972310Y-13949172D01*
G37*

%LPC*%
G36*
X3533343Y-13933728D02*
G01*
X3533343Y-13806525D01*
X3407968Y-13806525D01*
X3411626Y-13813637D01*
X3424478Y-13834262D01*
X3438906Y-13853820D01*
X3454857Y-13872159D01*
X3472179Y-13889177D01*
X3490823Y-13904722D01*
X3510686Y-13918793D01*
X3529990Y-13930274D01*
G37*
G36*
X1982470Y-13933068D02*
G01*
X1985822Y-13930071D01*
X1994865Y-13925194D01*
X2015185Y-13911935D01*
X2034438Y-13897152D01*
X2052472Y-13880846D01*
X2069134Y-13863167D01*
X2084324Y-13844219D01*
X2097938Y-13824102D01*
X2107946Y-13806525D01*
X1982470Y-13806525D01*
G37*
G36*
X2292400Y-13714780D02*
G01*
X2461412Y-13714780D01*
X2467813Y-13714120D01*
X2473553Y-13712393D01*
X2478836Y-13709599D01*
X2483408Y-13705789D01*
X2487218Y-13701217D01*
X2490012Y-13695934D01*
X2491740Y-13690193D01*
X2492400Y-13683792D01*
X2492400Y-13514781D01*
X2491740Y-13508329D01*
X2490012Y-13502640D01*
X2487218Y-13497356D01*
X2483408Y-13492734D01*
X2478836Y-13488924D01*
X2473553Y-13486130D01*
X2467813Y-13484402D01*
X2461412Y-13483742D01*
X2428290Y-13483742D01*
X2424430Y-13482980D01*
X2421128Y-13480796D01*
X2418892Y-13477494D01*
X2418130Y-13473582D01*
X2418334Y-13374420D01*
X2419248Y-13370204D01*
X2421788Y-13366750D01*
X2425547Y-13364667D01*
X2432354Y-13362635D01*
X2437638Y-13359841D01*
X2442210Y-13356082D01*
X2446020Y-13351459D01*
X2448814Y-13346176D01*
X2450592Y-13340486D01*
X2451201Y-13334034D01*
X2451201Y-13254380D01*
X2450592Y-13247928D01*
X2448814Y-13242239D01*
X2446020Y-13236956D01*
X2442210Y-13232333D01*
X2437638Y-13228574D01*
X2436266Y-13227812D01*
X2432964Y-13225018D01*
X2431135Y-13221055D01*
X2431135Y-13216686D01*
X2432964Y-13212724D01*
X2436266Y-13209930D01*
X2437638Y-13209219D01*
X2442210Y-13205409D01*
X2446020Y-13200786D01*
X2448814Y-13195554D01*
X2450592Y-13189813D01*
X2451201Y-13183362D01*
X2451201Y-13174929D01*
X2451963Y-13171068D01*
X2454198Y-13167766D01*
X2457450Y-13165531D01*
X2461361Y-13164769D01*
X2475585Y-13164769D01*
X2479751Y-13165683D01*
X2483205Y-13168223D01*
X2485288Y-13171982D01*
X2487320Y-13178637D01*
X2490114Y-13183869D01*
X2493924Y-13188492D01*
X2498547Y-13192302D01*
X2503779Y-13195096D01*
X2509520Y-13196824D01*
X2515971Y-13197484D01*
X2595575Y-13197484D01*
X2602026Y-13196824D01*
X2607767Y-13195096D01*
X2612999Y-13192302D01*
X2617622Y-13188492D01*
X2621432Y-13183869D01*
X2622143Y-13182549D01*
X2624937Y-13179247D01*
X2628900Y-13177418D01*
X2633268Y-13177418D01*
X2637231Y-13179247D01*
X2640076Y-13182549D01*
X2640787Y-13183869D01*
X2644546Y-13188492D01*
X2649169Y-13192302D01*
X2654452Y-13195096D01*
X2660142Y-13196824D01*
X2666593Y-13197484D01*
X2746248Y-13197484D01*
X2752699Y-13196824D01*
X2758389Y-13195096D01*
X2763672Y-13192302D01*
X2768295Y-13188492D01*
X2772054Y-13183869D01*
X2774899Y-13178637D01*
X2776626Y-13172897D01*
X2777236Y-13166496D01*
X2777236Y-13152069D01*
X2777998Y-13148208D01*
X2780182Y-13144906D01*
X2783433Y-13142722D01*
X2787294Y-13141909D01*
X2791155Y-13142620D01*
X2794457Y-13144754D01*
X2796692Y-13147954D01*
X2798927Y-13153034D01*
X2804464Y-13161518D01*
X2811373Y-13168985D01*
X2819349Y-13175234D01*
X2828290Y-13180060D01*
X2837891Y-13183362D01*
X2847898Y-13185038D01*
X2858058Y-13185038D01*
X2868066Y-13183362D01*
X2877667Y-13180060D01*
X2886608Y-13175234D01*
X2894634Y-13168985D01*
X2901492Y-13161518D01*
X2907080Y-13153034D01*
X2911144Y-13143738D01*
X2913634Y-13133882D01*
X2914446Y-13123773D01*
X2913634Y-13113664D01*
X2911144Y-13103809D01*
X2907080Y-13094512D01*
X2901492Y-13086029D01*
X2894634Y-13078561D01*
X2886608Y-13072313D01*
X2877667Y-13067487D01*
X2868066Y-13064185D01*
X2858058Y-13062508D01*
X2847898Y-13062508D01*
X2837891Y-13064185D01*
X2828290Y-13067487D01*
X2819349Y-13072313D01*
X2815640Y-13075208D01*
X2811576Y-13077088D01*
X2807106Y-13077088D01*
X2803042Y-13075107D01*
X2800248Y-13071551D01*
X2799283Y-13067182D01*
X2799283Y-13029031D01*
X2800146Y-13024815D01*
X2802737Y-13021360D01*
X2806496Y-13019278D01*
X2809900Y-13018262D01*
X2815183Y-13015468D01*
X2819806Y-13011658D01*
X2823565Y-13007035D01*
X2826359Y-13001802D01*
X2828137Y-12996062D01*
X2828747Y-12989610D01*
X2828747Y-12910616D01*
X2828137Y-12904165D01*
X2826359Y-12898475D01*
X2823565Y-12893192D01*
X2819806Y-12888569D01*
X2815183Y-12884810D01*
X2809900Y-12881965D01*
X2803652Y-12880086D01*
X2799537Y-12878358D01*
X2796590Y-12875006D01*
X2795320Y-12870688D01*
X2796082Y-12866268D01*
X2798622Y-12862610D01*
X2802534Y-12860375D01*
X2809189Y-12858343D01*
X2814472Y-12855549D01*
X2819095Y-12851739D01*
X2822854Y-12847167D01*
X2825699Y-12841884D01*
X2827426Y-12836194D01*
X2828036Y-12829743D01*
X2828036Y-12816586D01*
X2783890Y-12816586D01*
X2783890Y-12869468D01*
X2783128Y-12873329D01*
X2780944Y-12876631D01*
X2777642Y-12878866D01*
X2773730Y-12879628D01*
X2741371Y-12879628D01*
X2737459Y-12878866D01*
X2734157Y-12876631D01*
X2731973Y-12873329D01*
X2731211Y-12869468D01*
X2731211Y-12816586D01*
X2687015Y-12816586D01*
X2687015Y-12829743D01*
X2687675Y-12836194D01*
X2689402Y-12841884D01*
X2692247Y-12847167D01*
X2696006Y-12851739D01*
X2700629Y-12855549D01*
X2705912Y-12858343D01*
X2712110Y-12860223D01*
X2716276Y-12862001D01*
X2719222Y-12865354D01*
X2720441Y-12869672D01*
X2719730Y-12874091D01*
X2717139Y-12877749D01*
X2713278Y-12879984D01*
X2706573Y-12881965D01*
X2701340Y-12884810D01*
X2696718Y-12888569D01*
X2692908Y-12893192D01*
X2690114Y-12898475D01*
X2688386Y-12904165D01*
X2687726Y-12910616D01*
X2687726Y-12989610D01*
X2688386Y-12996062D01*
X2690114Y-13001802D01*
X2692908Y-13007035D01*
X2696718Y-13011658D01*
X2701340Y-13015468D01*
X2706573Y-13018262D01*
X2710027Y-13019328D01*
X2713786Y-13021411D01*
X2716326Y-13024815D01*
X2717241Y-13029031D01*
X2717241Y-13039902D01*
X2716479Y-13043814D01*
X2714294Y-13047116D01*
X2710992Y-13049300D01*
X2707081Y-13050062D01*
X2666593Y-13050062D01*
X2660142Y-13050723D01*
X2654452Y-13052450D01*
X2649169Y-13055244D01*
X2644546Y-13059054D01*
X2640787Y-13063677D01*
X2640076Y-13064998D01*
X2637231Y-13068300D01*
X2633268Y-13070128D01*
X2628900Y-13070128D01*
X2624937Y-13068300D01*
X2622143Y-13064998D01*
X2621432Y-13063677D01*
X2617622Y-13059054D01*
X2612999Y-13055244D01*
X2607767Y-13052450D01*
X2602026Y-13050723D01*
X2595575Y-13050062D01*
X2515971Y-13050062D01*
X2509520Y-13050723D01*
X2503779Y-13052450D01*
X2498547Y-13055244D01*
X2493924Y-13059054D01*
X2490114Y-13063677D01*
X2487320Y-13068909D01*
X2485288Y-13075564D01*
X2483205Y-13079323D01*
X2479751Y-13081863D01*
X2475585Y-13082778D01*
X2447188Y-13082778D01*
X2443734Y-13082168D01*
X2440736Y-13080441D01*
X2437638Y-13077901D01*
X2432354Y-13075107D01*
X2429713Y-13074294D01*
X2426106Y-13072363D01*
X2423617Y-13069163D01*
X2422499Y-13065201D01*
X2423058Y-13061188D01*
X2425192Y-13057682D01*
X2429916Y-13052552D01*
X2435453Y-13044119D01*
X2439466Y-13034873D01*
X2441956Y-13025119D01*
X2442768Y-13015112D01*
X2441956Y-13005054D01*
X2439466Y-12995300D01*
X2435453Y-12986054D01*
X2429916Y-12977622D01*
X2423109Y-12970205D01*
X2415133Y-12964058D01*
X2406294Y-12959232D01*
X2396794Y-12955981D01*
X2386838Y-12954304D01*
X2376779Y-12954304D01*
X2366822Y-12955981D01*
X2357323Y-12959232D01*
X2348484Y-12964058D01*
X2340508Y-12970205D01*
X2333701Y-12977622D01*
X2328164Y-12986054D01*
X2324150Y-12995300D01*
X2321661Y-13005054D01*
X2320848Y-13015112D01*
X2321661Y-13025119D01*
X2324150Y-13034873D01*
X2328164Y-13044119D01*
X2335784Y-13055854D01*
X2336495Y-13059562D01*
X2336495Y-13063372D01*
X2335580Y-13067538D01*
X2333040Y-13070992D01*
X2329281Y-13073075D01*
X2322626Y-13075107D01*
X2317394Y-13077901D01*
X2312771Y-13081711D01*
X2308961Y-13086283D01*
X2306167Y-13091566D01*
X2304440Y-13097306D01*
X2303780Y-13103707D01*
X2303780Y-13183362D01*
X2304440Y-13189813D01*
X2306167Y-13195554D01*
X2308961Y-13200786D01*
X2312771Y-13205409D01*
X2317394Y-13209219D01*
X2318715Y-13209930D01*
X2322017Y-13212724D01*
X2323846Y-13216686D01*
X2323846Y-13221055D01*
X2322017Y-13225018D01*
X2318715Y-13227812D01*
X2317394Y-13228574D01*
X2312771Y-13232333D01*
X2308961Y-13236956D01*
X2306167Y-13242239D01*
X2304440Y-13247928D01*
X2303780Y-13254380D01*
X2303780Y-13334034D01*
X2304440Y-13340486D01*
X2306167Y-13346176D01*
X2308961Y-13351459D01*
X2312771Y-13356082D01*
X2317394Y-13359841D01*
X2322626Y-13362635D01*
X2329078Y-13364616D01*
X2332837Y-13366699D01*
X2335377Y-13370153D01*
X2336292Y-13374369D01*
X2336139Y-13473633D01*
X2335377Y-13477494D01*
X2333142Y-13480796D01*
X2329840Y-13482980D01*
X2325979Y-13483742D01*
X2292400Y-13483742D01*
X2285949Y-13484402D01*
X2280259Y-13486130D01*
X2274976Y-13488924D01*
X2270353Y-13492734D01*
X2266594Y-13497356D01*
X2263749Y-13502640D01*
X2262022Y-13508329D01*
X2261412Y-13514781D01*
X2261412Y-13683792D01*
X2262022Y-13690193D01*
X2263749Y-13695934D01*
X2266594Y-13701217D01*
X2270353Y-13705789D01*
X2274976Y-13709599D01*
X2280259Y-13712393D01*
X2285949Y-13714120D01*
G37*
G36*
X2877667Y-13714526D02*
G01*
X2892145Y-13714526D01*
X2906522Y-13712698D01*
X2920593Y-13709091D01*
X2934055Y-13703757D01*
X2946755Y-13696797D01*
X2958490Y-13688263D01*
X2969056Y-13678306D01*
X2978302Y-13667130D01*
X2986074Y-13654887D01*
X2992272Y-13641781D01*
X2996742Y-13628014D01*
X2999486Y-13613739D01*
X3000400Y-13599261D01*
X2999486Y-13584783D01*
X2996742Y-13570559D01*
X2992272Y-13556742D01*
X2986074Y-13543635D01*
X2978302Y-13531392D01*
X2969056Y-13520216D01*
X2958490Y-13510310D01*
X2946755Y-13501776D01*
X2934055Y-13494766D01*
X2920593Y-13489432D01*
X2906522Y-13485825D01*
X2892145Y-13483996D01*
X2877667Y-13483996D01*
X2863240Y-13485825D01*
X2849219Y-13489432D01*
X2835706Y-13494766D01*
X2823006Y-13501776D01*
X2811272Y-13510310D01*
X2800705Y-13520216D01*
X2791460Y-13531392D01*
X2783687Y-13543635D01*
X2777540Y-13556742D01*
X2773019Y-13570559D01*
X2770327Y-13584783D01*
X2769412Y-13599261D01*
X2770327Y-13613739D01*
X2773019Y-13628014D01*
X2777540Y-13641781D01*
X2783687Y-13654887D01*
X2791460Y-13667130D01*
X2800705Y-13678306D01*
X2811272Y-13688263D01*
X2823006Y-13696797D01*
X2835706Y-13703757D01*
X2849219Y-13709091D01*
X2863240Y-13712698D01*
G37*
G36*
X3131667Y-13714526D02*
G01*
X3146145Y-13714526D01*
X3160522Y-13712698D01*
X3174593Y-13709091D01*
X3188055Y-13703757D01*
X3200755Y-13696797D01*
X3212490Y-13688263D01*
X3223056Y-13678306D01*
X3232302Y-13667130D01*
X3240074Y-13654887D01*
X3246272Y-13641781D01*
X3250742Y-13628014D01*
X3253486Y-13613739D01*
X3254400Y-13599261D01*
X3253486Y-13584783D01*
X3250742Y-13570559D01*
X3246272Y-13556742D01*
X3240074Y-13543635D01*
X3232302Y-13531392D01*
X3223056Y-13520216D01*
X3212490Y-13510310D01*
X3200755Y-13501776D01*
X3194659Y-13498423D01*
X3191865Y-13496137D01*
X3190036Y-13493038D01*
X3189376Y-13489482D01*
X3189376Y-13333425D01*
X3190290Y-13329259D01*
X3192830Y-13325805D01*
X3201822Y-13320877D01*
X3206394Y-13317118D01*
X3210204Y-13312495D01*
X3212998Y-13307212D01*
X3214776Y-13301522D01*
X3215386Y-13295071D01*
X3215386Y-13206069D01*
X3214776Y-13199618D01*
X3212998Y-13193928D01*
X3210204Y-13188645D01*
X3206394Y-13184022D01*
X3201822Y-13180263D01*
X3197910Y-13177418D01*
X3196082Y-13174319D01*
X3195421Y-13170763D01*
X3195421Y-13139572D01*
X3196386Y-13135203D01*
X3199130Y-13131698D01*
X3203041Y-13128498D01*
X3206800Y-13123875D01*
X3209594Y-13118642D01*
X3211372Y-13112902D01*
X3211982Y-13106450D01*
X3211982Y-13027456D01*
X3211372Y-13021005D01*
X3209594Y-13015315D01*
X3206800Y-13010032D01*
X3202279Y-13004850D01*
X3199536Y-13001294D01*
X3198571Y-12996976D01*
X3199536Y-12992608D01*
X3206800Y-12983921D01*
X3209594Y-12978638D01*
X3211372Y-12972948D01*
X3211982Y-12966496D01*
X3211982Y-12887502D01*
X3211372Y-12881051D01*
X3209594Y-12875310D01*
X3206800Y-12870078D01*
X3203041Y-12865455D01*
X3198418Y-12861645D01*
X3193135Y-12858851D01*
X3189427Y-12857734D01*
X3185668Y-12855651D01*
X3183128Y-12852196D01*
X3182213Y-12847980D01*
X3182213Y-12823240D01*
X3182874Y-12819634D01*
X3184702Y-12816535D01*
X3188614Y-12813690D01*
X3193846Y-12809169D01*
X3197352Y-12806426D01*
X3201670Y-12805460D01*
X3206038Y-12806426D01*
X3214776Y-12813690D01*
X3220008Y-12816535D01*
X3225749Y-12818262D01*
X3232200Y-12818872D01*
X3245358Y-12818872D01*
X3245358Y-12772237D01*
X3212388Y-12772237D01*
X3208477Y-12771475D01*
X3205175Y-12769240D01*
X3202990Y-12765938D01*
X3202228Y-12762077D01*
X3202228Y-12724688D01*
X3202990Y-12720777D01*
X3205175Y-12717526D01*
X3208477Y-12715290D01*
X3212388Y-12714528D01*
X3245358Y-12714528D01*
X3245358Y-12613741D01*
X3212388Y-12613741D01*
X3208477Y-12612928D01*
X3205175Y-12610744D01*
X3202990Y-12607442D01*
X3202228Y-12603581D01*
X3202228Y-12566192D01*
X3202990Y-12562281D01*
X3205175Y-12558979D01*
X3208477Y-12556794D01*
X3212388Y-12556032D01*
X3245358Y-12556032D01*
X3245358Y-12509347D01*
X3232200Y-12509347D01*
X3225749Y-12510008D01*
X3220008Y-12511735D01*
X3214776Y-12514529D01*
X3209544Y-12519050D01*
X3206038Y-12521793D01*
X3201670Y-12522809D01*
X3197352Y-12521793D01*
X3188614Y-12514529D01*
X3184702Y-12511735D01*
X3182874Y-12508585D01*
X3182213Y-12505029D01*
X3182213Y-12418263D01*
X3183077Y-12413894D01*
X3183686Y-12407493D01*
X3183686Y-12318492D01*
X3183077Y-12312040D01*
X3181299Y-12306300D01*
X3178505Y-12301067D01*
X3174695Y-12296444D01*
X3170123Y-12292634D01*
X3166211Y-12289840D01*
X3164382Y-12286742D01*
X3163722Y-12283135D01*
X3163722Y-12251994D01*
X3164687Y-12247626D01*
X3167430Y-12244120D01*
X3171342Y-12240920D01*
X3175152Y-12236297D01*
X3177946Y-12231014D01*
X3179673Y-12225324D01*
X3180334Y-12218873D01*
X3180334Y-12139879D01*
X3179673Y-12133427D01*
X3177946Y-12127687D01*
X3175152Y-12122454D01*
X3170631Y-12117222D01*
X3167888Y-12113717D01*
X3166872Y-12109399D01*
X3167888Y-12105030D01*
X3175152Y-12096292D01*
X3177946Y-12091060D01*
X3179673Y-12085320D01*
X3180334Y-12078868D01*
X3180334Y-11999874D01*
X3179673Y-11993422D01*
X3177946Y-11987733D01*
X3175152Y-11982450D01*
X3171342Y-11977827D01*
X3166719Y-11974068D01*
X3162452Y-11971782D01*
X3159607Y-11969546D01*
X3157778Y-11966397D01*
X3157118Y-11962841D01*
X3157118Y-11938812D01*
X3158032Y-11934596D01*
X3160572Y-11931142D01*
X3170123Y-11926112D01*
X3174695Y-11922302D01*
X3178505Y-11917680D01*
X3181299Y-11912447D01*
X3183077Y-11906707D01*
X3183686Y-11900255D01*
X3183686Y-11872823D01*
X3184448Y-11868962D01*
X3186684Y-11865660D01*
X3189986Y-11863476D01*
X3193846Y-11862663D01*
X3230321Y-11862663D01*
X3233978Y-11863374D01*
X3237128Y-11865254D01*
X3239363Y-11868200D01*
X3242157Y-11877446D01*
X3245205Y-11883085D01*
X3246120Y-11885422D01*
X3246424Y-11887911D01*
X3246424Y-12100407D01*
X3246628Y-12103303D01*
X3246628Y-12325553D01*
X3247237Y-12332004D01*
X3249015Y-12337745D01*
X3251809Y-12342977D01*
X3255619Y-12347600D01*
X3260191Y-12351410D01*
X3265474Y-12354204D01*
X3271215Y-12355931D01*
X3277615Y-12356592D01*
X3396640Y-12356592D01*
X3403092Y-12355931D01*
X3408781Y-12354204D01*
X3414064Y-12351410D01*
X3418687Y-12347600D01*
X3422446Y-12342977D01*
X3425291Y-12337745D01*
X3427018Y-12332004D01*
X3427628Y-12325553D01*
X3427628Y-11956592D01*
X3427018Y-11950141D01*
X3425291Y-11944400D01*
X3422446Y-11939168D01*
X3418687Y-11934545D01*
X3414064Y-11930735D01*
X3408781Y-11927941D01*
X3403092Y-11926214D01*
X3396640Y-11925554D01*
X3357575Y-11925554D01*
X3353714Y-11924792D01*
X3350412Y-11922607D01*
X3348177Y-11919305D01*
X3347415Y-11915394D01*
X3347415Y-11905691D01*
X3348278Y-11901576D01*
X3350768Y-11898122D01*
X3354374Y-11896039D01*
X3358591Y-11895582D01*
X3365804Y-11896293D01*
X3418027Y-11896293D01*
X3424478Y-11895632D01*
X3428949Y-11894820D01*
X3432200Y-11895480D01*
X3435096Y-11897156D01*
X3437839Y-11899392D01*
X3444849Y-11903151D01*
X3452418Y-11905437D01*
X3460800Y-11906250D01*
X3513023Y-11906250D01*
X3521405Y-11905437D01*
X3529025Y-11903151D01*
X3535984Y-11899392D01*
X3542131Y-11894362D01*
X3547160Y-11888266D01*
X3553155Y-11876989D01*
X3556660Y-11874398D01*
X3560876Y-11873534D01*
X3624935Y-11874195D01*
X3628440Y-11874855D01*
X3631539Y-11876735D01*
X3633774Y-11879580D01*
X3637737Y-11886996D01*
X3642766Y-11893143D01*
X3644646Y-11894667D01*
X3647389Y-11898223D01*
X3648405Y-11902541D01*
X3648405Y-11905386D01*
X3647592Y-11909298D01*
X3645408Y-11912600D01*
X3642106Y-11914784D01*
X3638245Y-11915546D01*
X3577336Y-11915546D01*
X3568954Y-11916410D01*
X3561384Y-11918696D01*
X3554374Y-11922455D01*
X3548227Y-11927484D01*
X3543198Y-11933580D01*
X3539490Y-11940590D01*
X3537153Y-11948160D01*
X3536340Y-11956592D01*
X3536340Y-12325553D01*
X3537153Y-12333986D01*
X3539490Y-12341555D01*
X3543198Y-12348565D01*
X3548227Y-12354661D01*
X3554374Y-12359690D01*
X3561384Y-12363450D01*
X3568954Y-12365736D01*
X3577336Y-12366599D01*
X3696360Y-12366599D01*
X3704742Y-12365736D01*
X3712311Y-12363450D01*
X3719322Y-12359690D01*
X3725468Y-12354661D01*
X3730498Y-12348565D01*
X3734257Y-12341555D01*
X3736543Y-12333986D01*
X3737356Y-12325553D01*
X3737356Y-12130328D01*
X3738118Y-12126468D01*
X3740353Y-12123166D01*
X3751478Y-12112040D01*
X3758031Y-12104370D01*
X3762197Y-12097664D01*
X3763162Y-12095784D01*
X3766820Y-12086488D01*
X3768902Y-12076734D01*
X3769410Y-12068708D01*
X3769410Y-11902541D01*
X3770376Y-11898223D01*
X3773119Y-11894667D01*
X3774998Y-11893143D01*
X3780028Y-11886996D01*
X3783787Y-11880037D01*
X3786073Y-11872417D01*
X3786886Y-11864035D01*
X3786886Y-11765026D01*
X3786073Y-11756644D01*
X3783787Y-11749074D01*
X3780028Y-11742064D01*
X3774998Y-11735917D01*
X3768851Y-11730888D01*
X3761892Y-11727180D01*
X3754272Y-11724843D01*
X3745890Y-11724030D01*
X3671874Y-11724030D01*
X3663492Y-11724843D01*
X3655923Y-11727180D01*
X3648913Y-11730888D01*
X3642766Y-11735917D01*
X3637737Y-11742064D01*
X3634689Y-11747804D01*
X3632403Y-11750700D01*
X3629202Y-11752580D01*
X3625596Y-11753189D01*
X3561181Y-11752529D01*
X3557015Y-11751614D01*
X3553612Y-11749024D01*
X3551580Y-11745315D01*
X3550920Y-11743080D01*
X3547160Y-11736070D01*
X3542131Y-11729974D01*
X3535984Y-11724944D01*
X3529025Y-11721185D01*
X3521405Y-11718899D01*
X3513023Y-11718036D01*
X3460800Y-11718036D01*
X3452418Y-11718899D01*
X3444849Y-11721185D01*
X3437839Y-11724944D01*
X3435096Y-11727180D01*
X3432200Y-11728856D01*
X3428949Y-11729516D01*
X3424478Y-11728704D01*
X3418027Y-11728043D01*
X3365804Y-11728043D01*
X3359353Y-11728704D01*
X3353663Y-11730431D01*
X3349193Y-11732818D01*
X3346094Y-11733885D01*
X3342741Y-11733885D01*
X3339642Y-11732818D01*
X3335172Y-11730431D01*
X3329432Y-11728704D01*
X3323031Y-11728043D01*
X3270808Y-11728043D01*
X3264357Y-11728704D01*
X3258667Y-11730431D01*
X3253384Y-11733225D01*
X3248761Y-11737035D01*
X3245002Y-11741658D01*
X3242157Y-11746890D01*
X3239363Y-11756136D01*
X3237128Y-11759082D01*
X3233978Y-11761012D01*
X3230321Y-11761673D01*
X3157016Y-11761673D01*
X3152394Y-11761876D01*
X3148025Y-11762435D01*
X3143758Y-11763400D01*
X3139541Y-11764721D01*
X3135477Y-11766397D01*
X3131566Y-11768429D01*
X3127857Y-11770817D01*
X3124403Y-11773458D01*
X3119983Y-11777573D01*
X3116783Y-11779554D01*
X3113074Y-11780266D01*
X3073704Y-11780266D01*
X3067253Y-11780926D01*
X3061512Y-11782653D01*
X3056280Y-11785447D01*
X3051048Y-11789968D01*
X3047542Y-11792712D01*
X3043174Y-11793677D01*
X3038856Y-11792712D01*
X3030118Y-11785447D01*
X3024835Y-11782653D01*
X3019145Y-11780926D01*
X3012694Y-11780266D01*
X2999536Y-11780266D01*
X2999536Y-11826951D01*
X3032506Y-11826951D01*
X3036417Y-11827713D01*
X3039719Y-11829897D01*
X3041904Y-11833199D01*
X3042666Y-11837111D01*
X3042666Y-11874449D01*
X3041904Y-11878360D01*
X3039719Y-11881662D01*
X3036417Y-11883847D01*
X3032506Y-11884609D01*
X2999536Y-11884609D01*
X2999536Y-11931294D01*
X3012694Y-11931294D01*
X3019145Y-11930634D01*
X3024835Y-11928906D01*
X3030118Y-11926112D01*
X3038602Y-11918950D01*
X3042716Y-11917883D01*
X3046831Y-11918543D01*
X3050387Y-11920829D01*
X3053130Y-11923572D01*
X3055315Y-11926874D01*
X3056077Y-11930786D01*
X3056077Y-11962841D01*
X3055416Y-11966397D01*
X3053588Y-11969546D01*
X3050743Y-11971782D01*
X3046476Y-11974068D01*
X3041853Y-11977827D01*
X3038094Y-11982450D01*
X3035249Y-11987733D01*
X3033522Y-11993422D01*
X3032912Y-11999874D01*
X3032912Y-12078868D01*
X3033522Y-12085320D01*
X3035249Y-12091060D01*
X3038094Y-12096292D01*
X3045206Y-12104827D01*
X3046323Y-12108891D01*
X3045612Y-12113056D01*
X3043326Y-12116562D01*
X3040583Y-12119305D01*
X3037484Y-12121438D01*
X3033826Y-12122251D01*
X3030118Y-12121743D01*
X3026867Y-12119864D01*
X3021533Y-12115342D01*
X3012033Y-12109551D01*
X3001721Y-12105284D01*
X2990900Y-12102693D01*
X2979775Y-12101779D01*
X2968701Y-12102693D01*
X2957880Y-12105284D01*
X2947568Y-12109551D01*
X2938068Y-12115342D01*
X2929636Y-12122607D01*
X2922371Y-12131040D01*
X2916580Y-12140539D01*
X2912313Y-12150852D01*
X2909722Y-12161672D01*
X2908808Y-12172797D01*
X2909722Y-12183872D01*
X2912313Y-12194692D01*
X2916580Y-12205004D01*
X2922371Y-12214504D01*
X2929636Y-12222937D01*
X2938068Y-12230201D01*
X2947568Y-12235992D01*
X2957880Y-12240260D01*
X2968701Y-12242850D01*
X2979775Y-12243765D01*
X2990900Y-12242850D01*
X3001721Y-12240260D01*
X3012033Y-12235992D01*
X3022193Y-12229795D01*
X3025952Y-12228372D01*
X3029966Y-12228576D01*
X3033572Y-12230303D01*
X3036265Y-12233249D01*
X3037941Y-12236094D01*
X3041853Y-12240920D01*
X3046476Y-12244679D01*
X3051759Y-12247524D01*
X3055467Y-12248642D01*
X3059226Y-12250724D01*
X3061766Y-12254179D01*
X3062681Y-12258344D01*
X3062681Y-12283135D01*
X3062020Y-12286691D01*
X3060192Y-12289840D01*
X3056280Y-12292634D01*
X3051048Y-12297156D01*
X3047542Y-12299899D01*
X3043174Y-12300864D01*
X3038856Y-12299899D01*
X3030118Y-12292634D01*
X3024835Y-12289840D01*
X3019145Y-12288113D01*
X3012694Y-12287453D01*
X2999536Y-12287453D01*
X2999536Y-12334138D01*
X3032506Y-12334138D01*
X3036417Y-12334900D01*
X3039719Y-12337084D01*
X3041904Y-12340386D01*
X3042666Y-12344298D01*
X3042666Y-12381687D01*
X3041904Y-12385548D01*
X3039719Y-12388850D01*
X3036417Y-12391034D01*
X3032506Y-12391847D01*
X2999536Y-12391847D01*
X2999536Y-12438481D01*
X3012694Y-12438481D01*
X3019145Y-12437821D01*
X3024835Y-12436094D01*
X3030118Y-12433300D01*
X3035350Y-12428778D01*
X3038856Y-12426035D01*
X3043174Y-12425070D01*
X3047542Y-12426035D01*
X3056280Y-12433300D01*
X3061512Y-12436094D01*
X3067253Y-12437821D01*
X3072028Y-12438329D01*
X3075584Y-12439345D01*
X3078530Y-12441580D01*
X3080512Y-12444780D01*
X3081172Y-12448438D01*
X3081172Y-12505029D01*
X3080512Y-12508636D01*
X3078683Y-12511735D01*
X3074771Y-12514529D01*
X3070148Y-12518339D01*
X3066389Y-12522962D01*
X3063138Y-12529007D01*
X3060903Y-12531852D01*
X3057753Y-12533731D01*
X3054197Y-12534341D01*
X2652318Y-12534341D01*
X2648458Y-12533579D01*
X2645156Y-12531394D01*
X2562148Y-12448387D01*
X2559913Y-12445085D01*
X2559151Y-12441174D01*
X2559151Y-12403277D01*
X2558542Y-12396876D01*
X2556764Y-12391136D01*
X2553970Y-12385903D01*
X2550160Y-12381280D01*
X2545588Y-12377470D01*
X2540304Y-12374676D01*
X2534564Y-12372949D01*
X2528163Y-12372289D01*
X2448509Y-12372289D01*
X2442057Y-12372949D01*
X2436368Y-12374676D01*
X2431084Y-12377470D01*
X2426462Y-12381280D01*
X2422652Y-12385903D01*
X2421940Y-12387224D01*
X2419146Y-12390526D01*
X2415184Y-12392355D01*
X2410815Y-12392355D01*
X2406853Y-12390526D01*
X2404059Y-12387224D01*
X2403348Y-12385903D01*
X2399538Y-12381280D01*
X2394915Y-12377470D01*
X2389632Y-12374676D01*
X2383942Y-12372949D01*
X2377490Y-12372289D01*
X2326132Y-12372289D01*
X2322271Y-12371527D01*
X2318969Y-12369342D01*
X2220569Y-12270943D01*
X2214016Y-12265507D01*
X2206904Y-12261748D01*
X2199233Y-12259411D01*
X2190750Y-12258548D01*
X2184298Y-12258548D01*
X2180132Y-12257684D01*
X2176678Y-12255093D01*
X2174595Y-12251385D01*
X2172563Y-12244730D01*
X2169769Y-12239447D01*
X2165959Y-12234824D01*
X2161387Y-12231065D01*
X2158034Y-12229287D01*
X2154732Y-12226442D01*
X2152904Y-12222480D01*
X2152904Y-12218162D01*
X2154732Y-12214199D01*
X2158034Y-12211354D01*
X2161387Y-12209576D01*
X2165959Y-12205817D01*
X2169769Y-12201194D01*
X2172563Y-12195911D01*
X2174595Y-12189307D01*
X2176678Y-12185548D01*
X2180132Y-12183008D01*
X2184298Y-12182094D01*
X2190292Y-12182094D01*
X2194458Y-12183008D01*
X2197912Y-12185548D01*
X2199995Y-12189307D01*
X2202027Y-12195911D01*
X2204821Y-12201194D01*
X2208631Y-12205817D01*
X2213203Y-12209576D01*
X2218486Y-12212421D01*
X2224227Y-12214148D01*
X2230628Y-12214758D01*
X2310282Y-12214758D01*
X2316734Y-12214148D01*
X2322474Y-12212421D01*
X2327706Y-12209576D01*
X2332329Y-12205817D01*
X2336139Y-12201194D01*
X2336850Y-12199874D01*
X2339644Y-12196521D01*
X2343607Y-12194743D01*
X2347976Y-12194743D01*
X2351938Y-12196521D01*
X2354732Y-12199874D01*
X2355494Y-12201194D01*
X2359253Y-12205817D01*
X2363876Y-12209576D01*
X2369159Y-12212421D01*
X2374849Y-12214148D01*
X2381300Y-12214758D01*
X2460955Y-12214758D01*
X2467406Y-12214148D01*
X2473096Y-12212421D01*
X2478379Y-12209576D01*
X2483002Y-12205817D01*
X2486761Y-12201194D01*
X2489555Y-12195911D01*
X2491333Y-12190222D01*
X2491943Y-12183770D01*
X2491943Y-12098375D01*
X2491333Y-12091924D01*
X2489555Y-12086234D01*
X2486761Y-12080951D01*
X2483002Y-12076328D01*
X2478379Y-12072569D01*
X2473096Y-12069724D01*
X2469337Y-12068606D01*
X2465578Y-12066524D01*
X2463038Y-12063069D01*
X2462123Y-12058853D01*
X2462123Y-11709501D01*
X2461310Y-11701018D01*
X2458974Y-11693347D01*
X2455164Y-11686235D01*
X2449068Y-11678970D01*
X2446985Y-11675872D01*
X2446121Y-11672214D01*
X2446629Y-11668506D01*
X2449068Y-11661495D01*
X2451760Y-11647779D01*
X2452674Y-11633860D01*
X2451760Y-11619941D01*
X2449068Y-11606276D01*
X2444546Y-11593068D01*
X2438400Y-11580520D01*
X2430627Y-11568938D01*
X2421432Y-11558422D01*
X2410917Y-11549227D01*
X2399334Y-11541506D01*
X2386838Y-11535308D01*
X2373630Y-11530838D01*
X2359914Y-11528094D01*
X2345994Y-11527180D01*
X2332075Y-11528094D01*
X2318359Y-11530838D01*
X2311349Y-11533225D01*
X2307640Y-11533733D01*
X2303983Y-11532920D01*
X2300884Y-11530787D01*
X2195068Y-11424970D01*
X2192985Y-11421872D01*
X2192121Y-11418214D01*
X2192629Y-11414506D01*
X2195068Y-11407495D01*
X2197760Y-11393779D01*
X2198674Y-11379860D01*
X2197760Y-11365941D01*
X2195068Y-11352276D01*
X2190546Y-11339068D01*
X2184400Y-11326520D01*
X2176627Y-11314938D01*
X2167432Y-11304422D01*
X2156917Y-11295227D01*
X2145334Y-11287506D01*
X2132838Y-11281308D01*
X2119630Y-11276838D01*
X2105914Y-11274094D01*
X2091994Y-11273180D01*
X2087219Y-11273485D01*
X2083155Y-11272926D01*
X2079599Y-11270792D01*
X2077262Y-11267389D01*
X2076399Y-11263376D01*
X2076399Y-11210594D01*
X2077313Y-11206378D01*
X2079853Y-11202924D01*
X2083612Y-11200841D01*
X2087016Y-11199825D01*
X2092299Y-11196980D01*
X2096922Y-11193221D01*
X2100732Y-11188598D01*
X2103526Y-11183315D01*
X2105101Y-11178082D01*
X2107184Y-11174374D01*
X2110638Y-11171783D01*
X2114854Y-11170920D01*
X2148535Y-11170920D01*
X2152192Y-11171580D01*
X2155342Y-11173510D01*
X2157628Y-11176508D01*
X2158644Y-11180064D01*
X2159203Y-11185804D01*
X2160930Y-11191544D01*
X2163775Y-11196777D01*
X2167534Y-11201400D01*
X2172157Y-11205210D01*
X2177440Y-11208004D01*
X2183130Y-11209731D01*
X2189581Y-11210391D01*
X2248611Y-11210391D01*
X2255012Y-11209731D01*
X2260752Y-11208004D01*
X2265984Y-11205210D01*
X2270607Y-11201400D01*
X2274417Y-11196777D01*
X2277211Y-11191544D01*
X2278938Y-11185804D01*
X2279599Y-11179403D01*
X2279599Y-11080394D01*
X2278938Y-11073942D01*
X2277211Y-11068202D01*
X2274417Y-11062970D01*
X2270607Y-11058347D01*
X2265984Y-11054537D01*
X2260752Y-11051743D01*
X2255012Y-11050016D01*
X2248611Y-11049355D01*
X2189581Y-11049355D01*
X2183130Y-11050016D01*
X2177440Y-11051743D01*
X2172157Y-11054537D01*
X2167534Y-11058347D01*
X2163775Y-11062970D01*
X2160930Y-11068202D01*
X2159203Y-11073942D01*
X2158644Y-11079734D01*
X2157628Y-11083290D01*
X2155342Y-11086236D01*
X2152192Y-11088217D01*
X2148535Y-11088878D01*
X2115769Y-11088878D01*
X2112111Y-11088217D01*
X2108962Y-11086236D01*
X2106676Y-11083290D01*
X2105660Y-11079734D01*
X2105253Y-11075720D01*
X2103526Y-11070031D01*
X2100732Y-11064748D01*
X2096922Y-11060125D01*
X2092299Y-11056366D01*
X2087016Y-11053521D01*
X2081326Y-11051794D01*
X2074875Y-11051184D01*
X1995881Y-11051184D01*
X1989429Y-11051794D01*
X1983739Y-11053521D01*
X1978456Y-11056366D01*
X1973275Y-11060887D01*
X1969719Y-11063630D01*
X1965401Y-11064595D01*
X1961032Y-11063630D01*
X1952345Y-11056366D01*
X1947062Y-11053521D01*
X1941372Y-11051794D01*
X1934921Y-11051184D01*
X1921764Y-11051184D01*
X1921764Y-11097818D01*
X1954733Y-11097818D01*
X1958593Y-11098580D01*
X1961896Y-11100816D01*
X1964131Y-11104118D01*
X1964893Y-11107978D01*
X1964893Y-11145367D01*
X1964131Y-11149279D01*
X1961896Y-11152530D01*
X1958593Y-11154765D01*
X1954733Y-11155527D01*
X1921764Y-11155527D01*
X1921764Y-11202162D01*
X1934921Y-11202162D01*
X1941372Y-11201552D01*
X1947062Y-11199825D01*
X1952345Y-11196980D01*
X1957527Y-11192459D01*
X1961032Y-11189766D01*
X1965401Y-11188750D01*
X1969719Y-11189766D01*
X1978456Y-11196980D01*
X1983739Y-11199825D01*
X1987194Y-11200841D01*
X1990953Y-11202924D01*
X1993493Y-11206378D01*
X1994407Y-11210594D01*
X1994407Y-11322761D01*
X1995271Y-11331854D01*
X1995170Y-11334648D01*
X1993442Y-11339068D01*
X1988921Y-11352276D01*
X1986229Y-11365941D01*
X1985314Y-11379860D01*
X1986229Y-11393779D01*
X1988921Y-11407495D01*
X1993442Y-11420703D01*
X1999589Y-11433200D01*
X2007362Y-11444833D01*
X2016556Y-11455298D01*
X2027072Y-11464493D01*
X2038654Y-11472265D01*
X2051151Y-11478463D01*
X2064359Y-11482933D01*
X2078075Y-11485626D01*
X2091994Y-11486540D01*
X2105914Y-11485626D01*
X2119630Y-11482933D01*
X2126640Y-11480546D01*
X2130348Y-11479987D01*
X2134006Y-11480850D01*
X2137105Y-11482984D01*
X2242921Y-11588750D01*
X2245004Y-11591848D01*
X2245868Y-11595506D01*
X2245360Y-11599214D01*
X2242921Y-11606276D01*
X2240229Y-11619941D01*
X2239314Y-11633860D01*
X2240229Y-11647779D01*
X2242921Y-11661495D01*
X2247442Y-11674703D01*
X2253589Y-11687200D01*
X2261362Y-11698833D01*
X2270556Y-11709298D01*
X2281072Y-11718493D01*
X2292654Y-11726265D01*
X2305151Y-11732463D01*
X2318359Y-11736933D01*
X2332075Y-11739626D01*
X2345994Y-11740540D01*
X2359914Y-11739626D01*
X2367991Y-11738051D01*
X2372410Y-11738152D01*
X2376424Y-11740134D01*
X2379167Y-11743639D01*
X2380132Y-11748008D01*
X2380132Y-12058853D01*
X2379218Y-12063069D01*
X2376678Y-12066524D01*
X2372918Y-12068606D01*
X2369159Y-12069724D01*
X2363876Y-12072569D01*
X2359253Y-12076328D01*
X2355494Y-12080951D01*
X2354732Y-12082272D01*
X2351938Y-12085624D01*
X2347976Y-12087453D01*
X2343607Y-12087453D01*
X2339644Y-12085624D01*
X2336850Y-12082272D01*
X2336139Y-12080951D01*
X2332329Y-12076328D01*
X2327706Y-12072569D01*
X2322474Y-12069724D01*
X2316734Y-12067997D01*
X2310282Y-12067387D01*
X2230628Y-12067387D01*
X2224227Y-12067997D01*
X2218486Y-12069724D01*
X2213203Y-12072569D01*
X2208631Y-12076328D01*
X2204821Y-12080951D01*
X2202027Y-12086234D01*
X2199995Y-12092838D01*
X2197912Y-12096597D01*
X2194458Y-12099188D01*
X2190292Y-12100052D01*
X2184298Y-12100052D01*
X2180132Y-12099188D01*
X2176678Y-12096597D01*
X2174595Y-12092838D01*
X2172563Y-12086234D01*
X2169769Y-12080951D01*
X2165959Y-12076328D01*
X2161387Y-12072569D01*
X2156104Y-12069724D01*
X2150364Y-12067997D01*
X2143963Y-12067387D01*
X2064308Y-12067387D01*
X2057857Y-12067997D01*
X2052116Y-12069724D01*
X2046884Y-12072569D01*
X2042261Y-12076328D01*
X2038451Y-12080951D01*
X2037740Y-12082272D01*
X2034946Y-12085624D01*
X2030984Y-12087453D01*
X2026615Y-12087453D01*
X2022652Y-12085624D01*
X2019858Y-12082272D01*
X2019096Y-12080951D01*
X2015337Y-12076328D01*
X2010714Y-12072569D01*
X2005431Y-12069724D01*
X1999742Y-12067997D01*
X1993290Y-12067387D01*
X1913636Y-12067387D01*
X1907184Y-12067997D01*
X1901494Y-12069724D01*
X1896211Y-12072569D01*
X1891588Y-12076328D01*
X1887829Y-12080951D01*
X1884984Y-12086234D01*
X1883257Y-12091924D01*
X1882648Y-12098375D01*
X1882648Y-12183770D01*
X1883257Y-12190222D01*
X1884984Y-12195911D01*
X1887829Y-12201194D01*
X1891588Y-12205817D01*
X1896211Y-12209576D01*
X1899513Y-12211354D01*
X1902866Y-12214199D01*
X1904644Y-12218162D01*
X1904644Y-12222480D01*
X1902866Y-12226442D01*
X1899513Y-12229287D01*
X1896211Y-12231065D01*
X1891588Y-12234824D01*
X1887829Y-12239447D01*
X1884984Y-12244730D01*
X1883257Y-12250420D01*
X1882648Y-12256871D01*
X1882648Y-12342266D01*
X1883257Y-12348718D01*
X1884984Y-12354407D01*
X1887829Y-12359690D01*
X1892300Y-12364872D01*
X1895043Y-12368377D01*
X1896008Y-12372695D01*
X1896008Y-12387529D01*
X1895246Y-12391390D01*
X1893011Y-12394692D01*
X1889709Y-12396876D01*
X1885848Y-12397689D01*
X1877568Y-12398298D01*
X1871878Y-12400026D01*
X1866595Y-12402870D01*
X1861972Y-12406630D01*
X1858213Y-12411252D01*
X1855368Y-12416536D01*
X1853641Y-12422225D01*
X1853031Y-12428677D01*
X1853031Y-12487656D01*
X1853641Y-12494107D01*
X1855368Y-12499848D01*
X1858213Y-12505080D01*
X1861972Y-12509703D01*
X1866595Y-12513513D01*
X1871878Y-12516307D01*
X1877568Y-12518034D01*
X1884019Y-12518694D01*
X1990039Y-12518694D01*
X1996439Y-12518034D01*
X2002180Y-12516307D01*
X2007412Y-12513513D01*
X2012035Y-12509703D01*
X2015845Y-12505080D01*
X2018639Y-12499848D01*
X2020366Y-12494107D01*
X2021027Y-12487656D01*
X2021027Y-12428677D01*
X2020366Y-12422225D01*
X2018639Y-12416536D01*
X2015845Y-12411252D01*
X2012035Y-12406630D01*
X2007412Y-12402870D01*
X2002180Y-12400026D01*
X1996439Y-12398298D01*
X1988159Y-12397689D01*
X1984298Y-12396876D01*
X1980996Y-12394692D01*
X1978761Y-12391390D01*
X1977999Y-12387529D01*
X1977999Y-12383465D01*
X1978761Y-12379553D01*
X1980996Y-12376251D01*
X1984298Y-12374067D01*
X1988159Y-12373305D01*
X1993290Y-12373305D01*
X1999742Y-12372644D01*
X2005431Y-12370917D01*
X2010714Y-12368123D01*
X2015337Y-12364313D01*
X2019096Y-12359690D01*
X2019858Y-12358370D01*
X2022652Y-12355068D01*
X2026615Y-12353239D01*
X2030984Y-12353239D01*
X2034946Y-12355068D01*
X2037740Y-12358370D01*
X2038451Y-12359690D01*
X2042261Y-12364313D01*
X2046884Y-12368123D01*
X2052116Y-12370917D01*
X2057857Y-12372644D01*
X2064308Y-12373305D01*
X2143963Y-12373305D01*
X2150364Y-12372644D01*
X2156104Y-12370917D01*
X2161387Y-12368123D01*
X2165959Y-12364313D01*
X2169769Y-12359690D01*
X2171547Y-12356388D01*
X2173884Y-12353442D01*
X2177186Y-12351562D01*
X2180894Y-12351054D01*
X2184552Y-12351867D01*
X2187651Y-12354001D01*
X2263851Y-12430201D01*
X2266086Y-12433503D01*
X2266848Y-12437364D01*
X2266848Y-12487554D01*
X2265984Y-12491618D01*
X2263597Y-12494971D01*
X2260041Y-12497155D01*
X2255875Y-12497663D01*
X2251913Y-12496495D01*
X2249170Y-12495022D01*
X2243480Y-12493294D01*
X2237028Y-12492685D01*
X2131009Y-12492685D01*
X2124557Y-12493294D01*
X2118868Y-12495022D01*
X2113584Y-12497866D01*
X2108962Y-12501626D01*
X2105202Y-12506248D01*
X2102358Y-12511532D01*
X2100630Y-12517221D01*
X2100021Y-12523673D01*
X2100021Y-12582652D01*
X2100630Y-12589103D01*
X2102358Y-12594844D01*
X2105202Y-12600076D01*
X2108962Y-12604699D01*
X2113584Y-12608509D01*
X2118868Y-12611303D01*
X2124557Y-12613030D01*
X2131009Y-12613690D01*
X2237028Y-12613690D01*
X2243480Y-12613030D01*
X2249170Y-12611303D01*
X2254453Y-12608509D01*
X2259025Y-12604699D01*
X2262835Y-12600076D01*
X2265629Y-12594844D01*
X2267407Y-12589103D01*
X2268016Y-12582652D01*
X2268016Y-12524841D01*
X2268880Y-12520777D01*
X2271268Y-12517374D01*
X2274874Y-12515240D01*
X2278989Y-12514732D01*
X2282952Y-12515900D01*
X2285695Y-12517323D01*
X2291435Y-12519050D01*
X2297836Y-12519710D01*
X2377490Y-12519710D01*
X2383942Y-12519050D01*
X2389632Y-12517323D01*
X2394915Y-12514529D01*
X2399538Y-12510719D01*
X2403348Y-12506096D01*
X2404059Y-12504775D01*
X2406853Y-12501473D01*
X2410815Y-12499644D01*
X2415184Y-12499644D01*
X2419146Y-12501473D01*
X2421940Y-12504775D01*
X2422652Y-12506096D01*
X2426462Y-12510719D01*
X2431084Y-12514529D01*
X2436368Y-12517323D01*
X2442057Y-12519050D01*
X2448509Y-12519710D01*
X2486406Y-12519710D01*
X2490317Y-12520472D01*
X2493568Y-12522657D01*
X2591308Y-12620396D01*
X2594762Y-12623546D01*
X2598216Y-12626238D01*
X2601976Y-12628575D01*
X2605836Y-12630607D01*
X2609951Y-12632334D01*
X2614117Y-12633655D01*
X2618435Y-12634569D01*
X2622804Y-12635179D01*
X2627426Y-12635382D01*
X3054197Y-12635382D01*
X3057753Y-12636042D01*
X3060903Y-12637871D01*
X3063138Y-12640716D01*
X3066389Y-12646812D01*
X3070148Y-12651435D01*
X3075533Y-12655854D01*
X3078276Y-12659360D01*
X3079292Y-12664541D01*
X3078276Y-12668910D01*
X3075533Y-12672415D01*
X3070148Y-12676835D01*
X3066389Y-12681458D01*
X3063544Y-12686741D01*
X3061817Y-12692430D01*
X3061208Y-12698882D01*
X3061208Y-12787884D01*
X3061817Y-12794335D01*
X3063544Y-12800025D01*
X3066389Y-12805308D01*
X3070148Y-12809931D01*
X3074771Y-12813690D01*
X3078683Y-12816535D01*
X3080512Y-12819634D01*
X3081172Y-12823190D01*
X3081172Y-12854381D01*
X3080207Y-12858699D01*
X3077464Y-12862204D01*
X3073552Y-12865455D01*
X3069742Y-12870078D01*
X3066948Y-12875260D01*
X3064916Y-12882372D01*
X3062833Y-12886131D01*
X3059379Y-12888772D01*
X3055162Y-12889687D01*
X3027934Y-12889687D01*
X3024378Y-12889026D01*
X3021228Y-12887147D01*
X3018434Y-12883235D01*
X3013913Y-12878054D01*
X3011170Y-12874498D01*
X3010204Y-12870180D01*
X3011170Y-12865811D01*
X3018434Y-12857124D01*
X3021228Y-12851841D01*
X3022955Y-12846151D01*
X3023616Y-12839700D01*
X3023616Y-12826542D01*
X2976930Y-12826542D01*
X2976930Y-12859512D01*
X2976168Y-12863372D01*
X2973984Y-12866674D01*
X2970682Y-12868910D01*
X2966770Y-12869672D01*
X2929382Y-12869672D01*
X2925521Y-12868910D01*
X2922219Y-12866674D01*
X2920034Y-12863372D01*
X2919222Y-12859512D01*
X2919222Y-12826542D01*
X2872587Y-12826542D01*
X2872587Y-12839700D01*
X2873248Y-12846151D01*
X2874975Y-12851841D01*
X2877769Y-12857124D01*
X2882290Y-12862306D01*
X2885033Y-12865811D01*
X2885998Y-12870180D01*
X2885033Y-12874498D01*
X2877769Y-12883235D01*
X2874975Y-12888518D01*
X2873248Y-12894208D01*
X2872587Y-12900660D01*
X2872587Y-12979654D01*
X2873248Y-12986105D01*
X2874975Y-12991795D01*
X2877769Y-12997078D01*
X2881579Y-13001701D01*
X2886151Y-13005511D01*
X2891434Y-13008305D01*
X2897174Y-13010032D01*
X2903575Y-13010692D01*
X2992577Y-13010692D01*
X2999028Y-13010032D01*
X3004769Y-13008305D01*
X3010001Y-13005511D01*
X3014624Y-13001701D01*
X3018434Y-12997078D01*
X3021228Y-12993217D01*
X3024327Y-12991338D01*
X3027934Y-12990677D01*
X3064154Y-12990677D01*
X3067913Y-12991388D01*
X3071114Y-12993420D01*
X3073349Y-12996519D01*
X3074314Y-13000177D01*
X3073857Y-13003936D01*
X3072028Y-13007289D01*
X3069742Y-13010032D01*
X3066948Y-13015315D01*
X3065221Y-13021005D01*
X3064560Y-13027456D01*
X3064560Y-13106450D01*
X3065221Y-13112902D01*
X3066948Y-13118642D01*
X3069742Y-13123875D01*
X3073552Y-13128498D01*
X3078175Y-13132307D01*
X3083407Y-13135101D01*
X3087166Y-13136219D01*
X3090926Y-13138302D01*
X3093466Y-13141756D01*
X3094380Y-13145973D01*
X3094380Y-13170712D01*
X3093720Y-13174319D01*
X3091891Y-13177418D01*
X3087979Y-13180263D01*
X3082747Y-13184784D01*
X3079242Y-13187527D01*
X3074873Y-13188492D01*
X3070555Y-13187527D01*
X3061817Y-13180263D01*
X3056534Y-13177418D01*
X3050844Y-13175691D01*
X3044393Y-13175081D01*
X3031236Y-13175081D01*
X3031236Y-13221716D01*
X3064205Y-13221716D01*
X3068116Y-13222478D01*
X3071418Y-13224713D01*
X3073603Y-13228015D01*
X3074365Y-13231876D01*
X3074365Y-13269264D01*
X3073603Y-13273176D01*
X3071418Y-13276427D01*
X3068116Y-13278662D01*
X3064205Y-13279424D01*
X3031236Y-13279424D01*
X3031236Y-13326059D01*
X3044393Y-13326059D01*
X3050844Y-13325449D01*
X3056534Y-13323722D01*
X3061817Y-13320877D01*
X3070301Y-13313765D01*
X3074314Y-13312698D01*
X3078429Y-13313308D01*
X3081985Y-13315543D01*
X3085287Y-13318744D01*
X3087573Y-13322096D01*
X3088386Y-13326059D01*
X3088386Y-13489533D01*
X3087725Y-13493038D01*
X3085896Y-13496137D01*
X3083102Y-13498423D01*
X3077006Y-13501776D01*
X3065272Y-13510310D01*
X3054705Y-13520216D01*
X3045460Y-13531392D01*
X3037687Y-13543635D01*
X3031540Y-13556742D01*
X3027019Y-13570559D01*
X3024327Y-13584783D01*
X3023412Y-13599261D01*
X3024327Y-13613739D01*
X3027019Y-13628014D01*
X3031540Y-13641781D01*
X3037687Y-13654887D01*
X3045460Y-13667130D01*
X3054705Y-13678306D01*
X3065272Y-13688263D01*
X3077006Y-13696797D01*
X3089706Y-13703757D01*
X3103219Y-13709091D01*
X3117240Y-13712698D01*
G37*
G36*
X2679750Y-13703909D02*
G01*
X2692755Y-13696797D01*
X2704490Y-13688263D01*
X2715056Y-13678306D01*
X2724302Y-13667130D01*
X2732074Y-13654887D01*
X2735275Y-13648131D01*
X2679750Y-13648131D01*
G37*
G36*
X2582062Y-13703909D02*
G01*
X2582062Y-13648131D01*
X2526487Y-13648131D01*
X2529687Y-13654887D01*
X2537460Y-13667130D01*
X2546705Y-13678306D01*
X2557272Y-13688263D01*
X2569006Y-13696797D01*
G37*
G36*
X2679750Y-13550442D02*
G01*
X2735275Y-13550442D01*
X2732074Y-13543635D01*
X2724302Y-13531392D01*
X2715056Y-13520216D01*
X2704490Y-13510310D01*
X2692755Y-13501776D01*
X2679750Y-13494664D01*
G37*
G36*
X2526487Y-13550442D02*
G01*
X2582062Y-13550442D01*
X2582062Y-13494664D01*
X2569006Y-13501776D01*
X2557272Y-13510310D01*
X2546705Y-13520216D01*
X2537460Y-13531392D01*
X2529687Y-13543635D01*
G37*
G36*
X1982470Y-13518845D02*
G01*
X2107946Y-13518845D01*
X2097938Y-13501217D01*
X2084324Y-13481151D01*
X2069134Y-13462203D01*
X2052472Y-13444524D01*
X2034438Y-13428218D01*
X2015185Y-13413384D01*
X1994865Y-13400125D01*
X1982470Y-13393419D01*
G37*
G36*
X3407968Y-13518845D02*
G01*
X3533343Y-13518845D01*
X3533343Y-13393267D01*
X3531514Y-13394131D01*
X3510686Y-13406577D01*
X3490823Y-13420598D01*
X3472179Y-13436193D01*
X3454857Y-13453211D01*
X3438906Y-13471499D01*
X3424478Y-13491057D01*
X3411626Y-13511682D01*
G37*
G36*
X3821074Y-13518845D02*
G01*
X3947515Y-13518845D01*
X3944975Y-13516051D01*
X3936593Y-13501217D01*
X3922928Y-13481151D01*
X3907739Y-13462203D01*
X3891076Y-13444524D01*
X3873093Y-13428218D01*
X3853840Y-13413384D01*
X3833469Y-13400125D01*
X3821074Y-13393419D01*
G37*
G36*
X1567637Y-13518845D02*
G01*
X1694738Y-13518845D01*
X1694738Y-13393267D01*
X1692910Y-13394131D01*
X1672031Y-13406577D01*
X1652219Y-13420598D01*
X1633575Y-13436193D01*
X1616252Y-13453211D01*
X1600301Y-13471499D01*
X1585874Y-13491057D01*
X1573022Y-13511682D01*
X1571294Y-13515035D01*
X1568399Y-13518489D01*
G37*
G36*
X2965399Y-13326059D02*
G01*
X2978556Y-13326059D01*
X2978556Y-13279424D01*
X2934411Y-13279424D01*
X2934411Y-13295071D01*
X2935020Y-13301522D01*
X2936748Y-13307212D01*
X2939592Y-13312495D01*
X2943352Y-13317118D01*
X2947974Y-13320877D01*
X2953258Y-13323722D01*
X2958947Y-13325449D01*
G37*
G36*
X2934411Y-13221716D02*
G01*
X2978556Y-13221716D01*
X2978556Y-13175081D01*
X2965399Y-13175081D01*
X2958947Y-13175691D01*
X2953258Y-13177418D01*
X2947974Y-13180263D01*
X2943352Y-13184022D01*
X2939592Y-13188645D01*
X2936748Y-13193928D01*
X2935020Y-13199618D01*
X2934411Y-13206069D01*
G37*
G36*
X3298037Y-12818872D02*
G01*
X3311194Y-12818872D01*
X3317646Y-12818262D01*
X3323336Y-12816535D01*
X3328619Y-12813690D01*
X3333242Y-12809931D01*
X3337001Y-12805308D01*
X3339795Y-12800025D01*
X3341573Y-12794335D01*
X3342182Y-12787884D01*
X3342182Y-12772237D01*
X3298037Y-12772237D01*
G37*
G36*
X2976930Y-12773812D02*
G01*
X3023616Y-12773812D01*
X3023616Y-12760706D01*
X3022955Y-12754254D01*
X3021228Y-12748514D01*
X3018434Y-12743281D01*
X3014624Y-12738658D01*
X3010001Y-12734848D01*
X3004769Y-12732054D01*
X2999028Y-12730327D01*
X2992577Y-12729667D01*
X2976930Y-12729667D01*
G37*
G36*
X2872587Y-12773812D02*
G01*
X2919222Y-12773812D01*
X2919222Y-12729667D01*
X2903575Y-12729667D01*
X2897174Y-12730327D01*
X2891434Y-12732054D01*
X2886151Y-12734848D01*
X2881579Y-12738658D01*
X2877769Y-12743281D01*
X2874975Y-12748514D01*
X2873248Y-12754254D01*
X2872587Y-12760706D01*
G37*
G36*
X2783890Y-12763855D02*
G01*
X2828036Y-12763855D01*
X2828036Y-12750749D01*
X2827426Y-12744297D01*
X2825699Y-12738557D01*
X2822854Y-12733324D01*
X2819095Y-12728702D01*
X2814472Y-12724892D01*
X2809189Y-12722098D01*
X2803499Y-12720370D01*
X2797048Y-12719710D01*
X2783890Y-12719710D01*
G37*
G36*
X2687015Y-12763855D02*
G01*
X2731211Y-12763855D01*
X2731211Y-12719710D01*
X2718054Y-12719710D01*
X2711602Y-12720370D01*
X2705912Y-12722098D01*
X2700629Y-12724892D01*
X2696006Y-12728702D01*
X2692247Y-12733324D01*
X2689402Y-12738557D01*
X2687675Y-12744297D01*
X2687015Y-12750749D01*
G37*
G36*
X3298037Y-12714528D02*
G01*
X3342182Y-12714528D01*
X3342182Y-12698882D01*
X3341573Y-12692430D01*
X3339795Y-12686741D01*
X3337001Y-12681458D01*
X3333242Y-12676835D01*
X3327806Y-12672415D01*
X3325114Y-12668910D01*
X3324098Y-12663678D01*
X3325114Y-12659360D01*
X3327806Y-12655854D01*
X3333242Y-12651435D01*
X3337001Y-12646812D01*
X3339795Y-12641529D01*
X3341573Y-12635839D01*
X3342182Y-12629388D01*
X3342182Y-12613741D01*
X3298037Y-12613741D01*
G37*
G36*
X1884019Y-12708686D02*
G01*
X1903933Y-12708686D01*
X1903933Y-12669520D01*
X1853031Y-12669520D01*
X1853031Y-12677698D01*
X1853641Y-12684099D01*
X1855368Y-12689840D01*
X1858213Y-12695072D01*
X1861972Y-12699695D01*
X1866595Y-12703505D01*
X1871878Y-12706299D01*
X1877568Y-12708026D01*
G37*
G36*
X1970125Y-12708686D02*
G01*
X1990039Y-12708686D01*
X1996439Y-12708026D01*
X2002180Y-12706299D01*
X2007412Y-12703505D01*
X2012035Y-12699695D01*
X2015845Y-12695072D01*
X2018639Y-12689840D01*
X2020366Y-12684099D01*
X2021027Y-12677698D01*
X2021027Y-12669520D01*
X1970125Y-12669520D01*
G37*
G36*
X1970125Y-12626848D02*
G01*
X2021027Y-12626848D01*
X2021027Y-12618669D01*
X2020366Y-12612217D01*
X2018639Y-12606528D01*
X2015845Y-12601244D01*
X2012035Y-12596622D01*
X2007412Y-12592862D01*
X2002180Y-12590018D01*
X1996439Y-12588290D01*
X1990039Y-12587681D01*
X1970125Y-12587681D01*
G37*
G36*
X1853031Y-12626848D02*
G01*
X1903933Y-12626848D01*
X1903933Y-12587681D01*
X1884019Y-12587681D01*
X1877568Y-12588290D01*
X1871878Y-12590018D01*
X1866595Y-12592862D01*
X1861972Y-12596622D01*
X1858213Y-12601244D01*
X1855368Y-12606528D01*
X1853641Y-12612217D01*
X1853031Y-12618669D01*
G37*
G36*
X3298037Y-12556032D02*
G01*
X3342182Y-12556032D01*
X3342182Y-12540386D01*
X3341573Y-12533934D01*
X3339795Y-12528194D01*
X3337001Y-12522962D01*
X3333242Y-12518339D01*
X3328619Y-12514529D01*
X3323336Y-12511735D01*
X3317646Y-12510008D01*
X3311194Y-12509347D01*
X3298037Y-12509347D01*
G37*
G36*
X2933700Y-12438481D02*
G01*
X2946857Y-12438481D01*
X2946857Y-12391847D01*
X2902712Y-12391847D01*
X2902712Y-12407493D01*
X2903321Y-12413894D01*
X2905048Y-12419634D01*
X2907893Y-12424918D01*
X2911652Y-12429490D01*
X2916275Y-12433300D01*
X2921558Y-12436094D01*
X2927248Y-12437821D01*
G37*
G36*
X2902712Y-12334138D02*
G01*
X2946857Y-12334138D01*
X2946857Y-12287453D01*
X2933700Y-12287453D01*
X2927248Y-12288113D01*
X2921558Y-12289840D01*
X2916275Y-12292634D01*
X2911652Y-12296444D01*
X2907893Y-12301067D01*
X2905048Y-12306300D01*
X2903321Y-12312040D01*
X2902712Y-12318492D01*
G37*
G36*
X2136444Y-11984634D02*
G01*
X2145334Y-11980265D01*
X2156917Y-11972493D01*
X2167432Y-11963298D01*
X2176627Y-11952833D01*
X2184400Y-11941200D01*
X2188768Y-11932310D01*
X2136444Y-11932310D01*
G37*
G36*
X2047544Y-11984634D02*
G01*
X2047544Y-11932310D01*
X1995220Y-11932310D01*
X1999589Y-11941200D01*
X2007362Y-11952833D01*
X2016556Y-11963298D01*
X2027072Y-11972493D01*
X2038654Y-11980265D01*
G37*
G36*
X2933700Y-11931294D02*
G01*
X2946857Y-11931294D01*
X2946857Y-11884609D01*
X2902712Y-11884609D01*
X2902712Y-11900255D01*
X2903321Y-11906707D01*
X2905048Y-11912447D01*
X2907893Y-11917680D01*
X2911652Y-11922302D01*
X2916275Y-11926112D01*
X2921558Y-11928906D01*
X2927248Y-11930634D01*
G37*
G36*
X1995220Y-11843410D02*
G01*
X2047544Y-11843410D01*
X2047544Y-11791086D01*
X2038654Y-11795506D01*
X2027072Y-11803227D01*
X2016556Y-11812422D01*
X2007362Y-11822938D01*
X1999589Y-11834520D01*
G37*
G36*
X2136444Y-11843410D02*
G01*
X2188768Y-11843410D01*
X2184400Y-11834520D01*
X2176627Y-11822938D01*
X2167432Y-11812422D01*
X2156917Y-11803227D01*
X2145334Y-11795506D01*
X2136444Y-11791086D01*
G37*
G36*
X2902712Y-11826951D02*
G01*
X2946857Y-11826951D01*
X2946857Y-11780266D01*
X2933700Y-11780266D01*
X2927248Y-11780926D01*
X2921558Y-11782653D01*
X2916275Y-11785447D01*
X2911652Y-11789257D01*
X2907893Y-11793880D01*
X2905048Y-11799112D01*
X2903321Y-11804853D01*
X2902712Y-11811254D01*
G37*
G36*
X3671874Y-11670538D02*
G01*
X3745890Y-11670538D01*
X3754272Y-11669725D01*
X3761892Y-11667388D01*
X3768851Y-11663680D01*
X3774998Y-11658650D01*
X3780028Y-11652504D01*
X3783787Y-11645493D01*
X3786073Y-11637924D01*
X3786886Y-11629542D01*
X3786886Y-11530533D01*
X3786073Y-11522151D01*
X3783787Y-11514531D01*
X3780028Y-11507520D01*
X3774998Y-11501424D01*
X3768851Y-11496395D01*
X3761892Y-11492636D01*
X3754272Y-11490350D01*
X3745890Y-11489537D01*
X3708146Y-11489537D01*
X3704285Y-11488724D01*
X3700983Y-11486540D01*
X3674821Y-11460327D01*
X3672586Y-11457076D01*
X3671824Y-11453164D01*
X3672586Y-11449304D01*
X3674770Y-11446002D01*
X3677665Y-11443106D01*
X3681272Y-11440769D01*
X3685489Y-11440160D01*
X3689654Y-11441328D01*
X3695039Y-11444224D01*
X3700729Y-11445951D01*
X3707180Y-11446560D01*
X3735578Y-11446560D01*
X3735578Y-11388699D01*
X3698341Y-11388699D01*
X3694480Y-11387886D01*
X3691178Y-11385702D01*
X3688994Y-11382400D01*
X3688181Y-11378539D01*
X3688181Y-11318646D01*
X3688994Y-11314734D01*
X3691178Y-11311432D01*
X3694480Y-11309248D01*
X3698341Y-11308486D01*
X3735578Y-11308486D01*
X3735578Y-11250574D01*
X3707180Y-11250574D01*
X3700729Y-11251184D01*
X3695039Y-11252962D01*
X3689654Y-11255806D01*
X3686352Y-11256924D01*
X3682847Y-11256822D01*
X3679647Y-11255603D01*
X3676599Y-11252860D01*
X3674922Y-11249863D01*
X3674313Y-11246408D01*
X3674313Y-10423245D01*
X3674922Y-10419740D01*
X3676751Y-10416692D01*
X3685590Y-10409377D01*
X3690670Y-10403230D01*
X3694379Y-10396270D01*
X3696665Y-10388650D01*
X3697528Y-10380268D01*
X3697528Y-10301274D01*
X3696665Y-10292892D01*
X3694379Y-10285272D01*
X3690670Y-10278313D01*
X3688079Y-10274198D01*
X3687470Y-10270794D01*
X3688079Y-10267340D01*
X3690670Y-10263276D01*
X3694379Y-10256266D01*
X3696665Y-10248696D01*
X3697528Y-10240314D01*
X3697528Y-10161270D01*
X3696665Y-10152888D01*
X3694379Y-10145318D01*
X3690670Y-10138308D01*
X3685590Y-10132161D01*
X3676751Y-10124897D01*
X3674922Y-10121798D01*
X3674313Y-10118293D01*
X3674313Y-10111943D01*
X3674922Y-10108438D01*
X3676700Y-10105339D01*
X3685590Y-10098024D01*
X3690620Y-10091928D01*
X3694379Y-10084917D01*
X3696665Y-10077297D01*
X3697478Y-10068915D01*
X3697478Y-9989261D01*
X3696665Y-9980879D01*
X3694379Y-9973310D01*
X3690620Y-9966299D01*
X3685641Y-9960203D01*
X3683914Y-9957206D01*
X3683355Y-9953802D01*
X3683914Y-9950348D01*
X3685641Y-9947351D01*
X3690620Y-9941255D01*
X3694379Y-9934244D01*
X3696665Y-9926675D01*
X3697478Y-9918293D01*
X3697478Y-9838639D01*
X3696665Y-9830257D01*
X3694379Y-9822637D01*
X3690620Y-9815677D01*
X3685590Y-9809530D01*
X3676700Y-9802215D01*
X3674922Y-9799167D01*
X3674313Y-9795662D01*
X3674313Y-9783673D01*
X3673805Y-9775647D01*
X3671722Y-9765893D01*
X3668064Y-9756597D01*
X3667099Y-9754717D01*
X3662934Y-9748012D01*
X3656380Y-9740341D01*
X3614420Y-9698380D01*
X3612235Y-9695129D01*
X3611422Y-9691217D01*
X3611422Y-9657486D01*
X3610610Y-9649104D01*
X3608324Y-9641484D01*
X3604564Y-9634524D01*
X3599535Y-9628378D01*
X3593439Y-9623348D01*
X3586429Y-9619589D01*
X3578809Y-9617303D01*
X3570427Y-9616490D01*
X3490772Y-9616490D01*
X3482390Y-9617303D01*
X3474821Y-9619589D01*
X3467811Y-9623348D01*
X3461715Y-9628327D01*
X3458718Y-9630054D01*
X3455314Y-9630613D01*
X3451860Y-9630054D01*
X3448862Y-9628327D01*
X3442766Y-9623348D01*
X3435756Y-9619589D01*
X3428187Y-9617303D01*
X3419805Y-9616490D01*
X3340150Y-9616490D01*
X3331768Y-9617303D01*
X3324148Y-9619589D01*
X3317189Y-9623348D01*
X3311042Y-9628378D01*
X3303727Y-9637268D01*
X3300679Y-9639046D01*
X3297174Y-9639655D01*
X3291738Y-9639655D01*
X3288182Y-9639046D01*
X3285032Y-9637166D01*
X3281934Y-9632696D01*
X3276904Y-9626549D01*
X3272536Y-9622993D01*
X3269792Y-9619488D01*
X3268827Y-9615170D01*
X3269792Y-9610801D01*
X3272536Y-9607296D01*
X3274009Y-9606076D01*
X3279038Y-9599980D01*
X3282797Y-9592970D01*
X3285083Y-9585350D01*
X3285896Y-9576968D01*
X3285896Y-9442958D01*
X3285083Y-9434576D01*
X3282797Y-9427006D01*
X3279038Y-9419996D01*
X3274009Y-9413849D01*
X3267862Y-9408820D01*
X3260902Y-9405112D01*
X3253282Y-9402775D01*
X3244545Y-9401962D01*
X3240989Y-9400895D01*
X3238042Y-9398660D01*
X3236061Y-9395460D01*
X3235401Y-9391802D01*
X3235401Y-9337954D01*
X3236010Y-9334449D01*
X3237839Y-9331350D01*
X3246729Y-9324086D01*
X3251758Y-9317939D01*
X3255517Y-9310928D01*
X3257803Y-9303359D01*
X3258616Y-9294977D01*
X3258616Y-9125966D01*
X3257803Y-9117584D01*
X3255517Y-9109964D01*
X3251758Y-9103004D01*
X3246729Y-9096857D01*
X3240582Y-9091828D01*
X3233623Y-9088069D01*
X3226003Y-9085783D01*
X3217621Y-9084970D01*
X3048609Y-9084970D01*
X3040227Y-9085783D01*
X3032658Y-9088069D01*
X3025648Y-9091828D01*
X3019501Y-9096857D01*
X3014472Y-9103004D01*
X3010763Y-9109964D01*
X3008426Y-9117584D01*
X3007614Y-9125966D01*
X3007614Y-9294977D01*
X3008426Y-9303359D01*
X3010763Y-9310928D01*
X3014472Y-9317939D01*
X3019501Y-9324086D01*
X3025648Y-9329115D01*
X3032658Y-9332823D01*
X3040227Y-9335160D01*
X3048609Y-9335973D01*
X3104235Y-9335973D01*
X3108096Y-9336735D01*
X3111398Y-9338919D01*
X3113633Y-9342221D01*
X3114395Y-9346133D01*
X3114395Y-9391802D01*
X3113735Y-9395460D01*
X3111754Y-9398660D01*
X3108807Y-9400895D01*
X3105251Y-9401962D01*
X3096514Y-9402775D01*
X3088894Y-9405112D01*
X3081934Y-9408820D01*
X3075787Y-9413849D01*
X3072485Y-9416999D01*
X3069234Y-9418218D01*
X3065729Y-9418320D01*
X3062427Y-9417253D01*
X3057042Y-9414357D01*
X3051352Y-9412630D01*
X3044901Y-9411970D01*
X3016504Y-9411970D01*
X3016504Y-9469882D01*
X3053740Y-9469882D01*
X3057601Y-9470644D01*
X3060903Y-9472879D01*
X3063138Y-9476130D01*
X3063900Y-9480042D01*
X3063900Y-9539935D01*
X3063138Y-9543796D01*
X3060903Y-9547098D01*
X3057601Y-9549282D01*
X3053740Y-9550095D01*
X3016504Y-9550095D01*
X3016504Y-9609175D01*
X3019806Y-9611969D01*
X3021685Y-9615932D01*
X3021685Y-9620300D01*
X3019856Y-9624263D01*
X3016554Y-9627108D01*
X3011373Y-9629851D01*
X3006750Y-9633661D01*
X3002991Y-9638284D01*
X3000146Y-9643516D01*
X2998419Y-9649256D01*
X2997809Y-9655657D01*
X2997809Y-9671354D01*
X3041954Y-9671354D01*
X3041954Y-9614509D01*
X3042716Y-9610648D01*
X3044952Y-9607346D01*
X3048203Y-9605111D01*
X3052114Y-9604349D01*
X3059430Y-9604349D01*
X3062427Y-9602724D01*
X3066592Y-9601555D01*
X3070860Y-9602216D01*
X3074466Y-9604552D01*
X3076905Y-9606991D01*
X3081934Y-9611106D01*
X3089300Y-9615068D01*
X3092145Y-9617303D01*
X3094024Y-9620453D01*
X3094634Y-9624009D01*
X3094634Y-9671354D01*
X3117596Y-9671354D01*
X3121507Y-9672116D01*
X3124809Y-9674301D01*
X3126994Y-9677603D01*
X3127756Y-9681514D01*
X3127756Y-9718852D01*
X3126994Y-9722764D01*
X3124809Y-9726066D01*
X3121507Y-9728250D01*
X3117596Y-9729012D01*
X3094634Y-9729012D01*
X3094634Y-9775698D01*
X3107791Y-9775698D01*
X3114243Y-9775037D01*
X3119932Y-9773310D01*
X3126028Y-9770059D01*
X3129330Y-9768992D01*
X3132836Y-9769043D01*
X3136036Y-9770313D01*
X3139694Y-9773767D01*
X3145790Y-9778796D01*
X3152800Y-9782556D01*
X3160369Y-9784842D01*
X3168802Y-9785705D01*
X3247796Y-9785705D01*
X3256178Y-9784842D01*
X3263747Y-9782556D01*
X3270758Y-9778796D01*
X3276904Y-9773767D01*
X3281934Y-9767671D01*
X3285032Y-9763201D01*
X3288182Y-9761321D01*
X3291738Y-9760712D01*
X3297174Y-9760712D01*
X3300679Y-9761321D01*
X3303727Y-9763099D01*
X3311042Y-9771989D01*
X3317189Y-9777018D01*
X3324148Y-9780778D01*
X3331768Y-9783064D01*
X3340150Y-9783876D01*
X3419805Y-9783876D01*
X3428187Y-9783064D01*
X3435756Y-9780778D01*
X3442766Y-9777018D01*
X3448862Y-9772040D01*
X3451860Y-9770313D01*
X3455314Y-9769703D01*
X3458718Y-9770313D01*
X3461715Y-9772040D01*
X3467811Y-9777018D01*
X3474821Y-9780778D01*
X3482390Y-9783064D01*
X3490772Y-9783876D01*
X3524554Y-9783876D01*
X3528466Y-9784638D01*
X3531717Y-9786874D01*
X3541064Y-9796170D01*
X3543198Y-9799269D01*
X3544011Y-9802876D01*
X3543554Y-9806584D01*
X3541725Y-9809835D01*
X3538118Y-9814204D01*
X3534613Y-9816947D01*
X3530295Y-9817912D01*
X3486708Y-9817912D01*
X3483762Y-9817506D01*
X3475177Y-9814915D01*
X3466795Y-9814052D01*
X3326790Y-9814052D01*
X3318408Y-9814915D01*
X3310788Y-9817201D01*
X3303828Y-9820960D01*
X3297682Y-9825990D01*
X3294379Y-9829088D01*
X3291128Y-9830358D01*
X3287623Y-9830409D01*
X3284372Y-9829342D01*
X3278936Y-9826447D01*
X3273247Y-9824720D01*
X3266795Y-9824059D01*
X3238398Y-9824059D01*
X3238398Y-9881971D01*
X3275634Y-9881971D01*
X3279495Y-9882733D01*
X3282797Y-9884968D01*
X3285032Y-9888270D01*
X3285794Y-9892131D01*
X3285794Y-9952024D01*
X3285032Y-9955885D01*
X3282797Y-9959187D01*
X3279495Y-9961422D01*
X3275634Y-9962184D01*
X3238398Y-9962184D01*
X3238398Y-10020096D01*
X3266795Y-10020096D01*
X3273247Y-10019436D01*
X3278936Y-10017709D01*
X3284372Y-10014813D01*
X3287623Y-10013746D01*
X3291128Y-10013848D01*
X3294379Y-10015067D01*
X3297682Y-10018166D01*
X3303828Y-10023246D01*
X3310788Y-10026954D01*
X3318408Y-10029240D01*
X3326790Y-10030104D01*
X3466795Y-10030104D01*
X3475177Y-10029240D01*
X3482797Y-10026954D01*
X3489756Y-10023246D01*
X3495903Y-10018166D01*
X3500932Y-10012070D01*
X3504692Y-10005060D01*
X3506978Y-9997490D01*
X3507790Y-9989058D01*
X3507790Y-9949129D01*
X3508552Y-9945217D01*
X3510787Y-9941915D01*
X3514090Y-9939731D01*
X3517950Y-9938969D01*
X3530244Y-9938969D01*
X3534613Y-9939934D01*
X3538118Y-9942677D01*
X3541928Y-9947351D01*
X3543655Y-9950348D01*
X3544265Y-9953802D01*
X3543655Y-9957206D01*
X3541928Y-9960203D01*
X3536950Y-9966299D01*
X3533190Y-9973310D01*
X3530904Y-9980879D01*
X3530092Y-9989261D01*
X3530092Y-10068915D01*
X3530904Y-10077297D01*
X3533190Y-10084917D01*
X3536950Y-10091928D01*
X3539490Y-10094976D01*
X3541268Y-10098430D01*
X3544214Y-10099903D01*
X3549396Y-10103916D01*
X3551478Y-10106152D01*
X3552850Y-10108895D01*
X3553307Y-10111943D01*
X3553307Y-10115499D01*
X3552342Y-10119817D01*
X3549599Y-10123322D01*
X3545586Y-10125354D01*
X3541166Y-10125456D01*
X3537102Y-10123627D01*
X3534156Y-10120274D01*
X3532632Y-10117378D01*
X3530092Y-10114330D01*
X3528364Y-10110927D01*
X3525164Y-10109301D01*
X3521456Y-10106253D01*
X3514496Y-10102494D01*
X3506876Y-10100208D01*
X3498494Y-10099395D01*
X3358489Y-10099395D01*
X3350107Y-10100208D01*
X3342487Y-10102494D01*
X3335528Y-10106253D01*
X3329381Y-10111282D01*
X3326079Y-10114381D01*
X3322828Y-10115651D01*
X3319322Y-10115702D01*
X3316071Y-10114635D01*
X3310636Y-10111740D01*
X3304946Y-10110012D01*
X3298494Y-10109352D01*
X3270097Y-10109352D01*
X3270097Y-10167264D01*
X3307334Y-10167264D01*
X3311194Y-10168077D01*
X3314496Y-10170261D01*
X3316732Y-10173563D01*
X3317494Y-10177424D01*
X3317494Y-10237317D01*
X3316732Y-10241229D01*
X3314496Y-10244480D01*
X3311194Y-10246715D01*
X3307334Y-10247477D01*
X3270097Y-10247477D01*
X3270097Y-10305389D01*
X3298494Y-10305389D01*
X3304946Y-10304729D01*
X3310636Y-10303002D01*
X3316071Y-10300106D01*
X3319322Y-10299039D01*
X3322828Y-10299141D01*
X3326079Y-10300360D01*
X3329381Y-10303510D01*
X3335528Y-10308539D01*
X3342487Y-10312247D01*
X3350107Y-10314584D01*
X3358489Y-10315397D01*
X3498494Y-10315397D01*
X3506876Y-10314584D01*
X3519119Y-10310723D01*
X3523284Y-10311282D01*
X3526840Y-10313416D01*
X3529228Y-10316768D01*
X3530092Y-10320883D01*
X3530092Y-10380268D01*
X3530904Y-10388650D01*
X3533241Y-10396270D01*
X3536950Y-10403230D01*
X3541979Y-10409377D01*
X3550869Y-10416692D01*
X3552698Y-10419740D01*
X3553307Y-10423245D01*
X3553307Y-11230406D01*
X3552545Y-11234318D01*
X3550310Y-11237569D01*
X3547008Y-11239804D01*
X3543147Y-11240566D01*
X3507181Y-11240566D01*
X3498799Y-11241379D01*
X3491229Y-11243716D01*
X3484219Y-11247424D01*
X3478072Y-11252454D01*
X3473043Y-11258600D01*
X3469335Y-11265611D01*
X3466998Y-11273180D01*
X3466439Y-11278920D01*
X3465423Y-11282476D01*
X3463137Y-11285423D01*
X3459987Y-11287404D01*
X3456330Y-11288064D01*
X3452672Y-11287404D01*
X3448608Y-11285474D01*
X3446729Y-11283696D01*
X3441039Y-11276787D01*
X3434943Y-11271758D01*
X3427933Y-11267998D01*
X3420313Y-11265712D01*
X3411931Y-11264849D01*
X3336798Y-11264849D01*
X3332937Y-11264087D01*
X3329635Y-11261902D01*
X3327450Y-11258600D01*
X3326637Y-11254689D01*
X3327450Y-11250828D01*
X3329635Y-11247526D01*
X3378708Y-11198453D01*
X3381806Y-11196370D01*
X3385413Y-11195507D01*
X3389122Y-11196015D01*
X3396183Y-11198402D01*
X3409848Y-11201146D01*
X3423818Y-11202060D01*
X3437737Y-11201146D01*
X3451402Y-11198402D01*
X3464610Y-11193932D01*
X3477158Y-11187785D01*
X3488740Y-11180013D01*
X3499205Y-11170818D01*
X3508451Y-11160302D01*
X3516172Y-11148720D01*
X3522370Y-11136223D01*
X3526840Y-11122964D01*
X3529584Y-11109299D01*
X3530498Y-11095380D01*
X3529584Y-11081461D01*
X3526840Y-11067745D01*
X3522370Y-11054537D01*
X3516172Y-11042040D01*
X3508451Y-11030458D01*
X3499205Y-11019942D01*
X3488740Y-11010747D01*
X3477158Y-11002975D01*
X3464610Y-10996828D01*
X3451402Y-10992307D01*
X3437737Y-10989614D01*
X3423818Y-10988700D01*
X3409848Y-10989614D01*
X3396183Y-10992307D01*
X3382975Y-10996828D01*
X3370427Y-11002975D01*
X3358845Y-11010747D01*
X3348380Y-11019942D01*
X3339134Y-11030458D01*
X3331413Y-11042040D01*
X3325215Y-11054537D01*
X3320745Y-11067745D01*
X3318001Y-11081461D01*
X3317087Y-11095380D01*
X3318001Y-11109299D01*
X3320745Y-11122964D01*
X3323132Y-11130026D01*
X3323640Y-11133734D01*
X3322828Y-11137392D01*
X3320694Y-11140490D01*
X3192830Y-11268354D01*
X3190544Y-11271148D01*
X3187395Y-11273688D01*
X3183483Y-11274856D01*
X3175101Y-11275517D01*
X3169513Y-11277244D01*
X3164230Y-11280038D01*
X3159607Y-11283848D01*
X3155797Y-11288471D01*
X3153003Y-11293703D01*
X3151276Y-11299444D01*
X3150616Y-11305895D01*
X3150616Y-11391290D01*
X3151276Y-11397742D01*
X3153003Y-11403431D01*
X3155797Y-11408714D01*
X3159607Y-11413337D01*
X3164230Y-11417096D01*
X3169513Y-11419890D01*
X3175203Y-11421668D01*
X3181654Y-11422278D01*
X3261309Y-11422278D01*
X3267710Y-11421668D01*
X3273450Y-11419890D01*
X3278733Y-11417096D01*
X3283864Y-11412880D01*
X3287369Y-11411000D01*
X3291332Y-11410594D01*
X3295091Y-11411762D01*
X3298190Y-11414252D01*
X3303168Y-11420398D01*
X3309315Y-11425428D01*
X3316325Y-11429136D01*
X3323894Y-11431473D01*
X3332276Y-11432286D01*
X3411931Y-11432286D01*
X3420313Y-11431473D01*
X3427933Y-11429136D01*
X3434943Y-11425428D01*
X3441039Y-11420398D01*
X3446729Y-11413490D01*
X3448608Y-11411712D01*
X3452672Y-11409781D01*
X3456330Y-11409070D01*
X3459987Y-11409781D01*
X3463137Y-11411712D01*
X3465423Y-11414658D01*
X3466439Y-11418265D01*
X3466998Y-11423954D01*
X3469335Y-11431574D01*
X3473043Y-11438534D01*
X3478072Y-11444681D01*
X3484219Y-11449710D01*
X3491229Y-11453469D01*
X3498799Y-11455755D01*
X3507181Y-11456568D01*
X3509111Y-11456568D01*
X3513378Y-11457533D01*
X3516833Y-11460175D01*
X3518915Y-11464036D01*
X3519982Y-11467947D01*
X3522929Y-11475059D01*
X3527856Y-11483289D01*
X3529329Y-11487505D01*
X3528822Y-11491976D01*
X3526485Y-11495786D01*
X3522675Y-11498224D01*
X3518255Y-11498783D01*
X3513023Y-11498275D01*
X3506571Y-11498275D01*
X3506571Y-11549227D01*
X3544011Y-11549227D01*
X3544011Y-11529263D01*
X3543706Y-11525859D01*
X3544112Y-11521744D01*
X3546144Y-11518188D01*
X3549446Y-11515699D01*
X3553460Y-11514683D01*
X3557524Y-11515394D01*
X3560978Y-11517680D01*
X3627932Y-11584584D01*
X3630117Y-11587886D01*
X3630879Y-11591798D01*
X3630879Y-11629542D01*
X3631692Y-11637924D01*
X3634028Y-11645493D01*
X3637737Y-11652504D01*
X3642766Y-11658650D01*
X3648913Y-11663680D01*
X3655923Y-11667388D01*
X3663492Y-11669725D01*
G37*
G36*
X3506571Y-11666474D02*
G01*
X3513023Y-11666474D01*
X3519474Y-11665813D01*
X3525164Y-11664086D01*
X3530447Y-11661292D01*
X3535070Y-11657482D01*
X3538829Y-11652910D01*
X3541674Y-11647627D01*
X3543401Y-11641886D01*
X3544011Y-11635486D01*
X3544011Y-11615521D01*
X3506571Y-11615521D01*
G37*
G36*
X3411575Y-11666474D02*
G01*
X3418027Y-11666474D01*
X3424478Y-11665813D01*
X3430168Y-11664086D01*
X3434638Y-11661698D01*
X3437737Y-11660682D01*
X3441090Y-11660682D01*
X3444189Y-11661698D01*
X3448659Y-11664086D01*
X3454400Y-11665813D01*
X3460800Y-11666474D01*
X3467252Y-11666474D01*
X3467252Y-11615521D01*
X3411575Y-11615521D01*
G37*
G36*
X3270808Y-11666474D02*
G01*
X3323031Y-11666474D01*
X3329432Y-11665813D01*
X3335172Y-11664086D01*
X3339642Y-11661698D01*
X3342741Y-11660682D01*
X3346094Y-11660682D01*
X3349193Y-11661698D01*
X3353663Y-11664086D01*
X3359353Y-11665813D01*
X3365804Y-11666474D01*
X3372256Y-11666474D01*
X3372256Y-11615521D01*
X3364179Y-11615521D01*
X3360267Y-11614759D01*
X3357016Y-11612524D01*
X3354781Y-11609222D01*
X3354019Y-11605361D01*
X3354019Y-11559387D01*
X3354781Y-11555476D01*
X3357016Y-11552174D01*
X3360267Y-11549989D01*
X3364179Y-11549227D01*
X3372256Y-11549227D01*
X3372256Y-11498275D01*
X3365804Y-11498275D01*
X3359353Y-11498884D01*
X3353663Y-11500612D01*
X3349193Y-11502999D01*
X3346094Y-11504066D01*
X3342741Y-11504066D01*
X3339642Y-11502999D01*
X3335172Y-11500612D01*
X3329432Y-11498884D01*
X3323031Y-11498275D01*
X3270808Y-11498275D01*
X3264357Y-11498884D01*
X3258667Y-11500612D01*
X3253384Y-11503456D01*
X3248761Y-11507216D01*
X3245002Y-11511838D01*
X3242157Y-11517122D01*
X3240430Y-11522811D01*
X3239820Y-11531193D01*
X3239058Y-11535054D01*
X3236823Y-11538356D01*
X3233521Y-11540591D01*
X3229660Y-11541353D01*
X3158032Y-11541353D01*
X3154172Y-11540591D01*
X3150870Y-11538356D01*
X3091992Y-11479479D01*
X3089757Y-11476177D01*
X3088995Y-11472316D01*
X3088995Y-11197183D01*
X3089757Y-11193322D01*
X3091992Y-11190020D01*
X3198418Y-11083544D01*
X3203854Y-11076940D01*
X3207613Y-11069878D01*
X3209950Y-11062208D01*
X3210814Y-11053724D01*
X3210814Y-10946180D01*
X3211474Y-10942472D01*
X3213455Y-10939322D01*
X3216452Y-10937036D01*
X3223158Y-10933785D01*
X3234740Y-10926013D01*
X3245205Y-10916818D01*
X3254451Y-10906302D01*
X3262172Y-10894720D01*
X3268370Y-10882223D01*
X3272840Y-10868964D01*
X3275584Y-10855299D01*
X3276498Y-10841380D01*
X3275584Y-10827461D01*
X3272840Y-10813745D01*
X3268370Y-10800537D01*
X3260293Y-10784128D01*
X3260039Y-10780674D01*
X3260953Y-10777321D01*
X3262985Y-10774476D01*
X3356914Y-10680547D01*
X3359759Y-10678566D01*
X3363112Y-10677652D01*
X3366566Y-10677906D01*
X3382975Y-10685932D01*
X3396183Y-10690402D01*
X3409848Y-10693146D01*
X3423818Y-10694060D01*
X3437737Y-10693146D01*
X3451402Y-10690402D01*
X3464610Y-10685932D01*
X3477158Y-10679785D01*
X3488740Y-10672013D01*
X3499205Y-10662818D01*
X3508451Y-10652302D01*
X3516172Y-10640720D01*
X3522370Y-10628223D01*
X3526840Y-10614964D01*
X3529584Y-10601299D01*
X3530498Y-10587380D01*
X3529584Y-10573461D01*
X3526840Y-10559745D01*
X3522370Y-10546537D01*
X3516172Y-10534040D01*
X3508451Y-10522458D01*
X3499205Y-10511942D01*
X3488740Y-10502747D01*
X3477158Y-10494975D01*
X3464610Y-10488828D01*
X3451402Y-10484307D01*
X3437737Y-10481614D01*
X3423818Y-10480700D01*
X3409848Y-10481614D01*
X3396183Y-10484307D01*
X3382975Y-10488828D01*
X3370427Y-10494975D01*
X3358845Y-10502747D01*
X3348380Y-10511942D01*
X3339134Y-10522458D01*
X3331413Y-10534040D01*
X3325215Y-10546537D01*
X3320745Y-10559745D01*
X3318001Y-10573461D01*
X3317087Y-10587380D01*
X3317849Y-10598708D01*
X3317240Y-10602976D01*
X3314903Y-10606582D01*
X3188970Y-10732465D01*
X3185363Y-10734802D01*
X3181146Y-10735462D01*
X3169818Y-10734700D01*
X3155848Y-10735614D01*
X3142183Y-10738307D01*
X3128975Y-10742828D01*
X3116427Y-10748975D01*
X3104845Y-10756747D01*
X3094380Y-10765942D01*
X3085134Y-10776458D01*
X3077413Y-10788040D01*
X3071215Y-10800537D01*
X3066897Y-10813237D01*
X3064814Y-10816844D01*
X3061411Y-10819282D01*
X3057296Y-10820146D01*
X3030270Y-10820146D01*
X3026105Y-10819231D01*
X3022650Y-10816691D01*
X3020568Y-10812932D01*
X3019450Y-10809173D01*
X3016605Y-10803890D01*
X3012846Y-10799318D01*
X3008223Y-10795508D01*
X3002940Y-10792714D01*
X2997250Y-10790936D01*
X2990799Y-10790326D01*
X2905404Y-10790326D01*
X2898952Y-10790936D01*
X2893263Y-10792714D01*
X2887980Y-10795508D01*
X2883357Y-10799318D01*
X2879547Y-10803890D01*
X2876753Y-10809173D01*
X2875026Y-10814913D01*
X2874365Y-10821314D01*
X2874365Y-10900968D01*
X2875026Y-10907420D01*
X2876753Y-10913110D01*
X2879547Y-10918393D01*
X2883357Y-10923016D01*
X2887980Y-10926826D01*
X2889300Y-10927537D01*
X2892602Y-10930331D01*
X2894431Y-10934293D01*
X2894431Y-10938662D01*
X2892602Y-10942624D01*
X2889300Y-10945418D01*
X2887980Y-10946130D01*
X2883357Y-10949940D01*
X2879547Y-10954562D01*
X2876753Y-10959846D01*
X2875026Y-10965535D01*
X2874365Y-10971987D01*
X2874365Y-10985296D01*
X2920136Y-10985296D01*
X2920136Y-10942167D01*
X2920898Y-10938256D01*
X2923133Y-10934954D01*
X2926435Y-10932769D01*
X2930296Y-10932007D01*
X2965907Y-10932007D01*
X2969768Y-10932769D01*
X2973070Y-10934954D01*
X2975254Y-10938256D01*
X2976067Y-10942167D01*
X2976067Y-10985296D01*
X3021787Y-10985296D01*
X3021787Y-10971987D01*
X3021177Y-10965535D01*
X3019450Y-10959846D01*
X3016605Y-10954562D01*
X3012846Y-10949940D01*
X3008223Y-10946130D01*
X3006852Y-10945418D01*
X3003550Y-10942624D01*
X3001721Y-10938662D01*
X3001721Y-10934293D01*
X3003550Y-10930331D01*
X3006852Y-10927537D01*
X3008223Y-10926826D01*
X3012846Y-10923016D01*
X3016605Y-10918393D01*
X3019450Y-10913110D01*
X3020568Y-10909350D01*
X3022650Y-10905591D01*
X3026105Y-10903051D01*
X3030321Y-10902137D01*
X3076956Y-10902137D01*
X3081121Y-10903051D01*
X3084576Y-10905642D01*
X3094380Y-10916818D01*
X3104845Y-10926013D01*
X3116427Y-10933785D01*
X3123133Y-10937036D01*
X3126130Y-10939322D01*
X3128111Y-10942472D01*
X3128772Y-10946180D01*
X3128772Y-11032998D01*
X3128010Y-11036909D01*
X3125825Y-11040211D01*
X3019348Y-11146637D01*
X3013964Y-11153241D01*
X3010154Y-11160302D01*
X3007817Y-11168024D01*
X3007004Y-11176508D01*
X3007004Y-11492992D01*
X3007817Y-11501475D01*
X3010154Y-11509197D01*
X3013964Y-11516258D01*
X3019348Y-11522862D01*
X3107537Y-11611000D01*
X3114090Y-11616436D01*
X3121202Y-11620195D01*
X3128873Y-11622532D01*
X3137357Y-11623344D01*
X3229660Y-11623344D01*
X3233521Y-11624157D01*
X3236823Y-11626342D01*
X3239058Y-11629644D01*
X3239820Y-11633504D01*
X3240430Y-11641886D01*
X3242157Y-11647627D01*
X3245002Y-11652910D01*
X3248761Y-11657482D01*
X3253384Y-11661292D01*
X3258667Y-11664086D01*
X3264357Y-11665813D01*
G37*
G36*
X3411575Y-11549227D02*
G01*
X3467252Y-11549227D01*
X3467252Y-11498275D01*
X3460800Y-11498275D01*
X3454400Y-11498884D01*
X3448659Y-11500612D01*
X3444189Y-11502999D01*
X3441090Y-11504066D01*
X3437737Y-11504066D01*
X3434638Y-11502999D01*
X3430168Y-11500612D01*
X3424478Y-11498884D01*
X3418027Y-11498275D01*
X3411575Y-11498275D01*
G37*
G36*
X3818788Y-11446560D02*
G01*
X3847185Y-11446560D01*
X3853637Y-11445951D01*
X3859326Y-11444224D01*
X3864610Y-11441379D01*
X3869232Y-11437620D01*
X3873042Y-11432997D01*
X3875836Y-11427714D01*
X3877564Y-11422024D01*
X3878224Y-11415572D01*
X3878224Y-11388699D01*
X3818788Y-11388699D01*
G37*
G36*
X2599385Y-11356136D02*
G01*
X2610510Y-11355273D01*
X2621330Y-11352682D01*
X2631592Y-11348415D01*
X2641092Y-11342573D01*
X2649575Y-11335359D01*
X2656789Y-11326876D01*
X2662631Y-11317376D01*
X2666898Y-11307114D01*
X2669489Y-11296294D01*
X2670352Y-11285169D01*
X2669489Y-11274044D01*
X2666898Y-11263223D01*
X2662631Y-11252962D01*
X2656789Y-11243462D01*
X2649575Y-11234978D01*
X2646883Y-11232692D01*
X2644241Y-11229187D01*
X2643327Y-11224971D01*
X2643327Y-11206530D01*
X2643987Y-11202924D01*
X2645816Y-11199825D01*
X2649728Y-11196980D01*
X2654960Y-11192459D01*
X2658465Y-11189766D01*
X2662783Y-11188750D01*
X2667152Y-11189766D01*
X2675839Y-11196980D01*
X2681122Y-11199825D01*
X2686862Y-11201552D01*
X2693263Y-11202162D01*
X2706420Y-11202162D01*
X2706420Y-11155527D01*
X2673451Y-11155527D01*
X2669590Y-11154765D01*
X2666288Y-11152530D01*
X2664104Y-11149279D01*
X2663291Y-11145367D01*
X2663291Y-11107978D01*
X2664104Y-11104118D01*
X2666288Y-11100816D01*
X2669590Y-11098580D01*
X2673451Y-11097818D01*
X2706420Y-11097818D01*
X2706420Y-11051184D01*
X2693263Y-11051184D01*
X2686862Y-11051794D01*
X2681122Y-11053521D01*
X2675839Y-11056366D01*
X2670657Y-11060887D01*
X2667152Y-11063630D01*
X2662783Y-11064595D01*
X2658465Y-11063630D01*
X2649728Y-11056366D01*
X2645816Y-11053521D01*
X2643987Y-11050422D01*
X2643327Y-11046815D01*
X2643327Y-10812830D01*
X2643124Y-10808208D01*
X2642514Y-10803839D01*
X2641600Y-10799572D01*
X2640279Y-10795355D01*
X2638552Y-10791291D01*
X2636520Y-10787380D01*
X2634183Y-10783671D01*
X2631490Y-10780166D01*
X2628341Y-10776762D01*
X2546553Y-10694924D01*
X2544318Y-10691622D01*
X2543556Y-10687761D01*
X2543556Y-10645902D01*
X2542895Y-10639450D01*
X2541168Y-10633710D01*
X2538374Y-10628477D01*
X2534564Y-10623854D01*
X2529992Y-10620044D01*
X2524709Y-10617250D01*
X2518968Y-10615523D01*
X2512568Y-10614863D01*
X2413558Y-10614863D01*
X2407107Y-10615523D01*
X2401417Y-10617250D01*
X2396134Y-10620044D01*
X2391511Y-10623854D01*
X2387701Y-10628477D01*
X2384907Y-10633710D01*
X2383180Y-10639450D01*
X2382520Y-10645902D01*
X2382520Y-10719866D01*
X2383180Y-10726318D01*
X2384907Y-10732058D01*
X2387701Y-10737291D01*
X2391511Y-10741914D01*
X2396134Y-10745724D01*
X2401417Y-10748518D01*
X2407107Y-10750245D01*
X2413558Y-10750905D01*
X2455418Y-10750905D01*
X2459329Y-10751667D01*
X2462631Y-10753852D01*
X2539339Y-10830560D01*
X2541524Y-10833862D01*
X2542286Y-10837773D01*
X2542286Y-11046815D01*
X2541625Y-11050422D01*
X2539796Y-11053521D01*
X2535885Y-11056366D01*
X2531262Y-11060125D01*
X2527503Y-11064748D01*
X2524658Y-11070031D01*
X2523998Y-11072164D01*
X2521915Y-11075924D01*
X2518460Y-11078464D01*
X2514295Y-11079378D01*
X2478125Y-11079378D01*
X2473960Y-11078464D01*
X2470505Y-11075924D01*
X2468422Y-11072164D01*
X2467203Y-11068253D01*
X2464409Y-11062970D01*
X2460599Y-11058347D01*
X2456027Y-11054588D01*
X2453436Y-11051387D01*
X2452319Y-11047425D01*
X2452878Y-11043361D01*
X2454960Y-11039856D01*
X2457297Y-11037316D01*
X2462834Y-11028883D01*
X2466848Y-11019688D01*
X2469337Y-11009934D01*
X2470150Y-10999876D01*
X2469337Y-10989818D01*
X2466848Y-10980064D01*
X2462834Y-10970869D01*
X2457297Y-10962436D01*
X2455011Y-10959947D01*
X2452878Y-10956391D01*
X2452370Y-10952327D01*
X2453436Y-10948365D01*
X2456027Y-10945215D01*
X2460650Y-10941405D01*
X2464409Y-10936833D01*
X2467254Y-10931550D01*
X2468981Y-10925810D01*
X2469591Y-10919409D01*
X2469591Y-10820400D01*
X2468981Y-10813948D01*
X2467254Y-10808258D01*
X2464409Y-10802975D01*
X2460650Y-10798352D01*
X2456027Y-10794593D01*
X2450744Y-10791748D01*
X2445054Y-10790021D01*
X2438603Y-10789412D01*
X2379573Y-10789412D01*
X2373172Y-10790021D01*
X2367432Y-10791748D01*
X2363266Y-10793374D01*
X2359964Y-10793374D01*
X2355748Y-10791748D01*
X2350058Y-10790021D01*
X2343607Y-10789361D01*
X2335428Y-10789361D01*
X2335428Y-10838535D01*
X2338425Y-10838535D01*
X2342337Y-10839297D01*
X2345588Y-10841532D01*
X2347823Y-10844784D01*
X2348585Y-10848695D01*
X2348585Y-10891062D01*
X2347823Y-10894974D01*
X2345588Y-10898276D01*
X2342337Y-10900460D01*
X2338425Y-10901222D01*
X2335428Y-10901222D01*
X2335428Y-10950397D01*
X2343607Y-10950397D01*
X2349601Y-10949787D01*
X2353360Y-10950143D01*
X2356713Y-10951819D01*
X2359253Y-10954664D01*
X2360574Y-10958169D01*
X2360523Y-10961979D01*
X2359101Y-10965484D01*
X2355545Y-10970869D01*
X2351532Y-10980064D01*
X2349042Y-10989818D01*
X2348230Y-10999876D01*
X2349042Y-11009934D01*
X2351532Y-11019688D01*
X2355545Y-11028883D01*
X2361082Y-11037316D01*
X2363317Y-11039754D01*
X2365400Y-11043259D01*
X2365959Y-11047323D01*
X2364841Y-11051286D01*
X2362250Y-11054486D01*
X2357526Y-11058347D01*
X2353767Y-11062970D01*
X2350922Y-11068253D01*
X2349195Y-11073942D01*
X2348585Y-11080394D01*
X2348585Y-11179403D01*
X2349195Y-11185855D01*
X2350922Y-11191544D01*
X2353767Y-11196828D01*
X2357526Y-11201450D01*
X2362149Y-11205210D01*
X2367432Y-11208004D01*
X2373122Y-11209782D01*
X2379573Y-11210391D01*
X2438603Y-11210391D01*
X2445004Y-11209782D01*
X2450744Y-11208004D01*
X2455976Y-11205210D01*
X2460599Y-11201450D01*
X2464409Y-11196828D01*
X2467203Y-11191544D01*
X2468422Y-11187582D01*
X2470505Y-11183874D01*
X2473960Y-11181283D01*
X2478125Y-11180419D01*
X2516987Y-11180419D01*
X2520594Y-11181029D01*
X2523693Y-11182908D01*
X2525979Y-11185753D01*
X2527503Y-11188598D01*
X2531262Y-11193221D01*
X2535885Y-11196980D01*
X2539796Y-11199825D01*
X2541625Y-11202924D01*
X2542286Y-11206530D01*
X2542286Y-11240058D01*
X2541930Y-11242802D01*
X2540812Y-11245342D01*
X2536139Y-11252962D01*
X2531872Y-11263223D01*
X2529281Y-11274044D01*
X2528417Y-11285169D01*
X2529281Y-11296294D01*
X2531872Y-11307114D01*
X2536139Y-11317376D01*
X2541981Y-11326876D01*
X2549194Y-11335359D01*
X2557678Y-11342573D01*
X2567178Y-11348415D01*
X2577439Y-11352682D01*
X2588260Y-11355273D01*
G37*
G36*
X3818788Y-11308486D02*
G01*
X3878224Y-11308486D01*
X3878224Y-11281562D01*
X3877564Y-11275110D01*
X3875836Y-11269421D01*
X3873042Y-11264138D01*
X3869232Y-11259566D01*
X3864610Y-11255756D01*
X3859326Y-11252962D01*
X3853637Y-11251184D01*
X3847185Y-11250574D01*
X3818788Y-11250574D01*
G37*
G36*
X1855927Y-11202162D02*
G01*
X1869033Y-11202162D01*
X1869033Y-11155527D01*
X1824888Y-11155527D01*
X1824888Y-11171174D01*
X1825548Y-11177625D01*
X1827275Y-11183315D01*
X1830070Y-11188598D01*
X1833880Y-11193221D01*
X1838502Y-11196980D01*
X1843735Y-11199825D01*
X1849475Y-11201552D01*
G37*
G36*
X2759151Y-11202162D02*
G01*
X2772308Y-11202162D01*
X2778709Y-11201552D01*
X2784449Y-11199825D01*
X2789682Y-11196980D01*
X2794304Y-11193221D01*
X2798114Y-11188598D01*
X2800908Y-11183315D01*
X2802636Y-11177625D01*
X2803296Y-11171174D01*
X2803296Y-11155527D01*
X2759151Y-11155527D01*
G37*
G36*
X1824888Y-11097818D02*
G01*
X1869033Y-11097818D01*
X1869033Y-11051184D01*
X1855927Y-11051184D01*
X1849475Y-11051794D01*
X1843735Y-11053521D01*
X1838502Y-11056366D01*
X1833880Y-11060125D01*
X1830070Y-11064748D01*
X1827275Y-11070031D01*
X1825548Y-11075720D01*
X1824888Y-11082172D01*
G37*
G36*
X2759151Y-11097818D02*
G01*
X2803296Y-11097818D01*
X2803296Y-11082172D01*
X2802636Y-11075720D01*
X2800908Y-11070031D01*
X2798114Y-11064748D01*
X2794304Y-11060125D01*
X2789682Y-11056366D01*
X2784449Y-11053521D01*
X2778709Y-11051794D01*
X2772308Y-11051184D01*
X2759151Y-11051184D01*
G37*
G36*
X2905404Y-11082629D02*
G01*
X2920136Y-11082629D01*
X2920136Y-11038332D01*
X2874365Y-11038332D01*
X2874365Y-11051641D01*
X2875026Y-11058042D01*
X2876753Y-11063782D01*
X2879547Y-11069066D01*
X2883357Y-11073638D01*
X2887980Y-11077448D01*
X2893263Y-11080242D01*
X2898952Y-11082020D01*
G37*
G36*
X2976067Y-11082629D02*
G01*
X2990799Y-11082629D01*
X2997250Y-11082020D01*
X3002940Y-11080242D01*
X3008223Y-11077448D01*
X3012846Y-11073638D01*
X3016605Y-11069066D01*
X3019450Y-11063782D01*
X3021177Y-11058042D01*
X3021787Y-11051641D01*
X3021787Y-11038332D01*
X2976067Y-11038332D01*
G37*
G36*
X2189581Y-10950397D02*
G01*
X2248611Y-10950397D01*
X2255062Y-10949736D01*
X2260752Y-10948009D01*
X2264918Y-10946384D01*
X2268270Y-10946384D01*
X2272436Y-10948009D01*
X2278176Y-10949736D01*
X2284577Y-10950397D01*
X2292756Y-10950397D01*
X2292756Y-10901222D01*
X2289759Y-10901222D01*
X2285898Y-10900460D01*
X2282596Y-10898276D01*
X2280361Y-10894974D01*
X2279599Y-10891062D01*
X2279599Y-10848695D01*
X2280361Y-10844784D01*
X2282596Y-10841532D01*
X2285898Y-10839297D01*
X2289759Y-10838535D01*
X2292756Y-10838535D01*
X2292756Y-10789361D01*
X2284577Y-10789361D01*
X2278176Y-10790021D01*
X2273198Y-10791494D01*
X2269490Y-10791901D01*
X2265832Y-10790936D01*
X2262784Y-10788700D01*
X2260803Y-10785500D01*
X2260092Y-10781792D01*
X2260092Y-10761065D01*
X2260904Y-10757154D01*
X2263089Y-10753852D01*
X2266391Y-10751667D01*
X2270252Y-10750905D01*
X2278024Y-10750905D01*
X2284476Y-10750245D01*
X2290165Y-10748518D01*
X2295448Y-10745724D01*
X2300071Y-10741914D01*
X2303881Y-10737291D01*
X2306675Y-10732058D01*
X2308402Y-10726318D01*
X2309063Y-10719866D01*
X2309063Y-10645902D01*
X2308402Y-10639450D01*
X2306675Y-10633710D01*
X2303881Y-10628477D01*
X2300071Y-10623854D01*
X2295448Y-10620044D01*
X2290165Y-10617250D01*
X2284476Y-10615523D01*
X2278684Y-10614914D01*
X2275128Y-10613898D01*
X2272182Y-10611662D01*
X2270201Y-10608462D01*
X2269540Y-10604804D01*
X2269540Y-10587482D01*
X2270302Y-10583621D01*
X2272538Y-10580319D01*
X2315159Y-10537647D01*
X2318461Y-10535462D01*
X2322372Y-10534700D01*
X2373680Y-10534700D01*
X2380132Y-10534040D01*
X2385872Y-10532313D01*
X2391105Y-10529519D01*
X2395728Y-10525709D01*
X2399538Y-10521086D01*
X2400249Y-10519765D01*
X2403043Y-10516463D01*
X2407005Y-10514634D01*
X2411374Y-10514634D01*
X2415336Y-10516463D01*
X2418130Y-10519765D01*
X2418892Y-10521086D01*
X2422652Y-10525709D01*
X2427274Y-10529519D01*
X2432558Y-10532313D01*
X2438247Y-10534040D01*
X2444699Y-10534700D01*
X2524353Y-10534700D01*
X2530805Y-10534040D01*
X2536494Y-10532313D01*
X2541778Y-10529519D01*
X2546400Y-10525709D01*
X2550160Y-10521086D01*
X2553004Y-10515854D01*
X2554732Y-10510113D01*
X2555341Y-10503662D01*
X2555341Y-10452354D01*
X2556103Y-10448493D01*
X2558338Y-10445191D01*
X2596337Y-10407142D01*
X2601772Y-10400588D01*
X2605532Y-10393476D01*
X2607868Y-10385806D01*
X2608681Y-10377322D01*
X2608681Y-10362895D01*
X2609596Y-10358729D01*
X2612136Y-10355275D01*
X2615895Y-10353192D01*
X2622550Y-10351160D01*
X2627833Y-10348366D01*
X2632405Y-10344556D01*
X2636215Y-10339933D01*
X2639009Y-10334701D01*
X2640787Y-10328960D01*
X2641396Y-10322509D01*
X2641396Y-10242854D01*
X2640787Y-10236454D01*
X2639009Y-10230713D01*
X2636215Y-10225481D01*
X2632405Y-10220858D01*
X2627833Y-10217048D01*
X2626461Y-10216337D01*
X2623159Y-10213492D01*
X2621330Y-10209580D01*
X2621330Y-10205212D01*
X2623159Y-10201249D01*
X2626461Y-10198404D01*
X2627833Y-10197693D01*
X2632405Y-10193934D01*
X2636215Y-10189311D01*
X2639009Y-10184028D01*
X2640787Y-10178338D01*
X2641396Y-10171887D01*
X2641396Y-10092232D01*
X2640787Y-10085781D01*
X2639009Y-10080091D01*
X2636215Y-10074808D01*
X2632405Y-10070185D01*
X2627833Y-10066426D01*
X2622550Y-10063581D01*
X2616860Y-10061854D01*
X2610408Y-10061244D01*
X2559100Y-10061244D01*
X2555189Y-10060432D01*
X2551887Y-10058247D01*
X2449931Y-9956292D01*
X2447493Y-9952431D01*
X2444750Y-9944455D01*
X2438603Y-9931958D01*
X2430830Y-9920325D01*
X2421636Y-9909860D01*
X2411120Y-9900666D01*
X2399538Y-9892893D01*
X2392883Y-9889591D01*
X2389886Y-9887356D01*
X2387904Y-9884156D01*
X2387193Y-9880498D01*
X2387193Y-9333230D01*
X2388158Y-9328861D01*
X2390902Y-9325356D01*
X2394813Y-9323374D01*
X2406802Y-9320276D01*
X2420315Y-9314942D01*
X2433015Y-9307982D01*
X2444750Y-9299448D01*
X2455316Y-9289491D01*
X2464562Y-9278315D01*
X2472334Y-9266072D01*
X2478481Y-9252966D01*
X2483002Y-9239199D01*
X2485694Y-9224924D01*
X2486609Y-9210446D01*
X2485694Y-9195968D01*
X2483002Y-9181744D01*
X2478481Y-9167926D01*
X2472334Y-9154820D01*
X2464562Y-9142577D01*
X2455316Y-9131401D01*
X2444750Y-9121495D01*
X2433015Y-9112961D01*
X2420315Y-9105950D01*
X2406802Y-9100616D01*
X2392781Y-9097010D01*
X2378354Y-9095181D01*
X2363876Y-9095181D01*
X2349500Y-9097010D01*
X2335428Y-9100616D01*
X2321966Y-9105950D01*
X2309266Y-9112961D01*
X2297531Y-9121495D01*
X2286965Y-9131401D01*
X2277719Y-9142577D01*
X2269947Y-9154820D01*
X2263749Y-9167926D01*
X2259279Y-9181744D01*
X2256536Y-9195968D01*
X2255621Y-9210446D01*
X2256536Y-9224924D01*
X2259279Y-9239199D01*
X2263749Y-9252966D01*
X2269947Y-9266072D01*
X2277719Y-9278315D01*
X2286965Y-9289491D01*
X2297531Y-9299448D01*
X2300986Y-9301988D01*
X2303272Y-9304223D01*
X2304694Y-9307068D01*
X2305202Y-9310217D01*
X2305202Y-9880498D01*
X2304491Y-9884156D01*
X2302510Y-9887356D01*
X2299512Y-9889591D01*
X2292858Y-9892893D01*
X2281275Y-9900666D01*
X2270760Y-9909860D01*
X2261565Y-9920325D01*
X2253792Y-9931958D01*
X2247646Y-9944455D01*
X2243124Y-9957663D01*
X2240432Y-9971379D01*
X2239518Y-9985298D01*
X2240432Y-9999218D01*
X2243124Y-10012883D01*
X2247646Y-10026091D01*
X2253792Y-10038638D01*
X2261565Y-10050221D01*
X2270760Y-10060736D01*
X2281275Y-10069931D01*
X2292858Y-10077653D01*
X2305354Y-10083850D01*
X2318562Y-10088321D01*
X2332278Y-10091064D01*
X2346198Y-10091978D01*
X2360117Y-10091064D01*
X2373782Y-10088321D01*
X2387041Y-10083850D01*
X2399538Y-10077653D01*
X2411120Y-10069931D01*
X2425598Y-10057485D01*
X2429611Y-10056520D01*
X2433675Y-10057180D01*
X2437130Y-10059466D01*
X2491028Y-10113365D01*
X2493213Y-10116667D01*
X2493975Y-10120528D01*
X2493975Y-10171887D01*
X2494635Y-10178338D01*
X2496362Y-10184028D01*
X2499156Y-10189311D01*
X2502966Y-10193934D01*
X2507589Y-10197693D01*
X2508910Y-10198404D01*
X2512212Y-10201249D01*
X2514041Y-10205212D01*
X2514041Y-10209580D01*
X2512212Y-10213492D01*
X2508910Y-10216337D01*
X2507589Y-10217048D01*
X2502966Y-10220858D01*
X2499156Y-10225481D01*
X2496362Y-10230713D01*
X2494635Y-10236454D01*
X2493975Y-10242854D01*
X2493975Y-10322509D01*
X2494635Y-10328960D01*
X2496362Y-10334701D01*
X2499156Y-10339933D01*
X2502966Y-10344556D01*
X2507589Y-10348366D01*
X2512822Y-10351160D01*
X2514650Y-10351719D01*
X2518308Y-10353700D01*
X2520848Y-10357002D01*
X2521864Y-10361015D01*
X2521153Y-10365130D01*
X2518918Y-10368635D01*
X2503220Y-10384282D01*
X2499918Y-10386517D01*
X2496058Y-10387279D01*
X2444699Y-10387279D01*
X2438247Y-10387888D01*
X2432558Y-10389666D01*
X2427274Y-10392460D01*
X2422652Y-10396220D01*
X2418892Y-10400842D01*
X2418130Y-10402214D01*
X2415336Y-10405516D01*
X2411374Y-10407345D01*
X2407005Y-10407345D01*
X2403043Y-10405516D01*
X2400249Y-10402214D01*
X2399538Y-10400842D01*
X2395728Y-10396220D01*
X2391105Y-10392460D01*
X2385872Y-10389666D01*
X2380132Y-10387888D01*
X2373680Y-10387279D01*
X2294026Y-10387279D01*
X2287625Y-10387888D01*
X2281885Y-10389666D01*
X2276602Y-10392460D01*
X2272030Y-10396220D01*
X2268220Y-10400842D01*
X2265426Y-10406126D01*
X2263698Y-10411815D01*
X2263038Y-10418267D01*
X2263038Y-10469575D01*
X2262276Y-10473486D01*
X2260041Y-10476788D01*
X2199894Y-10536936D01*
X2194458Y-10543540D01*
X2190699Y-10550652D01*
X2188362Y-10558322D01*
X2187549Y-10566806D01*
X2187549Y-10604804D01*
X2186838Y-10608462D01*
X2184908Y-10611662D01*
X2181961Y-10613898D01*
X2178354Y-10614914D01*
X2170430Y-10615523D01*
X2163826Y-10614863D01*
X2064867Y-10614863D01*
X2058416Y-10615523D01*
X2052675Y-10617250D01*
X2047443Y-10620044D01*
X2042820Y-10623854D01*
X2039010Y-10628477D01*
X2036216Y-10633710D01*
X2034489Y-10639450D01*
X2033828Y-10645902D01*
X2033828Y-10719866D01*
X2034489Y-10726318D01*
X2036216Y-10732058D01*
X2039010Y-10737291D01*
X2042820Y-10741914D01*
X2047443Y-10745724D01*
X2052675Y-10748518D01*
X2058416Y-10750245D01*
X2064867Y-10750905D01*
X2163826Y-10750905D01*
X2166924Y-10750600D01*
X2171141Y-10751058D01*
X2174748Y-10753140D01*
X2177237Y-10756595D01*
X2178100Y-10760710D01*
X2178100Y-10785297D01*
X2177440Y-10788904D01*
X2175560Y-10792002D01*
X2167585Y-10798352D01*
X2163775Y-10802975D01*
X2160981Y-10808208D01*
X2160371Y-10810240D01*
X2158441Y-10813796D01*
X2155240Y-10816336D01*
X2151380Y-10817402D01*
X2147316Y-10816894D01*
X2138883Y-10813999D01*
X2128926Y-10812322D01*
X2118868Y-10812322D01*
X2108911Y-10813999D01*
X2099411Y-10817250D01*
X2090572Y-10822025D01*
X2082596Y-10828223D01*
X2075789Y-10835640D01*
X2070252Y-10844072D01*
X2066239Y-10853267D01*
X2063750Y-10863021D01*
X2062937Y-10873079D01*
X2063750Y-10883138D01*
X2066239Y-10892891D01*
X2070252Y-10902086D01*
X2075789Y-10910519D01*
X2082596Y-10917936D01*
X2090572Y-10924133D01*
X2099411Y-10928908D01*
X2108911Y-10932160D01*
X2118868Y-10933836D01*
X2128926Y-10933836D01*
X2138832Y-10932210D01*
X2149551Y-10928451D01*
X2153107Y-10927842D01*
X2156612Y-10928553D01*
X2159660Y-10930432D01*
X2161844Y-10933226D01*
X2163775Y-10936782D01*
X2167585Y-10941405D01*
X2172157Y-10945215D01*
X2177440Y-10948009D01*
X2183180Y-10949736D01*
G37*
G36*
X1911197Y-10750905D02*
G01*
X1929333Y-10750905D01*
X1935784Y-10750245D01*
X1941474Y-10748518D01*
X1946757Y-10745724D01*
X1951380Y-10741914D01*
X1955139Y-10737291D01*
X1957984Y-10732058D01*
X1959711Y-10726318D01*
X1960321Y-10719866D01*
X1960321Y-10707979D01*
X1911197Y-10707979D01*
G37*
G36*
X1830324Y-10750905D02*
G01*
X1848510Y-10750905D01*
X1848510Y-10707979D01*
X1799336Y-10707979D01*
X1799336Y-10719866D01*
X1799945Y-10726318D01*
X1801723Y-10732058D01*
X1804517Y-10737291D01*
X1808276Y-10741914D01*
X1812899Y-10745724D01*
X1818182Y-10748518D01*
X1823872Y-10750245D01*
G37*
G36*
X1799336Y-10657789D02*
G01*
X1848510Y-10657789D01*
X1848510Y-10614863D01*
X1830324Y-10614863D01*
X1823872Y-10615523D01*
X1818182Y-10617250D01*
X1812899Y-10620044D01*
X1808276Y-10623854D01*
X1804517Y-10628477D01*
X1801723Y-10633710D01*
X1799945Y-10639450D01*
X1799336Y-10645902D01*
G37*
G36*
X1911197Y-10657789D02*
G01*
X1960321Y-10657789D01*
X1960321Y-10645902D01*
X1959711Y-10639450D01*
X1957984Y-10633710D01*
X1955139Y-10628477D01*
X1951380Y-10623854D01*
X1946757Y-10620044D01*
X1941474Y-10617250D01*
X1935784Y-10615523D01*
X1929333Y-10614863D01*
X1911197Y-10614863D01*
G37*
G36*
X2136648Y-10336072D02*
G01*
X2145538Y-10331653D01*
X2157120Y-10323931D01*
X2167636Y-10314736D01*
X2176830Y-10304221D01*
X2184603Y-10292638D01*
X2188972Y-10283748D01*
X2136648Y-10283748D01*
G37*
G36*
X2047748Y-10336072D02*
G01*
X2047748Y-10283748D01*
X1995424Y-10283748D01*
X1999792Y-10292638D01*
X2007565Y-10304221D01*
X2016760Y-10314736D01*
X2027275Y-10323931D01*
X2038857Y-10331653D01*
G37*
G36*
X3158490Y-10305389D02*
G01*
X3186887Y-10305389D01*
X3186887Y-10247477D01*
X3127502Y-10247477D01*
X3127502Y-10274401D01*
X3128111Y-10280802D01*
X3129838Y-10286542D01*
X3132683Y-10291826D01*
X3136442Y-10296398D01*
X3141065Y-10300208D01*
X3146348Y-10303002D01*
X3152038Y-10304729D01*
G37*
G36*
X2136648Y-10194848D02*
G01*
X2188972Y-10194848D01*
X2184603Y-10185958D01*
X2176830Y-10174325D01*
X2167636Y-10163860D01*
X2157120Y-10154666D01*
X2145538Y-10146893D01*
X2136648Y-10142524D01*
G37*
G36*
X1995424Y-10194848D02*
G01*
X2047748Y-10194848D01*
X2047748Y-10142524D01*
X2038857Y-10146893D01*
X2027275Y-10154666D01*
X2016760Y-10163860D01*
X2007565Y-10174325D01*
X1999792Y-10185958D01*
G37*
G36*
X3127502Y-10167264D02*
G01*
X3186887Y-10167264D01*
X3186887Y-10109352D01*
X3158490Y-10109352D01*
X3152038Y-10110012D01*
X3146348Y-10111740D01*
X3141065Y-10114534D01*
X3136442Y-10118344D01*
X3132683Y-10122966D01*
X3129838Y-10128250D01*
X3128111Y-10133939D01*
X3127502Y-10140391D01*
G37*
G36*
X1793748Y-10082072D02*
G01*
X1793748Y-10029748D01*
X1741424Y-10029748D01*
X1745792Y-10038638D01*
X1753565Y-10050221D01*
X1762760Y-10060736D01*
X1773275Y-10069931D01*
X1784857Y-10077653D01*
G37*
G36*
X1882648Y-10082072D02*
G01*
X1891538Y-10077653D01*
X1903120Y-10069931D01*
X1913636Y-10060736D01*
X1922830Y-10050221D01*
X1930603Y-10038638D01*
X1934972Y-10029748D01*
X1882648Y-10029748D01*
G37*
G36*
X3126790Y-10020096D02*
G01*
X3155188Y-10020096D01*
X3155188Y-9962184D01*
X3095802Y-9962184D01*
X3095802Y-9989058D01*
X3096412Y-9995509D01*
X3098139Y-10001250D01*
X3100984Y-10006482D01*
X3104743Y-10011105D01*
X3109366Y-10014915D01*
X3114649Y-10017709D01*
X3120339Y-10019436D01*
G37*
G36*
X1741424Y-9940848D02*
G01*
X1793748Y-9940848D01*
X1793748Y-9888524D01*
X1784857Y-9892893D01*
X1773275Y-9900666D01*
X1762760Y-9909860D01*
X1753565Y-9920325D01*
X1745792Y-9931958D01*
G37*
G36*
X1882648Y-9940848D02*
G01*
X1934972Y-9940848D01*
X1930603Y-9931958D01*
X1922830Y-9920325D01*
X1913636Y-9909860D01*
X1903120Y-9900666D01*
X1891538Y-9892893D01*
X1882648Y-9888524D01*
G37*
G36*
X3095802Y-9881971D02*
G01*
X3155188Y-9881971D01*
X3155188Y-9824059D01*
X3126790Y-9824059D01*
X3120339Y-9824720D01*
X3114649Y-9826447D01*
X3109366Y-9829241D01*
X3104743Y-9833051D01*
X3100984Y-9837674D01*
X3098139Y-9842906D01*
X3096412Y-9848646D01*
X3095802Y-9855098D01*
G37*
G36*
X3028797Y-9775698D02*
G01*
X3041954Y-9775698D01*
X3041954Y-9729012D01*
X2997809Y-9729012D01*
X2997809Y-9744659D01*
X2998419Y-9751110D01*
X3000146Y-9756851D01*
X3002991Y-9762083D01*
X3006750Y-9766706D01*
X3011373Y-9770516D01*
X3016656Y-9773310D01*
X3022346Y-9775037D01*
G37*
G36*
X2904896Y-9608007D02*
G01*
X2933293Y-9608007D01*
X2933293Y-9550095D01*
X2873908Y-9550095D01*
X2873908Y-9576968D01*
X2874518Y-9583420D01*
X2876245Y-9589109D01*
X2879090Y-9594392D01*
X2882849Y-9599015D01*
X2887472Y-9602825D01*
X2892755Y-9605619D01*
X2898444Y-9607346D01*
G37*
G36*
X3533343Y-9494113D02*
G01*
X3533343Y-9368536D01*
X3407918Y-9368536D01*
X3411626Y-9375698D01*
X3424478Y-9396323D01*
X3438906Y-9415830D01*
X3454857Y-9434169D01*
X3472179Y-9451187D01*
X3490823Y-9466732D01*
X3510635Y-9480804D01*
X3531514Y-9493199D01*
G37*
G36*
X3821074Y-9493910D02*
G01*
X3833469Y-9487204D01*
X3853789Y-9473946D01*
X3873042Y-9459163D01*
X3891076Y-9442856D01*
X3907739Y-9425178D01*
X3922928Y-9406229D01*
X3936542Y-9386112D01*
X3946550Y-9368536D01*
X3821074Y-9368536D01*
G37*
G36*
X1979574Y-9493910D02*
G01*
X1991969Y-9487204D01*
X2012289Y-9473946D01*
X2031542Y-9459163D01*
X2049576Y-9442856D01*
X2066239Y-9425178D01*
X2081428Y-9406229D01*
X2095042Y-9386112D01*
X2105050Y-9368536D01*
X1979574Y-9368536D01*
G37*
G36*
X2873908Y-9469882D02*
G01*
X2933293Y-9469882D01*
X2933293Y-9411970D01*
X2904896Y-9411970D01*
X2898444Y-9412630D01*
X2892755Y-9414357D01*
X2887472Y-9417151D01*
X2882849Y-9420961D01*
X2879090Y-9425533D01*
X2876245Y-9430816D01*
X2874518Y-9436557D01*
X2873908Y-9442958D01*
G37*
G36*
X2927959Y-9315094D02*
G01*
X2941015Y-9307982D01*
X2952750Y-9299448D01*
X2963316Y-9289491D01*
X2972562Y-9278315D01*
X2980334Y-9266072D01*
X2983534Y-9259316D01*
X2927959Y-9259316D01*
G37*
G36*
X2673959Y-9315094D02*
G01*
X2687015Y-9307982D01*
X2698750Y-9299448D01*
X2709316Y-9289491D01*
X2718562Y-9278315D01*
X2726334Y-9266072D01*
X2729534Y-9259316D01*
X2673959Y-9259316D01*
G37*
G36*
X2830271Y-9315094D02*
G01*
X2830271Y-9259316D01*
X2774746Y-9259316D01*
X2777947Y-9266072D01*
X2785719Y-9278315D01*
X2794965Y-9289491D01*
X2805531Y-9299448D01*
X2817266Y-9307982D01*
G37*
G36*
X2576271Y-9315094D02*
G01*
X2576271Y-9259316D01*
X2520746Y-9259316D01*
X2523947Y-9266072D01*
X2531719Y-9278315D01*
X2540965Y-9289491D01*
X2551531Y-9299448D01*
X2563266Y-9307982D01*
G37*
G36*
X2927959Y-9161627D02*
G01*
X2983534Y-9161627D01*
X2980334Y-9154820D01*
X2972562Y-9142577D01*
X2963316Y-9131401D01*
X2952750Y-9121495D01*
X2941015Y-9112961D01*
X2927959Y-9105849D01*
G37*
G36*
X2520746Y-9161627D02*
G01*
X2576271Y-9161627D01*
X2576271Y-9105849D01*
X2563266Y-9112961D01*
X2551531Y-9121495D01*
X2540965Y-9131401D01*
X2531719Y-9142577D01*
X2523947Y-9154820D01*
G37*
G36*
X2673959Y-9161627D02*
G01*
X2729534Y-9161627D01*
X2726334Y-9154820D01*
X2718562Y-9142577D01*
X2709316Y-9131401D01*
X2698750Y-9121495D01*
X2687015Y-9112961D01*
X2673959Y-9105849D01*
G37*
G36*
X2774746Y-9161627D02*
G01*
X2830271Y-9161627D01*
X2830271Y-9105849D01*
X2817266Y-9112961D01*
X2805531Y-9121495D01*
X2794965Y-9131401D01*
X2785719Y-9142577D01*
X2777947Y-9154820D01*
G37*
G36*
X3821074Y-9080855D02*
G01*
X3946550Y-9080855D01*
X3936542Y-9063278D01*
X3922928Y-9043162D01*
X3907739Y-9024213D01*
X3891076Y-9006535D01*
X3873042Y-8990228D01*
X3853789Y-8975394D01*
X3833469Y-8962186D01*
X3821074Y-8955430D01*
G37*
G36*
X1979574Y-9080855D02*
G01*
X2105050Y-9080855D01*
X2095042Y-9063278D01*
X2081428Y-9043162D01*
X2066239Y-9024213D01*
X2049576Y-9006535D01*
X2031542Y-8990228D01*
X2012289Y-8975394D01*
X1991969Y-8962186D01*
X1979574Y-8955430D01*
G37*
G36*
X3407918Y-9080855D02*
G01*
X3533343Y-9080855D01*
X3533343Y-8955278D01*
X3531514Y-8956141D01*
X3510635Y-8968587D01*
X3490823Y-8982608D01*
X3472179Y-8998204D01*
X3454857Y-9015222D01*
X3438906Y-9033560D01*
X3424478Y-9053068D01*
X3411626Y-9073692D01*
G37*

%LPD*%
D10*
X2345994Y-11633875D02*
G01*
X2421130Y-11709011D01*
X2421130Y-12141075D01*
X2337663Y-12446000D02*
G01*
X2191240Y-12299576D01*
X2104130Y-12299576D01*
X2104130Y-12141075D02*
G01*
X2270457Y-12141075D01*
X1953460Y-12299579D02*
G01*
X1953460Y-12141075D01*
X1953460Y-12299579D02*
G01*
X1937001Y-12316030D01*
X1937001Y-12458166D01*
D11*
X3296920Y-11812176D02*
G01*
X3391915Y-11812176D01*
D10*
X2381801Y-13015097D02*
G01*
X2377495Y-13019402D01*
X2377495Y-13143537D01*
D11*
X2599395Y-11285176D02*
G01*
X2592806Y-11278588D01*
X2592806Y-11126673D01*
X2592806Y-11126673D02*
G01*
X2592806Y-10812632D01*
X2463053Y-10682879D01*
X2592806Y-11126673D02*
G01*
X2589590Y-11129888D01*
X2409093Y-11129888D01*
D10*
X2409190Y-10999978D02*
G01*
X2409190Y-10869929D01*
X2219101Y-10869869D02*
G01*
X2215893Y-10873077D01*
X2123894Y-10873077D01*
D11*
X3106597Y-12179383D02*
G01*
X3099988Y-12172774D01*
X2979793Y-12172774D01*
X2488336Y-12446000D02*
G01*
X2627200Y-12584864D01*
X3131693Y-12584864D01*
D10*
X2091994Y-11379875D02*
G01*
X2345994Y-11633875D01*
X2091994Y-11379875D02*
G01*
X2035395Y-11323276D01*
X2035395Y-11126680D01*
X2035395Y-11126680D02*
G01*
X2038604Y-11129888D01*
X2219101Y-11129888D01*
X2228535Y-10682879D02*
G01*
X2219101Y-10692312D01*
X2219101Y-10869869D01*
X2228535Y-10682879D02*
G01*
X2114354Y-10682879D01*
X2333858Y-10460979D02*
G01*
X2228535Y-10566303D01*
X2228535Y-10682879D01*
X2484531Y-10460979D02*
G01*
X2567693Y-10377817D01*
X2567693Y-10282715D01*
X2567693Y-10132042D02*
G01*
X2420932Y-9985281D01*
X2346195Y-9985281D01*
X2371125Y-9210456D02*
G01*
X2346195Y-9235386D01*
X2346195Y-9985281D01*
D11*
X3577196Y-11348582D02*
G01*
X3613807Y-11311971D01*
X3613807Y-10340776D01*
D10*
X2377495Y-13143537D02*
G01*
X2397259Y-13123773D01*
X2555758Y-13123773D01*
X2706430Y-13123773D02*
G01*
X2758257Y-13071947D01*
X2758257Y-12950108D01*
X2377440Y-13294105D02*
G01*
X2376931Y-13599160D01*
D11*
X3138271Y-12926974D02*
G01*
X3125071Y-12940174D01*
X2948101Y-12940174D01*
X3144900Y-13250570D02*
G01*
X3138881Y-13256590D01*
X3138881Y-13599261D01*
X3138271Y-13066979D02*
G01*
X3144900Y-13073608D01*
X3144900Y-13250570D01*
X3138271Y-12926974D02*
G01*
X3131693Y-12920395D01*
X3131693Y-12743385D01*
X3131693Y-12584864D02*
G01*
X3131693Y-12743385D01*
X3113201Y-12362975D02*
G01*
X3131693Y-12381466D01*
X3131693Y-12584864D01*
X3106597Y-12179383D02*
G01*
X3113201Y-12185987D01*
X3113201Y-12362975D01*
X3113201Y-11855787D02*
G01*
X3106597Y-11862391D01*
X3106597Y-12039379D01*
X3113201Y-11855787D02*
G01*
X3156813Y-11812176D01*
X3296920Y-11812176D01*
X3337133Y-12141075D02*
G01*
X3296920Y-12100862D01*
X3296920Y-11812176D01*
X3636853Y-12141075D02*
G01*
X3708892Y-12069036D01*
X3708892Y-11814535D01*
X3708908Y-11814555D02*
G01*
X3486911Y-11812270D01*
X3577196Y-11348582D02*
G01*
X3577196Y-11448321D01*
X3708892Y-11580017D01*
X3372129Y-11348577D02*
G01*
X3577196Y-11348582D01*
D10*
X3423793Y-11095380D02*
G01*
X3221459Y-11297714D01*
X3221459Y-11348577D01*
X3169793Y-10841380D02*
G01*
X3169793Y-11054206D01*
X3048000Y-11176000D01*
X3048000Y-11493500D01*
X3136861Y-11582356D01*
X3296914Y-11582356D01*
X3169790Y-10841377D02*
G01*
X3150026Y-10861141D01*
X2948101Y-10861141D01*
X3392091Y-10587377D02*
G01*
X3169793Y-10809676D01*
X3169793Y-10841380D01*
D11*
X3428489Y-10207381D02*
G01*
X3435098Y-10200772D01*
X3613807Y-10200772D01*
X3396792Y-9922080D02*
G01*
X3440429Y-9878443D01*
X3613792Y-9878443D01*
X3613792Y-10029116D02*
G01*
X3613807Y-10200772D01*
X3530627Y-9700181D02*
G01*
X3613792Y-9783345D01*
X3613792Y-9878443D01*
X3208294Y-9700181D02*
G01*
X3379955Y-9700181D01*
X3174898Y-9509986D02*
G01*
X3208294Y-9543381D01*
X3208294Y-9700181D01*
X3133125Y-9210456D02*
G01*
X3174898Y-9252229D01*
X3174898Y-9509986D01*
D12*
G01*
X3396795Y-9922080D03*
G01*
X3196790Y-9922080D03*
D13*
G01*
X1879828Y-10682884D03*
G01*
X2114346Y-10682884D03*
G01*
X2228545Y-10682884D03*
G01*
X2463038Y-10682884D03*
D14*
G01*
X3708882Y-11814530D03*
G01*
X3708882Y-11580037D03*
D15*
G01*
X2567693Y-10282703D03*
D16*
G01*
X2567686Y-10132060D03*
D17*
G01*
X2555769Y-13123773D03*
G01*
X2706419Y-13123773D03*
D15*
G01*
X2377495Y-13294198D03*
D16*
G01*
X2377490Y-13143560D03*
D18*
G01*
X2488324Y-12446000D03*
G01*
X2337675Y-12446000D03*
G01*
X3530616Y-9700181D03*
G01*
X3379966Y-9700181D03*
D15*
G01*
X3613792Y-10029104D03*
D16*
G01*
X3613784Y-9878466D03*
D18*
G01*
X2104119Y-12299576D03*
G01*
X1953469Y-12299576D03*
D17*
G01*
X2333870Y-10460979D03*
G01*
X2484520Y-10460979D03*
D19*
G01*
X3486911Y-11582349D03*
G01*
X3391915Y-11582349D03*
G01*
X3296920Y-11582349D03*
G01*
X3296920Y-11812168D03*
G01*
X3391915Y-11812168D03*
G01*
X3486911Y-11812168D03*
D20*
G01*
X3636848Y-12141072D03*
G01*
X3337128Y-12141072D03*
D18*
G01*
X3372117Y-11348577D03*
G01*
X3221468Y-11348577D03*
G01*
X2421119Y-12141075D03*
G01*
X2270469Y-12141075D03*
D15*
G01*
X2948094Y-10861153D03*
D16*
G01*
X2948101Y-11011814D03*
D18*
G01*
X2104119Y-12141075D03*
G01*
X1953469Y-12141075D03*
D12*
G01*
X3428494Y-10207381D03*
G01*
X3228489Y-10207381D03*
D21*
G01*
X3613810Y-10200767D03*
G01*
X3613810Y-10340771D03*
D22*
G01*
X3113201Y-12362967D03*
G01*
X2973197Y-12362967D03*
G01*
X3208299Y-9700183D03*
G01*
X3068294Y-9700183D03*
D23*
G01*
X1937004Y-12458166D03*
G01*
X1937004Y-12648158D03*
G01*
X2183993Y-12553162D03*
D24*
G01*
X2758236Y-12950113D03*
G01*
X2757550Y-12790220D03*
D25*
G01*
X3577191Y-11348577D03*
G01*
X3777195Y-11348577D03*
D12*
G01*
X3174895Y-9509978D03*
G01*
X2974891Y-9509978D03*
D22*
G01*
X3144900Y-13250570D03*
G01*
X3004896Y-13250570D03*
D21*
G01*
X3106597Y-12039371D03*
G01*
X3106597Y-12179376D03*
G01*
X3138271Y-13066979D03*
G01*
X3138271Y-12926974D03*
D22*
G01*
X3113201Y-11855780D03*
G01*
X2973197Y-11855780D03*
D26*
G01*
X2948101Y-12940182D03*
G01*
X2948101Y-12800177D03*
D22*
G01*
X3131693Y-12584861D03*
G01*
X3271697Y-12584861D03*
G01*
X2592781Y-11126673D03*
G01*
X2732786Y-11126673D03*
G01*
X3131693Y-12743383D03*
G01*
X3271697Y-12743383D03*
G01*
X2035403Y-11126673D03*
G01*
X1895398Y-11126673D03*
D27*
G01*
X2409088Y-11129899D03*
G01*
X2219096Y-11129899D03*
G01*
X2219096Y-10869879D03*
G01*
X2314092Y-10869879D03*
G01*
X2409088Y-10869879D03*
D28*
G01*
X1838197Y-9985273D03*
G01*
X2092197Y-10239273D03*
G01*
X2346197Y-9985273D03*
G01*
X3423793Y-10587380D03*
G01*
X3169793Y-10841380D03*
G01*
X3423793Y-11095380D03*
G01*
X2091994Y-11887885D03*
G01*
X2345994Y-11633885D03*
G01*
X2091994Y-11379885D03*
D29*
G01*
X3133115Y-9210446D03*
D30*
G01*
X2879115Y-9210446D03*
G01*
X2625115Y-9210446D03*
G01*
X2371115Y-9210446D03*
D29*
G01*
X2376881Y-13599261D03*
D30*
G01*
X2630881Y-13599261D03*
G01*
X2884881Y-13599261D03*
G01*
X3138881Y-13599261D03*
D31*
G01*
X3677183Y-9224670D03*
G01*
X1835683Y-9224670D03*
G01*
X1838604Y-13662685D03*
G01*
X3677183Y-13662685D03*
D32*
G01*
X2599385Y-11285169D03*
G01*
X2979800Y-12172772D03*
G01*
X2979800Y-9795281D03*
G01*
X2853004Y-9605086D03*
G01*
X3074898Y-10048875D03*
G01*
X3106597Y-10334193D03*
G01*
X3835679Y-11475389D03*
G01*
X3391915Y-11697258D03*
G01*
X3582085Y-11697284D03*
G01*
X3391890Y-11475389D03*
G01*
X2853004Y-11855780D03*
G01*
X2853004Y-12362967D03*
G01*
X3360191Y-12679984D03*
G01*
X2853004Y-12711684D03*
G01*
X2884703Y-13250570D03*
G01*
X1933702Y-12553187D03*
G01*
X2821304Y-11126673D03*
G01*
X2314092Y-10999876D03*
G01*
X1870303Y-10809681D03*
G01*
X1870303Y-10556087D03*
G01*
X1870303Y-10999876D03*
D33*
G01*
X2504287Y-11285169D03*
G01*
X2694508Y-11285169D03*
G01*
X2979800Y-12267869D03*
G01*
X2884703Y-12172772D03*
G01*
X2853004Y-11031575D03*
G01*
X3238500Y-8953500D03*
G01*
X3429000Y-8953500D03*
G01*
X2409190Y-10999876D03*
G01*
X2381808Y-13015087D03*
G01*
X2123897Y-10873079D03*
G01*
X1587500Y-9842500D03*
G01*
X1587500Y-10033000D03*
G01*
X1587500Y-9652000D03*
G01*
X1587500Y-9461500D03*
G01*
X1587500Y-10604500D03*
G01*
X1587500Y-10795000D03*
G01*
X1587500Y-10414000D03*
G01*
X1587500Y-10223500D03*
G01*
X1587500Y-11366500D03*
G01*
X1587500Y-11557000D03*
G01*
X1587500Y-11176000D03*
G01*
X1587500Y-10985500D03*
G01*
X1587500Y-12128500D03*
G01*
X1587500Y-12319000D03*
G01*
X1587500Y-11938000D03*
G01*
X1587500Y-11747500D03*
G01*
X1587500Y-12890500D03*
G01*
X1587500Y-13081000D03*
G01*
X1587500Y-12700000D03*
G01*
X1587500Y-12509500D03*
G01*
X1587500Y-13462000D03*
G01*
X1587500Y-13271500D03*
G01*
X3937000Y-13462000D03*
G01*
X3937000Y-13271500D03*
G01*
X3937000Y-13081000D03*
G01*
X3937000Y-12890500D03*
G01*
X3937000Y-12700000D03*
G01*
X3937000Y-12509500D03*
G01*
X3937000Y-12319000D03*
G01*
X3937000Y-12128500D03*
G01*
X3937000Y-11938000D03*
G01*
X3937000Y-11747500D03*
G01*
X3937000Y-11557000D03*
G01*
X3937000Y-11366500D03*
G01*
X3937000Y-11176000D03*
G01*
X3937000Y-10985500D03*
G01*
X3937000Y-10795000D03*
G01*
X3937000Y-10604500D03*
G01*
X3937000Y-10414000D03*
G01*
X3937000Y-10223500D03*
G01*
X3937000Y-10033000D03*
G01*
X3937000Y-9842500D03*
G01*
X3937000Y-9652000D03*
G01*
X3937000Y-9461500D03*
G01*
X2857500Y-8953500D03*
G01*
X3048000Y-8953500D03*
G01*
X2667000Y-8953500D03*
G01*
X2476500Y-8953500D03*
G01*
X2095500Y-8953500D03*
G01*
X2286000Y-8953500D03*
G01*
X2095500Y-13906500D03*
G01*
X2286000Y-13906500D03*
G01*
X2476500Y-13906500D03*
G01*
X2667000Y-13906500D03*
G01*
X2857500Y-13906500D03*
G01*
X3048000Y-13906500D03*
G01*
X3238500Y-13906500D03*
G01*
X3429000Y-13906500D03*
G01*
X3201695Y-12077877D03*
G01*
X3201695Y-11950877D03*
G01*
X3201695Y-12331471D03*
G01*
X3201695Y-12204471D03*
G01*
X3328695Y-12458064D03*
G01*
X3201695Y-12458064D03*
G01*
X3613988Y-12458064D03*
G01*
X3486988Y-12458064D03*
G01*
X3740581Y-12458064D03*
G01*
X3867404Y-12458064D03*
G01*
X2979800Y-11570487D03*
G01*
X2916402Y-11443868D03*
G01*
X2916402Y-11316868D03*
G01*
X2916402Y-11190071D03*
G01*
X2476500Y-9398000D03*
G01*
X2476500Y-9525000D03*
G01*
X2476500Y-9779000D03*
G01*
X2476500Y-9652000D03*
G01*
X2476500Y-9906000D03*
G01*
X2567686Y-9985476D03*
G01*
X2662783Y-10080574D03*
G01*
X2662783Y-10207370D03*
G01*
X2662783Y-10334193D03*
G01*
X2599385Y-10587786D03*
G01*
X2599385Y-10460989D03*
G01*
X2472588Y-10587786D03*
G01*
X2345791Y-10587786D03*
G01*
X2345791Y-10682884D03*
G01*
X2345791Y-10777981D03*
G01*
X2314092Y-11126673D03*
G01*
X2314092Y-11253470D03*
G01*
X2286000Y-12255500D03*
G01*
X2413000Y-12255500D03*
G01*
X2123897Y-12426365D03*
G01*
X2853004Y-12870179D03*
G01*
X2853004Y-12996976D03*
G01*
X2222500Y-12446000D03*
D34*
G01*
X2853004Y-13123773D03*
M02*
