G04 Layer: BottomLayer*
G04 EasyEDA v6.5.22, 2022-11-16 13:34:59*
G04 f373a78c2b44414ab1ea4af223c4ca1c,9a5be75d700b4a6385dc1106f27949ae,10*
G04 Gerber Generator version 0.2*
G04 Scale: 100 percent, Rotated: No, Reflected: No *
G04 Dimensions in millimeters *
G04 leading zeros omitted , absolute positions ,4 integer and 5 decimal *
%FSLAX45Y45*%
%MOMM*%

%ADD10C,0.4000*%
%ADD11C,0.2100*%
%ADD12C,1.8000*%
%ADD13R,1.7000X1.7000*%
%ADD14C,1.7000*%
%ADD15C,5.0000*%
%ADD16C,0.6000*%
%ADD17C,0.8000*%
%ADD18C,0.0148*%

%LPD*%
G36*
X1715719Y-14374012D02*
G01*
X1699310Y-14373148D01*
X1684782Y-14370913D01*
X1670507Y-14367306D01*
X1656689Y-14362328D01*
X1643380Y-14355978D01*
X1630781Y-14348358D01*
X1618996Y-14339569D01*
X1608124Y-14329663D01*
X1598320Y-14318742D01*
X1589582Y-14306854D01*
X1582064Y-14294205D01*
X1575816Y-14280896D01*
X1570888Y-14267027D01*
X1567383Y-14252752D01*
X1565249Y-14238173D01*
X1564538Y-14222780D01*
X1564538Y-8750198D01*
X1565300Y-8746286D01*
X1567484Y-8742984D01*
X1570786Y-8740800D01*
X1574698Y-8740038D01*
X1777492Y-8740038D01*
X1785670Y-8739225D01*
X1792986Y-8736990D01*
X1799793Y-8733383D01*
X1806651Y-8727592D01*
X1811883Y-8721293D01*
X1813407Y-8718397D01*
X1815642Y-8715603D01*
X1818741Y-8713724D01*
X1822297Y-8713063D01*
X3699103Y-8706713D01*
X3703320Y-8707628D01*
X3706774Y-8710168D01*
X3712616Y-8721293D01*
X3718407Y-8728151D01*
X3724706Y-8733383D01*
X3731514Y-8736990D01*
X3738829Y-8739225D01*
X3747008Y-8740038D01*
X3949852Y-8740038D01*
X3953713Y-8740800D01*
X3957015Y-8742984D01*
X3959199Y-8746286D01*
X3959961Y-8750198D01*
X3959961Y-14222780D01*
X3959148Y-14239189D01*
X3956913Y-14253718D01*
X3953306Y-14267992D01*
X3948328Y-14281810D01*
X3941978Y-14295119D01*
X3934358Y-14307718D01*
X3925570Y-14319504D01*
X3915664Y-14330375D01*
X3904742Y-14340179D01*
X3892854Y-14348917D01*
X3880205Y-14356435D01*
X3866896Y-14362684D01*
X3853027Y-14367611D01*
X3838752Y-14371116D01*
X3824173Y-14373250D01*
X3808780Y-14374012D01*
G37*

%LPC*%
G36*
X3814368Y-14339468D02*
G01*
X3830828Y-14329968D01*
X3849827Y-14316760D01*
X3867607Y-14302028D01*
X3884117Y-14285874D01*
X3899255Y-14268399D01*
X3912819Y-14249704D01*
X3924808Y-14229943D01*
X3925570Y-14228368D01*
X3814368Y-14228368D01*
G37*
G36*
X1972868Y-14339468D02*
G01*
X1989328Y-14329968D01*
X2008327Y-14316760D01*
X2026107Y-14302028D01*
X2042617Y-14285874D01*
X2057755Y-14268399D01*
X2071319Y-14249704D01*
X2083307Y-14229943D01*
X2084070Y-14228368D01*
X1972868Y-14228368D01*
G37*
G36*
X1710182Y-14339417D02*
G01*
X1710182Y-14228368D01*
X1599133Y-14228368D01*
X1605534Y-14239951D01*
X1618284Y-14259204D01*
X1632661Y-14277289D01*
X1648460Y-14294154D01*
X1665630Y-14309598D01*
X1684070Y-14323568D01*
X1703578Y-14335963D01*
G37*
G36*
X3551682Y-14339417D02*
G01*
X3551682Y-14228368D01*
X3440633Y-14228368D01*
X3447034Y-14239951D01*
X3459784Y-14259204D01*
X3474161Y-14277289D01*
X3489960Y-14294154D01*
X3507130Y-14309598D01*
X3525570Y-14323568D01*
X3545078Y-14335963D01*
G37*
G36*
X2292451Y-14279981D02*
G01*
X2461310Y-14279981D01*
X2467660Y-14279270D01*
X2473096Y-14277340D01*
X2478024Y-14274292D01*
X2482088Y-14270177D01*
X2485186Y-14265300D01*
X2487066Y-14259813D01*
X2487777Y-14253514D01*
X2487777Y-14084655D01*
X2487066Y-14078305D01*
X2485186Y-14072869D01*
X2482088Y-14067942D01*
X2478024Y-14063878D01*
X2473096Y-14060779D01*
X2467660Y-14058849D01*
X2461310Y-14058138D01*
X2292451Y-14058138D01*
X2286152Y-14058849D01*
X2280666Y-14060779D01*
X2275789Y-14063878D01*
X2271674Y-14067942D01*
X2268626Y-14072869D01*
X2266696Y-14078305D01*
X2265984Y-14084655D01*
X2265984Y-14253514D01*
X2266696Y-14259813D01*
X2268626Y-14265300D01*
X2271674Y-14270177D01*
X2275789Y-14274292D01*
X2280666Y-14277340D01*
X2286152Y-14279270D01*
G37*
G36*
X2634437Y-14279880D02*
G01*
X2648610Y-14278559D01*
X2662428Y-14275358D01*
X2675788Y-14270482D01*
X2688386Y-14263878D01*
X2700020Y-14255750D01*
X2710535Y-14246199D01*
X2719781Y-14235379D01*
X2727502Y-14223492D01*
X2733700Y-14210690D01*
X2738170Y-14197177D01*
X2740863Y-14183258D01*
X2741777Y-14169085D01*
X2740863Y-14154912D01*
X2738170Y-14140942D01*
X2733700Y-14127480D01*
X2727502Y-14114678D01*
X2719781Y-14102740D01*
X2710535Y-14091919D01*
X2700020Y-14082369D01*
X2688386Y-14074241D01*
X2675788Y-14067688D01*
X2662428Y-14062760D01*
X2648610Y-14059611D01*
X2634437Y-14058239D01*
X2620264Y-14058696D01*
X2606243Y-14060982D01*
X2592578Y-14064996D01*
X2579624Y-14070736D01*
X2567432Y-14078102D01*
X2556357Y-14086992D01*
X2546451Y-14097203D01*
X2537968Y-14108582D01*
X2531008Y-14120977D01*
X2525674Y-14134134D01*
X2522067Y-14147850D01*
X2520238Y-14161973D01*
X2520238Y-14176197D01*
X2522067Y-14190268D01*
X2525674Y-14204035D01*
X2531008Y-14217192D01*
X2537968Y-14229588D01*
X2546451Y-14240967D01*
X2556357Y-14251178D01*
X2567432Y-14260017D01*
X2579624Y-14267383D01*
X2592578Y-14273123D01*
X2606243Y-14277187D01*
X2620264Y-14279422D01*
G37*
G36*
X3142437Y-14279880D02*
G01*
X3156610Y-14278559D01*
X3170428Y-14275358D01*
X3183788Y-14270482D01*
X3196386Y-14263878D01*
X3208020Y-14255750D01*
X3218535Y-14246199D01*
X3227781Y-14235379D01*
X3235502Y-14223492D01*
X3241700Y-14210690D01*
X3246170Y-14197177D01*
X3248863Y-14183258D01*
X3249777Y-14169085D01*
X3248863Y-14154912D01*
X3246170Y-14140942D01*
X3241700Y-14127480D01*
X3235502Y-14114678D01*
X3227781Y-14102740D01*
X3218535Y-14091919D01*
X3208020Y-14082369D01*
X3196386Y-14074241D01*
X3183788Y-14067688D01*
X3170428Y-14062760D01*
X3156610Y-14059611D01*
X3142437Y-14058239D01*
X3128264Y-14058696D01*
X3114243Y-14060982D01*
X3100578Y-14064996D01*
X3087624Y-14070736D01*
X3075432Y-14078102D01*
X3064357Y-14086992D01*
X3054451Y-14097203D01*
X3045968Y-14108582D01*
X3039008Y-14120977D01*
X3033674Y-14134134D01*
X3030067Y-14147850D01*
X3028238Y-14161973D01*
X3028238Y-14176197D01*
X3030067Y-14190268D01*
X3033674Y-14204035D01*
X3039008Y-14217192D01*
X3045968Y-14229588D01*
X3054451Y-14240967D01*
X3064357Y-14251178D01*
X3075432Y-14260017D01*
X3087624Y-14267383D01*
X3100578Y-14273123D01*
X3114243Y-14277187D01*
X3128264Y-14279422D01*
G37*
G36*
X2836062Y-14268450D02*
G01*
X2836062Y-14217904D01*
X2785414Y-14217904D01*
X2791968Y-14229588D01*
X2800451Y-14240967D01*
X2810357Y-14251178D01*
X2821432Y-14260017D01*
X2833624Y-14267383D01*
G37*
G36*
X2933750Y-14268399D02*
G01*
X2942386Y-14263878D01*
X2954020Y-14255750D01*
X2964535Y-14246199D01*
X2973781Y-14235379D01*
X2981502Y-14223492D01*
X2984195Y-14217904D01*
X2933750Y-14217904D01*
G37*
G36*
X2933750Y-14120215D02*
G01*
X2984195Y-14120215D01*
X2981502Y-14114678D01*
X2973781Y-14102740D01*
X2964535Y-14091919D01*
X2954020Y-14082369D01*
X2942386Y-14074241D01*
X2933750Y-14069720D01*
G37*
G36*
X2785414Y-14120215D02*
G01*
X2836062Y-14120215D01*
X2836062Y-14069669D01*
X2833624Y-14070736D01*
X2821432Y-14078102D01*
X2810357Y-14086992D01*
X2800451Y-14097203D01*
X2791968Y-14108582D01*
G37*
G36*
X1599133Y-13965682D02*
G01*
X1710182Y-13965682D01*
X1710182Y-13854633D01*
X1703578Y-13858087D01*
X1684070Y-13870432D01*
X1665630Y-13884401D01*
X1648460Y-13899896D01*
X1632661Y-13916710D01*
X1618284Y-13934846D01*
X1605534Y-13954099D01*
G37*
G36*
X3440633Y-13965682D02*
G01*
X3551682Y-13965682D01*
X3551682Y-13854633D01*
X3545078Y-13858087D01*
X3525570Y-13870432D01*
X3507130Y-13884401D01*
X3489960Y-13899896D01*
X3474161Y-13916710D01*
X3459784Y-13934846D01*
X3447034Y-13954099D01*
G37*
G36*
X3814368Y-13965682D02*
G01*
X3925570Y-13965682D01*
X3924808Y-13964107D01*
X3912819Y-13944346D01*
X3899255Y-13925651D01*
X3884117Y-13908125D01*
X3867607Y-13891971D01*
X3849827Y-13877239D01*
X3830828Y-13864082D01*
X3814368Y-13854531D01*
G37*
G36*
X1972868Y-13965682D02*
G01*
X2084070Y-13965682D01*
X2083307Y-13964107D01*
X2071319Y-13944346D01*
X2057755Y-13925651D01*
X2042617Y-13908125D01*
X2026107Y-13891971D01*
X2008327Y-13877239D01*
X1989328Y-13864082D01*
X1972868Y-13854531D01*
G37*
G36*
X2438247Y-12523876D02*
G01*
X2448966Y-12523419D01*
X2459228Y-12521336D01*
X2469134Y-12517577D01*
X2478328Y-12512294D01*
X2486507Y-12505588D01*
X2493568Y-12497663D01*
X2499207Y-12488672D01*
X2503373Y-12478918D01*
X2505913Y-12468656D01*
X2506522Y-12460782D01*
X2507437Y-12457328D01*
X2509469Y-12454382D01*
X2723032Y-12240869D01*
X2726283Y-12238685D01*
X2730195Y-12237923D01*
X2806395Y-12237923D01*
X2810205Y-12238634D01*
X2813456Y-12240717D01*
X2815844Y-12243003D01*
X2824581Y-12249048D01*
X2834132Y-12253569D01*
X2844342Y-12256566D01*
X2854858Y-12257836D01*
X2865424Y-12257379D01*
X2875838Y-12255296D01*
X2885744Y-12251537D01*
X2894939Y-12246203D01*
X2903118Y-12239498D01*
X2910179Y-12231573D01*
X2915818Y-12222632D01*
X2919984Y-12212878D01*
X2922524Y-12202566D01*
X2923387Y-12192000D01*
X2922524Y-12181433D01*
X2919984Y-12171121D01*
X2915818Y-12161367D01*
X2910179Y-12152426D01*
X2903118Y-12144502D01*
X2894939Y-12137796D01*
X2885744Y-12132462D01*
X2875838Y-12128703D01*
X2865424Y-12126620D01*
X2854858Y-12126163D01*
X2844342Y-12127433D01*
X2834132Y-12130430D01*
X2824581Y-12134951D01*
X2815844Y-12140996D01*
X2813456Y-12143282D01*
X2810205Y-12145365D01*
X2806395Y-12146076D01*
X2705201Y-12146127D01*
X2696464Y-12147346D01*
X2688437Y-12150039D01*
X2681071Y-12154154D01*
X2674162Y-12159894D01*
X2444750Y-12389256D01*
X2442057Y-12391237D01*
X2438806Y-12392152D01*
X2427732Y-12393523D01*
X2417521Y-12396470D01*
X2407970Y-12400991D01*
X2399233Y-12407036D01*
X2391562Y-12414402D01*
X2385212Y-12422835D01*
X2380284Y-12432233D01*
X2376932Y-12442291D01*
X2375204Y-12452756D01*
X2375204Y-12463373D01*
X2376932Y-12473838D01*
X2380284Y-12483896D01*
X2385212Y-12493294D01*
X2391562Y-12501727D01*
X2399233Y-12509093D01*
X2407970Y-12515138D01*
X2417521Y-12519660D01*
X2427732Y-12522606D01*
G37*
G36*
X1704136Y-12510516D02*
G01*
X1718665Y-12510516D01*
X1733092Y-12508687D01*
X1747215Y-12505080D01*
X1760728Y-12499746D01*
X1773478Y-12492736D01*
X1785264Y-12484150D01*
X1795881Y-12474194D01*
X1805127Y-12462967D01*
X1812950Y-12450724D01*
X1819148Y-12437516D01*
X1823618Y-12423698D01*
X1826361Y-12409424D01*
X1827275Y-12394895D01*
X1826361Y-12380366D01*
X1823618Y-12366040D01*
X1819148Y-12352223D01*
X1812950Y-12339066D01*
X1805127Y-12326772D01*
X1795881Y-12315545D01*
X1785264Y-12305588D01*
X1773478Y-12297003D01*
X1760728Y-12289993D01*
X1747215Y-12284659D01*
X1733092Y-12281052D01*
X1718665Y-12279223D01*
X1704136Y-12279223D01*
X1689658Y-12281052D01*
X1675587Y-12284659D01*
X1662074Y-12289993D01*
X1649323Y-12297003D01*
X1637538Y-12305588D01*
X1626920Y-12315545D01*
X1617624Y-12326772D01*
X1609852Y-12339066D01*
X1603654Y-12352223D01*
X1599133Y-12366040D01*
X1596440Y-12380366D01*
X1595526Y-12394895D01*
X1596440Y-12409424D01*
X1599133Y-12423698D01*
X1603654Y-12437516D01*
X1609852Y-12450724D01*
X1617624Y-12462967D01*
X1626920Y-12474194D01*
X1637538Y-12484150D01*
X1649323Y-12492736D01*
X1662074Y-12499746D01*
X1675587Y-12505080D01*
X1689658Y-12508687D01*
G37*
G36*
X2270760Y-12498628D02*
G01*
X2281478Y-12492736D01*
X2293264Y-12484150D01*
X2303881Y-12474194D01*
X2313127Y-12462967D01*
X2320950Y-12450724D01*
X2323033Y-12446203D01*
X2270760Y-12446203D01*
G37*
G36*
X2168042Y-12498628D02*
G01*
X2168042Y-12446203D01*
X2115718Y-12446203D01*
X2117852Y-12450724D01*
X2125624Y-12462967D01*
X2134920Y-12474194D01*
X2145538Y-12484150D01*
X2157323Y-12492736D01*
G37*
G36*
X2270760Y-12343536D02*
G01*
X2323033Y-12343536D01*
X2320950Y-12339066D01*
X2313127Y-12326772D01*
X2303881Y-12315545D01*
X2293264Y-12305588D01*
X2281478Y-12297003D01*
X2270760Y-12291110D01*
G37*
G36*
X2115718Y-12343536D02*
G01*
X2168042Y-12343536D01*
X2168042Y-12291110D01*
X2157323Y-12297003D01*
X2145538Y-12305588D01*
X2134920Y-12315545D01*
X2125624Y-12326772D01*
X2117852Y-12339066D01*
G37*
G36*
X2155596Y-12260326D02*
G01*
X2165299Y-12259513D01*
X2174697Y-12256973D01*
X2183536Y-12252858D01*
X2191512Y-12247270D01*
X2198370Y-12240361D01*
X2203958Y-12232386D01*
X2208072Y-12223597D01*
X2210612Y-12214148D01*
X2211476Y-12204496D01*
X2210612Y-12194794D01*
X2208072Y-12185345D01*
X2203958Y-12176556D01*
X2198370Y-12168581D01*
X2194966Y-12165126D01*
X2192782Y-12161824D01*
X2192020Y-12157964D01*
X2192020Y-11792864D01*
X2191258Y-11785295D01*
X2189175Y-11778488D01*
X2185822Y-11772188D01*
X2182063Y-11767616D01*
X2180488Y-11764975D01*
X2179777Y-11761978D01*
X2178913Y-11750954D01*
X2176373Y-11741556D01*
X2172258Y-11732768D01*
X2166670Y-11724792D01*
X2159812Y-11717883D01*
X2151837Y-11712295D01*
X2142998Y-11708180D01*
X2133600Y-11705640D01*
X2123897Y-11704828D01*
X2114194Y-11705640D01*
X2104796Y-11708180D01*
X2095957Y-11712295D01*
X2087981Y-11717883D01*
X2081123Y-11724792D01*
X2075535Y-11732768D01*
X2071420Y-11741556D01*
X2068880Y-11751005D01*
X2068017Y-11760708D01*
X2068880Y-11770360D01*
X2071420Y-11779808D01*
X2075535Y-11788597D01*
X2081123Y-11796572D01*
X2087981Y-11803481D01*
X2095957Y-11809069D01*
X2104796Y-11813184D01*
X2111654Y-11815013D01*
X2115566Y-11817045D01*
X2118258Y-11820550D01*
X2119172Y-11824817D01*
X2119172Y-12157964D01*
X2118410Y-12161824D01*
X2116226Y-12165126D01*
X2112822Y-12168581D01*
X2107234Y-12176556D01*
X2103120Y-12185345D01*
X2100580Y-12194794D01*
X2099716Y-12204496D01*
X2100580Y-12214148D01*
X2103120Y-12223597D01*
X2107234Y-12232386D01*
X2112822Y-12240361D01*
X2119680Y-12247270D01*
X2127656Y-12252858D01*
X2136495Y-12256973D01*
X2145893Y-12259513D01*
G37*
G36*
X1958136Y-12256516D02*
G01*
X1972665Y-12256516D01*
X1987092Y-12254687D01*
X2001215Y-12251080D01*
X2014728Y-12245746D01*
X2027478Y-12238736D01*
X2039264Y-12230150D01*
X2049881Y-12220194D01*
X2059127Y-12208967D01*
X2066950Y-12196724D01*
X2073148Y-12183516D01*
X2077618Y-12169698D01*
X2080361Y-12155424D01*
X2081275Y-12140895D01*
X2080361Y-12126366D01*
X2077618Y-12112040D01*
X2073148Y-12098223D01*
X2066950Y-12085066D01*
X2059127Y-12072772D01*
X2049881Y-12061545D01*
X2039264Y-12051588D01*
X2027478Y-12043003D01*
X2014728Y-12035993D01*
X2001215Y-12030659D01*
X1987092Y-12027052D01*
X1972665Y-12025223D01*
X1958136Y-12025223D01*
X1943658Y-12027052D01*
X1929587Y-12030659D01*
X1916074Y-12035993D01*
X1903323Y-12043003D01*
X1891538Y-12051588D01*
X1880920Y-12061545D01*
X1871624Y-12072772D01*
X1863852Y-12085066D01*
X1857654Y-12098223D01*
X1853133Y-12112040D01*
X1850440Y-12126366D01*
X1849526Y-12140895D01*
X1850440Y-12155424D01*
X1853133Y-12169698D01*
X1857654Y-12183516D01*
X1863852Y-12196724D01*
X1871624Y-12208967D01*
X1880920Y-12220194D01*
X1891538Y-12230150D01*
X1903323Y-12238736D01*
X1916074Y-12245746D01*
X1929587Y-12251080D01*
X1943658Y-12254687D01*
G37*
G36*
X3297021Y-11306352D02*
G01*
X3311499Y-11305438D01*
X3325825Y-11302746D01*
X3339642Y-11298224D01*
X3352850Y-11292027D01*
X3365093Y-11284254D01*
X3376320Y-11274958D01*
X3386277Y-11264341D01*
X3394862Y-11252555D01*
X3401872Y-11239804D01*
X3407206Y-11226292D01*
X3410813Y-11212169D01*
X3412642Y-11197742D01*
X3412642Y-11183213D01*
X3410813Y-11168786D01*
X3407206Y-11154664D01*
X3401872Y-11141151D01*
X3394862Y-11128400D01*
X3386277Y-11116614D01*
X3376320Y-11105997D01*
X3365093Y-11096701D01*
X3352850Y-11088928D01*
X3339642Y-11082731D01*
X3325825Y-11078210D01*
X3311499Y-11075517D01*
X3297021Y-11074603D01*
X3282492Y-11075517D01*
X3268167Y-11078210D01*
X3254349Y-11082731D01*
X3241141Y-11088928D01*
X3228898Y-11096701D01*
X3217672Y-11105997D01*
X3207715Y-11116614D01*
X3199130Y-11128400D01*
X3192119Y-11141151D01*
X3186785Y-11154664D01*
X3183178Y-11168786D01*
X3181350Y-11183213D01*
X3181350Y-11197742D01*
X3183178Y-11212169D01*
X3186785Y-11226292D01*
X3192119Y-11239804D01*
X3199130Y-11252555D01*
X3207715Y-11264341D01*
X3217672Y-11274958D01*
X3228898Y-11284254D01*
X3241141Y-11292027D01*
X3254349Y-11298224D01*
X3268167Y-11302746D01*
X3282492Y-11305438D01*
G37*
G36*
X1961235Y-11291671D02*
G01*
X1975764Y-11291671D01*
X1990191Y-11289842D01*
X2004314Y-11286236D01*
X2017826Y-11280851D01*
X2030577Y-11273840D01*
X2042363Y-11265306D01*
X2052980Y-11255349D01*
X2062276Y-11244122D01*
X2070049Y-11231829D01*
X2076246Y-11218672D01*
X2080768Y-11204803D01*
X2083460Y-11190528D01*
X2084374Y-11176000D01*
X2083460Y-11161471D01*
X2080768Y-11147196D01*
X2076246Y-11133328D01*
X2070049Y-11120170D01*
X2062276Y-11107877D01*
X2052980Y-11096650D01*
X2042363Y-11086693D01*
X2030577Y-11078159D01*
X2017826Y-11071148D01*
X2004314Y-11065764D01*
X1990191Y-11062157D01*
X1975764Y-11060328D01*
X1961235Y-11060328D01*
X1946808Y-11062157D01*
X1932686Y-11065764D01*
X1919173Y-11071148D01*
X1906422Y-11078159D01*
X1894636Y-11086693D01*
X1884019Y-11096650D01*
X1874723Y-11107877D01*
X1866950Y-11120170D01*
X1860753Y-11133328D01*
X1856232Y-11147196D01*
X1853539Y-11161471D01*
X1852625Y-11176000D01*
X1853539Y-11190528D01*
X1856232Y-11204803D01*
X1860753Y-11218672D01*
X1866950Y-11231829D01*
X1874723Y-11244122D01*
X1884019Y-11255349D01*
X1894636Y-11265306D01*
X1906422Y-11273840D01*
X1919173Y-11280851D01*
X1932686Y-11286236D01*
X1946808Y-11289842D01*
G37*
G36*
X3043021Y-11052352D02*
G01*
X3057499Y-11051438D01*
X3071825Y-11048746D01*
X3085642Y-11044224D01*
X3098850Y-11038027D01*
X3111093Y-11030254D01*
X3122320Y-11020958D01*
X3132277Y-11010341D01*
X3140862Y-10998555D01*
X3147872Y-10985804D01*
X3153206Y-10972292D01*
X3156813Y-10958169D01*
X3158642Y-10943742D01*
X3158642Y-10929213D01*
X3156813Y-10914786D01*
X3153206Y-10900664D01*
X3147872Y-10887151D01*
X3140862Y-10874400D01*
X3132277Y-10862614D01*
X3122320Y-10851997D01*
X3111093Y-10842701D01*
X3098850Y-10834928D01*
X3085642Y-10828731D01*
X3071825Y-10824210D01*
X3057499Y-10821517D01*
X3043021Y-10820603D01*
X3028492Y-10821517D01*
X3014167Y-10824210D01*
X3000349Y-10828731D01*
X2987141Y-10834928D01*
X2974898Y-10842701D01*
X2963672Y-10851997D01*
X2953715Y-10862614D01*
X2945130Y-10874400D01*
X2938119Y-10887151D01*
X2932785Y-10900664D01*
X2929178Y-10914786D01*
X2927350Y-10929213D01*
X2927350Y-10943742D01*
X2929178Y-10958169D01*
X2932785Y-10972292D01*
X2938119Y-10985804D01*
X2945130Y-10998555D01*
X2953715Y-11010341D01*
X2963672Y-11020958D01*
X2974898Y-11030254D01*
X2987141Y-11038027D01*
X3000349Y-11044224D01*
X3014167Y-11048746D01*
X3028492Y-11051438D01*
G37*
G36*
X1707235Y-11037671D02*
G01*
X1721764Y-11037671D01*
X1736191Y-11035842D01*
X1750314Y-11032236D01*
X1763826Y-11026851D01*
X1776577Y-11019840D01*
X1788363Y-11011306D01*
X1798980Y-11001349D01*
X1808276Y-10990122D01*
X1816049Y-10977829D01*
X1822246Y-10964672D01*
X1826768Y-10950803D01*
X1829460Y-10936528D01*
X1830374Y-10922000D01*
X1829460Y-10907471D01*
X1826768Y-10893196D01*
X1822246Y-10879328D01*
X1816049Y-10866170D01*
X1808276Y-10853877D01*
X1798980Y-10842650D01*
X1788363Y-10832693D01*
X1776577Y-10824159D01*
X1763826Y-10817148D01*
X1750314Y-10811764D01*
X1736191Y-10808157D01*
X1721764Y-10806328D01*
X1707235Y-10806328D01*
X1692808Y-10808157D01*
X1678686Y-10811764D01*
X1665173Y-10817148D01*
X1652422Y-10824159D01*
X1640636Y-10832693D01*
X1630019Y-10842650D01*
X1620723Y-10853877D01*
X1612950Y-10866170D01*
X1606753Y-10879328D01*
X1602232Y-10893196D01*
X1599539Y-10907471D01*
X1598625Y-10922000D01*
X1599539Y-10936528D01*
X1602232Y-10950803D01*
X1606753Y-10964672D01*
X1612950Y-10977829D01*
X1620723Y-10990122D01*
X1630019Y-11001349D01*
X1640636Y-11011306D01*
X1652422Y-11019840D01*
X1665173Y-11026851D01*
X1678686Y-11032236D01*
X1692808Y-11035842D01*
G37*
G36*
X2215235Y-11037671D02*
G01*
X2229764Y-11037671D01*
X2244191Y-11035842D01*
X2258314Y-11032236D01*
X2271826Y-11026851D01*
X2284577Y-11019840D01*
X2296363Y-11011306D01*
X2306980Y-11001349D01*
X2316276Y-10990122D01*
X2324049Y-10977829D01*
X2330246Y-10964672D01*
X2334768Y-10950803D01*
X2337460Y-10936528D01*
X2338374Y-10922000D01*
X2337460Y-10907471D01*
X2334768Y-10893196D01*
X2330246Y-10879328D01*
X2324049Y-10866170D01*
X2316276Y-10853877D01*
X2306980Y-10842650D01*
X2296363Y-10832693D01*
X2284577Y-10824159D01*
X2271826Y-10817148D01*
X2258314Y-10811764D01*
X2244191Y-10808157D01*
X2229764Y-10806328D01*
X2215235Y-10806328D01*
X2200808Y-10808157D01*
X2186686Y-10811764D01*
X2173173Y-10817148D01*
X2160422Y-10824159D01*
X2148636Y-10832693D01*
X2138019Y-10842650D01*
X2128723Y-10853877D01*
X2120950Y-10866170D01*
X2114753Y-10879328D01*
X2110232Y-10893196D01*
X2107539Y-10907471D01*
X2106625Y-10922000D01*
X2107539Y-10936528D01*
X2110232Y-10950803D01*
X2114753Y-10964672D01*
X2120950Y-10977829D01*
X2128723Y-10990122D01*
X2138019Y-11001349D01*
X2148636Y-11011306D01*
X2160422Y-11019840D01*
X2173173Y-11026851D01*
X2186686Y-11032236D01*
X2200808Y-11035842D01*
G37*
G36*
X3297021Y-10798352D02*
G01*
X3311499Y-10797438D01*
X3325825Y-10794746D01*
X3339642Y-10790224D01*
X3352850Y-10784027D01*
X3365093Y-10776254D01*
X3376320Y-10766958D01*
X3386277Y-10756341D01*
X3394862Y-10744555D01*
X3401872Y-10731804D01*
X3407206Y-10718292D01*
X3410813Y-10704169D01*
X3412642Y-10689742D01*
X3412642Y-10675213D01*
X3410813Y-10660786D01*
X3407206Y-10646664D01*
X3401872Y-10633151D01*
X3394862Y-10620400D01*
X3386277Y-10608614D01*
X3376320Y-10597997D01*
X3365093Y-10588701D01*
X3352850Y-10580928D01*
X3339642Y-10574731D01*
X3325825Y-10570210D01*
X3311499Y-10567517D01*
X3297021Y-10566603D01*
X3282492Y-10567517D01*
X3268167Y-10570210D01*
X3254349Y-10574731D01*
X3241141Y-10580928D01*
X3228898Y-10588701D01*
X3217672Y-10597997D01*
X3207715Y-10608614D01*
X3199130Y-10620400D01*
X3192119Y-10633151D01*
X3186785Y-10646664D01*
X3183178Y-10660786D01*
X3181350Y-10675213D01*
X3181350Y-10689742D01*
X3183178Y-10704169D01*
X3186785Y-10718292D01*
X3192119Y-10731804D01*
X3199130Y-10744555D01*
X3207715Y-10756341D01*
X3217672Y-10766958D01*
X3228898Y-10776254D01*
X3241141Y-10784027D01*
X3254349Y-10790224D01*
X3268167Y-10794746D01*
X3282492Y-10797438D01*
G37*
G36*
X3814368Y-9322968D02*
G01*
X3830828Y-9313468D01*
X3849827Y-9300260D01*
X3867607Y-9285528D01*
X3884117Y-9269374D01*
X3899255Y-9251899D01*
X3912819Y-9233204D01*
X3924808Y-9213443D01*
X3925570Y-9211868D01*
X3814368Y-9211868D01*
G37*
G36*
X1972868Y-9322968D02*
G01*
X1989328Y-9313468D01*
X2008327Y-9300260D01*
X2026107Y-9285528D01*
X2042617Y-9269374D01*
X2057755Y-9251899D01*
X2071319Y-9233204D01*
X2083307Y-9213443D01*
X2084070Y-9211868D01*
X1972868Y-9211868D01*
G37*
G36*
X1710182Y-9322917D02*
G01*
X1710182Y-9211868D01*
X1599133Y-9211868D01*
X1605534Y-9223451D01*
X1618284Y-9242704D01*
X1632661Y-9260789D01*
X1648460Y-9277654D01*
X1665630Y-9293098D01*
X1684070Y-9307068D01*
X1703578Y-9319463D01*
G37*
G36*
X3551682Y-9322917D02*
G01*
X3551682Y-9211868D01*
X3440633Y-9211868D01*
X3447034Y-9223451D01*
X3459784Y-9242704D01*
X3474161Y-9260789D01*
X3489960Y-9277654D01*
X3507130Y-9293098D01*
X3525570Y-9307068D01*
X3545078Y-9319463D01*
G37*
G36*
X3054400Y-9191701D02*
G01*
X3223412Y-9191701D01*
X3231794Y-9190888D01*
X3239363Y-9188551D01*
X3246374Y-9184843D01*
X3252520Y-9179814D01*
X3257550Y-9173667D01*
X3261258Y-9166656D01*
X3263595Y-9159087D01*
X3264408Y-9150705D01*
X3264408Y-8981694D01*
X3263595Y-8973312D01*
X3261258Y-8965692D01*
X3257550Y-8958681D01*
X3252520Y-8952585D01*
X3246374Y-8947556D01*
X3239363Y-8943797D01*
X3231794Y-8941511D01*
X3223412Y-8940698D01*
X3054400Y-8940698D01*
X3046018Y-8941511D01*
X3038398Y-8943797D01*
X3031439Y-8947556D01*
X3025292Y-8952585D01*
X3020263Y-8958681D01*
X3016504Y-8965692D01*
X3014218Y-8973312D01*
X3013405Y-8981694D01*
X3013405Y-9150705D01*
X3014218Y-9159087D01*
X3016504Y-9166656D01*
X3020263Y-9173667D01*
X3025292Y-9179814D01*
X3031439Y-9184843D01*
X3038398Y-9188551D01*
X3046018Y-9190888D01*
G37*
G36*
X2373325Y-9177020D02*
G01*
X2387549Y-9176562D01*
X2401570Y-9174276D01*
X2415184Y-9170263D01*
X2428189Y-9164472D01*
X2440330Y-9157106D01*
X2451455Y-9148267D01*
X2461310Y-9138056D01*
X2469845Y-9126677D01*
X2476804Y-9114282D01*
X2482138Y-9101124D01*
X2485745Y-9087358D01*
X2487574Y-9073286D01*
X2487574Y-9059062D01*
X2485745Y-9044990D01*
X2482138Y-9031224D01*
X2476804Y-9018066D01*
X2469845Y-9005671D01*
X2461310Y-8994292D01*
X2451455Y-8984081D01*
X2440330Y-8975242D01*
X2428189Y-8967876D01*
X2415184Y-8962136D01*
X2401570Y-8958072D01*
X2387549Y-8955786D01*
X2373325Y-8955328D01*
X2359202Y-8956700D01*
X2345334Y-8959900D01*
X2332024Y-8964777D01*
X2319426Y-8971381D01*
X2307742Y-8979509D01*
X2297226Y-8989060D01*
X2288032Y-8999880D01*
X2280259Y-9011767D01*
X2274112Y-9024569D01*
X2269642Y-9038031D01*
X2266899Y-9052001D01*
X2265984Y-9066174D01*
X2266899Y-9080347D01*
X2269642Y-9094317D01*
X2274112Y-9107779D01*
X2280259Y-9120581D01*
X2288032Y-9132519D01*
X2297226Y-9143339D01*
X2307742Y-9152890D01*
X2319426Y-9161018D01*
X2332024Y-9167571D01*
X2345334Y-9172498D01*
X2359202Y-9175648D01*
G37*
G36*
X2679750Y-9165590D02*
G01*
X2682189Y-9164472D01*
X2694330Y-9157106D01*
X2705455Y-9148267D01*
X2715310Y-9138056D01*
X2723845Y-9126677D01*
X2730398Y-9115044D01*
X2679750Y-9115044D01*
G37*
G36*
X2933750Y-9165590D02*
G01*
X2936189Y-9164472D01*
X2948330Y-9157106D01*
X2959455Y-9148267D01*
X2969310Y-9138056D01*
X2977845Y-9126677D01*
X2984398Y-9115044D01*
X2933750Y-9115044D01*
G37*
G36*
X2836062Y-9165488D02*
G01*
X2836062Y-9115044D01*
X2785618Y-9115044D01*
X2788259Y-9120581D01*
X2796032Y-9132519D01*
X2805226Y-9143339D01*
X2815742Y-9152890D01*
X2827426Y-9161018D01*
G37*
G36*
X2582062Y-9165488D02*
G01*
X2582062Y-9115044D01*
X2531618Y-9115044D01*
X2534259Y-9120581D01*
X2542032Y-9132519D01*
X2551226Y-9143339D01*
X2561742Y-9152890D01*
X2573426Y-9161018D01*
G37*
G36*
X2785618Y-9017355D02*
G01*
X2836062Y-9017355D01*
X2836062Y-8966860D01*
X2827426Y-8971381D01*
X2815742Y-8979509D01*
X2805226Y-8989060D01*
X2796032Y-8999880D01*
X2788259Y-9011767D01*
G37*
G36*
X2531618Y-9017355D02*
G01*
X2582062Y-9017355D01*
X2582062Y-8966860D01*
X2573426Y-8971381D01*
X2561742Y-8979509D01*
X2551226Y-8989060D01*
X2542032Y-8999880D01*
X2534259Y-9011767D01*
G37*
G36*
X2933750Y-9017355D02*
G01*
X2984398Y-9017355D01*
X2977845Y-9005671D01*
X2969310Y-8994292D01*
X2959455Y-8984081D01*
X2948330Y-8975242D01*
X2936189Y-8967876D01*
X2933750Y-8966809D01*
G37*
G36*
X2679750Y-9017355D02*
G01*
X2730398Y-9017355D01*
X2723845Y-9005671D01*
X2715310Y-8994292D01*
X2705455Y-8984081D01*
X2694330Y-8975242D01*
X2682189Y-8967876D01*
X2679750Y-8966809D01*
G37*
G36*
X1599133Y-8949182D02*
G01*
X1710182Y-8949182D01*
X1710182Y-8838133D01*
X1703578Y-8841587D01*
X1684070Y-8853932D01*
X1665630Y-8867902D01*
X1648460Y-8883396D01*
X1632661Y-8900210D01*
X1618284Y-8918346D01*
X1605534Y-8937599D01*
G37*
G36*
X3440633Y-8949182D02*
G01*
X3551682Y-8949182D01*
X3551682Y-8838133D01*
X3545078Y-8841587D01*
X3525570Y-8853932D01*
X3507130Y-8867902D01*
X3489960Y-8883396D01*
X3474161Y-8900210D01*
X3459784Y-8918346D01*
X3447034Y-8937599D01*
G37*
G36*
X3814368Y-8949182D02*
G01*
X3925570Y-8949182D01*
X3924808Y-8947607D01*
X3912819Y-8927846D01*
X3899255Y-8909151D01*
X3884117Y-8891625D01*
X3867607Y-8875471D01*
X3849827Y-8860739D01*
X3830828Y-8847582D01*
X3814368Y-8838031D01*
G37*
G36*
X1972868Y-8949182D02*
G01*
X2084070Y-8949182D01*
X2083307Y-8947607D01*
X2071319Y-8927846D01*
X2057755Y-8909151D01*
X2042617Y-8891625D01*
X2026107Y-8875471D01*
X2008327Y-8860739D01*
X1989328Y-8847582D01*
X1972868Y-8838031D01*
G37*

%LPD*%
D10*
X2440894Y-12458075D02*
G01*
X2706969Y-12192000D01*
X2857500Y-12192000D01*
D11*
X2123894Y-11760677D02*
G01*
X2155596Y-11792379D01*
X2155596Y-12204476D01*
D12*
G01*
X1711401Y-12394869D03*
G01*
X1965401Y-12140869D03*
G01*
X2219401Y-12394869D03*
G01*
X2222500Y-10922000D03*
G01*
X1968500Y-11176000D03*
G01*
X1714500Y-10922000D03*
G01*
X3296996Y-11190478D03*
G01*
X3042996Y-10936478D03*
G01*
X3296996Y-10682478D03*
D13*
G01*
X2376881Y-14169059D03*
D14*
G01*
X2630881Y-14169059D03*
G01*
X2884881Y-14169059D03*
G01*
X3138881Y-14169059D03*
D13*
G01*
X3138881Y-9066174D03*
D14*
G01*
X2884881Y-9066174D03*
G01*
X2630881Y-9066174D03*
G01*
X2376881Y-9066174D03*
D15*
G01*
X3683000Y-9080500D03*
G01*
X1841500Y-9080500D03*
G01*
X1841500Y-14097000D03*
G01*
X3683000Y-14097000D03*
D16*
G01*
X2603500Y-9334500D03*
G01*
X3391890Y-9922078D03*
G01*
X2028799Y-10017175D03*
G01*
X2314092Y-9953777D03*
G01*
X2662783Y-10334193D03*
G01*
X3106597Y-11792381D03*
G01*
X1933702Y-11760682D03*
G01*
X2821304Y-13250570D03*
G01*
X3613784Y-13187171D03*
G01*
X3556076Y-11557025D03*
G01*
X2757881Y-11665585D03*
G01*
X2535986Y-12077674D03*
G01*
X2377490Y-13377367D03*
G01*
X2123897Y-11760682D03*
G01*
X2155596Y-12204471D03*
D17*
G01*
X2440889Y-12458064D03*
G01*
X2857500Y-12192000D03*
D16*
G01*
X2757881Y-11380266D03*
G01*
X2757881Y-11031575D03*
G01*
X2345791Y-10619486D03*
G01*
X2567686Y-10841380D03*
G01*
X2789605Y-11982577D03*
G01*
X3011500Y-12331268D03*
G01*
X3138297Y-12838480D03*
G01*
X3632327Y-11292078D03*
G01*
X3645484Y-10682884D03*
G01*
X3899103Y-10682884D03*
G01*
X3867404Y-11348567D03*
G01*
X3804005Y-11665585D03*
G01*
X3550386Y-11824080D03*
G01*
X3391890Y-12362967D03*
G01*
X3772306Y-12362967D03*
G01*
X3613784Y-10936478D03*
G01*
X2286000Y-9271000D03*
G01*
X2032000Y-9398000D03*
G01*
X1968500Y-9652000D03*
G01*
X1806905Y-9858679D03*
G01*
X2159000Y-10350500D03*
G01*
X3138297Y-12553187D03*
G01*
X3360191Y-12679984D03*
M02*
